<svg width="16" height="16" viewBox="0 0 16 16" fill="none" xmlns="http://www.w3.org/2000/svg">
<path fill-rule="evenodd" clip-rule="evenodd" d="M3.2 0.8C3.2 0.357812 3.55781 0 4 0C4.24141 0 4.45781 0.107031 4.60469 0.276172C4.72656 0.416406 4.8 0.599609 4.8 0.8V3.2C4.8 3.64219 4.44219 4 4 4C3.79453 4 3.60703 3.92344 3.46563 3.79688C3.30234 3.65 3.2 3.4375 3.2 3.2V0.8ZM11.2 0.8C11.2 0.357812 11.5578 0 12 0C12.4422 0 12.8 0.357812 12.8 0.8V3.2C12.8 3.64219 12.4422 4 12 4C11.5578 4 11.2 3.64219 11.2 3.2V0.8ZM2.4 3.2V1.6H1.6C0.716406 1.6 0 2.31562 0 3.2V14.4C0 15.2844 0.716406 16 1.6 16H10.6547C10.0789 15.7203 9.58047 15.307 9.2 14.8H1.2V6H14.8V9.19961C15.1055 9.42891 15.3773 9.70117 15.6062 10.007C15.757 10.209 15.8891 10.4254 16 10.6543V3.2C16 2.31562 15.2836 1.6 14.4 1.6H13.6V3.2C13.6 4.08437 12.8836 4.8 12 4.8C11.7016 4.8 11.4227 4.71836 11.1836 4.57656C10.7148 4.29805 10.4 3.78594 10.4 3.2V1.6H5.6V3.2C5.6 3.76445 5.30859 4.26016 4.86719 4.54492C4.61719 4.70625 4.31953 4.8 4 4.8C3.11641 4.8 2.4 4.08437 2.4 3.2ZM14.8633 12.4C14.8633 11.0395 13.7602 9.93672 12.4 9.93672C11.0398 9.93672 9.93672 11.0395 9.93672 12.4C9.93672 13.7605 11.0398 14.8633 12.4 14.8633C13.7602 14.8633 14.8633 13.7605 14.8633 12.4ZM12.4 8.8C14.3883 8.8 16 10.4117 16 12.4C16 14.3883 14.3883 16 12.4 16C10.4117 16 8.8 14.3883 8.8 12.4C8.8 10.4117 10.4117 8.8 12.4 8.8ZM12.4148 10.4031C12.6141 10.4031 12.7742 10.5641 12.7742 10.7625V12.0805H14.0922C14.2914 12.0805 14.4523 12.2414 14.4523 12.4398C14.4523 12.6383 14.2914 12.7992 14.0922 12.7992H12.7742V14.1172C12.7742 14.3156 12.6141 14.4766 12.4148 14.4766C12.2164 14.4766 12.0555 14.3156 12.0555 14.1172V12.7992H10.7375C10.5391 12.7992 10.3781 12.6383 10.3781 12.4398C10.3781 12.2414 10.5391 12.0805 10.7375 12.0805H12.0555V10.7625C12.0555 10.5641 12.2164 10.4031 12.4148 10.4031Z" fill="#383192"/>
</svg>
