<svg width="30" height="30" viewBox="0 0 30 30" fill="none" xmlns="http://www.w3.org/2000/svg">
<path fill-rule="evenodd" clip-rule="evenodd" d="M5.02623 30H0C0.0842513 29.1287 0.194488 28.2959 0.334959 27.4355C1.42177 20.5858 3.94825 16.6055 7.84382 15.5365C8.43662 15.3818 9.83395 15.3396 15.2821 15.3677L15.297 15.3678C21.9301 15.3959 21.987 15.3961 22.791 15.7194C26.834 17.3417 29.2078 22.0312 30 30H24.9694C24.7702 27.9761 24.4259 26.4682 23.8495 24.6787L23.3979 23.2722L23.3772 30H17.3275L17.0182 27.7308L16.1995 21.7251H15.0422H13.8707L13.8001 22.147C13.7578 22.3721 13.4049 24.9038 13.0238 27.773C12.9194 28.5551 12.8171 29.3108 12.7231 30H6.6224L6.60175 23.2722L6.15009 24.6365C5.7212 25.9316 5.32822 27.7634 5.02623 30ZM16.383 18.9402L16.6794 20.0373L16.3971 20.2764C15.7197 20.8531 14.407 20.8812 13.6589 20.3327C13.4049 20.1498 13.4049 20.1217 13.6589 18.9965L13.913 17.8572H14.9998H16.0866L16.383 18.9402ZM12.8544 0.261986C11.2736 0.768322 9.60814 2.17482 8.87419 3.6235C6.50297 8.29307 9.79163 13.694 14.9998 13.6799C17.0323 13.6659 18.6696 12.9908 20.0246 11.5843C23.5108 7.96957 21.9159 1.7388 17.1311 0.27605C15.9596 -0.0896381 13.9836 -0.0896381 12.8544 0.261986Z" fill="#383192"/>
</svg>
