<svg width="8" height="8" viewBox="0 0 8 8" fill="none" xmlns="http://www.w3.org/2000/svg">
<path d="M4.00195 1.27294L3.64956 1.31126C2.61906 1.42332 2.08647 1.98139 1.83612 2.45262C1.71581 2.67906 1.69634 2.94413 1.67906 3.34317L1.67902 3.34394C1.67889 3.34695 1.67876 3.34997 1.67863 3.353C1.67605 3.41261 1.6733 3.47517 1.66982 3.53796L1.66981 3.538C1.65085 3.87907 1.60215 4.27189 1.49561 4.62421C1.39541 4.95561 1.21276 5.35776 0.85002 5.5786C0.571401 5.74822 0.517155 5.88408 0.505386 5.92562L0.509877 5.97163C0.515138 6.02553 0.598126 6.16667 0.822301 6.16667H7.18699C7.29479 6.16667 7.38052 6.1286 7.43376 6.08229C7.48599 6.03687 7.5 5.99222 7.5 5.9596C7.5 5.9303 7.48923 5.89415 7.4528 5.85522L7.4363 5.83758L7.42157 5.81844C7.37344 5.75586 7.28729 5.67067 7.13605 5.5786L4.00195 1.27294ZM4.00195 1.27294L4.35448 1.31326C5.37286 1.42976 5.90091 1.98386 6.14995 2.45262L6.5915 2.21803L6.14995 2.45262C6.27025 2.67906 6.28972 2.94412 6.307 3.34317L6.30705 3.3443L6.30716 3.34666L6.30721 3.34774L6.30728 3.34925C6.3099 3.4098 6.31268 3.47378 6.31625 3.538L4.00195 1.27294ZM4.00465 0.5C4.00888 0.5 4.01291 0.50017 4.01675 0.500481L4.00421 0.512102L3.9919 0.500536C3.99592 0.50019 4.00018 0.5 4.00465 0.5ZM7.13605 5.5786L7.39605 5.15151L6.31626 3.53803C6.33522 3.8791 6.38392 4.2719 6.49045 4.62421C6.59066 4.95561 6.7733 5.35776 7.13605 5.5786ZM2.88482 7.7H3.02664H3.50877H3.50877H4H4.49123H4.49123H4.97336H5.11518C5.19921 7.64122 5.26818 7.57598 5.31982 7.50615C5.39162 7.40909 5.42857 7.30506 5.42857 7.2H4.92857H4.92392C4.92231 7.20253 4.92031 7.20547 4.91784 7.20881L4.91783 7.20883C4.89761 7.23617 4.85222 7.28106 4.76585 7.32943C4.68064 7.37715 4.56869 7.42073 4.43372 7.45203L4.43371 7.45204C4.29939 7.48319 4.15164 7.5 4 7.5C3.84836 7.5 3.70061 7.48319 3.56629 7.45204L3.56628 7.45203C3.43131 7.42073 3.31936 7.37715 3.23415 7.32943C3.14778 7.28106 3.10239 7.23617 3.08217 7.20883L3.08216 7.20881C3.07969 7.20547 3.07769 7.20253 3.07608 7.2H3.07143H2.57143C2.57143 7.30506 2.60838 7.40909 2.68018 7.50615C2.73183 7.57598 2.80079 7.64122 2.88482 7.7Z" stroke="#F3F4F6"/>
</svg>
