<svg width="150" height="150" viewBox="0 0 150 150" fill="none" xmlns="http://www.w3.org/2000/svg">
<path fill-rule="evenodd" clip-rule="evenodd" d="M25.1312 150H0C0.421256 145.643 0.972442 141.48 1.6748 137.177C7.10884 102.929 19.7412 83.0273 39.2191 77.6826C42.1831 76.909 49.1697 76.698 76.4105 76.8387L76.4848 76.839C109.65 76.9793 109.935 76.9805 113.955 78.5968C134.17 86.7087 146.039 110.156 150 150H124.847C123.851 139.881 122.13 132.341 119.248 123.394L116.989 116.361L116.886 150H86.6374L85.0909 138.654L80.9977 108.625H75.2108H69.3533L69.0005 110.735C68.7888 111.86 67.0245 124.519 65.119 138.865C64.5971 142.776 64.0857 146.554 63.6154 150H33.112L33.0088 116.361L30.7505 123.183C28.606 129.658 26.6411 138.817 25.1312 150ZM81.9151 94.7012L83.3972 100.187L81.9857 101.382C78.5983 104.265 72.0351 104.406 68.2948 101.663C67.0245 100.749 67.0245 100.608 68.2948 94.9825L69.565 89.2862H74.9991H80.4331L81.9151 94.7012ZM64.2723 1.30993C56.3682 3.84161 48.0407 10.8741 44.371 18.1175C32.5149 41.4653 48.9581 68.47 74.9992 68.3997C85.1616 68.3294 93.3479 64.9538 100.123 57.9213C117.554 39.8479 109.579 8.69401 85.6556 1.38025C79.7981 -0.448191 69.918 -0.448191 64.2723 1.30993Z" fill="#17213A"/>
</svg>
