<svg width="150" height="150" viewBox="0 0 150 150" fill="none" xmlns="http://www.w3.org/2000/svg">
<path fill-rule="evenodd" clip-rule="evenodd" d="M56.25 62.5C70.0571 62.5 81.25 51.3071 81.25 37.5C81.25 23.6929 70.0571 12.5 56.25 12.5C42.4429 12.5 31.25 23.6929 31.25 37.5C31.25 51.3071 42.4429 62.5 56.25 62.5ZM93.75 37.5C93.75 58.2107 76.9607 75 56.25 75C35.5393 75 18.75 58.2107 18.75 37.5C18.75 16.7893 35.5393 0 56.25 0C76.9607 0 93.75 16.7893 93.75 37.5ZM125.192 89.9227C122.037 88.5224 118.344 89.9448 116.944 93.0998C115.543 96.2548 116.966 99.9476 120.121 101.348C123.242 102.733 126.094 104.581 128.554 106.825C134.361 112.122 137.5 119.177 137.5 126.398V143.75C137.5 147.202 140.298 150 143.75 150C147.202 150 150 147.202 150 143.75V126.398C150 115.472 145.237 105.124 136.979 97.5902C133.489 94.4069 129.495 91.8327 125.192 89.9227ZM100 126.398V150H112.5V126.398C112.5 117.325 109.537 108.623 104.262 102.208C98.9879 95.7918 91.8342 92.1875 84.375 92.1875H28.125C20.6658 92.1875 13.5121 95.7918 8.23762 102.208C2.96316 108.623 0 117.325 0 126.398V150H12.5V126.398C12.5 119.934 14.6319 114.113 17.8934 110.146C21.0983 106.247 24.8595 104.688 28.125 104.688H84.375C87.6405 104.688 91.4017 106.247 94.6065 110.146C97.8681 114.113 100 119.934 100 126.398ZM107.812 3.125C104.361 3.125 101.562 5.92322 101.562 9.375C101.562 12.8268 104.361 15.625 107.812 15.625C112.468 15.625 116.768 17.0726 120.308 19.5423C125.991 23.5059 129.687 30.0717 129.687 37.5C129.687 44.9283 125.991 51.4941 120.308 55.4577C116.768 57.9274 112.468 59.375 107.812 59.375C104.361 59.375 101.562 62.1732 101.562 65.625C101.562 69.0768 104.361 71.875 107.812 71.875C115.108 71.875 121.889 69.5955 127.46 65.71C136.35 59.5089 142.187 49.1866 142.187 37.5C142.187 25.8133 136.35 15.4911 127.46 9.29C121.889 5.4045 115.108 3.125 107.812 3.125Z" fill="#17213A"/>
</svg>
