<svg class="h-5 w-5 shrink-0" width="24" height="24" viewBox="0 0 24 24" fill="none" xmlns="http://www.w3.org/2000/svg">
<path fill-rule="evenodd" clip-rule="evenodd" d="M2 0C0.895431 0 0 0.89543 0 2V8.5C0 9.60457 0.89543 10.5 2 10.5H4C5.10457 10.5 6 9.60457 6 8.5V2C6 0.895431 5.10457 0 4 0H2ZM22 24C23.1046 24 24 23.1046 24 22V15.5C24 14.3954 23.1046 13.5 22 13.5H20C18.8954 13.5 18 14.3954 18 15.5V22C18 23.1046 18.8954 24 20 24H22ZM8.25 2C8.25 0.89543 9.14543 0 10.25 0H22C23.1046 0 24 0.895431 24 2V8.5C24 9.60457 23.1046 10.5 22 10.5H10.25C9.14543 10.5 8.25 9.60457 8.25 8.5V2ZM13.75 24C14.8546 24 15.75 23.1046 15.75 22L15.75 15.5C15.75 14.3954 14.8546 13.5 13.75 13.5L2 13.5C0.895432 13.5 0 14.3954 0 15.5V22C0 23.1046 0.895432 24 2 24L13.75 24Z" fill="#17213A"></path>
</svg>