<svg width="48" height="48" viewBox="0 0 48 48" fill="none" xmlns="http://www.w3.org/2000/svg">
<path id="Union" fill-rule="evenodd" clip-rule="evenodd" d="M18 20C22.4183 20 26 16.4183 26 12C26 7.58172 22.4183 4 18 4C13.5817 4 10 7.58172 10 12C10 16.4183 13.5817 20 18 20ZM30 12C30 18.6274 24.6274 24 18 24C11.3726 24 6 18.6274 6 12C6 5.37258 11.3726 0 18 0C24.6274 0 30 5.37258 30 12ZM40.0614 28.7752C39.0518 28.3272 37.8701 28.7823 37.422 29.7919C36.9739 30.8015 37.4291 31.9832 38.4387 32.4313C39.4375 32.8747 40.3502 33.4658 41.1374 34.1839C42.9955 35.8791 44 38.1367 44 40.4474V46C44 47.1046 44.8954 48 46 48C47.1046 48 48 47.1046 48 46V40.4474C48 36.9512 46.476 33.6398 43.8332 31.2289C42.7166 30.2102 41.4385 29.3865 40.0614 28.7752ZM32 40.4474V48H36V40.4474C36 37.5439 35.0518 34.7594 33.3639 32.7064C31.6761 30.6534 29.3869 29.5 27 29.5H9C6.61305 29.5 4.32387 30.6534 2.63604 32.7064C0.948211 34.7594 0 37.5439 0 40.4474V48H4V40.4474C4 38.3789 4.6822 36.5162 5.7259 35.2466C6.75145 33.9992 7.95503 33.5 9 33.5H27C28.045 33.5 29.2485 33.9992 30.2741 35.2466C31.3178 36.5162 32 38.3789 32 40.4474ZM34.5 1C33.3954 1 32.5 1.89543 32.5 3C32.5 4.10457 33.3954 5 34.5 5C35.9899 5 37.3656 5.46322 38.4987 6.25354C40.317 7.5219 41.5 9.62295 41.5 12C41.5 14.377 40.317 16.4781 38.4987 17.7465C37.3656 18.5368 35.9899 19 34.5 19C33.3954 19 32.5 19.8954 32.5 21C32.5 22.1046 33.3954 23 34.5 23C36.8344 23 39.0045 22.2706 40.787 21.0272C43.6319 19.0428 45.5 15.7397 45.5 12C45.5 8.26027 43.6319 4.95716 40.787 2.9728C39.0045 1.72944 36.8344 1 34.5 1Z" fill="url(#paint0_linear_677_18118)"/>
<defs>
<linearGradient id="paint0_linear_677_18118" x1="0" y1="0" x2="50.7001" y2="47.2184" gradientUnits="userSpaceOnUse">
<stop stop-color="#3AC5EC"/>
<stop offset="1" stop-color="#C547E9"/>
</linearGradient>
</defs>
</svg>
