<svg width="16" height="16" viewBox="0 0 16 16" fill="none" xmlns="http://www.w3.org/2000/svg">
<path fill-rule="evenodd" clip-rule="evenodd" d="M4.83721 4.27907C4.83721 2.53231 6.25324 1.11628 8 1.11628C9.74676 1.11628 11.1628 2.53231 11.1628 4.27907C11.1628 6.02583 9.74676 7.44186 8 7.44186C6.25324 7.44186 4.83721 6.02583 4.83721 4.27907ZM8 0C5.63673 0 3.72093 1.9158 3.72093 4.27907C3.72093 6.64234 5.63673 8.55814 8 8.55814C10.3633 8.55814 12.2791 6.64234 12.2791 4.27907C12.2791 1.9158 10.3633 0 8 0ZM4.27907 9.76744C3.15988 9.76744 2.07739 10.1726 1.27181 10.9075C0.464518 11.644 0 12.6544 0 13.7201V15.4419C0 15.7501 0.249888 16 0.55814 16C0.866392 16 1.11628 15.7501 1.11628 15.4419V13.7201C1.11628 12.9853 1.43581 12.2689 2.02414 11.7322C2.61418 11.1939 3.42455 10.8837 4.27907 10.8837H8.37209C8.68035 10.8837 8.93023 10.6338 8.93023 10.3256C8.93023 10.0173 8.68035 9.76744 8.37209 9.76744H4.27907ZM12.4651 9.30233C13.8009 9.30233 14.8837 10.3852 14.8837 11.7209C14.8837 13.0567 13.8009 14.1395 12.4651 14.1395C11.1294 14.1395 10.0465 13.0567 10.0465 11.7209C10.0465 10.3852 11.1294 9.30233 12.4651 9.30233ZM16 11.7209C16 9.76867 14.4174 8.18605 12.4651 8.18605C10.5129 8.18605 8.93023 9.76867 8.93023 11.7209C8.93023 13.6732 10.5129 15.2558 12.4651 15.2558C14.4174 15.2558 16 13.6732 16 11.7209Z" fill="#17213A"/>
<path fill-rule="evenodd" clip-rule="evenodd" d="M12.8329 10.113C12.8329 9.91803 12.6749 9.76001 12.48 9.76001C12.2851 9.76001 12.1271 9.91803 12.1271 10.113V11.4071H10.8329C10.638 11.4071 10.48 11.5651 10.48 11.76C10.48 11.9549 10.638 12.113 10.8329 12.113H12.1271V13.4071C12.1271 13.602 12.2851 13.76 12.48 13.76C12.6749 13.76 12.8329 13.602 12.8329 13.4071V12.113H14.1271C14.322 12.113 14.48 11.9549 14.48 11.76C14.48 11.5651 14.322 11.4071 14.1271 11.4071H12.8329V10.113Z" fill="#17213A"/>
</svg>
