<svg width="16" height="16" viewBox="0 0 16 16" fill="none" xmlns="http://www.w3.org/2000/svg">
<path fill-rule="evenodd" clip-rule="evenodd" d="M12.7062 0H3.30127C2.45036 0.0429688 1.72282 0.341146 1.11882 0.894531C0.430664 1.52474 0.0576172 2.32161 0 3.28516V12.7174C0.0123698 12.9206 0.0388997 13.1172 0.0794271 13.306C0.158203 13.6732 0.290039 14.0117 0.475098 14.3216C0.652995 14.6198 0.880046 14.8919 1.15609 15.138C1.75195 15.668 2.46436 15.9557 3.29378 16H9.59521C9.03385 15.6615 8.54932 15.2083 8.17448 14.6732H3.42708C3.28483 14.6732 3.14323 14.6589 3.00439 14.6302C2.87419 14.6029 2.74642 14.5638 2.62305 14.513C2.368 14.4076 2.13639 14.2526 1.94124 14.0573C1.74626 13.8633 1.59147 13.6315 1.48584 13.3763C1.44059 13.2669 1.40479 13.1536 1.37858 13.0391C1.34359 12.8867 1.32585 12.7292 1.32585 12.5716L1.32617 3.42708C1.32617 3.19141 1.36589 2.95964 1.44157 2.74089C1.5446 2.44271 1.71436 2.16927 1.94157 1.94141C2.33561 1.54688 2.87012 1.32552 3.42741 1.32552H12.5726C13.1299 1.32552 13.6644 1.54688 14.0584 1.94141C14.4525 2.33594 14.6738 2.86979 14.6738 3.42708V8.17448C15.209 8.54948 15.6618 9.03385 16 9.59505V3.29688C15.9385 2.25651 15.5181 1.41536 14.7388 0.772135C14.1634 0.296875 13.486 0.0403646 12.7062 0ZM12.6657 7.38021L12.668 5.09245C12.6686 4.88281 12.6432 4.6901 12.5918 4.51432C12.5137 4.24609 12.3758 4.01562 12.1779 3.82161C11.2394 2.90365 9.6805 3.34505 9.37451 4.63542C9.34652 4.7526 9.33268 4.93359 9.33285 5.17839L9.33073 8.17188C10.0871 7.64323 11.0073 7.33333 12 7.33333C12.2261 7.33333 12.4482 7.34896 12.6657 7.38021ZM3.37223 11.3555C3.52816 12.0521 4.12305 12.599 4.84668 12.6589C5.68473 12.7279 6.45085 12.1823 6.62793 11.3529C6.64095 11.2917 6.65072 11.2227 6.65739 11.1445C6.66488 11.0573 6.66846 10.9583 6.66829 10.849L6.66536 8.16406L6.66797 5.08984C6.66829 4.97917 6.66113 4.8724 6.64648 4.76953C6.6333 4.67708 6.61393 4.58724 6.58854 4.5026C6.50944 4.23828 6.37142 4.01042 6.17448 3.81901C5.32161 2.98828 3.9279 3.26562 3.46403 4.35807C3.3776 4.5638 3.33431 4.76432 3.33431 4.95964L3.33317 10.8854C3.33301 11.082 3.34603 11.2383 3.37223 11.3555ZM11.8794 10.0182C11.7839 10.0508 11.6864 10.1315 11.6414 10.2188C11.606 10.2878 11.604 10.3294 11.604 10.9492V11.6055H10.9484C10.332 11.6055 10.2871 11.6068 10.2197 11.6432C9.94613 11.7812 9.92367 12.1654 10.1766 12.3451L10.2591 12.4023L10.9297 12.4076L11.6022 12.4128L11.6077 13.0859L11.6134 13.7565L11.6696 13.8385C11.8307 14.0677 12.1753 14.0651 12.3421 13.8385L12.4001 13.7565L12.4058 13.0833L12.4115 12.4115H13.0446C13.4772 12.4115 13.6982 12.4036 13.7414 12.388C13.908 12.332 14.0055 12.1888 14.0055 11.9987C14.0055 11.9102 13.9823 11.8333 13.9359 11.7682C13.9102 11.7318 13.8771 11.6992 13.8369 11.6706L13.7546 11.6146L13.0838 11.6094L12.4115 11.6042L12.4058 10.931L12.4001 10.2604L12.3439 10.1771C12.2801 10.0885 12.1799 10.0286 12.0741 10.0078C12.0088 9.99479 11.9416 9.9974 11.8794 10.0182ZM12 16C14.2091 16 16 14.2096 16 12C16 9.79037 14.2091 8 12 8C9.79085 8 8 9.79037 8 12C8 14.2096 9.79085 16 12 16ZM12 14.6471C10.5382 14.6471 9.35335 13.4622 9.35335 12C9.35335 10.5378 10.5382 9.35287 12 9.35287C13.4618 9.35287 14.6466 10.5378 14.6466 12C14.6466 13.4622 13.4618 14.6471 12 14.6471Z" fill="#383192"/>
</svg>
