<svg width="22" height="21" viewBox="0 0 22 21" fill="none" xmlns="http://www.w3.org/2000/svg">
<path fill-rule="evenodd" clip-rule="evenodd" d="M12.8566 2.63623C12.8566 2.36008 12.7483 2.09451 12.5542 1.89814C12.36 1.70164 12.0959 1.59057 11.8196 1.59057H8.18107C7.90485 1.59057 7.6407 1.70164 7.44652 1.89814C7.25246 2.09451 7.14408 2.36008 7.14408 2.63623V3.37279C7.14408 3.5436 7.28255 3.68207 7.45336 3.68207H12.5474C12.7182 3.68207 12.8566 3.5436 12.8566 3.37279V2.63623ZM5.27022 3.68207C5.44103 3.68207 5.57949 3.5436 5.57949 3.37279V2.63623C5.57949 1.93588 5.85447 1.26495 6.34277 0.770836C6.83095 0.276845 7.49228 0 8.18107 0H11.8196C12.5084 0 13.1698 0.276845 13.6579 0.770836C14.1462 1.26495 14.4212 1.93588 14.4212 2.63623V3.37279C14.4212 3.5436 14.5597 3.68207 14.7305 3.68207L16.3479 3.68208L16.3678 3.6819L16.385 3.68207H19.2177C19.6463 3.68207 20 4.03467 20 4.47735C20 4.92004 19.6463 5.27264 19.2177 5.27264H17.4594C17.2886 5.27264 17.1501 5.41111 17.1501 5.58192V17.3638C17.1501 18.0641 16.8752 18.7351 16.3869 19.2292C15.8987 19.7232 15.2374 20 14.5486 20H5.45214C4.76335 20 4.10202 19.7232 3.61384 19.2292C3.12554 18.7351 2.85057 18.0641 2.85057 17.3638V5.58192C2.85057 5.41111 2.7121 5.27264 2.54129 5.27264H0.782292C0.353685 5.27264 0 4.92004 0 4.47735C0 4.03467 0.353685 3.68207 0.782292 3.68207L3.61296 3.68208L3.63286 3.6819L3.64996 3.68207H5.27022ZM4.72443 5.27264C4.55362 5.27264 4.41515 5.41111 4.41515 5.58192V17.3638C4.41515 17.6399 4.52353 17.9055 4.71759 18.1019C4.91177 18.2984 5.17593 18.4094 5.45214 18.4094H14.5486C14.8248 18.4094 15.0889 18.2984 15.2831 18.1019C15.4772 17.9055 15.5856 17.6399 15.5856 17.3638V5.58192C15.5856 5.41111 15.4471 5.27264 15.2763 5.27264H4.72443ZM8.18036 8.28424C8.60897 8.28424 8.96265 8.63684 8.96265 9.07953V14.6024C8.96265 15.045 8.60897 15.3976 8.18036 15.3976C7.75175 15.3976 7.39807 15.045 7.39807 14.6024V9.07953C7.39807 8.63684 7.75175 8.28424 8.18036 8.28424ZM11.8196 8.28424C12.2482 8.28424 12.6019 8.63684 12.6019 9.07953V14.6024C12.6019 15.045 12.2482 15.3976 11.8196 15.3976C11.391 15.3976 11.0373 15.045 11.0373 14.6024V9.07953C11.0373 8.63684 11.391 8.28424 11.8196 8.28424Z" fill="#17213A"/>
</svg>
