<svg width="28" height="30" viewBox="0 0 28 30" fill="none" xmlns="http://www.w3.org/2000/svg">
<path d="M6.84783 5.80435V1.63043C6.84783 0.717391 7.56522 0 8.47826 0C9.3913 0 10.1087 0.717391 10.1087 1.63043V5.80435C10.1087 6.71739 9.3913 7.43478 8.47826 7.43478C7.56522 7.43478 6.84783 6.71739 6.84783 5.80435ZM18.913 7.43478C19.8261 7.43478 20.5435 6.71739 20.5435 5.80435V1.63043C20.5435 0.717391 19.8261 0 18.913 0C18 0 17.2826 0.717391 17.2826 1.63043V5.80435C17.2826 6.71739 18 7.43478 18.913 7.43478ZM7.8913 13.0435H19.4674C20.1848 13.0435 20.7717 12.4565 20.7717 11.7391C20.7717 11.0217 20.1848 10.4348 19.4674 10.4348H7.8913C7.17391 10.4348 6.58696 11.0217 6.58696 11.7391C6.58696 12.4565 7.17391 13.0435 7.8913 13.0435ZM26.087 2.28261H23.3804C22.663 2.28261 22.0761 2.86957 22.0761 3.58696C22.0761 4.30435 22.663 4.8913 23.3804 4.8913H24.7826V27.0652H2.6087V4.8913H4.01087C4.72826 4.8913 5.31522 4.30435 5.31522 3.58696C5.31522 2.86957 4.72826 2.28261 4.01087 2.28261H1.30435C0.586957 2.28261 0 3 0 3.71739V28.3696C0 29.087 0.586957 29.6739 1.30435 29.6739H26.087C26.8043 29.6739 27.3913 29.087 27.3913 28.3696V3.71739C27.3913 3 26.8043 2.28261 26.087 2.28261ZM12.6196 4.8913H14.7717C15.4891 4.8913 16.0761 4.30435 16.0761 3.58696C16.0761 2.86957 15.4891 2.28261 14.7717 2.28261H12.6196C11.9022 2.28261 11.3152 2.86957 11.3152 3.58696C11.3152 4.30435 11.9022 4.8913 12.6196 4.8913ZM7.8913 18.913H19.4674C20.1848 18.913 20.7717 18.3261 20.7717 17.6087C20.7717 16.8913 20.1848 16.3043 19.4674 16.3043H7.8913C7.17391 16.3043 6.58696 16.8913 6.58696 17.6087C6.58696 18.3261 7.17391 18.913 7.8913 18.913Z" fill="#383192"/>
</svg>
