<svg width="20" height="20" viewBox="0 0 20 20" fill="none" xmlns="http://www.w3.org/2000/svg">
<path d="M15.7422 1.05096C15.3594 1.10565 14.9688 1.26581 14.668 1.49628C14.4414 1.67206 13.7109 2.39081 13.7109 2.43768C13.7109 2.49237 17.5078 6.28925 17.5625 6.28925C17.6094 6.28925 18.2773 5.61346 18.4883 5.34784C18.7734 4.99628 18.9844 4.3869 18.9844 3.92596C18.9844 3.62128 18.8828 3.21112 18.7266 2.89081C18.6016 2.6369 18.5 2.51581 17.9922 2.008C17.3672 1.3869 17.1445 1.23065 16.7148 1.12128C16.4336 1.04706 16.0039 1.01581 15.7422 1.05096Z" fill="#17213A"/>
<path d="M3.51563 2.75409C2.23829 3.03144 1.24219 4.09003 1.05469 5.37128C1.03125 5.54315 1.01563 7.56269 1.01563 10.8439C1.01563 16.5666 1.01172 16.4299 1.25391 17.0158C1.57032 17.7697 2.125 18.3517 2.86329 18.6916C3.48829 18.9807 3.04688 18.9611 9 18.9728C14.8711 18.9885 14.7188 18.9924 15.332 18.7541C16.0859 18.465 16.7813 17.7736 17.082 17.0236C17.3008 16.4767 17.3047 16.4064 17.3047 13.5158C17.3047 10.5861 17.3125 10.6877 17.0586 10.4924C16.7461 10.2541 16.2891 10.3517 16.1055 10.7033L16.0156 10.8713V13.4689C16.0156 16.3166 16.0156 16.3283 15.7773 16.7424C15.5273 17.1838 15.0234 17.551 14.5391 17.6525C14.3945 17.6838 12.7734 17.6955 9.14844 17.6955C3.51954 17.6955 3.76172 17.7033 3.32422 17.4846C3.0625 17.3517 2.74219 17.0432 2.57813 16.7736C2.29297 16.301 2.3086 16.633 2.3086 10.8596C2.30469 5.16425 2.29688 5.42597 2.54688 4.95331C2.69141 4.67987 3.07422 4.30878 3.34375 4.17987C3.75782 3.98456 3.75391 3.98456 6.52344 3.98456C8.97266 3.98456 9.12891 3.97675 9.28125 3.91034C9.52344 3.80097 9.62891 3.62519 9.62891 3.33222C9.62891 3.0705 9.56641 2.9494 9.35938 2.79706C9.25391 2.71503 9.21485 2.71503 6.51172 2.70722C4.29297 2.70331 3.72266 2.71112 3.51563 2.75409Z" fill="#17213A"/>
<path d="M9.23053 6.91425C5.3321 10.8322 5.50397 10.6408 5.42975 11.1838C5.41413 11.3166 5.34772 11.9728 5.28913 12.6447C5.18366 13.8166 5.18366 13.8713 5.24616 14.0705C5.3321 14.3439 5.55085 14.5978 5.79694 14.7111C6.05866 14.8322 6.25397 14.8322 7.75397 14.6916C8.96491 14.5744 9.16803 14.5353 9.44928 14.3674C9.60553 14.2736 16.6798 7.23065 16.6798 7.16815C16.6798 7.11347 12.8829 3.3205 12.8321 3.3244C12.8087 3.3244 11.1876 4.94159 9.23053 6.91425Z" fill="#17213A"/>
</svg>
