<svg width="30" height="30" viewBox="0 0 30 30" fill="none" xmlns="http://www.w3.org/2000/svg">
<g id="Property Id Icon" clip-path="url(#clip0_362_63045)">
<path id="Vector" d="M12.3334 18.7628H17.6666C18.4621 18.7636 19.2248 19.0869 19.7872 19.6615C20.3497 20.2362 20.6659 21.0153 20.6664 21.8279V26.9349C20.6664 27.4976 21.1161 27.9559 21.667 27.9559H27.0002C27.2651 27.9554 27.5191 27.8476 27.7064 27.6563C27.8938 27.4649 27.9993 27.2055 27.9998 26.9349V13.5743C28 13.427 27.9689 13.2814 27.9088 13.1475C27.8486 13.0136 27.7608 12.8946 27.6513 12.7987L15.6511 2.29331C15.4704 2.13319 15.2392 2.04503 15 2.04503C14.7608 2.04503 14.5296 2.13319 14.3489 2.29331L2.34975 12.7976C2.23997 12.8934 2.15185 13.0123 2.0915 13.1462C2.03114 13.2801 1.99999 13.4259 2.0002 13.5733V26.9339C2.00074 27.2045 2.10623 27.4639 2.29357 27.6552C2.48092 27.8466 2.73485 27.9543 2.9998 27.9549H8.33401C8.59896 27.9543 8.85289 27.8466 9.04024 27.6552C9.22758 27.4639 9.33307 27.2045 9.33361 26.9339V21.8279C9.33442 21.0154 9.65069 20.2364 10.2131 19.6618C10.7754 19.0872 11.538 18.7639 12.3334 18.7628ZM27.0002 29.999H21.667C20.8717 29.9981 20.1091 29.675 19.5467 29.1006C18.9843 28.5262 18.668 27.7473 18.6672 26.9349V21.8279C18.6672 21.5567 18.5618 21.2967 18.3742 21.1048C18.1866 20.913 17.9321 20.8051 17.6666 20.8048H12.3334C12.0681 20.8054 11.8139 20.9134 11.6265 21.1052C11.4391 21.297 11.3338 21.5569 11.3338 21.8279V26.9349C11.3327 27.7472 11.0163 28.5259 10.454 29.1003C9.89166 29.6747 9.12928 29.9978 8.33401 29.999H2.9998C2.20453 29.9978 1.44215 29.6747 0.879814 29.1003C0.317478 28.5259 0.00108162 27.7472 0 26.9349V13.5743C0 12.6786 0.382257 11.8299 1.04763 11.2463L13.0478 0.743033C13.5902 0.263767 14.2834 0 15.0005 0C15.7177 0 16.4108 0.263767 16.9532 0.743033L28.9534 11.2484C29.2819 11.5362 29.5455 11.8931 29.7262 12.2948C29.9069 12.6965 30.0003 13.1333 30 13.5754V26.936C29.9992 27.7484 29.6829 28.5272 29.1205 29.1017C28.5581 29.6761 27.7955 29.9992 27.0002 30V29.999Z" fill="#383192"/>
</g>
<defs>
<clipPath id="clip0_362_63045">
<rect width="30" height="30" fill="white"/>
</clipPath>
</defs>
</svg>
