<svg width="30" height="30" viewBox="0 0 30 30" fill="none" xmlns="http://www.w3.org/2000/svg">
<path fill-rule="evenodd" clip-rule="evenodd" d="M6 1.5C6 0.670898 6.6709 0 7.5 0C8.3291 0 9 0.670898 9 1.5V6C9 6.8291 8.3291 7.5 7.5 7.5C7.11475 7.5 6.76318 7.35645 6.49805 7.11914C6.19189 6.84375 6 6.44531 6 6V1.5ZM21 1.5C21 0.670898 21.6709 0 22.5 0C23.3291 0 24 0.670898 24 1.5V6C24 6.8291 23.3291 7.5 22.5 7.5C21.6709 7.5 21 6.8291 21 6V1.5ZM4.5 6V3H3C1.34326 3 0 4.3418 0 6V27C0 28.6582 1.34326 30 3 30H27C27.9829 30 28.8545 29.5283 29.4023 28.7959C29.7773 28.2949 30 27.6738 30 27V6C30 4.3418 28.6567 3 27 3H25.5V6C25.5 7.6582 24.1567 9 22.5 9C20.8433 9 19.5 7.6582 19.5 6V3H10.5V6C10.5 7.6582 9.15674 9 7.5 9C5.84326 9 4.5 7.6582 4.5 6ZM27.75 11.25H2.25V27.75H27.75V11.25Z" fill="#383192"/>
</svg>
