<svg width="232" height="32" viewBox="0 0 232 32" fill="none" xmlns="http://www.w3.org/2000/svg">
<g id="Logo">
<g id="Ellipse 4">
<path d="M18.0532 2.07689C18.6691 2.73534 19.1576 3.51705 19.491 4.37736L7.23528 4.37736C7.56861 3.51705 8.05717 2.73535 8.67308 2.07689C9.28898 1.41843 10.0202 0.89612 10.8249 0.539766C11.6296 0.183413 12.4921 0 13.3631 0C14.2341 0 15.0966 0.183413 15.9014 0.539766C16.7061 0.896119 17.4373 1.41843 18.0532 2.07689Z" fill="url(#paint0_linear_3330_54536)"/>
<path d="M8.82073 29.9231C8.20483 29.2647 7.71627 28.483 7.38294 27.6226H19.6386C19.3053 28.483 18.8167 29.2647 18.2008 29.9231C17.5849 30.5816 16.8537 31.1039 16.049 31.4602C15.2443 31.8166 14.3818 32 13.5108 32C12.6398 32 11.7773 31.8166 10.9725 31.4602C10.1678 31.1039 9.43664 30.5816 8.82073 29.9231Z" fill="url(#paint1_linear_3330_54536)"/>
<path d="M10.9962 18.8679L7.45299 12.4411H18.0016C20.2516 12.4411 22.6994 12.2925 24.4978 13.6872C25.0708 14.1316 25.6222 14.7097 26.2687 15.4655L26.4881 14.8029C28.0581 10.0605 24.6405 5.13208 19.7818 5.13208H6.65882C2.98126 5.13208 9.88908e-07 8.20695 9.88908e-07 12C9.88908e-07 15.793 2.98126 18.8679 6.65882 18.8679H10.9962Z" fill="url(#paint2_linear_3330_54536)"/>
<path d="M15.8777 13.1321L19.4209 19.5589H8.87235C6.62231 19.5589 4.17447 19.7075 2.37612 18.3128C1.8031 17.8684 1.25168 17.2903 0.605164 16.5345L0.385814 17.1971C-1.18424 21.9395 2.23338 26.8679 7.09207 26.8679H20.2151C23.8926 26.8679 26.8739 23.7931 26.8739 20C26.8739 16.207 23.8926 13.1321 20.2151 13.1321H15.8777Z" fill="url(#paint3_linear_3330_54536)"/>
</g>
<g id="InmoConnect">
<path d="M36.7706 27.7299C34.3108 27.7299 32.3167 25.7359 32.3167 23.2761V4.42554C34.7765 4.42554 36.7706 6.41959 36.7706 8.87939V27.7299Z" fill="#F3F4F6"/>
<path d="M43.2244 27.7299C42.1198 27.7299 41.2244 26.8345 41.2244 25.7299V13.8688C41.2244 12.1265 42.6369 10.714 44.3792 10.714L45.1215 12.3786C45.5298 12.0457 46.0123 11.7128 46.4948 11.4538C47.3485 11.01 48.499 10.5291 49.9465 10.5291C53.9921 10.5291 56.8129 13.3034 56.8129 17.7423V25.7299C56.8129 26.8345 55.9174 27.7299 54.8129 27.7299H54.5446C53.44 27.7299 52.5446 26.8345 52.5446 25.7299V18.2972C52.5446 16.0777 51.0971 14.5981 49.0186 14.5981C46.9402 14.5981 45.4927 16.0777 45.4927 18.2972V25.7299C45.4927 26.8345 44.5972 27.7299 43.4927 27.7299H43.2244Z" fill="#F3F4F6"/>
<path d="M62.7245 27.7299C61.6199 27.7299 60.7245 26.8345 60.7245 25.7299V13.8688C60.7245 12.1265 62.137 10.714 63.8793 10.714L64.6216 12.3786C64.9557 12.0457 65.3639 11.7128 65.7722 11.4538C66.4774 11.01 67.4795 10.5291 68.7043 10.5291C70.4487 10.5291 71.6735 11.0839 72.453 11.6388C72.8983 11.9717 73.2695 12.3416 73.5293 12.7485C73.9376 12.3416 74.383 11.9717 74.9026 11.6388C75.7934 11.0839 77.0553 10.5291 78.5399 10.5291C82.2514 10.5291 84.6639 12.9335 84.6639 17.5574V25.7299C84.6639 26.8345 83.7685 27.7299 82.6639 27.7299H82.3957C81.2911 27.7299 80.3957 26.8345 80.3957 25.7299V17.9273C80.3957 15.8558 79.0966 14.5981 77.612 14.5981C76.1274 14.5981 74.8284 15.8558 74.8284 17.9273V25.7299C74.8284 26.8345 73.9329 27.7299 72.8284 27.7299H72.5601C71.4555 27.7299 70.5601 26.8345 70.5601 25.7299V17.9273C70.5601 15.8558 69.261 14.5981 67.7764 14.5981C66.2918 14.5981 64.9928 15.8558 64.9928 17.9273V25.7299C64.9928 26.8345 64.0973 27.7299 62.9928 27.7299H62.7245Z" fill="#F3F4F6"/>
<path d="M96.1697 14.5981C93.7572 14.5981 91.9014 16.4107 91.9014 19.222C91.9014 22.0333 93.7572 23.8459 96.1697 23.8459C98.5822 23.8459 100.438 22.0333 100.438 19.222C100.438 16.4107 98.5822 14.5981 96.1697 14.5981ZM96.1697 10.5291C100.772 10.5291 104.706 14.4131 104.706 19.222C104.706 24.0308 100.772 27.9149 96.1697 27.9149C91.5674 27.9149 87.6332 24.0308 87.6332 19.222C87.6332 14.4131 91.5674 10.5291 96.1697 10.5291Z" fill="#F3F4F6"/>
<path d="M134.569 14.5981C132.157 14.5981 130.301 16.4107 130.301 19.222C130.301 22.0333 132.157 23.8459 134.569 23.8459C136.982 23.8459 138.837 22.0333 138.837 19.222C138.837 16.4107 136.982 14.5981 134.569 14.5981ZM134.569 10.5291C139.171 10.5291 143.106 14.4131 143.106 19.222C143.106 24.0308 139.171 27.9149 134.569 27.9149C129.967 27.9149 126.033 24.0308 126.033 19.222C126.033 14.4131 129.967 10.5291 134.569 10.5291Z" fill="#F3F4F6"/>
<path d="M148.243 27.7299C147.139 27.7299 146.243 26.8345 146.243 25.7299V12.714C146.243 11.6095 147.139 10.714 148.243 10.714H149.398L150.14 12.3786C150.548 12.0457 151.031 11.7128 151.513 11.4538C152.367 11.01 153.518 10.5291 154.965 10.5291C159.011 10.5291 161.832 13.3034 161.832 17.7423V25.7299C161.832 26.8345 160.936 27.7299 159.832 27.7299H159.563C158.459 27.7299 157.563 26.8345 157.563 25.7299V18.2972C157.563 16.0777 156.116 14.5981 154.037 14.5981C151.959 14.5981 150.511 16.0777 150.511 18.2972V25.7299C150.511 26.8345 149.616 27.7299 148.511 27.7299H148.243Z" fill="#F3F4F6"/>
<path d="M167.743 27.7299C166.639 27.7299 165.743 26.8345 165.743 25.7299V12.714C165.743 11.6095 166.639 10.714 167.743 10.714H168.898L169.64 12.3786C170.049 12.0457 170.531 11.7128 171.014 11.4538C171.867 11.01 173.018 10.5291 174.465 10.5291C178.511 10.5291 181.332 13.3034 181.332 17.7423V25.7299C181.332 26.8345 180.436 27.7299 179.332 27.7299H179.063C177.959 27.7299 177.063 26.8345 177.063 25.7299V18.2972C177.063 16.0777 175.616 14.5981 173.537 14.5981C171.459 14.5981 170.011 16.0777 170.011 18.2972V25.7299C170.011 26.8345 169.116 27.7299 168.011 27.7299H167.743Z" fill="#F3F4F6"/>
<path d="M196.007 22.5512H200.461C199.57 25.1036 196.712 27.9149 192.852 27.9149C188.25 27.9149 184.315 24.0308 184.315 19.222C184.315 14.4131 188.25 10.5291 192.852 10.5291C197.306 10.5291 201.017 14.0432 201.017 19.222C201.017 19.6289 200.943 19.9988 200.906 20.3317L200.832 20.8866H188.955C189.363 22.5512 190.625 23.8459 192.852 23.8459C194.003 23.8459 194.708 23.5499 195.264 23.217C195.561 23.0321 195.821 22.8101 196.007 22.5512ZM188.769 17.9273H196.935C196.526 16.0407 195.079 14.5981 192.852 14.5981C190.625 14.5981 189.178 16.0407 188.769 17.9273Z" fill="#F3F4F6"/>
<path d="M215.484 21.4415H219.752C218.972 24.8076 215.855 27.9149 211.772 27.9149C207.17 27.9149 203.236 24.0308 203.236 19.222C203.236 14.4131 207.17 10.5291 211.772 10.5291C215.855 10.5291 218.972 13.6363 219.752 17.0025H215.484C215.298 16.5586 215.001 16.1517 214.667 15.8188C214.073 15.2269 213.145 14.5981 211.772 14.5981C209.36 14.5981 207.504 16.4107 207.504 19.222C207.504 22.0333 209.36 23.8459 211.772 23.8459C213.145 23.8459 214.073 23.254 214.667 22.6622C215.001 22.3292 215.298 21.9223 215.484 21.4415Z" fill="#F3F4F6"/>
<path d="M224.02 21.8114V14.5981H221.422V11.0839H222.536C223.909 11.0839 224.577 10.4181 224.577 9.04943V6.645C226.627 6.645 228.288 8.30671 228.288 10.3565V10.714H230.058C231.131 10.714 232 11.5835 232 12.6561C232 13.7286 231.131 14.5981 230.058 14.5981H228.288V21.6264C228.288 23.1061 229.216 24.0308 230.701 24.0308C231.109 24.0308 231.332 23.9938 231.517 23.9568L231.814 23.8459V27.545C231.629 27.619 231.443 27.6929 231.221 27.7299C230.812 27.8409 230.33 27.9149 229.773 27.9149C226.396 27.9149 224.02 25.5105 224.02 21.8114Z" fill="#F3F4F6"/>
<path d="M119.313 21.4415H123.581C122.801 24.8076 119.684 27.9149 115.601 27.9149C110.999 27.9149 107.064 24.0308 107.064 19.222C107.064 14.4131 110.999 10.5291 115.601 10.5291C119.684 10.5291 122.801 13.6363 123.581 17.0025H119.313C119.127 16.5586 118.83 16.1517 118.496 15.8188C117.902 15.2269 116.974 14.5981 115.601 14.5981C113.189 14.5981 111.333 16.4107 111.333 19.222C111.333 22.0333 113.189 23.8459 115.601 23.8459C116.974 23.8459 117.902 23.254 118.496 22.6622C118.83 22.3292 119.127 21.9223 119.313 21.4415Z" fill="#F3F4F6"/>
</g>
</g>
<defs>
<linearGradient id="paint0_linear_3330_54536" x1="0" y1="0" x2="32.8878" y2="25.7228" gradientUnits="userSpaceOnUse">
<stop stop-color="#3AC5EC"/>
<stop offset="1" stop-color="#C547E9"/>
</linearGradient>
<linearGradient id="paint1_linear_3330_54536" x1="0" y1="0" x2="32.8878" y2="25.7228" gradientUnits="userSpaceOnUse">
<stop stop-color="#3AC5EC"/>
<stop offset="1" stop-color="#C547E9"/>
</linearGradient>
<linearGradient id="paint2_linear_3330_54536" x1="0" y1="0" x2="32.8878" y2="25.7228" gradientUnits="userSpaceOnUse">
<stop stop-color="#3AC5EC"/>
<stop offset="1" stop-color="#C547E9"/>
</linearGradient>
<linearGradient id="paint3_linear_3330_54536" x1="0" y1="0" x2="32.8878" y2="25.7228" gradientUnits="userSpaceOnUse">
<stop stop-color="#3AC5EC"/>
<stop offset="1" stop-color="#C547E9"/>
</linearGradient>
</defs>
</svg>
