<svg width="260" height="36" viewBox="0 0 260 36" fill="none" xmlns="http://www.w3.org/2000/svg">
<path d="M20.083 2.3365C20.7681 3.07726 21.3116 3.95668 21.6824 4.92453L8.04878 4.92453C8.41958 3.95668 8.96308 3.07726 9.64823 2.3365C10.3334 1.59574 11.1468 1.00813 12.042 0.607237C12.9372 0.206339 13.8966 0 14.8656 0C15.8346 0 16.794 0.206339 17.6892 0.607237C18.5844 1.00813 19.3978 1.59574 20.083 2.3365Z" fill="url(#paint0_linear_258_31908)"/>
<path d="M9.8125 33.6635C9.12734 32.9227 8.58384 32.0433 8.21304 31.0755H21.8467C21.4759 32.0433 20.9324 32.9227 20.2472 33.6635C19.5621 34.4043 18.7487 34.9919 17.8535 35.3928C16.9583 35.7937 15.9988 36 15.0299 36C14.0609 36 13.1014 35.7937 12.2062 35.3928C11.311 34.9919 10.4976 34.4043 9.8125 33.6635Z" fill="url(#paint1_linear_258_31908)"/>
<path d="M12.2326 21.2264L8.29097 13.9962H20.0256C22.5286 13.9962 25.2516 13.829 27.2522 15.3981C27.8896 15.8981 28.5031 16.5484 29.2223 17.3987L29.4663 16.6533C31.2129 11.3181 27.411 5.77358 22.006 5.77358H7.40751C3.31645 5.77358 1.1001e-06 9.23282 1.1001e-06 13.5C1.1001e-06 17.7672 3.31645 21.2264 7.40751 21.2264H12.2326Z" fill="url(#paint2_linear_258_31908)"/>
<path d="M17.6629 14.7736L21.6045 22.0038H9.86991C7.36689 22.0038 4.64382 22.171 2.64328 20.6019C2.00584 20.1019 1.39241 19.4516 0.673206 18.6014L0.429193 19.3467C-1.31739 24.6819 2.48449 30.2264 7.88947 30.2264H22.488C26.579 30.2264 29.8955 26.7672 29.8955 22.5C29.8955 18.2328 26.579 14.7736 22.488 14.7736H17.6629Z" fill="url(#paint3_linear_258_31908)"/>
<path d="M41.2279 30.8445C38.4715 30.8445 36.2369 28.61 36.2369 25.8535V4.95C38.9934 4.95 41.2279 7.18452 41.2279 9.94093V30.8445Z" fill="white"/>
<path d="M48.2188 30.8445C47.1142 30.8445 46.2188 29.9491 46.2188 28.8445V15.4726C46.2188 13.5202 47.8016 11.9374 49.7541 11.9374L50.5859 13.787C51.0434 13.4171 51.5841 13.0472 52.1248 12.7594C53.0814 12.2662 54.3707 11.7319 55.9927 11.7319C60.5262 11.7319 63.6871 14.8146 63.6871 19.7468V28.8445C63.6871 29.9491 62.7917 30.8445 61.6871 30.8445H60.9041C59.7995 30.8445 58.9041 29.9491 58.9041 28.8445V20.3634C58.9041 17.8972 57.2821 16.2531 54.953 16.2531C52.6238 16.2531 51.0018 17.8972 51.0018 20.3634V28.8445C51.0018 29.9491 50.1064 30.8445 49.0018 30.8445H48.2188Z" fill="white"/>
<path d="M70.0704 30.8445C68.9658 30.8445 68.0704 29.9491 68.0704 28.8445V15.4726C68.0704 13.5202 69.6532 11.9374 71.6057 11.9374L72.4375 13.787C72.8118 13.4171 73.2693 13.0472 73.7268 12.7594C74.517 12.2662 75.64 11.7319 77.0125 11.7319C78.9673 11.7319 80.3398 12.3484 81.2132 12.965C81.7123 13.3349 82.1282 13.7459 82.4194 14.198C82.8769 13.7459 83.3759 13.3349 83.9582 12.965C84.9564 12.3484 86.3705 11.7319 88.0342 11.7319C92.1933 11.7319 94.8967 14.4035 94.8967 19.5413V28.8445C94.8967 29.9491 94.0013 30.8445 92.8967 30.8445H92.1137C91.0091 30.8445 90.1137 29.9491 90.1137 28.8445V19.9524C90.1137 17.6506 88.658 16.2531 86.9944 16.2531C85.3307 16.2531 83.875 17.6506 83.875 19.9524V28.8445C83.875 29.9491 82.9796 30.8445 81.875 30.8445H81.0921C79.9875 30.8445 79.0921 29.9491 79.0921 28.8445V19.9524C79.0921 17.6506 77.6364 16.2531 75.9727 16.2531C74.3091 16.2531 72.8534 17.6506 72.8534 19.9524V28.8445C72.8534 29.9491 71.958 30.8445 70.8534 30.8445H70.0704Z" fill="white"/>
<path d="M107.79 16.2531C105.087 16.2531 103.007 18.2672 103.007 21.3909C103.007 24.5147 105.087 26.5287 107.79 26.5287C110.493 26.5287 112.573 24.5147 112.573 21.3909C112.573 18.2672 110.493 16.2531 107.79 16.2531ZM107.79 11.7319C112.947 11.7319 117.356 16.0476 117.356 21.3909C117.356 26.7343 112.947 31.05 107.79 31.05C102.633 31.05 98.224 26.7343 98.224 21.3909C98.224 16.0476 102.633 11.7319 107.79 11.7319Z" fill="white"/>
<path d="M150.82 16.2531C148.117 16.2531 146.037 18.2672 146.037 21.3909C146.037 24.5147 148.117 26.5287 150.82 26.5287C153.523 26.5287 155.603 24.5147 155.603 21.3909C155.603 18.2672 153.523 16.2531 150.82 16.2531ZM150.82 11.7319C155.977 11.7319 160.386 16.0476 160.386 21.3909C160.386 26.7343 155.977 31.05 150.82 31.05C145.663 31.05 141.254 26.7343 141.254 21.3909C141.254 16.0476 145.663 11.7319 150.82 11.7319Z" fill="white"/>
<path d="M165.902 30.8445C164.797 30.8445 163.902 29.9491 163.902 28.8445V13.9374C163.902 12.8328 164.797 11.9374 165.902 11.9374H167.437L168.269 13.787C168.726 13.4171 169.267 13.0472 169.808 12.7594C170.764 12.2662 172.054 11.7319 173.676 11.7319C178.209 11.7319 181.37 14.8146 181.37 19.7468V28.8445C181.37 29.9491 180.475 30.8445 179.37 30.8445H178.587C177.482 30.8445 176.587 29.9491 176.587 28.8445V20.3634C176.587 17.8972 174.965 16.2531 172.636 16.2531C170.307 16.2531 168.685 17.8972 168.685 20.3634V28.8445C168.685 29.9491 167.789 30.8445 166.685 30.8445H165.902Z" fill="white"/>
<path d="M187.753 30.8445C186.649 30.8445 185.753 29.9491 185.753 28.8445V13.9374C185.753 12.8328 186.649 11.9374 187.753 11.9374H189.289L190.12 13.787C190.578 13.4171 191.119 13.0472 191.659 12.7594C192.616 12.2662 193.905 11.7319 195.527 11.7319C200.061 11.7319 203.222 14.8146 203.222 19.7468V28.8445C203.222 29.9491 202.326 30.8445 201.222 30.8445H200.439C199.334 30.8445 198.439 29.9491 198.439 28.8445V20.3634C198.439 17.8972 196.817 16.2531 194.487 16.2531C192.158 16.2531 190.536 17.8972 190.536 20.3634V28.8445C190.536 29.9491 189.641 30.8445 188.536 30.8445H187.753Z" fill="white"/>
<path d="M219.666 25.0902H224.657C223.659 27.9262 220.457 31.05 216.131 31.05C210.974 31.05 206.565 26.7343 206.565 21.3909C206.565 16.0476 210.974 11.7319 216.131 11.7319C221.122 11.7319 225.281 15.6366 225.281 21.3909C225.281 21.8431 225.198 22.2541 225.156 22.624L225.073 23.2405H211.764C212.222 25.0902 213.636 26.5287 216.131 26.5287C217.42 26.5287 218.211 26.1999 218.834 25.83C219.167 25.6245 219.458 25.3779 219.666 25.0902ZM211.556 19.9524H220.706C220.249 17.8561 218.627 16.2531 216.131 16.2531C213.636 16.2531 212.014 17.8561 211.556 19.9524Z" fill="white"/>
<path d="M241.492 23.8571H246.275C245.401 27.5974 241.908 31.05 237.333 31.05C232.175 31.05 227.767 26.7343 227.767 21.3909C227.767 16.0476 232.175 11.7319 237.333 11.7319C241.908 11.7319 245.401 15.1845 246.275 18.9248H241.492C241.284 18.4316 240.951 17.9794 240.577 17.6095C239.911 16.9519 238.872 16.2531 237.333 16.2531C234.629 16.2531 232.55 18.2672 232.55 21.3909C232.55 24.5147 234.629 26.5287 237.333 26.5287C238.872 26.5287 239.911 25.8711 240.577 25.2135C240.951 24.8435 241.284 24.3914 241.492 23.8571Z" fill="white"/>
<path d="M251.058 24.2681V16.2531H248.147V12.3484H249.394C250.933 12.3484 251.682 11.6086 251.682 10.0878V7.41614C253.979 7.41614 255.841 9.27823 255.841 11.5752V11.9374H258C259.105 11.9374 260 12.8328 260 13.9374V14.2531C260 15.3577 259.105 16.2531 258 16.2531H255.841V24.0626C255.841 25.7067 256.881 26.7343 258.544 26.7343C259.002 26.7343 259.251 26.6931 259.459 26.652L259.792 26.5287V30.639C259.584 30.7212 259.376 30.8034 259.127 30.8445C258.669 30.9678 258.128 31.05 257.505 31.05C253.72 31.05 251.058 28.3783 251.058 24.2681Z" fill="white"/>
<path d="M133.724 23.8571H138.507C137.633 27.5974 134.139 31.05 129.564 31.05C124.407 31.05 119.999 26.7343 119.999 21.3909C119.999 16.0476 124.407 11.7319 129.564 11.7319C134.139 11.7319 137.633 15.1845 138.507 18.9248H133.724C133.516 18.4316 133.183 17.9794 132.809 17.6095C132.143 16.9519 131.103 16.2531 129.564 16.2531C126.861 16.2531 124.781 18.2672 124.781 21.3909C124.781 24.5147 126.861 26.5287 129.564 26.5287C131.103 26.5287 132.143 25.8711 132.809 25.2135C133.183 24.8435 133.516 24.3914 133.724 23.8571Z" fill="white"/>
<defs>
<linearGradient id="paint0_linear_258_31908" x1="0" y1="0" x2="36.8966" y2="28.5359" gradientUnits="userSpaceOnUse">
<stop stop-color="#3AC5EC"/>
<stop offset="1" stop-color="#C547E9"/>
</linearGradient>
<linearGradient id="paint1_linear_258_31908" x1="0" y1="0" x2="36.8966" y2="28.5359" gradientUnits="userSpaceOnUse">
<stop stop-color="#3AC5EC"/>
<stop offset="1" stop-color="#C547E9"/>
</linearGradient>
<linearGradient id="paint2_linear_258_31908" x1="0" y1="0" x2="36.8966" y2="28.5359" gradientUnits="userSpaceOnUse">
<stop stop-color="#3AC5EC"/>
<stop offset="1" stop-color="#C547E9"/>
</linearGradient>
<linearGradient id="paint3_linear_258_31908" x1="0" y1="0" x2="36.8966" y2="28.5359" gradientUnits="userSpaceOnUse">
<stop stop-color="#3AC5EC"/>
<stop offset="1" stop-color="#C547E9"/>
</linearGradient>
</defs>
</svg>
