<svg width="320" height="320" viewBox="0 0 320 320" fill="none" xmlns="http://www.w3.org/2000/svg">
<path d="M246.31 240.777C243.944 239.292 241.235 238.36 238.456 238.074C237.173 237.942 235.771 237.98 234.742 238.757C234.524 238.922 234.31 239.166 234.359 239.435C234.395 239.634 234.563 239.777 234.723 239.899C237.917 242.338 242.751 242.646 246.31 240.777Z" fill="#5E58A6"/>
<path d="M246.108 240.555C244.33 239.168 242.542 237.771 241.035 236.092C239.529 234.413 238.305 232.42 237.855 230.21C237.719 229.54 237.677 228.774 238.107 228.242C242.15 231.401 245.326 235.484 246.108 240.555Z" fill="#5E58A6"/>
<path d="M246.267 240.747C245.963 238.535 245.853 236.262 246.361 234.087C246.87 231.913 248.052 229.832 249.909 228.592C250.608 230.225 250.307 232.106 249.815 233.813C249.054 236.45 247.861 238.962 246.297 241.219" fill="#5E58A6"/>
<path d="M250.232 247.849C247.825 248.142 245.73 249.41 243.933 251.037C242.137 252.664 240.859 254.856 240.331 257.221C242.691 257.075 244.693 255.411 246.145 253.545C247.597 251.679 248.603 249.632 250.199 247.886" fill="#5E58A6"/>
<path d="M251.092 248.985C249.154 244.212 249.857 238.459 252.886 234.292C254.257 239.168 253.754 244.676 251.092 248.985Z" fill="#5E58A6"/>
<path d="M256.33 255.221C254.146 255.086 251.926 255.606 250.029 256.697C248.133 257.788 246.568 259.447 245.589 261.404C245.456 261.67 245.338 262.008 245.517 262.246C245.672 262.453 245.971 262.473 246.229 262.455C248.346 262.318 250.222 261.045 251.77 259.594C253.318 258.144 254.666 256.469 256.377 255.215" fill="#5E58A6"/>
<path d="M256.163 254.882C255.036 251.277 254.966 247.35 255.963 243.708C256.356 242.27 257.018 240.756 258.348 240.081C258.461 240.023 258.593 239.972 258.712 240.017C258.825 240.059 258.891 240.175 258.943 240.284C259.416 241.273 259.554 242.395 259.505 243.49C259.457 244.585 259.229 245.663 259.003 246.735C258.584 248.719 258.361 250.85 257.274 252.56C257.015 252.966 256.788 253.405 256.582 253.84C256.376 254.274 256.374 254.427 256.186 254.774" fill="#5E58A6"/>
<path d="M270.025 256.947C268.998 253.04 270.089 248.304 272.55 245.101C272.731 244.865 272.972 244.612 273.268 244.64C273.721 244.681 273.839 245.286 273.818 245.741C273.641 249.734 272.309 253.668 270.025 256.947Z" fill="#5E58A6"/>
<path d="M271.275 257.801C276.022 259.037 281.467 257.836 285.415 254.926C283.075 253.74 280.317 253.401 277.761 253.986C275.204 254.571 272.867 255.717 271.275 257.801Z" fill="#5E58A6"/>
<path d="M272.33 255.2C274.988 250.866 280.084 248.038 285.162 247.78C284.577 249.846 282.88 251.451 280.965 252.421C279.05 253.391 276.913 253.813 274.805 254.223C273.985 254.381 272.861 254.556 272.33 255.2Z" fill="#5E58A6"/>
<path d="M270.29 242.578C271.01 240.112 271.734 237.623 271.931 235.062C272.128 232.501 271.763 229.826 270.434 227.628C267.951 232.433 267.699 238.047 270.215 242.835" fill="#5E58A6"/>
<path d="M278.649 238.353C281.553 233.075 287.478 228.859 293.472 228.268C291.16 234.026 284.854 238.476 278.649 238.353Z" fill="#5E58A6"/>
<path d="M276.823 239.386C281.154 240.046 284.843 242.812 288.891 244.489C289.756 244.847 290.69 245.133 291.619 245.011C292.548 244.889 293.464 244.266 293.673 243.353C293.846 242.594 293.501 241.789 292.956 241.233C292.411 240.677 291.693 240.33 290.975 240.031C286.566 238.195 281.839 238.15 277.196 239.263" fill="#5E58A6"/>
<path d="M274.317 242.424C275.297 242.705 275.632 243.213 276.408 243.874C279.043 246.117 282.202 247.74 285.559 248.574C285.908 248.662 286.367 248.696 286.54 248.38C286.692 248.104 286.5 247.77 286.303 247.524C284.897 245.764 282.89 244.56 280.778 243.773C278.666 242.987 276.836 242.039 274.316 242.242" fill="#5E58A6"/>
<path d="M271.489 224.078C275.01 227.365 279.97 229.053 284.766 228.596C284.984 228.574 285.222 228.54 285.371 228.379C285.705 228.015 285.304 227.454 284.914 227.15C281.01 224.107 276.282 222.845 271.489 224.078Z" fill="#5E58A6"/>
<path d="M274.842 222.851C279.496 219.361 285.88 218.308 291.409 220.118C289.323 222.174 286.428 223.28 283.514 223.584C280.601 223.887 277.683 223.564 274.842 222.851Z" fill="#5E58A6"/>
<path d="M273.509 214.421C273.126 210.525 273.375 207.449 273.104 203.535C273.082 203.223 273.015 202.846 272.723 202.733C272.315 202.576 271.976 203.077 271.842 203.492C270.682 207.101 271.316 211.239 273.503 214.335" fill="#5E58A6"/>
<path d="M273.229 214.851C275.869 213.218 277.851 211.086 279.683 208.578C280.958 206.834 282.033 204.744 281.743 202.603C279.953 202.567 278.251 203.555 277.087 204.915C275.923 206.275 275.231 207.975 274.714 209.69C274.197 211.405 273.835 213.167 273.229 214.851Z" fill="#5E58A6"/>
<path d="M279.57 213.09C285.366 210.947 290.773 207.758 295.453 203.724C293.556 202.96 291.384 203.418 289.487 204.183C285.152 205.932 281.612 208.885 279.487 213.048" fill="#5E58A6"/>
<path d="M275.012 216.983C277.944 217.304 280.922 217.513 283.832 217.026C286.691 216.548 289.393 215.415 292.065 214.29C292.287 214.197 292.528 214.085 292.625 213.865C292.73 213.627 292.617 213.336 292.424 213.161C292.231 212.985 291.974 212.902 291.722 212.832C288.817 212.019 285.682 212.4 282.824 213.364C279.966 214.327 277.622 215.472 275.012 216.983Z" fill="#5E58A6"/>
<path d="M258.269 224.211C256.268 220.174 256.398 215.461 258.126 211.299C259.343 213.153 259.491 215.514 259.268 217.719C259.046 219.925 258.374 222.195 258.331 224.412" fill="#5E58A6"/>
<path d="M250.277 220.181C245.282 220.085 240.286 222.213 236.895 225.882C239.387 226.274 241.955 225.63 244.223 224.523C246.49 223.416 248.505 221.863 250.502 220.32" fill="#5E58A6"/>
<path d="M244.904 218.384C242.461 218.185 240.11 217.883 237.761 218.603C235.411 219.323 233.273 220.957 232.315 223.22C234.601 223.478 236.918 222.905 239.013 221.956C241.108 221.006 243.012 219.691 244.904 218.384Z" fill="#5E58A6"/>
<path d="M252.859 218.466C250.662 217.025 248.404 215.559 245.845 214.963C243.286 214.366 240.319 214.807 238.535 216.736C240.607 217.952 243.121 218.096 245.522 218.094C247.925 218.092 250.87 218.065 253.134 218.866" fill="#5E58A6"/>
<path d="M252.873 218.582C249.115 214.892 247.69 208.263 249.202 203.218C252.156 207.707 253.479 213.243 252.873 218.582Z" fill="#5E58A6"/>
<path d="M263.206 208.127C263.914 206.48 264.413 204.75 265.049 203.073C265.684 201.396 266.475 199.745 267.677 198.414C268.878 197.082 270.539 196.09 272.331 196.001C271.209 201.079 267.837 205.616 263.298 208.153" fill="#5E58A6"/>
<path d="M261.336 210.306C260.163 208.691 258.808 206.5 257.217 205.295C255.627 204.09 253.556 203.361 251.615 203.824C253.589 207.353 257.32 209.84 261.336 210.306Z" fill="#5E58A6"/>
<path d="M261.71 208.261C260.941 206.308 260.167 204.334 259.856 202.258C259.545 200.182 259.734 197.964 260.795 196.154C262.858 200.053 263.522 204.239 261.815 208.306" fill="#5E58A6"/>
<path d="M263.225 196.153C264.393 192.287 267.933 189.441 271.754 188.135C272.236 187.971 272.746 187.833 273.25 187.911C273.753 187.989 274.246 188.333 274.352 188.831C274.491 189.489 273.948 190.078 273.437 190.515C270.461 193.059 266.963 194.99 263.225 196.153Z" fill="#5E58A6"/>
<path d="M263.267 192.992C263.416 190.5 263.571 187.971 264.382 185.609C265.193 183.248 266.755 181.033 269.028 179.999C269.414 182.516 268.304 185.02 266.964 187.187C265.625 189.353 264.011 191.397 263.206 193.814" fill="#5E58A6"/>
<path d="M263.206 194.707C262.24 191.89 262.14 188.312 260.453 185.858C259.274 184.142 257.386 182.974 256.37 181.157C255.695 182.854 255.901 184.809 256.607 186.494C257.313 188.178 258.48 189.628 259.728 190.962C260.977 192.294 262.045 193.297 263.206 194.707Z" fill="#5E58A6"/>
<path d="M263.225 277.669C263.15 277.669 263.085 258.876 263.08 235.699C263.075 212.515 263.131 193.726 263.206 193.726C263.281 193.726 263.346 212.515 263.351 235.699C263.356 258.876 263.3 277.669 263.225 277.669Z" fill="#5E58A6"/>
<path d="M279.647 221.376C279.652 221.394 279.401 221.487 278.941 221.641C278.433 221.812 277.78 222.032 276.996 222.297C275.357 222.855 273.105 223.664 270.66 224.666C268.239 225.704 265.956 226.548 264.657 227.673C264.007 228.229 263.634 228.831 263.45 229.269C263.264 229.71 263.231 229.981 263.206 229.976C263.197 229.975 263.199 229.908 263.214 229.779C263.236 229.652 263.268 229.463 263.352 229.231C263.511 228.768 263.873 228.125 264.529 227.53C265.183 226.934 266.092 226.399 267.134 225.912C268.176 225.426 269.33 224.918 270.557 224.414C273.009 223.41 275.279 222.627 276.937 222.114C277.766 221.855 278.441 221.664 278.911 221.539C279.38 221.417 279.642 221.358 279.647 221.376Z" fill="#5E58A6"/>
<path d="M285.03 208.153C285.037 208.16 284.968 208.233 284.833 208.365C284.673 208.515 284.473 208.702 284.23 208.931C283.67 209.44 282.907 210.132 281.978 210.976C280.034 212.706 277.398 215.054 274.485 217.648C271.56 220.251 269.032 222.739 267.281 224.612C266.404 225.548 265.713 226.322 265.242 226.864C265.021 227.115 264.842 227.321 264.697 227.486C264.571 227.627 264.501 227.698 264.493 227.692C264.486 227.686 264.542 227.604 264.654 227.451C264.768 227.3 264.933 227.075 265.16 226.796C265.607 226.233 266.277 225.437 267.138 224.482C268.859 222.571 271.373 220.054 274.303 217.446C277.238 214.848 279.909 212.515 281.85 210.832C282.802 210.015 283.585 209.345 284.159 208.852C284.416 208.638 284.627 208.464 284.795 208.324C284.944 208.205 285.025 208.146 285.03 208.153Z" fill="#5E58A6"/>
<path d="M271.328 220.295C271.251 220.261 271.862 218.85 272.471 217.066C273.085 215.282 273.375 213.776 273.453 213.789C273.524 213.796 273.35 215.346 272.728 217.153C272.422 218.055 272.084 218.848 271.818 219.412C271.552 219.975 271.36 220.31 271.328 220.295Z" fill="#5E58A6"/>
<path d="M263.242 231.67C263.227 231.681 263.067 231.494 262.792 231.147C262.486 230.754 262.099 230.258 261.637 229.666C260.667 228.412 259.326 226.681 257.823 224.788C256.319 222.893 254.938 221.195 253.937 219.966C253.466 219.381 253.07 218.892 252.757 218.505C252.481 218.158 252.336 217.96 252.35 217.948C252.364 217.936 252.537 218.11 252.838 218.437C253.139 218.763 253.565 219.243 254.084 219.842C255.124 221.041 256.531 222.722 258.036 224.619C259.54 226.516 260.859 228.267 261.79 229.551C262.256 230.193 262.627 230.717 262.876 231.085C263.126 231.451 263.257 231.659 263.242 231.67Z" fill="#5E58A6"/>
<path d="M259.641 227.047C259.597 227.095 258.636 225.955 258.132 224.223C257.761 223.003 257.744 221.887 257.79 221.376L257.91 221.385C257.856 221.603 257.817 221.718 257.795 221.714C257.773 221.711 257.773 221.59 257.791 221.366L257.911 221.376C257.954 221.882 258.031 222.96 258.393 224.146C258.879 225.824 259.714 227.001 259.641 227.047Z" fill="#5E58A6"/>
<path d="M254.992 221.2C254.957 221.237 254.648 220.848 253.938 220.588C253.235 220.316 252.176 220.256 251.014 220.356C249.851 220.441 248.813 220.648 248.07 220.831C247.326 221.015 246.872 221.16 246.858 221.122C246.846 221.09 247.278 220.88 248.018 220.646C248.757 220.414 249.81 220.172 250.994 220.085C252.17 219.983 253.284 220.074 254.011 220.41C254.748 220.736 255.016 221.193 254.992 221.2Z" fill="#5E58A6"/>
<path d="M253.89 219.782C253.869 219.824 253.276 219.536 252.276 219.194C251.278 218.851 249.856 218.491 248.25 218.366C246.644 218.246 245.183 218.386 244.144 218.574C243.104 218.761 242.475 218.955 242.461 218.91C242.455 218.892 242.607 218.828 242.888 218.728C243.168 218.624 243.585 218.504 244.107 218.385C245.149 218.147 246.635 217.972 248.271 218.094C249.905 218.222 251.348 218.619 252.342 219.013C252.839 219.209 253.233 219.39 253.494 219.536C253.758 219.679 253.899 219.765 253.89 219.782Z" fill="#5E58A6"/>
<path d="M263.206 213.789C263.133 213.808 262.606 211.977 262.029 209.701C261.451 207.425 261.042 205.565 261.115 205.547C261.188 205.528 261.715 207.358 262.292 209.635C262.87 211.911 263.279 213.771 263.206 213.789Z" fill="#5E58A6"/>
<path d="M263.281 213.789C263.2 213.815 262.861 212.592 261.976 211.342C261.115 210.065 260.017 209.424 260.056 209.36C260.07 209.332 260.374 209.443 260.797 209.742C261.222 210.037 261.746 210.538 262.198 211.185C263.117 212.487 263.346 213.785 263.281 213.789Z" fill="#5E58A6"/>
<path d="M263.225 267.652C263.195 267.656 263.14 267.2 262.928 266.402C262.719 265.604 262.325 264.472 261.673 263.148C260.374 260.494 258.012 257.131 255.01 253.761C253.522 252.061 252.079 250.458 250.854 248.923C249.627 247.39 248.619 245.929 247.883 244.636C247.144 243.346 246.664 242.238 246.383 241.456C246.245 241.064 246.143 240.758 246.088 240.546C246.029 240.336 246.002 240.224 246.011 240.222C246.035 240.214 246.171 240.652 246.481 241.418C246.79 242.183 247.294 243.271 248.048 244.54C248.8 245.81 249.817 247.249 251.049 248.766C252.28 250.285 253.725 251.879 255.215 253.582C258.224 256.961 260.582 260.368 261.846 263.065C262.482 264.411 262.852 265.565 263.032 266.377C263.119 266.784 263.177 267.101 263.198 267.319C263.224 267.536 263.234 267.65 263.225 267.652Z" fill="#5E58A6"/>
<path d="M278.065 250.889C278.074 250.909 277.79 251.053 277.288 251.326C276.789 251.606 276.081 252.038 275.27 252.659C274.459 253.28 273.552 254.096 272.621 255.076C271.691 256.059 270.733 257.199 269.755 258.422C267.801 260.875 265.972 263.045 264.878 264.777C264.322 265.636 263.918 266.361 263.654 266.869C263.387 267.376 263.245 267.661 263.225 267.653C263.217 267.649 263.242 267.573 263.298 267.432C263.355 267.292 263.434 267.082 263.559 266.823C263.796 266.298 264.176 265.554 264.716 264.675C265.779 262.901 267.593 260.701 269.544 258.252C270.524 257.027 271.494 255.884 272.441 254.904C273.39 253.925 274.321 253.114 275.156 252.507C275.991 251.898 276.722 251.487 277.239 251.234C277.496 251.104 277.707 251.025 277.846 250.965C277.986 250.906 278.061 250.881 278.065 250.889Z" fill="#5E58A6"/>
<path d="M278.355 256.327C278.358 256.367 277.727 256.443 276.711 256.566C275.698 256.697 274.289 256.866 272.812 257.334C271.341 257.813 270.118 258.543 269.321 259.166C268.517 259.788 268.137 260.302 268.1 260.272C268.087 260.262 268.166 260.122 268.343 259.893C268.519 259.663 268.807 259.355 269.199 259.017C269.983 258.341 271.218 257.567 272.728 257.075C274.241 256.596 275.67 256.457 276.691 256.374C277.718 256.3 278.353 256.292 278.355 256.327Z" fill="#5E58A6"/>
<path d="M268.58 259.674C268.495 259.626 269.236 258.494 269.81 256.972C270.35 255.436 270.476 254.09 270.573 254.105C270.608 254.11 270.607 254.446 270.545 254.987C270.48 255.526 270.351 256.275 270.066 257.065C269.778 257.853 269.401 258.512 269.112 258.971C268.818 259.429 268.61 259.693 268.58 259.674Z" fill="#5E58A6"/>
<path d="M282.871 236.29C282.874 236.299 282.783 236.347 282.608 236.431C282.404 236.523 282.148 236.639 281.835 236.782C281.497 236.927 281.086 237.111 280.623 237.355C280.159 237.595 279.617 237.842 279.053 238.181C278.766 238.344 278.467 238.514 278.156 238.691C277.845 238.87 277.537 239.082 277.21 239.287C276.549 239.688 275.887 240.182 275.18 240.686C273.797 241.736 272.342 242.978 270.942 244.413C269.555 245.862 268.363 247.359 267.361 248.777C266.881 249.501 266.409 250.18 266.031 250.855C265.837 251.189 265.636 251.504 265.468 251.821C265.302 252.137 265.142 252.443 264.989 252.735C264.67 253.31 264.442 253.86 264.218 254.333C263.99 254.804 263.82 255.22 263.687 255.563C263.556 255.881 263.448 256.141 263.362 256.347C263.286 256.526 263.241 256.618 263.232 256.615C263.223 256.612 263.25 256.514 263.311 256.329C263.385 256.116 263.476 255.851 263.589 255.525C263.708 255.175 263.864 254.751 264.08 254.272C264.291 253.791 264.509 253.232 264.818 252.648C264.968 252.352 265.123 252.042 265.285 251.721C265.449 251.4 265.648 251.08 265.839 250.741C266.211 250.057 266.678 249.369 267.156 248.635C268.153 247.199 269.35 245.685 270.748 244.224C272.159 242.778 273.631 241.531 275.033 240.484C275.749 239.982 276.421 239.492 277.092 239.096C277.424 238.894 277.736 238.685 278.052 238.509C278.368 238.336 278.672 238.171 278.962 238.011C279.536 237.681 280.087 237.445 280.56 237.218C281.031 236.986 281.449 236.815 281.796 236.685C282.118 236.561 282.38 236.461 282.59 236.38C282.77 236.313 282.868 236.282 282.871 236.29Z" fill="#5E58A6"/>
<path d="M271.126 244.16C271.103 244.156 271.233 243.699 271.772 243.198C272.298 242.696 273.258 242.233 274.374 242.199C275.488 242.17 276.453 242.481 277.113 242.734C277.776 242.995 278.161 243.206 278.148 243.237C278.133 243.275 277.72 243.127 277.05 242.915C276.383 242.711 275.439 242.442 274.384 242.471C273.332 242.503 272.425 242.908 271.898 243.343C271.359 243.777 271.169 244.186 271.126 244.16Z" fill="#5E58A6"/>
<path d="M269.371 245.971C269.297 245.929 269.959 244.958 270.109 243.567C270.283 242.178 269.862 241.081 269.944 241.058C269.974 241.045 270.121 241.301 270.249 241.758C270.377 242.213 270.462 242.875 270.379 243.598C270.293 244.322 270.058 244.946 269.828 245.36C269.599 245.775 269.397 245.989 269.371 245.971Z" fill="#5E58A6"/>
<path d="M250.245 270.344C250.65 277.526 252.814 284.83 256.143 292.214H270.619C273.793 284.903 275.808 277.61 276.166 270.344H250.245Z" fill="#5E58A6"/>
<path d="M273.82 281.966C273.82 282.041 269.054 282.101 263.176 282.101C257.295 282.101 252.531 282.041 252.531 281.966C252.531 281.891 257.295 281.83 263.176 281.83C269.054 281.83 273.82 281.891 273.82 281.966Z" fill="#B8B6D4"/>
<path d="M273.497 284.567C273.497 284.642 269.029 284.703 263.518 284.703C258.006 284.703 253.539 284.642 253.539 284.567C253.539 284.492 258.006 284.432 263.518 284.432C269.029 284.432 273.497 284.492 273.497 284.567Z" fill="#B8B6D4"/>
<path d="M256.377 275.06C256.452 275.06 256.513 276.553 256.513 278.394C256.513 280.236 256.452 281.728 256.377 281.728C256.302 281.728 256.241 280.236 256.241 278.394C256.241 276.553 256.302 275.06 256.377 275.06Z" fill="#B8B6D4"/>
<path d="M264.132 275.06C264.207 275.06 264.268 276.606 264.268 278.512C264.268 280.42 264.207 281.966 264.132 281.966C264.057 281.966 263.997 280.42 263.997 278.512C263.997 276.606 264.057 275.06 264.132 275.06Z" fill="#B8B6D4"/>
<path d="M271.414 275.001C271.489 275.001 271.549 276.578 271.549 278.523C271.549 280.469 271.489 282.045 271.414 282.045C271.339 282.045 271.278 280.469 271.278 278.523C271.278 276.578 271.339 275.001 271.414 275.001Z" fill="#B8B6D4"/>
<path d="M275.707 275.06C275.707 275.134 270.117 275.195 263.222 275.195C256.326 275.195 250.737 275.134 250.737 275.06C250.737 274.985 256.326 274.924 263.222 274.924C270.117 274.924 275.707 274.985 275.707 275.06Z" fill="#B8B6D4"/>
<path d="M76.995 57.042H35.1582V117.683H76.995V57.042Z" fill="#5E58A6"/>
<path d="M74.8991 57.042H33.0623V117.683H74.8991V57.042Z" fill="#4A4492"/>
<path d="M69.7009 63.6094H38.2603V111.115H69.7009V63.6094Z" fill="#F3F4F6"/>
<path d="M69.701 111.115C69.701 111.115 69.6971 111.034 69.6946 110.882C69.6933 110.726 69.6914 110.502 69.6882 110.209C69.685 109.611 69.6811 108.738 69.6754 107.603C69.669 105.326 69.6594 102.008 69.6472 97.8175C69.635 89.4406 69.6171 77.5788 69.596 63.6102L69.7003 63.7145C60.0946 63.7177 49.4507 63.7202 38.2635 63.7241H38.2597L38.3736 63.6102C38.3646 81.5308 38.357 98.0543 38.3506 111.115L38.2597 111.025C47.8347 111.044 55.683 111.061 61.1448 111.072C63.877 111.082 66.0101 111.09 67.4674 111.095C68.1918 111.099 68.7467 111.103 69.1269 111.105C69.5032 111.108 69.701 111.115 69.701 111.115C69.701 111.115 69.516 111.121 69.1461 111.124C68.7698 111.127 68.22 111.13 67.5032 111.135C66.0504 111.14 63.9243 111.148 61.2011 111.158C55.7266 111.169 47.8584 111.185 38.2597 111.205H38.1688V111.114C38.1624 98.053 38.1547 81.5302 38.1458 63.6095V63.4956H38.2597H38.2635C49.4507 63.4988 60.0946 63.502 69.7003 63.5052H69.8046V63.6095C69.7835 77.6063 69.7662 89.4924 69.7534 97.8854C69.7413 102.066 69.7317 105.376 69.7253 107.647C69.7195 108.773 69.7157 109.64 69.7125 110.232C69.7099 110.52 69.708 110.74 69.7061 110.894C69.7054 111.042 69.701 111.115 69.701 111.115Z" fill="#5E58A6"/>
<path d="M75.0168 57.0418C75.0411 57.061 74.7569 57.475 74.2712 58.1253C73.7854 58.7749 73.0955 59.6594 72.3083 60.6149C71.5204 61.571 70.7851 62.4171 70.2404 63.0187C69.6958 63.6203 69.3432 63.9787 69.3201 63.9582C69.2964 63.9371 69.6056 63.5416 70.1188 62.9138C70.6801 62.2334 71.37 61.3963 72.1329 60.4702C72.8952 59.5442 73.5851 58.7064 74.1451 58.0254C74.6622 57.4014 74.9912 57.0219 75.0168 57.0418Z" fill="#5E58A6"/>
<path d="M69.8616 110.962C71.4232 113.445 73.2664 115.75 75.3451 117.82L69.8616 110.962Z" fill="#F3F4F6"/>
<path d="M75.3451 117.82C75.3246 117.841 74.9515 117.518 74.3889 116.95C73.827 116.384 73.0821 115.569 72.3205 114.618C71.5595 113.665 70.9278 112.759 70.499 112.086C70.0696 111.413 69.836 110.977 69.8609 110.962C69.8891 110.944 70.1707 111.349 70.6321 111.996C71.0936 112.643 71.7413 113.528 72.4977 114.475C73.2549 115.421 73.9761 116.248 74.5061 116.84C75.036 117.432 75.3688 117.797 75.3451 117.82Z" fill="#5E58A6"/>
<path d="M33.0566 117.634C34.8832 115.381 36.7098 113.127 38.537 110.874L33.0566 117.634Z" fill="#F3F4F6"/>
<path d="M38.5362 110.873C38.5848 110.913 37.3976 112.458 35.8847 114.325C34.3711 116.193 33.1052 117.673 33.0559 117.634C33.0072 117.594 34.1938 116.049 35.7074 114.182C37.221 112.315 38.4876 110.834 38.5362 110.873Z" fill="#5E58A6"/>
<path d="M33.0624 57.0418C33.1116 57.0028 34.3027 58.4268 35.7222 60.2213C37.1424 62.0165 38.2528 63.5032 38.2041 63.5423C38.1548 63.5813 36.9638 62.158 35.5443 60.3621C34.1241 58.5676 33.0131 57.0808 33.0624 57.0418Z" fill="#5E58A6"/>
<path d="M59.905 73.2549H49.3777V103.146H59.905V73.2549Z" fill="#5E58A6"/>
<path d="M296.569 59.688H254.732V120.329H296.569V59.688Z" fill="#5E58A6"/>
<path d="M294.474 59.688H252.637V120.329H294.474V59.688Z" fill="#4A4492"/>
<path d="M289.275 66.2554H257.834V113.761H289.275V66.2554Z" fill="#F3F4F6"/>
<path d="M289.275 113.761C289.275 113.761 289.272 113.68 289.269 113.528C289.268 113.372 289.266 113.148 289.263 112.855C289.26 112.257 289.256 111.384 289.25 110.249C289.243 107.973 289.234 104.655 289.222 100.464C289.209 92.0866 289.192 80.2248 289.17 66.2562L289.275 66.3605C279.669 66.3637 269.025 66.3662 257.837 66.3701H257.833L257.947 66.2562C257.938 84.1768 257.931 100.7 257.924 113.761L257.833 113.67C267.409 113.69 275.257 113.706 280.719 113.717C283.451 113.728 285.584 113.735 287.041 113.74C287.766 113.745 288.321 113.748 288.701 113.751C289.077 113.754 289.275 113.761 289.275 113.761C289.275 113.761 289.09 113.767 288.721 113.77C288.344 113.773 287.794 113.776 287.078 113.781C285.625 113.786 283.499 113.794 280.776 113.804C275.3 113.815 267.433 113.831 257.834 113.851H257.743V113.76C257.737 100.699 257.729 84.1762 257.72 66.2555V66.1416H257.834H257.838C269.025 66.1448 279.669 66.148 289.275 66.1512H289.38V66.2555C289.359 80.2523 289.341 92.1378 289.329 100.531C289.316 104.712 289.307 108.022 289.3 110.293C289.295 111.419 289.291 112.286 289.288 112.878C289.285 113.166 289.283 113.386 289.281 113.54C289.279 113.688 289.275 113.761 289.275 113.761Z" fill="#5E58A6"/>
<path d="M294.591 59.6877C294.615 59.7069 294.331 60.121 293.845 60.7712C293.359 61.4208 292.669 62.3053 291.882 63.2608C291.094 64.217 290.359 65.0631 289.814 65.6647C289.27 66.2663 288.917 66.6247 288.894 66.6042C288.87 66.5831 289.18 66.1875 289.693 65.5597C290.253 64.8794 290.944 64.0416 291.707 63.1162C292.469 62.1901 293.158 61.3523 293.719 60.6714C294.237 60.048 294.566 59.6685 294.591 59.6877Z" fill="#5E58A6"/>
<path d="M289.435 113.608C290.997 116.091 292.841 118.396 294.919 120.466L289.435 113.608Z" fill="#F3F4F6"/>
<path d="M294.92 120.466C294.899 120.487 294.526 120.164 293.963 119.596C293.401 119.03 292.657 118.215 291.895 117.264C291.134 116.311 290.502 115.405 290.073 114.732C289.644 114.059 289.41 113.623 289.435 113.608C289.464 113.59 289.745 113.995 290.207 114.642C290.668 115.289 291.316 116.174 292.072 117.122C292.829 118.068 293.551 118.894 294.081 119.486C294.61 120.078 294.943 120.443 294.92 120.466Z" fill="#5E58A6"/>
<path d="M252.63 120.28C254.457 118.027 256.284 115.773 258.111 113.52L252.63 120.28Z" fill="#F3F4F6"/>
<path d="M258.111 113.519C258.159 113.559 256.972 115.105 255.459 116.972C253.946 118.839 252.68 120.32 252.63 120.28C252.582 120.241 253.768 118.695 255.282 116.828C256.795 114.961 258.061 113.48 258.111 113.519Z" fill="#5E58A6"/>
<path d="M252.637 59.6878C252.686 59.6488 253.877 61.0728 255.297 62.8673C256.717 64.6625 257.827 66.1492 257.778 66.1883C257.729 66.2273 256.538 64.804 255.118 63.0081C253.699 61.2142 252.588 59.7268 252.637 59.6878Z" fill="#5E58A6"/>
<path d="M279.48 75.9009H268.952V105.792H279.48V75.9009Z" fill="#5E58A6"/>
<path d="M192.798 22.6772H142.068V96.2088H192.798V22.6772Z" fill="#5E58A6"/>
<path d="M190.257 22.6772H139.526V96.2088H190.257V22.6772Z" fill="#4A4492"/>
<path d="M183.955 30.6406H145.83V88.2445H183.955V30.6406Z" fill="#F3F4F6"/>
<path d="M183.954 88.2444C183.954 88.2444 183.949 88.1471 183.946 87.9628C183.944 87.7727 183.942 87.5013 183.939 87.1461C183.935 86.4223 183.93 85.3625 183.923 83.9865C183.916 81.2255 183.904 77.2025 183.889 72.1202C183.874 61.9628 183.852 47.5794 183.827 30.6405L183.954 30.7673C172.306 30.7705 159.4 30.7749 145.834 30.7788H145.83L145.967 30.6412C145.957 52.3717 145.947 72.4069 145.939 88.2444L145.829 88.1343C157.439 88.1586 166.956 88.1785 173.579 88.1919C176.892 88.2041 179.478 88.2136 181.245 88.22C182.124 88.2252 182.797 88.2297 183.258 88.2322C183.714 88.2367 183.954 88.2444 183.954 88.2444C183.954 88.2444 183.729 88.2521 183.281 88.2565C182.825 88.2591 182.159 88.2636 181.29 88.2687C179.528 88.2751 176.95 88.2847 173.647 88.2969C167.009 88.3109 157.468 88.3308 145.829 88.3545H145.719V88.2444C145.711 72.4069 145.702 52.3711 145.691 30.6412V30.5029H145.829H145.834C159.399 30.5068 172.306 30.5106 183.953 30.5145H184.08V30.6412C184.054 47.6133 184.033 62.0261 184.018 72.2034C184.003 77.2735 183.992 81.2869 183.984 84.0408C183.978 85.406 183.973 86.4569 183.969 87.1749C183.965 87.5237 183.963 87.7906 183.961 87.9775C183.959 88.1567 183.954 88.2444 183.954 88.2444Z" fill="#5E58A6"/>
<path d="M190.399 22.6771C190.429 22.7002 190.085 23.2026 189.495 23.9911C188.906 24.7789 188.069 25.8509 187.115 27.0099C186.16 28.169 185.268 29.1955 184.607 29.9251C183.947 30.6547 183.519 31.0887 183.491 31.0643C183.462 31.0387 183.838 30.5594 184.46 29.7978C185.14 28.9728 185.976 27.9571 186.902 26.8346C187.826 25.7114 188.662 24.6957 189.342 23.8701C189.97 23.1136 190.369 22.6535 190.399 22.6771Z" fill="#5E58A6"/>
<path d="M184.148 88.0591C186.042 91.0703 188.278 93.8658 190.798 96.3752L184.148 88.0591Z" fill="#F3F4F6"/>
<path d="M190.798 96.3753C190.773 96.4009 190.321 96.0079 189.639 95.3206C188.957 94.6339 188.054 93.6451 187.131 92.4918C186.208 91.3366 185.443 90.2383 184.922 89.4223C184.402 88.6063 184.118 88.0783 184.148 88.0598C184.183 88.038 184.524 88.5283 185.083 89.3135C185.643 90.0982 186.429 91.1721 187.346 92.3203C188.264 93.4671 189.138 94.47 189.781 95.1881C190.423 95.9055 190.826 96.3465 190.798 96.3753Z" fill="#5E58A6"/>
<path d="M139.519 96.1505C141.734 93.4177 143.949 90.6849 146.164 87.9521L139.519 96.1505Z" fill="#F3F4F6"/>
<path d="M146.164 87.9516C146.223 87.9996 144.784 89.8742 142.949 92.1378C141.114 94.4022 139.579 96.1986 139.519 96.1506C139.46 96.1026 140.899 94.2287 142.735 91.9644C144.57 89.7007 146.105 87.9042 146.164 87.9516Z" fill="#5E58A6"/>
<path d="M139.526 22.6772C139.586 22.6299 141.03 24.3566 142.751 26.5326C144.473 28.7099 145.82 30.5121 145.761 30.5595C145.701 30.6068 144.257 28.8807 142.535 26.7035C140.814 24.5275 139.467 22.7246 139.526 22.6772Z" fill="#5E58A6"/>
<path d="M172.076 42.3369H159.311V78.582H172.076V42.3369Z" fill="#5E58A6"/>
<path d="M293.894 292.966C293.894 293.058 233.084 293.133 158.086 293.133C83.0637 293.133 22.2656 293.058 22.2656 292.966C22.2656 292.874 83.0637 292.8 158.086 292.8C233.084 292.8 293.894 292.874 293.894 292.966Z" fill="#17213A"/>
<path d="M60.4359 274.056C60.4359 274.056 63.1808 255.182 62.9524 244.201C62.7239 233.22 62.9658 220.866 62.9658 220.866H61.7005C61.7005 220.866 62.5568 242.663 61.625 255.808C60.6932 268.944 58.2388 274.055 58.2388 274.055H60.4359" fill="#17213A"/>
<path d="M52.2587 199.631C52.5134 198.986 52.8257 198.314 53.4113 197.943C54.2139 197.434 55.266 197.646 56.1614 197.963C59.9835 199.315 63.3716 206.441 64.9166 210.19L59.842 227.288C50.6836 218.791 49.0971 207.644 52.2587 199.631Z" fill="#383192"/>
<path d="M53.7068 198.635C53.7004 198.639 53.726 198.715 53.7804 198.859C53.8457 199.023 53.9282 199.229 54.0287 199.481C54.2514 200.02 54.5631 200.802 54.9362 201.773C55.6837 203.715 56.6354 206.429 57.4866 209.487C58.334 212.547 58.9177 215.364 59.278 217.414C59.4591 218.438 59.5948 219.27 59.6818 219.845C59.726 220.114 59.7618 220.333 59.79 220.507C59.8169 220.658 59.8348 220.736 59.8418 220.736C59.8489 220.735 59.8457 220.655 59.8316 220.502C59.813 220.326 59.7906 220.105 59.7625 219.834C59.7004 219.254 59.5865 218.418 59.4239 217.389C59.1007 215.33 58.5381 212.5 57.6882 209.431C56.8351 206.365 55.8585 203.65 55.0738 201.719C54.6821 200.754 54.3493 199.978 54.1036 199.449C53.9877 199.202 53.8937 199.001 53.8188 198.841C53.7522 198.704 53.7138 198.633 53.7068 198.635Z" fill="#17213A"/>
<path d="M62.098 231.388C66.8545 228.76 69.6577 223.815 69.9188 218.387C70.1019 214.593 68.9358 210.87 67.6155 207.308C67.5009 206.999 67.3652 206.666 67.0779 206.504C66.6792 206.278 66.18 206.479 65.7812 206.706C62.3252 208.674 60.2312 212.426 59.1169 216.245C58.3752 218.785 57.9918 221.464 58.3348 224.088C58.6772 226.712 60.1774 229.567 62.098 231.388Z" fill="#383192"/>
<path d="M62.098 231.388C62.1051 231.388 62.1114 231.309 62.1166 231.159C62.1198 230.985 62.1243 230.768 62.1294 230.503C62.1307 229.933 62.1537 229.109 62.2004 228.093C62.2919 226.059 62.5588 223.256 63.083 220.194C63.611 217.131 64.251 214.389 64.7226 212.407C64.9556 211.437 65.1457 210.642 65.2859 210.06C65.3454 209.801 65.3934 209.589 65.4324 209.42C65.4638 209.273 65.4766 209.195 65.4695 209.193C65.4625 209.192 65.4356 209.266 65.3915 209.41C65.3428 209.576 65.282 209.785 65.2071 210.04C65.051 210.589 64.8346 211.385 64.5793 212.372C64.0705 214.346 63.4062 217.088 62.8769 220.159C62.3508 223.23 62.1063 226.046 62.0526 228.087C62.0244 229.108 62.0244 229.934 62.0474 230.504C62.0583 230.77 62.0673 230.987 62.0743 231.161C62.0826 231.309 62.0903 231.388 62.098 231.388Z" fill="#17213A"/>
<g opacity="0.3">
<path d="M62.098 231.388C66.8545 228.76 69.6577 223.815 69.9188 218.387C70.1019 214.593 68.9358 210.87 67.6155 207.308C67.5009 206.999 67.3652 206.666 67.0779 206.504C66.6792 206.278 66.18 206.479 65.7812 206.706C62.3252 208.674 60.2312 212.426 59.1169 216.245C58.3752 218.785 57.9918 221.464 58.3348 224.088C58.6772 226.712 60.1774 229.567 62.098 231.388Z" fill="#17213A"/>
</g>
<path d="M56.7316 260.265C52.05 261.294 48.1959 264.595 43.6794 266.201C40.6912 267.264 37.312 267.639 34.9268 269.728C35.4989 268.283 36.8564 267.321 38.1748 266.497C41.8887 264.177 45.8656 262.279 50.0045 260.85C52.1293 260.116 54.4346 259.503 56.5997 260.107" fill="#383192"/>
<path d="M63.4995 264.436C69.3619 264.341 75.5347 259.35 81.3702 259.052C75.2633 257.081 66.5197 258.691 63.4995 264.436Z" fill="#383192"/>
<path d="M61.209 250.373C58.2317 249.299 54.9633 249.249 51.8369 249.735C48.7098 250.221 45.6903 251.223 42.6868 252.222C42.9876 250.188 44.6349 248.658 46.1825 247.305C47.3473 246.286 48.5204 245.26 49.8567 244.48C51.193 243.7 52.7169 243.172 54.2631 243.237C56.1281 243.316 57.9034 244.279 59.1264 245.689C60.3489 247.098 61.0068 248.517 61.209 250.373Z" fill="#383192"/>
<path d="M73.241 243.9C76.9312 240.749 82.521 241.057 87.3722 241.166C79.9149 244.732 71.8791 249.62 65.456 254.823C65.2596 251.393 68.5792 247.879 73.241 243.9Z" fill="#383192"/>
<g opacity="0.3">
<path d="M73.241 243.9C76.9312 240.749 82.521 241.057 87.3722 241.166C79.9149 244.732 71.8791 249.62 65.456 254.823C65.2596 251.393 68.5792 247.879 73.241 243.9Z" fill="#17213A"/>
</g>
<path d="M59.5494 239.55C57.6941 238.313 55.8163 237.134 53.8739 236.252C51.9315 235.369 50.119 233.963 48.2432 232.948C45.8106 231.63 43.703 229.799 41.4701 228.166C39.2371 226.534 36.7847 225.059 34.0525 224.626C36.2803 224.167 38.6087 224.417 40.8032 225.017C42.9978 225.616 45.0829 226.554 47.1571 227.488C50.0358 228.785 52.9645 230.114 55.3178 232.219C57.671 234.325 59.7978 236.403 59.5494 239.55Z" fill="#383192"/>
<path d="M43.7868 264.436C43.7906 264.442 43.854 264.414 43.9724 264.356C44.1106 264.284 44.2796 264.197 44.4838 264.091C44.9254 263.856 45.559 263.508 46.357 263.107C46.7519 262.898 47.1897 262.68 47.6652 262.458C48.1356 262.224 48.6463 261.994 49.1878 261.759C50.27 261.297 51.479 260.815 52.7974 260.501C54.1119 260.179 55.4214 260.108 56.558 260.407C57.1314 260.545 57.671 260.682 58.1516 260.882C58.6335 261.077 59.0636 261.306 59.438 261.543C60.1894 262.015 60.7135 262.517 61.0546 262.878C61.3945 263.241 61.5596 263.464 61.5743 263.453C61.5801 263.448 61.5436 263.39 61.4694 263.28C61.3958 263.17 61.2774 263.015 61.1154 262.823C60.7903 262.442 60.2738 261.916 59.5186 261.418C59.1423 261.169 58.7078 260.928 58.2182 260.721C57.7292 260.509 57.1769 260.362 56.6034 260.218C55.4418 259.901 54.0806 259.968 52.75 260.296C51.4111 260.615 50.1958 261.107 49.111 261.582C48.5689 261.822 48.0582 262.059 47.5897 262.3C47.1161 262.531 46.6809 262.757 46.2892 262.974C45.4975 263.393 44.8735 263.761 44.4441 264.019C44.2476 264.138 44.085 264.237 43.9519 264.318C43.8399 264.389 43.783 264.43 43.7868 264.436Z" fill="#17213A"/>
<path d="M67.8727 261.53C67.8676 261.517 67.7377 261.555 67.5054 261.638C67.2724 261.717 66.9441 261.858 66.5499 262.053C65.7607 262.443 64.7233 263.106 63.7492 264.04C62.7771 264.976 62.0731 265.987 61.6519 266.759C61.4401 267.145 61.2871 267.467 61.1988 267.697C61.1073 267.925 61.0631 268.054 61.0766 268.059C61.1105 268.074 61.3294 267.577 61.7793 266.833C62.2279 266.089 62.9383 265.111 63.8932 264.19C64.8513 263.273 65.8561 262.601 66.6184 262.183C67.3812 261.763 67.8862 261.565 67.8727 261.53Z" fill="#17213A"/>
<path d="M80.8434 243.605C80.8409 243.598 80.7551 243.624 80.5938 243.679C80.4121 243.743 80.1791 243.827 79.8905 243.929C79.5782 244.044 79.207 244.181 78.7807 244.338C78.3481 244.499 77.879 244.736 77.3478 244.97C75.237 245.928 72.4281 247.541 69.7158 249.832C68.3782 250.997 67.1686 252.181 66.1567 253.337C65.1487 254.496 64.2956 255.586 63.6306 256.538C62.9612 257.485 62.4537 258.275 62.1062 258.822C61.9417 259.08 61.8086 259.288 61.7049 259.45C61.614 259.594 61.5692 259.672 61.575 259.677C61.5807 259.681 61.637 259.612 61.7394 259.475C61.8418 259.338 61.991 259.134 62.1734 258.867C62.5426 258.333 63.0681 257.558 63.7503 256.623C64.4287 255.686 65.2902 254.611 66.3007 253.464C67.3151 252.321 68.5215 251.148 69.8514 249.991C72.5478 247.713 75.3254 246.092 77.4111 245.103C77.9359 244.861 78.3999 244.616 78.8262 244.445C79.246 244.275 79.6114 244.128 79.9193 244.004C80.2022 243.886 80.4306 243.791 80.6079 243.717C80.7641 243.651 80.8454 243.612 80.8434 243.605Z" fill="#17213A"/>
<path d="M52.4122 247.077C52.416 247.091 52.5831 247.068 52.8794 247.016C53.0407 246.986 53.2192 246.954 53.4183 246.917C53.6275 246.877 53.872 246.876 54.1383 246.848C55.1923 246.771 56.7283 246.859 58.1671 247.643C58.8928 248.01 59.5021 248.506 60.0007 249.004C60.5063 249.497 60.8903 250.011 61.1795 250.461C61.7677 251.361 61.9495 252.012 61.9853 251.999C61.9968 251.996 61.9635 251.83 61.8663 251.542C61.7587 251.258 61.5923 250.846 61.305 250.383C61.0266 249.915 60.6477 249.381 60.1376 248.869C59.6352 248.352 59.0125 247.838 58.265 247.459C56.7808 246.65 55.1923 246.585 54.1255 246.702C53.856 246.739 53.6083 246.751 53.3984 246.803C53.2 246.853 53.0221 246.897 52.8615 246.938C52.5683 247.014 52.4083 247.063 52.4122 247.077Z" fill="#17213A"/>
<path d="M46.5204 228.798C46.5172 228.805 46.5933 228.851 46.7418 228.935C46.9108 229.027 47.1277 229.144 47.3959 229.29C47.9648 229.597 48.7828 230.049 49.7773 230.635C50.7668 231.229 51.9328 231.958 53.1738 232.845C54.4103 233.733 55.7396 234.767 56.9658 236.022C57.5706 236.653 58.128 237.313 58.5165 238.029C58.9005 238.767 59.2679 239.48 59.6052 240.164C60.2836 241.532 60.8352 242.79 61.234 243.872C61.6314 244.954 61.8791 245.855 62.0263 246.483C62.176 247.11 62.2304 247.464 62.2509 247.461C62.258 247.459 62.2496 247.37 62.2272 247.201C62.2061 247.032 62.1703 246.783 62.1056 246.465C61.9828 245.829 61.7549 244.917 61.3728 243.821C60.9895 242.727 60.4487 241.455 59.778 240.079C59.4439 239.39 59.0797 238.674 58.6983 237.935C58.2944 237.185 57.7287 236.516 57.1156 235.876C55.874 234.605 54.5338 233.572 53.2852 232.687C52.0327 231.805 50.8538 231.086 49.8522 230.507C48.8455 229.935 48.0148 229.502 47.4336 229.218C47.1578 229.086 46.9344 228.98 46.761 228.897C46.6061 228.826 46.5236 228.792 46.5204 228.798Z" fill="#17213A"/>
<path d="M62.9595 246.549C62.9735 246.551 63.0145 246.375 63.0759 246.055C63.1444 245.693 63.2302 245.239 63.3326 244.7C63.5559 243.559 63.8971 241.987 64.4411 240.301C64.9799 238.612 65.6359 237.143 66.1153 236.083C66.3425 235.584 66.5339 235.163 66.6868 234.828C66.8199 234.531 66.8878 234.363 66.875 234.357C66.8622 234.35 66.77 234.506 66.6139 234.792C66.4583 235.079 66.2395 235.496 65.9815 236.02C65.467 237.065 64.7854 238.535 64.242 240.237C63.6942 241.936 63.3735 243.523 63.1873 244.674C63.0951 245.251 63.0292 245.718 62.9959 246.042C62.9582 246.367 62.9447 246.547 62.9595 246.549Z" fill="#17213A"/>
<path d="M63.3831 233.211C63.5303 230.996 64.2516 228.844 65.2897 226.881C68.1351 221.502 73.483 217.514 79.451 216.321C75.081 222.834 70.7105 229.348 66.3406 235.862L64.6478 239.35C63.4926 237.455 63.2359 235.426 63.3831 233.211Z" fill="#383192"/>
<path d="M44.5775 277.125H75.0632V271.721H44.5775V277.125Z" fill="#383192"/>
<path d="M72.7859 276.053L69.4317 292.819H49.9514L46.8538 276.053H72.7859Z" fill="#383192"/>
<path d="M44.594 277.132C44.594 277.191 51.4702 277.239 59.9514 277.239C68.4353 277.239 75.3102 277.191 75.3102 277.132C75.3102 277.073 68.4353 277.025 59.9514 277.025C51.4702 277.024 44.594 277.072 44.594 277.132Z" fill="#17213A"/>
<path d="M219.71 43.6934L217.448 29.0617L206.075 39.3491L193.981 28.8384L196.053 45.1245L180.558 47.0707L190.827 56.8397L178.468 67.8214L194.749 64.9574L197.512 80.615L207.857 71.5059L220.56 79.584L220.447 65.6672L234.525 62.4781L225.211 53.5865L233.506 44.4409L219.71 43.6934Z" fill="#F3F4F6"/>
<path d="M219.71 43.6935C219.71 43.6935 220.027 43.6999 220.632 43.7268C221.242 43.7556 222.136 43.7978 223.304 43.8529C225.648 43.97 229.089 44.1428 233.51 44.3642L233.674 44.3726L233.563 44.4942C231.24 47.0663 228.45 50.1556 225.288 53.657L225.282 53.5124C228.063 56.1588 231.211 59.1547 234.61 62.3899L234.777 62.5479L234.553 62.5991C230.242 63.5809 225.498 64.6606 220.479 65.8036L220.587 65.6673C220.626 70.0903 220.667 74.745 220.71 79.5841L220.713 79.8599L220.48 79.7121C216.44 77.1457 212.173 74.4359 207.772 71.6411L207.962 71.6263C204.678 74.5198 201.188 77.5956 197.62 80.7393L197.402 80.9319L197.351 80.6452C196.467 75.6404 195.535 70.363 194.586 64.9876L194.779 65.1227C192.703 65.4881 190.475 65.8798 188.233 66.274C184.954 66.8507 181.706 67.4215 178.497 67.986L177.92 68.0878L178.358 67.6987C182.573 63.9553 186.702 60.2887 190.721 56.7201L190.717 56.9594C187.202 53.6129 183.775 50.3508 180.452 47.186L180.212 46.9582L180.54 46.9172C185.922 46.2446 191.092 45.5988 196.036 44.9806L195.908 45.1444C195.181 39.3863 194.494 33.9431 193.852 28.857L193.809 28.5146L194.069 28.7412C198.49 32.5934 202.518 36.1044 206.148 39.2679L206.002 39.2692C210.479 35.2353 214.271 31.8209 217.396 29.0049L217.506 28.9057L217.528 29.0516C218.242 33.7908 218.792 37.4414 219.164 39.9169C219.346 41.1508 219.485 42.0903 219.579 42.7303C219.67 43.362 219.71 43.6935 219.71 43.6935C219.71 43.6935 219.651 43.3838 219.548 42.7585C219.446 42.123 219.295 41.1911 219.097 39.9662C218.703 37.4849 218.123 33.8247 217.37 29.074L217.501 29.1207C214.387 31.9489 210.61 35.3793 206.148 39.4311L206.076 39.497L206.002 39.433C202.363 36.2798 198.325 32.779 193.894 28.939L194.111 28.8231C194.763 33.9079 195.46 39.3498 196.198 45.1066L196.216 45.2526L196.07 45.2711C191.127 45.8951 185.959 46.5479 180.577 47.227L180.666 46.9582C183.992 50.1198 187.421 53.3793 190.939 56.7233L191.067 56.8449L190.934 56.9626C186.917 60.5332 182.79 64.2017 178.577 67.947L178.438 67.6596C181.647 67.0951 184.894 66.5236 188.173 65.9463C190.416 65.5521 192.643 65.1604 194.719 64.795L194.883 64.7662L194.912 64.93C195.859 70.3054 196.789 75.5835 197.671 80.5882L197.402 80.4942C200.972 77.3531 204.465 74.2798 207.75 71.3882L207.84 71.3095L207.94 71.3735C212.338 74.1735 216.602 76.8884 220.639 79.4593L220.408 79.5873C220.373 74.7483 220.339 70.0935 220.307 65.6705L220.306 65.5585L220.416 65.5342C225.439 64.402 230.184 63.3326 234.497 62.3604L234.44 62.5697C231.05 59.3249 227.911 56.3188 225.138 53.6647L225.064 53.5943L225.132 53.5194C228.31 50.0315 231.113 46.9537 233.447 44.3918L233.5 44.5211C229.063 44.2625 225.611 44.0609 223.258 43.9233C222.097 43.8522 221.21 43.7978 220.603 43.7607C220.009 43.7204 219.71 43.6935 219.71 43.6935Z" fill="#17213A"/>
<path d="M207.235 51.6055V60.5123H204.767L201.382 56.4656V60.5123H198.455V51.6055H200.924L204.309 55.6515V51.6055H207.235Z" fill="#17213A"/>
<path d="M208.326 56.0591C208.326 53.3615 210.45 51.4019 213.352 51.4019C216.254 51.4019 218.379 53.3615 218.379 56.0591C218.379 58.7567 216.254 60.7164 213.352 60.7164C210.45 60.7164 208.326 58.7567 208.326 56.0591ZM215.35 56.0591C215.35 54.6723 214.459 53.8326 213.352 53.8326C212.246 53.8326 211.355 54.6723 211.355 56.0591C211.355 57.4467 212.246 58.2857 213.352 58.2857C214.459 58.2857 215.35 57.446 215.35 56.0591Z" fill="#17213A"/>
<path d="M43.1678 48.7036L34.085 58.0591L46.8478 60.4962L44.3877 74.0969L57.2702 66.3593L64.6251 75.7276L68.5707 61.686L83.9755 66.7081L73.5883 54.9238L82.437 43.0562L69.5058 41.7442L67.1525 27.6367L58.1771 37.2297L48.5061 28.3202L49.029 39.7513L36.3704 38.6102L43.1678 48.7036Z" fill="#F3F4F6"/>
<path d="M67.0182 27.5804L67.1622 27.4268L67.1968 27.6348C67.9475 32.125 68.7391 36.8578 69.5558 41.741L69.4585 41.6501C73.5686 42.0661 77.9315 42.5077 82.3897 42.9589L82.5887 42.9794L82.4691 43.14C79.639 46.9365 76.6572 50.9365 73.6217 55.0082L73.6159 54.8636C74.5126 55.8805 75.4783 56.9762 76.4492 58.0776C79.0015 60.973 81.5225 63.8338 84.0032 66.6485L84.2803 66.9628L83.8815 66.8328C78.6137 65.1144 73.4688 63.4364 68.478 61.8082L68.6195 61.7327C67.2588 66.5666 65.9398 71.2546 64.6681 75.773L64.6111 75.9746L64.4819 75.8101C61.9417 72.5704 59.4892 69.4428 57.1321 66.4373L57.262 66.461C52.6905 69.2021 48.3795 71.7871 44.3737 74.189L44.206 74.2901L44.2412 74.0975C45.1513 69.0946 45.975 64.5711 46.7155 60.5L46.7743 60.5858C41.7484 59.6181 37.5206 58.804 34.0153 58.1288L33.9167 58.1103L33.9865 58.0386C36.9433 55.0114 39.2166 52.6837 40.7545 51.1093C41.5244 50.3247 42.1094 49.7282 42.5049 49.325C42.8998 48.9244 43.1078 48.7208 43.1078 48.7208C43.1078 48.7208 42.919 48.9263 42.5337 49.3288C42.1439 49.7352 41.5673 50.3349 40.8089 51.124C39.2761 52.7125 37.0105 55.0607 34.0633 58.1141L34.0351 58.0239C37.543 58.6882 41.7734 59.4888 46.8019 60.4412L46.8742 60.4546L46.8614 60.5269C46.1292 64.5999 45.3158 69.1253 44.4159 74.1301L44.2828 74.038C48.2847 71.6303 52.5919 69.0389 57.1596 66.2908L57.2351 66.2453L57.2895 66.3144C59.6499 69.3173 62.1055 72.4424 64.6489 75.6789L64.4633 75.716C65.7311 71.197 67.047 66.5077 68.4044 61.6732L68.4358 61.5612L68.5465 61.597C73.5379 63.2232 78.6835 64.8994 83.952 66.6159L83.8303 66.8002C81.3491 63.9861 78.8281 61.126 76.2758 58.2306C75.3055 57.1298 74.3398 56.0335 73.4431 55.0165L73.3817 54.9468L73.4374 54.8719C76.4735 50.8008 79.456 46.8015 82.2873 43.0056L82.3667 43.1861C77.9091 42.7324 73.5462 42.2888 69.4361 41.8709L69.3523 41.8626L69.3382 41.78C68.526 36.8956 67.7382 32.1628 66.9913 27.6719L67.1699 27.7256C64.048 31.0588 61.0463 34.2626 58.1887 37.3128L58.1235 37.3826L58.0531 37.318C54.6118 34.1423 51.3561 31.1381 48.3897 28.4008L48.5331 28.3343C48.718 32.484 48.8902 36.3426 49.0431 39.7653L49.047 39.8492L48.9638 39.8415C44.055 39.3909 39.7785 38.9986 36.3071 38.6805L36.3558 38.5986C38.5356 41.8575 40.2284 44.3887 41.3791 46.1096C41.9475 46.964 42.3814 47.6162 42.6764 48.0591C42.967 48.4975 43.1091 48.7215 43.1091 48.7215C43.1091 48.7215 42.9484 48.4962 42.6483 48.0578C42.3475 47.6162 41.9046 46.966 41.3241 46.1141C40.1657 44.406 38.462 41.8927 36.2681 38.6575L36.206 38.566L36.3167 38.5756C39.7887 38.8828 44.0665 39.2616 48.9766 39.6962L48.8972 39.7724C48.7372 36.3496 48.5561 32.4911 48.3622 28.342L48.3526 28.134L48.5055 28.2748C51.4764 31.0069 54.7372 34.0066 58.1836 37.1765L58.0479 37.1816" fill="#17213A"/>
<path d="M60.5139 44.4788L59.5603 53.3709C59.4822 54.098 58.8742 54.6529 58.1433 54.6644C57.3721 54.6765 56.7264 54.082 56.6752 53.3127L56.0768 44.3073C56.0314 43.6257 56.5939 43.058 57.2762 43.0977L59.4502 43.2231C60.0979 43.2602 60.583 43.833 60.5139 44.4788Z" fill="#383192"/>
<path d="M55.993 58.7903C56.3219 59.9474 57.5264 60.6188 58.6842 60.2898C59.8413 59.9608 60.5133 58.7564 60.1843 57.5986C59.8554 56.4415 58.6509 55.7701 57.4938 56.0984C56.336 56.428 55.664 57.6325 55.993 58.7903Z" fill="#383192"/>
<path d="M133.774 161.646C134.262 164.085 134.43 207.286 135.776 227.401C137.57 254.201 138.782 288.024 138.831 285.578H154.925C154.925 285.578 156.91 242.449 157.436 229.9C157.982 216.873 160.895 186.891 160.895 186.891C160.895 186.891 165.549 226.827 164.905 234.232C164.261 241.637 160.387 284.786 160.387 284.786L175.717 285.724C175.717 285.724 187.119 234.337 187.442 228.115C188.261 212.331 182.462 152.843 182.14 151.555C181.818 150.268 137.861 143.441 137.861 143.441L133.774 161.646Z" fill="#17213A"/>
<path d="M161.818 181.217C161.772 181.162 162.54 180.708 163.301 179.557C164.073 178.422 164.698 176.574 164.838 174.472C164.972 172.367 164.836 170.436 164.906 169.037C164.933 168.337 164.984 167.772 165.043 167.384C165.1 166.997 165.153 166.786 165.173 166.789C165.225 166.796 165.128 167.651 165.142 169.04C165.131 170.428 165.306 172.351 165.17 174.496C165.027 176.644 164.345 178.549 163.494 179.69C163.076 180.263 162.657 180.663 162.339 180.897C162.024 181.134 161.829 181.232 161.818 181.217Z" fill="#383192"/>
<path d="M145.602 171.033C145.639 171.051 145.439 171.587 145.009 172.403C144.581 173.22 143.905 174.309 143.022 175.409C142.137 176.508 141.219 177.403 140.513 177.996C139.807 178.591 139.327 178.902 139.302 178.869C139.234 178.788 141.024 177.378 142.762 175.2C144.515 173.036 145.508 170.984 145.602 171.033Z" fill="#383192"/>
<path d="M181.532 174.508C181.511 174.543 181.025 174.309 180.302 173.828C179.578 173.347 178.629 172.599 177.705 171.643C176.782 170.685 176.068 169.71 175.614 168.969C175.157 168.229 174.942 167.735 174.977 167.716C175.068 167.66 176.118 169.534 177.945 171.412C179.755 173.303 181.59 174.42 181.532 174.508Z" fill="#383192"/>
<path d="M175.527 271.397L174.032 285.971C174.032 285.971 188.567 291.675 188.682 294.381L160.387 293.846L161.941 271.588L175.527 271.397Z" fill="#17213A"/>
<path d="M160.387 293.845L160.509 291.554L187.592 292.924C187.592 292.924 188.841 293.496 188.682 294.381L160.387 293.845Z" fill="#383192"/>
<path d="M139.974 272.294L141.01 289.911L137.812 304.081C137.582 305.103 138.264 306.106 139.299 306.266C139.878 306.356 140.461 306.164 140.869 305.743C143.468 303.065 152.978 293.167 152.83 291.882C152.659 290.394 152.971 273.228 152.971 273.228L139.974 272.294Z" fill="#17213A"/>
<path d="M139.299 306.265L152.787 290.691L152.814 291.439C152.837 292.085 152.634 292.718 152.232 293.225C151.16 294.581 148.116 298.261 140.922 305.74C140.504 306.176 139.893 306.374 139.299 306.265Z" fill="#383192"/>
<path d="M175.718 285.725C175.715 285.771 174.869 285.76 173.505 285.705C172.14 285.65 170.257 285.551 168.178 285.422C166.099 285.293 164.216 285.156 162.854 285.041C161.491 284.926 160.648 284.832 160.648 284.786C160.648 284.74 161.491 284.751 162.856 284.806C164.22 284.861 166.106 284.959 168.188 285.089C170.27 285.218 172.154 285.355 173.517 285.47C174.879 285.584 175.72 285.679 175.718 285.725Z" fill="#383192"/>
<path d="M154.926 285.579C154.926 285.671 151.322 285.745 146.879 285.745C142.433 285.745 138.832 285.67 138.832 285.579C138.832 285.486 142.434 285.412 146.879 285.412C151.322 285.411 154.926 285.486 154.926 285.579Z" fill="#383192"/>
<path d="M193.876 183.684C193.876 183.684 194.696 183.877 195.857 187.877C197.018 191.877 197.985 198.416 197.985 198.416H194.695L192.298 186.616L193.876 183.684Z" fill="#17213A"/>
<path d="M186.693 175.662C186.341 175.972 185.701 176.222 185.79 178.675C185.88 181.129 186.32 183.258 186.15 184.12C185.981 184.982 185.135 188.451 185.828 189.483C186.52 190.515 187.222 190.314 187.745 189.574C188.266 188.835 189.069 185.035 189.432 184.372C189.796 183.709 191.279 183.94 191.383 184.319C191.487 184.698 191.063 189.244 191.063 189.244C191.063 189.244 195.375 184.845 195.24 183.35C195.105 181.855 192.542 177.14 192.345 176.044C192.149 174.948 192.149 171.442 191.983 171.463C191.818 171.484 186.967 172.104 186.967 172.104L186.693 175.662Z" fill="#FFBF9D"/>
<path d="M145.269 87.2389L147.025 83.0015L163.629 84.3531L165.901 87.2856L182.14 160.505C182.14 160.505 170.853 164.372 161.88 164.26C152.907 164.149 138.805 162.953 138.805 162.953L145.789 106.148L145.269 87.2389Z" fill="#F3F4F6"/>
<path d="M156.151 91.1314C156.374 91.3541 158.511 93.9634 158.511 93.9634H160.817L162.229 91.1909L159.238 88.4185H159.069L156.151 91.1314Z" fill="#383192"/>
<path d="M157.982 151.935L158.511 93.9634H160.816L168.952 150.717L165.225 157.217L157.982 151.935Z" fill="#383192"/>
<path d="M146.41 87.2391C146.424 87.2206 146.625 87.3447 146.976 87.5847C147.327 87.8247 147.828 88.1812 148.444 88.6266C149.675 89.5182 151.362 90.7681 153.212 92.1646C153.549 92.4199 153.88 92.6702 154.196 92.9095L153.985 92.9204C155.475 91.5431 156.8 90.3386 157.76 89.4862C158.72 88.6337 159.314 88.1332 159.343 88.1639C159.371 88.1946 158.829 88.7508 157.909 89.6462C156.989 90.5415 155.692 91.7761 154.21 93.1617L154.109 93.2558L153.998 93.1726C153.681 92.9338 153.349 92.6842 153.012 92.4302C151.162 91.0337 149.498 89.7537 148.303 88.8142C147.706 88.3444 147.226 87.9598 146.899 87.6878C146.57 87.4164 146.396 87.2577 146.41 87.2391Z" fill="#17213A"/>
<path d="M165.333 89.0394C165.4 89.0849 164.547 90.4475 163.352 92.2196L163.244 92.3803L163.104 92.2439C162.88 92.0263 162.651 91.803 162.415 91.5739C161.486 90.6651 160.659 89.8286 160.072 89.2116C159.484 88.5947 159.137 88.1966 159.17 88.1633C159.202 88.1307 159.608 88.4692 160.237 89.0427C160.866 89.6167 161.72 90.4263 162.648 91.3351C162.883 91.5655 163.111 91.7902 163.333 92.0097L163.084 92.034C164.304 90.2811 165.267 88.994 165.333 89.0394Z" fill="#17213A"/>
<path d="M128.589 73.7582C128.533 73.8209 127.737 72.939 127.466 71.5451C127.182 70.1537 127.58 69.0337 127.657 69.0702C127.756 69.0894 127.524 70.1761 127.793 71.4798C128.043 72.7873 128.674 73.7025 128.589 73.7582Z" fill="#17213A"/>
<path d="M127.05 74.9342C127.001 75.0033 126.089 74.1003 125.794 72.6072C125.482 71.1166 125.969 69.9301 126.042 69.9749C126.142 69.9966 125.826 71.1486 126.121 72.5413C126.392 73.9377 127.133 74.8753 127.05 74.9342Z" fill="#17213A"/>
<path d="M137.337 72.1433C137.238 72.1517 137.183 71.2499 136.561 70.3891C135.957 69.5142 135.126 69.1609 135.167 69.0707C135.181 69.0323 135.413 69.0643 135.746 69.2345C136.079 69.4016 136.5 69.7273 136.833 70.1971C137.164 70.6681 137.33 71.1737 137.376 71.543C137.425 71.9136 137.378 72.1433 137.337 72.1433Z" fill="#17213A"/>
<path d="M139.863 72.1134C139.765 72.1224 139.678 71.323 139.146 70.5326C138.631 69.7314 137.931 69.3358 137.978 69.2488C137.998 69.1637 138.848 69.4613 139.425 70.3496C140.012 71.2302 139.949 72.1282 139.863 72.1134Z" fill="#17213A"/>
<path d="M164.121 84.5215C164.121 84.5215 166.639 86.6367 168.952 87.8757C171.973 89.4943 175.74 91.404 177.051 91.6056C179.366 91.9615 184.53 95.3452 184.53 95.3452C184.53 95.3452 185.42 109.997 184.53 116.649C183.64 123.303 182.037 136.481 182.571 140.754C183.105 145.028 188.803 178.041 188.803 178.041L183.889 179.998C183.889 179.998 178.653 146.858 175.804 131.964C172.956 117.071 164.121 84.5215 164.121 84.5215Z" fill="#383192"/>
<path d="M186.218 175.526L194.204 174.317C194.204 174.317 188.804 130.426 187.914 126.153C187.024 121.879 187.166 96.9485 184.53 95.346C181.894 93.7434 179.01 131.901 179.188 131.965C179.366 132.029 186.218 175.526 186.218 175.526Z" fill="#383192"/>
<path d="M178.111 143.44C178.106 143.44 178.099 143.388 178.09 143.286C178.083 143.165 178.073 143.016 178.061 142.834C178.042 142.408 178.015 141.828 177.981 141.094C177.925 139.553 177.846 137.373 177.749 134.692C177.585 129.26 177.36 121.804 177.112 113.569C176.938 106.899 176.778 100.74 176.65 95.8003L176.75 95.9257C175.288 95.5328 173.945 95.1718 172.728 94.8448L172.606 94.8115L172.652 94.6944C172.898 94.0736 173.125 93.5014 173.339 92.9632L173.352 93.0598C172.202 91.543 171.286 90.336 170.64 89.4835C170.331 89.0918 170.087 88.782 169.904 88.5504C169.735 88.3392 169.636 88.2489 169.638 88.2406C169.667 88.208 170.065 88.6118 170.724 89.4163C171.387 90.2195 172.334 91.4124 173.512 92.9382L173.546 92.9817L173.525 93.0348C173.319 93.5756 173.1 94.151 172.862 94.775L172.786 94.6252C174.006 94.9401 175.352 95.2876 176.818 95.6652L176.915 95.6902L176.918 95.7913C177.064 100.731 177.247 106.889 177.446 113.558C177.656 121.795 177.847 129.252 177.985 134.684C178.038 137.366 178.081 139.547 178.111 141.089C178.118 141.823 178.124 142.404 178.128 142.831C178.126 143.013 178.126 143.162 178.124 143.284C178.122 143.387 178.117 143.44 178.111 143.44Z" fill="#17213A"/>
<path d="M183.648 99.9072C183.654 99.9072 183.656 99.9764 183.657 100.111C183.655 100.263 183.653 100.46 183.649 100.707C183.635 101.254 183.614 102.021 183.588 102.999C183.518 105.011 183.419 107.884 183.297 111.425C183.173 114.989 183.025 119.222 182.861 123.92C182.796 126.272 182.728 128.741 182.659 131.299C182.618 133.856 182.536 136.513 182.659 139.212C182.872 141.902 183.283 144.53 183.654 147.06C184.037 149.591 184.429 152.029 184.808 154.352C185.59 158.988 186.294 163.165 186.887 166.682C187.487 170.173 187.974 173.005 188.315 174.989C188.477 175.954 188.604 176.711 188.694 177.25C188.732 177.494 188.761 177.688 188.785 177.839C188.803 177.973 188.81 178.041 188.805 178.042C188.799 178.044 188.781 177.977 188.751 177.846C188.72 177.697 188.679 177.504 188.628 177.262C188.523 176.726 188.375 175.973 188.188 175.013C187.822 173.033 187.299 170.206 186.654 166.723C186.022 163.22 185.284 159.045 184.506 154.403C184.118 152.081 183.719 149.642 183.331 147.109C182.955 144.573 182.543 141.956 182.326 139.23C182.202 136.504 182.287 133.854 182.332 131.292C182.389 128.731 182.472 126.262 182.554 123.91C182.744 119.213 182.917 114.98 183.061 111.416C183.228 107.877 183.363 105.005 183.459 102.994C183.512 102.017 183.553 101.251 183.583 100.705C183.599 100.458 183.613 100.262 183.623 100.109C183.633 99.9757 183.642 99.9072 183.648 99.9072Z" fill="#17213A"/>
<path d="M131.24 121.107L133.571 131.328L119.584 170.059C119.584 170.059 131.06 183.328 135.543 179.204C140.026 175.08 150.247 143.162 151.143 134.376C152.04 125.589 145.939 87.2392 145.939 87.2392L146.386 84.2856L142.357 87.3954C142.357 87.3954 128.37 89.7263 126.757 90.0853C125.143 90.4444 131.24 121.107 131.24 121.107Z" fill="#383192"/>
<path d="M150.386 131.965C150.375 131.969 150.323 131.852 150.232 131.626C150.132 131.364 150.006 131.035 149.851 130.631C149.526 129.765 149.074 128.504 148.532 126.941C147.447 123.816 146.023 119.471 144.586 114.632C143.151 109.791 141.976 105.372 141.182 102.161C140.784 100.555 140.475 99.2526 140.275 98.3496C140.185 97.9265 140.111 97.5822 140.052 97.3076C140.005 97.0689 139.985 96.9416 139.996 96.939C140.007 96.9364 140.049 97.0581 140.117 97.2917C140.192 97.5617 140.286 97.9009 140.401 98.3182C140.651 99.2558 140.993 100.537 141.41 102.102C142.263 105.296 143.472 109.701 144.906 114.538C146.341 119.373 147.729 123.724 148.755 126.866C149.259 128.405 149.672 129.665 149.973 130.588C150.104 131 150.21 131.336 150.295 131.603C150.365 131.837 150.396 131.961 150.386 131.965Z" fill="#17213A"/>
<path d="M135.612 117.924C135.656 117.926 135.663 118.73 135.6 120.028C135.537 121.325 135.393 123.116 135.139 125.082C134.883 127.049 134.567 128.817 134.298 130.088C134.03 131.359 133.818 132.134 133.775 132.125C133.727 132.115 133.858 131.324 134.067 130.045C134.276 128.766 134.554 126.999 134.808 125.039C135.061 123.08 135.242 121.3 135.365 120.011C135.488 118.721 135.564 117.922 135.612 117.924Z" fill="#17213A"/>
<path d="M128.508 148.677L138.806 153.506L135.408 158.628L124.747 152.316L128.508 148.677Z" fill="#383192"/>
<path d="M128.508 148.677C128.51 148.688 128.422 148.786 128.254 148.962C128.06 149.161 127.817 149.41 127.52 149.715C126.852 150.382 125.941 151.292 124.83 152.401L124.808 152.214C127.575 153.837 131.317 156.033 135.449 158.458L135.493 158.485L135.269 158.536C136.472 156.729 137.622 155 138.675 153.419L138.739 153.646C135.78 152.228 133.243 151.012 131.396 150.127C130.52 149.696 129.809 149.347 129.275 149.084C128.78 148.837 128.511 148.695 128.508 148.677C128.505 148.659 128.769 148.767 129.263 148.983C129.8 149.223 130.515 149.542 131.396 149.935C133.276 150.798 135.86 151.983 138.871 153.364L139.036 153.439L138.935 153.592C137.888 155.177 136.744 156.91 135.548 158.72L135.46 158.853L135.324 158.772L135.279 158.745C131.166 156.289 127.442 154.063 124.688 152.419L124.552 152.338L124.665 152.232C125.828 151.142 126.78 150.248 127.479 149.592C127.787 149.311 128.039 149.081 128.241 148.897C128.414 148.741 128.506 148.666 128.508 148.677Z" fill="#17213A"/>
<path d="M145.854 70.6791C144.801 67.7971 143.759 64.8928 143.217 61.872C142.675 58.8519 142.653 55.6839 143.617 52.7706C143.764 52.329 145.039 49.3555 145.503 49.385C145.836 49.4055 145.083 52.1632 145.261 52.4448C146.956 55.1271 147.508 58.4071 147.368 61.577C147.226 64.7463 146.671 67.6135 145.854 70.6791Z" fill="#17213A"/>
<path d="M163.704 84.7913C163.704 84.7913 163.576 83.176 163.592 83.1753C163.592 83.1753 170.997 82.1558 171.217 74.7741C171.324 71.1869 170.94 63.7584 170.517 57.0697C170.068 49.983 164.254 44.4297 157.155 44.3062L156.319 44.2915C148.63 44.6064 145.192 51.4953 145.72 59.1728L147.388 82.8201L159.343 88.1641H159.17L163.704 84.7913Z" fill="#FFBF9D"/>
<path d="M163.593 83.1753C163.593 83.1753 158.935 83.3673 154.03 80.166C154.03 80.166 156.339 85.5881 163.718 85.0518L163.593 83.1753Z" fill="#FF9A6C"/>
<path d="M161.738 70.0785C161.733 70.0139 162.441 69.9045 163.586 69.7784C163.876 69.7534 164.152 69.7009 164.204 69.5038C164.275 69.2958 164.159 68.9816 164.025 68.6417C163.765 67.9358 163.493 67.196 163.206 66.4209C162.072 63.2593 161.255 60.6616 161.382 60.6168C161.51 60.5726 162.534 63.0987 163.669 66.2603C163.942 67.0398 164.203 67.7829 164.451 68.4939C164.555 68.8248 164.737 69.2017 164.582 69.6337C164.5 69.8488 164.284 70.0024 164.098 70.0491C163.911 70.1022 163.748 70.1029 163.605 70.1086C162.454 70.1502 161.741 70.1432 161.738 70.0785Z" fill="#17213A"/>
<path d="M157.21 64.9758C157.205 65.5332 156.728 65.9876 156.146 65.9928C155.566 65.9979 155.098 65.5518 155.103 64.9937C155.108 64.4369 155.585 63.9812 156.165 63.9761C156.748 63.971 157.215 64.419 157.21 64.9758Z" fill="#17213A"/>
<path d="M158.332 61.365C158.195 61.4962 157.422 60.8702 156.289 60.8222C155.158 60.7582 154.3 61.3042 154.182 61.1595C154.125 61.0955 154.268 60.8536 154.643 60.6059C155.011 60.3589 155.631 60.131 156.337 60.1656C157.043 60.2014 157.626 60.4882 157.955 60.7691C158.291 61.052 158.398 61.3061 158.332 61.365Z" fill="#17213A"/>
<path d="M158.367 59.4313C158.19 59.7072 157.118 59.311 155.784 59.1689C154.454 59 153.32 59.1395 153.21 58.8304C153.163 58.6838 153.41 58.4425 153.9 58.2486C154.386 58.0541 155.119 57.9318 155.918 58.024C156.716 58.1181 157.401 58.4054 157.829 58.7062C158.262 59.0077 158.447 59.2995 158.367 59.4313Z" fill="#17213A"/>
<path d="M167.217 64.6429C167.227 65.2003 166.764 65.6681 166.182 65.6893C165.602 65.7104 165.122 65.2765 165.112 64.7197C165.102 64.1629 165.565 63.6937 166.146 63.6726C166.727 63.6515 167.207 64.0861 167.217 64.6429Z" fill="#17213A"/>
<path d="M168.654 61.1396C168.521 61.2747 167.732 60.6699 166.597 60.6532C165.464 60.62 164.621 61.1896 164.501 61.0481C164.441 60.9854 164.579 60.7396 164.946 60.4817C165.308 60.2251 165.921 59.98 166.627 59.9953C167.334 60.012 167.924 60.282 168.261 60.554C168.606 60.8286 168.72 61.0788 168.654 61.1396Z" fill="#17213A"/>
<path d="M169.086 56.5929C168.955 56.9142 168.01 56.9699 166.977 57.3283C165.934 57.6553 165.137 58.175 164.845 57.9932C164.713 57.9017 164.762 57.6099 165.06 57.2431C165.352 56.8796 165.912 56.4668 166.625 56.2307C167.339 55.9958 168.03 55.9951 168.478 56.1148C168.931 56.2332 169.139 56.4399 169.086 56.5929Z" fill="#17213A"/>
<path d="M146.225 64.5964C146.1 64.5394 141.178 63.0073 141.251 68.0582C141.325 73.1084 146.802 72.197 146.809 72.0524C146.815 71.9071 146.225 64.5964 146.225 64.5964Z" fill="#FFBF9D"/>
<path d="M144.732 69.9773C144.709 69.9613 144.645 70.04 144.497 70.1104C144.353 70.1789 144.105 70.2282 143.84 70.1335C143.303 69.9453 142.842 69.1043 142.804 68.1949C142.785 67.7354 142.874 67.2963 143.032 66.9315C143.181 66.5597 143.416 66.2986 143.684 66.2467C143.95 66.1808 144.143 66.3389 144.207 66.4803C144.277 66.6205 144.246 66.7216 144.273 66.7299C144.287 66.7427 144.38 66.6435 144.336 66.4355C144.314 66.3357 144.253 66.2173 144.133 66.1219C144.01 66.0253 143.831 65.9773 143.644 66.0003C143.255 66.033 142.91 66.3965 142.736 66.7965C142.542 67.1991 142.43 67.6925 142.452 68.2083C142.499 69.2259 143.034 70.1706 143.767 70.3709C144.124 70.4586 144.419 70.3472 144.57 70.2256C144.724 70.0989 144.749 69.9856 144.732 69.9773Z" fill="#FF9A6C"/>
<path d="M167.062 48.9012C167.868 48.4314 165.354 45.842 163.325 44.9773C160.257 43.6711 155.603 42.9313 152.822 43.7901C149.475 44.8244 146.715 46.5658 145.095 49.6724C143.475 52.7783 142.922 56.3668 143.102 59.865C143.157 60.9325 143.293 62.0436 143.885 62.9338C144.617 64.0333 145.987 64.7053 145.963 66.2471C145.954 66.8103 146.128 67.3748 146.524 67.7761C147.47 68.7373 148.579 67.7876 149.077 66.8493C150.141 64.8455 150.209 62.4813 150.254 60.2132C150.286 58.601 150.313 56.9543 149.823 55.4183C149.556 54.5825 149.14 53.7965 148.921 52.9466C148.701 52.0973 148.704 51.1271 149.22 50.4173C149.304 50.3015 149.443 50.1556 149.62 49.993C151.021 48.7066 153.014 48.2842 154.822 48.8769C157.689 49.8164 162.58 51.2058 163.826 50.2113C165.618 48.7802 166.033 47.865 166.033 47.865L167.062 48.9012Z" fill="#17213A"/>
<path d="M161.37 73.4324C161.37 73.9719 160.933 74.4096 160.393 74.4096C159.854 74.4096 159.416 73.9719 159.416 73.4324C159.416 72.8928 159.854 72.4551 160.393 72.4551C160.933 72.4551 161.37 72.8922 161.37 73.4324Z" fill="#FF9A6C"/>
<path d="M160.888 74.3183C160.908 74.3369 160.723 74.5948 160.227 74.6524C159.985 74.6697 159.665 74.5878 159.435 74.3234C159.218 74.0642 159.114 73.7001 159.148 73.3289C159.183 72.9596 159.353 72.6166 159.617 72.406C159.886 72.191 160.209 72.1583 160.442 72.2006C160.929 72.2946 161.093 72.5871 161.061 72.6038C161.028 72.6454 160.816 72.4514 160.418 72.4354C160.224 72.429 159.992 72.4809 159.815 72.6415C159.635 72.8015 159.507 73.069 159.481 73.3602C159.452 73.6508 159.531 73.9375 159.674 74.1295C159.816 74.3158 160.039 74.4041 160.227 74.4162C160.617 74.4322 160.863 74.2652 160.888 74.3183Z" fill="#17213A"/>
<path d="M124.247 90.2644C124.247 90.2644 121.198 94.3886 122.274 101.74C122.274 101.74 112.591 113.037 114.922 118.954C117.253 124.872 123.35 126.665 128.371 123.438C133.392 120.21 137.874 100.306 137.874 100.306L131.285 89.2686L124.247 90.2644Z" fill="#383192"/>
<path d="M127.726 95.6006L128.791 94.0441C128.791 94.0441 126.25 89.7836 127.07 86.7526C127.889 83.7209 128.791 83.9666 128.791 83.9666C128.791 83.9666 129.692 82.0825 130.839 81.4265C131.985 80.7711 132.313 81.4265 132.313 81.4265C132.313 81.4265 132.723 79.6242 133.624 79.0508C134.525 78.4774 134.525 78.4774 134.525 78.4774C134.525 78.4774 130.363 72.5234 130.773 71.294C131.182 70.0652 132.575 70.311 133.722 71.7036C134.869 73.0962 139.851 81.4265 140.752 83.2294C141.653 85.0316 141.653 85.0316 141.653 85.0316C141.653 85.0316 144.275 86.5062 143.537 89.6198C142.8 92.7334 141.653 93.3068 140.342 94.9452C140.342 94.9452 139.031 95.4367 138.703 97.0758C138.376 98.7142 137.673 99.9711 137.673 99.9711C137.673 99.9711 134.033 103.384 131.575 102.811C129.118 102.237 127.626 99.1475 127.726 95.6006Z" fill="#FFBF9D"/>
<path d="M128.008 88.2416C128.188 88.1699 129.627 88.9347 129.627 88.9347C129.627 88.9347 132.395 91.2643 133.631 90.8688C134.755 90.5091 134.755 89.6144 134.755 89.6144L129.537 84.1206" fill="#FFBF9D"/>
<path d="M129.537 84.1208C129.57 84.0901 130.179 84.6718 131.143 85.6427C132.106 86.6136 133.425 87.9742 134.876 89.5L134.925 89.5506L134.922 89.6145C134.918 89.7329 134.897 89.8283 134.865 89.9326C134.766 90.268 134.538 90.5483 134.27 90.7378C133.994 90.924 133.712 91.0469 133.367 91.0731C132.721 91.0584 132.202 90.7979 131.738 90.5553C130.815 90.044 130.102 89.4776 129.56 89.0142L129.578 89.0264C129.092 88.755 128.7 88.5502 128.431 88.4178C128.158 88.2789 128.015 88.2475 128.008 88.2411C128.023 88.1374 128.677 88.341 129.676 88.8414L129.683 88.8446L129.695 88.8536C130.248 89.2779 130.978 89.8161 131.878 90.2904C132.325 90.5176 132.84 90.7448 133.354 90.7486C133.835 90.7025 134.399 90.3531 134.546 89.8347C134.57 89.7598 134.586 89.6696 134.588 89.6145L134.634 89.7291C133.185 88.2008 131.895 86.8145 130.974 85.8021C130.055 84.7902 129.505 84.1521 129.537 84.1208Z" fill="#FF9A6C"/>
<path d="M134.755 89.6145C134.755 89.6145 136.689 90.6545 137.319 89.6145C137.949 88.5745 135.705 86.01 135.41 85.3354C135.115 84.6609 132.596 81.6465 132.596 81.6465" fill="#FFBF9D"/>
<path d="M132.596 81.6472C132.63 81.6184 133.106 82.1176 133.826 82.9669C134.184 83.3931 134.608 83.9025 135.051 84.4965C135.162 84.6449 135.272 84.7992 135.381 84.9656C135.436 85.0475 135.489 85.1345 135.539 85.2344C135.59 85.3265 135.619 85.3918 135.676 85.4782C135.882 85.8053 136.129 86.1432 136.366 86.4965C136.838 87.2043 137.285 87.9006 137.499 88.6481C137.603 89.0085 137.626 89.4571 137.374 89.7707C137.143 90.0779 136.773 90.1861 136.483 90.1905C135.887 90.1912 135.458 89.9985 135.171 89.8737C134.886 89.7387 134.744 89.635 134.755 89.6152C134.766 89.5941 134.926 89.6574 135.219 89.7528C135.509 89.8392 135.946 89.9864 136.468 89.955C136.725 89.9352 136.993 89.8347 137.152 89.6049C137.316 89.388 137.304 89.0622 137.202 88.7307C136.996 88.0632 136.556 87.3797 136.088 86.6833C135.853 86.332 135.613 85.9998 135.396 85.6478C135.342 85.5672 135.289 85.452 135.246 85.3713C135.209 85.2952 135.163 85.2158 135.112 85.1365C135.013 84.979 134.907 84.8248 134.801 84.6769C134.38 84.0824 133.975 83.5582 133.642 83.1147C132.971 82.2296 132.56 81.6766 132.596 81.6472Z" fill="#FF9A6C"/>
<path d="M134.755 78.5942C134.755 78.5942 136.271 80.3549 137.431 82.0701C138.59 83.7853 139.902 86.8701 139.607 87.8557C139.312 88.8413 137.746 89.119 137.359 88.7094" fill="#FFBF9D"/>
<path d="M137.36 88.7095C137.378 88.6903 137.516 88.8227 137.847 88.8234C138.164 88.8221 138.666 88.7319 139.107 88.3747C139.315 88.193 139.498 87.928 139.506 87.6144C139.516 87.2887 139.443 86.9181 139.338 86.5424C139.127 85.7859 138.799 84.9738 138.406 84.1475C137.637 82.4816 136.613 81.1626 135.9 80.1859C135.179 79.217 134.72 78.6256 134.755 78.5949C134.789 78.5655 135.313 79.1043 136.086 80.0407C136.844 80.977 137.921 82.3031 138.707 84.0042C139.107 84.8451 139.432 85.6746 139.635 86.465C139.735 86.8599 139.806 87.2471 139.782 87.6343C139.754 88.0432 139.507 88.3619 139.256 88.5584C138.725 88.9424 138.184 88.9904 137.838 88.9533C137.474 88.9104 137.337 88.7159 137.36 88.7095Z" fill="#FF9A6C"/>
<path d="M141.073 85.0049C140.937 85.0503 139.041 84.8244 139.132 86.8558C139.222 88.8871 139.996 89.474 139.996 89.474" fill="#FFBF9D"/>
<path d="M139.996 89.4734C139.969 89.5162 139.659 89.3083 139.41 88.8046C139.156 88.3067 138.974 87.5559 138.966 86.7118C138.962 86.2836 139.071 85.8452 139.322 85.5329C139.569 85.218 139.908 85.0625 140.181 85.0017C140.741 84.8852 141.071 84.9818 141.072 85.0036C141.08 85.0714 140.728 85.067 140.248 85.2276C140.01 85.3095 139.748 85.4625 139.567 85.7179C139.382 85.9713 139.296 86.3278 139.299 86.713C139.306 87.5034 139.443 88.2273 139.625 88.7092C139.804 89.2007 140.024 89.4407 139.996 89.4734Z" fill="#FF9A6C"/>
<path d="M135.718 90.0981C135.342 91.4697 135.558 92.9929 136.301 94.2057L135.718 90.0981Z" fill="#FFBF9D"/>
<path d="M136.301 94.2048C136.238 94.2624 135.592 93.4566 135.425 92.2342C135.246 91.0125 135.642 90.0595 135.717 90.0973C135.814 90.1222 135.585 91.0515 135.754 92.1875C135.908 93.3254 136.387 94.1542 136.301 94.2048Z" fill="#FF9A6C"/>
<path d="M138.41 98.2041C138.41 98.2041 138.454 98.4268 138.595 98.8371C138.732 99.2454 138.941 99.8412 139.218 100.589L139.226 100.613L139.221 100.641C138.695 103.137 137.577 107.291 135.627 111.738C134.065 115.343 132.224 118.419 130.644 120.454C130.253 120.966 129.893 121.423 129.546 121.8C129.208 122.184 128.922 122.519 128.657 122.764C128.143 123.269 127.852 123.539 127.836 123.523C127.82 123.506 128.08 123.204 128.562 122.675C128.811 122.418 129.082 122.073 129.404 121.68C129.735 121.295 130.08 120.83 130.455 120.313C131.974 118.257 133.768 115.189 135.322 111.604C137.26 107.184 138.428 103.067 139.036 100.6L139.04 100.652C138.532 99.1372 138.317 98.2156 138.41 98.2041Z" fill="#17213A"/>
<path d="M127.484 94.039C127.521 94.0697 127.018 94.7411 126.232 95.847C125.442 96.9504 124.366 98.4851 123.188 100.188C122.014 101.894 120.96 103.444 120.208 104.574C119.452 105.701 119.003 106.41 118.961 106.386C118.923 106.364 119.302 105.61 120.009 104.448C120.711 103.283 121.737 101.708 122.914 99.9993C124.094 98.2937 125.203 96.7769 126.042 95.7068C126.88 94.6329 127.45 94.0108 127.484 94.039Z" fill="#17213A"/>
<path d="M188.853 184.829L186.755 198.61H190.265L191.812 185.225C191.903 184.441 191.367 183.722 190.59 183.583C189.764 183.437 188.979 183.999 188.853 184.829Z" fill="#17213A"/>
<path d="M203.744 223.78H180.851C179.787 223.78 178.925 222.917 178.925 221.853V197.11C178.925 196.045 179.788 195.183 180.851 195.183H203.744C204.809 195.183 205.671 196.046 205.671 197.11V221.853C205.671 222.917 204.809 223.78 203.744 223.78Z" fill="#383192"/>
<path d="M184.364 222.704C184.279 222.704 184.211 216.954 184.211 209.862C184.211 202.769 184.28 197.02 184.364 197.02C184.449 197.02 184.518 202.768 184.518 209.862C184.518 216.954 184.449 222.704 184.364 222.704Z" fill="#17213A"/>
<path d="M204.72 201.494C204.736 201.51 204.558 201.949 204.202 202.712C203.842 203.471 203.31 204.566 202.541 205.796C201.772 207.015 200.748 208.394 199.366 209.394C198.68 209.893 197.904 210.288 197.066 210.461C196.229 210.642 195.337 210.562 194.471 210.256C192.73 209.625 191.273 208.351 189.989 207.202C188.706 206.027 187.616 204.832 186.737 203.77C185.859 202.709 185.192 201.779 184.745 201.12C184.522 200.79 184.353 200.528 184.243 200.344C184.131 200.162 184.077 200.061 184.085 200.051C184.102 200.027 184.358 200.379 184.829 200.998C185.3 201.618 185.985 202.508 186.876 203.532C187.766 204.556 188.861 205.716 190.142 206.862C191.424 207.986 192.869 209.227 194.544 209.831C196.219 210.466 197.913 210.002 199.239 209.033C200.583 208.087 201.601 206.765 202.38 205.588C203.159 204.4 203.715 203.341 204.103 202.614C204.489 201.883 204.702 201.476 204.72 201.494Z" fill="#17213A"/>
</svg>
