<svg width="20" height="20" viewBox="0 0 20 20" fill="none" xmlns="http://www.w3.org/2000/svg">
<path d="M9.21466 13L11 12.2994L6.39267 0H4.60733L0 12.2994L1.78534 13L3.10995 9.45808H7.89005L9.21466 13ZM3.85864 7.51198L5.5096 3.09431L7.16056 7.51198H3.85864Z" fill="#F3F4F6"/>
<path fill-rule="evenodd" clip-rule="evenodd" d="M15.1731 14.049C16.3587 12.8456 17.0725 11.3097 17.2176 9.66393H10.3581V8.33197H14.4904V7H15.8678V8.33197H20V9.66393H18.595C18.4355 11.6699 17.5827 13.5393 16.1482 14.9966L18.4022 17.1762L17.4518 18.1219L15.1809 15.9357L10.978 20L10 19.0543L14.2033 14.9897C13.3323 14.101 12.6596 13.0294 12.2314 11.875L13.5262 11.4355C13.8733 12.4051 14.4484 13.3052 15.1731 14.049Z" fill="#F3F4F6"/>
</svg>
