<svg width="16" height="16" viewBox="0 0 16 16" fill="none" xmlns="http://www.w3.org/2000/svg">
<path fill-rule="evenodd" clip-rule="evenodd" d="M3.30126 0H12.7063C13.486 0.0397181 14.1634 0.296971 14.7387 0.771744C15.518 1.41492 15.9385 2.2566 16 3.29678V12.7063C15.9502 13.6053 15.62 14.3636 15.0092 14.9813C14.3849 15.6127 13.6139 15.9523 12.6962 16H3.29371C2.46443 15.9558 1.75188 15.6684 1.15609 15.1376C0.445217 14.5047 0.059864 13.6978 0 12.7169V3.28503C0.057624 2.32149 0.430589 1.52467 1.11888 0.894545C1.72289 0.341442 2.45035 0.0432692 3.30126 0ZM14.6738 3.42713C14.6738 2.86985 14.4525 2.33538 14.0584 1.94132C13.6643 1.54726 13.1299 1.32587 12.5726 1.32587H3.42741C2.87012 1.32587 2.33566 1.54726 1.9416 1.94132C1.54753 2.33538 1.32616 2.86985 1.32616 3.42713L1.32587 12.572C1.32587 12.848 1.38023 13.1212 1.48582 13.3761C1.59141 13.6311 1.7462 13.8627 1.94132 14.0578C2.13643 14.253 2.36808 14.4077 2.62302 14.5133C2.87795 14.6189 3.1512 14.6733 3.42713 14.6733L12.5726 14.6736C13.1299 14.6736 13.6643 14.4522 14.0584 14.0581C14.4525 13.6641 14.6738 13.1296 14.6738 12.5723V3.42713ZM4.84671 12.6585C4.12309 12.5992 3.52812 12.0526 3.37231 11.3555C3.34602 11.238 3.33296 11.0815 3.33315 10.8859C3.33427 8.83534 3.33464 6.86014 3.33427 4.96028C3.33427 4.76373 3.37754 4.56317 3.46407 4.3586C3.92784 3.26545 5.32168 2.98825 6.17455 3.81845C6.50462 4.13976 6.6691 4.56373 6.66798 5.09035C6.66425 6.97342 6.66434 8.89306 6.66826 10.8492C6.66862 11.057 6.6552 11.2248 6.62798 11.3527C6.45091 12.1818 5.68477 12.7275 4.84671 12.6585ZM9.33062 8.29371C9.32894 9.01343 9.75329 9.65315 10.4336 9.89874C11.1138 10.1443 11.852 9.92895 12.3004 9.37175C12.5737 9.03189 12.6702 8.65902 12.6683 8.22154C12.6643 7.42676 12.6642 6.38359 12.668 5.09203C12.6696 4.56653 12.5063 4.14312 12.1779 3.82181C11.2394 2.90322 9.68056 3.34546 9.37455 4.63553C9.34658 4.7532 9.33269 4.93399 9.33286 5.1779C9.33362 6.12522 9.33286 7.16383 9.33062 8.29371Z" fill="#383192"/>
</svg>
