<svg width="18" height="18" viewBox="0 0 18 18" fill="none" xmlns="http://www.w3.org/2000/svg">
<path fill-rule="evenodd" clip-rule="evenodd" d="M9.56798 13.9015H2.82606C1.26526 13.9015 0 12.6369 0 11.0769V2.82462C0 1.26462 1.26526 0 2.82606 0H15.1739C16.7255 0 18 1.26462 18 2.82462V11.0769C18 12.6369 16.7347 13.9015 15.1739 13.9015H14.629V17.3077C14.629 17.5846 14.4628 17.8338 14.2042 17.9446C14.1119 17.9815 14.0287 18 13.9364 18C13.7609 18 13.5762 17.9262 13.4469 17.7969L9.56798 13.9015ZM2.82606 1.38462C2.03181 1.38462 1.38533 2.03077 1.38533 2.82462V11.0769C1.38533 11.8708 2.03181 12.5169 2.82606 12.5169H9.85428C10.039 12.5169 10.2145 12.5908 10.3438 12.72L13.2437 15.6277V13.2092C13.2437 12.8308 13.5577 12.5169 13.9364 12.5169H15.1739C15.9682 12.5169 16.6147 11.8708 16.6147 11.0769V2.82462C16.6147 2.03077 15.9682 1.38462 15.1739 1.38462H2.82606ZM10.187 6.96016C10.187 7.61554 9.66056 8.1417 9.00484 8.1417C8.34912 8.1417 7.82269 7.60631 7.82269 6.96016C7.82269 6.30477 8.34912 5.77862 9.00484 5.77862C9.66056 5.77862 10.187 6.30477 10.187 6.96016ZM14.5184 6.96016C14.5184 7.61554 13.992 8.1417 13.3363 8.1417C12.6806 8.1417 12.1541 7.60631 12.1541 6.96016C12.1541 6.30477 12.6806 5.77862 13.3363 5.77862C13.992 5.77862 14.5184 6.30477 14.5184 6.96016ZM5.85553 6.96016C5.85553 7.61554 5.32911 8.1417 4.67339 8.1417C4.01766 8.1417 3.48201 7.60631 3.49124 6.96016C3.49124 6.30477 4.01766 5.77862 4.67339 5.77862C5.32911 5.77862 5.85553 6.30477 5.85553 6.96016Z" fill="#17213A"/>
</svg>
