<svg width="48" height="48" viewBox="0 0 48 48" fill="none" xmlns="http://www.w3.org/2000/svg">
<path fill-rule="evenodd" clip-rule="evenodd" d="M42.8529 8.7792L42.9067 8.80611L46.6453 10.6689C47.1893 10.9403 47.5157 11.1366 47.6244 11.258C48.1214 11.8121 48.1445 12.7052 47.5774 13.2203C47.44 13.345 47.245 13.4704 46.9923 13.5964L26.7645 23.6691C26.2185 23.9411 25.7804 24.1265 25.4504 24.2252C24.0752 24.6363 22.7581 24.4252 21.4749 23.7851C14.7339 20.4232 7.84581 16.9923 0.810085 13.4924C-0.2861 12.9463 -0.255094 11.474 0.814113 10.9419C7.65245 7.54134 14.494 4.1338 21.3389 0.719231C21.8836 0.44719 22.3554 0.260789 22.754 0.160142C23.9841 -0.151931 25.203 -0.00788803 26.4105 0.59221C31.7606 3.25224 37.1119 5.91867 42.4528 8.57985L42.8529 8.7792ZM11.7285 30.6797C14.5034 32.0588 17.2735 33.4354 20.0498 34.8097C20.2925 31.927 21.4086 29.293 23.1326 27.1731C22.5927 27.1108 22.0517 26.9914 21.5094 26.815C21.1028 26.6833 20.4938 26.4156 19.6824 26.0119C17.1231 24.7398 14.5413 23.4567 11.9371 22.1627L6.9851 19.7026C6.96862 19.6945 6.95055 19.6903 6.93212 19.6903L6.92247 19.6907C6.91771 19.6911 6.91295 19.6918 6.90831 19.6927C6.90319 19.6937 6.89806 19.6952 6.89305 19.6969L6.88634 19.6994L6.87914 19.7026C6.30358 19.9902 5.71826 20.2821 5.12292 20.5783L4.26563 21.0045C3.16627 21.5506 2.03444 22.1108 0.869899 22.6852C0.00979681 23.1092 -0.286222 24.0848 0.318877 24.8768C0.436186 25.031 0.716824 25.2183 1.16091 25.4384C4.66089 27.1675 8.13169 28.8923 11.5944 30.6132L11.6552 30.6434L11.7285 30.6797ZM26.0863 47.5504C22.9342 45.3866 20.7123 41.966 20.1433 38.0112L20.0753 37.9774C15.6868 35.7801 11.3205 33.5982 6.97667 31.4316C6.9453 31.4163 6.9143 31.4163 6.88366 31.4316L3.29408 33.2255L0.811794 34.4657C-0.265348 35.0045 -0.273405 36.4864 0.804714 37.0222C7.44237 40.3265 14.1213 43.6642 20.8415 47.0355C21.5375 47.3846 22.058 47.6181 22.4026 47.7358C23.3641 48.0656 24.3656 48.0866 25.407 47.799C25.5908 47.7482 25.8174 47.6653 26.0863 47.5504ZM47.9997 36C47.9997 42.6289 42.6272 48 35.9998 48C29.3724 48 23.9999 42.6289 23.9999 36C23.9999 29.3711 29.3724 24 35.9998 24C42.6272 24 47.9997 29.3711 47.9997 36ZM28.0599 36C28.0599 40.3867 31.6146 43.9414 35.9998 43.9414C40.385 43.9414 43.9397 40.3867 43.9397 36C43.9397 31.6133 40.385 28.0586 35.9998 28.0586C31.6146 28.0586 28.0599 31.6133 28.0599 36Z" fill="url(#paint0_linear_936_34295)"/>
<path fill-rule="evenodd" clip-rule="evenodd" d="M39.4445 32.3929C39.7654 32.1011 40.175 31.9717 40.5738 32C40.9727 32.0283 41.3605 32.2142 41.6405 32.5486C42.2009 33.2174 42.1329 34.2534 41.4911 34.837L35.3757 40.3988C34.7931 40.9287 33.9117 40.9287 33.3291 40.3988L30.5494 37.8714C29.9076 37.2877 29.8398 36.2499 30.4 35.5811C30.9601 34.9123 31.9542 34.8434 32.596 35.4272L34.3524 37.0241L39.4445 32.3929Z" fill="url(#paint1_linear_936_34295)"/>
<defs>
<linearGradient id="paint0_linear_936_34295" x1="0" y1="0" x2="50.7001" y2="47.2184" gradientUnits="userSpaceOnUse">
<stop stop-color="#3AC5EC"/>
<stop offset="1" stop-color="#C547E9"/>
</linearGradient>
<linearGradient id="paint1_linear_936_34295" x1="0" y1="0" x2="50.7001" y2="47.2184" gradientUnits="userSpaceOnUse">
<stop stop-color="#3AC5EC"/>
<stop offset="1" stop-color="#C547E9"/>
</linearGradient>
</defs>
</svg>
