<svg width="16" height="16" viewBox="0 0 16 16" fill="none" xmlns="http://www.w3.org/2000/svg">
<path fill-rule="evenodd" clip-rule="evenodd" d="M3.2 0.8C3.2 0.357812 3.55781 0 4 0C4.44219 0 4.8 0.357812 4.8 0.8V3.2C4.8 3.64219 4.44219 4 4 4C3.79453 4 3.60703 3.92344 3.46563 3.79688C3.30234 3.65 3.2 3.4375 3.2 3.2V0.8ZM11.2 0.8C11.2 0.357812 11.5578 0 12 0C12.4422 0 12.8 0.357812 12.8 0.8V3.2C12.8 3.64219 12.4422 4 12 4C11.5578 4 11.2 3.64219 11.2 3.2V0.8ZM2.4 3.2V1.6H1.6C0.716406 1.6 0 2.31562 0 3.2V14.4C0 15.2844 0.716406 16 1.6 16H14.4C14.9242 16 15.3891 15.7484 15.6813 15.3578C15.8813 15.0906 16 14.7594 16 14.4V3.2C16 2.31562 15.2836 1.6 14.4 1.6H13.6V3.2C13.6 4.08437 12.8836 4.8 12 4.8C11.1164 4.8 10.4 4.08437 10.4 3.2V1.6H5.6V3.2C5.6 4.08437 4.88359 4.8 4 4.8C3.11641 4.8 2.4 4.08437 2.4 3.2ZM14.8 6H1.2V14.8H14.8V6Z" fill="#17213A"/>
</svg>
