<svg width="16" height="16" viewBox="0 0 16 16" fill="none" xmlns="http://www.w3.org/2000/svg">
<path fill-rule="evenodd" clip-rule="evenodd" d="M5.09091 4.36364C5.09091 2.75699 6.39335 1.45455 8 1.45455C9.60665 1.45455 10.9091 2.75699 10.9091 4.36364C10.9091 5.97028 9.60665 7.27273 8 7.27273C6.39335 7.27273 5.09091 5.97028 5.09091 4.36364ZM8 0C5.59003 0 3.63636 1.95367 3.63636 4.36364C3.63636 6.77361 5.59003 8.72727 8 8.72727C10.41 8.72727 12.3636 6.77361 12.3636 4.36364C12.3636 1.95367 10.41 0 8 0ZM4.36364 9.54545C3.22678 9.54545 2.12457 9.95684 1.30219 10.7071C0.477576 11.4594 0 12.4947 0 13.5901V15.2727C0 15.6744 0.325611 16 0.727273 16C1.12893 16 1.45455 15.6744 1.45455 15.2727V13.5901C1.45455 12.9258 1.7432 12.2736 2.28249 11.7817C2.82401 11.2876 3.57165 11 4.36364 11H11.6364C12.4284 11 13.176 11.2876 13.7175 11.7817C14.2568 12.2736 14.5455 12.9258 14.5455 13.5901V15.2727C14.5455 15.6744 14.8711 16 15.2727 16C15.6744 16 16 15.6744 16 15.2727V13.5901C16 12.4947 15.5224 11.4594 14.6978 10.7071C13.8754 9.95684 12.7732 9.54545 11.6364 9.54545H4.36364Z" fill="#17213A"/>
</svg>
