<svg width="48" height="48" viewBox="0 0 48 48" fill="none" xmlns="http://www.w3.org/2000/svg">
<path fill-rule="evenodd" clip-rule="evenodd" d="M42.9067 8.80611L42.8529 8.7792L42.4527 8.57985L42.2625 8.48508C36.9848 5.85536 31.697 3.22067 26.4105 0.59221C25.203 -0.00788803 23.9841 -0.151931 22.754 0.160142C22.3553 0.260789 21.8835 0.44719 21.3389 0.719231C14.4939 4.1338 7.65244 7.54134 0.814112 10.9419C-0.255094 11.474 -0.286099 12.9463 0.810084 13.4924C7.8458 16.9923 14.7339 20.4232 21.4748 23.7851C22.758 24.4252 24.0752 24.6363 25.4504 24.2252C25.7804 24.1265 26.2185 23.9411 26.7645 23.6691L46.9922 13.5964C47.2449 13.4704 47.44 13.345 47.5773 13.2203C48.1444 12.7052 48.1214 11.8121 47.6243 11.258C47.5157 11.1366 47.1892 10.9403 46.6452 10.6689L42.9067 8.80611ZM20.0498 34.8097C17.2735 33.4354 14.5033 32.0588 11.7285 30.6797L11.6552 30.6434L11.5944 30.6132C8.13168 28.8923 4.66088 27.1675 1.16091 25.4384C0.716823 25.2183 0.436185 25.031 0.318876 24.8768C-0.286222 24.0848 0.0097968 23.1092 0.869898 22.6852C2.03444 22.1108 3.16627 21.5506 4.26562 21.0045L5.12292 20.5783C5.71825 20.2821 6.30357 19.9902 6.87913 19.7026L6.88633 19.6994L6.89304 19.6969C6.89805 19.6952 6.90318 19.6937 6.9083 19.6927C6.91065 19.6922 6.91303 19.6918 6.91543 19.6915C6.91776 19.6912 6.92011 19.6909 6.92246 19.6907L6.93211 19.6903C6.95054 19.6903 6.96861 19.6945 6.98509 19.7026L11.9371 22.1627C14.5413 23.4567 17.1231 24.7398 19.6824 26.0119C20.4938 26.4156 21.1028 26.6833 21.5094 26.815C22.0516 26.9914 22.5926 27.1108 23.1325 27.1731C21.4086 29.293 20.2925 31.927 20.0498 34.8097ZM20.1433 38.0112C20.7123 41.966 22.9342 45.3866 26.0863 47.5504C25.8173 47.6653 25.5908 47.7482 25.4069 47.799C24.3656 48.0866 23.3641 48.0656 22.4026 47.7358C22.058 47.6181 21.5375 47.3846 20.8414 47.0355C14.1213 43.6642 7.44236 40.3265 0.804713 37.0222C-0.273404 36.4864 -0.265348 35.0045 0.811793 34.4657L3.29407 33.2255L6.88365 31.4316C6.91429 31.4163 6.94529 31.4163 6.97666 31.4316C11.3205 33.5982 15.6868 35.7801 20.0753 37.9774L20.1433 38.0112ZM44.4919 27.5105L44.4881 27.5068C42.2241 25.2529 39.2099 24 36 24C32.801 24 29.7759 25.2515 27.5181 27.5181C25.2515 29.7759 24 32.801 24 36C24 39.2008 25.2527 42.2253 27.5181 44.4907C29.7754 46.748 32.8002 48 36 48C39.2008 48 42.2253 46.7472 44.4907 44.4819C49.1705 39.8021 49.1687 32.1975 44.4919 27.5105ZM41.2673 30.7415L41.2687 30.743C44.1666 33.6336 44.1686 38.3659 41.2673 41.2673C39.8569 42.6776 37.9897 43.4515 36 43.4515C34.0102 43.4515 32.1431 42.6776 30.7327 41.2673C29.3252 39.8597 28.5573 37.9938 28.5573 36C28.5573 34.0103 29.3312 32.1431 30.7415 30.7327C32.1502 29.324 34.0079 28.5573 36 28.5573C37.9897 28.5573 39.8569 29.3312 41.2673 30.7415ZM37.8202 31.5434V35.7438L40.1987 37.182L40.2007 37.1832C40.94 37.6286 41.5518 38.74 40.9661 39.8058C40.7423 40.2131 40.3712 40.5663 39.87 40.7211C39.3574 40.8795 38.8287 40.792 38.3917 40.5295L38.3794 40.5222L35.4142 38.644L35.4079 38.6402L35.3784 38.6225L35.3708 38.618C35.3292 38.5933 35.2393 38.5398 35.1511 38.4766C35.1143 38.4502 35.0492 38.4025 34.9748 38.3332C34.8442 38.2466 34.6874 38.1294 34.5412 37.9829C34.3546 37.796 34 37.3772 34 36.7622V31.5434C34 30.5207 34.8074 29.6 35.9101 29.6C37.0127 29.6 37.8202 30.5207 37.8202 31.5434Z" fill="url(#paint0_linear_936_34262)"/>
<defs>
<linearGradient id="paint0_linear_936_34262" x1="0" y1="0" x2="50.7001" y2="47.2184" gradientUnits="userSpaceOnUse">
<stop stop-color="#3AC5EC"/>
<stop offset="1" stop-color="#C547E9"/>
</linearGradient>
</defs>
</svg>
