<svg width="24" height="24" viewBox="0 0 23 24" fill="none" xmlns="http://www.w3.org/2000/svg">
<path id="Union" d="M11.9872 1.73078L11.5103 2.19219L11.037 1.72839C10.946 1.63916 10.9106 1.54277 10.9106 1.45454C10.9106 1.29262 11.0869 1 11.5134 1C11.9398 1 12.1162 1.29262 12.1162 1.45454C12.1162 1.54344 12.0801 1.6409 11.9872 1.73078ZM10.4498 3.43619L11.5067 3.31626L12.564 3.44246C15.6382 3.80944 17.277 5.57106 18.0594 7.10781C18.4675 7.90935 18.5208 8.82917 18.5697 10.0061L18.5697 10.0082L18.5701 10.0165L18.5702 10.0185L18.5704 10.0228C18.578 10.2054 18.5858 10.3946 18.5959 10.584C18.6492 11.5842 18.7855 12.7159 19.0755 13.7168C19.3521 14.6712 19.8304 15.7288 20.7274 16.2986C21.2007 16.5993 21.4929 16.8918 21.6715 17.1341L21.6999 17.1727L21.7319 17.2084C21.9085 17.4053 22 17.6378 22 17.8788C22 18.4089 21.4948 19 20.6626 19H2.36411C1.58062 19 1.07761 18.4673 1.03085 17.9675L1.00941 17.7383C1.04355 17.5242 1.21979 16.942 2.23251 16.2986C3.12952 15.7288 3.60785 14.6712 3.88441 13.7168C4.17445 12.7159 4.31073 11.5841 4.36401 10.5839L4.36402 10.5839C4.37404 10.3955 4.38192 10.2073 4.38949 10.025L4.38952 10.0246L4.39024 10.0069L4.39026 10.0064L4.39029 10.0061C4.43914 8.8292 4.49241 7.90937 4.90052 7.10781C5.68722 5.5627 7.34008 3.78907 10.4498 3.43619ZM10.1635 22.8454C9.89202 22.7797 9.64541 22.6961 9.4278 22.6H11.5H13.5722C13.3546 22.6961 13.108 22.7797 12.8365 22.8454L12.8365 22.8454C12.4191 22.9464 11.9642 23 11.5 23C11.0358 23 10.5809 22.9464 10.1635 22.8454L10.1635 22.8454Z" stroke="#F3F4F6" stroke-width="2"/>
</svg>
