<svg width="16" height="16" viewBox="0 0 16 16" fill="none" xmlns="http://www.w3.org/2000/svg">
<g id="Add Projct">
<path id="Union" fill-rule="evenodd" clip-rule="evenodd" d="M14.2843 2.9264L14.3022 2.93537L15.5484 3.55631C15.7298 3.64676 15.8386 3.71221 15.8748 3.75266C16.0405 3.93737 16.0482 4.23508 15.8591 4.40677C15.8133 4.44834 15.7483 4.49013 15.6641 4.53212L8.9215 7.8897C8.7395 7.98038 8.59346 8.04217 8.48348 8.07506C8.02507 8.21209 7.58602 8.14174 7.15829 7.92837C4.91132 6.80774 2.61527 5.6641 0.270028 4.49745C-0.0953666 4.31542 -0.0850314 3.82468 0.271371 3.64731C2.55082 2.51378 4.83132 1.37793 7.11296 0.239744C7.29452 0.149063 7.45179 0.0869296 7.58468 0.0533806C7.99471 -0.0506437 8.401 -0.00262934 8.8035 0.197403C10.6314 1.10622 12.4597 2.01728 14.2843 2.9264ZM3.90949 10.2266C4.83445 10.6863 5.75783 11.1451 6.68328 11.6032C6.76417 10.6423 7.1362 9.76433 7.71086 9.0577C7.53089 9.03693 7.35055 8.99715 7.16981 8.93833C7.03427 8.89445 6.83127 8.80521 6.5608 8.67065C5.7077 8.24659 4.84711 7.8189 3.97903 7.38758L2.32837 6.56753C2.32287 6.56484 2.31685 6.56344 2.31071 6.56344L2.30749 6.56356C2.3059 6.5637 2.30432 6.56393 2.30277 6.56423L2.30009 6.56489L2.29769 6.56563C2.2961 6.56617 2.29455 6.5668 2.29305 6.56753C2.10119 6.6634 1.90609 6.7607 1.70764 6.85943L1.42188 7.00151C1.05542 7.18352 0.678147 7.37027 0.289966 7.56174C0.0032656 7.70305 -0.0954073 8.02825 0.106292 8.29227C0.145395 8.34368 0.238941 8.4061 0.386971 8.47947C1.55363 9.05584 2.71057 9.63078 3.86481 10.2044L3.88508 10.2144L3.90949 10.2266ZM8.69543 15.8501C7.64474 15.1289 6.9041 13.9887 6.71445 12.6704L6.69178 12.6591C5.22894 11.9267 3.77351 11.1994 2.32556 10.4772C2.31945 10.4742 2.31339 10.473 2.30737 10.4735C2.3031 10.4738 2.29882 10.4751 2.29455 10.4772L1.09803 11.0752L0.270598 11.4886C-0.0884493 11.6682 -0.0911349 12.1621 0.268238 12.3407C2.48079 13.4422 4.70709 14.5547 6.94715 15.6785C7.17917 15.7949 7.35267 15.8727 7.46753 15.9119C7.78805 16.0219 8.12187 16.0289 8.46899 15.933C8.53027 15.9161 8.60579 15.8884 8.69543 15.8501ZM11.6414 10.2187C11.6863 10.1315 11.7838 10.0508 11.8793 10.0182C11.9415 9.9974 12.0087 9.99479 12.074 10.0078C12.1798 10.0286 12.28 10.0885 12.3438 10.1771L12.4 10.2604L12.4057 10.931L12.4114 11.6042L13.0838 11.6094L13.7545 11.6146L13.8368 11.6706C13.877 11.6992 13.9101 11.7318 13.9358 11.7682C13.9822 11.8333 14.0055 11.9102 14.0055 11.9987C14.0055 12.1888 13.908 12.332 13.7413 12.388C13.6982 12.4036 13.4771 12.4115 13.0445 12.4115H12.4114L12.4057 13.0833L12.4 13.7565L12.3421 13.8385C12.1752 14.0651 11.8307 14.0677 11.6695 13.8385L11.6134 13.7565L11.6077 13.0859L11.6022 12.4128L10.9296 12.4076L10.2591 12.4023L10.1765 12.3451C9.92361 12.1654 9.94608 11.7812 10.2197 11.6432C10.2871 11.6068 10.332 11.6055 10.9483 11.6055H11.6039V10.9492C11.6039 10.3294 11.6059 10.2878 11.6414 10.2187ZM15.9999 12C15.9999 14.2096 14.2091 16 11.9999 16C9.7908 16 7.99996 14.2096 7.99996 12C7.99996 9.79036 9.7908 8 11.9999 8C14.2091 8 15.9999 9.79036 15.9999 12ZM9.35331 12C9.35331 13.4622 10.5382 14.6471 11.9999 14.6471C13.4617 14.6471 14.6466 13.4622 14.6466 12C14.6466 10.5378 13.4617 9.35286 11.9999 9.35286C10.5382 9.35286 9.35331 10.5378 9.35331 12Z" fill="#17213A"/>
</g>
</svg>
