<svg width="31" height="30" viewBox="0 0 31 30" fill="none" xmlns="http://www.w3.org/2000/svg">
<path fill-rule="evenodd" clip-rule="evenodd" d="M17.7461 0.829049H8.11093L8.34268 0.965159C8.48167 1.04679 8.48167 1.25086 8.34268 1.33249L6.97801 2.13396C6.83903 2.21559 6.66528 2.11355 6.66528 1.95029V0.829049H5.39538C4.7987 0.829049 4.31501 1.32108 4.31501 1.92802V28.072C4.31501 28.6789 4.7987 29.171 5.39538 29.171H25.0504C25.6471 29.171 26.1308 28.6789 26.1308 28.072V23.8882H13.2233C12.993 23.8882 12.8063 23.6983 12.8063 23.464V15.4049C12.8063 15.1706 12.993 14.9807 13.2233 14.9807H26.1308V9.31234H20.049C18.7772 9.31234 17.7461 8.26355 17.7461 6.96979V0.829049ZM26.9458 14.9807V8.89782L18.1536 0H5.39538C4.34859 0 3.5 0.863203 3.5 1.92802V28.072C3.5 29.1368 4.34859 30 5.39538 30H25.0504C26.0972 30 26.9458 29.1368 26.9458 28.072V23.8882H28.083C28.3133 23.8882 28.5 23.6983 28.5 23.464V15.4049C28.5 15.1706 28.3133 14.9807 28.083 14.9807H26.9458ZM25.3806 8.48329L18.5611 1.58186V6.96979C18.5611 7.80568 19.2273 8.48329 20.049 8.48329H25.3806ZM7.94466 16.996C7.80567 16.9144 7.80567 16.7103 7.94466 16.6287L9.30933 15.8272C9.44831 15.7456 9.62206 15.8476 9.62206 16.0109V17.6138C9.62206 17.7771 9.44831 17.8791 9.30933 17.7975L7.94466 16.996ZM8.34268 15.1747C8.48167 15.2563 8.48167 15.4604 8.34268 15.542L6.97801 16.3435C6.83903 16.4251 6.66528 16.3231 6.66528 16.1598V14.5569C6.66528 14.3936 6.83903 14.2916 6.97801 14.3732L8.34268 15.1747ZM8.34268 12.7271C8.48167 12.6455 8.48167 12.4414 8.34268 12.3598L6.97801 11.5583C6.83903 11.4767 6.66528 11.5787 6.66528 11.742V13.3449C6.66528 13.5082 6.83903 13.6102 6.97801 13.5286L8.34268 12.7271ZM8.34268 9.48701C8.48167 9.56864 8.48167 9.77272 8.34268 9.85435L6.97801 10.6558C6.83903 10.7374 6.66528 10.6354 6.66528 10.4721V8.86922C6.66528 8.70595 6.83903 8.60391 6.97801 8.68554L8.34268 9.48701ZM8.34268 7.02016C8.48167 6.93853 8.48167 6.73445 8.34268 6.65282L6.97801 5.85135C6.83903 5.76972 6.66528 5.87176 6.66528 6.03502V7.63795C6.66528 7.80121 6.83903 7.90325 6.97801 7.82162L8.34268 7.02016ZM8.34268 3.81863C8.48167 3.90026 8.48167 4.10434 8.34268 4.18597L6.97801 4.98743C6.83903 5.06906 6.66528 4.96702 6.66528 4.80376V3.20083C6.66528 3.03757 6.83903 2.93553 6.97801 3.01716L8.34268 3.81863ZM7.94466 13.7865C7.80567 13.8681 7.80567 14.0722 7.94466 14.1538L9.30933 14.9553C9.44831 15.0369 9.62206 14.9349 9.62206 14.7716V13.1687C9.62206 13.0054 9.44831 12.9034 9.30933 12.985L7.94466 13.7865ZM7.94466 11.3117C7.80567 11.23 7.80567 11.0259 7.94466 10.9443L9.30933 10.1429C9.44831 10.0612 9.62206 10.1633 9.62206 10.3265V11.9294C9.62206 12.0927 9.44831 12.1947 9.30933 12.1131L7.94466 11.3117ZM7.94466 8.10214C7.80567 8.18377 7.80567 8.38785 7.94466 8.46948L9.30933 9.27094C9.44831 9.35257 9.62206 9.25053 9.62206 9.08727V7.48434C9.62206 7.32108 9.44831 7.21904 9.30933 7.30067L7.94466 8.10214ZM7.94466 5.6273C7.80567 5.54567 7.80567 5.34159 7.94466 5.25996L9.30933 4.4585C9.44831 4.37687 9.62206 4.47891 9.62206 4.64217V6.24509C9.62206 6.40835 9.44831 6.51039 9.30933 6.42876L7.94466 5.6273ZM7.94466 2.41778C7.80567 2.49941 7.80567 2.70349 7.94466 2.78512L9.30933 3.58658C9.44831 3.66821 9.62206 3.56617 9.62206 3.40291V1.79999C9.62206 1.63673 9.44831 1.53469 9.30933 1.61632L7.94466 2.41778ZM6.0019 23.2808L6.63685 18.856H9.57468L10.2191 23.2808L8.10576 24.9968L6.0019 23.2808ZM8.09629 24.2063L9.51782 23.0398L9.40409 22.3458H6.79795L6.69371 23.0398L8.09629 24.2063ZM15.9337 17.4293H19.0421V18.162L16.9249 20.7069H19.08V21.4396H15.7631V20.7069L17.8741 18.162H15.9337V17.4293ZM21.0133 17.4293H20.1224V21.4396H21.0133V17.4293ZM23.3067 17.4293H22.4158V21.4396H23.3067V20.0032H24.3444C25.0431 20.0032 25.6096 19.427 25.6096 18.7163C25.6096 18.0055 25.0431 17.4293 24.3444 17.4293H23.3067ZM23.3067 18.1138V19.2995H24.1549C24.4767 19.2995 24.7377 19.034 24.7377 18.7066C24.7377 18.3792 24.4767 18.1138 24.1549 18.1138H23.3067Z" fill="#383192"/>
</svg>
