<svg width="250" height="250" viewBox="0 0 215 215" fill="none" xmlns="http://www.w3.org/2000/svg">
<path d="M198.207 160.705C189.215 176.281 176.281 189.215 160.705 198.207L147.897 176.024C159.579 169.28 169.28 159.579 176.024 147.897L198.207 160.705Z" fill="#D9D9D9" stroke="white" stroke-width="3"/>
<path d="M213 108C213 126.459 208.012 144.593 198.537 160.579L175.164 147.435C182.27 135.445 186.011 121.844 186.011 108H213Z" fill="#D9D9D9" stroke="white" stroke-width="3"/>
<path d="M16.7866 160.917C23.6983 172.764 32.9002 183.147 43.867 191.474C54.8338 199.802 67.3508 205.91 80.7031 209.451C94.0554 212.991 107.982 213.895 121.687 212.109C135.392 210.323 148.607 205.884 160.579 199.044L147.421 176.492C138.442 181.621 128.531 184.951 118.252 186.29C107.973 187.629 97.5284 186.952 87.5141 184.296C77.4999 181.641 68.1122 177.06 59.8871 170.814C51.662 164.569 44.7605 156.781 39.5768 147.896L16.7866 160.917Z" fill="#D9D9D9" stroke="white" stroke-width="3"/>
<path d="M5.67847 80.7031C2.00924 94.0555 1.07313 107.982 2.92357 121.687C4.77401 135.392 9.37478 148.607 16.4632 160.579L39.836 147.421C34.5197 138.442 31.0691 128.531 29.6813 118.252C28.2935 107.973 28.9956 97.5284 31.7475 87.5142L5.67847 80.7031Z" fill="#D9D9D9" stroke="white" stroke-width="3"/>
<path d="M160.427 16.4632C144.183 6.98817 125.757 2 107 2V28.9886C121.068 28.9886 134.888 32.7298 147.071 39.836L160.427 16.4632Z" fill="#D9D9D9" stroke="white" stroke-width="3"/>
<path d="M213 107C213 88.715 208.187 70.752 199.044 54.9167C189.902 39.0814 176.752 25.9316 160.917 16.7891L147.896 39.3418C159.772 46.1987 169.635 56.061 176.492 67.9375C183.349 79.814 186.958 93.2862 186.958 107H213Z" fill="#D9D9D9" stroke="white" stroke-width="3"/>
<path d="M107 2C83.8858 2 61.4175 9.64131 43.0799 23.7388C24.7423 37.8363 11.56 57.6022 5.57764 79.9708L30.9332 86.7776C35.42 70.0011 45.3067 55.1767 59.0599 44.6036C72.8131 34.0305 89.6643 28.2995 107 28.2995V2Z" fill="#D9D9D9" stroke="white" stroke-width="3"/>
</svg>
