<svg width="31" height="30" viewBox="0 0 31 30" fill="none" xmlns="http://www.w3.org/2000/svg">
<path fill-rule="evenodd" clip-rule="evenodd" d="M6.68986 0H24.3243C25.7862 0.0744714 27.0565 0.55682 28.1351 1.44702C29.5963 2.65298 30.3846 4.23112 30.5 6.18146V23.8243C30.4067 25.51 29.7874 26.9318 28.6423 28.0899C27.4717 29.2738 26.0261 29.9105 24.3054 30H6.6757C5.12081 29.9171 3.78478 29.3782 2.66766 28.383C1.33478 27.1963 0.612245 25.6834 0.5 23.8442V6.15944C0.608045 4.35279 1.30735 2.85875 2.5979 1.67727C3.73042 0.640203 5.09441 0.0811298 6.68986 0ZM28.0135 6.42588C28.0135 5.38097 27.5984 4.37883 26.8595 3.63998C26.1206 2.90111 25.1185 2.48601 24.0736 2.48601H6.92639C5.88148 2.48601 4.87937 2.90111 4.1405 3.63998C3.40162 4.37883 2.98655 5.38097 2.98655 6.42588L2.98601 23.5726C2.98601 24.0899 3.08793 24.6023 3.28592 25.0803C3.4839 25.5583 3.77413 25.9926 4.13998 26.3585C4.50581 26.7243 4.94014 27.0145 5.41816 27.2125C5.89616 27.4105 6.40849 27.5124 6.92588 27.5124L24.0736 27.5129C25.1185 27.5129 26.1206 27.0978 26.8595 26.359C27.5984 25.6201 28.0135 24.618 28.0135 23.5731V6.42588ZM9.58759 23.7346C8.23079 23.6234 7.11523 22.5986 6.82308 21.2916C6.77378 21.0713 6.7493 20.7778 6.74966 20.411C6.75176 16.5663 6.75245 12.8628 6.75176 9.30053C6.75176 8.93199 6.83289 8.55594 6.99512 8.17237C7.86471 6.12271 10.4781 5.60298 12.0773 7.1596C12.6962 7.76206 13.0046 8.55699 13.0025 9.5444C12.9955 13.0752 12.9956 16.6745 13.003 20.3423C13.0037 20.7318 12.9785 21.0465 12.9275 21.2864C12.5955 22.8409 11.1589 23.8641 9.58759 23.7346ZM17.9949 15.5507C17.9918 16.9002 18.7874 18.0997 20.0629 18.5601C21.3385 19.0206 22.7226 18.6168 23.5633 17.572C24.0757 16.9348 24.2566 16.2357 24.253 15.4154C24.2456 13.9252 24.2455 11.9692 24.2524 9.54755C24.2556 8.56224 23.9493 7.76836 23.3336 7.1659C21.574 5.44353 18.6511 6.27273 18.0773 8.69162C18.0248 8.91224 17.9988 9.25123 17.9991 9.70856C18.0005 11.4848 17.9991 13.4322 17.9949 15.5507Z" fill="#383192"/>
</svg>
