<svg width="16" height="16" viewBox="0 0 16 16" fill="none" xmlns="http://www.w3.org/2000/svg">
<path id="Union" d="M8.0053 2.04277L7.24506 2.12545C4.99598 2.37003 3.79737 3.60402 3.23068 4.67065C2.9283 5.2398 2.89229 5.88656 2.85859 6.6647L2.85858 6.66492L2.85817 6.67442L2.85815 6.67464C2.85285 6.79709 2.84737 6.92265 2.8404 7.0482L2.8404 7.04824C2.80365 7.70927 2.70984 8.4515 2.51263 9.1037C2.32175 9.73498 2.00285 10.3875 1.44004 10.7301C0.946958 11.0303 0.708355 11.3269 0.596816 11.5438C0.540478 11.6534 0.515118 11.7451 0.505313 11.812C0.50516 11.813 0.50501 11.814 0.504865 11.8151L0.522119 11.9918C0.562728 12.4079 0.99489 12.8333 1.6446 12.8333H14.374C15.0637 12.8333 15.5 12.3608 15.5 11.9192C15.5 11.7208 15.421 11.5294 15.2707 11.3688L15.2542 11.3512L15.2395 11.332C15.1007 11.1516 14.8797 10.9417 14.5321 10.7301C13.9693 10.3875 13.6504 9.73498 13.4595 9.1037C13.2623 8.45152 13.1685 7.70929 13.1317 7.04827L8.0053 2.04277ZM8.0053 2.04277L8.76579 2.12977C10.9896 2.38416 12.1779 3.60988 12.7414 4.67065C13.0438 5.23979 13.0798 5.88654 13.1135 6.66471L13.1136 6.66584L13.1139 6.67164M8.0053 2.04277L13.1139 6.67164M13.1139 6.67164L13.1139 6.67272L13.114 6.67545C13.1193 6.79746 13.1248 6.92285 13.1317 7.04824L13.1139 6.67164ZM8.48269 1.26634L8.00619 1.70808L7.53332 1.26393C7.43752 1.17395 7.3943 1.06996 7.3943 0.969694C7.3943 0.77356 7.60181 0.5 8.0093 0.5C8.41678 0.5 8.62429 0.77356 8.62429 0.969694C8.62429 1.07078 8.58031 1.17583 8.48269 1.26634ZM10.0612 14.9C9.98338 14.9661 9.88875 15.032 9.776 15.0951C9.55814 15.2171 9.2887 15.3196 8.98041 15.3911L8.9804 15.3911C8.67276 15.4625 8.33924 15.5 8 15.5C7.66076 15.5 7.32724 15.4625 7.0196 15.3911L7.01959 15.3911C6.7113 15.3196 6.44186 15.2171 6.22401 15.0951C6.11125 15.032 6.01662 14.9661 5.93878 14.9H8H10.0612Z" stroke="#17213A"/>
</svg>
