<svg width="60" height="60" viewBox="0 0 60 60" fill="none" xmlns="http://www.w3.org/2000/svg">
<g id="Trusted Professional">
<path id="Union" fill-rule="evenodd" clip-rule="evenodd" d="M15 14.8762C15 6.66028 21.6603 0 29.8762 0C38.092 0 44.7523 6.66028 44.7523 14.8762C44.7523 23.092 38.092 29.7523 29.8762 29.7523C21.6603 29.7523 15 23.092 15 14.8762ZM29.8766 4.9592C24.3994 4.9592 19.9592 9.39939 19.9592 14.8766C19.9592 20.3539 24.3994 24.7941 29.8766 24.7941C35.3539 24.7941 39.7941 20.3539 39.7941 14.8766C39.7941 9.39939 35.3539 4.9592 29.8766 4.9592ZM14.876 32.5408C11.0004 32.5408 7.24284 33.9433 4.43927 36.5009C1.6281 39.0655 0 42.5952 0 46.3294V57.5202C0 58.8895 1.11004 59.9995 2.47934 59.9995C3.84864 59.9995 4.95868 58.8895 4.95868 57.5202V46.3294C4.95868 44.0649 5.94273 41.8415 7.78123 40.1642C9.62732 38.4801 12.1761 37.4995 14.876 37.4995H45.124C47.8239 37.4995 50.3727 38.4801 52.2188 40.1642C54.0573 41.8415 55.0413 44.0649 55.0413 46.3294V57.5202C55.0413 58.8895 56.1514 59.9995 57.5207 59.9995C58.89 59.9995 60 58.8895 60 57.5202V46.3294C60 42.5952 58.3719 39.0655 55.5607 36.5009C52.7572 33.9433 48.9996 32.5408 45.124 32.5408H14.876ZM27.6562 59.3775L42.9972 44.4368C43.8494 43.6067 43.8494 42.3617 42.9972 41.5316C42.1449 40.7016 40.8665 40.7016 40.0142 41.5316L26.1648 55.0198L19.9858 49.002C19.1335 48.1719 17.8551 48.1719 17.0028 49.002C16.1506 49.832 16.1506 51.0771 17.0028 51.9071L24.6733 59.3775C25.0994 59.7925 25.5256 60 26.1648 60C26.5909 60 27.2301 59.7925 27.6562 59.3775Z" fill="#F3F4F6"/>
</g>
</svg>
