<svg width="60" height="60" viewBox="0 0 60 60" fill="none" xmlns="http://www.w3.org/2000/svg">
<g id="business_10036328 2" clip-path="url(#clip0_804_14984)">
<path id="Vector" d="M19.2797 0H19.9371C22.0582 0.2125 23.634 1.15352 24.6645 2.82305C26.5242 5.83594 25.391 9.66094 22.3031 11.2547C20.5125 12.1793 18.3152 12.0961 16.6031 11.0707C13.4566 9.1875 12.6586 4.96406 15.0949 2.09531C16.1426 0.860937 17.5375 0.1625 19.2797 0Z" fill="#F3F4F6"/>
<path id="Vector_2" d="M39.9926 0H40.8738C41.4551 0.0875 41.825 0.15625 41.9836 0.20625C43.7461 0.761719 45.0031 1.82227 45.7547 3.38789C47.6027 7.23398 44.8711 11.7352 40.5937 11.8863C39.3867 11.9293 38.2637 11.6258 37.2246 10.9758C34.4684 9.25313 33.6023 5.5582 35.3285 2.81016C36.3793 1.13828 37.934 0.201563 39.9926 0Z" fill="#F3F4F6"/>
<path id="Vector_3" d="M14.4281 60H13.8773C12.1195 59.7914 10.8832 58.4274 10.8832 56.6473C10.8809 50.277 10.8809 43.9078 10.8832 37.5399C10.8832 37.5294 10.8805 37.5191 10.8754 37.5099C10.8703 37.5006 10.8629 37.4928 10.8539 37.4871C9.82266 36.8238 9.09414 35.8981 8.66836 34.7098C8.43086 34.0465 8.28047 33.4699 8.21719 32.9801C8.04141 31.6231 7.92149 30.1723 7.85742 28.6277C7.72852 25.5184 8.1086 22.2879 8.99766 18.9363C9.29063 17.834 9.55938 16.959 9.80391 16.3113C10.2961 15.0113 11.0488 13.9641 12.0621 13.1695C13.6605 11.9168 16.316 11.4399 17.809 13.1684C19.0102 14.5594 19.3406 16.6969 19.0617 18.4512C18.9773 18.984 18.8813 19.509 18.7734 20.0262C18.7641 20.0707 18.7492 20.0727 18.7289 20.032C18.1492 18.8938 17.7566 17.6461 17.5512 16.2891C17.4492 15.6152 16.9031 14.9742 16.2609 14.7328C15.2965 14.3719 14.2395 14.6965 13.691 15.5742C13.2258 16.3172 13.357 17.0977 13.5434 17.932C14.1832 20.8172 15.4758 23.4973 17.4996 25.5715C17.6059 25.6809 17.7102 25.793 17.8125 25.9078C17.8359 25.9336 17.8453 25.9637 17.8406 25.9981C17.516 28.5223 17.4012 31.1297 17.6613 33.5625C17.7691 34.5691 17.8605 35.8652 17.5254 36.8332C17.4566 37.0324 17.4223 37.2399 17.4223 37.4555C17.4293 43.9109 17.4293 50.3309 17.4223 56.7152C17.4199 58.4344 16.1566 59.7949 14.4281 60Z" fill="#F3F4F6"/>
<path id="Vector_4" d="M42.1207 25.7086C42.1202 25.7033 42.1182 25.6982 42.1149 25.6941C42.1116 25.6899 42.1071 25.6868 42.1019 25.685C42.0968 25.6833 42.0912 25.6831 42.0858 25.6844C42.0804 25.6856 42.0754 25.6883 42.0715 25.6922C39.3023 28.5352 35.4867 29.7856 31.5012 29.9391C31.1578 29.9531 30.832 29.8922 30.5426 29.7141C30.5366 29.7104 30.5319 29.7051 30.5289 29.6989C30.5258 29.6926 30.5247 29.6856 30.5256 29.6786C30.5264 29.6717 30.5293 29.6652 30.5337 29.6598C30.5382 29.6545 30.5441 29.6505 30.5508 29.6485C31.7672 29.2676 32.3602 27.9926 31.8832 26.7996C31.866 26.7559 31.8809 26.7324 31.9277 26.7293C35.857 26.4996 39.4758 24.8696 41.393 21.2707C41.4078 21.2434 41.4129 21.2141 41.4082 21.1828C41.3066 20.4844 41.184 19.7782 41.0402 19.0641C40.6934 17.3426 40.7953 15.6047 41.5723 14.0836C42.2762 12.7063 43.3688 12.0282 44.85 12.0492C47.7902 12.0914 49.7344 14.5723 50.4973 17.168C51.3727 20.141 52.0313 23.1551 52.1391 26.2067C52.2 27.9168 52.1125 29.9352 51.8766 32.2617C51.6738 34.2574 50.9859 36.3528 49.1766 37.4543C49.1367 37.4778 49.1168 37.5129 49.1168 37.5598L49.118 40.2C49.118 40.2141 49.1109 40.2211 49.0969 40.2211L48.7324 40.2199C48.7121 40.2199 48.7016 40.2098 48.7008 40.1895C48.6586 39.3059 48.3398 38.5328 47.7445 37.8703C47.7148 37.8367 47.7094 37.7996 47.7281 37.759C48.7453 35.5266 49.4707 33.2215 49.8434 30.8473C50.6273 25.8586 49.8023 20.591 47.3379 16.1168C47.0813 15.6504 46.7965 15.1676 46.3207 14.8957C45.6387 14.5051 44.9527 14.4782 44.2629 14.8149C43.4355 15.218 42.9445 16.193 43.1426 17.1C43.2035 17.3758 43.3449 17.702 43.5668 18.0785C44.098 18.9785 44.5359 19.9446 44.8805 20.9766C46.4965 25.8164 46.1273 30.8367 44.1035 35.4926C43.8879 35.9895 43.5891 36.4899 43.5516 37.0406C43.5484 37.0899 43.5246 37.1258 43.4801 37.1485C43.1746 37.3071 42.8973 37.5082 42.648 37.752C42.5957 37.8035 42.5699 37.7926 42.5707 37.7192C42.5742 37.466 42.6035 37.2223 42.5145 36.975C42.1934 36.0739 42.2027 34.8914 42.3 33.9891C42.5918 31.2645 42.5051 28.6348 42.1207 25.7086Z" fill="#F3F4F6"/>
<path id="Vector_5" d="M22.834 24.9516C24.9598 25.9852 27.3832 26.2418 29.7059 26.0496C30.3973 25.9922 30.9949 26.2781 31.3406 26.891C31.7625 27.6422 31.4449 28.602 30.7066 29.0156C30.4746 29.1461 30.1215 29.2234 29.6473 29.2477C28.0199 29.3313 26.5352 29.2531 25.193 29.0133C19.1004 27.9234 15.2109 23.4598 13.9934 17.4973C13.8809 16.9457 13.8812 16.4977 13.9945 16.1531C14.1961 15.5426 14.8605 15.0902 15.5203 15.1184C16.3629 15.1547 16.9617 15.7395 17.0672 16.5633C17.0953 16.7805 17.1336 16.9988 17.182 17.2184C17.9004 20.4844 19.7789 23.4668 22.834 24.9516Z" fill="#F3F4F6"/>
<path id="Vector_6" d="M47.2383 37.5832C47.0469 38.009 46.8293 38.307 46.5855 38.4773C45.7711 39.0445 44.7164 38.7937 44.2523 37.9184C43.9676 37.3805 44.0543 36.8742 44.3191 36.3058C46.3254 32.0016 46.9723 27.3269 45.9258 22.7402C45.507 20.9004 44.8656 19.2367 44.0016 17.7492C43.8047 17.4117 43.6148 17.0918 43.6359 16.6816C43.6711 15.9996 43.9914 15.5203 44.5969 15.2437C45.1664 14.9836 45.8801 15.1254 46.3242 15.5531C46.4586 15.6836 46.6207 15.9184 46.8105 16.2574C49.5715 21.1957 50.2559 27.0633 48.9727 32.5687C48.5992 34.1726 48.0211 35.8441 47.2383 37.5832Z" fill="#F3F4F6"/>
<path id="Vector_7" d="M41.966 40.534C41.9129 39.2582 42.4324 38.2683 43.5246 37.5644C43.5294 37.5613 43.5348 37.5595 43.5405 37.559C43.5462 37.5586 43.5519 37.5595 43.5572 37.5618C43.5625 37.5641 43.5672 37.5677 43.5709 37.5722C43.5747 37.5768 43.5772 37.5821 43.5785 37.5879C43.6301 37.8324 43.7121 38.0512 43.8246 38.2441C43.8434 38.2762 43.8379 38.3031 43.8082 38.325C43.0348 38.8969 42.6875 39.6472 42.7664 40.5761C42.767 40.5869 42.7717 40.5971 42.7796 40.6045C42.7874 40.6119 42.7978 40.616 42.8086 40.616L47.4387 40.6148C47.4528 40.6149 47.4665 40.6096 47.4769 40.6C47.4873 40.5905 47.4937 40.5774 47.4949 40.5633C47.552 39.9484 47.3992 39.3926 47.0367 38.8957C47.0297 38.8859 47.0262 38.8741 47.0266 38.8622C47.027 38.8503 47.0314 38.839 47.0391 38.8301L47.502 38.2594C47.5184 38.239 47.5348 38.2387 47.5512 38.2582C48.1035 38.9293 48.3512 39.6969 48.2941 40.5609C48.2937 40.5681 48.2947 40.5754 48.2971 40.5822C48.2995 40.589 48.3033 40.5952 48.3083 40.6005C48.3132 40.6058 48.3192 40.61 48.3258 40.6128C48.3325 40.6157 48.3396 40.6172 48.3469 40.6172C49.15 40.6156 49.9762 40.6148 50.8254 40.6148C51.668 40.6148 52.0207 41.1269 52.0148 41.9062C51.9992 44.2812 51.9961 46.5281 52.0055 48.6469C52.0078 49.4144 51.5988 49.8726 50.8746 49.8726C46.7473 49.8742 42.9164 49.8738 39.382 49.8715C38.7211 49.8715 38.2547 49.4226 38.2547 48.7851C38.2531 46.4195 38.2531 44.0613 38.2547 41.7105C38.2547 41.2207 38.5547 40.7672 39.0316 40.6617C39.2098 40.6219 39.4246 40.6039 39.6762 40.6078C40.4449 40.6187 41.1828 40.6207 41.8898 40.6137C41.943 40.6137 41.9684 40.5871 41.966 40.534Z" fill="#F3F4F6"/>
<path id="Vector_8" d="M44.1363 38.666C44.7961 39.3422 45.7488 39.4922 46.6078 39.0844C46.6248 39.0764 46.6441 39.0747 46.6622 39.0794C46.6804 39.0841 46.6964 39.0949 46.7074 39.1101C46.9395 39.432 47.0727 39.7797 47.107 40.1531C47.1109 40.1984 47.0902 40.2211 47.0449 40.2211H43.1859C43.1813 40.2211 43.1766 40.2201 43.1724 40.2182C43.1681 40.2163 43.1642 40.2135 43.161 40.21C43.1579 40.2065 43.1554 40.2023 43.1538 40.1978C43.1523 40.1932 43.1516 40.1884 43.152 40.1836C43.2051 39.5476 43.4992 39.0386 44.0344 38.6566C44.0711 38.6301 44.1051 38.6332 44.1363 38.666Z" fill="#F3F4F6"/>
<path id="Vector_9" d="M46.1016 60H45.552C43.7344 59.7223 42.5836 58.4344 42.5777 56.5969C42.5707 54.5281 42.5699 52.4301 42.5754 50.3027C42.5754 50.295 42.5785 50.2875 42.584 50.282C42.5895 50.2765 42.5969 50.2734 42.6047 50.2734H49.0453C49.0937 50.2734 49.118 50.2977 49.118 50.3461C49.1156 52.4797 49.1152 54.573 49.1168 56.6262C49.118 58.4238 47.8805 59.8055 46.1016 60Z" fill="#F3F4F6"/>
</g>
<defs>
<clipPath id="clip0_804_14984">
<rect width="60" height="60" fill="white"/>
</clipPath>
</defs>
</svg>
