<svg width="18" height="18" viewBox="0 0 18 18" fill="none" xmlns="http://www.w3.org/2000/svg">
<path fill-rule="evenodd" clip-rule="evenodd" d="M0.489771 10.1633L7.83655 17.5102C8.44915 18.1632 9.50998 18.1632 10.1639 17.5102L17.5107 10.1633C18.1637 9.5102 18.1637 8.48979 17.5107 7.83673L10.1639 0.489791C9.50998 -0.163264 8.49045 -0.163264 7.83655 0.489791L0.489771 7.83673C-0.163257 8.48979 -0.163257 9.5102 0.489771 10.1633ZM8.17229 12.1909C8.13625 12.3136 8.10022 12.4364 8.10022 12.5591C8.10022 12.7227 8.13625 12.8045 8.17229 12.9273C8.20833 13.05 8.2804 13.1318 8.35247 13.2136C8.40696 13.2546 8.45178 13.2956 8.49661 13.3314C8.54143 13.3671 8.58626 13.3978 8.63987 13.4182C8.74797 13.4591 8.85608 13.5 9.00022 13.5C9.14436 13.5 9.25247 13.4591 9.36057 13.4182C9.4678 13.3773 9.5759 13.2955 9.64797 13.2136C9.68401 13.1731 9.72004 13.1326 9.75081 13.087C9.78245 13.0407 9.80969 12.9892 9.82815 12.9273C9.86418 12.8045 9.90022 12.6818 9.90022 12.5591C9.90022 12.4771 9.8844 12.3951 9.86331 12.3131L9.82815 12.1909C9.80442 12.11 9.76487 12.0469 9.72004 11.9898C9.69719 11.9603 9.67258 11.9324 9.64797 11.9045C9.6093 11.8604 9.56008 11.8163 9.50647 11.7785C9.45989 11.7464 9.40979 11.7188 9.36057 11.7C9.25247 11.6591 9.14436 11.6182 9.00022 11.6182C8.85608 11.6182 8.74797 11.6591 8.63987 11.7C8.53264 11.7409 8.42454 11.8227 8.35247 11.9045C8.2804 11.9864 8.20833 12.0682 8.17229 12.1909ZM8.31643 10.6773H9.61194L9.79211 4.49999H8.13625L8.31643 10.6773Z" fill="#FF00E5"/>
</svg>
