<svg width="20" height="20" viewBox="0 0 20 20" fill="none" xmlns="http://www.w3.org/2000/svg">
<g clip-path="url(#clip0_1607_74455)">
<path d="M17.5001 11.6667C17.2791 11.6667 17.0671 11.7545 16.9108 11.9107C16.7545 12.067 16.6667 12.279 16.6667 12.5V15.8333C16.6667 16.0543 16.579 16.2663 16.4227 16.4226C16.2664 16.5789 16.0544 16.6667 15.8334 16.6667H4.16675C3.94573 16.6667 3.73377 16.5789 3.57749 16.4226C3.42121 16.2663 3.33341 16.0543 3.33341 15.8333V12.5C3.33341 12.279 3.24562 12.067 3.08934 11.9107C2.93306 11.7545 2.7211 11.6667 2.50008 11.6667C2.27907 11.6667 2.06711 11.7545 1.91083 11.9107C1.75455 12.067 1.66675 12.279 1.66675 12.5V15.8333C1.66675 16.4964 1.93014 17.1322 2.39898 17.6011C2.86782 18.0699 3.50371 18.3333 4.16675 18.3333H15.8334C16.4965 18.3333 17.1323 18.0699 17.6012 17.6011C18.07 17.1322 18.3334 16.4964 18.3334 15.8333V12.5C18.3334 12.279 18.2456 12.067 18.0893 11.9107C17.9331 11.7545 17.7211 11.6667 17.5001 11.6667ZM9.40841 13.0917C9.48767 13.1675 9.58112 13.227 9.68342 13.2667C9.78316 13.3107 9.89102 13.3335 10.0001 13.3335C10.1091 13.3335 10.217 13.3107 10.3167 13.2667C10.419 13.227 10.5125 13.1675 10.5917 13.0917L13.9251 9.75832C14.082 9.6014 14.1702 9.38858 14.1702 9.16666C14.1702 8.94474 14.082 8.73191 13.9251 8.57499C13.7682 8.41807 13.5553 8.32991 13.3334 8.32991C13.1115 8.32991 12.8987 8.41807 12.7417 8.57499L10.8334 10.4917V2.49999C10.8334 2.27898 10.7456 2.06701 10.5893 1.91073C10.4331 1.75445 10.2211 1.66666 10.0001 1.66666C9.77907 1.66666 9.56711 1.75445 9.41083 1.91073C9.25455 2.06701 9.16675 2.27898 9.16675 2.49999V10.4917L7.25842 8.57499C7.18072 8.49729 7.08847 8.43566 6.98696 8.39361C6.88544 8.35156 6.77663 8.32991 6.66675 8.32991C6.55687 8.32991 6.44806 8.35156 6.34654 8.39361C6.24502 8.43566 6.15278 8.49729 6.07508 8.57499C5.99738 8.65269 5.93575 8.74493 5.8937 8.84645C5.85165 8.94797 5.83001 9.05677 5.83001 9.16666C5.83001 9.27654 5.85165 9.38535 5.8937 9.48687C5.93575 9.58838 5.99738 9.68062 6.07508 9.75832L9.40841 13.0917Z" fill="#F3F4F6"/>
</g>
<defs>
<clipPath id="clip0_1607_74455">
<rect width="20" height="20" fill="white"/>
</clipPath>
</defs>
</svg>
