<svg width="18" height="18" viewBox="0 0 18 18" fill="none" xmlns="http://www.w3.org/2000/svg">
<path fill-rule="evenodd" clip-rule="evenodd" d="M3.01574 18H0C0.0505508 17.4772 0.116693 16.9776 0.200976 16.4613C0.853061 12.3515 2.36895 9.96327 4.70629 9.32191C5.06197 9.22908 5.90037 9.20376 9.16926 9.22064L9.17818 9.22068C13.158 9.23752 13.1922 9.23766 13.6746 9.43162C16.1004 10.405 17.5247 13.2187 18 18H14.9817C14.8621 16.7857 14.6556 15.8809 14.3097 14.8072L14.0387 13.9633L14.0263 18H10.3965L10.2109 16.6385L9.71972 13.0351H9.0253H8.3224L8.28006 13.2882C8.25465 13.4232 8.04294 14.9423 7.81428 16.6638C7.75165 17.1331 7.69029 17.5865 7.63385 18H3.97344L3.96105 13.9633L3.69005 14.7819C3.43272 15.559 3.19693 16.658 3.01574 18ZM9.82982 11.3641L10.0077 12.0224L9.83829 12.1658C9.43179 12.5118 8.64421 12.5287 8.19537 12.1996C8.04293 12.0899 8.04293 12.073 8.19537 11.3979L8.34781 10.7143H8.99989H9.65197L9.82982 11.3641ZM7.71267 0.157191C6.76418 0.460993 5.76488 1.30489 5.32451 2.1741C3.90178 4.97584 5.87498 8.2164 8.9999 8.20797C10.2194 8.19953 11.2018 7.79446 12.0147 6.95056C14.1065 4.78174 13.1495 1.04328 10.2787 0.16563C9.57577 -0.0537829 8.39016 -0.0537829 7.71267 0.157191Z" fill="#17213A"/>
</svg>
