<svg width="31" height="30" viewBox="0 0 31 30" fill="none" xmlns="http://www.w3.org/2000/svg">
<path fill-rule="evenodd" clip-rule="evenodd" d="M11.75 12.5C14.5114 12.5 16.75 10.2614 16.75 7.5C16.75 4.73858 14.5114 2.5 11.75 2.5C8.98857 2.5 6.75 4.73858 6.75 7.5C6.75 10.2614 8.98857 12.5 11.75 12.5ZM19.25 7.5C19.25 11.6421 15.8921 15 11.75 15C7.60786 15 4.25 11.6421 4.25 7.5C4.25 3.35786 7.60786 0 11.75 0C15.8921 0 19.25 3.35786 19.25 7.5ZM25.5383 17.9845C24.9073 17.7045 24.1688 17.989 23.8887 18.62C23.6087 19.251 23.8932 19.9895 24.5242 20.2696C25.1485 20.5467 25.7189 20.9161 26.2109 21.365C27.3722 22.4244 28 23.8354 28 25.2796V28.75C28 29.4404 28.5596 30 29.25 30C29.9404 30 30.5 29.4404 30.5 28.75V25.2796C30.5 23.0945 29.5475 21.0249 27.8958 19.518C27.1979 18.8814 26.3991 18.3665 25.5383 17.9845ZM20.5 25.2796V30H23V25.2796C23 23.465 22.4074 21.7247 21.3525 20.4415C20.2976 19.1584 18.8668 18.4375 17.375 18.4375H6.125C4.63316 18.4375 3.20242 19.1584 2.14752 20.4415C1.09263 21.7247 0.5 23.465 0.5 25.2796V30H3V25.2796C3 23.9868 3.42637 22.8226 4.07869 22.0292C4.71965 21.2495 5.47189 20.9375 6.125 20.9375H17.375C18.0281 20.9375 18.7803 21.2495 19.4213 22.0292C20.0736 22.8226 20.5 23.9868 20.5 25.2796ZM22.0625 0.625C21.3721 0.625 20.8125 1.18464 20.8125 1.875C20.8125 2.56536 21.3721 3.125 22.0625 3.125C22.9937 3.125 23.8535 3.41452 24.5617 3.90846C25.6981 4.70119 26.4375 6.01435 26.4375 7.5C26.4375 8.98565 25.6981 10.2988 24.5617 11.0915C23.8535 11.5855 22.9937 11.875 22.0625 11.875C21.3721 11.875 20.8125 12.4346 20.8125 13.125C20.8125 13.8154 21.3721 14.375 22.0625 14.375C23.5215 14.375 24.8778 13.9191 25.9919 13.142C27.77 11.9018 28.9375 9.83733 28.9375 7.5C28.9375 5.16267 27.77 3.09823 25.9919 1.858C24.8778 1.0809 23.5215 0.625 22.0625 0.625Z" fill="#17213A"/>
</svg>
