<svg width="32" height="32" viewBox="0 0 32 32" fill="none" xmlns="http://www.w3.org/2000/svg">
<path fill-rule="evenodd" clip-rule="evenodd" d="M23.7606 8.80447C23.7606 5.12357 21.2313 2.02894 17.8031 1.13831C17.3891 0.456206 16.6356 0 15.7746 0C14.9137 0 14.1602 0.456206 13.7462 1.13831C10.318 2.02894 7.78873 5.12357 7.78873 8.80447V10.2719H7.49296C6.83957 10.2719 6.30986 10.7974 6.30986 11.4458C6.30986 12.0941 6.83957 12.6197 7.49296 12.6197H8.35213H23.1972H24.0563C24.7097 12.6197 25.2394 12.0941 25.2394 11.4458C25.2394 10.7974 24.7097 10.2719 24.0563 10.2719H23.7606V8.80447ZM5.75114 32H0C0.310616 30.8294 0.666703 29.7925 1.05817 28.8689C2.46384 25.5257 4.47259 23.6384 6.33515 22.7768C7.56451 22.1977 8.64318 22.0832 9.25805 22.0845C9.47869 22.0845 9.64427 22.099 9.74784 22.1104L9.75063 22.111L9.75338 22.1117H10.9349L11.7843 28.3121L15.1617 24.5122L12.8415 22.112H16.4423C16.1553 22.9857 16 23.9192 16 24.8889C16 27.7966 17.3962 30.3783 19.5547 32H6.63098V29.8802C6.33258 30.4504 6.03289 31.1502 5.75114 32ZM16.6341 21.5855C17.7321 18.8443 20.1558 16.7773 23.1123 16.1776C23.3269 15.4634 23.4366 14.7203 23.4366 13.9718H15.7746H8.11268C8.11268 14.978 8.31086 15.9744 8.6959 16.9039C9.08096 17.8335 9.64533 18.6781 10.3568 19.3896C11.0683 20.1011 11.9129 20.6655 12.8425 21.0506C13.7721 21.4356 14.7685 21.6338 15.7746 21.6338C16.0624 21.6338 16.3493 21.6176 16.6341 21.5855ZM25.7778 24.6183C25.7778 25.1307 25.3814 25.5485 24.8889 25.5485C24.3964 25.5485 24 25.1337 24 24.6183V18.7079C24 18.1956 24.3964 17.7778 24.8889 17.7778C25.3785 17.7778 25.7778 18.1925 25.7778 18.7079V24.6183ZM27.437 18.7229C27.7037 18.2878 28.2607 18.1561 28.6844 18.4318C30.7615 19.789 32 22.1111 32 24.6507C32 28.7037 28.8089 32 24.8859 32C20.9659 32 17.7778 28.7037 17.7778 24.6507C17.7778 22.0835 19.037 19.7461 21.1467 18.392C21.5733 18.1194 22.1304 18.2572 22.3941 18.6953C22.6578 19.1364 22.5244 19.7124 22.1007 19.985C20.5274 20.9929 19.5881 22.736 19.5881 24.6476C19.5881 27.6713 21.9674 30.1282 24.8889 30.1282C27.8133 30.1282 30.1926 27.6682 30.1926 24.6476C30.1926 22.7575 29.2681 21.0235 27.7185 20.0126C27.2978 19.7369 27.1704 19.1609 27.437 18.7229Z" fill="white"/>
</svg>
