<svg width="16" height="16" viewBox="0 0 16 16" fill="none" xmlns="http://www.w3.org/2000/svg">
<path fill-rule="evenodd" clip-rule="evenodd" d="M8.97794 0.434851H3.58238L3.71186 0.506302C3.78987 0.548942 3.78987 0.656119 3.71186 0.698759L2.94784 1.1194C2.86983 1.16204 2.77252 1.10864 2.77252 1.02298V0.434851H2.06158C1.72702 0.434851 1.4568 0.692997 1.4568 1.01107V14.7235C1.4568 14.8887 1.52918 15.0377 1.6458 15.1426C1.75437 15.2402 1.90074 15.2997 2.06158 15.2997H7.89947C8.0571 15.4576 8.2284 15.6032 8.41096 15.7346H2.06158C1.80744 15.7346 1.57422 15.6493 1.39166 15.5071C1.1528 15.3216 1 15.0393 1 14.7235V1.01107C1 0.452906 1.4753 0 2.06158 0H9.20634L14.1298 4.66659V7.85729H14.7668C14.8319 7.85729 14.8906 7.88264 14.9332 7.92375C14.9743 7.9637 15 8.01902 15 8.07971V12.3065C15 12.3237 14.9984 12.3406 14.9944 12.3568C14.8697 10.2916 13.0755 8.65401 10.8824 8.65401C10.1618 8.65401 9.4846 8.83071 8.89511 9.14149H7.96301V9.52563H8.29756C7.37753 10.2351 6.78401 11.3157 6.76551 12.5289H6.44543C6.31595 12.5289 6.2114 12.4294 6.2114 12.3065V8.07971C6.2114 7.95678 6.31595 7.85729 6.44543 7.85729H13.673V4.88401H10.2671C9.55538 4.88401 8.97794 4.33392 8.97794 3.65552V0.434851ZM13.2532 4.44954L9.43394 0.829752V3.65552C9.43394 4.09383 9.8071 4.44954 10.2671 4.44954H13.2532ZM3.48909 8.91407C3.41108 8.87143 3.41108 8.76426 3.48909 8.72162L4.2531 8.30098C4.33111 8.25834 4.42842 8.31173 4.42842 8.3974V9.23829C4.42842 9.32395 4.33111 9.37735 4.2531 9.33433L3.48909 8.91407ZM3.71186 7.9587C3.78987 8.00173 3.78987 8.1089 3.71186 8.15155L2.94784 8.5718C2.90763 8.59408 2.86179 8.59024 2.82721 8.56988C2.79504 8.55067 2.77252 8.51687 2.77252 8.47576V7.63487C2.77252 7.54921 2.86983 7.49581 2.94784 7.53845L3.71186 7.9587ZM3.74885 6.64339C3.75931 6.62918 3.76654 6.61305 3.76896 6.59653C3.77619 6.5535 3.75689 6.50741 3.71186 6.48244L2.94784 6.06218C2.86983 6.01916 2.77252 6.07294 2.77252 6.1586V6.99911C2.77252 7.08478 2.86983 7.13817 2.94784 7.09553L3.71186 6.67528C3.72714 6.66683 3.7392 6.65569 3.74885 6.64339ZM3.71186 4.97582C3.78987 5.01846 3.78987 5.12564 3.71186 5.16828L2.94784 5.58892C2.86983 5.63156 2.77252 5.57816 2.77252 5.4925V4.65161C2.77252 4.64123 2.77413 4.63125 2.77734 4.62203C2.77976 4.61319 2.78297 4.60474 2.7878 4.59706C2.81756 4.54635 2.88833 4.52292 2.94784 4.55557L3.71186 4.97582ZM3.71186 3.68202C3.78987 3.639 3.78987 3.53221 3.71186 3.48918L2.94784 3.06893C2.86983 3.02629 2.77252 3.07969 2.77252 3.16535V4.00586C2.77252 4.09152 2.86983 4.1453 2.94784 4.10228L3.71186 3.68202ZM3.76896 2.11625C3.76413 2.14775 3.74483 2.17733 3.71186 2.19539L2.94784 2.61564C2.86983 2.65866 2.77252 2.60527 2.77252 2.5196V1.67871C2.77252 1.59305 2.86983 1.53965 2.94784 1.58229L3.71186 2.00293C3.75689 2.02751 3.77619 2.07361 3.76896 2.11625ZM3.48909 7.23075C3.45611 7.24919 3.43681 7.27877 3.43199 7.31065C3.42475 7.35329 3.44405 7.39901 3.48909 7.42359L4.2531 7.84385C4.33111 7.88649 4.42842 7.83309 4.42842 7.74743V6.90692C4.42842 6.84661 4.38017 6.80243 4.32468 6.79628C4.30136 6.79359 4.27642 6.79782 4.2531 6.8105L3.48909 7.23075ZM3.48909 5.93273C3.41108 5.89009 3.41108 5.78291 3.48909 5.74027L4.2531 5.31963C4.33111 5.27699 4.42842 5.33039 4.42842 5.41605V6.25694C4.42842 6.34261 4.33111 6.39601 4.2531 6.35298L3.48909 5.93273ZM3.48909 4.24941C3.41108 4.29243 3.41108 4.39922 3.48909 4.44225L4.2531 4.8625C4.27964 4.8771 4.3094 4.88056 4.33594 4.87518C4.3866 4.86442 4.42842 4.82217 4.42842 4.76608V3.92557C4.42842 3.83991 4.33111 3.78613 4.2531 3.82915L3.48909 4.24941ZM3.48909 2.95138C3.41108 2.90874 3.41108 2.80157 3.48909 2.75893L4.2531 2.33829C4.33111 2.29565 4.42842 2.34904 4.42842 2.43471V3.2756C4.42842 3.36126 4.33111 3.41466 4.2531 3.37164L3.48909 2.95138ZM3.48909 1.26806C3.41108 1.31108 3.41108 1.41788 3.48909 1.4609L4.2531 1.88116C4.33111 1.9238 4.42842 1.8704 4.42842 1.78474V0.944227C4.42842 0.858563 4.33111 0.804783 4.2531 0.847807L3.48909 1.26806ZM2.40097 12.2104L2.75643 9.8898H4.40188L4.76298 12.2104L3.57916 13.1105L2.40097 12.2104ZM3.57353 12.696L4.36972 12.084L4.30618 11.7199H2.84651L2.7886 12.084L3.57353 12.696ZM13.3047 12.5235C13.3047 11.2101 12.19 10.1453 10.8156 10.1453C9.44037 10.1453 8.32571 11.2101 8.32571 12.5235C8.32571 13.8373 9.44037 14.9021 10.8156 14.9021C12.19 14.9021 13.3047 13.8373 13.3047 12.5235ZM10.8156 9.04737C12.8254 9.04737 14.4539 10.6039 14.4539 12.5235C14.4539 14.4434 12.8254 16 10.8156 16C8.80584 16 7.17647 14.4434 7.17647 12.5235C7.17647 10.6039 8.80584 9.04737 10.8156 9.04737ZM11.1164 10.7292C11.1646 10.7879 11.1936 10.8621 11.1936 10.9424V12.215H12.5262C12.7264 12.215 12.8897 12.3702 12.8897 12.5619C12.8897 12.7536 12.7264 12.9092 12.5262 12.9092H11.1936V14.1818C11.1936 14.2687 11.1598 14.3482 11.1051 14.4089C11.0384 14.4822 10.9403 14.5287 10.8309 14.5287C10.6298 14.5287 10.4674 14.3735 10.4674 14.1818V12.9092H9.13477C9.10018 12.9092 9.06721 12.9046 9.03585 12.8961C9.0077 12.8884 8.98035 12.8777 8.95542 12.8638C8.84605 12.8039 8.77206 12.691 8.77206 12.5619C8.77206 12.3702 8.93451 12.215 9.13477 12.215H10.4674V10.9424C10.4674 10.8694 10.4907 10.8014 10.5309 10.7453C10.5969 10.6546 10.7062 10.5951 10.8309 10.5951C10.9475 10.5951 11.0504 10.6477 11.1164 10.7292Z" fill="#383192"/>
</svg>
