<svg width="515" height="344" viewBox="0 0 515 344" fill="none" xmlns="http://www.w3.org/2000/svg">
<g opacity="0.8">
<path opacity="0.7" d="M320.327 62.9814C320.327 62.9814 266.239 43.6865 213.144 74.4061C160.051 105.125 133.261 166.106 110.255 214.954C87.25 263.803 100.492 313.49 141.022 336.146C181.552 358.801 209.112 325.404 265.969 323.777C322.826 322.151 338.117 330.306 385.298 298.082C432.478 265.859 441.006 189.757 403.789 133.448C366.571 77.1388 320.327 62.9814 320.327 62.9814Z" fill="#C3C1DE"/>
<path d="M40.4058 280.634C41.5374 280.938 44.1255 280.488 44.1275 280.488C44.1543 280.483 43.3138 278.869 43.2493 278.773C42.5001 277.664 40.4024 275.964 38.9665 276.383C37.9317 276.685 37.5033 277.833 37.8912 278.793C38.2867 279.775 39.4424 280.374 40.4058 280.634Z" fill="#17213A"/>
<path d="M58.015 308.677H58.9517C58.9482 308.667 58.9448 308.658 58.9414 308.647C58.699 307.968 58.427 307.247 58.14 306.509C58.3028 306.414 59.2236 305.868 60.0201 305.251C60.9004 305.958 62.9851 306.627 63.255 306.712C63.0909 307.393 62.9247 308.054 62.7578 308.676H63.6684C63.8201 308.045 63.9712 307.382 64.1195 306.696C64.4065 306.713 66.7529 306.832 67.7781 306.433C68.7078 306.069 69.7914 305.348 70.0791 304.33C70.3606 303.333 69.8106 302.239 68.749 302.051C67.2761 301.791 65.3747 303.709 64.7505 304.892C64.7135 304.962 64.3983 305.764 64.2081 306.273C64.2747 305.957 64.3427 305.65 64.4072 305.324C64.5397 304.678 64.6524 304.031 64.776 303.335C64.824 302.996 64.8728 302.655 64.9215 302.309C64.9771 301.968 64.9929 301.601 65.0307 301.243C65.1014 300.412 65.1317 299.566 65.144 298.714C65.7078 298.828 67.7163 299.206 68.6948 298.987C69.6685 298.77 70.8488 298.221 71.2869 297.258C71.7161 296.316 71.3377 295.15 70.3167 294.803C68.9001 294.322 66.7309 295.93 65.9344 297.005C65.8842 297.072 65.4001 297.908 65.1426 298.371C65.1461 297.859 65.1516 297.348 65.1385 296.829C65.1001 295.332 65.0142 293.817 64.936 292.307C64.9112 291.844 64.8927 291.383 64.8728 290.92C65.0733 290.964 67.4505 291.464 68.5464 291.219C69.5201 291.001 70.7005 290.453 71.1386 289.49C71.5678 288.547 71.1894 287.382 70.1684 287.036C68.7518 286.554 66.5826 288.162 65.786 289.237C65.7263 289.318 65.03 290.521 64.868 290.836C64.8233 289.818 64.7883 288.804 64.7938 287.803C64.8 286.421 64.8824 285.067 65.0589 283.76C65.1516 283.78 67.6311 284.313 68.7538 284.063C69.7275 283.846 70.9079 283.297 71.346 282.334C71.7752 281.391 71.3968 280.227 70.3757 279.879C68.9584 279.398 66.79 281.006 65.9934 282.08C65.9309 282.165 65.1832 283.46 65.0644 283.704C65.0753 283.626 65.0774 283.544 65.0891 283.467C65.2951 282.075 65.6693 280.751 66.0806 279.53C66.3182 278.819 66.5846 278.154 66.8586 277.512C67.3104 277.659 69.3814 278.307 70.4162 278.193C71.4085 278.084 72.6417 277.669 73.1821 276.76C73.7122 275.87 73.4637 274.67 72.4872 274.214C71.1317 273.579 68.7991 274.939 67.89 275.919C67.8406 275.972 67.3983 276.571 67.0818 277.01C67.2095 276.723 67.3365 276.423 67.4643 276.15C67.9429 275.123 68.4448 274.212 68.8953 273.409C69.1555 272.955 69.3993 272.549 69.6314 272.172C70.1491 272.084 72.2332 271.705 73.0839 271.137C73.9134 270.582 74.8178 269.645 74.8803 268.588C74.9414 267.554 74.1689 266.604 73.0922 266.649C71.5973 266.712 70.1526 268.995 69.7969 270.285C69.766 270.397 69.4851 272.196 69.5119 272.192C69.5119 272.192 69.5373 272.187 69.5435 272.187C69.3121 272.545 69.069 272.933 68.8122 273.361C68.3432 274.156 67.8206 275.058 67.3173 276.079C66.8119 277.098 66.2921 278.219 65.8506 279.449C65.4063 280.682 65.0019 282.001 64.7608 283.415C64.7581 283.431 64.7574 283.448 64.7547 283.464C64.697 283.028 64.4958 281.816 64.4697 281.725C64.103 280.438 62.6391 278.167 61.1435 278.117C60.0668 278.081 59.3025 279.037 59.3719 280.071C59.4433 281.127 60.3545 282.057 61.1895 282.605C62.1309 283.223 64.5425 283.595 64.7348 283.624C64.5171 284.972 64.4038 286.373 64.366 287.797C64.344 288.612 64.3468 289.433 64.3598 290.256C64.298 289.881 64.2404 289.546 64.2266 289.5C63.8593 288.213 62.396 285.943 60.9004 285.892C59.823 285.855 59.0588 286.812 59.1288 287.846C59.1995 288.902 60.1114 289.832 60.9457 290.38C61.7931 290.935 63.8428 291.294 64.3859 291.382C64.3942 291.698 64.399 292.013 64.4093 292.329C64.4553 293.843 64.5075 295.354 64.5137 296.838C64.5164 297.361 64.4992 297.875 64.4841 298.391C64.4292 298.058 64.3798 297.778 64.3674 297.736C64 296.449 62.5367 294.178 61.0419 294.128C59.9645 294.092 59.2002 295.048 59.2703 296.082C59.3417 297.138 60.2529 298.068 61.0879 298.616C61.8961 299.146 63.7851 299.494 64.4306 299.601C64.3997 300.129 64.3688 300.657 64.3152 301.167C64.2706 301.514 64.2513 301.851 64.1875 302.197C64.1312 302.541 64.0756 302.882 64.0199 303.219C63.8895 303.864 63.759 304.532 63.6162 305.158C63.52 305.595 63.4205 306.009 63.3209 306.426C63.3243 305.906 63.3106 304.886 63.2996 304.801C63.1877 303.919 62.6617 302.536 61.8906 301.625C61.8748 301.495 61.848 301.366 61.8082 301.241C61.4944 300.254 60.4328 299.645 59.444 300.075C58.0713 300.672 57.5426 303.324 57.6731 304.655C57.6806 304.733 57.8592 305.577 57.9807 306.107C57.8619 305.807 57.75 305.513 57.6243 305.205C57.3792 304.594 57.1169 303.992 56.8367 303.342C56.6905 303.033 56.5428 302.722 56.3938 302.406C56.2524 302.091 56.0635 301.776 55.898 301.456C55.4991 300.724 55.0589 300.002 54.5996 299.284C55.1331 299.068 57.0166 298.273 57.7115 297.55C58.4044 296.83 59.0862 295.72 58.9221 294.675C58.7608 293.652 57.8042 292.889 56.7619 293.165C55.3151 293.546 54.3908 296.086 54.3187 297.423C54.3146 297.506 54.3702 298.47 54.4107 299C54.1313 298.571 53.8545 298.141 53.5579 297.716C52.7016 296.488 51.7966 295.273 50.8991 294.055C50.6238 293.683 50.3546 293.308 50.0827 292.935C50.2736 292.86 52.532 291.963 53.3114 291.153C54.0035 290.433 54.6861 289.323 54.522 288.278C54.3606 287.255 53.4041 286.492 52.3617 286.768C50.9149 287.149 49.9907 289.689 49.9186 291.026C49.9131 291.126 49.9955 292.514 50.0339 292.867C49.4365 292.043 48.8487 291.217 48.3021 290.378C47.5468 289.222 46.8698 288.047 46.2971 286.86C46.3863 286.825 48.7478 285.899 49.5457 285.07C50.2385 284.351 50.9211 283.241 50.7563 282.196C50.5956 281.172 49.6384 280.41 48.596 280.685C47.1492 281.067 46.2257 283.606 46.1529 284.943C46.1474 285.048 46.2366 286.541 46.2717 286.811C46.238 286.741 46.1948 286.671 46.1618 286.6C45.5671 285.324 45.151 284.014 44.8207 282.767C44.6278 282.044 44.4836 281.341 44.3586 280.655C44.8159 280.527 46.9007 279.923 47.7013 279.257C48.469 278.617 49.269 277.589 49.2195 276.532C49.1715 275.497 48.3035 274.634 47.2378 274.792C45.758 275.012 44.5612 277.435 44.3428 278.756C44.3311 278.828 44.2906 279.571 44.2693 280.113C44.2178 279.802 44.1588 279.482 44.1148 279.184C43.9487 278.062 43.8656 277.025 43.799 276.106C43.7653 275.583 43.7454 275.11 43.7317 274.667C44.1155 274.307 45.6447 272.84 46.0409 271.895C46.4282 270.973 46.6651 269.692 46.1357 268.776C45.6173 267.88 44.4499 267.515 43.5765 268.147C42.3645 269.026 42.4167 271.729 42.8294 273.002C42.8651 273.112 43.6218 274.767 43.6417 274.75C43.6417 274.75 43.6603 274.732 43.6651 274.728C43.6699 275.155 43.6802 275.612 43.7015 276.112C43.7475 277.034 43.8086 278.075 43.9514 279.205C44.0908 280.334 44.2742 281.557 44.5832 282.827C44.8915 284.1 45.2801 285.425 45.8576 286.737C45.8638 286.752 45.8727 286.766 45.8796 286.781C45.5919 286.449 44.7562 285.55 44.6841 285.489C43.6699 284.618 41.1986 283.533 39.9234 284.318C39.0054 284.883 38.8941 286.103 39.5217 286.926C40.1624 287.768 41.4348 288.04 42.4325 288.035C43.558 288.03 45.7745 287.007 45.9503 286.925C46.5113 288.17 47.1877 289.401 47.941 290.61C48.3708 291.301 48.8254 291.985 49.2889 292.664C49.0307 292.385 48.7979 292.138 48.7622 292.107C47.7473 291.236 45.276 290.152 44.0015 290.936C43.0828 291.501 42.9722 292.721 43.5998 293.545C44.2405 294.386 45.5129 294.658 46.5106 294.653C47.5235 294.649 49.4303 293.815 49.9323 293.588C50.1129 293.846 50.2907 294.106 50.4727 294.364C51.3448 295.602 52.2203 296.834 53.0422 298.068C53.332 298.503 53.6011 298.942 53.8731 299.38C53.6437 299.133 53.4487 298.927 53.4151 298.898C52.4002 298.028 49.9295 296.943 48.6544 297.727C47.7356 298.293 47.6251 299.513 48.2527 300.336C48.8934 301.178 50.1658 301.449 51.1635 301.445C52.1296 301.44 53.8971 300.686 54.4945 300.419C54.7589 300.876 55.0246 301.334 55.2601 301.789C55.4139 302.103 55.5842 302.395 55.7209 302.719C55.863 303.037 56.0038 303.352 56.1439 303.664C56.3904 304.274 56.6493 304.903 56.8745 305.504C57.0345 305.921 57.1794 306.323 57.327 306.726C57.0434 306.29 56.4707 305.447 56.4144 305.382C55.5437 304.367 53.2647 302.92 51.8859 303.502C50.8929 303.921 50.599 305.11 51.0948 306.02C51.6009 306.949 52.817 307.411 53.8044 307.557C54.8914 307.719 57.1478 307.082 57.4293 307C57.6367 307.576 57.8324 308.135 58.015 308.677Z" fill="#17213A"/>
<path d="M66.757 277.248C66.7824 277.259 66.9699 275.447 66.9685 275.332C66.9541 273.994 66.1404 271.416 64.7114 270.972C63.6821 270.652 62.6933 271.373 62.488 272.388C62.2786 273.425 62.9124 274.563 63.5729 275.312C64.3496 276.192 66.7556 277.246 66.757 277.248Z" fill="#17213A"/>
<path d="M217.749 113.333H143.111V258.989H217.749V113.333Z" fill="#17213A"/>
<path d="M204.179 113.333H143.111V258.989H204.179V113.333Z" fill="#5A6580"/>
<path d="M218.625 113.333H141.505V115.709H218.625V113.333Z" fill="#A8B1C7"/>
<path d="M218.625 108.578H141.505V110.955H218.625V108.578Z" fill="#A8B1C7"/>
<path d="M217.006 110.956H143.111V113.332H217.006V110.956Z" fill="#5A6580"/>
<path d="M160.378 121.907H148.908V133.378H160.378V121.907Z" fill="#17213A"/>
<path d="M160.379 121.907H149.92V133.378H160.379V121.907Z" fill="#F2F2F2"/>
<path d="M177.747 121.907H166.276V133.378H177.747V121.907Z" fill="#17213A"/>
<path d="M177.747 121.907H167.288V133.378H177.747V121.907Z" fill="#F2F2F2"/>
<path d="M195.117 121.907H183.646V133.378H195.117V121.907Z" fill="#17213A"/>
<path d="M195.117 121.907H184.658V133.378H195.117V121.907Z" fill="#F2F2F2"/>
<path d="M160.378 138.797H148.908V150.267H160.378V138.797Z" fill="#17213A"/>
<path d="M160.379 138.797H149.92V150.267H160.379V138.797Z" fill="#F2F2F2"/>
<path d="M177.747 138.796H166.276V150.267H177.747V138.796Z" fill="#17213A"/>
<path d="M177.747 138.796H167.288V150.267H177.747V138.796Z" fill="#F2F2F2"/>
<path d="M195.117 138.796H183.646V150.267H195.117V138.796Z" fill="#17213A"/>
<path d="M195.117 138.796H184.658V150.267H195.117V138.796Z" fill="#F2F2F2"/>
<path d="M160.378 169.727H148.908V181.197H160.378V169.727Z" fill="#17213A"/>
<path d="M160.379 169.727H149.92V181.197H160.379V169.727Z" fill="#F2F2F2"/>
<path d="M177.747 169.727H166.276V181.197H177.747V169.727Z" fill="#17213A"/>
<path d="M177.747 169.727H167.288V181.197H177.747V169.727Z" fill="#F2F2F2"/>
<path d="M195.117 169.727H183.646V181.197H195.117V169.727Z" fill="#17213A"/>
<path d="M195.117 169.727H184.658V181.197H195.117V169.727Z" fill="#F2F2F2"/>
<path d="M160.378 186.616H148.908V198.086H160.378V186.616Z" fill="#17213A"/>
<path d="M160.379 186.616H149.92V198.086H160.379V186.616Z" fill="#F2F2F2"/>
<path d="M177.747 186.617H166.276V198.087H177.747V186.617Z" fill="#17213A"/>
<path d="M177.747 186.617H167.288V198.087H177.747V186.617Z" fill="#F2F2F2"/>
<path d="M195.117 186.616H183.646V198.086H195.117V186.616Z" fill="#17213A"/>
<path d="M195.117 186.616H184.658V198.086H195.117V186.616Z" fill="#F2F2F2"/>
<path d="M160.378 220.989H148.908V232.46H160.378V220.989Z" fill="#17213A"/>
<path d="M160.379 220.989H149.92V232.46H160.379V220.989Z" fill="#F2F2F2"/>
<path d="M177.747 220.989H166.276V232.46H177.747V220.989Z" fill="#17213A"/>
<path d="M177.747 220.989H167.288V232.46H177.747V220.989Z" fill="#F2F2F2"/>
<path d="M195.117 220.989H183.646V232.46H195.117V220.989Z" fill="#17213A"/>
<path d="M195.117 220.989H184.658V232.46H195.117V220.989Z" fill="#F2F2F2"/>
<path d="M160.378 237.879H148.908V249.349H160.378V237.879Z" fill="#17213A"/>
<path d="M160.379 237.879H149.92V249.349H160.379V237.879Z" fill="#F2F2F2"/>
<path d="M177.747 237.878H166.276V249.349H177.747V237.878Z" fill="#17213A"/>
<path d="M177.747 237.878H167.288V249.349H177.747V237.878Z" fill="#F2F2F2"/>
<path d="M195.117 237.878H183.646V249.349H195.117V237.878Z" fill="#17213A"/>
<path d="M195.117 237.878H184.658V249.349H195.117V237.878Z" fill="#F2F2F2"/>
<path d="M217.749 158.333H143.111V159.394H217.749V158.333Z" fill="#A8B1C7"/>
<path d="M217.749 211.2H143.111V212.261H217.749V211.2Z" fill="#A8B1C7"/>
<path d="M130.506 156.948H78.8838V282.559H130.506V156.948Z" fill="#A8B1C7"/>
<path d="M115.803 156.948H78.8838V282.559H115.803V156.948Z" fill="#5A6580"/>
<path d="M96.4292 167.271H82.6895V173.941H96.4292V167.271Z" fill="#17213A"/>
<path d="M96.4279 167.271H83.6035V173.941H96.4279V167.271Z" fill="#F2F2F2"/>
<path d="M112.321 167.271H98.582V173.941H112.321V167.271Z" fill="#17213A"/>
<path d="M112.32 167.271H99.4961V173.941H112.32V167.271Z" fill="#F2F2F2"/>
<path d="M96.4292 179.826H82.6895V186.496H96.4292V179.826Z" fill="#17213A"/>
<path d="M96.4279 179.826H83.6035V186.496H96.4279V179.826Z" fill="#F2F2F2"/>
<path d="M112.321 179.826H98.582V186.496H112.321V179.826Z" fill="#17213A"/>
<path d="M112.32 179.826H99.4961V186.496H112.32V179.826Z" fill="#F2F2F2"/>
<path d="M96.4292 195.871H82.6895V202.541H96.4292V195.871Z" fill="#17213A"/>
<path d="M96.4279 195.871H83.6035V202.541H96.4279V195.871Z" fill="#F2F2F2"/>
<path d="M112.321 195.871H98.582V202.541H112.321V195.871Z" fill="#17213A"/>
<path d="M112.32 195.871H99.4961V202.541H112.32V195.871Z" fill="#F2F2F2"/>
<path d="M96.4292 205.09H82.6895V211.761H96.4292V205.09Z" fill="#17213A"/>
<path d="M96.4279 205.09H83.6035V211.761H96.4279V205.09Z" fill="#F2F2F2"/>
<path d="M112.321 205.09H98.582V211.761H112.321V205.09Z" fill="#17213A"/>
<path d="M112.32 205.09H99.4961V211.761H112.32V205.09Z" fill="#F2F2F2"/>
<path d="M96.4292 220.236H82.6895V226.906H96.4292V220.236Z" fill="#17213A"/>
<path d="M96.4279 220.236H83.6035V226.906H96.4279V220.236Z" fill="#F2F2F2"/>
<path d="M112.321 220.236H98.582V226.906H112.321V220.236Z" fill="#17213A"/>
<path d="M112.32 220.236H99.4961V226.906H112.32V220.236Z" fill="#F2F2F2"/>
<path d="M96.4292 229.456H82.6895V236.125H96.4292V229.456Z" fill="#17213A"/>
<path d="M96.4279 229.456H83.6035V236.125H96.4279V229.456Z" fill="#F2F2F2"/>
<path d="M112.321 229.456H98.582V236.125H112.321V229.456Z" fill="#17213A"/>
<path d="M112.32 229.456H99.4961V236.125H112.32V229.456Z" fill="#F2F2F2"/>
<path d="M96.4292 245.938H82.6895V252.609H96.4292V245.938Z" fill="#17213A"/>
<path d="M96.4279 245.938H83.6035V252.609H96.4279V245.938Z" fill="#F2F2F2"/>
<path d="M112.321 245.938H98.582V252.609H112.321V245.938Z" fill="#17213A"/>
<path d="M112.32 245.938H99.4961V252.609H112.32V245.938Z" fill="#F2F2F2"/>
<path d="M96.4292 258.114H82.6895V264.784H96.4292V258.114Z" fill="#17213A"/>
<path d="M96.4279 258.114H83.6035V264.784H96.4279V258.114Z" fill="#F2F2F2"/>
<path d="M112.321 258.114H98.582V264.784H112.321V258.114Z" fill="#17213A"/>
<path d="M112.32 258.114H99.4961V264.784H112.32V258.114Z" fill="#F2F2F2"/>
<path opacity="0.05" d="M130.506 190.609H78.8838V191.756H130.506V190.609Z" fill="black"/>
<path opacity="0.05" d="M130.506 215.424H78.8838V216.572H130.506V215.424Z" fill="black"/>
<path opacity="0.05" d="M130.506 240.459H78.8838V241.606H130.506V240.459Z" fill="black"/>
<path d="M130.506 153.232H76.4531V157.244H130.506V153.232Z" fill="#A8B1C7"/>
<path opacity="0.05" d="M130.506 153.232H118.154V157.244H130.506V153.232Z" fill="black"/>
<path d="M309.207 91.5215H248.589V249.063H309.207V91.5215Z" fill="#17213A"/>
<path d="M286.771 91.521H226.149V249.063H286.771V91.521Z" fill="#5A6580"/>
<path d="M281.48 102.217H231.438V110.242H281.48V102.217Z" fill="#17213A"/>
<path d="M281.48 102.217H233.381V110.242H281.48V102.217Z" fill="#F2F2F2"/>
<path d="M281.48 115.723H231.438V123.747H281.48V115.723Z" fill="#17213A"/>
<path d="M281.48 115.723H233.381V123.747H281.48V115.723Z" fill="#F2F2F2"/>
<path d="M281.48 129.762H231.438V137.787H281.48V129.762Z" fill="#17213A"/>
<path d="M281.48 129.762H233.381V137.787H281.48V129.762Z" fill="#F2F2F2"/>
<path d="M281.48 143.801H231.438V151.825H281.48V143.801Z" fill="#17213A"/>
<path d="M281.48 143.801H233.381V151.825H281.48V143.801Z" fill="#F2F2F2"/>
<path d="M281.48 157.839H231.438V165.864H281.48V157.839Z" fill="#17213A"/>
<path d="M281.48 157.839H233.381V165.864H281.48V157.839Z" fill="#F2F2F2"/>
<path d="M281.48 171.878H231.438V179.902H281.48V171.878Z" fill="#17213A"/>
<path d="M281.48 171.878H233.381V179.902H281.48V171.878Z" fill="#F2F2F2"/>
<path d="M281.48 187.349H231.438V195.373H281.48V187.349Z" fill="#17213A"/>
<path d="M281.48 187.349H233.381V195.373H281.48V187.349Z" fill="#F2F2F2"/>
<path d="M281.48 202.821H231.438V210.845H281.48V202.821Z" fill="#17213A"/>
<path d="M281.48 202.821H233.381V210.845H281.48V202.821Z" fill="#F2F2F2"/>
<path d="M281.48 218.292H231.438V226.316H281.48V218.292Z" fill="#17213A"/>
<path d="M281.48 218.292H233.381V226.316H281.48V218.292Z" fill="#F2F2F2"/>
<path d="M281.48 233.764H231.438V241.789H281.48V233.764Z" fill="#17213A"/>
<path d="M281.48 233.764H233.381V241.789H281.48V233.764Z" fill="#F2F2F2"/>
<path d="M310.78 89.9355H224.435V93.7798H310.78V89.9355Z" fill="#A8B1C7"/>
<path d="M310.78 83H224.435V86.8442H310.78V83Z" fill="#A8B1C7"/>
<path d="M307.912 86.0913H226.149V89.9355H307.912V86.0913Z" fill="#5A6580"/>
<path d="M309.207 102.214H292.316V110.242H309.207V102.214Z" fill="#A8B1C7"/>
<path d="M309.207 115.423H292.316V123.451H309.207V115.423Z" fill="#A8B1C7"/>
<path d="M309.207 128.632H292.316V136.66H309.207V128.632Z" fill="#A8B1C7"/>
<path d="M309.207 143.799H292.316V151.827H309.207V143.799Z" fill="#A8B1C7"/>
<path d="M309.207 157.837H292.316V165.865H309.207V157.837Z" fill="#A8B1C7"/>
<path d="M309.207 171.876H292.316V179.904H309.207V171.876Z" fill="#A8B1C7"/>
<path d="M309.207 187.347H292.316V195.375H309.207V187.347Z" fill="#A8B1C7"/>
<path d="M309.207 202.819H292.316V210.847H309.207V202.819Z" fill="#A8B1C7"/>
<path d="M309.207 218.292H292.316V226.319H309.207V218.292Z" fill="#A8B1C7"/>
<path d="M309.207 233.762H292.316V241.79H309.207V233.762Z" fill="#A8B1C7"/>
<path d="M446.415 212.361H441.552V219.967H446.415V212.361Z" fill="#A8B1C7"/>
<path d="M446.415 224.809H441.552V232.414H446.415V224.809Z" fill="#A8B1C7"/>
<path d="M446.415 236.904H441.552V244.51H446.415V236.904Z" fill="#A8B1C7"/>
<path d="M446.415 249.695H441.552V257.301H446.415V249.695Z" fill="#A8B1C7"/>
<path d="M446.415 262.14H441.552V269.746H446.415V262.14Z" fill="#A8B1C7"/>
<path d="M446.415 204.72H395.267V282.511H446.415V204.72Z" fill="#17213A"/>
<path d="M437.775 204.718H395.27V282.509H437.775V204.718Z" fill="#5A6580"/>
<path d="M433.659 212.365H399.092V219.97H433.659V212.365Z" fill="#17213A"/>
<path d="M433.659 224.809H399.092V232.414H433.659V224.809Z" fill="#17213A"/>
<path d="M433.659 237.253H399.092V244.858H433.659V237.253Z" fill="#17213A"/>
<path d="M433.659 249.696H399.092V257.301H433.659V249.696Z" fill="#17213A"/>
<path d="M433.659 262.14H399.092V269.745H433.659V262.14Z" fill="#17213A"/>
<path d="M433.659 212.365H400.368V219.97H433.659V212.365Z" fill="#F2F2F2"/>
<path d="M433.659 224.808H400.368V232.413H433.659V224.808Z" fill="#F2F2F2"/>
<path d="M433.659 237.253H400.368V244.858H433.659V237.253Z" fill="#F2F2F2"/>
<path d="M433.659 249.696H400.368V257.301H433.659V249.696Z" fill="#F2F2F2"/>
<path d="M433.659 262.14H400.368V269.745H433.659V262.14Z" fill="#F2F2F2"/>
<path d="M230.071 139.231H142.994V309.162H230.071V139.231Z" fill="#DAD9E9"/>
<path d="M214.239 139.231H142.994V309.162H214.239V139.231Z" fill="#B2AED1"/>
<path d="M231.096 139.229H141.12V141.999H231.096V139.229Z" fill="#DAD9E9"/>
<path d="M231.096 133.68H141.12V136.46H231.096V133.68Z" fill="#DAD9E9"/>
<path d="M229.207 136.459H142.997V139.229H229.207V136.459Z" fill="#CBCBD7"/>
<path d="M163.14 149.234H149.758V162.616H163.14V149.234Z" fill="#8E8AAF"/>
<path d="M163.139 149.234H150.938V162.616H163.139V149.234Z" fill="#DBD9EB"/>
<path d="M183.403 149.234H170.021V162.616H183.403V149.234Z" fill="#8E8AAF"/>
<path d="M183.402 149.234H171.2V162.616H183.402V149.234Z" fill="#DBD9EB"/>
<path d="M203.666 149.234H190.284V162.616H203.666V149.234Z" fill="#8E8AAF"/>
<path d="M203.666 149.234H191.464V162.616H203.666V149.234Z" fill="#DBD9EB"/>
<path d="M163.14 168.938H149.758V182.319H163.14V168.938Z" fill="#8E8AAF"/>
<path d="M163.139 168.938H150.938V182.319H163.139V168.938Z" fill="#DBD9EB"/>
<path d="M183.403 168.938H170.021V182.319H183.403V168.938Z" fill="#8E8AAF"/>
<path d="M183.402 168.938H171.2V182.319H183.402V168.938Z" fill="#DBD9EB"/>
<path d="M203.666 168.938H190.284V182.319H203.666V168.938Z" fill="#8E8AAF"/>
<path d="M203.666 168.938H191.464V182.319H203.666V168.938Z" fill="#DBD9EB"/>
<path d="M163.14 205.024H149.758V218.406H163.14V205.024Z" fill="#8E8AAF"/>
<path d="M163.139 205.024H150.938V218.406H163.139V205.024Z" fill="#DBD9EB"/>
<path d="M183.403 205.023H170.021V218.405H183.403V205.023Z" fill="#8E8AAF"/>
<path d="M183.402 205.023H171.2V218.405H183.402V205.023Z" fill="#DBD9EB"/>
<path d="M203.666 205.024H190.284V218.406H203.666V205.024Z" fill="#8E8AAF"/>
<path d="M203.666 205.024H191.464V218.406H203.666V205.024Z" fill="#DBD9EB"/>
<path d="M163.14 224.728H149.758V238.109H163.14V224.728Z" fill="#8E8AAF"/>
<path d="M163.139 224.728H150.938V238.109H163.139V224.728Z" fill="#DBD9EB"/>
<path d="M183.403 224.728H170.021V238.109H183.403V224.728Z" fill="#8E8AAF"/>
<path d="M183.402 224.728H171.2V238.109H183.402V224.728Z" fill="#DBD9EB"/>
<path d="M203.666 224.728H190.284V238.109H203.666V224.728Z" fill="#8E8AAF"/>
<path d="M203.666 224.728H191.464V238.109H203.666V224.728Z" fill="#DBD9EB"/>
<path d="M163.14 264.829H149.758V278.211H163.14V264.829Z" fill="#8E8AAF"/>
<path d="M163.139 264.829H150.938V278.211H163.139V264.829Z" fill="#DBD9EB"/>
<path d="M183.403 264.829H170.021V278.211H183.403V264.829Z" fill="#8E8AAF"/>
<path d="M183.402 264.829H171.2V278.211H183.402V264.829Z" fill="#DBD9EB"/>
<path d="M203.666 264.829H190.284V278.211H203.666V264.829Z" fill="#8E8AAF"/>
<path d="M203.666 264.829H191.464V278.211H203.666V264.829Z" fill="#DBD9EB"/>
<path d="M163.14 284.533H149.758V297.915H163.14V284.533Z" fill="#8E8AAF"/>
<path d="M163.139 284.533H150.938V297.915H163.139V284.533Z" fill="#DBD9EB"/>
<path d="M183.403 284.533H170.021V297.915H183.403V284.533Z" fill="#8E8AAF"/>
<path d="M183.402 284.533H171.2V297.915H183.402V284.533Z" fill="#DBD9EB"/>
<path d="M203.666 284.533H190.284V297.915H203.666V284.533Z" fill="#8E8AAF"/>
<path d="M203.666 284.533H191.464V297.915H203.666V284.533Z" fill="#DBD9EB"/>
<path opacity="0.2" d="M230.071 191.73H142.994V192.968H230.071V191.73Z" fill="white"/>
<path opacity="0.2" d="M230.071 253.409H142.994V254.647H230.071V253.409Z" fill="white"/>
<path d="M349.967 162.616H289.741V309.162H349.967V162.616Z" fill="#DAD9E9"/>
<path d="M335.556 162.616H289.741V309.162H335.556V162.616Z" fill="#B2AED1"/>
<path d="M310.211 174.66H294.181V182.441H310.211V174.66Z" fill="#8E8AAF"/>
<path d="M310.21 174.66H295.249V182.441H310.21V174.66Z" fill="#DBD9EB"/>
<path d="M328.75 174.66H312.721V182.441H328.75V174.66Z" fill="#8E8AAF"/>
<path d="M328.75 174.66H313.788V182.441H328.75V174.66Z" fill="#DBD9EB"/>
<path d="M310.211 189.306H294.181V197.088H310.211V189.306Z" fill="#8E8AAF"/>
<path d="M310.21 189.306H295.249V197.088H310.21V189.306Z" fill="#DBD9EB"/>
<path d="M328.75 189.306H312.721V197.088H328.75V189.306Z" fill="#8E8AAF"/>
<path d="M328.75 189.306H313.788V197.088H328.75V189.306Z" fill="#DBD9EB"/>
<path d="M310.211 208.026H294.181V215.808H310.211V208.026Z" fill="#8E8AAF"/>
<path d="M310.21 208.026H295.249V215.808H310.21V208.026Z" fill="#DBD9EB"/>
<path d="M328.75 208.026H312.721V215.808H328.75V208.026Z" fill="#8E8AAF"/>
<path d="M328.75 208.026H313.788V215.808H328.75V208.026Z" fill="#DBD9EB"/>
<path d="M310.211 218.782H294.181V226.563H310.211V218.782Z" fill="#8E8AAF"/>
<path d="M310.21 218.782H295.249V226.563H310.21V218.782Z" fill="#DBD9EB"/>
<path d="M328.75 218.782H312.721V226.563H328.75V218.782Z" fill="#8E8AAF"/>
<path d="M328.75 218.782H313.788V226.563H328.75V218.782Z" fill="#DBD9EB"/>
<path d="M310.211 236.452H294.181V244.234H310.211V236.452Z" fill="#8E8AAF"/>
<path d="M310.21 236.452H295.249V244.234H310.21V236.452Z" fill="#DBD9EB"/>
<path d="M328.75 236.452H312.721V244.234H328.75V236.452Z" fill="#8E8AAF"/>
<path d="M328.75 236.452H313.788V244.234H328.75V236.452Z" fill="#DBD9EB"/>
<path d="M310.211 247.208H294.181V254.99H310.211V247.208Z" fill="#8E8AAF"/>
<path d="M310.21 247.208H295.249V254.99H310.21V247.208Z" fill="#DBD9EB"/>
<path d="M328.75 247.208H312.721V254.99H328.75V247.208Z" fill="#8E8AAF"/>
<path d="M328.75 247.208H313.788V254.99H328.75V247.208Z" fill="#DBD9EB"/>
<path d="M310.211 266.438H294.181V274.22H310.211V266.438Z" fill="#8E8AAF"/>
<path d="M310.21 266.438H295.249V274.22H310.21V266.438Z" fill="#DBD9EB"/>
<path d="M328.75 266.438H312.721V274.22H328.75V266.438Z" fill="#8E8AAF"/>
<path d="M328.75 266.438H313.788V274.22H328.75V266.438Z" fill="#DBD9EB"/>
<path d="M310.211 280.642H294.181V288.424H310.211V280.642Z" fill="#8E8AAF"/>
<path d="M310.21 280.642H295.249V288.424H310.21V280.642Z" fill="#DBD9EB"/>
<path d="M328.75 280.642H312.721V288.424H328.75V280.642Z" fill="#8E8AAF"/>
<path d="M328.75 280.642H313.788V288.424H328.75V280.642Z" fill="#DBD9EB"/>
<path d="M349.966 158.282H286.904V162.964H349.966V158.282Z" fill="#A8A4C7"/>
<path opacity="0.2" d="M349.967 158.282H335.556V162.964H349.967V158.282Z" fill="#767295"/>
<path d="M289.742 227.323H284.068V236.197H289.742V227.323Z" fill="#E0E0E0"/>
<path d="M289.742 241.844H284.068V250.718H289.742V241.844Z" fill="#E0E0E0"/>
<path d="M289.742 255.957H284.068V264.83H289.742V255.957Z" fill="#E0E0E0"/>
<path d="M289.742 270.879H284.068V279.753H289.742V270.879Z" fill="#E0E0E0"/>
<path d="M289.742 285.397H284.068V294.271H289.742V285.397Z" fill="#E0E0E0"/>
<path d="M289.741 218.408H230.068V309.163H289.741V218.408Z" fill="#DAD9E9"/>
<path d="M279.66 218.406H230.07V309.162H279.66V218.406Z" fill="#B2AED1"/>
<path d="M273.101 227.328H233.652V236.2H273.101V227.328Z" fill="#8E8AAF"/>
<path d="M273.101 241.844H233.652V250.716H273.101V241.844Z" fill="#8E8AAF"/>
<path d="M273.101 256.363H233.652V265.235H273.101V256.363Z" fill="#8E8AAF"/>
<path d="M273.101 270.88H233.652V279.752H273.101V270.88Z" fill="#8E8AAF"/>
<path d="M273.101 285.399H233.652V294.271H273.101V285.399Z" fill="#8E8AAF"/>
<path d="M274.859 227.328H234.531V236.2H274.859V227.328Z" fill="#DBD9EB"/>
<path d="M274.859 241.844H234.531V250.716H274.859V241.844Z" fill="#DBD9EB"/>
<path d="M274.859 256.363H234.531V265.235H274.859V256.363Z" fill="#DBD9EB"/>
<path d="M274.859 270.88H234.531V279.752H274.859V270.88Z" fill="#DBD9EB"/>
<path d="M274.859 285.399H234.531V294.271H274.859V285.399Z" fill="#DBD9EB"/>
<path d="M107.222 246.282H67.1885V309.162H131.07V246.282V218.406L107.222 246.282Z" fill="#DAD9E9"/>
<path d="M230.071 142.003H214.238V309.163H230.071V142.003Z" fill="#DAD9E9"/>
<path d="M289.74 218.406H279.66V309.164H289.74V218.406Z" fill="#DAD9E9"/>
<path opacity="0.7" d="M349.967 162.962H335.556V309.163H349.967V162.962Z" fill="#DBD9EB"/>
<path opacity="0.5" d="M358.403 137.844H356.138V147.206H358.403V137.844Z" fill="white"/>
<path opacity="0.5" d="M358.403 153.6H356.138V162.962H358.403V153.6Z" fill="white"/>
<path opacity="0.5" d="M358.403 169.979H356.138V179.341H358.403V169.979Z" fill="white"/>
<path opacity="0.5" d="M358.403 186.357H356.138V195.719H358.403V186.357Z" fill="white"/>
<path opacity="0.5" d="M358.403 202.734H356.138V212.096H358.403V202.734Z" fill="white"/>
<path opacity="0.5" d="M358.403 219.113H356.138V228.475H358.403V219.113Z" fill="white"/>
<path opacity="0.5" d="M358.403 237.164H356.138V246.525H358.403V237.164Z" fill="white"/>
<path opacity="0.5" d="M358.403 255.213H356.138V264.575H358.403V255.213Z" fill="white"/>
<path opacity="0.5" d="M358.403 273.263H356.138V282.625H358.403V273.263Z" fill="white"/>
<path opacity="0.5" d="M358.403 291.314H356.138V300.676H358.403V291.314Z" fill="white"/>
<path d="M446.867 125.366H376.146V309.163H446.867V125.366Z" fill="#DAD9E9"/>
<path d="M420.692 125.364H349.967V309.163H420.692V125.364Z" fill="#DAD9E9"/>
<path d="M446.867 128H420.69V309.164H446.867V128Z" fill="#DBD9EB"/>
<path d="M446.867 137.84H427.162V147.206H446.867V137.84Z" fill="#DAD9E9"/>
<path d="M446.867 153.25H427.162V162.617H446.867V153.25Z" fill="#DAD9E9"/>
<path d="M446.867 168.66H427.162V178.026H446.867V168.66Z" fill="#DAD9E9"/>
<path d="M446.867 186.354H427.162V195.721H446.867V186.354Z" fill="#DAD9E9"/>
<path d="M446.867 202.732H427.162V212.099H446.867V202.732Z" fill="#DAD9E9"/>
<path d="M446.867 219.111H427.162V228.477H446.867V219.111Z" fill="#DAD9E9"/>
<path d="M446.867 237.162H427.162V246.528H446.867V237.162Z" fill="#DAD9E9"/>
<path d="M446.867 255.211H427.162V264.577H446.867V255.211Z" fill="#DAD9E9"/>
<path d="M446.867 273.262H427.162V282.628H446.867V273.262Z" fill="#DAD9E9"/>
<path d="M446.867 291.311H427.162V300.677H446.867V291.311Z" fill="#DAD9E9"/>
<path opacity="0.3" d="M446.867 137.84H427.162V147.206H446.867V137.84Z" fill="#B2AED1"/>
<path opacity="0.3" d="M446.867 153.25H427.162V162.617H446.867V153.25Z" fill="#B2AED1"/>
<path opacity="0.3" d="M446.867 168.66H427.162V178.026H446.867V168.66Z" fill="#B2AED1"/>
<path opacity="0.3" d="M446.867 186.354H427.162V195.721H446.867V186.354Z" fill="#B2AED1"/>
<path opacity="0.3" d="M446.867 202.732H427.162V212.099H446.867V202.732Z" fill="#B2AED1"/>
<path opacity="0.3" d="M446.867 219.111H427.162V228.477H446.867V219.111Z" fill="#B2AED1"/>
<path opacity="0.3" d="M446.867 237.162H427.162V246.528H446.867V237.162Z" fill="#B2AED1"/>
<path opacity="0.3" d="M446.867 255.211H427.162V264.577H446.867V255.211Z" fill="#B2AED1"/>
<path opacity="0.3" d="M446.867 273.262H427.162V282.628H446.867V273.262Z" fill="#B2AED1"/>
<path opacity="0.3" d="M446.867 291.311H427.162V300.677H446.867V291.311Z" fill="#B2AED1"/>
<path d="M420.692 125.364H349.967V309.163H420.692V125.364Z" fill="#B2AED1"/>
<path d="M414.52 137.843H356.138V147.205H414.52V137.843Z" fill="#8E8AAF"/>
<path d="M414.519 137.843H358.403V147.205H414.519V137.843Z" fill="#DBD9EB"/>
<path d="M414.52 153.601H356.138V162.962H414.52V153.601Z" fill="#8E8AAF"/>
<path d="M414.519 153.601H358.403V162.962H414.519V153.601Z" fill="#DBD9EB"/>
<path d="M414.52 169.979H356.138V179.341H414.52V169.979Z" fill="#8E8AAF"/>
<path d="M414.519 169.979H358.403V179.341H414.519V169.979Z" fill="#DBD9EB"/>
<path d="M414.52 186.356H356.138V195.718H414.52V186.356Z" fill="#8E8AAF"/>
<path d="M414.519 186.356H358.403V195.718H414.519V186.356Z" fill="#DBD9EB"/>
<path d="M414.52 202.735H356.138V212.097H414.52V202.735Z" fill="#8E8AAF"/>
<path d="M414.519 202.735H358.403V212.097H414.519V202.735Z" fill="#DBD9EB"/>
<path d="M414.52 219.113H356.138V228.475H414.52V219.113Z" fill="#8E8AAF"/>
<path d="M414.519 219.113H358.403V228.475H414.519V219.113Z" fill="#DBD9EB"/>
<path d="M414.52 237.164H356.138V246.525H414.52V237.164Z" fill="#8E8AAF"/>
<path d="M414.519 237.164H358.403V246.525H414.519V237.164Z" fill="#DBD9EB"/>
<path d="M414.52 255.213H356.138V264.575H414.52V255.213Z" fill="#8E8AAF"/>
<path d="M414.519 255.213H358.403V264.575H414.519V255.213Z" fill="#DBD9EB"/>
<path d="M414.52 273.263H356.138V282.625H414.52V273.263Z" fill="#8E8AAF"/>
<path d="M414.519 273.263H358.403V282.625H414.519V273.263Z" fill="#DBD9EB"/>
<path d="M414.52 291.313H356.138V300.675H414.52V291.313Z" fill="#8E8AAF"/>
<path d="M414.519 291.313H358.403V300.675H414.519V291.313Z" fill="#DBD9EB"/>
<path d="M445.356 119.908H420.69V123.515H445.356V119.908Z" fill="#DAD9E9"/>
<path d="M445.357 119.029H349.967V123.515H445.357V119.029Z" fill="#DBD9EB"/>
<path d="M448.702 123.515H347.966V128H448.702V123.515Z" fill="#A8A4C7"/>
<path d="M448.702 115.423H347.966V119.908H448.702V115.423Z" fill="#A8A4C7"/>
<path d="M349.967 201.671H289.741V203.01H349.967V201.671Z" fill="#CECCE3"/>
<path d="M349.967 230.622H289.741V231.961H349.967V230.622Z" fill="#CECCE3"/>
<path d="M349.967 259.828H289.741V261.166H349.967V259.828Z" fill="#CECCE3"/>
<path d="M335.568 259.828H289.741V261.166H335.568V259.828Z" fill="#9591AD"/>
<path d="M335.568 230.72H289.741V232.058H335.568V230.72Z" fill="#9591AD"/>
<path d="M335.568 201.612H289.741V202.95H335.568V201.612Z" fill="#9591AD"/>
<path opacity="0.2" d="M231.095 139.229H214.238V142.004H231.095V139.229Z" fill="black"/>
<path opacity="0.2" d="M231.095 133.682H214.238V136.456H231.095V133.682Z" fill="black"/>
<path opacity="0.2" d="M448.702 123.515H420.69V128H448.702V123.515Z" fill="#A8A4C7"/>
<path opacity="0.2" d="M448.702 115.423H420.69V119.908H448.702V115.423Z" fill="#A8A4C7"/>
<path d="M107.222 246.282H67.1885V309.162H131.07V246.282V218.406L107.222 246.282Z" fill="#B2AED1"/>
<path d="M82.4884 259.031H72.9824V268.538H82.4884V259.031Z" fill="#8E8AAF"/>
<path d="M101.831 259.031H92.3242V268.538H101.831V259.031Z" fill="#8E8AAF"/>
<path d="M121.172 259.031H111.666V268.538H121.172V259.031Z" fill="#8E8AAF"/>
<path d="M82.4884 275.028H72.9824V284.535H82.4884V275.028Z" fill="#8E8AAF"/>
<path d="M101.831 275.028H92.3242V284.535H101.831V275.028Z" fill="#8E8AAF"/>
<path d="M121.172 275.028H111.666V284.535H121.172V275.028Z" fill="#8E8AAF"/>
<path d="M82.4884 291.023H72.9824V300.529H82.4884V291.023Z" fill="#8E8AAF"/>
<path d="M101.831 291.023H92.3242V300.529H101.831V291.023Z" fill="#8E8AAF"/>
<path d="M121.172 291.023H111.666V300.529H121.172V291.023Z" fill="#8E8AAF"/>
<path d="M83.5381 259.031H74.0312V268.538H83.5381V259.031Z" fill="#DBD9EB"/>
<path d="M102.879 259.031H93.373V268.538H102.879V259.031Z" fill="#DBD9EB"/>
<path d="M122.222 259.031H112.715V268.538H122.222V259.031Z" fill="#DBD9EB"/>
<path d="M83.5381 275.028H74.0312V284.535H83.5381V275.028Z" fill="#DBD9EB"/>
<path d="M102.879 275.028H93.373V284.535H102.879V275.028Z" fill="#DBD9EB"/>
<path d="M122.222 275.028H112.715V284.535H122.222V275.028Z" fill="#DBD9EB"/>
<path d="M83.5381 291.023H74.0312V300.529H83.5381V291.023Z" fill="#DBD9EB"/>
<path d="M102.879 291.023H93.373V300.529H102.879V291.023Z" fill="#DBD9EB"/>
<path d="M122.222 291.023H112.715V300.529H122.222V291.023Z" fill="#DBD9EB"/>
<path d="M16.3389 308.677H496.198" stroke="#17213A" stroke-miterlimit="10" stroke-linecap="round" stroke-linejoin="round"/>
<path d="M454.529 91.8131C454.529 91.8131 453.095 86.7886 446.29 84.276C439.484 81.7635 433.394 83.9169 431.245 85.7119C429.096 87.5062 427.663 90.0188 425.872 90.0188C424.081 90.0188 419.424 87.5062 415.126 89.3012C410.827 91.0955 411.185 93.6081 409.394 94.6848C407.603 95.7615 404.737 93.9672 401.513 94.6848C398.289 95.4024 395.065 98.2741 394.707 99.3508C394.348 100.428 393.632 100.068 390.767 100.068C387.901 100.068 385.035 104.016 385.035 104.016H476.022C476.022 104.016 472.082 95.4024 466.708 93.9665C461.335 92.5307 458.469 95.4024 457.394 95.0432C456.319 94.6841 454.529 91.8131 454.529 91.8131Z" fill="#F3F4F6" stroke="#17213A" stroke-miterlimit="10" stroke-linecap="round" stroke-linejoin="round"/>
<path d="M282.838 33.0622C282.838 33.0622 281.954 29.9616 277.754 28.4116C273.554 26.8616 269.796 28.1901 268.47 29.2977C267.144 30.4053 266.259 31.9553 265.154 31.9553C264.048 31.9553 261.175 30.4053 258.522 31.5122C255.869 32.6199 256.09 34.1698 254.985 34.8344C253.879 35.499 252.111 34.3914 250.122 34.8344C248.133 35.2775 246.143 37.049 245.922 37.7135C245.701 38.3781 245.258 38.1566 243.49 38.1566C241.722 38.1566 239.953 40.5926 239.953 40.5926H296.101C296.101 40.5926 293.67 35.2775 290.354 34.3914C287.038 33.5053 285.27 35.2775 284.606 35.0559C283.944 34.8337 282.838 33.0622 282.838 33.0622Z" fill="#F3F4F6" stroke="#17213A" stroke-miterlimit="10" stroke-linecap="round" stroke-linejoin="round"/>
<path d="M66.8509 42.807C66.8509 42.807 65.9665 39.7064 61.7668 38.1557C57.5665 36.6058 53.809 37.9342 52.4824 39.0418C51.1558 40.1494 50.272 41.6994 49.1665 41.6994C48.061 41.6994 45.1873 40.1494 42.5347 41.2564C39.8821 42.364 40.1032 43.914 38.9976 44.5785C37.8921 45.2431 36.1239 44.1355 34.1347 44.5785C32.1454 45.0216 30.1554 46.7931 29.9343 47.4577C29.7132 48.1222 29.271 47.9007 27.5028 47.9007C25.7347 47.9007 23.9658 50.3368 23.9658 50.3368H80.1139C80.1139 50.3368 77.6824 45.0216 74.3665 44.1355C71.0506 43.2494 69.2824 45.0216 68.6191 44.8001C67.9564 44.5785 66.8509 42.807 66.8509 42.807Z" fill="#F3F4F6" stroke="#17213A" stroke-miterlimit="10" stroke-linecap="round" stroke-linejoin="round"/>
<path d="M458.088 308.14V224.991H463.972V308.14H458.088Z" fill="#17213A" stroke="#17213A"/>
<path d="M464.472 224.492C464.472 224.671 462.931 224.816 461.03 224.816C459.129 224.816 457.588 224.671 457.588 224.492C457.588 224.313 459.129 224.167 461.03 224.167C462.931 224.167 464.472 224.312 464.472 224.492Z" fill="#DBD9EB"/>
<path opacity="0.2" d="M464.472 277.351L457.588 276.852V271.662H464.472V277.351Z" fill="#383192"/>
<path d="M500.698 230.905L425.456 224.296L421.369 271.04L496.611 277.649L500.698 230.905Z" fill="#383192"/>
<path d="M497.329 230.609L422.087 224L418 270.744L493.242 277.353L497.329 230.609Z" fill="#CEC8FF"/>
<path opacity="0.4" d="M497.686 237.881L483.572 237.233L497.589 238.997L497.686 237.881Z" fill="#383192"/>
<path opacity="0.4" d="M497.087 239.472L488.379 239.594L496.941 241.146L497.087 239.472Z" fill="#383192"/>
<path opacity="0.4" d="M419.028 258.877L426.64 258.954L419.126 257.761L419.028 258.877Z" fill="#383192"/>
<path opacity="0.4" d="M419.799 250.066L426.351 249.754L419.945 248.392L419.799 250.066Z" fill="#383192"/>
<path d="M492.241 249.599L489.849 249.413L489.318 256.232L487.62 256.1L488.151 249.28L485.76 249.094L485.866 247.729L492.347 248.234L492.241 249.599Z" fill="#383192"/>
<path d="M485.066 247.666L484.428 255.851L483.554 255.783C483.422 255.772 483.313 255.743 483.226 255.695C483.139 255.643 483.057 255.56 482.978 255.448L479.305 249.941C479.306 250.074 479.303 250.204 479.297 250.332C479.294 250.461 479.289 250.58 479.28 250.689L478.912 255.421L477.417 255.304L478.055 247.12L478.946 247.19C479.017 247.195 479.077 247.204 479.126 247.215C479.178 247.223 479.224 247.24 479.263 247.265C479.303 247.287 479.341 247.317 479.376 247.354C479.411 247.39 479.449 247.439 479.489 247.499L483.189 253.03C483.186 252.886 483.185 252.748 483.188 252.616C483.191 252.48 483.197 252.352 483.206 252.232L483.571 247.55L485.066 247.666Z" fill="#383192"/>
<path d="M473.402 248.092L473.238 250.195L475.968 250.408L475.869 251.689L473.139 251.476L472.971 253.625L476.48 253.898L476.376 255.224L471.165 254.818L471.802 246.633L477.014 247.039L476.911 248.365L473.402 248.092Z" fill="#383192"/>
<path d="M470.323 246.518L469.685 254.702L468.19 254.586L468.582 249.56C468.59 249.455 468.601 249.342 468.614 249.222C468.631 249.103 468.652 248.981 468.676 248.858L465.99 253.115C465.843 253.349 465.636 253.456 465.369 253.436L465.132 253.417C465 253.407 464.886 253.368 464.789 253.3C464.693 253.228 464.619 253.129 464.568 253.004L462.563 248.365C462.564 248.498 462.564 248.626 462.562 248.751C462.56 248.872 462.555 248.985 462.546 249.09L462.155 254.116L460.66 253.999L461.298 245.815L462.584 245.915C462.655 245.921 462.719 245.928 462.775 245.936C462.831 245.944 462.879 245.959 462.919 245.981C462.963 246 463.001 246.029 463.032 246.069C463.067 246.106 463.098 246.158 463.127 246.224L465.077 250.768C465.138 250.906 465.194 251.046 465.243 251.19C465.296 251.334 465.345 251.482 465.39 251.633C465.458 251.487 465.528 251.344 465.599 251.206C465.674 251.068 465.753 250.936 465.834 250.81L468.446 246.639C468.485 246.577 468.525 246.531 468.565 246.5C468.605 246.466 468.647 246.442 468.689 246.431C468.736 246.415 468.786 246.408 468.839 246.408C468.895 246.409 468.961 246.412 469.037 246.418L470.323 246.518Z" fill="#383192"/>
<path d="M460.402 247.119L458.01 246.933L457.479 253.752L455.781 253.62L456.313 246.8L453.921 246.614L454.027 245.249L460.508 245.754L460.402 247.119Z" fill="#383192"/>
<path d="M450.061 248.839C450.335 248.861 450.575 248.845 450.779 248.793C450.984 248.737 451.155 248.654 451.292 248.544C451.43 248.429 451.535 248.292 451.608 248.131C451.681 247.97 451.725 247.792 451.741 247.597C451.771 247.209 451.665 246.899 451.422 246.664C451.183 246.43 450.8 246.292 450.274 246.251L449.394 246.183L449.192 248.772L450.061 248.839ZM453.69 253.457L452.162 253.338C451.876 253.316 451.677 253.191 451.567 252.963L450.205 250.332C450.149 250.229 450.083 250.152 450.008 250.101C449.936 250.05 449.825 250.018 449.675 250.006L449.099 249.962L448.856 253.081L447.164 252.949L447.802 244.765L450.374 244.965C450.945 245.01 451.43 245.108 451.826 245.26C452.223 245.408 452.543 245.598 452.786 245.828C453.029 246.059 453.2 246.326 453.297 246.629C453.395 246.927 453.43 247.252 453.403 247.601C453.382 247.872 453.322 248.127 453.224 248.365C453.13 248.6 453.002 248.811 452.84 248.999C452.678 249.187 452.484 249.35 452.257 249.487C452.031 249.625 451.777 249.73 451.495 249.802C451.599 249.871 451.695 249.952 451.783 250.046C451.87 250.136 451.947 250.242 452.013 250.365L453.69 253.457Z" fill="#383192"/>
<path d="M444.031 249.577L443.341 247.004C443.299 246.868 443.254 246.709 443.208 246.528C443.165 246.347 443.126 246.151 443.089 245.94C443.02 246.146 442.948 246.338 442.874 246.513C442.804 246.686 442.737 246.836 442.675 246.963L441.6 249.388L444.031 249.577ZM446.632 252.907L445.318 252.804C445.171 252.793 445.053 252.75 444.965 252.675C444.88 252.596 444.819 252.501 444.783 252.388L444.352 250.782L441.092 250.528L440.417 252.048C440.372 252.139 440.3 252.22 440.199 252.292C440.1 252.36 439.978 252.388 439.835 252.377L438.51 252.274L442.346 244.339L444.077 244.473L446.632 252.907Z" fill="#383192"/>
<path d="M436.279 247.962C436.809 248.003 437.207 247.906 437.471 247.669C437.739 247.433 437.89 247.093 437.925 246.649C437.941 246.446 437.923 246.259 437.872 246.089C437.825 245.915 437.742 245.765 437.623 245.638C437.509 245.508 437.358 245.404 437.171 245.325C436.984 245.246 436.759 245.196 436.496 245.176L435.424 245.092L435.207 247.879L436.279 247.962ZM436.596 243.89C437.157 243.933 437.635 244.037 438.031 244.2C438.43 244.364 438.752 244.574 438.997 244.831C439.242 245.085 439.414 245.378 439.513 245.712C439.616 246.045 439.652 246.401 439.623 246.781C439.591 247.184 439.497 247.547 439.339 247.871C439.181 248.196 438.96 248.468 438.674 248.688C438.388 248.908 438.037 249.069 437.62 249.173C437.204 249.273 436.723 249.302 436.178 249.259L435.106 249.176L434.887 251.991L433.195 251.859L433.833 243.674L436.596 243.89Z" fill="#383192"/>
<path d="M430.062 248.489L429.372 245.916C429.329 245.78 429.285 245.622 429.239 245.44C429.196 245.259 429.156 245.063 429.12 244.852C429.051 245.059 428.979 245.25 428.905 245.426C428.835 245.598 428.768 245.748 428.705 245.875L427.631 248.3L430.062 248.489ZM432.663 251.819L431.349 251.716C431.202 251.705 431.084 251.662 430.996 251.587C430.911 251.508 430.85 251.413 430.814 251.3L430.383 249.695L427.122 249.441L426.448 250.96C426.403 251.051 426.33 251.132 426.23 251.204C426.13 251.272 426.009 251.3 425.866 251.289L424.541 251.186L428.376 243.251L430.108 243.386L432.663 251.819Z" fill="#383192"/>
</g>
</svg>
