<svg width="24" height="24" viewBox="0 0 24 24" fill="none" xmlns="http://www.w3.org/2000/svg">
<path fill-rule="evenodd" clip-rule="evenodd" d="M8.60087 11.7857V9.17467C8.327 9.28426 8.07095 9.28674 7.85813 9.21104C7.692 9.15266 7.55173 9.04798 7.44876 8.91268C7.34587 8.77757 7.2804 8.6131 7.2604 8.43157C7.23005 8.15026 7.31071 7.83221 7.54118 7.53385C7.55286 7.5192 7.56579 7.5046 7.58095 7.49243L14.2545 2.06732C14.341 1.98449 14.4744 1.97583 14.5702 2.05398L21.259 7.46941C21.2696 7.47779 21.279 7.48645 21.2882 7.49748C21.5982 7.84449 21.6755 8.22947 21.6005 8.55476C21.5641 8.71205 21.491 8.85758 21.3877 8.9785C21.2849 9.0991 21.1546 9.19086 21.0089 9.24533C20.7748 9.33292 20.4965 9.3306 20.2146 9.19163V13.0537C20.0168 13.0732 19.8135 13.1136 19.6062 13.1771C19.5907 13.1815 19.575 13.1864 19.5596 13.1916V8.89209C19.5596 8.76903 14.9715 4.99189 14.4649 4.58145C13.9282 5.0065 9.25575 8.75324 9.25575 8.9115V11.8573C9.19528 11.8425 9.1346 11.8287 9.07372 11.8159C9.00564 11.8015 8.93645 11.7936 8.867 11.7922L8.60087 11.7857ZM2 12.2019H5.12547L4.9477 20.2071H2V12.2019ZM5.82622 19.5606L5.97481 12.916L8.8445 12.9857C10.056 13.2424 11.2572 13.9588 12.456 14.7861L14.685 14.8402C15.6925 14.9279 16.1971 16.0057 15.2013 16.6816C14.406 17.2595 13.3758 17.2008 12.3212 17.0764C11.5933 17.0213 11.5385 18.0409 12.2991 18.0629C12.5624 18.0905 12.8513 18.0332 13.102 18.039C14.4212 18.0696 15.5138 17.8334 16.203 16.7642L16.5555 15.9597L19.9093 14.3282C21.5813 13.7995 22.7199 15.6357 21.4694 16.8627C19.0274 18.6242 16.5308 20.0619 13.985 21.2102C12.1295 22.3248 10.3009 22.241 8.49638 21.077L5.82622 19.5606ZM14.6626 8.47388V10.6649H16.5504V10.6588C16.5504 10.0546 16.313 9.50541 15.9305 9.10726C15.5971 8.75983 15.1538 8.52734 14.6626 8.47388ZM14.6626 11.1279V13.0304H16.5504V11.1279H14.6626ZM14.2182 13.0295V11.1279H12.3307V13.0304H14.2182V13.0295ZM14.2182 10.6649V8.47388C13.726 8.5286 13.2837 8.75983 12.9504 9.10726C12.568 9.50541 12.3304 10.0546 12.3304 10.6588V10.6649H14.2182ZM14.4404 7.9986C15.1435 7.9986 15.7819 8.2983 16.2439 8.77936C16.7071 9.26177 16.9936 9.92695 16.9936 10.6576V13.4908H12.1124C12.0684 13.4791 12.0262 13.4611 11.987 13.4372C11.9528 13.4162 11.9192 13.3904 11.8861 13.3611V10.6576C11.8861 9.92557 12.1739 9.26046 12.6358 8.77936C13.0989 8.2983 13.7376 7.9986 14.4404 7.9986ZM20.2286 2.62588V5.34277L18.2205 3.96268V2.62588H20.2286Z" fill="#17213A"/>
</svg>
