<svg width="24" height="24" viewBox="0 0 24 24" fill="none" xmlns="http://www.w3.org/2000/svg">
<path fill-rule="evenodd" clip-rule="evenodd" d="M2.60037 22C2.44114 22 2.28844 21.938 2.17584 21.8277C2.06325 21.7174 2 21.5678 2 21.4118V3.80161V2.58824C2 2.43223 2.06325 2.28261 2.17584 2.17229C2.28844 2.06197 2.44114 2 2.60037 2C2.7596 2 2.9123 2.06197 3.0249 2.17229C3.13749 2.28261 3.20074 2.43223 3.20074 2.58824V3.21338H7.83191H16.1679H21.3996C21.5589 3.21338 21.7116 3.27535 21.8242 3.38567C21.9367 3.49598 22 3.6456 22 3.80161C22 3.95762 21.9367 4.10724 21.8242 4.21756C21.7116 4.32787 21.5589 4.38985 21.3996 4.38985H16.7683V6.10514C16.7683 6.10515 16.7683 6.10517 16.7683 6.10518H17.8779C18.2537 6.10518 18.5587 6.35506 18.5587 6.66329V18.428C18.5587 18.7362 18.2537 18.9861 17.8779 18.9861H6.12262C5.74631 18.9861 5.44132 18.7362 5.44132 18.428V6.66329C5.44132 6.35506 5.74631 6.10518 6.12262 6.10518H7.23154C7.23154 6.10517 7.23154 6.10515 7.23154 6.10514V4.38985H3.20074V21.4118C3.20074 21.5678 3.13749 21.7174 3.0249 21.8277C2.9123 21.938 2.7596 22 2.60037 22ZM8.43228 4.38985V6.10514C8.43228 6.10515 8.43228 6.10517 8.43228 6.10518H15.5676C15.5676 6.10517 15.5676 6.10515 15.5676 6.10514V4.38985H8.43228ZM14.4351 7.54259H15.8006V9.98376L14.4351 8.83506V7.54259ZM16.5357 17.5713H7.46409V12.7732L12 8.95718L16.5357 12.7729V17.5713ZM17.6754 12.6466C17.6132 12.7176 17.5247 12.7614 17.4294 12.7685C17.3342 12.7755 17.24 12.7452 17.1675 12.6842L16.5357 12.1527L12 8.33694L7.46409 12.1529L6.8325 12.6842C6.79672 12.7152 6.75502 12.7388 6.70983 12.7539C6.66464 12.7689 6.61685 12.775 6.56924 12.7717C6.52163 12.7685 6.47515 12.756 6.4325 12.7351C6.38985 12.7141 6.35188 12.685 6.32079 12.6495C6.28971 12.6141 6.26613 12.5729 6.25142 12.5284C6.23671 12.4839 6.23117 12.437 6.23512 12.3904C6.23907 12.3438 6.25243 12.2985 6.27443 12.257C6.29642 12.2155 6.32661 12.1787 6.36325 12.1487L11.7666 7.604C11.8319 7.54907 11.9151 7.51887 12.0012 7.51887C12.0873 7.51887 12.1705 7.54907 12.2358 7.604L17.6392 12.1487C17.6749 12.1791 17.7042 12.216 17.7254 12.2575C17.7465 12.2989 17.7592 12.3441 17.7625 12.3903C17.7659 12.4365 17.7599 12.483 17.745 12.5269C17.73 12.5709 17.7064 12.6116 17.6754 12.6466ZM13.1158 11.2409C13.1158 10.6548 12.6161 10.1797 11.9999 10.1797C11.3836 10.1797 10.8839 10.6548 10.8839 11.2409C10.8839 11.827 11.3836 12.3023 11.9999 12.3023C12.6161 12.3023 13.1158 11.827 13.1158 11.2409ZM10.523 13.5009H13.4768V17.1007H10.523V13.5009Z" fill="#17213A"/>
</svg>
