<svg width="16" height="18" viewBox="0 0 16 18" fill="none" xmlns="http://www.w3.org/2000/svg">
<path fill-rule="evenodd" clip-rule="evenodd" d="M8.62683 1.93514C8.49404 1.93004 8.3043 1.92864 8.00996 1.92864H5.49641C4.82346 1.92864 4.37524 1.92939 4.03085 1.95828C3.69742 1.98625 3.54485 2.03572 3.44819 2.08629C3.18313 2.22496 2.96763 2.44624 2.83257 2.7184C2.78332 2.81765 2.73514 2.9743 2.7079 3.31666C2.67976 3.67028 2.67903 4.13051 2.67903 4.82148V13.1786C2.67903 13.8696 2.67976 14.3298 2.7079 14.6834C2.73514 15.0258 2.78332 15.1824 2.83257 15.2817C2.96763 15.5538 3.18313 15.7751 3.44819 15.9138C3.54485 15.9644 3.69742 16.0138 4.03085 16.0418C4.37524 16.0707 4.82346 16.0714 5.49641 16.0714H10.5051C11.178 16.0714 11.6263 16.0707 11.9706 16.0418C12.3041 16.0138 12.4566 15.9644 12.5533 15.9138C12.8184 15.7751 13.0339 15.5538 13.1689 15.2817C13.2182 15.1824 13.2663 15.0258 13.2936 14.6834C13.3217 14.3298 13.3225 13.8696 13.3225 13.1786V7.38344C13.3225 7.08122 13.3211 6.8864 13.3161 6.75005L10.7902 6.75005C10.5954 6.75008 10.3971 6.75012 10.2276 6.7359C10.0391 6.72008 9.80507 6.68196 9.56691 6.55736C9.24294 6.38787 8.97955 6.11743 8.81449 5.78478C8.69314 5.54025 8.65602 5.29999 8.64061 5.10636C8.62676 4.93232 8.62679 4.72873 8.62683 4.52875C8.62683 4.51918 8.62683 4.50961 8.62683 4.50006V1.93514ZM9.93189 0.29255C9.74814 0.208436 9.55699 0.141694 9.36078 0.0933271C8.97996 -0.00054803 8.5863 -0.000286748 8.09795 3.74149e-05C8.06896 5.66118e-05 8.03964 7.60385e-05 8.00996 7.60385e-05L5.4587 7.54638e-05C4.83336 6.10949e-05 4.30789 4.89118e-05 3.8779 0.0361224C3.42832 0.0738384 3.00105 0.155745 2.59548 0.367927C1.97701 0.691499 1.47417 1.20781 1.15904 1.84285C0.95239 2.25928 0.87262 2.69799 0.835888 3.15962C0.800756 3.60113 0.800768 4.14067 0.800782 4.78276V13.2173C0.800768 13.8594 0.800756 14.3989 0.835888 14.8405C0.87262 15.3021 0.95239 15.7408 1.15904 16.1572C1.47417 16.7923 1.977 17.3086 2.59548 17.6321C3.00105 17.8443 3.42832 17.9262 3.8779 17.964C4.30789 18 4.83335 18 5.45868 18H10.5428C11.1681 18 11.6936 18 12.1236 17.964C12.5732 17.9262 13.0004 17.8443 13.406 17.6321C14.0245 17.3086 14.5273 16.7923 14.8425 16.1572C15.0491 15.7408 15.1289 15.3021 15.1656 14.8405C15.2007 14.3989 15.2007 13.8594 15.2007 13.2173V7.38344C15.2007 7.35297 15.2007 7.32286 15.2007 7.29309C15.2011 6.79166 15.2013 6.38745 15.1099 5.99644C15.0628 5.79497 14.9978 5.59869 14.9159 5.41002C14.9095 5.39454 14.9027 5.37927 14.8956 5.36422C14.8424 5.2465 14.7826 5.13185 14.7163 5.02089C14.5117 4.67801 14.2332 4.39238 13.8876 4.03804C13.8671 4.01701 13.8464 3.99573 13.8254 3.97419L11.3303 1.41223C11.3093 1.39069 11.2886 1.36938 11.2681 1.34832C10.923 0.993528 10.6448 0.707525 10.3109 0.497413C10.2028 0.429415 10.0912 0.367991 9.97651 0.313388C9.96184 0.306058 9.94697 0.299107 9.93189 0.29255ZM10.5051 3.29234V4.50006C10.5051 4.61477 10.5051 4.70499 10.5063 4.78293C10.5065 4.79583 10.5067 4.80802 10.507 4.81954C10.5182 4.8198 10.5301 4.82003 10.5426 4.82023C10.6185 4.82146 10.7064 4.82148 10.8181 4.82148H11.9943L10.5051 3.29234Z" fill="#383192"/>
</svg>
