<svg width="36" height="36" viewBox="0 0 36 36" fill="none" xmlns="http://www.w3.org/2000/svg">
<rect width="36" height="36" rx="5" fill="#383192"/>
<path fill-rule="evenodd" clip-rule="evenodd" d="M12.7915 11.3104C13.2898 11.3825 13.8119 11.635 14.2508 11.9837C11.8661 12.2362 10.0034 26.0243 9.99153 28.5132C9.99153 28.659 10.0019 28.7944 10.0129 28.9388C10.0137 28.9492 10.0145 28.9596 10.0153 28.97H9.83729C6.13559 28.97 4.39153 27.8278 4.39153 27.8278C4.17797 27.7076 4 27.407 4 27.2867C4.04746 25.916 4.37966 13.4866 4.37966 13.4866C4.67627 12.4286 5.81525 11.4667 6.88305 11.3104H7.12034C7.23898 11.3104 7.41695 11.3464 7.51186 11.4065C7.51186 11.4065 7.70169 11.5148 7.89153 11.5989C8.47288 11.8514 9.14915 11.9957 9.84915 11.9957C10.5492 11.9957 11.2136 11.8514 11.7949 11.5989C11.9847 11.5148 12.1746 11.4065 12.1746 11.4065C12.2695 11.3585 12.4475 11.3104 12.5661 11.3104H12.7915ZM6.50339 7.39066C6.50339 9.26634 7.99831 10.7813 9.84915 10.7813C11.7 10.7813 13.1949 9.26634 13.1949 7.39066C13.1949 5.51498 11.7 4 9.84915 4C7.99831 4 6.50339 5.51498 6.50339 7.39066ZM21.7492 11.9837C22.1881 11.635 22.7102 11.3825 23.2085 11.3104H23.4339C23.5525 11.3104 23.7305 11.3585 23.8254 11.4065C23.8254 11.4065 24.0153 11.5148 24.2051 11.5989C24.7864 11.8514 25.4508 11.9957 26.1508 11.9957C26.8508 11.9957 27.5271 11.8514 28.1085 11.5989C28.2983 11.5148 28.4881 11.4065 28.4881 11.4065C28.5831 11.3464 28.761 11.3104 28.8797 11.3104H29.1169C30.1847 11.4667 31.3237 12.4286 31.6203 13.4866C31.6203 13.4866 31.9525 25.916 32 27.2867C32 27.407 31.822 27.7076 31.6085 27.8278C31.6085 27.8278 29.8644 28.97 26.1627 28.97H25.9847L25.9871 28.9388C25.9981 28.7944 26.0085 28.659 26.0085 28.5132C25.9966 26.0243 24.1339 12.2362 21.7492 11.9837ZM26.1508 10.7813C28.0017 10.7813 29.4966 9.26634 29.4966 7.39066C29.4966 5.51498 28.0017 4 26.1508 4C24.3 4 22.8051 5.51498 22.8051 7.39066C22.8051 9.26634 24.3 10.7813 26.1508 10.7813ZM18.0119 12.3324C20.278 12.3324 22.1288 10.4687 22.1288 8.17219C22.1288 5.87568 20.2898 4.01202 18.0119 4.01202C15.7458 4.01202 13.9068 5.86366 13.9068 8.17219C13.9068 10.4807 15.7458 12.3324 18.0119 12.3324ZM21.6542 12.9816H21.322C21.2034 12.9816 21.0373 13.0297 20.9305 13.0778C20.9305 13.0778 20.6695 13.2341 20.4322 13.3303C19.7203 13.6429 18.9017 13.8233 18.0356 13.8233C17.1695 13.8233 16.3627 13.6429 15.639 13.3424C15.4017 13.2341 15.1288 13.0778 15.1288 13.0778C15.0339 13.0177 14.8559 12.9816 14.7373 12.9816H14.4169C13.1 13.15 11.7237 26.0844 11.3322 27.3709C11.3322 27.3709 10.9169 28.2366 10.8576 29.9199C10.8576 30.1363 11.0237 30.4249 11.2492 30.5451C11.2492 30.5451 13.4797 32 18.0237 32C22.5678 32 24.7983 30.5451 24.7983 30.5451C25.0237 30.4249 25.2017 30.1123 25.1898 29.9199C25.1305 28.2366 24.7271 27.407 24.7271 27.407C24.3593 26.1204 22.9593 13.174 21.6542 12.9816Z" fill="#F3F4F6"/>
</svg>
