<svg width="2749" height="1488" viewBox="0 0 2749 1488" fill="none" xmlns="http://www.w3.org/2000/svg">
<g opacity="0.5">
<path d="M151.608 1131.99L151.145 1131.04L158.537 1127.55C300.853 1060.3 448.014 990.759 552.208 879.066C560.633 870.031 569.089 860.692 577.268 851.66C609.969 815.542 643.784 778.194 684.782 750.307C756.33 701.645 844.679 684.82 921.665 674.782C971.931 668.228 1023.31 663.774 1073 659.466C1141.04 653.564 1211.41 647.464 1279.84 635.885C1420.62 612.069 1528.02 568.038 1608.19 501.278C1631.9 481.531 1653.89 459.107 1675.16 437.424C1702.91 409.123 1731.61 379.861 1764.42 356.277C1875.21 276.645 2021.1 267.157 2149.16 264.512C2158.33 264.322 2167.53 264.153 2176.74 263.987C2301.83 261.685 2431.18 259.322 2542.85 204.744L2543.33 205.682C2431.43 260.37 2301.97 262.736 2176.77 265.035C2167.55 265.204 2158.36 265.372 2149.19 265.563C2021.29 268.204 1875.58 277.675 1765.06 357.122C1732.32 380.653 1703.66 409.884 1675.93 438.15C1654.65 459.853 1632.64 482.298 1608.89 502.075C1528.57 568.964 1421 613.068 1280.03 636.921C1211.55 648.506 1141.16 654.609 1073.09 660.511C1023.42 664.819 972.051 669.273 921.81 675.822C844.951 685.843 756.756 702.626 685.394 751.171C644.502 778.985 610.731 816.286 578.071 852.357C569.891 861.393 561.434 870.736 553 879.774C448.666 991.62 301.411 1061.2 159.003 1128.49L151.608 1131.99Z" fill="#D9D9D9"/>
<path d="M159.559 1153.12L159.111 1152.17C305.546 1086.34 457.318 1012.58 562.524 899.184C571.737 889.258 580.963 878.978 589.888 869.04C621.883 833.401 654.969 796.549 694.225 768.164C763.37 718.071 848.802 696.444 923.251 681.894C994.239 668.022 1063.56 657.69 1146.8 645.627C1187.32 639.698 1224.08 634.929 1259.17 631.058C1264.28 630.494 1269.37 629.904 1274.44 629.312C1291.39 627.342 1305.21 625.561 1317.96 623.711C1380.46 614.637 1434.19 601.442 1482.2 583.418C1526.78 566.783 1567.37 544.863 1602.83 518.279C1629.91 497.987 1655.14 474.101 1679.55 451.002C1687.56 443.41 1695.86 435.559 1704.12 427.926C1719.87 413.374 1740.93 394.528 1764.09 377.826C1778.16 367.685 1793.26 358.113 1808.99 349.379C1850.34 326.43 1892.77 310.167 1938.72 299.659C1993.66 287.086 2051.51 283.771 2101.41 281.653C2115.74 281.042 2131.08 280.542 2149.69 280.076L2165.76 279.683C2201.55 278.814 2238.57 277.918 2274.91 275.693C2425.03 266.528 2499.18 238.844 2547 215.746L2547.48 216.689C2456.27 260.731 2353.94 271.924 2274.98 276.741C2238.62 278.968 2201.59 279.864 2165.78 280.731L2149.71 281.124C2131.12 281.59 2115.78 282.091 2101.46 282.702C2051.6 284.818 1993.81 288.125 1938.96 300.68C1893.12 311.16 1850.78 327.389 1809.52 350.292C1793.83 359.005 1778.76 368.554 1764.73 378.67C1741.61 395.34 1720.59 414.156 1704.86 428.691C1696.6 436.319 1688.31 444.167 1680.3 451.756C1655.87 474.877 1630.62 498.785 1603.49 519.116C1567.94 545.761 1527.26 567.727 1482.58 584.4C1434.49 602.479 1380.7 615.667 1318.12 624.753C1305.37 626.603 1291.53 628.386 1274.57 630.356C1269.5 630.945 1264.4 631.539 1259.3 632.102C1224.22 635.972 1187.47 640.736 1146.96 646.666C1063.74 658.727 994.431 669.058 923.469 682.925C849.136 697.455 763.85 719.043 694.867 769.011C655.702 797.328 622.657 834.137 590.699 869.733C581.772 879.677 572.542 889.958 563.324 899.891C457.971 1013.43 306.093 1087.24 159.559 1153.12Z" fill="#D9D9D9"/>
<path d="M166.992 1172.93L166.566 1171.97C227.795 1145.85 307.786 1110.15 383.47 1065.61C461.315 1019.8 523.132 971.632 572.459 918.352C582.584 907.424 592.701 896.088 602.486 885.129C633.687 850.18 665.952 814.043 703.398 785.355C769.813 734.305 848.954 708.579 924.582 688.385C1002.75 667.511 1071.35 651.596 1140.47 638.293C1181.98 630.192 1218.93 625.161 1253.42 622.919C1255.79 622.765 1258.15 622.605 1260.51 622.445C1263.25 622.26 1265.98 622.077 1268.7 621.903L1274.89 621.508C1287.07 620.734 1299.66 619.93 1311.88 618.968C1375.02 613.987 1426.67 605.147 1474.43 591.154C1519.16 578.054 1560.43 558.949 1597.11 534.37C1628.32 513.468 1657.54 487.719 1685.79 462.822C1691.25 458.014 1696.71 453.195 1702.21 448.396C1720.91 432.066 1741.28 414.743 1763.5 398.718C1777.63 388.522 1792.76 378.68 1808.48 369.469C1853.6 343.074 1894.38 325.805 1936.8 315.12C1990.42 301.602 2049.23 298.962 2101.12 296.631C2115.31 295.995 2130.35 295.445 2149.9 294.849L2155.63 294.676C2195.24 293.475 2236.2 292.233 2276.33 289.123C2354.94 283.042 2457.17 270.343 2550.75 225.696L2551.22 226.639C2535.46 234.159 2519.44 240.778 2503.34 246.608C2423.71 275.454 2341.89 285.102 2276.42 290.164C2236.26 293.278 2195.29 294.519 2155.66 295.72L2149.93 295.894C2130.39 296.487 2115.35 297.039 2101.17 297.672C2049.33 300.001 1990.57 302.638 1937.07 316.131C1894.73 326.786 1854.05 344.022 1809.03 370.364C1793.34 379.557 1778.23 389.382 1764.13 399.558C1741.96 415.557 1721.61 432.861 1702.93 449.173C1697.43 453.97 1691.97 458.788 1686.51 463.596C1658.23 488.517 1628.99 514.289 1597.72 535.231C1560.94 559.873 1519.56 579.024 1474.75 592.157C1426.91 606.171 1375.18 615.021 1311.97 620.008C1299.74 620.976 1287.14 621.776 1274.96 622.552L1268.77 622.945C1266.05 623.121 1263.32 623.306 1260.59 623.489C1258.23 623.648 1255.86 623.808 1253.49 623.962C1219.05 626.203 1182.15 631.227 1140.68 639.322C1071.59 652.618 1003.01 668.53 924.865 689.397C849.347 709.557 770.328 735.247 704.062 786.181C666.692 814.807 634.465 850.907 603.293 885.818C593.506 896.783 583.384 908.12 573.256 919.055C523.859 972.413 461.959 1020.64 384.025 1066.51C308.284 1111.08 228.251 1146.8 166.992 1172.93Z" fill="#D9D9D9"/>
<path d="M174.935 1194.07L174.523 1193.09C260.302 1158.36 331.722 1123.86 392.865 1087.6C470.262 1041.7 532.312 992.732 582.56 937.903C593.701 925.758 604.807 913.134 615.55 900.926C645.744 866.613 676.968 831.133 712.456 802.19C779.145 747.538 857.5 717.855 925.723 694.335C990.335 672.054 1057.15 649.011 1134.02 630.607C1175.64 620.483 1212.81 615.261 1247.63 614.642L1251.31 614.575C1255.21 614.503 1259.08 614.431 1262.93 614.396C1270.34 614.328 1277.68 614.323 1284.95 614.315C1291.96 614.307 1298.91 614.301 1305.83 614.241C1369.53 613.706 1420.68 608.935 1466.81 599.219C1511.45 589.821 1553.4 573.494 1591.49 550.701C1627.71 529.057 1660.22 502.019 1694.63 473.397L1700.26 468.716C1720.88 451.581 1741.18 434.904 1762.77 419.226C1776.95 408.935 1792.1 398.786 1807.81 389.066C1842.76 367.464 1885.15 343.554 1934.68 330.003C1984.17 316.428 2037.48 314.125 2089.03 311.895C2092.94 311.726 2096.85 311.557 2100.75 311.382C2117.93 310.616 2135.33 310.02 2150.08 309.537C2189.64 308.234 2234.47 306.76 2277.86 302.804C2394.23 292.224 2479.62 271.689 2554.72 236.206L2555.19 237.157C2479.96 272.687 2394.46 293.262 2277.96 303.853C2234.54 307.813 2189.69 309.288 2150.12 310.591C2135.37 311.074 2117.98 311.672 2100.8 312.437C2096.9 312.612 2092.99 312.78 2089.08 312.951C2037.59 315.178 1984.34 317.478 1934.96 331.02C1885.58 344.543 1843.26 368.401 1808.38 389.959C1792.69 399.667 1777.56 409.8 1763.41 420.078C1741.84 435.736 1721.56 452.403 1700.95 469.527L1695.32 474.207C1660.87 502.858 1628.34 529.919 1592.05 551.607C1553.85 574.464 1511.79 590.829 1467.04 600.253C1420.83 609.982 1369.61 614.764 1305.84 615.298C1298.92 615.359 1291.96 615.367 1284.95 615.374C1277.68 615.382 1270.36 615.39 1262.95 615.454C1259.1 615.49 1255.23 615.561 1251.33 615.634L1247.65 615.701C1212.91 616.319 1175.83 621.533 1134.28 631.635C1057.45 650.029 990.667 673.06 926.08 695.336C857.962 718.826 779.7 748.466 713.141 803.007C677.722 831.896 646.528 867.344 616.361 901.623C605.614 913.835 594.503 926.46 583.357 938.617C533.036 993.521 470.908 1042.55 393.419 1088.51C332.231 1124.79 260.765 1159.32 174.935 1194.07Z" fill="#D9D9D9"/>
<path d="M182.872 1215.2L182.482 1214.22C365.204 1144.23 499.388 1060.53 592.706 958.353C605.047 944.849 617.317 930.789 629.18 917.192C658.242 883.887 688.292 849.446 721.711 820.593C784.996 765.633 857.828 731.904 927.002 702.069C933.998 699.051 940.965 696.028 947.924 693.008C1003.61 668.851 1061.19 643.87 1127.54 624.587C1169.45 612.405 1206.79 606.937 1241.68 607.866L1242.63 607.893C1247.36 608.018 1252.26 608.151 1256.99 608.359C1267.34 608.817 1277.58 609.48 1287.47 610.124C1291.52 610.385 1295.54 610.647 1299.54 610.893C1346.42 613.781 1401.99 615.746 1458.77 608.42C1503.22 602.682 1545.83 589.175 1585.41 568.261C1624.23 547.777 1659.32 520.981 1697.9 490.623L1705.47 484.657C1723.66 470.324 1742.47 455.506 1761.67 441.535C1775.79 431.264 1790.96 420.845 1806.76 410.57C1847.88 383.869 1885.71 360.662 1932.14 346.892C1979.16 332.932 2030.13 330.805 2079.41 328.75C2086.22 328.465 2093.01 328.182 2099.78 327.87C2116.86 327.079 2134.25 326.424 2149.59 325.85C2193.39 324.203 2236.21 322.353 2278.53 317.846C2392.64 305.722 2481.3 283.483 2557.58 247.867L2558.05 248.817C2481.67 284.482 2392.88 306.753 2278.65 318.891C2236.3 323.405 2193.46 325.256 2149.64 326.9C2134.3 327.476 2116.91 328.129 2099.83 328.922C2093.06 329.235 2086.27 329.52 2079.46 329.803C2030.24 331.857 1979.35 333.979 1932.45 347.9C1886.15 361.609 1848.4 384.795 1807.35 411.448C1791.57 421.714 1776.41 432.121 1762.31 442.384C1743.12 456.342 1724.32 471.155 1706.14 485.48L1698.57 491.446C1659.95 521.837 1624.82 548.664 1585.92 569.191C1546.22 590.164 1503.49 603.708 1458.91 609.467C1402.04 616.803 1346.4 614.838 1299.48 611.944C1295.47 611.699 1291.45 611.438 1287.41 611.174C1277.51 610.533 1267.28 609.87 1256.95 609.414C1252.22 609.205 1247.33 609.076 1242.6 608.948L1241.66 608.923C1206.87 607.994 1169.64 613.449 1127.84 625.599C1061.56 644.868 1004.01 669.832 948.359 693.975C941.4 696.992 934.429 700.019 927.436 703.033C858.339 732.836 785.593 766.524 722.421 821.385C689.059 850.191 659.034 884.601 629.994 917.881C618.126 931.482 605.853 945.548 593.504 959.057C500.072 1061.36 365.752 1145.15 182.872 1215.2Z" fill="#D9D9D9"/>
<path d="M190.809 1234.83C190.638 1234.9 190.49 1234.95 190.316 1235.01L189.946 1234.03C190.109 1233.97 190.278 1233.91 190.441 1233.85C367.317 1169.79 505.995 1083.53 602.639 977.473C616.406 962.38 630.042 946.624 643.232 931.386C670.973 899.339 699.661 866.199 730.873 837.718C795.095 778.743 868.979 739.833 928.343 708.571C938.356 703.301 948.448 697.893 958.21 692.666C1008.02 665.987 1059.53 638.384 1121.26 617.364C1163.11 603.11 1200.63 597.38 1235.99 599.848C1240.65 600.174 1246.06 600.562 1251.31 601.068C1263.5 602.25 1275.42 603.841 1286.94 605.38L1293.53 606.258C1351.78 613.981 1400.86 618.631 1451.05 616.215C1494.65 614.113 1539.14 603.092 1579.7 584.346C1621 565.286 1659.99 537.848 1695.98 511.04C1704.14 504.966 1712.41 498.717 1720.42 492.672C1733.66 482.679 1747.35 472.349 1761.06 462.359C1775.15 452.106 1789.93 441.717 1806.24 430.594L1812.23 426.516C1849.94 400.82 1885.55 376.531 1930.22 362.314C1975.66 347.806 2025.21 345.842 2073.13 343.944C2081.79 343.6 2090.75 343.246 2099.48 342.823C2113.84 342.124 2128.4 341.511 2142.49 340.914L2149.8 340.603C2191.51 338.83 2235.92 336.647 2279.96 331.274C2393.26 317.489 2482.67 294.162 2561.35 257.846L2561.81 258.795C2483.03 295.152 2393.51 318.52 2280.1 332.313C2236.01 337.691 2191.58 339.875 2149.85 341.652L2142.53 341.961C2128.45 342.557 2113.88 343.173 2099.53 343.87C2090.8 344.294 2081.83 344.65 2073.17 344.994C2025.32 346.89 1975.85 348.848 1930.55 363.315C1886.06 377.512 1850.49 401.724 1812.84 427.38L1806.85 431.458C1790.55 442.573 1775.78 452.958 1761.7 463.206C1747.99 473.189 1734.31 483.517 1721.08 493.507C1713.07 499.554 1704.78 505.802 1696.63 511.878C1660.59 538.723 1621.54 566.197 1580.16 585.299C1539.47 604.106 1494.85 615.162 1451.1 617.266C1400.84 619.689 1351.7 615.033 1293.39 607.303L1286.8 606.428C1275.29 604.89 1263.38 603.3 1251.21 602.118C1245.97 601.614 1240.57 601.225 1235.92 600.902C1200.71 598.445 1163.32 604.156 1121.62 618.364C1059.95 639.381 1008.5 666.937 958.726 693.596C948.964 698.823 938.871 704.228 928.855 709.502C869.544 740.738 795.729 779.608 731.61 838.491C700.44 866.932 671.775 900.046 644.053 932.073C630.859 947.313 617.219 963.076 603.442 978.178C506.682 1084.35 367.839 1170.71 190.809 1234.83Z" fill="#D9D9D9"/>
<path d="M220.594 1248.05C212.954 1250.82 205.488 1253.44 198.191 1255.93L197.84 1254.94C317.714 1214.05 487.029 1136.19 612.888 997.409C628.34 980.391 643.579 962.575 658.319 945.344C684.451 914.797 711.472 883.21 740.262 855.413C799.014 798.291 864.88 756.627 922.994 719.866L929.863 715.519C940.788 708.602 951.759 701.464 962.366 694.562C1008.26 664.693 1055.73 633.808 1115.15 610.559C1156.33 594.448 1195.14 588.306 1230.48 592.315C1235.04 592.831 1240.43 593.467 1245.81 594.278C1259.31 596.316 1272.35 599.007 1284.96 601.607L1287.71 602.175C1342.54 613.493 1392.1 623.002 1443.59 624.72C1486.96 626.166 1532.13 618.024 1574.27 601.162C1619.73 582.996 1662.3 554.705 1694.3 532.087C1709.65 521.242 1725.15 509.836 1740.14 498.804C1746.97 493.785 1753.8 488.757 1760.66 483.745C1776.66 472.065 1792.52 460.707 1805.91 451.139C1811.17 447.392 1816.37 443.632 1821.54 439.891C1855.47 415.338 1887.56 392.155 1928.47 378.203C1972.83 363.061 2021.51 361.306 2068.58 359.606C2078.72 359.238 2089.21 358.862 2099.41 358.354C2110.91 357.779 2122.41 357.254 2133.89 356.732C2139.35 356.483 2144.81 356.236 2150.25 355.982C2199.51 353.692 2240.71 351.021 2281.67 345.43C2392.45 330.349 2485.26 305.228 2565.42 268.642L2565.87 269.593C2485.62 306.231 2392.71 331.373 2281.82 346.47C2240.81 352.068 2199.59 354.739 2150.3 357.032C2144.86 357.286 2139.4 357.535 2133.94 357.783C2122.46 358.306 2110.96 358.828 2099.47 359.404C2089.26 359.914 2078.77 360.292 2068.62 360.657C2021.63 362.355 1973.03 364.107 1928.82 379.197C1887.96 393.097 1856.04 416.234 1822.18 440.738C1817.01 444.479 1811.81 448.241 1806.55 451.989C1793.15 461.558 1777.3 472.913 1761.3 484.593C1754.44 489.6 1747.61 494.63 1740.79 499.647C1725.79 510.682 1710.29 522.091 1694.93 532.944C1662.87 555.595 1620.24 583.93 1574.67 602.138C1532.39 619.05 1487.08 627.224 1443.56 625.775C1391.98 624.054 1342.37 614.538 1287.5 603.208L1284.74 602.641C1272.15 600.041 1259.12 597.354 1245.66 595.322C1240.28 594.514 1234.91 593.878 1230.36 593.363C1195.19 589.374 1156.52 595.508 1115.55 611.54C1056.23 634.751 1008.81 665.604 962.96 695.442C952.348 702.346 941.374 709.488 930.445 716.408L923.574 720.756C865.505 757.486 799.689 799.12 741.014 856.166C712.261 883.927 685.257 915.496 659.14 946.023C644.397 963.258 629.15 981.081 613.69 998.112C495.336 1128.6 338.623 1205.3 220.594 1248.05Z" fill="#D9D9D9"/>
<path d="M245.213 1263.15C232.259 1267.84 219.173 1272.3 205.962 1276.54L205.63 1275.54C285.633 1249.89 361.064 1215.81 429.832 1174.27C504.542 1129.13 569.529 1076.19 622.984 1016.9C640.47 997.533 657.626 977.181 674.22 957.499C698.379 928.839 723.362 899.207 749.442 872.546C802.088 818.333 859.704 775.245 910.536 737.227C917.495 732.026 924.367 726.885 931.13 721.79C942.104 713.526 953.081 704.951 963.699 696.658C1006.47 663.249 1050.7 628.706 1108.76 602.996C1149.86 584.799 1188.87 578.426 1224.71 584.052C1230.79 585.005 1235.67 585.869 1240.06 586.771C1254.5 589.74 1268.27 593.632 1281.58 597.392L1287.56 599.085C1338.01 613.371 1385.66 626.866 1435.93 632.667C1479.06 637.644 1524.95 632.386 1568.65 617.465C1606.26 604.635 1645.57 584.041 1692.43 552.602C1714.96 537.491 1737.28 521.257 1760.06 504.566C1773.51 494.717 1789.4 483.042 1805.38 471.096C1812.79 465.568 1820.13 459.891 1827.23 454.399C1858.49 430.228 1888.01 407.399 1926.49 393.457C1926.54 393.438 1926.6 393.416 1926.66 393.396C1970.21 377.623 2018.28 376.094 2064.77 374.612C2076.08 374.253 2087.78 373.88 2099.12 373.306C2108.38 372.833 2117.64 372.389 2126.89 371.945C2134.77 371.569 2142.64 371.191 2150.5 370.798C2193.1 368.668 2238.66 365.772 2283.19 359.07C2392.8 342.616 2486.38 316.401 2569.31 278.943L2569.76 279.897C2486.75 317.408 2393.06 343.638 2283.35 360.108C2238.77 366.815 2193.18 369.714 2150.55 371.844C2142.69 372.237 2134.82 372.615 2126.94 372.993C2117.69 373.438 2108.43 373.88 2099.18 374.351C2087.82 374.927 2076.12 375.299 2064.81 375.661C2018.4 377.138 1970.41 378.667 1927.03 394.381C1926.97 394.401 1926.92 394.42 1926.86 394.441C1888.54 408.325 1859.08 431.105 1827.9 455.221C1820.79 460.715 1813.45 466.393 1806.03 471.928C1790.05 483.875 1774.15 495.553 1760.71 505.401C1737.91 522.1 1715.58 538.34 1693.03 553.463C1646.09 584.958 1606.65 605.601 1569 618.453C1525.16 633.425 1479.1 638.7 1435.81 633.704C1385.45 627.894 1337.76 614.386 1287.27 600.087L1281.37 598.416C1267.99 594.639 1254.24 590.755 1239.85 587.794C1235.47 586.896 1230.61 586.035 1224.54 585.082C1188.92 579.489 1150.12 585.834 1109.2 603.947C1051.26 629.603 1007.09 664.107 964.372 697.475C953.753 705.771 942.772 714.35 931.788 722.62C925.024 727.717 918.149 732.857 911.19 738.061C860.388 776.053 802.809 819.114 750.222 873.268C724.167 899.902 699.199 929.521 675.05 958.164C658.451 977.851 641.289 998.212 623.793 1017.6C570.268 1076.96 505.201 1129.97 430.4 1175.16C372.908 1209.89 310.774 1239.4 245.213 1263.15Z" fill="#D9D9D9"/>
<path d="M265.363 1279.86C248.325 1286.03 231.085 1291.74 213.664 1296.99L213.348 1295.99C378.269 1246.35 527.352 1154.29 633.213 1036.77C653.244 1014.56 672.774 991.124 691.658 968.462C713.415 942.35 735.916 915.35 758.947 890.544C804.858 840.73 851.898 799.898 897.388 760.407C909.741 749.684 921.412 739.553 932.895 729.381C943.506 719.984 954.078 710.198 964.303 700.735C1004.35 663.672 1045.75 625.346 1102.97 597.05C1143.98 576.766 1183.18 570.122 1219.49 577.289C1225.4 578.456 1230.28 579.547 1234.85 580.724C1248.84 584.333 1261.8 588.861 1276.09 593.976C1282.4 596.237 1288.66 598.501 1294.89 600.751C1340.09 617.096 1382.79 632.536 1428.59 641.468C1471.43 649.819 1518 647.388 1563.28 634.439C1602.65 623.206 1644.38 603.392 1690.84 573.875C1711.39 560.821 1732.65 546.137 1759.78 526.264C1776.25 514.197 1791.11 502.997 1805.2 492.02C1814.13 485.084 1822.86 477.874 1831.31 470.903C1860.57 446.762 1888.2 423.961 1924.94 409.857C1967.96 393.272 2015.78 391.914 2062.01 390.566C2074.26 390.212 2086.92 389.843 2099.18 389.191C2106.4 388.806 2113.62 388.431 2120.85 388.062C2130.92 387.541 2141 387.022 2151.05 386.47C2193.71 384.123 2239.45 380.912 2284.95 373.385C2393.08 355.548 2487.44 328.205 2573.41 289.811L2573.85 290.763C2487.79 329.205 2393.35 356.567 2285.13 374.421C2239.58 381.955 2193.8 385.166 2151.11 387.518C2141.05 388.07 2130.98 388.588 2120.9 389.108C2113.68 389.48 2106.46 389.853 2099.24 390.238C2086.96 390.888 2074.29 391.258 2062.03 391.613C2015.9 392.956 1968.21 394.368 1925.33 410.831C1888.75 424.875 1861.18 447.622 1832 471.704C1823.54 478.679 1814.8 485.892 1805.87 492.839C1791.77 503.824 1776.9 515.031 1760.42 527.102C1733.27 546.991 1711.99 561.687 1691.42 574.756C1644.87 604.327 1603.05 624.182 1563.57 635.444C1518.13 648.443 1471.38 650.88 1428.38 642.497C1382.49 633.548 1339.76 618.095 1294.51 601.734C1288.29 599.484 1282.03 597.221 1275.72 594.961C1261.46 589.854 1248.51 585.332 1234.58 581.738C1230.02 580.564 1225.16 579.477 1219.28 578.316C1183.21 571.192 1144.25 577.816 1103.46 597.981C1046.38 626.209 1005.02 664.481 965.036 701.49C954.809 710.958 944.231 720.747 933.611 730.157C922.125 740.332 910.452 750.464 898.097 761.188C852.629 800.659 805.615 841.474 759.74 891.246C736.727 916.034 714.237 943.02 692.486 969.122C673.596 991.791 654.062 1015.23 634.012 1037.47C539.209 1142.71 409.766 1227.56 265.363 1279.86Z" fill="#D9D9D9"/>
<path d="M284.367 1298.48C263.76 1305.95 242.904 1312.66 221.8 1318.6L221.504 1317.59C384.477 1271.71 534.39 1179.23 643.627 1057.14C666.861 1031.21 689.308 1003.7 711.018 977.108C729.687 954.233 748.991 930.583 768.409 908.431C806.527 864.635 844.911 826.316 882.03 789.258C900.438 770.879 917.823 753.522 934.393 736.272C944.397 725.856 954.327 714.981 963.926 704.465C1001.38 663.441 1040.12 621.021 1096.76 589.982C1137.66 567.568 1177.08 560.69 1213.9 569.547C1219.61 570.918 1224.64 572.293 1229.29 573.75C1243.65 578.263 1256.85 583.911 1270.24 589.787C1279.71 593.947 1289.17 598.192 1298.32 602.295C1339.65 620.83 1378.69 638.336 1421.19 650.134C1463.79 661.959 1511.08 662.441 1557.94 651.528C1599.44 641.887 1642.39 623.453 1689.25 595.17C1711.21 581.923 1734.17 566.441 1759.46 547.84C1775.43 536.09 1790.73 524.274 1804.94 512.715C1814.96 504.575 1824.64 496.011 1833.99 487.728C1861.63 463.273 1887.73 440.175 1923.21 425.791C1965.88 408.445 2013.48 407.327 2059.56 406.212C2072.62 405.896 2086.12 405.57 2099.16 404.869C2104.33 404.593 2109.51 404.317 2114.69 404.047C2126.78 403.408 2139.29 402.749 2151.57 402.036C2192.31 399.67 2240.23 396.13 2286.75 387.812C2391.66 369.1 2489.51 339.863 2577.59 300.916L2578.03 301.872C2489.87 340.862 2391.94 370.121 2286.95 388.845C2240.37 397.171 2192.41 400.717 2151.63 403.084C2139.35 403.796 2126.84 404.458 2114.75 405.095C2109.57 405.368 2104.39 405.642 2099.22 405.918C2086.16 406.618 2072.65 406.944 2059.58 407.263C2013.6 408.377 1966.08 409.509 1923.62 426.764C1888.31 441.079 1862.27 464.117 1834.71 488.51C1825.34 496.799 1815.66 505.372 1805.62 513.526C1791.4 525.097 1776.08 536.924 1760.1 548.684C1734.78 567.306 1711.79 582.804 1689.81 596.069C1642.86 624.413 1599.81 642.888 1558.19 652.552C1511.14 663.508 1463.67 663.021 1420.89 651.148C1378.32 639.329 1339.24 621.805 1297.87 603.253C1288.72 599.149 1279.26 594.907 1269.8 590.749C1256.45 584.886 1243.27 579.249 1228.96 574.756C1224.34 573.305 1219.33 571.937 1213.65 570.571C1177.1 561.779 1137.94 568.621 1097.29 590.903C1040.8 621.859 1002.12 664.211 964.724 705.17C955.117 715.69 945.186 726.567 935.171 736.995C918.595 754.254 901.204 771.616 882.793 789.998C845.685 827.042 807.317 865.351 769.22 909.118C749.813 931.256 730.514 954.901 711.851 977.767C690.136 1004.37 667.681 1031.88 644.43 1057.84C549.21 1164.26 423.085 1248.24 284.367 1298.48Z" fill="#D9D9D9"/>
<path d="M301.056 1316.45C277.469 1324.99 253.563 1332.46 229.411 1338.8L229.135 1337.78C390.364 1295.46 541.129 1202.67 653.666 1076.5C681.134 1045.73 707.36 1012.9 732.725 981.159C747.406 962.784 762.589 943.783 777.633 925.672C806.499 890.688 835.253 858.261 863.061 826.901C888.991 797.661 913.481 770.042 935.801 742.892C945.089 731.595 954.269 719.782 963.146 708.357C998.134 663.329 1034.31 616.772 1090.57 582.931C1130.8 558.728 1171.51 551.398 1208.29 561.741C1213.9 563.316 1218.93 564.932 1223.69 566.679C1238.34 572.076 1251.79 578.884 1264.31 585.398C1276.02 591.492 1287.67 597.747 1298.93 603.796C1337.3 624.409 1373.55 643.875 1413.56 658.21C1455.9 673.373 1503.88 676.706 1552.32 667.854C1595.18 660.04 1640.62 642.516 1687.39 615.744C1710.74 602.384 1734.13 587.021 1758.9 568.779C1774.81 557.051 1790.14 544.958 1804.45 532.835C1815.3 523.662 1825.64 513.882 1835.64 504.422C1861.95 479.537 1886.8 456.033 1921.33 441.305C1963.66 423.225 2011.24 422.247 2057.27 421.304C2071.01 421.024 2085.23 420.733 2098.93 419.974L2109.62 419.384C2123.47 418.624 2137.78 417.839 2151.85 416.966C2192.72 414.428 2240.89 410.605 2288.28 401.478C2391.08 381.712 2489.72 351.334 2581.47 311.185L2581.9 312.144C2490.09 352.329 2391.36 382.726 2288.48 402.508C2241.04 411.644 2192.82 415.473 2151.92 418.012C2137.85 418.886 2123.53 419.673 2109.68 420.433L2098.99 421.021C2085.27 421.78 2071.04 422.07 2057.29 422.351C2011.37 423.29 1963.87 424.237 1921.75 442.268C1887.4 456.92 1862.62 480.36 1836.39 505.178C1826.38 514.647 1816.03 524.437 1805.16 533.63C1790.82 545.77 1775.48 557.877 1759.54 569.62C1734.74 587.888 1711.32 603.274 1687.93 616.653C1641.05 643.482 1595.49 661.059 1552.52 668.887C1503.89 677.776 1455.71 674.424 1413.2 659.198C1373.11 644.838 1336.83 625.35 1298.42 604.721C1287.16 598.674 1275.52 592.422 1263.81 586.327C1251.32 579.831 1237.91 573.041 1223.31 567.669C1218.59 565.928 1213.58 564.322 1208 562.755C1171.51 552.501 1131.1 559.789 1091.13 583.832C1035.05 617.57 998.928 664.049 964 709C955.118 720.43 945.934 732.247 936.635 743.559C914.304 770.725 889.806 798.349 863.871 827.597C836.07 858.949 807.323 891.366 778.467 926.34C763.428 944.444 748.249 963.442 733.569 981.814C708.197 1013.57 681.961 1046.4 654.473 1077.2C558.656 1184.62 435.144 1267.88 301.056 1316.45Z" fill="#D9D9D9"/>
<path d="M316.358 1334.91C290.215 1344.38 263.726 1352.42 237.003 1358.93L236.744 1357.92C396.382 1318.96 548.016 1225.89 663.697 1095.83C696.979 1058.45 728.217 1018.25 758.424 979.367C767.752 967.362 777.397 954.948 786.864 942.932C804.015 921.026 821.098 899.682 837.621 879.039C873.809 833.823 907.992 791.113 937.247 749.613C945.753 737.544 954.125 724.913 962.221 712.698C994.784 663.566 1028.46 612.76 1084.44 576.049C1124.57 549.734 1165.48 542.137 1202.75 554.098C1208.27 555.869 1213.31 557.723 1218.15 559.768C1232.98 566.031 1246.72 574.085 1258.43 581.144C1271.72 589.161 1284.88 597.44 1297.6 605.445C1333.7 628.163 1367.8 649.622 1405.96 666.348C1448.03 684.79 1496.7 690.965 1546.72 684.205C1591.38 678.187 1638.09 662.081 1685.55 636.332C1709.7 623.225 1734.19 607.548 1758.34 589.734C1774.33 577.94 1789.69 565.574 1803.99 552.98C1815.47 542.889 1826.26 531.989 1836.7 521.45C1861.88 496.017 1885.66 471.993 1919.46 456.871C1961.57 437.986 2009.18 437.196 2055.23 436.421C2069.59 436.177 2084.44 435.927 2098.71 435.112L2103.75 434.826C2119.62 433.924 2136.02 432.989 2152.14 431.922C2193.21 429.205 2241.69 425.09 2289.81 415.16C2390.05 394.509 2489.49 362.994 2585.35 321.477L2585.78 322.433C2489.86 363.974 2390.34 395.519 2290.02 416.183C2241.84 426.124 2193.32 430.245 2152.21 432.965C2136.08 434.034 2119.68 434.965 2103.82 435.868L2098.77 436.155C2084.47 436.971 2069.62 437.219 2055.25 437.465C2009.31 438.241 1961.82 439.045 1919.91 457.82C1886.29 472.864 1862.58 496.815 1837.47 522.174C1827.02 532.728 1816.21 543.639 1804.7 553.755C1790.38 566.369 1775 578.753 1758.99 590.563C1734.8 608.409 1710.26 624.113 1686.06 637.242C1638.49 663.055 1591.65 679.203 1546.86 685.236C1496.65 692.025 1447.77 685.822 1405.52 667.298C1367.29 650.536 1333.16 629.061 1297.02 606.317C1284.3 598.315 1271.15 590.038 1257.87 582.029C1246.19 574.989 1232.49 566.957 1217.73 560.721C1212.91 558.691 1207.9 556.846 1202.41 555.083C1176.66 546.819 1135.38 543.893 1085.03 576.912C1029.24 613.501 995.624 664.215 963.121 713.258C955.022 725.479 946.645 738.116 938.129 750.198C908.857 791.726 874.665 834.45 838.468 879.676C821.947 900.318 804.866 921.661 787.719 943.562C778.252 955.58 768.608 967.991 759.284 979.992C729.062 1018.88 697.813 1059.1 664.511 1096.51C568.046 1204.96 446.603 1287.74 316.358 1334.91Z" fill="#D9D9D9"/>
<path d="M331.034 1355.11C302.679 1365.38 273.977 1373.82 245.064 1380.34L244.827 1379.32C402.981 1343.65 555.343 1250.22 673.846 1116.26C715.574 1069.12 753.72 1017.88 790.607 968.332L798.513 957.699C850.66 887.309 899.913 820.825 938.386 756.898C946.104 744.075 953.657 730.64 960.963 717.648C990.995 664.241 1022.04 609.016 1077.78 569.481C1105.6 549.6 1148.8 529.533 1196.63 546.837C1202 548.784 1207.19 550.946 1212.05 553.269C1225.53 559.72 1237.77 567.581 1252 577.398C1266.4 587.332 1280.59 597.652 1294.31 607.63C1328.65 632.61 1361.09 656.203 1397.88 675.355C1439.72 697.13 1489.08 706.208 1540.63 701.612C1587 697.495 1634.95 682.828 1683.14 658.004C1708.25 645.078 1733.16 629.513 1757.17 611.744C1773.2 599.876 1788.57 587.227 1802.86 574.144C1814.82 563.205 1825.89 551.239 1836.61 539.667C1859.71 514.714 1883.6 488.912 1916.81 473.349C1958.74 453.695 2006.42 453.098 2052.54 452.532C2067.45 452.347 2082.86 452.158 2097.65 451.305L2098.57 451.252C2115.94 450.25 2133.91 449.211 2151.59 447.985C2190.45 445.29 2241.37 440.818 2290.45 430.055C2387.55 408.781 2487.73 376.152 2588.19 333.072L2588.62 334.034C2488.09 377.14 2387.85 409.789 2290.68 431.079C2241.53 441.859 2190.57 446.337 2151.66 449.033C2133.98 450.258 2116.01 451.296 2098.63 452.298L2097.72 452.351C2082.91 453.207 2067.48 453.395 2052.56 453.579C2006.56 454.146 1958.98 454.737 1917.28 474.293C1884.25 489.765 1861.5 514.347 1837.4 540.37C1826.68 551.957 1815.59 563.939 1803.59 574.907C1789.29 588.016 1773.89 600.688 1757.82 612.577C1733.76 630.382 1708.8 645.978 1683.64 658.93C1635.31 683.81 1587.24 698.523 1540.73 702.652C1488.97 707.265 1439.4 698.146 1397.38 676.276C1360.52 657.091 1328.05 633.473 1293.67 608.468C1279.96 598.492 1265.77 588.177 1251.39 578.251C1237.2 568.461 1225 560.626 1211.58 554.206C1206.76 551.899 1201.61 549.75 1196.27 547.812C1148.88 530.667 1106.03 550.59 1078.42 570.319C1022.87 609.721 991.882 664.841 961.91 718.144C954.601 731.142 947.044 744.586 939.318 757.419C900.817 821.389 851.549 887.894 799.387 958.303L791.481 968.941C754.578 1018.51 716.421 1069.76 674.66 1116.93C577.662 1226.59 457.997 1309.12 331.034 1355.11Z" fill="#D9D9D9"/>
<path d="M344.406 1374.27C314.093 1385.25 283.425 1394 252.616 1400.39L252.395 1399.37C409.276 1366.81 562.469 1273.02 683.751 1135.28C729.103 1083.8 770.515 1026.77 805.047 977.771C867.205 889.192 908.675 822.879 939.51 762.757C946.388 749.346 953.09 735.286 959.568 721.693C987.133 663.867 1015.64 604.069 1071.22 561.456C1121.5 522.686 1163.93 527.35 1190.66 538.096C1195.96 540.226 1201.15 542.645 1206.1 545.286C1220.48 552.972 1233.65 562.74 1245.74 572.155C1260.87 583.942 1275.73 596.251 1290.1 608.152C1323.06 635.464 1354.2 661.263 1390.01 682.819C1431.64 707.883 1481.72 719.857 1534.82 717.446C1582.15 715.315 1632.74 701.708 1681.1 678.09C1707.1 665.396 1732.44 649.942 1756.41 632.154C1772.53 620.191 1787.92 607.252 1802.17 593.702C1814.51 581.973 1825.76 568.991 1836.65 556.436C1858.9 530.774 1881.91 504.242 1914.68 488.204C1956.5 467.729 2004.34 467.343 2050.61 466.971C2066.02 466.848 2081.94 466.722 2097.19 465.825C2116.57 464.686 2134.03 463.639 2151.65 462.361C2190.76 459.521 2242.02 454.78 2291.78 443.223C2386.41 421.256 2484.59 388.437 2591.89 342.871L2592.31 343.838C2484.94 389.42 2386.72 422.263 2292.02 444.244C2242.2 455.819 2190.88 460.565 2151.73 463.409C2134.11 464.687 2116.64 465.733 2097.26 466.873C2081.98 467.77 2066.04 467.897 2050.62 468.022C2004.47 468.391 1956.75 468.769 1915.16 489.145C1882.59 505.083 1859.65 531.533 1837.47 557.115C1826.56 569.688 1815.29 582.691 1802.91 594.455C1788.64 608.038 1773.21 621.001 1757.06 632.991C1733.03 650.818 1707.64 666.307 1681.58 679.029C1633.09 702.713 1582.36 716.355 1534.87 718.495C1481.56 720.916 1431.27 708.886 1389.46 683.712C1353.58 662.115 1320.96 635.092 1289.41 608.956C1275.05 597.058 1260.2 584.756 1245.08 572.98C1233.03 563.597 1219.9 553.859 1205.59 546.208C1200.68 543.588 1195.52 541.185 1190.26 539.071C1163.79 528.431 1121.76 523.818 1071.88 562.285C1016.5 604.742 988.055 664.423 960.54 722.14C954.058 735.742 947.353 749.806 940.468 763.23C909.61 823.396 868.118 889.75 805.929 978.371C771.382 1027.4 729.948 1084.45 684.563 1135.97C586.941 1246.84 468.664 1329.27 344.406 1374.27Z" fill="#D9D9D9"/>
<path d="M357.598 1395C325.524 1406.62 293.14 1415.58 260.658 1421.75L260.452 1420.72C416.194 1391.16 570.212 1297 694.141 1155.59C733.037 1111.22 772.423 1058.94 814.546 995.761C869.682 912.805 911.08 838.909 941.101 769.85C947.146 755.939 953.007 741.354 958.674 727.251C983.736 664.883 1009.65 600.396 1065.1 554.631C1083.42 539.457 1102.44 529.427 1121.62 524.811C1143.33 519.596 1164.7 521.526 1185.14 530.552C1190.39 532.869 1195.59 535.542 1200.59 538.5C1215.08 547.059 1228.06 557.794 1239.93 568.116C1255.54 581.708 1270.82 595.975 1285.59 609.773C1316.02 638.202 1347.49 667.6 1382.6 691.521C1423.91 719.856 1474.7 734.734 1529.49 734.544C1578.38 734.386 1630.27 722.251 1679.53 699.448C1706.37 687.025 1732.14 671.68 1756.12 653.835C1772.33 641.774 1787.75 628.55 1801.95 614.525C1814.59 602.054 1825.94 588.087 1836.92 574.582C1858.39 548.162 1880.6 520.847 1913.02 504.313C1954.73 483.015 2002.8 482.833 2049.27 482.659C2065.13 482.6 2081.54 482.539 2097.21 481.605C2114.93 480.545 2133.76 479.393 2152.2 477.996C2191.55 475.013 2243.19 470.004 2293.59 457.649C2384.76 435.315 2480.87 402.358 2596.06 353.93L2596.48 354.898C2481.24 403.345 2385.08 436.324 2293.84 458.669C2243.37 471.042 2191.68 476.056 2152.28 479.044C2133.84 480.441 2114.99 481.595 2097.28 482.654C2081.57 483.592 2065.15 483.653 2049.27 483.71C2002.94 483.884 1955.03 484.061 1913.51 505.245C1881.3 521.676 1859.17 548.905 1837.76 575.237C1826.76 588.766 1815.39 602.754 1802.71 615.265C1788.48 629.321 1773.02 642.579 1756.77 654.672C1732.73 672.56 1706.89 687.945 1679.99 700.397C1630.59 723.264 1578.54 735.436 1529.49 735.593C1474.49 735.786 1423.48 720.842 1382 692.383C1346.82 668.416 1315.32 638.99 1284.85 610.536C1270.09 596.742 1254.82 582.484 1239.22 568.905C1227.39 558.614 1214.46 547.916 1200.04 539.401C1195.07 536.464 1189.91 533.813 1184.71 531.513C1157.91 519.681 1115.53 514.233 1065.79 555.439C1010.55 601.031 984.686 665.394 959.674 727.639C954.005 741.751 948.14 756.342 942.089 770.267C912.045 839.385 870.619 913.335 815.445 996.341C773.294 1059.56 733.883 1111.88 694.956 1156.28C596.711 1268.37 479.544 1350.83 357.598 1395Z" fill="#D9D9D9"/>
<path d="M370.895 1414.19C336.898 1426.51 302.593 1435.68 268.146 1441.63L267.962 1440.6C348.099 1426.74 427.508 1395.46 503.97 1347.62C575.636 1302.78 642.965 1244.61 704.092 1174.71C745.435 1127.45 785.683 1073 823.722 1012.87C874.508 932.462 914.487 852.949 942.548 776.541C947.798 762.247 952.856 747.258 957.75 732.763C980.314 665.902 1003.65 596.765 1059.01 547.86C1098.13 513.247 1140.96 504.419 1179.62 523.014C1184.74 525.452 1189.94 528.367 1195.08 531.682C1209.63 541.069 1222.41 552.729 1234.06 563.935C1249.93 579.201 1265.4 595.288 1280.36 610.844C1309.89 641.55 1340.42 673.297 1374.97 699.618C1416.13 731.08 1467.61 748.772 1523.82 750.781C1574.21 752.583 1627.39 741.902 1677.62 719.887C1705.26 707.775 1731.46 692.554 1755.51 674.648C1771.83 662.49 1787.28 648.995 1801.43 634.542C1814.31 621.388 1825.7 606.498 1836.71 592.099C1857.49 564.93 1878.97 536.839 1911.12 519.798C1952.8 497.684 2001.08 497.661 2047.76 497.645C2064.05 497.637 2080.89 497.632 2096.95 496.645C2117.63 495.374 2134.98 494.241 2152.44 492.849C2192.06 489.692 2244.07 484.381 2295.07 471.219C2405.2 442.808 2510.96 401.135 2599.89 364.112L2600.31 365.08C2511.35 402.113 2405.54 443.804 2295.34 472.235C2244.26 485.416 2192.19 490.735 2152.53 493.895C2135.06 495.288 2117.7 496.42 2097.02 497.692C2080.93 498.68 2064.07 498.687 2047.76 498.694C2001.22 498.714 1953.09 498.737 1911.63 520.72C1879.69 537.65 1858.28 565.649 1837.57 592.729C1826.54 607.154 1815.13 622.068 1802.2 635.267C1788.02 649.761 1772.53 663.29 1756.16 675.483C1732.04 693.439 1705.77 708.701 1678.06 720.845C1627.69 742.917 1574.33 753.642 1523.79 751.834C1467.34 749.818 1415.66 732.048 1374.31 700.448C1339.7 674.081 1309.14 642.3 1279.58 611.566C1264.63 596.018 1249.17 579.94 1233.31 564.688C1221.7 553.521 1208.96 541.9 1194.5 532.564C1189.4 529.274 1184.23 526.38 1179.16 523.959C1140.91 505.568 1098.49 514.337 1059.73 548.644C1004.58 597.362 981.289 666.366 958.767 733.099C953.873 747.6 948.813 762.595 943.558 776.903C915.472 853.375 875.46 932.958 824.632 1013.43C786.566 1073.6 746.283 1128.1 704.908 1175.4C643.714 1245.37 576.302 1303.61 504.549 1348.5C460.824 1375.86 416.133 1397.81 370.895 1414.19Z" fill="#D9D9D9"/>
<path d="M383.852 1435.01C348.263 1447.9 312.297 1457.23 276.146 1462.87L275.978 1461.83C423.407 1438.83 568.088 1354.29 694.385 1217.36C751.173 1155.79 801.996 1086.02 845.437 1009.98C887.608 936.171 920.83 860.046 944.178 783.715C948.654 769.092 952.931 753.758 957.07 738.929C977.043 667.364 997.695 593.361 1052.96 541.196C1091.92 504.43 1134.96 495.353 1174.16 515.624C1193.91 525.831 1210.09 540.756 1228.29 560.022C1244.28 576.94 1259.82 594.825 1274.85 612.122C1303.65 645.259 1333.42 679.524 1367.57 708.36C1446.39 774.887 1564.61 787.524 1676.05 741.226C1724.11 721.279 1766.23 692.39 1801.22 655.369C1814.28 641.548 1825.64 625.739 1836.63 610.451C1856.74 582.46 1877.55 553.514 1909.47 535.942C1951.15 513.001 1999.68 513.173 2046.6 513.34C2063.29 513.399 2080.55 513.461 2096.97 512.435C2166.1 508.113 2233.4 502.812 2296.87 485.636C2402.24 457.128 2502.31 417.11 2604.06 375.156L2604.47 376.123C2502.68 418.093 2402.58 458.123 2297.16 486.649C2233.58 503.851 2166.22 509.156 2097.04 513.482C2080.58 514.51 2063.31 514.449 2046.6 514.389C1999.81 514.222 1951.45 514.046 1910 536.858C1878.28 554.315 1857.55 583.16 1837.5 611.056C1826.49 626.371 1815.11 642.208 1802 656.08C1766.9 693.212 1724.67 722.186 1676.46 742.192C1564.66 788.55 1446 775.946 1366.87 709.155C1332.65 680.269 1302.85 645.97 1274.03 612.802C1259.01 595.514 1243.48 577.639 1227.5 560.735C1209.36 541.55 1193.27 526.692 1173.66 516.551C1121.36 489.513 1076.05 520.858 1053.7 541.951C998.641 593.915 978.026 667.779 958.092 739.207C953.953 754.041 949.672 769.379 945.197 784.016C921.824 860.417 888.573 936.615 846.365 1010.49C802.881 1086.6 752.013 1156.43 695.171 1218.06C599.675 1321.61 493.639 1395.25 383.852 1435.01Z" fill="#D9D9D9"/>
<path d="M371.726 1430.4C339.113 1442.21 306.441 1451.02 273.851 1456.76L273.662 1455.73C380.69 1436.88 545.497 1373.51 722.859 1178.72C776.245 1120.32 823.787 1056.51 864.168 989.074C900.306 928.471 930.155 865.823 952.883 802.873C958.222 788.059 963.366 772.477 968.34 757.41C990.767 689.478 1013.95 619.235 1068.55 568.552C1107.02 532.828 1149.44 522.67 1187.99 539.945C1209.59 549.622 1227.41 564.791 1242.01 578.356C1258.63 593.81 1274.69 610.246 1290.24 626.137C1318.14 654.683 1347 684.199 1379.84 708.759C1419.62 738.646 1469.8 755.523 1524.97 757.562C1576.17 759.454 1630.37 748.814 1681.7 726.758C1691.59 722.515 1701.41 717.84 1710.87 712.861C1746.4 694.18 1778.64 670.466 1806.7 642.381C1819.66 629.411 1831.13 614.746 1842.22 600.561C1863.23 573.683 1884.96 545.89 1917.24 529.546C1927.87 524.177 1939.11 520.112 1951.6 517.115C1984.19 509.294 2019.36 510.168 2053.37 511.011C2069.82 511.42 2086.84 511.842 2103.06 511.236C2168.26 508.761 2231.88 505.375 2293.37 491.303C2296.01 490.698 2298.65 490.07 2301.28 489.421C2391.8 467.08 2486.06 434.185 2606.92 382.76L2607.34 383.725C2486.43 435.171 2392.12 468.083 2301.54 490.438C2298.9 491.087 2296.26 491.716 2293.61 492.324C2232.03 506.417 2168.36 509.806 2103.1 512.282C2086.85 512.891 2069.81 512.467 2053.34 512.06C2019.4 511.218 1984.31 510.345 1951.86 518.132C1939.45 521.11 1928.28 525.149 1917.73 530.478C1885.66 546.713 1864.01 574.411 1843.06 601.198C1831.96 615.407 1820.47 630.101 1807.47 643.112C1779.34 671.274 1747 695.051 1711.38 713.784C1701.89 718.772 1692.06 723.462 1682.14 727.716C1630.66 749.812 1576.3 760.502 1524.93 758.603C1469.55 756.553 1419.15 739.604 1379.19 709.584C1346.29 684.977 1317.4 655.428 1289.47 626.857C1273.93 610.972 1257.88 594.547 1241.27 579.109C1226.75 565.605 1209.01 550.502 1187.56 540.891C1149.41 523.804 1107.41 533.897 1069.29 569.303C1014.89 619.805 991.75 689.919 969.367 757.723C964.389 772.797 959.243 788.386 953.9 803.214C931.148 866.226 901.268 928.934 865.097 989.595C824.68 1057.1 777.095 1120.96 723.661 1179.41C657.801 1251.74 588.227 1311.7 516.874 1357.6C468.95 1388.44 420.405 1412.77 371.726 1430.4Z" fill="#D9D9D9"/>
<path d="M358.874 1426.05C329.604 1436.65 300.483 1444.81 271.498 1450.52L271.288 1449.48C417.964 1420.62 568.716 1328.67 719.394 1176.17C774.928 1120.4 824.287 1060.62 866.101 998.489C904.056 941.65 936.181 882.277 961.584 822.022C967.914 806.955 974.049 791.055 979.978 775.678C1004.74 711.464 1030.35 645.06 1084.15 595.951C1122.12 561.255 1163.92 550.018 1201.83 564.305C1219.35 570.905 1235.97 580.896 1255.71 596.707C1272.95 610.507 1289.55 625.292 1305.59 639.589C1332.63 663.687 1360.59 688.604 1392.07 709.107C1431.21 734.594 1480.21 747.793 1533.78 747.273C1583.64 746.792 1636.73 734.663 1687.31 712.194C1697.05 707.874 1706.75 703.15 1716.15 698.153C1751.25 679.504 1783.55 656.341 1812.14 629.303C1824.91 617.236 1836.39 603.753 1847.5 590.712C1870.51 563.71 1892.24 538.205 1924.98 523.09C1935.47 518.267 1946.98 514.554 1959.2 512.062C1991.62 505.445 2026.45 507.064 2060.13 508.631C2076.34 509.384 2093.1 510.163 2109.11 509.973C2173.36 509.141 2236.13 507.357 2297.78 494.816C2300.41 494.279 2303.03 493.719 2305.66 493.142C2399.77 472.181 2502.08 437.579 2609.74 390.305L2610.18 391.264C2502.45 438.568 2400.07 473.19 2305.89 494.168C2303.26 494.747 2300.64 495.304 2298 495.844C2236.26 508.405 2173.43 510.192 2109.13 511.022C2093.08 511.212 2076.3 510.432 2060.08 509.677C2026.47 508.112 1991.71 506.493 1959.42 513.088C1947.29 515.569 1935.85 519.254 1925.43 524.039C1892.92 539.057 1871.26 564.473 1848.33 591.387C1837.2 604.445 1825.69 617.95 1812.89 630.056C1784.22 657.161 1751.85 680.38 1716.66 699.072C1707.24 704.081 1697.52 708.819 1687.75 713.147C1637.05 735.674 1583.8 747.837 1533.79 748.323C1480 748.842 1430.79 735.586 1391.48 709.978C1359.93 689.433 1331.94 664.487 1304.87 640.365C1288.84 626.075 1272.26 611.3 1255.04 597.517C1235.38 581.782 1218.85 571.841 1201.45 565.283C1163.94 551.148 1122.54 562.31 1084.88 596.716C1031.26 645.659 1005.7 711.944 980.978 776.048C975.047 791.433 968.911 807.341 962.574 822.422C937.145 882.74 904.988 942.171 866.994 999.065C825.144 1061.25 775.741 1121.09 720.163 1176.9C599.095 1299.43 477.931 1382.93 358.874 1426.05Z" fill="#D9D9D9"/>
<path d="M346.115 1421.67C320.299 1431.02 294.672 1438.45 269.053 1444.04L268.817 1443.01C346.521 1426.06 424.37 1392.11 506.832 1339.2C572.058 1297.34 640.437 1243.14 715.877 1173.49C776.277 1117.72 826.044 1063.55 868.019 1007.88C907.394 955.665 941.812 899.611 970.32 841.273C977.801 825.901 984.756 810.329 992.116 793.843C1019.08 733.458 1046.97 671.017 1099.84 623.611C1147.89 580.473 1189.4 580.932 1215.76 588.916C1233.7 594.349 1250.77 602.72 1269.49 615.257C1287.28 627.177 1304.35 640.1 1320.85 652.6C1347.04 672.434 1374.12 692.945 1404.32 709.509C1443.28 730.872 1489.78 740.117 1542.54 736.986C1591.03 734.11 1643.02 720.478 1692.9 697.572C1702.51 693.167 1712.1 688.395 1721.42 683.387C1756.06 664.789 1788.41 642.186 1817.57 616.201C1830.03 605.095 1841.43 592.847 1852.46 581.002C1876.61 555.06 1899.42 530.556 1932.72 516.666C1943.24 512.322 1954.72 509.074 1966.82 507.042C1999.07 501.626 2033.55 503.986 2066.89 506.265C2082.85 507.355 2099.36 508.486 2115.16 508.705C2175.91 509.457 2240.39 509.272 2302.18 498.285C2304.79 497.816 2307.4 497.327 2310.01 496.818C2407.76 477.431 2512.38 443.191 2612.55 397.803L2613 398.758C2512.76 444.176 2408.06 478.443 2310.23 497.849C2307.61 498.36 2304.99 498.849 2302.38 499.32C2240.5 510.323 2175.95 510.51 2115.15 509.758C2099.32 509.537 2082.8 508.408 2066.82 507.315C2033.54 505.037 1999.13 502.684 1967 508.08C1954.98 510.099 1943.58 513.319 1933.15 517.637C1900.06 531.435 1877.33 555.855 1853.26 581.712C1842.21 593.575 1830.8 605.84 1818.3 616.977C1789.08 643.02 1756.66 665.673 1721.94 684.308C1712.6 689.327 1702.98 694.109 1693.35 698.524C1643.36 721.486 1591.23 735.149 1542.61 738.036C1489.64 741.18 1442.94 731.89 1403.8 710.424C1373.53 693.824 1346.42 673.291 1320.2 653.431C1303.71 640.943 1286.66 628.029 1268.89 616.124C1250.26 603.648 1233.28 595.321 1215.45 589.918C1189.35 582.019 1148.25 581.593 1100.57 624.389C1047.86 671.646 1020.02 733.983 993.1 794.267C985.733 810.761 978.776 826.34 971.287 841.732C942.75 900.129 908.297 956.242 868.88 1008.51C826.869 1064.23 777.059 1118.45 716.613 1174.26C641.124 1243.95 572.698 1298.19 507.421 1340.08C452.031 1375.62 398.707 1402.62 346.115 1421.67Z" fill="#D9D9D9"/>
<path d="M331.978 1417.79C310.498 1425.57 288.71 1432.2 266.593 1437.51L266.337 1436.49C434.647 1396.11 584.808 1278.14 712.337 1170.73C777.311 1116.01 827.382 1067.21 869.913 1017.17C910.939 968.9 947.644 916.15 979.016 860.394C987.845 844.622 996.08 828.564 1004.8 811.564C1033.77 755.085 1063.72 696.68 1115.48 651.104C1141.65 628.009 1182.71 602.717 1229.62 613.358C1248.11 617.551 1265.63 624.186 1283.2 633.645C1301.49 643.492 1318.97 654.361 1335.88 664.874C1361.27 680.656 1387.51 696.973 1416.51 709.778C1454.72 726.646 1500.05 732.302 1551.25 726.586C1598.35 721.327 1649.25 706.198 1698.44 682.839C1707.9 678.363 1717.39 673.543 1726.65 668.512C1760.8 649.988 1793.2 627.94 1822.96 602.98C1834.98 592.9 1846.16 581.931 1856.96 571.323C1882.39 546.356 1906.41 522.774 1940.43 510.118C1940.66 510.032 1940.89 509.948 1941.12 509.864C1951.48 506.113 1962.67 503.433 1974.39 501.897C2006.47 497.688 2040.6 500.792 2073.61 503.791C2089.33 505.22 2105.58 506.697 2121.17 507.324C2181 509.617 2244.6 511.07 2306.55 501.652C2309.14 501.252 2311.74 500.831 2314.33 500.393C2415.66 482.809 2519.73 449.896 2615.32 405.203L2615.78 406.153C2520.11 450.886 2415.94 483.832 2314.52 501.428C2311.92 501.867 2309.32 502.288 2306.71 502.69C2244.68 512.12 2181.02 510.668 2121.13 508.373C2105.51 507.747 2089.25 506.268 2073.52 504.837C2040.57 501.84 2006.5 498.745 1974.53 502.937C1962.63 504.498 1951.32 507.204 1940.81 511.101C1907 523.672 1883.06 547.179 1857.72 572.065C1846.9 582.687 1835.71 593.669 1823.66 603.777C1793.85 628.784 1761.38 650.873 1727.17 669.428C1717.89 674.469 1708.38 679.299 1698.91 683.784C1649.62 707.196 1598.6 722.355 1551.38 727.627C1499.98 733.365 1454.46 727.68 1416.08 710.733C1387 697.897 1360.73 681.559 1335.31 665.758C1318.41 655.252 1300.94 644.394 1282.69 634.561C1265.21 625.151 1247.77 618.545 1229.38 614.375C1182.92 603.836 1142.18 628.955 1116.19 651.881C1064.58 697.325 1034.68 755.638 1005.75 812.033C997.03 829.041 988.791 845.106 979.953 860.896C948.55 916.714 911.804 969.518 870.735 1017.84C828.166 1067.93 778.054 1116.76 713.036 1171.52C602.159 1264.91 474.175 1366.28 331.978 1417.79Z" fill="#D9D9D9"/>
<path d="M316.78 1414.29C299.374 1420.59 281.809 1426.13 264.065 1430.78L263.788 1429.77C420.197 1388.75 563.902 1278.73 690.694 1181.65C696.74 1177.02 702.758 1172.42 708.752 1167.84C779.207 1113.99 829.486 1070.37 871.78 1026.39C914.464 982.011 953.47 932.594 987.717 879.514C998.15 863.249 1007.91 846.586 1018.24 828.944C1048.97 776.496 1080.73 722.26 1131.15 678.693C1156.99 656.316 1197.47 631.074 1243.52 637.899C1263.02 640.787 1280.49 645.435 1296.94 652.111C1315.6 659.687 1333.43 668.301 1350.68 676.629C1375.33 688.534 1400.81 700.844 1428.71 710.049C1500.79 733.836 1601.13 718.526 1703.98 668.064C1713.32 663.495 1722.7 658.626 1731.86 653.59C1765.48 635.172 1797.94 613.686 1828.35 589.733C1839.78 580.74 1850.55 571.08 1860.97 561.739C1887.84 537.655 1913.18 514.933 1948.14 503.572C1958.62 500.172 1970 497.878 1981.96 496.754C2013.89 493.753 2047.68 497.596 2080.37 501.307C2095.83 503.064 2111.81 504.88 2127.17 505.905C2186.09 509.713 2248.8 512.774 2310.89 504.946C2313.47 504.616 2316.05 504.27 2318.64 503.894C2420.44 489.024 2526.78 456.575 2618.07 412.518L2618.54 413.464C2527.16 457.565 2420.7 490.047 2318.8 504.936C2316.21 505.312 2313.62 505.66 2311.03 505.993C2248.85 513.832 2186.07 510.766 2127.1 506.958C2111.71 505.932 2095.72 504.114 2080.25 502.357C2047.62 498.647 2013.88 494.813 1982.07 497.806C1970.18 498.921 1958.89 501.199 1948.48 504.576C1913.77 515.842 1888.48 538.515 1861.69 562.521C1851.26 571.871 1840.47 581.542 1829.02 590.558C1798.57 614.548 1766.05 636.066 1732.39 654.512C1723.21 659.555 1713.81 664.432 1704.46 669.007C1684.28 678.908 1664.19 687.465 1644.39 694.633C1563.04 724.105 1486.56 730.252 1428.36 711.05C1400.4 701.825 1374.88 689.499 1350.2 677.58C1332.98 669.259 1315.16 660.654 1296.53 653.091C1280.17 646.448 1262.78 641.821 1243.36 638.945C1197.72 632.183 1157.53 657.264 1131.86 679.491C1081.57 722.942 1049.85 777.101 1019.17 829.481C1008.83 847.13 999.065 863.802 988.62 880.083C954.336 933.223 915.287 982.695 872.558 1027.12C830.226 1071.14 779.909 1114.79 709.409 1168.67C703.415 1173.26 697.396 1177.86 691.353 1182.49C578.852 1268.61 453.032 1364.94 316.78 1414.29Z" fill="#D9D9D9"/>
<path d="M302.718 1410.38C289.073 1415.32 275.322 1419.8 261.416 1423.76L261.118 1422.76C395.128 1384.51 516.502 1298.27 633.877 1214.86C658.424 1197.41 681.613 1180.93 705.089 1164.75C771.15 1119.23 825.086 1079.82 873.597 1035.48C917.962 994.929 959.28 948.873 996.399 898.591C1008.78 881.715 1020.39 864.292 1032.69 845.842C1064.84 797.592 1098.08 747.699 1146.86 706.379C1183.44 675.32 1221.68 660.169 1257.46 662.545C1278.61 663.954 1295.52 666.533 1310.69 670.656C1329.58 675.798 1347.64 681.957 1365.11 687.915C1389.13 696.109 1413.96 704.582 1440.88 710.321C1511.69 725.418 1607.08 705.147 1709.5 653.252C1718.67 648.618 1727.95 643.706 1737.07 638.644C1770.05 620.388 1802.57 599.478 1833.74 576.491C1844.34 568.672 1854.48 560.401 1864.3 552.399C1892.85 529.112 1919.81 507.101 1955.87 497.063C1966.37 494.132 1977.7 492.307 1989.55 491.639C2021.31 489.839 2054.75 494.402 2087.1 498.817C2102.3 500.889 2118.01 503.034 2133.15 504.445C2191.14 509.724 2252.97 514.357 2315.18 508.122C2317.74 507.858 2320.31 507.581 2322.88 507.271C2426.63 494.76 2532.42 463.654 2620.75 419.69L2621.24 420.625C2532.8 464.647 2426.89 495.788 2323.01 508.313C2320.44 508.623 2317.86 508.9 2315.29 509.167C2252.98 515.413 2191.1 510.774 2133.05 505.491C2117.89 504.077 2102.16 501.931 2086.96 499.855C2054.66 495.449 2021.26 490.891 1989.61 492.687C1977.84 493.351 1966.59 495.165 1956.16 498.072C1920.33 508.076 1893.45 529.993 1864.98 553.205C1855.16 561.217 1845 569.497 1834.38 577.331C1803.17 600.345 1770.61 621.284 1737.59 639.561C1728.46 644.627 1719.17 649.549 1709.99 654.188C1607.35 706.197 1511.7 726.497 1440.66 711.35C1413.67 705.595 1388.8 697.114 1364.75 688.911C1347.3 682.957 1329.26 676.802 1310.4 671.673C1295.31 667.567 1278.46 665.002 1257.38 663.596C1221.9 661.237 1183.92 676.304 1147.56 707.178C1098.89 748.4 1065.69 798.231 1033.58 846.421C1021.28 864.879 1009.66 882.313 997.264 899.209C960.105 949.544 918.741 995.653 874.326 1036.25C825.77 1080.63 771.8 1120.06 705.705 1165.62C682.231 1181.79 659.049 1198.27 634.502 1215.71C529.226 1290.53 420.721 1367.64 302.718 1410.38Z" fill="#D9D9D9"/>
<path d="M287.584 1408.36C278.176 1411.76 268.725 1414.95 259.204 1417.88L258.883 1416.88C375.517 1380.9 483.296 1308.05 587.543 1237.6C626.9 1211.01 664.077 1185.88 701.773 1162.58C763.685 1124.32 822.164 1088.17 875.698 1045.32C921.764 1008.44 965.362 965.672 1005.28 918.198C1020.05 900.52 1033.92 882.085 1048.61 862.568C1081.7 818.591 1115.92 773.116 1162.64 734.265C1198.74 704.182 1236.37 687.976 1271.46 687.39C1291.87 687.054 1308.71 687.277 1324.53 689.474C1343.45 692.098 1361.6 695.689 1379.14 699.162C1402.71 703.825 1427.08 708.649 1453.24 711.074C1521.38 717.399 1614.42 691.814 1715.24 639.023C1724.28 634.304 1733.45 629.339 1742.48 624.269C1774.6 606.29 1807.18 585.926 1839.31 563.751C1848.8 557.204 1858.01 550.368 1866.92 543.762C1897.46 521.102 1926.3 499.693 1963.75 490.969C1974.27 488.517 1985.56 487.166 1997.29 486.952C2028.91 486.379 2062.03 491.711 2094.06 496.863C2109 499.266 2124.44 501.75 2139.35 503.562C2193.97 510.062 2257.45 516.613 2319.76 512.031C2322.3 511.836 2324.86 511.63 2327.41 511.388C2432.71 501.471 2537.95 471.731 2623.73 427.642L2624.23 428.573C2538.33 472.724 2432.95 502.503 2327.52 512.435C2324.95 512.676 2322.39 512.883 2319.84 513.079C2257.44 517.668 2193.89 511.11 2139.22 504.605C2124.29 502.79 2108.84 500.303 2093.89 497.9C2061.91 492.752 2028.83 487.428 1997.32 488.002C1985.66 488.21 1974.44 489.554 1963.99 491.989C1926.76 500.659 1898.01 522.006 1867.56 544.598C1858.65 551.212 1849.44 558.052 1839.93 564.609C1807.77 586.802 1775.16 607.182 1743.02 625.18C1733.97 630.254 1724.8 635.226 1715.74 639.95C1667.4 665.264 1620.99 684.394 1577.78 696.805C1530.85 710.289 1488.92 715.443 1453.14 712.122C1426.93 709.688 1402.53 704.86 1378.94 700.191C1361.4 696.721 1343.28 693.133 1324.38 690.512C1308.63 688.327 1291.84 688.106 1271.48 688.444C1236.64 689.017 1199.25 705.143 1163.34 735.068C1116.71 773.839 1082.53 819.264 1049.47 863.192C1034.78 882.72 1020.9 901.165 1006.11 918.864C966.146 966.396 922.496 1009.21 876.377 1046.13C822.79 1089.02 764.286 1125.18 702.346 1163.47C664.667 1186.76 627.5 1211.87 588.152 1238.47C492.345 1303.21 393.533 1369.98 287.584 1408.36Z" fill="#D9D9D9"/>
<path d="M272.339 1406.38C267.208 1408.24 262.059 1410.03 256.894 1411.74L256.552 1410.75C359.099 1376.65 455.369 1313.8 548.46 1253.03C599.979 1219.39 648.64 1187.62 698.413 1160.28C706.881 1155.63 715.302 1151.03 723.676 1146.45C778.13 1116.71 829.565 1088.61 877.785 1055.1C925.608 1021.86 971.5 982.411 1014.19 937.855C1031.98 919.172 1048.71 899.436 1066.42 878.543C1099.83 839.116 1134.39 798.347 1178.52 762.378C1214.13 733.271 1251.14 716.016 1285.55 712.472L1292.4 711.761C1309.41 709.981 1324.11 708.443 1338.45 708.499C1357.08 708.574 1375.03 709.489 1392.39 710.374C1415.77 711.565 1439.94 712.795 1465.62 711.939C1531.39 709.748 1619.69 679.634 1721 624.859C1729.82 620.108 1738.88 615.094 1747.93 609.961C1778.56 592.63 1811.19 572.833 1844.93 551.117C1852.94 545.966 1860.81 540.656 1868.42 535.524C1901.36 513.328 1932.47 492.362 1971.69 485.017C1982.24 483.043 1993.49 482.162 2005.09 482.402C2036.56 483.049 2069.35 489.129 2101.07 495.006C2115.74 497.725 2130.9 500.533 2145.57 502.728C2199.34 510.636 2261.94 518.826 2324.32 515.899C2326.85 515.772 2329.38 515.632 2331.92 515.46C2436.88 508.347 2544.32 479.209 2626.69 435.522L2627.2 436.445C2544.7 480.207 2437.11 509.382 2332 516.508C2329.45 516.679 2326.91 516.82 2324.37 516.946C2261.89 519.88 2199.23 511.681 2145.41 503.763C2130.72 501.567 2115.54 498.754 2100.87 496.036C2069.2 490.164 2036.45 484.095 2005.07 483.448C1993.54 483.209 1982.37 484.084 1971.89 486.046C1932.88 493.343 1901.87 514.253 1869.03 536.386C1861.41 541.521 1853.53 546.833 1845.52 551.989C1811.76 573.716 1779.11 593.524 1748.46 610.864C1739.41 616.004 1730.34 621.019 1721.52 625.772C1620.06 680.628 1531.59 710.784 1465.66 712.981C1439.92 713.839 1415.73 712.606 1392.34 711.416C1374.99 710.531 1357.05 709.619 1338.44 709.545C1324.17 709.484 1309.5 711.021 1292.51 712.797L1285.66 713.509C1251.46 717.031 1214.65 734.207 1179.2 763.178C1135.15 799.089 1100.63 839.819 1067.24 879.209C1049.52 900.116 1032.78 919.863 1014.97 938.57C972.232 983.18 926.284 1022.67 878.404 1055.95C830.139 1089.5 778.679 1117.61 724.199 1147.37C715.824 1151.94 707.403 1156.54 698.937 1161.19C649.199 1188.52 600.555 1220.27 549.055 1253.9C460.588 1311.65 369.262 1371.27 272.339 1406.38Z" fill="#D9D9D9"/>
<path d="M257.056 1404.41C256.196 1404.72 255.342 1405.03 254.48 1405.34L254.113 1404.35C254.968 1404.04 255.831 1403.73 256.685 1403.42C346.627 1370.85 432.087 1316.22 514.767 1263.36C573.67 1225.71 634.578 1186.77 694.905 1157.6C709.998 1150.3 725.154 1143.13 739.811 1136.19C788.919 1112.96 835.303 1091.02 879.71 1064.46C929.339 1034.77 977.52 998.621 1022.91 957.016C1044.6 937.009 1065 915.516 1086.61 892.76C1119.44 858.185 1153.39 822.434 1194.14 789.854C1229.28 761.69 1265.68 743.384 1299.4 736.906C1305.8 735.676 1311.93 734.405 1317.85 733.175C1329.83 730.688 1341.14 728.341 1352.12 726.9C1369.89 724.568 1387.12 722.872 1403.78 721.23C1427.48 718.898 1451.98 716.482 1477.79 712.23C1540.7 701.867 1622.07 668.464 1726.54 610.114C1735.24 605.273 1744.19 600.211 1753.15 595.069C1785.87 576.347 1819.19 556.512 1850.31 537.871C1856.33 534.268 1862.33 530.592 1868.13 527.04C1904 505.059 1937.88 484.297 1979.39 478.442C1989.99 476.946 2001.18 476.541 2012.66 477.237C2043.99 479.129 2076.47 485.982 2107.89 492.61C2122.28 495.646 2137.16 498.784 2151.59 501.366C2204.55 510.701 2266.28 520.56 2328.7 519.327C2331.22 519.269 2333.74 519.203 2336.27 519.098C2442.18 514.792 2549.06 487.05 2629.49 442.999L2630.02 443.916C2549.43 488.048 2442.39 515.834 2336.32 520.15C2333.78 520.252 2331.25 520.323 2328.73 520.379C2266.21 521.614 2204.41 511.747 2151.4 502.402C2136.95 499.817 2122.07 496.676 2107.67 493.638C2076.29 487.018 2043.85 480.172 2012.59 478.285C2001.19 477.597 1990.07 477.998 1979.54 479.483C1938.26 485.305 1904.47 506.01 1868.7 527.932C1862.9 531.487 1856.9 535.165 1850.87 538.769C1819.74 557.414 1786.42 577.25 1753.69 595.978C1744.73 601.121 1735.77 606.187 1727.08 611.031C1622.49 669.442 1541.01 702.884 1477.97 713.273C1452.13 717.53 1427.6 719.943 1403.89 722.281C1387.24 723.922 1370.02 725.617 1352.27 727.947C1341.33 729.383 1330.03 731.726 1318.08 734.208C1312.15 735.44 1306.02 736.71 1299.6 737.945C1266.05 744.385 1229.82 762.626 1194.82 790.674C1154.13 823.209 1120.21 858.935 1087.4 893.483C1065.78 916.253 1045.36 937.761 1023.64 957.791C978.201 999.446 929.964 1035.64 880.268 1065.36C835.819 1091.95 789.412 1113.9 740.28 1137.15C725.622 1144.08 710.468 1151.25 695.382 1158.55C635.111 1187.7 574.231 1226.62 515.355 1264.25C432.626 1317.13 347.105 1371.8 257.056 1404.41Z" fill="#D9D9D9"/>
<path d="M252.013 1398.73L251.622 1397.76C332.616 1366.78 410.257 1317.71 485.344 1270.25C552.336 1227.9 621.612 1184.12 691.37 1154.81C711.716 1146.26 732.125 1138.08 751.86 1130.18C797.167 1112.04 839.964 1094.9 881.616 1073.74C933.134 1047.57 983.608 1014.74 1031.63 976.157C1058.56 954.396 1083.9 930.469 1110.72 905.139C1141.63 875.955 1173.59 845.782 1209.81 817.404C1244.46 790.196 1280.23 770.835 1313.28 761.437C1322.41 758.838 1330.93 756.109 1339.18 753.47C1348.42 750.514 1357.15 747.717 1365.84 745.387C1381.34 741.236 1396.48 737.438 1411.13 733.763C1437.62 727.116 1462.64 720.838 1489.98 712.57C1561.92 690.836 1648.88 643.4 1732.11 595.404C1740.84 590.387 1749.6 585.322 1758.4 580.216C1786.72 563.828 1821.96 543.431 1855.73 524.685C1859.06 522.831 1862.38 520.98 1865.68 519.138C1905.27 497.034 1942.66 476.157 1987.11 471.937C1997.77 470.93 2008.91 470.995 2020.25 472.136C2051.46 475.27 2083.64 482.89 2114.76 490.26C2128.86 493.598 2143.44 497.052 2157.61 500.001C2209.76 510.735 2270.64 522.226 2333.07 522.691C2335.57 522.701 2338.08 522.698 2340.59 522.667C2447.25 521.231 2553.55 494.885 2632.26 450.383L2632.79 451.292C2553.94 495.887 2447.44 522.28 2340.61 523.714C2338.09 523.749 2335.57 523.749 2333.07 523.739C2270.53 523.274 2209.6 511.774 2157.39 501.031C2143.2 498.074 2128.62 494.619 2114.51 491.281C2083.43 483.92 2051.28 476.307 2020.14 473.182C2008.88 472.051 1997.8 471.983 1987.22 472.986C1942.99 477.182 1905.69 498.006 1866.22 520.053C1862.91 521.895 1859.6 523.75 1856.26 525.602C1822.5 544.343 1787.26 564.737 1758.95 581.125C1750.15 586.23 1741.39 591.295 1732.65 596.314C1649.36 644.343 1562.35 691.775 1490.3 713.578C1462.93 721.851 1437.9 728.133 1411.4 734.784C1396.75 738.457 1381.62 742.255 1366.13 746.403C1357.46 748.724 1348.74 751.516 1339.51 754.473C1331.26 757.113 1322.73 759.846 1313.59 762.448C1280.69 771.821 1245.03 791.107 1210.48 818.231C1174.3 846.577 1142.36 876.735 1111.47 905.9C1084.63 931.243 1059.27 955.185 1032.32 976.972C984.232 1015.6 933.698 1048.47 882.114 1074.68C840.416 1095.86 797.603 1113.01 752.27 1131.16C732.537 1139.06 712.134 1147.23 691.797 1155.78C622.122 1185.05 552.884 1228.81 485.929 1271.13C410.793 1318.62 333.107 1367.72 252.013 1398.73Z" fill="#D9D9D9"/>
<path d="M249.54 1392.12L249.129 1391.15C320.888 1361.85 390.121 1317.95 457.074 1275.5C531.501 1228.31 608.484 1179.56 687.781 1151.86C709.12 1144.42 730.524 1137.36 751.225 1130.53C797.228 1115.36 840.682 1101.03 883.468 1082.87C936.951 1060.17 989.706 1030.63 1040.27 995.083C1074.53 970.858 1106.74 943.346 1140.83 914.214C1167.69 891.268 1195.47 867.537 1225.34 844.588C1257.55 819.79 1293.22 801.568 1326.98 785.573C1341.89 778.51 1355.92 772.887 1369.5 767.449C1372.84 766.115 1376.14 764.793 1379.41 763.467C1386.97 760.399 1394.42 757.394 1401.79 754.419C1435.58 740.785 1467.49 727.906 1502.02 712.49C1559.53 686.806 1627.14 646.283 1698.71 603.38C1711.46 595.738 1724.39 587.988 1737.48 580.188C1746.08 575.083 1754.73 569.963 1763.45 564.845C1799.34 543.817 1831.23 526.187 1860.93 510.945C1904.8 488.449 1946.23 467.205 1994.64 464.883C2005.35 464.37 2016.46 464.917 2027.64 466.507C2058.76 470.921 2090.66 479.356 2121.52 487.512C2135.32 491.161 2149.58 494.932 2163.48 498.26C2227.22 513.367 2281.18 523.838 2337.35 525.837C2339.83 525.918 2342.33 525.99 2344.83 526.025C2450.53 527.596 2559 502.024 2634.96 457.624L2635.51 458.529C2559.37 503.024 2450.71 528.651 2344.82 527.077C2342.31 527.04 2339.81 526.969 2337.32 526.885C2281.05 524.884 2227.03 514.403 2163.23 499.28C2149.32 495.95 2135.05 492.176 2121.24 488.527C2090.42 480.377 2058.55 471.951 2027.49 467.545C2016.37 465.964 2005.34 465.422 1994.69 465.93C1946.52 468.238 1905.19 489.435 1861.43 511.872C1831.74 527.103 1799.87 544.724 1763.99 565.743C1755.28 570.858 1746.63 575.976 1738.03 581.08C1724.94 588.88 1712.01 596.632 1699.27 604.274C1627.66 647.192 1560.03 687.733 1502.46 713.44C1467.92 728.863 1435.99 741.747 1402.19 755.386C1394.83 758.358 1387.38 761.363 1379.81 764.431C1376.54 765.756 1373.24 767.078 1369.91 768.415C1356.34 773.847 1342.32 779.463 1327.44 786.512C1293.74 802.482 1258.13 820.671 1226 845.409C1196.14 868.338 1168.38 892.06 1141.53 915C1107.42 944.145 1075.19 971.677 1040.9 995.928C990.268 1031.52 937.443 1061.09 883.893 1083.82C841.065 1102 797.592 1116.34 751.568 1131.52C730.871 1138.34 709.471 1145.4 688.141 1152.84C608.873 1180.44 532.03 1229.21 457.657 1276.37C390.664 1318.86 321.389 1362.79 249.54 1392.12Z" fill="#D9D9D9"/>
<path d="M247.076 1385.51L246.642 1384.55C311.713 1356.25 374.967 1316.22 436.132 1277.51C515.723 1227.13 598.033 1175.04 684.274 1149.14C712.435 1140.68 740.758 1133.28 768.15 1126.13C808.776 1115.51 847.152 1105.48 885.412 1092.23C940.947 1072.99 995.995 1046.79 1049.04 1014.34C1094.3 986.505 1136.72 953.334 1181.63 918.213C1200.83 903.19 1220.7 887.659 1241.08 872.334C1274.71 847.015 1309.26 825.563 1341 810.304C1354.42 803.849 1366.66 796.987 1378.51 790.348C1383.57 787.512 1388.35 784.833 1393.22 782.177C1434.49 759.713 1472.96 737.749 1514.3 713.052C1547.63 693.144 1583.88 669.145 1622.25 643.737C1660.68 618.299 1700.41 591.992 1743.15 565.724C1751.95 560.327 1760.58 555.121 1768.79 550.245C1802.59 530.221 1835.45 512.652 1866.45 498.028C1910.37 477.325 1953.82 458.737 2002.48 458.657C2013.24 458.635 2024.29 459.648 2035.34 461.666C2066.35 467.33 2097.96 476.532 2128.53 485.429C2142.01 489.354 2155.96 493.414 2169.58 497.084C2232.35 513.873 2285.65 525.776 2341.76 529.304C2344.23 529.456 2346.71 529.592 2349.2 529.699C2455.35 534.212 2563.21 510.055 2637.76 465.081L2638.32 465.977C2563.6 511.056 2455.51 535.271 2349.15 530.749C2346.66 530.645 2344.17 530.507 2341.69 530.355C2285.49 526.823 2232.13 514.905 2169.29 498.099C2155.66 494.426 2141.71 490.366 2128.22 486.439C2097.68 477.55 2066.1 468.358 2035.14 462.702C2024.16 460.694 2013.17 459.69 2002.48 459.708C1954.04 459.795 1910.72 478.332 1866.91 498.978C1835.94 513.588 1803.11 531.141 1769.34 551.144C1761.13 556.017 1752.51 561.223 1743.71 566.618C1700.99 592.876 1661.26 619.175 1622.85 644.608C1584.46 670.024 1548.2 694.029 1514.85 713.949C1473.5 738.653 1435.01 760.626 1393.74 783.096C1388.87 785.75 1384.09 788.426 1379.03 791.261C1367.18 797.905 1354.92 804.776 1341.46 811.248C1309.78 826.477 1275.3 847.89 1241.73 873.168C1221.35 888.486 1201.49 904.016 1182.29 919.035C1137.36 954.174 1094.92 987.365 1049.61 1015.23C996.492 1047.72 941.403 1073.96 885.765 1093.22C847.467 1106.48 809.071 1116.52 768.423 1127.14C741.042 1134.29 712.729 1141.69 684.588 1150.14C598.446 1176 516.243 1228.05 436.708 1278.39C375.513 1317.13 312.225 1357.18 247.076 1385.51Z" fill="#D9D9D9"/>
<path d="M244.621 1378.9L244.163 1377.95C302.719 1350.89 359.932 1314.33 415.261 1278.97C499.755 1224.97 587.13 1169.13 680.752 1146.34C711.87 1138.75 743.259 1132.61 773.612 1126.67C811.171 1119.32 850.007 1111.72 887.334 1101.51C944.961 1085.75 1002.31 1062.87 1057.78 1033.48C1121.26 999.702 1180.28 956.219 1242.76 910.183L1256.76 899.876C1289.74 875.579 1323.67 853.086 1354.89 834.825C1370.93 825.449 1385.49 815.427 1399.58 805.736C1402.05 804.036 1404.51 802.342 1406.96 800.66C1449.95 771.236 1490.62 740.495 1526.51 713.376C1541.54 702.016 1556.83 690.204 1573.02 677.692C1624.78 637.699 1683.44 592.369 1748.7 550.969C1757.17 545.604 1765.69 540.345 1774.02 535.345C1806.96 515.605 1839.87 498.598 1871.86 484.798C1914.18 466.541 1960.23 449.945 2010.2 452.111C2021.14 452.62 2032.15 454.106 2042.92 456.526C2073.87 463.479 2105.23 473.485 2135.56 483.16C2148.7 487.354 2162.29 491.691 2175.59 495.696C2229.09 511.705 2286.77 527.261 2346.13 532.658C2348.58 532.875 2351.05 533.078 2353.52 533.257C2402.77 536.66 2454.26 533.478 2502.43 524.049C2555.96 513.568 2602.42 496.214 2640.53 472.463L2641.1 473.35C2602.89 497.169 2556.31 514.571 2502.64 525.078C2454.38 534.528 2402.79 537.718 2353.45 534.304C2350.97 534.123 2348.49 533.923 2346.03 533.704C2286.58 528.298 2228.83 512.724 2175.28 496.701C2161.97 492.695 2148.37 488.357 2135.23 484.162C2104.92 474.493 2073.59 464.493 2042.68 457.552C2031.97 455.147 2021.02 453.669 2010.15 453.165C1960.4 451.006 1914.48 467.552 1872.29 485.761C1840.35 499.544 1807.47 516.53 1774.58 536.243C1766.26 541.242 1757.74 546.495 1749.28 551.855C1684.06 593.228 1625.42 638.54 1573.68 678.519C1557.49 691.03 1542.2 702.848 1527.16 714.21C1491.27 741.339 1450.58 772.084 1407.58 801.525C1405.12 803.206 1402.66 804.899 1400.19 806.599C1386.09 816.3 1371.51 826.333 1355.44 835.731C1324.25 853.97 1290.35 876.444 1257.4 900.719L1243.4 911.025C1180.88 957.086 1121.83 1000.59 1058.29 1034.4C1002.74 1063.83 945.314 1086.75 887.617 1102.53C850.252 1112.74 811.395 1120.35 773.819 1127.7C743.477 1133.64 712.1 1139.78 681.007 1147.36C587.566 1170.12 500.264 1225.9 415.842 1279.85C360.486 1315.23 303.244 1351.81 244.621 1378.9Z" fill="#D9D9D9"/>
<path d="M242.154 1372.29L241.674 1371.35C294.455 1345.5 346.264 1311.98 396.369 1279.55C485.054 1222.15 576.764 1162.8 677.298 1143.76C710.923 1137.38 744.96 1132.83 777.875 1128.43C814.575 1123.52 852.524 1118.44 889.274 1110.88C949.059 1098.58 1008.7 1079 1066.53 1052.68C1143.6 1017.5 1213.91 969.728 1272.51 927.643C1303.45 905.396 1335.88 882.53 1368.91 859.679C1387.51 846.813 1404.09 833.352 1420.86 819.542C1457.2 789.603 1490.17 759.225 1525.08 727.066C1529.68 722.824 1534.3 718.57 1538.94 714.299L1548.1 705.873C1607.44 651.254 1674.69 589.35 1754.59 537.129C1762.9 531.701 1771.32 526.403 1779.6 521.382C1811.43 502.106 1845.33 485.217 1877.62 472.542C1932.34 451.076 1977.03 442.792 2018.26 446.469C2029.25 447.475 2040.21 449.414 2050.82 452.23C2081.73 460.435 2112.86 471.201 2142.96 481.612C2155.7 486.022 2168.88 490.579 2181.82 494.863C2234.47 512.233 2291.36 529.269 2350.57 536.238C2353.01 536.521 2355.46 536.785 2357.93 537.031C2406.8 541.779 2458.1 539.637 2506.27 530.836C2559.13 521.181 2606.52 503.572 2643.31 479.914L2643.9 480.789C2606.99 504.524 2559.47 522.185 2506.47 531.867C2458.2 540.684 2406.79 542.833 2357.82 538.073C2355.34 537.828 2352.89 537.565 2350.45 537.28C2291.14 530.297 2234.18 513.243 2181.47 495.855C2168.53 491.571 2155.35 487.011 2142.6 482.601C2112.51 472.196 2081.41 461.438 2050.54 453.244C2039.98 450.442 2029.09 448.513 2018.16 447.514C1977.11 443.852 1932.58 452.115 1878.02 473.515C1845.78 486.168 1811.94 503.028 1780.17 522.273C1771.89 527.289 1763.49 532.582 1755.18 538.001C1675.36 590.173 1608.14 652.046 1548.83 706.637L1539.68 715.063C1535.03 719.331 1530.41 723.588 1525.81 727.828C1490.89 759.999 1457.91 790.387 1421.55 820.344C1404.76 834.17 1388.16 847.646 1369.53 860.535C1336.5 883.383 1304.07 906.246 1273.14 928.487C1214.49 970.605 1144.14 1018.41 1066.98 1053.63C1009.08 1079.99 949.357 1099.59 889.487 1111.91C852.702 1119.47 814.735 1124.56 778.017 1129.47C745.118 1133.87 711.096 1138.42 677.498 1144.79C577.173 1163.79 485.555 1223.08 396.956 1280.42C346.827 1312.87 294.989 1346.42 242.154 1372.29Z" fill="#D9D9D9"/>
<path d="M1057.96 1079.81C1003.59 1099.51 947.676 1113.51 891.454 1121.5C854.867 1126.62 817.347 1129.38 781.06 1132.05C745.959 1134.63 709.662 1137.3 673.956 1142.11C567.065 1156.76 471.863 1219.61 379.797 1280.39C334.418 1310.35 287.493 1341.32 239.835 1366.06L239.333 1365.13C286.942 1340.42 333.844 1309.46 379.199 1279.51C471.371 1218.67 566.674 1155.75 673.811 1141.06C709.553 1136.25 745.866 1133.58 780.981 1131C817.249 1128.33 854.754 1125.58 891.302 1120.46C953.6 1111.61 1015.55 1095.36 1075.39 1072.16C1145.74 1044.84 1215.36 1006.62 1288.24 955.325C1321.87 931.643 1353.68 907.716 1382.82 884.21C1399.14 871.041 1415.59 856.34 1434.59 837.943C1470.43 803.223 1504.09 766.069 1536.66 730.138C1541.44 724.859 1546.23 719.572 1551.04 714.283C1605.86 654.287 1674.08 579.617 1759.87 521.631C1768 516.137 1776.3 510.781 1784.55 505.711C1815.82 486.503 1849.78 470.177 1882.72 458.489C1936.06 439.58 1982.83 433.271 2025.71 439.209C2036.77 440.756 2047.69 443.19 2058.16 446.447C2089.15 456.081 2120.17 467.8 2150.16 479.134C2162.47 483.788 2175.2 488.598 2187.72 493.183C2239.67 512.173 2295.88 530.953 2354.99 539.702C2357.41 540.057 2359.85 540.398 2362.3 540.714C2445 551.365 2563.01 543.007 2646.2 487.605L2646.8 488.479C2563.37 544.038 2445.06 552.435 2362.16 541.761C2359.7 541.441 2357.26 541.102 2354.83 540.741C2295.63 531.98 2239.35 513.181 2187.35 494.169C2174.83 489.581 2162.09 484.77 2149.78 480.116C2119.8 468.786 2088.8 457.074 2057.84 447.449C2047.43 444.212 2036.57 441.789 2025.57 440.251C1982.87 434.339 1936.26 440.629 1883.09 459.48C1850.23 471.132 1816.33 487.434 1785.12 506.605C1776.89 511.665 1768.6 517.013 1760.48 522.497C1674.8 580.413 1606.62 655.029 1551.84 714.985C1547.04 720.271 1542.24 725.559 1537.46 730.835C1504.89 766.781 1471.21 803.95 1435.34 838.691C1416.32 857.113 1399.85 871.834 1383.51 885.025C1354.35 908.545 1322.51 932.485 1288.87 956.182C1215.92 1007.53 1146.22 1045.79 1075.79 1073.14C1069.86 1075.43 1063.92 1077.66 1057.96 1079.81Z" fill="#D9D9D9"/>
<path d="M1110.27 1083.38C1040.02 1108.82 967.37 1124.71 893.285 1130.76C856.764 1133.75 819.502 1134.38 783.467 1135C746.367 1135.63 708.006 1136.28 670.44 1139.5C557.305 1149.2 459.041 1215.44 364.005 1279.49C322.897 1307.2 280.39 1335.85 237.361 1359.43L236.839 1358.52C279.824 1334.96 322.312 1306.32 363.4 1278.63C458.548 1214.49 556.935 1148.18 670.345 1138.45C707.947 1135.23 746.331 1134.58 783.448 1133.95C819.466 1133.34 856.71 1132.7 893.195 1129.72C998.413 1121.12 1100.76 1092.66 1197.4 1045.13C1294.03 997.599 1378.49 934.179 1448.42 856.637C1483.21 818.058 1515.54 776.582 1546.8 736.473C1616.29 647.302 1688.15 555.092 1790.14 491.779C1832.21 465.659 1878.24 446.701 1923.24 436.962C1975.95 425.549 2024 427.284 2066.04 442.118C2097.16 453.096 2128.09 465.66 2158.01 477.812C2222.09 503.837 2288.35 530.748 2359.4 543.198C2488.4 565.802 2596 531.334 2648.94 494.948L2649.56 495.81C2613.24 520.769 2565.06 538.193 2510.23 546.191C2461.03 553.369 2407.4 552.675 2359.21 544.231C2288.05 531.762 2221.73 504.828 2157.6 478.781C2127.69 466.638 2096.77 454.078 2065.68 443.107C2023.83 428.341 1975.98 426.617 1923.47 437.987C1878.59 447.701 1832.68 466.611 1790.71 492.664C1688.89 555.88 1617.08 648.013 1547.64 737.113C1516.37 777.235 1484.04 818.725 1449.22 857.334C1379.19 934.979 1294.63 998.478 1197.87 1046.07C1169.16 1060.19 1139.93 1072.64 1110.27 1083.38Z" fill="#D9D9D9"/>
</g>
</svg>
