<svg width="30" height="30" viewBox="0 0 30 30" fill="none" xmlns="http://www.w3.org/2000/svg">
<g clip-path="url(#clip0_5724_74990)">
<path d="M23.2664 0H6.73363C3.01475 0 0 3.01475 0 6.73363V23.2664C0 26.9852 3.01475 30 6.73363 30H23.2664C26.9852 30 30 26.9852 30 23.2664V6.73363C30 3.01475 26.9852 0 23.2664 0Z" fill="#0B86CA"/>
<path d="M8.31395 12.9578H11.4314V23.4104H8.31395V12.9578ZM9.90384 7.76385C10.261 7.76386 10.6102 7.87379 10.9073 8.07977C11.2044 8.28575 11.4361 8.57855 11.5733 8.92124C11.7104 9.26394 11.7469 9.64116 11.6779 10.0053C11.609 10.3695 11.4378 10.7043 11.186 10.9675C10.9342 11.2307 10.613 11.4105 10.2629 11.4842C9.91286 11.5579 9.54964 11.5222 9.21908 11.3817C8.88851 11.2411 8.60541 11.002 8.40549 10.6944C8.20557 10.3869 8.09779 10.0247 8.09573 9.65353C8.09436 9.40588 8.14012 9.1604 8.23037 8.9312C8.32063 8.70199 8.45359 8.49359 8.62163 8.31798C8.78966 8.14236 8.98945 8.003 9.2095 7.9079C9.42955 7.8128 9.66552 7.76385 9.90384 7.76385ZM13.4265 12.9578H16.4296V14.3831C16.7303 13.85 17.1645 13.4117 17.6861 13.1151C18.2077 12.8184 18.797 12.6744 19.3912 12.6986C22.5086 12.6986 23.1425 14.8582 23.1425 17.6765V23.4104H20.0251V18.3568C20.0251 17.1474 20.0251 15.5817 18.404 15.5817C16.783 15.5817 16.5336 16.8991 16.5336 18.2596V23.432H13.4161L13.4265 12.9578Z" fill="white"/>
</g>
<defs>
<clipPath id="clip0_5724_74990">
<rect width="30" height="30" fill="white"/>
</clipPath>
</defs>
</svg>
