<svg width="30" height="30" viewBox="0 0 30 30" fill="none" xmlns="http://www.w3.org/2000/svg">
<path d="M23.2664 0H6.73363C3.01475 0 0 3.01475 0 6.73363V23.2664C0 26.9852 3.01475 30 6.73363 30H23.2664C26.9852 30 30 26.9852 30 23.2664V6.73363C30 3.01475 26.9852 0 23.2664 0Z" fill="url(#paint0_linear_5724_74973)"/>
<path d="M10.3912 5.19568H19.7434C19.9513 5.29959 20.263 5.29959 20.4708 5.40351C21.3828 5.55131 22.2355 5.95053 22.9331 6.55631C23.6306 7.16208 24.1454 7.9504 24.4196 8.83267C24.573 9.34109 24.6774 9.86305 24.7313 10.3914V19.5358C24.5828 20.6948 24.1548 21.8003 23.4844 22.7572C22.9092 23.4236 22.188 23.9484 21.377 24.2908C20.566 24.6333 19.687 24.7841 18.8082 24.7315H11.0147C9.62382 24.799 8.25631 24.3555 7.16984 23.4846C6.50916 22.9137 5.98778 22.1994 5.64557 21.3961C5.30337 20.5928 5.14941 19.7219 5.19547 18.85V11.576C5.17831 11.0543 5.21312 10.5321 5.29939 10.0173C5.40432 8.95195 5.84235 7.94678 6.55123 7.14463C7.26011 6.34248 8.20378 5.78415 9.24812 5.54899L10.3912 5.19568ZM7.16984 15.0675V19.1202C7.12554 19.6362 7.19458 20.1558 7.37213 20.6424C7.54968 21.129 7.83146 21.5708 8.19772 21.9371C8.56398 22.3034 9.00588 22.5851 9.49247 22.7627C9.97906 22.9403 10.4986 23.0093 11.0147 22.965C13.7164 23.0689 16.4182 23.0689 19.12 22.965C21.51 22.965 22.8609 21.5102 22.9648 19.1202C23.0687 16.4184 23.0687 13.7166 22.9648 11.0149C22.9917 10.5029 22.9107 9.99092 22.727 9.51225C22.5433 9.03358 22.261 8.59888 21.8985 8.23634C21.536 7.8738 21.1012 7.59152 20.6226 7.40783C20.1439 7.22413 19.632 7.14312 19.12 7.17005C16.4182 7.06613 13.7164 7.06613 11.0147 7.17005C10.4986 7.12574 9.97906 7.19478 9.49247 7.37233C9.00588 7.54989 8.56398 7.83166 8.19772 8.19792C7.83146 8.56419 7.54968 9.00609 7.37213 9.49268C7.19458 9.97927 7.12554 10.4988 7.16984 11.0149V15.0675Z" fill="white"/>
<path d="M10.0176 15.1091C10.0203 13.7595 10.5577 12.466 11.512 11.5117C12.4663 10.5574 13.7598 10.0201 15.1094 10.0173C16.4515 10.0439 17.7312 10.5889 18.6804 11.5381C19.6296 12.4873 20.1746 13.767 20.2012 15.1091C20.1984 16.4587 19.6611 17.7522 18.7068 18.7065C17.7525 19.6608 16.459 20.1982 15.1094 20.2009C13.7673 20.1743 12.4875 19.6293 11.5383 18.6801C10.5892 17.731 10.0442 16.4512 10.0176 15.1091ZM15.1094 11.8878C14.4782 11.8775 13.8584 12.056 13.3293 12.4002C12.8002 12.7445 12.386 13.2389 12.1397 13.8201C11.8934 14.4013 11.8262 15.0428 11.9469 15.6624C12.0675 16.282 12.3704 16.8515 12.8167 17.2978C13.2631 17.7442 13.8326 18.0471 14.4522 18.1677C15.0718 18.2883 15.7133 18.2212 16.2945 17.9749C16.8757 17.7286 17.3701 17.3144 17.7144 16.7853C18.0586 16.2562 18.2371 15.6364 18.2268 15.0052C18.2268 14.1784 17.8983 13.3855 17.3137 12.8009C16.7291 12.2162 15.9362 11.8878 15.1094 11.8878Z" fill="white"/>
<path d="M19.0574 9.80948C19.0516 9.64416 19.0799 9.47942 19.1405 9.3255C19.2011 9.17159 19.2927 9.03179 19.4097 8.91482C19.5267 8.79785 19.6665 8.70621 19.8204 8.6456C19.9743 8.58499 20.139 8.5567 20.3044 8.56251C20.6279 8.58439 20.9325 8.7228 21.1618 8.95208C21.391 9.18135 21.5294 9.48597 21.5513 9.80948C21.5513 10.1402 21.4199 10.4574 21.1861 10.6912C20.9522 10.9251 20.6351 11.0564 20.3044 11.0564C19.9736 11.0564 19.6565 10.9251 19.4226 10.6912C19.1888 10.4574 19.0574 10.1402 19.0574 9.80948Z" fill="white"/>
<defs>
<linearGradient id="paint0_linear_5724_74973" x1="-1.91202" y1="31.6626" x2="33.4188" y2="-3.1486" gradientUnits="userSpaceOnUse">
<stop stop-color="#FED576"/>
<stop offset="0.26" stop-color="#F47133"/>
<stop offset="0.61" stop-color="#BC3081"/>
<stop offset="1" stop-color="#4C63D2"/>
</linearGradient>
</defs>
</svg>
