<svg width="1167" height="1001" viewBox="0 0 1167 1001" fill="none" xmlns="http://www.w3.org/2000/svg">
<g opacity="0.5">
<path fill-rule="evenodd" clip-rule="evenodd" d="M918.942 628.293C911.238 634.124 903.908 637.552 896.99 637.647C890.071 637.743 883.819 634.879 878.068 629.858C872.323 624.841 867.059 617.656 862.096 609.059C852.951 593.22 844.776 572.494 836.491 551.491C835.785 549.7 835.078 547.908 834.37 546.116C825.341 523.285 816.074 500.588 805.173 483.813C794.261 467.024 781.808 456.314 766.442 457.164C758.754 457.589 751.286 461.103 743.964 466.995C736.643 472.887 729.492 481.138 722.444 490.989C708.441 510.562 694.894 536.382 681.243 562.399L680.966 562.927C667.23 589.108 653.385 615.447 638.882 635.701C631.63 645.829 624.202 654.453 616.527 660.78C608.851 667.106 600.907 671.154 592.625 672.09C576.022 673.968 561.819 662.565 548.988 644.162C536.143 625.738 524.564 600.146 513.232 573.318C510.744 567.427 508.267 561.476 505.791 555.527C496.985 534.366 488.188 513.229 478.907 494.896C467.007 471.391 454.362 452.607 439.975 444.284C425.619 435.978 410.363 436.826 394.319 443.872C378.258 450.925 361.449 464.172 344.061 480.591C328.647 495.147 312.803 512.168 296.642 529.531C294.577 531.75 292.507 533.974 290.431 536.199C272.121 555.834 253.429 575.553 234.539 592.277C215.646 609.003 200.036 618.369 186.641 621.692C173.214 625.023 162.036 622.277 152.071 614.853C142.131 607.448 133.411 595.4 124.827 580.153C116.734 565.775 108.737 548.507 99.9487 529.528C99.4141 528.373 98.8765 527.212 98.3359 526.046L99.1166 525.702C99.6552 526.865 100.191 528.021 100.723 529.171C109.518 548.163 117.501 565.402 125.577 579.749C134.146 594.97 142.793 606.886 152.582 614.178C162.344 621.451 173.254 624.135 186.42 620.869C199.618 617.594 215.105 608.334 233.959 591.641C252.816 574.948 271.484 555.255 289.795 535.619C291.87 533.394 293.94 531.17 296.005 528.951C312.164 511.592 328.027 494.549 343.463 479.974C360.867 463.539 377.761 450.209 393.96 443.096C410.174 435.975 425.735 435.068 440.401 443.553C455.035 452.02 467.777 471.025 479.675 494.526C488.972 512.89 497.785 534.068 506.594 555.234C509.068 561.178 511.541 567.121 514.025 573.001C525.36 599.837 536.908 625.348 549.694 643.688C562.495 662.048 576.429 673.066 592.515 671.247C600.578 670.335 608.372 666.387 615.97 660.125C623.568 653.862 630.948 645.302 638.178 635.204C652.64 615.006 666.458 588.723 680.202 562.528L680.498 561.963C694.134 535.973 707.703 510.112 721.739 490.493C728.809 480.61 736.011 472.293 743.415 466.334C750.821 460.375 758.454 456.755 766.381 456.317C782.247 455.439 794.947 466.519 805.894 483.363C816.851 500.222 826.148 523.003 835.17 545.818C835.876 547.605 836.582 549.393 837.286 551.178C845.578 572.2 853.73 592.867 862.841 608.647C867.782 617.206 872.99 624.299 878.632 629.226C884.268 634.147 890.318 636.891 896.965 636.799C903.613 636.707 910.765 633.405 918.413 627.617C926.054 621.833 934.143 613.603 942.659 603.735C954.165 590.402 966.419 574.119 979.377 556.899C985.608 548.62 992.001 540.124 998.553 531.635C1018.72 505.506 1040.37 479.463 1063.33 460.127C1086.28 440.796 1110.58 428.123 1136.04 428.838L1136.03 429.686C1110.88 428.981 1086.78 441.499 1063.89 460.777C1041.01 480.05 1019.4 506.033 999.24 532.156C992.704 540.623 986.32 549.108 980.093 557.381C967.124 574.616 954.841 590.937 943.317 604.291C934.786 614.176 926.653 622.457 918.942 628.293Z" fill="#D9D9D9"/>
<path fill-rule="evenodd" clip-rule="evenodd" d="M914.232 623.95C906.162 629.575 898.5 632.861 891.296 632.937C877.555 633.107 866.347 622.03 856.316 605.685C847.111 590.685 838.808 571.099 830.4 551.264C829.631 549.449 828.86 547.632 828.088 545.815C818.871 524.133 809.416 502.625 798.394 486.83C787.365 471.025 774.854 461.064 759.546 462.22C751.772 462.807 744.215 466.368 736.804 472.208C729.394 478.049 722.153 486.152 715.017 495.784C700.803 514.968 687.054 540.153 673.246 565.446L673.07 565.768C659.211 591.155 645.29 616.627 630.798 636.148C623.552 645.909 616.152 654.199 608.531 660.251C600.911 666.303 593.051 670.133 584.888 670.94L584.887 670.94C568.444 672.523 554.293 661.32 541.456 643.358C528.605 625.379 516.972 600.491 505.585 574.413C503.052 568.612 500.531 562.751 498.011 556.894C489.197 536.404 480.398 515.949 471.148 498.18C459.244 475.314 446.644 457 432.394 448.775C420.123 441.695 407.241 441.18 393.818 445.43C380.38 449.684 366.41 458.714 352.017 470.711L352.016 470.711C332.903 486.609 312.919 507.682 292.358 529.449L291.135 530.743C270.967 552.096 250.253 574.026 229.298 592.275C210.779 608.5 195.405 617.64 182.162 620.934C168.891 624.234 157.78 621.658 147.846 614.515C137.936 607.39 129.212 595.732 120.646 580.9C112.078 566.062 103.642 548.001 94.3288 528.037L95.0762 527.705C104.394 547.68 112.814 565.705 121.361 580.505C129.91 595.309 138.562 606.841 148.325 613.86C158.063 620.862 168.921 623.385 181.949 620.145C195.007 616.898 210.264 607.856 228.746 591.663L228.747 591.662C249.672 573.44 270.363 551.534 290.542 530.17L291.751 528.889C312.304 507.131 332.322 486.021 351.48 470.086C365.905 458.063 379.97 448.956 393.556 444.655C407.158 440.348 420.291 440.856 432.801 448.075C447.283 456.433 459.977 474.953 471.879 497.817C481.145 515.615 489.96 536.108 498.777 556.603C501.295 562.456 503.813 568.31 506.341 574.101C517.731 600.185 529.333 624.997 542.126 642.896C554.932 660.813 568.831 671.668 584.795 670.131C592.75 669.344 600.465 665.606 608.009 659.614C615.554 653.622 622.907 645.393 630.131 635.66C644.583 616.193 658.477 590.775 672.344 565.374L672.538 565.018C686.332 539.75 700.102 514.526 714.349 495.297C721.507 485.636 728.797 477.471 736.285 471.57C743.773 465.668 751.481 462.012 759.471 461.409C775.241 460.218 787.996 470.506 799.07 486.375C810.15 502.253 819.636 523.843 828.847 545.51C829.618 547.323 830.387 549.137 831.154 550.948C839.57 570.8 847.848 590.327 857.019 605.271C867.044 621.607 878.03 632.288 891.274 632.124L891.275 632.124C898.238 632.05 905.738 628.868 913.75 623.283C921.758 617.703 930.236 609.752 939.151 600.207C951.83 586.633 965.357 569.87 979.639 552.174C985.445 544.979 991.376 537.63 997.426 530.278C1018.34 504.857 1040.66 479.416 1064.07 460.302C1087.47 441.192 1112.01 428.364 1137.37 428.253L1137.39 429.066C1112.3 429.177 1087.94 441.869 1064.6 460.932C1041.26 479.992 1018.98 505.38 998.068 530.796C992.032 538.132 986.109 545.472 980.306 552.662C966.016 570.369 952.46 587.167 939.76 600.764C930.83 610.325 922.307 618.323 914.232 623.95Z" fill="#D9D9D9"/>
<path fill-rule="evenodd" clip-rule="evenodd" d="M909.516 619.607C901.081 625.024 893.086 628.172 885.595 628.229C871.949 628.377 860.687 617.848 850.529 602.315C841.271 588.157 832.848 569.715 824.325 551.05C823.484 549.209 822.642 547.365 821.798 545.523C812.392 524.991 802.75 504.672 791.606 489.855C780.46 475.033 767.891 465.819 752.641 467.277C736.909 468.781 722.047 481.747 707.582 500.607C693.183 519.383 679.256 543.891 665.315 568.422L665.171 568.675C651.191 593.277 637.194 617.884 622.714 636.663C608.25 655.421 593.222 668.477 577.144 669.79C560.865 671.12 546.767 660.135 533.924 642.622C521.069 625.095 509.381 600.906 497.939 575.569C495.355 569.848 492.784 564.069 490.215 558.294C481.397 538.473 472.6 518.696 463.385 501.487C451.477 479.248 438.919 461.392 424.806 453.268C412.628 446.258 399.884 445.591 386.654 449.563C373.408 453.54 359.681 462.168 345.579 473.745L345.579 473.745C326.786 489.108 307.001 509.607 286.608 530.841L285.058 532.455C265.159 553.178 244.696 574.488 224.05 592.273C205.858 607.944 190.696 616.831 177.597 620.084C164.472 623.344 153.436 620.944 143.546 614.096C133.677 607.264 124.968 596.017 116.434 581.616C107.898 567.21 99.5146 549.606 90.3174 530.028L91.0313 529.709C100.232 549.294 108.599 566.863 117.113 581.23C125.629 595.602 134.268 606.729 143.992 613.461C153.693 620.178 164.493 622.534 177.394 619.33C190.319 616.119 205.372 607.323 223.527 591.683C244.145 573.923 264.586 552.636 284.494 531.904L286.032 530.302C306.417 509.075 326.235 488.54 345.071 473.143L345.324 473.443L345.07 473.144C345.07 473.143 345.071 473.143 345.071 473.143C359.205 461.54 373.025 452.839 386.414 448.819C399.818 444.794 412.795 445.46 425.196 452.597L425.001 452.932L425.196 452.597C439.525 460.846 452.172 478.892 464.08 501.131C473.31 518.368 482.124 538.182 490.944 558.008C493.511 563.779 496.079 569.551 498.658 575.261C510.103 600.604 521.761 624.72 534.559 642.172C547.37 659.64 561.232 670.308 577.067 669.015C592.78 667.731 607.628 654.935 622.085 636.186C636.525 617.458 650.494 592.902 664.483 568.286L664.645 568.001C678.572 543.494 692.52 518.949 706.952 500.132C721.423 481.262 736.462 468.041 752.553 466.502C768.228 465.004 781.036 474.504 792.237 489.397C803.44 504.295 813.115 524.693 822.515 545.211C823.358 547.051 824.199 548.892 825.038 550.729C833.569 569.409 841.965 587.795 851.189 601.9C861.335 617.413 872.384 627.595 885.576 627.451L885.578 627.451C892.855 627.395 900.703 624.333 909.08 618.953C917.453 613.575 926.322 605.904 935.635 596.682C949.573 582.881 964.474 565.642 980.172 547.48C985.457 541.367 990.832 535.148 996.291 528.921C1017.96 504.208 1040.94 479.37 1064.8 460.478C1088.65 441.589 1113.44 428.605 1138.7 427.668L1138.74 428.446C1113.72 429.373 1089.1 442.238 1065.3 461.088C1041.49 479.934 1018.55 504.725 996.89 529.435C991.441 535.651 986.072 541.862 980.791 547.972C965.087 566.14 950.158 583.412 936.197 597.236C926.867 606.474 917.955 614.187 909.516 619.607Z" fill="#D9D9D9"/>
<path fill-rule="evenodd" clip-rule="evenodd" d="M904.805 615.219C896.006 620.438 887.677 623.463 879.899 623.518C866.346 623.615 855.03 613.618 844.744 598.893C835.446 585.582 826.919 568.302 818.294 550.826C817.367 548.948 816.439 547.068 815.509 545.19C805.914 525.817 796.084 506.7 784.821 492.869C773.557 479.037 760.93 470.576 745.739 472.332C729.838 474.169 714.786 486.999 700.147 505.423C685.567 523.773 671.468 547.579 657.401 571.329L657.268 571.553C643.165 595.364 629.094 619.103 614.626 637.143C600.173 655.164 585.246 667.602 569.403 668.639C553.284 669.694 539.237 658.916 526.388 641.849C513.529 624.769 501.787 601.283 490.29 576.692C487.657 571.059 485.037 565.369 482.419 559.684C473.599 540.53 464.803 521.43 455.623 504.78C443.712 483.175 431.197 465.784 417.222 457.759C393.07 443.896 366.785 454.446 339.144 476.777L339.143 476.778C320.671 491.605 301.101 511.548 280.884 532.258L279.253 533.929C259.553 554.112 239.256 574.906 218.805 592.27C200.965 607.417 186.029 616.065 173.077 619.284C160.104 622.508 149.138 620.28 139.285 613.72C129.452 607.174 120.746 596.327 112.237 582.347C103.725 568.364 95.3873 551.21 86.3064 532.018L86.9869 531.712C96.0696 550.907 104.392 568.027 112.88 581.972C121.371 595.92 130.006 606.654 139.699 613.107C149.372 619.546 160.116 621.736 172.883 618.563C185.673 615.385 200.506 606.82 218.31 591.704C238.734 574.363 259.01 553.59 278.718 533.399L280.338 531.739C300.547 511.037 320.149 491.06 338.663 476.2C366.327 453.85 392.986 442.994 417.593 457.118C431.77 465.259 444.37 482.825 456.283 504.433C465.477 521.109 474.288 540.244 483.111 559.402C485.727 565.083 488.344 570.767 490.972 576.389C502.471 600.984 514.184 624.403 526.99 641.412C539.805 658.433 553.631 668.926 569.342 667.898C584.839 666.884 599.59 654.687 614.034 636.676C628.463 618.685 642.507 594.995 656.618 571.171L656.768 570.917C670.821 547.19 684.942 523.349 699.553 504.959C714.203 486.521 729.417 473.469 745.64 471.594C761.218 469.794 774.078 478.501 785.404 492.409C796.73 506.317 806.595 525.512 816.184 544.872C817.113 546.749 818.04 548.627 818.966 550.502C827.597 567.991 836.098 585.217 845.361 598.477C855.628 613.175 866.741 622.869 879.882 622.775C887.473 622.721 895.668 619.767 904.411 614.581C913.15 609.396 922.409 601.998 932.121 593.097C947.396 579.096 963.759 561.406 980.957 542.813C985.631 537.761 990.366 532.641 995.158 527.511C1017.57 503.514 1041.22 479.293 1065.53 460.632C1089.84 441.975 1114.86 428.844 1140.04 427.084L1140.1 427.824C1115.15 429.569 1090.27 442.597 1066 461.221C1041.74 479.842 1018.13 504.024 995.714 528.019C990.93 533.141 986.199 538.255 981.528 543.305C964.328 561.901 947.937 579.621 932.637 593.645C922.908 602.562 913.607 609.997 904.805 615.219Z" fill="#D9D9D9"/>
<path fill-rule="evenodd" clip-rule="evenodd" d="M900.095 610.863C890.932 615.878 882.27 618.77 874.202 618.811C860.743 618.88 849.373 609.426 838.96 595.517C829.631 583.056 821.005 566.929 812.287 550.629C811.267 548.721 810.245 546.811 809.221 544.904C799.436 526.686 789.419 508.762 778.034 495.908C766.653 483.057 753.967 475.342 738.836 477.39C722.767 479.566 707.524 492.26 692.71 510.249C677.965 528.155 663.706 551.229 649.528 574.171L649.363 574.439C635.138 597.457 620.992 620.325 606.537 637.625C592.096 654.909 577.27 666.729 561.663 667.491C545.702 668.27 531.707 657.697 518.852 641.076C505.988 624.444 494.191 601.659 482.64 577.814C479.956 572.273 477.284 566.674 474.616 561.081C465.795 542.593 457.003 524.167 447.861 508.076C435.945 487.105 423.475 470.179 409.638 462.253C385.67 448.534 359.809 458.382 332.709 479.814C314.588 494.144 295.233 513.53 275.184 533.707L273.7 535.201C254.12 554.908 233.898 575.261 213.561 592.27C196.076 606.893 181.366 615.303 168.563 618.488C155.741 621.677 144.845 619.621 135.029 613.349C125.231 607.088 116.529 596.64 108.043 583.083C99.5547 569.522 91.2621 552.816 82.2973 534.011L82.9446 533.718C91.9099 552.524 100.187 569.196 108.651 582.717C117.117 596.243 125.75 606.583 135.412 612.757C145.056 618.919 155.746 620.944 168.378 617.802C181.03 614.655 195.643 606.321 213.093 591.727C233.406 574.74 253.608 554.406 273.196 534.69L274.669 533.208C294.71 513.039 314.096 493.62 332.256 479.259C359.389 457.801 385.599 447.681 409.99 461.643L409.814 461.948L409.99 461.643C424.014 469.675 436.566 486.762 448.484 507.737C457.641 523.853 466.448 542.311 475.271 560.804C477.938 566.393 480.606 571.985 483.285 577.517C494.839 601.365 506.607 624.086 519.419 640.652C532.24 657.229 546.031 667.545 561.617 666.785C576.897 666.039 591.551 654.441 605.982 637.17C620.399 619.916 634.518 597.095 648.75 574.064L648.932 573.77C663.097 550.847 677.376 527.74 692.152 509.798C706.98 491.792 722.371 478.904 738.728 476.69C754.209 474.594 767.119 482.517 778.571 495.447C790.02 508.374 800.074 526.373 809.853 544.58C810.877 546.487 811.899 548.397 812.918 550.303C821.642 566.613 830.24 582.688 839.534 595.102C849.922 608.978 861.1 618.17 874.188 618.104C882.09 618.063 890.632 615.228 899.741 610.243C908.847 605.259 918.496 598.139 928.607 589.559C945.348 575.353 963.321 557.175 982.159 538.121C986.078 534.157 990.035 530.155 994.025 526.143C1017.19 502.857 1041.5 479.242 1066.27 460.805C1091.03 442.371 1116.29 429.085 1141.37 426.502L1141.46 427.205C1116.57 429.769 1091.43 442.966 1066.7 461.372C1041.98 479.775 1017.7 503.356 994.54 526.643C990.553 530.651 986.599 534.65 982.682 538.613C963.844 557.666 945.845 575.871 929.078 590.099C918.95 598.693 909.26 605.846 900.095 610.863Z" fill="#D9D9D9"/>
<path fill-rule="evenodd" clip-rule="evenodd" d="M895.383 606.503C885.857 611.313 876.86 614.073 868.503 614.1C855.136 614.142 843.713 605.233 833.173 592.142C823.825 580.532 815.116 565.561 806.318 550.438C805.191 548.5 804.062 546.559 802.93 544.623C792.955 527.561 782.75 510.829 771.245 498.951C759.745 487.079 746.999 480.107 731.929 482.445C715.692 484.963 700.259 497.521 685.269 515.076C670.376 532.518 655.976 554.825 641.704 576.934L641.453 577.323C627.106 599.548 612.885 621.544 598.443 638.103C584.013 654.647 569.291 665.849 553.92 666.338C538.117 666.841 524.172 656.472 511.311 640.296C498.442 624.112 486.591 602.029 474.985 578.931C472.248 573.483 469.524 567.978 466.803 562.479C457.983 544.655 449.198 526.901 440.094 511.366C428.175 491.029 415.748 474.569 402.049 466.744C378.265 453.167 352.792 462.27 326.269 482.845C308.476 496.649 289.337 515.479 269.464 535.13L267.921 536.655C248.532 555.829 228.466 575.672 208.312 592.265C191.184 606.366 176.701 614.54 164.047 617.691C151.376 620.846 140.55 618.961 130.77 612.975C121.007 607 112.308 596.95 103.844 583.814C95.3793 570.675 87.1312 554.418 78.2827 535.999L78.8967 535.719C87.7447 554.136 95.977 570.359 104.417 583.459C112.859 596.562 121.49 606.51 131.122 612.405C140.739 618.291 151.374 620.151 163.871 617.039C176.385 613.923 190.778 605.819 207.872 591.746C228.002 575.173 248.049 555.348 267.446 536.167L268.979 534.651C288.844 515.008 308.013 496.147 325.844 482.314C352.41 461.705 378.209 452.364 402.383 466.163C416.256 474.087 428.76 490.694 440.681 511.036C449.799 526.594 458.6 544.379 467.422 562.208C470.14 567.702 472.861 573.201 475.594 578.64C487.201 601.741 499.025 623.764 511.844 639.886C524.67 656.018 538.427 666.158 553.888 665.667C568.95 665.188 583.507 654.19 597.925 637.66C612.329 621.144 626.523 599.192 640.877 576.956L641.144 576.543C655.404 554.452 669.824 532.114 684.746 514.638C699.752 497.064 715.321 484.339 731.814 481.781C747.198 479.395 760.156 486.538 771.734 498.491C783.306 510.438 793.549 527.241 803.518 544.293C804.65 546.231 805.78 548.172 806.907 550.11C815.709 565.24 824.391 580.163 833.703 591.729C844.213 604.783 855.456 613.469 868.49 613.428C876.702 613.402 885.591 610.687 895.066 605.903C904.54 601.12 914.58 594.279 925.089 586.021C943.43 571.611 963.168 552.916 983.792 533.383C986.806 530.528 989.839 527.655 992.889 524.775C1016.8 502.198 1041.77 479.189 1067 460.975C1092.22 442.764 1117.72 429.322 1142.71 425.917L1142.81 426.582C1117.99 429.966 1092.59 443.332 1067.4 461.52C1042.22 479.705 1017.28 502.686 993.363 525.264C990.314 528.143 987.282 531.015 984.268 533.869C963.648 553.399 943.884 572.119 925.517 586.55C914.99 594.821 904.912 601.692 895.383 606.503Z" fill="#D9D9D9"/>
<path fill-rule="evenodd" clip-rule="evenodd" d="M921.965 583.004C900.128 598.888 880.094 609.369 862.81 609.391C849.534 609.408 838.059 601.043 827.392 588.773C818.041 578.018 809.263 564.203 800.402 550.257C799.152 548.289 797.9 546.318 796.644 544.353C786.48 528.447 776.087 512.909 764.461 502.005C752.843 491.108 740.036 484.879 725.027 487.502C708.624 490.368 692.999 502.79 677.834 519.912C662.814 536.868 648.292 558.377 633.946 579.625L633.548 580.215C619.079 601.644 604.784 622.766 590.355 638.583C575.937 654.387 561.318 664.971 546.184 665.189C530.537 665.413 516.642 655.246 503.775 639.516C490.902 623.779 478.997 602.399 467.337 580.048C464.545 574.696 461.766 569.288 458.992 563.887C450.175 546.724 441.398 529.638 432.334 514.658C420.412 494.956 408.029 478.962 394.468 471.237C370.868 457.804 345.781 466.159 319.838 485.879C302.371 499.156 283.449 517.432 263.752 536.557L262.133 538.129C242.941 556.766 223.037 576.094 203.071 592.264C186.302 605.845 172.047 613.784 159.542 616.901C147.022 620.022 136.265 618.307 126.522 612.608C116.793 606.917 108.096 597.266 99.6544 584.55C91.2117 571.833 83.0076 556.024 74.2753 537.991L74.8562 537.724C83.5868 555.753 91.7751 571.528 100.192 584.207C108.611 596.888 117.241 606.444 126.844 612.062C136.433 617.671 147.014 619.365 159.375 616.283C171.751 613.198 185.922 605.324 202.658 591.769C222.602 575.617 242.487 556.307 261.686 537.663L263.296 536.1C282.986 516.982 301.936 498.677 319.44 485.372C345.436 465.612 370.825 457.05 394.784 470.687C408.504 478.503 420.96 494.629 432.886 514.338C441.963 529.339 450.755 546.454 459.574 563.621C462.347 569.018 465.122 574.42 467.909 579.763C479.57 602.116 491.448 623.441 504.274 639.121C517.107 654.809 530.828 664.772 546.165 664.552C561.01 664.339 575.469 653.941 589.873 638.153C604.265 622.377 618.533 601.297 633.01 579.856L633.423 579.244C647.759 558.011 662.299 536.475 677.346 519.489C692.529 502.347 708.276 489.781 724.906 486.875C740.193 484.204 753.2 490.572 764.902 501.546C776.596 512.514 787.03 528.121 797.188 544.019C798.445 545.986 799.698 547.958 800.948 549.926C809.813 563.878 818.562 577.647 827.878 588.363C838.511 600.594 849.819 608.771 862.799 608.755C879.857 608.732 899.745 598.371 921.577 582.489C941.677 567.868 963.369 548.613 985.948 528.569C987.879 526.855 989.816 525.135 991.76 523.412C1016.42 501.545 1042.06 479.14 1067.73 461.149C1093.41 443.16 1119.15 429.562 1144.05 425.335L1144.17 425.963C1119.41 430.166 1093.76 443.7 1068.11 461.67C1042.47 479.638 1016.86 502.019 992.194 523.889C990.249 525.613 988.31 527.334 986.377 529.05C963.805 549.088 942.091 568.363 921.965 583.004Z" fill="#D9D9D9"/>
<path fill-rule="evenodd" clip-rule="evenodd" d="M918.408 579.457C895.772 594.697 874.984 604.691 857.112 604.682C843.927 604.675 832.4 596.855 821.607 585.408C812.272 575.508 803.446 562.85 794.541 550.079C793.148 548.082 791.754 546.082 790.355 544.09C780.002 529.342 769.421 514.996 757.674 505.065C745.936 495.142 733.067 489.654 718.121 492.558C701.551 495.777 685.736 508.065 670.393 524.753C655.274 541.199 640.655 561.872 626.258 582.232L625.637 583.109C611.046 603.742 596.677 623.988 582.261 639.061C567.856 654.123 553.34 664.09 538.445 664.038C522.951 663.984 509.107 654.018 496.234 638.733C483.355 623.442 471.396 602.764 459.682 581.162C456.833 575.907 453.998 570.598 451.168 565.297C442.357 548.794 433.591 532.375 424.568 517.948C412.643 498.881 400.305 483.354 386.882 475.729C363.466 462.439 338.765 470.046 313.401 488.912C296.26 501.662 277.556 519.383 258.036 537.983L256.317 539.62C237.329 557.715 217.597 576.519 197.825 592.26C181.417 605.323 167.392 613.027 155.036 616.111C142.667 619.199 131.979 617.654 122.271 612.241C112.576 606.834 103.881 597.579 95.4611 585.285C87.0403 572.988 78.8798 557.627 70.2639 539.982L70.8116 539.727C79.4248 557.367 87.5694 572.695 95.9639 584.953C104.36 597.213 112.99 606.379 122.565 611.718C132.127 617.051 142.653 618.58 154.878 615.528C167.115 612.474 181.062 604.828 197.439 591.79C217.19 576.066 236.905 557.278 255.899 539.177L257.61 537.547C277.123 518.954 295.854 501.205 313.03 488.43C338.455 469.518 363.436 461.734 387.179 475.209C400.748 482.917 413.155 498.563 425.085 517.638C434.12 532.084 442.901 548.53 451.714 565.038C454.542 570.335 457.374 575.639 460.218 580.884C471.932 602.489 483.866 623.115 496.699 638.353C509.538 653.597 523.225 663.384 538.438 663.437C553.063 663.488 567.426 653.691 581.816 638.645C596.195 623.609 610.538 603.403 625.136 582.76L625.769 581.865C640.157 561.519 654.795 540.819 669.94 524.345C685.301 507.636 701.227 495.225 717.995 491.968C733.186 489.017 746.241 494.614 758.066 504.611C769.883 514.6 780.506 529.011 790.854 543.752C792.255 545.748 793.65 547.75 795.043 549.747C803.951 562.522 812.749 575.138 822.049 585.002C832.806 596.41 844.179 604.074 857.103 604.081C874.777 604.09 895.432 594.193 918.06 578.959C940.113 564.112 963.985 544.234 988.726 523.632L990.625 522.051C1016.04 500.892 1042.33 479.092 1068.47 461.323C1094.59 443.555 1120.58 429.8 1145.39 424.752L1145.52 425.341C1120.83 430.365 1094.92 444.067 1068.82 461.82C1042.71 479.57 1016.44 501.351 991.021 522.513L989.109 524.105C964.379 544.698 940.487 564.593 918.408 579.457Z" fill="#D9D9D9"/>
<path fill-rule="evenodd" clip-rule="evenodd" d="M914.851 575.911C891.415 590.506 869.873 600.013 851.413 599.972C838.318 599.942 826.738 592.666 815.82 582.045C806.525 573.003 797.674 561.501 788.749 549.904C787.191 547.879 785.631 545.852 784.065 543.834C773.524 530.244 762.754 517.091 750.886 508.131C739.027 499.179 726.096 494.433 711.213 497.613C694.478 501.189 678.471 513.342 662.952 529.599C647.763 545.509 633.075 565.311 618.653 584.754L617.725 586.005C603.011 605.84 588.567 625.208 574.165 639.537C559.772 653.857 545.361 663.206 530.703 662.887C515.364 662.553 501.569 652.785 488.69 637.945C475.806 623.101 463.793 603.126 452.026 582.271C449.118 577.118 446.225 571.911 443.338 566.714C434.535 550.868 425.781 535.111 416.802 521.236C404.874 502.804 392.579 487.745 379.295 480.221C356.064 467.075 331.748 473.93 306.965 491.944C290.149 504.167 271.665 521.335 252.321 539.41L250.489 541.122C231.71 558.673 212.155 576.95 192.579 592.258C160.495 617.346 137.39 622.147 118.023 611.877C108.361 606.754 99.6666 597.896 91.268 586.021C82.8684 574.145 74.7509 559.231 66.2512 541.972L66.7659 541.731C75.2618 558.982 83.3634 573.864 91.7362 585.702C100.11 597.542 108.741 606.317 118.288 611.379C137.338 621.481 160.183 616.863 192.219 591.812C211.775 576.52 231.314 558.259 250.098 540.703L251.924 538.996C271.261 520.927 289.771 503.733 306.62 491.487C331.473 473.423 356.047 466.417 379.574 479.731C392.991 487.331 405.35 502.497 417.283 520.937C426.274 534.829 435.041 550.611 443.847 566.461C446.733 571.655 449.622 576.857 452.526 582.002C464.294 602.857 476.282 622.785 489.123 637.581C501.968 652.382 515.62 661.993 530.708 662.321C545.114 662.635 559.38 653.438 573.755 639.135C588.122 624.842 602.54 605.51 617.261 585.667L618.2 584.4C632.614 564.968 647.319 545.142 662.532 529.207C678.071 512.93 694.176 500.673 711.083 497.06C726.18 493.834 739.281 498.664 751.229 507.684C763.168 516.696 773.98 529.909 784.518 543.494C786.087 545.516 787.65 547.547 789.209 549.573C798.135 561.172 806.957 572.635 816.219 581.645C827.099 592.228 838.538 599.377 851.406 599.406C869.692 599.447 891.116 590.018 914.54 575.431C937.955 560.849 963.32 541.144 989.487 520.691L992.258 518.524C1017.55 498.75 1043.55 478.425 1069.19 461.496C1095.78 443.95 1122.01 430.037 1146.73 424.168L1146.87 424.718C1122.25 430.564 1096.08 444.434 1069.52 461.968C1043.89 478.885 1017.91 499.197 992.611 518.976L989.847 521.136C963.686 541.586 938.296 561.31 914.851 575.911Z" fill="#D9D9D9"/>
<path fill-rule="evenodd" clip-rule="evenodd" d="M911.296 572.367C887.061 586.316 864.766 595.338 845.716 595.264C832.71 595.212 821.079 588.48 810.036 578.688C800.808 570.505 791.961 560.157 783.046 549.729C781.294 547.679 779.539 545.627 777.779 543.587C767.048 531.157 756.09 519.195 744.1 511.206C732.119 503.223 719.125 499.218 704.305 502.671C687.407 506.609 671.211 518.628 655.514 534.453C640.292 549.798 625.57 568.691 611.154 587.189L609.815 588.907C594.979 607.942 580.461 626.43 566.072 640.014C551.691 653.59 537.384 662.32 522.965 661.737C507.778 661.121 494.032 651.55 481.147 637.156C468.259 622.757 456.192 603.485 444.37 583.379C441.402 578.33 438.448 573.228 435.501 568.137C426.708 552.946 417.97 537.849 409.036 524.524C397.105 506.728 384.855 492.137 371.709 484.713C348.664 471.712 324.732 477.814 300.529 494.977C284.038 506.671 265.774 523.287 246.609 540.838C245.952 541.439 245.295 542.041 244.636 542.645C226.075 559.646 206.706 577.388 187.334 592.254C155.982 616.315 133.073 621.215 113.78 611.516C104.151 606.676 95.4565 598.214 87.0781 586.758C78.6989 575.302 70.6237 560.835 62.2403 543.963L62.722 543.735C71.1008 560.598 79.16 575.033 87.512 586.452C95.8647 597.872 104.498 606.258 114.018 611.044C133.021 620.597 155.694 615.859 187 591.834C206.354 576.981 225.708 559.253 244.275 542.247C244.931 541.645 245.586 541.045 246.24 540.446C265.399 522.901 283.688 506.261 300.211 494.545C324.49 477.328 348.658 471.101 371.971 484.254C385.236 491.746 397.546 506.431 409.483 524.236C418.427 537.577 427.179 552.696 435.974 567.891C438.92 572.98 441.87 578.077 444.834 583.118C456.656 603.225 468.699 622.454 481.547 636.808C494.399 651.166 508.016 660.6 522.979 661.206C537.167 661.781 551.335 653.186 565.697 639.628C580.052 626.077 594.545 607.622 609.388 588.58L610.735 586.851C625.143 568.362 639.883 549.447 655.127 534.078C670.844 518.234 687.127 506.127 704.174 502.155C719.178 498.658 732.326 502.726 744.396 510.768C756.456 518.803 767.457 530.819 778.185 543.247C779.95 545.291 781.708 547.347 783.462 549.399C792.378 559.827 801.195 570.14 810.391 578.295C821.395 588.053 832.9 594.683 845.71 594.733C864.609 594.807 886.8 585.849 911.021 571.908C935.234 557.971 961.436 539.08 988.351 519.335C991.145 517.286 993.947 515.226 996.756 513.163C1020.99 495.352 1045.69 477.201 1069.93 461.673C1096.97 444.348 1123.44 430.275 1148.07 423.587L1148.22 424.098C1123.67 430.766 1097.25 444.803 1070.22 462.12C1046.01 477.638 1021.32 495.779 997.08 513.591C994.272 515.654 991.47 517.713 988.676 519.763C961.763 539.505 935.539 558.414 911.296 572.367Z" fill="#D9D9D9"/>
<path fill-rule="evenodd" clip-rule="evenodd" d="M907.747 568.822C882.714 582.125 859.664 590.663 840.023 590.553C827.105 590.481 815.422 584.293 804.256 575.33C795.131 568.006 786.326 558.809 777.457 549.544C775.475 547.474 773.49 545.401 771.498 543.345C760.579 532.074 749.432 521.305 737.319 514.284C725.215 507.269 712.157 504.004 697.401 507.726C680.341 512.03 663.955 523.917 648.081 539.31C632.87 554.06 618.154 572.005 603.782 589.529C603.158 590.29 602.534 591.051 601.91 591.811C586.951 610.044 572.358 627.651 557.983 640.488C543.614 653.319 529.412 661.432 515.232 660.585C500.197 659.687 486.498 650.312 473.608 636.362C460.715 622.409 448.594 603.841 436.719 584.484C433.687 579.542 430.671 574.548 427.663 569.566C418.882 555.027 410.161 540.588 401.275 527.81C389.341 510.651 377.135 496.529 364.128 489.206L364.25 488.991L364.128 489.206C341.269 476.349 317.72 481.698 294.098 498.011C277.93 509.176 259.888 525.241 240.902 542.268C240.191 542.906 239.48 543.544 238.767 544.183C220.43 560.633 201.256 577.834 182.093 592.253C151.476 615.291 128.764 620.29 109.542 611.16C99.9462 606.602 91.2508 598.535 82.892 587.498C74.5328 576.461 66.4995 562.44 58.2328 545.955L58.6815 545.74C66.943 562.215 74.9602 576.205 83.292 587.205C91.6243 598.207 100.26 606.205 109.754 610.714C128.712 619.719 151.213 614.862 181.785 591.858C200.931 577.452 220.091 560.263 238.433 543.809C239.144 543.171 239.853 542.535 240.561 541.9C259.541 524.877 277.608 508.79 293.806 497.604C317.509 481.235 341.274 475.785 364.371 488.776L364.258 488.977L364.372 488.776C377.486 496.161 389.747 510.366 401.687 527.534C410.583 540.326 419.316 554.786 428.099 569.329C431.106 574.308 434.12 579.297 437.147 584.232C449.022 603.589 461.12 622.119 473.976 636.031C486.835 649.947 500.417 659.205 515.255 660.091C529.223 660.925 543.294 652.932 557.643 640.119C571.985 627.311 586.554 609.736 601.519 591.496C602.145 590.733 602.771 589.969 603.398 589.205C617.763 571.688 632.496 553.724 647.727 538.955C663.62 523.543 680.082 511.583 697.27 507.246C712.183 503.484 725.377 506.793 737.568 513.858C749.749 520.918 760.94 531.735 771.858 543.005C773.856 545.067 775.844 547.145 777.829 549.217C786.697 558.48 795.473 567.647 804.569 574.948C815.697 583.88 827.268 589.987 840.018 590.058C859.529 590.167 882.487 581.68 907.505 568.385C932.517 555.094 959.554 537.017 987.219 517.981C992.291 514.49 997.384 510.968 1002.49 507.436C1025.23 491.712 1048.21 475.818 1070.66 461.849C1098.16 444.743 1124.88 430.51 1149.41 423.002L1149.57 423.475C1125.1 430.964 1098.42 445.169 1070.93 462.269C1048.49 476.231 1025.52 492.116 1002.79 507.84C997.68 511.372 992.584 514.896 987.509 518.388C959.846 537.424 932.787 555.516 907.747 568.822Z" fill="#D9D9D9"/>
<path fill-rule="evenodd" clip-rule="evenodd" d="M904.194 565.278C878.362 577.934 854.558 585.988 834.325 585.843C821.493 585.751 809.76 580.106 798.471 571.975C789.493 565.509 780.777 557.456 772 549.347C769.744 547.262 767.483 545.174 765.213 543.107C742.987 522.877 719.868 504.807 690.491 512.782C673.272 517.457 656.697 529.211 640.645 544.173C625.498 558.292 610.836 575.248 596.552 591.767C595.701 592.752 594.85 593.735 594.001 594.716C578.919 612.147 564.25 628.87 549.888 640.96C535.531 653.045 521.434 660.541 507.493 659.433C492.608 658.251 478.958 649.069 466.062 635.564C453.164 622.056 440.99 604.191 429.061 585.584C425.963 580.752 422.882 575.869 419.809 571C411.044 557.111 402.344 543.326 393.508 531.094C381.571 514.571 369.409 500.92 356.542 493.697C333.868 480.985 310.702 485.578 287.661 501.043C271.817 511.678 253.998 527.192 235.192 543.698C234.421 544.374 233.649 545.052 232.875 545.732C214.769 561.628 195.797 578.283 176.848 592.249C146.972 614.268 124.456 619.367 105.305 610.804C95.7413 606.528 87.0444 598.855 78.7045 588.237C70.3644 577.618 62.3723 564.043 54.2219 547.945L54.6377 547.744C62.7821 563.83 70.7582 577.375 79.0708 587.958C87.3835 598.542 96.0234 606.152 105.492 610.386C124.405 618.843 146.732 613.868 176.566 591.879C195.499 577.925 214.458 561.281 232.568 545.382C233.34 544.704 234.111 544.027 234.88 543.352C253.68 526.852 271.522 511.316 287.396 500.662C310.521 485.139 333.883 480.468 356.767 493.298L356.654 493.498L356.767 493.298C369.731 500.575 381.942 514.3 393.885 530.831C402.731 543.075 411.443 556.879 420.21 570.772C423.282 575.639 426.36 580.517 429.454 585.342C441.382 603.949 453.535 621.78 466.399 635.251C479.265 648.726 492.812 657.807 507.524 658.975C521.272 660.067 535.247 652.676 549.583 640.609C563.913 628.546 578.558 611.851 593.646 594.415C594.496 593.432 595.347 592.447 596.2 591.461C610.48 574.947 625.157 557.973 640.322 543.837C656.392 528.858 673.033 517.043 690.361 512.339C720.015 504.288 743.322 522.561 765.526 542.771C767.803 544.844 770.068 546.937 772.327 549.025C781.101 557.13 789.79 565.158 798.741 571.605C809.994 579.71 821.631 585.292 834.321 585.383C854.442 585.528 878.167 577.514 903.982 564.866C929.793 552.221 957.666 534.957 986.079 516.629C993.969 511.539 1001.9 506.368 1009.84 501.19C1030.49 487.726 1051.2 474.223 1071.39 462.026C1099.34 445.139 1126.31 430.746 1150.76 422.418L1150.91 422.853C1126.51 431.165 1099.58 445.537 1071.64 462.419C1051.46 474.612 1030.76 488.109 1010.11 501.572C1002.17 506.75 994.232 511.923 986.338 517.015C957.924 535.343 930.031 552.62 904.194 565.278Z" fill="#D9D9D9"/>
<path fill-rule="evenodd" clip-rule="evenodd" d="M900.639 561.736C874.009 573.745 849.449 581.315 828.623 581.133C815.877 581.021 804.093 575.92 792.682 568.623C783.909 563.012 775.34 556.092 766.717 549.128C764.127 547.036 761.533 544.941 758.926 542.876C736.33 524.974 712.824 509.339 683.576 517.838C666.2 522.888 649.437 534.511 633.207 549.042C618.187 562.491 603.64 578.416 589.496 593.899C588.359 595.144 587.224 596.387 586.091 597.625C570.885 614.251 556.141 630.089 541.791 641.431C527.446 652.769 513.453 659.647 499.752 658.281C485.017 656.813 471.414 647.822 458.513 634.761C445.61 621.698 433.382 604.537 421.4 586.68C418.234 581.961 415.084 577.193 411.944 572.44C403.198 559.198 394.521 546.063 385.737 534.376C373.797 518.49 361.68 505.31 348.951 498.188C326.465 485.621 303.68 489.455 281.222 504.074C265.7 514.178 248.105 529.144 229.48 545.128C228.642 545.847 227.802 546.568 226.96 547.291C209.091 562.631 190.33 578.738 171.6 592.244C142.469 613.25 120.148 618.45 101.066 610.452C82.0102 602.464 66.2674 581.342 50.2063 549.933L50.5894 549.747C66.6506 581.155 82.3333 602.141 101.229 610.061C120.097 617.971 142.251 612.878 171.343 591.9C190.058 578.405 208.807 562.309 226.68 546.965C227.52 546.244 228.359 545.524 229.195 544.806C247.815 528.827 265.432 513.841 280.982 503.719C303.527 489.042 326.489 485.149 349.159 497.819C361.972 504.989 374.135 518.232 386.081 534.126C394.873 545.825 403.561 558.976 412.309 572.221C415.448 576.972 418.595 581.736 421.757 586.449C433.739 604.306 445.947 621.436 458.819 634.467C471.692 647.5 485.204 656.406 499.789 657.859C513.317 659.207 527.196 652.419 541.519 641.098C555.838 629.781 570.559 613.968 585.77 597.338C586.903 596.099 588.039 594.855 589.178 593.609C603.318 578.13 617.88 562.189 632.916 548.726C649.162 534.179 665.982 522.507 683.449 517.431C712.931 508.864 736.604 524.651 759.192 542.547C761.807 544.618 764.406 546.718 766.999 548.811C775.619 555.773 784.161 562.672 792.912 568.267C804.29 575.544 815.991 580.598 828.62 580.709C849.351 580.89 873.842 573.351 900.455 561.35C927.065 549.35 955.774 532.9 984.936 515.279C996.383 508.363 1007.9 501.266 1019.39 494.187C1066.42 465.207 1112.95 436.535 1152.09 421.835L1152.25 422.232C1113.15 436.916 1066.67 465.557 1019.64 494.535C1008.15 501.617 996.623 508.719 985.165 515.642C956 533.264 927.273 549.725 900.639 561.736Z" fill="#D9D9D9"/>
<path fill-rule="evenodd" clip-rule="evenodd" d="M897.094 558.197C869.667 569.559 844.351 576.646 822.932 576.426C810.27 576.295 798.435 571.737 786.902 565.274C778.409 560.513 770.066 554.711 761.674 548.874C758.675 546.789 755.67 544.699 752.65 542.651C729.682 527.075 705.79 513.879 676.671 522.896C659.139 528.325 642.189 539.818 625.782 553.919C610.966 566.652 596.605 581.502 582.666 595.916C581.17 597.463 579.679 599.005 578.193 600.538C562.862 616.358 548.042 631.309 533.704 641.902C519.371 652.492 505.483 658.753 492.02 657.132C477.434 655.376 463.879 646.575 450.972 633.957C438.064 621.338 425.783 604.881 413.747 587.775C410.509 583.172 407.288 578.522 404.078 573.887C395.353 561.291 386.704 548.803 377.975 537.658C366.032 522.411 353.959 509.703 341.37 502.682C319.071 490.26 296.667 493.331 274.791 507.107C259.59 516.68 242.222 531.099 223.778 546.563C222.867 547.326 221.953 548.092 221.037 548.861C203.411 563.645 184.867 579.2 166.359 592.242C137.979 612.241 115.852 617.543 96.8373 610.106C77.8425 602.678 62.0277 582.561 46.1988 551.926L46.5492 551.753C62.3751 582.383 78.1327 602.375 96.9777 609.745C115.803 617.107 137.783 611.898 166.127 591.924C184.621 578.892 203.154 563.347 220.783 548.56C221.698 547.792 222.61 547.027 223.52 546.264C241.958 530.806 259.348 516.368 274.576 506.778C296.54 492.946 319.101 489.833 341.56 502.343C354.222 509.406 366.336 522.168 378.285 537.423C387.022 548.578 395.682 561.081 404.409 573.68C407.618 578.313 410.835 582.959 414.07 587.556C426.104 604.661 438.368 621.092 451.247 633.683C464.128 646.275 477.605 655.005 492.062 656.746C505.37 658.348 519.154 652.163 533.465 641.589C547.773 631.019 562.572 616.09 577.906 600.267C579.393 598.733 580.884 597.191 582.381 595.644C596.317 581.232 610.691 566.37 625.521 553.624C641.943 539.509 658.941 527.977 676.548 522.525C705.86 513.448 729.899 526.753 752.87 542.331C755.899 544.386 758.91 546.48 761.912 548.568C770.3 554.401 778.618 560.186 787.093 564.936C798.597 571.384 810.363 575.907 822.93 576.037C844.269 576.256 869.525 569.193 896.937 557.838C924.345 546.485 953.89 530.848 983.802 513.934C999.884 504.841 1016.07 495.378 1032.09 486.014C1075.65 460.552 1117.96 435.823 1153.45 421.252L1153.6 421.612C1118.14 436.171 1075.87 460.878 1032.32 486.335C1016.3 495.702 1000.1 505.171 984.001 514.273C954.086 531.188 924.525 546.835 897.094 558.197Z" fill="#D9D9D9"/>
<path fill-rule="evenodd" clip-rule="evenodd" d="M893.544 554.658C865.319 565.372 839.248 571.975 817.234 571.716C804.655 571.568 792.769 567.553 781.117 561.925C773.004 558.006 764.993 553.3 756.938 548.567C753.428 546.505 749.909 544.437 746.369 542.428C723.03 529.178 698.75 518.425 669.758 527.954C652.075 533.766 634.939 545.128 618.355 558.799C603.838 570.766 589.753 584.493 576.098 597.801C574.154 599.695 572.219 601.581 570.292 603.452C554.837 618.464 539.94 632.527 525.615 642.369C511.292 652.21 497.509 657.855 484.285 655.981C469.847 653.935 456.339 645.321 443.427 633.147C430.514 620.972 418.179 605.219 406.09 588.864C402.776 584.381 399.48 579.852 396.197 575.34C387.497 563.386 378.879 551.542 370.207 540.938C358.262 526.329 346.233 514.093 333.784 507.174C311.673 494.898 289.648 497.204 268.357 510.139C253.476 519.179 236.335 533.053 218.074 547.997C217.085 548.806 216.094 549.618 215.099 550.433C197.72 564.663 179.399 579.665 161.116 592.238C133.49 611.235 111.557 616.639 92.6083 609.763C73.6732 602.891 57.7839 583.778 42.1872 553.915L42.505 553.757C58.0959 583.609 73.9308 602.61 92.7274 609.431C111.51 616.247 133.316 610.921 160.908 591.947C179.178 579.383 197.488 564.39 214.87 550.157C215.864 549.344 216.855 548.532 217.843 547.724C236.099 532.784 253.26 518.893 268.166 509.837C289.545 496.849 311.71 494.515 333.956 506.866L333.87 507.02L333.956 506.866C346.468 513.821 358.533 526.102 370.485 540.718C379.163 551.331 387.791 563.188 396.493 575.145C399.775 579.655 403.068 584.18 406.378 588.658C418.466 605.012 430.785 620.742 443.672 632.893C456.561 645.045 470.001 653.6 484.331 655.631C497.418 657.486 511.107 651.904 525.407 642.078C539.705 632.255 554.581 618.213 570.039 603.198C571.965 601.328 573.9 599.442 575.844 597.547C589.498 584.24 603.594 570.502 618.123 558.526C634.72 544.844 651.896 533.45 669.641 527.618C698.789 518.038 723.193 528.866 746.544 542.122C750.094 544.137 753.619 546.208 757.132 548.272C765.182 553.002 773.171 557.696 781.27 561.607C792.899 567.224 804.729 571.215 817.233 571.362C839.18 571.621 865.201 565.036 893.412 554.328C921.619 543.621 952 528.797 982.661 512.591C1005.05 500.756 1027.59 488.182 1049.55 475.937C1087.71 454.652 1124.09 434.36 1154.79 420.668L1154.94 420.991C1124.25 434.677 1087.9 454.954 1049.75 476.233C1027.79 488.48 1005.24 501.059 982.834 512.903C952.168 529.112 921.772 543.944 893.544 554.658Z" fill="#D9D9D9"/>
<path fill-rule="evenodd" clip-rule="evenodd" d="M889.997 551.12C860.975 561.186 834.147 567.306 811.538 567.006C799.041 566.841 787.105 563.369 775.333 558.577C767.742 555.487 760.21 551.843 752.639 548.181C748.474 546.166 744.297 544.146 740.092 542.208C716.38 531.285 691.712 522.977 662.848 533.011C645.014 539.21 627.694 550.444 610.934 563.684C596.833 574.823 583.135 587.376 569.863 599.539C567.359 601.834 564.87 604.114 562.397 606.369C546.817 620.572 531.843 633.744 517.529 642.835C503.217 651.926 489.537 656.955 476.551 654.83C462.261 652.492 448.8 644.064 435.883 632.333C422.965 620.601 410.577 605.552 398.434 589.949C395.041 585.588 391.667 581.185 388.305 576.798C379.636 565.484 371.052 554.281 362.441 544.215C350.492 530.245 338.507 518.484 326.198 511.665C304.277 499.537 282.631 501.075 261.924 513.171C247.362 521.677 230.45 535.008 212.372 549.435C211.301 550.29 210.225 551.149 209.145 552.011C192.018 565.689 173.927 580.136 155.873 592.234C129.008 610.237 107.268 615.744 88.383 609.425C69.5068 603.109 53.5406 584.996 38.1763 555.906L38.4616 555.762C53.8176 584.836 69.7326 602.85 88.4823 609.124C107.224 615.394 128.854 609.953 155.689 591.97C173.732 579.879 191.814 565.44 208.944 551.76C210.022 550.899 211.097 550.04 212.167 549.186C230.24 534.763 247.171 521.417 261.757 512.896C282.55 500.751 304.319 499.197 326.353 511.388C338.716 518.236 350.731 530.035 362.686 544.011C371.303 554.085 379.895 565.299 388.567 576.616C391.927 581.001 395.299 585.402 398.689 589.757C410.83 605.359 423.204 620.389 436.099 632.1C448.995 643.813 462.399 652.193 476.599 654.516C489.466 656.622 503.061 651.644 517.352 642.567C531.639 633.492 546.595 620.338 562.176 606.134C564.649 603.88 567.137 601.6 569.64 599.306C582.912 587.143 596.619 574.581 610.73 563.434C627.502 550.185 644.854 538.927 662.737 532.71C691.726 522.633 716.495 530.988 740.224 541.92C744.442 543.863 748.625 545.887 752.792 547.903C760.356 551.562 767.87 555.196 775.452 558.283C787.205 563.067 799.098 566.523 811.538 566.688C834.091 566.987 860.878 560.88 889.886 550.819C918.893 540.759 950.109 526.748 981.52 511.248C1012.93 495.748 1044.53 478.76 1074.31 462.745L1074.86 462.448C1104.43 446.545 1132.18 431.617 1156.14 420.083L1156.29 420.37C1132.34 431.9 1104.59 446.825 1075.01 462.73L1074.47 463.025C1044.69 479.04 1013.08 496.03 981.668 511.533C950.252 527.036 919.022 541.053 889.997 551.12Z" fill="#D9D9D9"/>
<path fill-rule="evenodd" clip-rule="evenodd" d="M886.45 547.583C856.631 557.001 829.046 562.637 805.841 562.296C793.425 562.113 781.437 559.184 769.546 555.229C762.684 552.946 755.844 550.317 748.971 547.676C743.943 545.744 738.897 543.805 733.813 541.99C709.728 533.392 684.674 527.533 655.935 538.067C623.575 549.928 592.776 576.405 564.041 601.109C560.836 603.865 557.657 606.598 554.504 609.286C538.799 622.678 523.747 634.957 509.444 643.298C495.142 651.637 481.565 656.051 468.816 653.678C454.673 651.046 441.26 642.802 428.338 631.514C415.415 620.225 402.974 605.88 390.777 591.03C387.299 586.795 383.84 582.518 380.396 578.26C371.762 567.583 363.218 557.019 354.674 547.49C342.721 534.161 330.781 522.874 318.612 516.158C296.88 504.175 275.61 504.942 255.489 516.202C241.245 524.173 224.564 536.963 206.671 550.873C205.514 551.773 204.352 552.677 203.184 553.586C186.312 566.714 168.455 580.608 150.628 592.23C124.53 609.244 102.983 614.854 84.1601 609.091C65.3421 603.328 49.2965 586.211 34.1645 557.895L34.4175 557.766C49.5392 586.063 65.5369 603.093 84.2413 608.82C102.941 614.547 124.396 608.99 150.468 591.993C168.284 580.378 186.132 566.491 203.007 553.361C204.173 552.453 205.335 551.549 206.492 550.65C224.38 536.743 241.079 523.939 255.345 515.956C275.549 504.649 296.925 503.878 318.749 515.911C330.962 522.652 342.929 533.969 354.887 547.305C363.437 556.839 371.988 567.413 380.624 578.091C384.067 582.348 387.523 586.622 390.999 590.854C403.194 605.703 415.623 620.031 428.526 631.303C441.43 642.576 454.796 650.782 468.865 653.4C481.512 655.754 495.014 651.38 509.295 643.053C523.574 634.727 538.609 622.463 554.315 609.071C557.468 606.382 560.647 603.649 563.853 600.893C592.58 576.195 623.42 549.681 655.832 537.801C684.666 527.232 709.801 533.119 733.907 541.724C739.007 543.545 744.057 545.486 749.085 547.418C755.949 550.056 762.773 552.678 769.634 554.961C781.512 558.912 793.467 561.831 805.841 562.013C829.001 562.354 856.552 556.727 886.359 547.314C916.165 537.9 948.217 524.703 980.378 509.909C1027.36 488.297 1074.56 463.282 1115.32 441.681C1130.37 433.707 1144.54 426.198 1157.49 419.498L1157.63 419.749C1144.68 426.447 1130.51 433.954 1115.47 441.927C1074.71 463.529 1027.49 488.551 980.502 510.166C948.336 524.963 916.271 538.165 886.45 547.583Z" fill="#D9D9D9"/>
<path fill-rule="evenodd" clip-rule="evenodd" d="M979.338 508.801C913.511 536.981 847.742 558.356 800.144 557.587C787.808 557.388 775.769 555.002 763.759 551.883C757.937 550.371 752.119 548.687 746.278 546.995L745.729 546.836C739.703 545.091 733.65 543.344 727.535 541.776C703.077 535.505 677.637 532.097 649.022 543.125C617.35 555.332 587.035 579.725 558.762 602.475C554.671 605.767 550.622 609.025 546.618 612.207C530.787 624.786 515.657 636.172 501.363 643.76C487.071 651.347 473.597 655.147 461.084 652.528C447.089 649.599 433.722 641.538 420.795 630.691C407.868 619.844 395.373 606.204 383.123 592.107C379.554 588 376.005 583.854 372.473 579.727C363.88 569.687 355.382 559.758 346.908 550.765C334.952 538.077 323.055 527.265 311.027 520.651C289.487 508.816 268.592 508.808 249.057 519.234C235.13 526.667 218.68 538.919 200.974 552.315C199.728 553.258 198.476 554.206 197.218 555.159C180.603 567.742 162.984 581.086 145.387 592.226C120.059 608.26 98.7034 613.974 79.9411 608.763C61.1798 603.552 45.0525 587.428 30.1539 559.885L30.3746 559.771C45.2615 587.292 61.3446 603.341 80.0056 608.525C98.6655 613.708 119.944 608.037 145.249 592.017C162.837 580.883 180.448 567.545 197.064 554.961C198.322 554.009 199.574 553.061 200.82 552.118C218.522 538.725 234.987 526.46 248.935 519.016C268.548 508.548 289.534 508.561 311.146 520.435C323.21 527.069 335.129 537.905 347.09 550.598C355.568 559.595 364.073 569.531 372.668 579.574C376.199 583.7 379.746 587.844 383.312 591.948C395.561 606.043 408.046 619.67 420.956 630.504C433.867 641.337 447.196 649.369 461.132 652.286C473.56 654.887 486.969 651.118 501.242 643.541C515.513 635.965 530.628 624.592 546.459 612.013C550.461 608.833 554.509 605.576 558.6 602.284C586.868 579.537 617.217 555.116 648.928 542.894C677.614 531.838 703.115 535.26 727.595 541.537C733.714 543.106 739.77 544.854 745.796 546.599L746.345 546.757C752.186 548.449 758 550.133 763.819 551.644C775.821 554.76 787.838 557.141 800.144 557.339C847.683 558.107 913.408 536.753 979.235 508.574C1045.06 480.396 1110.96 445.404 1158.84 418.914L1158.97 419.13C1111.08 445.622 1045.17 480.619 979.338 508.801Z" fill="#D9D9D9"/>
<path fill-rule="evenodd" clip-rule="evenodd" d="M978.174 507.435C910.846 534.204 843.242 553.733 794.448 552.876C782.191 552.661 770.1 550.818 757.972 548.536C753.717 547.736 749.458 546.882 745.186 546.025C737.277 544.439 729.321 542.843 721.257 541.562C696.425 537.618 670.6 536.664 642.109 548.181C611.384 560.601 581.804 582.831 554.188 603.586C548.966 607.511 543.814 611.383 538.737 615.125C522.78 626.891 507.571 637.381 493.287 644.216C479.003 651.051 465.63 654.238 453.352 651.375C439.505 648.147 426.185 640.266 413.254 629.861C400.322 619.455 387.773 606.52 375.469 593.177C371.801 589.2 368.154 585.186 364.526 581.192C355.982 571.786 347.537 562.491 339.142 554.034C327.181 541.987 315.328 531.653 303.442 525.14C282.092 513.454 261.572 512.667 242.624 522.263C229.012 529.157 212.798 540.875 195.279 553.759C193.949 554.737 192.612 555.722 191.268 556.711C174.907 568.758 157.521 581.56 140.144 592.22C115.592 607.283 94.4285 613.101 75.7248 608.439C57.0199 603.777 40.8087 588.642 26.143 561.874L26.3318 561.776C40.9848 588.52 57.1558 603.593 75.7745 608.234C94.3945 612.875 115.496 607.09 140.029 592.04C157.397 581.385 174.777 568.588 191.139 556.539C192.483 555.55 193.82 554.566 195.149 553.588C212.664 540.707 228.893 528.977 242.523 522.074C261.543 512.442 282.139 513.239 303.544 524.955C315.459 531.483 327.329 541.836 339.294 553.887C347.693 562.347 356.143 571.648 364.688 581.055C368.316 585.048 371.961 589.061 375.627 593.036C387.93 606.377 400.47 619.302 413.388 629.697C426.306 640.092 439.596 647.951 453.398 651.169C465.606 654.015 478.925 650.851 493.191 644.025C507.455 637.199 522.651 626.72 538.607 614.955C543.68 611.215 548.829 607.344 554.05 603.421C581.665 582.666 611.271 560.416 642.025 547.984C670.567 536.446 696.436 537.405 721.288 541.353C729.356 542.634 737.319 544.232 745.232 545.818C749.503 546.675 753.759 547.529 758.009 548.328C770.133 550.609 782.21 552.449 794.449 552.664C843.196 553.52 910.767 534.006 978.092 507.238C1045.41 480.471 1112.47 446.457 1160.19 418.326L1160.31 418.509C1112.58 446.645 1045.51 480.664 978.174 507.435Z" fill="#D9D9D9"/>
<path fill-rule="evenodd" clip-rule="evenodd" d="M977.008 506.073C908.179 531.433 838.738 549.116 788.748 548.167C776.568 547.936 764.426 546.637 752.178 545.193C750.467 544.992 748.753 544.787 747.038 544.582C736.473 543.321 725.817 542.049 714.974 541.354C689.769 539.737 663.56 541.238 635.191 553.239C605.753 565.692 577.249 585.667 550.558 604.371C543.873 609.056 537.301 613.661 530.857 618.049C514.774 628.999 499.484 638.592 485.209 644.673C470.934 650.754 457.661 653.329 445.616 650.225C431.916 646.695 418.644 638.992 405.708 629.028C392.773 619.063 380.17 606.833 367.811 594.245C364.034 590.398 360.28 586.517 356.546 582.657C348.061 573.887 339.68 565.224 331.371 557.305C319.406 545.9 307.597 536.043 295.852 529.633C274.696 518.095 254.549 516.523 236.188 525.294C222.891 531.645 206.913 542.833 189.583 555.207C188.171 556.215 186.75 557.231 185.321 558.253C169.212 569.772 152.059 582.038 134.899 592.215C111.127 606.314 90.1545 612.238 71.5075 608.123C52.8577 604.007 36.5606 589.855 22.1284 563.863L22.2851 563.78C36.7045 589.749 52.966 603.85 71.544 607.95C90.1248 612.051 111.049 606.153 134.805 592.063C151.958 581.89 169.106 569.628 185.216 558.109C186.644 557.087 188.065 556.071 189.477 555.063C206.803 542.691 222.795 531.494 236.108 525.134C254.531 516.334 274.741 517.919 295.937 529.478C307.703 535.901 319.526 545.771 331.495 557.178C339.806 565.1 348.191 573.767 356.677 582.539C360.411 586.398 364.164 590.278 367.939 594.123C380.297 606.71 392.892 618.932 405.817 628.889C418.742 638.846 431.992 646.533 445.659 650.054C457.648 653.143 470.877 650.585 485.136 644.511C499.394 638.437 514.672 628.852 530.754 617.903C537.194 613.518 543.762 608.915 550.445 604.232C577.138 585.526 605.662 565.538 635.118 553.076C663.522 541.061 689.761 539.56 714.983 541.177C725.831 541.873 736.492 543.146 747.056 544.407C748.772 544.611 750.486 544.816 752.197 545.018C764.444 546.461 776.579 547.76 788.749 547.991C838.704 548.938 908.119 531.265 976.943 505.907C1045.76 480.55 1113.98 447.512 1161.54 417.742L1161.64 417.891C1114.07 447.67 1045.84 480.712 977.008 506.073Z" fill="#D9D9D9"/>
<path fill-rule="evenodd" clip-rule="evenodd" d="M975.851 504.786C905.522 528.762 834.244 544.6 783.057 543.458L783.058 543.387L783.057 543.458C773.706 543.286 764.301 542.802 754.805 542.314C715.133 540.275 673.872 538.155 628.282 558.297C600.601 570.527 573.641 588.131 548.262 604.702C539.646 610.328 531.212 615.835 522.993 620.972C506.784 631.106 491.413 639.801 477.145 645.128C462.877 650.455 449.703 652.417 437.89 649.075C410.791 641.408 384.989 618.971 360.165 595.308C356.264 591.59 352.388 587.842 348.534 584.116C340.123 575.982 331.819 567.953 323.61 560.572C311.64 549.811 299.874 540.433 288.271 534.125C267.308 522.737 247.533 520.376 229.76 528.325C216.776 534.131 201.037 544.793 183.897 556.66C182.41 557.689 180.913 558.727 179.407 559.772C163.544 570.774 146.616 582.516 129.661 592.211C106.674 605.356 85.8912 611.385 67.2994 607.814C48.7042 604.242 32.3194 591.07 18.1208 565.854L18.2458 565.787C32.4321 590.981 48.7865 604.114 67.3248 607.675C85.8664 611.237 106.612 605.227 129.587 592.089C146.537 582.397 163.46 570.659 179.323 559.656C180.83 558.611 182.327 557.573 183.813 556.544C200.95 544.678 216.701 534.009 229.7 528.196C247.525 520.224 267.348 522.598 288.338 534.001C299.957 540.317 311.733 549.705 323.706 560.468C331.917 567.851 340.223 575.883 348.636 584.017C352.489 587.743 356.365 591.491 360.263 595.207C385.091 618.874 410.869 641.284 437.928 648.939C449.699 652.269 462.838 650.317 477.093 644.995C491.347 639.673 506.707 630.985 522.916 620.853C531.129 615.718 539.559 610.213 548.173 604.589C573.555 588.016 600.529 570.403 628.222 558.168C673.846 538.01 715.147 540.134 754.823 542.173C764.315 542.661 773.715 543.145 783.058 543.317L783.058 543.381L783.058 543.317C834.219 544.458 905.479 528.626 975.802 504.652C1046.13 480.679 1115.5 448.567 1162.9 417.156L1162.98 417.274C1115.57 448.694 1046.18 480.81 975.851 504.786Z" fill="#D9D9D9"/>
<path fill-rule="evenodd" clip-rule="evenodd" d="M974.688 503.411C902.859 525.973 829.744 539.967 777.359 538.749C729.245 537.775 677.63 537.442 621.365 563.355C596.111 574.986 571.371 590.054 547.892 604.354C536.656 611.198 525.708 617.866 515.132 623.896C498.795 633.211 483.343 641.006 469.082 645.579C454.82 650.151 441.744 651.503 430.16 647.924C403.358 639.643 377.449 618.517 352.514 596.365C348.469 592.772 344.45 589.152 340.457 585.555C319.828 566.974 299.891 549.015 280.685 538.616C259.917 527.378 240.514 524.224 223.33 531.354C210.658 536.612 195.159 546.752 178.211 558.115C176.657 559.157 175.091 560.209 173.514 561.268C157.892 571.765 141.181 582.992 124.419 592.205C102.221 604.406 81.6282 610.542 63.0894 607.511C44.5472 604.48 28.0728 592.281 14.109 567.842L14.2024 567.791C28.1554 592.211 44.6054 604.382 63.1054 607.406C81.6088 610.431 102.176 604.308 124.366 592.112C141.123 582.902 157.83 571.677 173.453 561.18C175.03 560.121 176.596 559.069 178.149 558.027C195.095 546.665 210.603 536.519 223.287 531.256C240.512 524.109 259.951 527.276 280.735 538.523C299.954 548.929 319.904 566.899 340.532 585.48C344.524 589.076 348.542 592.695 352.585 596.287C377.522 618.44 403.415 639.55 430.191 647.823C441.744 651.392 454.796 650.047 469.047 645.478C483.298 640.909 498.742 633.118 515.077 623.804C525.648 617.777 536.593 611.111 547.828 604.268C571.309 589.966 596.059 574.892 621.319 563.259C677.607 537.334 729.245 537.669 777.36 538.643L777.36 538.696L777.36 538.643C829.728 539.86 902.83 525.87 974.654 503.31C1046.48 480.75 1117.02 449.622 1164.25 416.568L1164.32 416.655C1117.07 449.718 1046.52 480.85 974.688 503.411Z" fill="#D9D9D9"/>
<path fill-rule="evenodd" clip-rule="evenodd" d="M973.53 502.036C900.202 523.183 825.248 535.333 771.666 534.039C723.849 532.983 670.486 541.557 614.452 568.413C595.655 577.422 577.094 587.776 559.116 598.002C556.234 599.642 553.367 601.278 550.517 602.904C535.586 611.425 521.104 619.688 507.28 626.822C490.816 635.317 475.282 642.211 461.026 646.028C446.77 649.845 433.789 650.587 422.433 646.774C395.93 637.874 369.915 618.058 344.867 597.419C340.646 593.941 336.453 590.439 332.289 586.962C311.743 569.807 291.923 553.257 273.1 543.108C252.528 532.021 233.495 528.066 216.901 534.383C204.539 539.089 189.283 548.714 172.528 559.578C170.92 560.62 169.3 561.673 167.666 562.735C152.272 572.74 135.764 583.469 119.179 592.2C97.773 603.468 77.3694 609.711 58.8824 607.217C40.3927 604.724 23.8277 593.493 10.0985 569.832L10.1606 569.797C23.8814 593.444 40.4289 604.657 58.891 607.147C77.3558 609.638 97.7433 603.403 119.145 592.137C135.727 583.408 152.232 572.681 167.627 562.675C169.26 561.614 170.881 560.561 172.488 559.519C189.241 548.656 204.504 539.027 216.874 534.317C233.497 527.989 252.553 531.954 273.134 543.046C291.964 553.199 311.791 569.755 332.336 586.91C336.5 590.386 340.693 593.887 344.913 597.365C369.961 618.005 395.967 637.812 422.455 646.707C433.792 650.513 446.758 649.775 461.006 645.96C475.255 642.144 490.784 635.253 507.246 626.759C521.069 619.626 535.548 611.363 550.48 602.843C553.33 601.216 556.198 599.58 559.08 597.941C577.058 587.715 595.621 577.359 614.42 568.349C670.465 541.488 723.839 532.912 771.666 533.968C825.239 535.262 900.185 523.114 973.509 501.968C1046.83 480.822 1118.53 450.678 1165.61 415.982L1165.65 416.038C1118.57 450.742 1046.86 480.889 973.53 502.036Z" fill="#D9D9D9"/>
<path fill-rule="evenodd" clip-rule="evenodd" d="M972.369 500.659C897.542 520.392 820.75 530.698 765.967 529.329C718.443 528.191 663.343 545.68 607.534 573.471C590.844 581.782 574.303 590.723 558.179 599.439C556.023 600.604 553.875 601.765 551.735 602.92C533.587 612.715 516.022 622.073 499.431 629.748C482.841 637.422 467.224 643.414 452.972 646.476C438.721 649.537 425.833 649.669 414.703 645.623C388.502 636.099 362.378 617.592 337.219 598.467C332.766 595.082 328.344 591.679 323.957 588.302C303.552 572.596 283.906 557.475 265.512 547.599C245.137 536.663 226.475 531.901 210.469 537.412C198.418 541.561 183.406 550.676 166.845 561.045C165.201 562.075 163.54 563.117 161.866 564.168C146.687 573.698 130.366 583.945 113.937 592.193C93.3255 602.54 73.1103 608.89 54.6734 606.931C36.2349 604.971 19.5782 594.702 6.08433 571.819L6.11517 571.802C19.6042 594.677 36.2516 604.938 54.6767 606.895C73.1033 608.854 93.3109 602.508 113.92 592.161C130.348 583.914 146.668 573.668 161.847 564.138C163.521 563.087 165.181 562.045 166.826 561.015C183.385 550.647 198.401 541.529 210.457 537.378C226.478 531.863 245.151 536.631 265.528 547.568C283.926 557.445 303.575 572.569 323.98 588.275C328.367 591.651 332.788 595.055 337.24 598.439C362.4 617.564 388.52 636.068 414.714 645.59C425.836 649.633 438.716 649.502 452.964 646.441C467.212 643.38 482.826 637.39 499.416 629.716C516.005 622.042 533.57 612.684 551.717 602.889C553.858 601.734 556.007 600.572 558.164 599.406C574.287 590.691 590.828 581.751 607.518 573.439C663.328 545.647 718.434 528.155 765.968 529.293C820.746 530.662 897.534 520.357 972.36 500.625C1047.19 480.892 1120.04 451.732 1166.97 415.392L1166.99 415.42C1120.06 451.764 1047.2 480.925 972.369 500.659Z" fill="#D9D9D9"/>
</g>
</svg>
