<svg width="838" height="243" viewBox="0 0 838 243" fill="none" xmlns="http://www.w3.org/2000/svg">
<g clip-path="url(#clip0_5732_15509)">
<path d="M535.43 224.62L457.02 303.03" stroke="url(#paint0_linear_5732_15509)" stroke-width="2" stroke-miterlimit="10"/>
<path d="M866.067 -17.9205C867.557 43.0192 781.531 73.287 716.758 71.5648C663.97 69.5388 605.628 47.4534 558.208 28.6967C353.793 -52.1496 264.458 46.918 233.506 107.699C208.989 153.521 191.981 191.545 138.197 220.537C102.339 239.87 45.5196 264.324 0.00288737 257.304L836.162 333.043L866.067 -17.9205Z" fill="url(#paint1_linear_5732_15509)"/>
<path d="M708.972 134.14L562.762 280.35" stroke="url(#paint2_linear_5732_15509)" stroke-width="2" stroke-miterlimit="10"/>
<path d="M646.653 39L500.443 185.22" stroke="url(#paint3_linear_5732_15509)" stroke-width="2" stroke-miterlimit="10"/>
<path d="M470.912 120.7L392.502 199.12" stroke="url(#paint4_linear_5732_15509)" stroke-width="2" stroke-miterlimit="10"/>
<path d="M466.002 41.9199L290.002 176.92" stroke="url(#paint5_linear_5732_15509)" stroke-width="2" stroke-miterlimit="10"/>
<path d="M332.412 208.12L254.002 286.54" stroke="url(#paint6_linear_5732_15509)" stroke-width="2" stroke-miterlimit="10"/>
</g>
<defs>
<linearGradient id="paint0_linear_5732_15509" x1="457.017" y1="303.034" x2="535.43" y2="224.621" gradientUnits="userSpaceOnUse">
<stop stop-color="white"/>
<stop offset="1" stop-color="white" stop-opacity="0"/>
</linearGradient>
<linearGradient id="paint1_linear_5732_15509" x1="126.824" y1="-216" x2="389.494" y2="619.334" gradientUnits="userSpaceOnUse">
<stop stop-color="#3AC5EC"/>
<stop offset="1" stop-color="#C547E9"/>
</linearGradient>
<linearGradient id="paint2_linear_5732_15509" x1="562.766" y1="280.354" x2="708.977" y2="134.144" gradientUnits="userSpaceOnUse">
<stop stop-color="white"/>
<stop offset="1" stop-color="white" stop-opacity="0"/>
</linearGradient>
<linearGradient id="paint3_linear_5732_15509" x1="500.445" y1="185.215" x2="646.656" y2="39.0044" gradientUnits="userSpaceOnUse">
<stop stop-color="white"/>
<stop offset="1" stop-color="white" stop-opacity="0"/>
</linearGradient>
<linearGradient id="paint4_linear_5732_15509" x1="392.499" y1="199.117" x2="470.912" y2="120.704" gradientUnits="userSpaceOnUse">
<stop stop-color="white"/>
<stop offset="1" stop-color="white" stop-opacity="0"/>
</linearGradient>
<linearGradient id="paint5_linear_5732_15509" x1="289.996" y1="176.914" x2="420.368" y2="6.92657" gradientUnits="userSpaceOnUse">
<stop stop-color="white"/>
<stop offset="1" stop-color="white" stop-opacity="0"/>
</linearGradient>
<linearGradient id="paint6_linear_5732_15509" x1="254.002" y1="286.536" x2="332.415" y2="208.123" gradientUnits="userSpaceOnUse">
<stop stop-color="white"/>
<stop offset="1" stop-color="white" stop-opacity="0"/>
</linearGradient>
<clipPath id="clip0_5732_15509">
<rect width="838" height="243" fill="white"/>
</clipPath>
</defs>
</svg>
