<svg width="30" height="30" viewBox="0 0 30 30" fill="none" xmlns="http://www.w3.org/2000/svg">
<g clip-path="url(#clip0_5724_74998)">
<g clip-path="url(#clip1_5724_74998)">
<path d="M25.5 0H4.5C2.01472 0 0 2.01472 0 4.5V25.5C0 27.9853 2.01472 30 4.5 30H25.5C27.9853 30 30 27.9853 30 25.5V4.5C30 2.01472 27.9853 0 25.5 0Z" fill="#F44336"/>
<path d="M25.0193 9.90236C24.785 9.02345 24.0232 8.32033 23.1443 8.08595C21.1521 7.55861 9.14043 7.50001 6.85527 8.08595C5.97636 8.32033 5.21464 9.02345 4.98027 9.90236C4.45293 12.1289 4.39433 17.8125 4.98027 20.0977C5.21464 20.9766 5.97636 21.6797 6.85527 21.9141C8.96464 22.5 20.9764 22.5 23.1443 21.9141C24.0232 21.6797 24.785 20.9766 25.0193 20.0977C25.5467 17.9883 25.5467 12.0703 25.0193 9.90236Z" fill="white"/>
<path d="M12.8906 11.8945V18.1055L18.3398 15" fill="#F44336"/>
</g>
</g>
<defs>
<clipPath id="clip0_5724_74998">
<rect width="30" height="30" fill="white"/>
</clipPath>
<clipPath id="clip1_5724_74998">
<rect width="30" height="30" fill="white"/>
</clipPath>
</defs>
</svg>
