<svg width="301" height="41" viewBox="0 0 301 41" fill="none" xmlns="http://www.w3.org/2000/svg">
<path d="M23.4224 2.66101C24.2215 3.50466 24.8554 4.50621 25.2878 5.60849L9.38715 5.60849C9.81962 4.50621 10.4535 3.50466 11.2526 2.66102C12.0517 1.81737 13.0003 1.14815 14.0444 0.691575C15.0884 0.234998 16.2074 0 17.3375 0C18.4676 0 19.5866 0.234997 20.6306 0.691575C21.6747 1.14815 22.6233 1.81737 23.4224 2.66101Z" fill="url(#paint0_linear_5713_74450)"/>
<path d="M11.4441 38.339C10.6451 37.4953 10.0112 36.4938 9.57873 35.3915H25.4794C25.047 36.4938 24.4131 37.4953 23.614 38.339C22.8149 39.1826 21.8663 39.8518 20.8222 40.3084C19.7782 40.765 18.6591 41 17.5291 41C16.399 41 15.28 40.765 14.2359 40.3084C13.1919 39.8518 12.2432 39.1826 11.4441 38.339Z" fill="url(#paint1_linear_5713_74450)"/>
<path d="M14.2666 24.1745L9.66961 15.9401H23.3555C26.2747 15.9401 29.4506 15.7497 31.7838 17.5367C32.5272 18.1061 33.2426 18.8468 34.0814 19.8151L34.366 18.9662C36.403 12.89 31.969 6.57547 25.6652 6.57547H8.63925C3.86792 6.57547 1.28302e-06 10.5152 1.28302e-06 15.375C1.28302e-06 20.2348 3.86792 24.1745 8.63925 24.1745H14.2666Z" fill="url(#paint2_linear_5713_74450)"/>
<path d="M20.5999 16.8255L25.197 25.0599H11.5111C8.59187 25.0599 5.41601 25.2503 3.08281 23.4633C2.33937 22.8939 1.62395 22.1532 0.785148 21.1849L0.500561 22.0338C-1.53645 28.11 2.89762 34.4245 9.20135 34.4245H26.2273C30.9986 34.4245 34.8666 30.4848 34.8666 25.625C34.8666 20.7652 30.9986 16.8255 26.2273 16.8255H20.5999Z" fill="url(#paint3_linear_5713_74450)"/>
<path d="M47.7062 35.5291C44.5148 35.5291 41.9277 32.9419 41.9277 29.7506V5.67029C45.1191 5.67029 47.7062 8.2574 47.7062 11.4488V35.5291Z" fill="#383192"/>
<path d="M55.4847 35.5291C54.3801 35.5291 53.4847 34.6336 53.4847 33.5291V17.7274C53.4847 15.5183 55.2756 13.7274 57.4847 13.7274H57.5778L58.5409 15.8602C59.0706 15.4336 59.6966 15.0071 60.3226 14.6753C61.4301 14.1066 62.9229 13.4904 64.8009 13.4904C70.0497 13.4904 73.7094 17.0451 73.7094 22.7324V33.5291C73.7094 34.6336 72.814 35.5291 71.7094 35.5291H70.1717C69.0671 35.5291 68.1717 34.6336 68.1717 33.5291V23.4434C68.1717 20.5997 66.2937 18.7039 63.597 18.7039C60.9004 18.7039 59.0224 20.5997 59.0224 23.4434V33.5291C59.0224 34.6336 58.127 35.5291 57.0224 35.5291H55.4847Z" fill="#383192"/>
<path d="M80.7844 35.5291C79.6798 35.5291 78.7844 34.6336 78.7844 33.5291V17.7274C78.7844 15.5183 80.5752 13.7274 82.7844 13.7274H82.8775L83.8406 15.8602C84.2739 15.4336 84.8036 15.0071 85.3333 14.6753C86.2483 14.1066 87.5484 13.4904 89.1375 13.4904C91.4007 13.4904 92.9898 14.2014 94.0011 14.9123C94.5789 15.3388 95.0604 15.8128 95.3975 16.3341C95.9272 15.8128 96.5051 15.3388 97.1792 14.9123C98.3349 14.2014 99.9722 13.4904 101.898 13.4904C106.714 13.4904 109.844 16.5711 109.844 22.4955V33.5291C109.844 34.6336 108.948 35.5291 107.844 35.5291H106.306C105.201 35.5291 104.306 34.6336 104.306 33.5291V22.9694C104.306 20.3153 102.621 18.7039 100.694 18.7039C98.7683 18.7039 97.0829 20.3153 97.0829 22.9694V33.5291C97.0829 34.6336 96.1875 35.5291 95.0829 35.5291H93.5452C92.4406 35.5291 91.5452 34.6336 91.5452 33.5291V22.9694C91.5452 20.3153 89.8598 18.7039 87.9337 18.7039C86.0075 18.7039 84.3221 20.3153 84.3221 22.9694V33.5291C84.3221 34.6336 83.4267 35.5291 82.3221 35.5291H80.7844Z" fill="#383192"/>
<path d="M124.771 18.7039C121.641 18.7039 119.234 21.0262 119.234 24.6282C119.234 28.2302 121.641 30.5526 124.771 30.5526C127.901 30.5526 130.309 28.2302 130.309 24.6282C130.309 21.0262 127.901 18.7039 124.771 18.7039ZM124.771 13.4904C130.743 13.4904 135.847 18.4669 135.847 24.6282C135.847 30.7896 130.743 35.766 124.771 35.766C118.8 35.766 113.696 30.7896 113.696 24.6282C113.696 18.4669 118.8 13.4904 124.771 13.4904Z" fill="#383192"/>
<path d="M174.591 18.7039C171.461 18.7039 169.054 21.0262 169.054 24.6282C169.054 28.2302 171.461 30.5526 174.591 30.5526C177.721 30.5526 180.129 28.2302 180.129 24.6282C180.129 21.0262 177.721 18.7039 174.591 18.7039ZM174.591 13.4904C180.563 13.4904 185.667 18.4669 185.667 24.6282C185.667 30.7896 180.563 35.766 174.591 35.766C168.62 35.766 163.516 30.7896 163.516 24.6282C163.516 18.4669 168.62 13.4904 174.591 13.4904Z" fill="#383192"/>
<path d="M191.737 35.5291C190.633 35.5291 189.737 34.6336 189.737 33.5291V15.7274C189.737 14.6228 190.633 13.7274 191.737 13.7274H193.83L194.794 15.8602C195.323 15.4336 195.949 15.0071 196.575 14.6753C197.683 14.1066 199.176 13.4904 201.054 13.4904C206.302 13.4904 209.962 17.0451 209.962 22.7324V33.5291C209.962 34.6336 209.067 35.5291 207.962 35.5291H206.424C205.32 35.5291 204.424 34.6336 204.424 33.5291V23.4434C204.424 20.5997 202.546 18.7039 199.85 18.7039C197.153 18.7039 195.275 20.5997 195.275 23.4434V33.5291C195.275 34.6336 194.38 35.5291 193.275 35.5291H191.737Z" fill="#383192"/>
<path d="M217.037 35.5291C215.932 35.5291 215.037 34.6336 215.037 33.5291V15.7274C215.037 14.6228 215.932 13.7274 217.037 13.7274H219.13L220.093 15.8602C220.623 15.4336 221.249 15.0071 221.875 14.6753C222.982 14.1066 224.475 13.4904 226.353 13.4904C231.602 13.4904 235.262 17.0451 235.262 22.7324V33.5291C235.262 34.6336 234.366 35.5291 233.262 35.5291H231.724C230.619 35.5291 229.724 34.6336 229.724 33.5291V23.4434C229.724 20.5997 227.846 18.7039 225.149 18.7039C222.453 18.7039 220.575 20.5997 220.575 23.4434V33.5291C220.575 34.6336 219.679 35.5291 218.575 35.5291H217.037Z" fill="#383192"/>
<path d="M254.301 28.8938H260.08C258.924 32.164 255.216 35.766 250.208 35.766C244.237 35.766 239.133 30.7896 239.133 24.6282C239.133 18.4669 244.237 13.4904 250.208 13.4904C255.987 13.4904 260.802 17.993 260.802 24.6282C260.802 25.1496 260.706 25.6235 260.658 26.0501L260.561 26.761H245.152C245.682 28.8938 247.319 30.5526 250.208 30.5526C251.701 30.5526 252.616 30.1734 253.338 29.7469C253.724 29.5099 254.061 29.2255 254.301 28.8938ZM244.911 22.9694H255.505C254.976 20.5523 253.098 18.7039 250.208 18.7039C247.319 18.7039 245.441 20.5523 244.911 22.9694Z" fill="#383192"/>
<path d="M279.571 27.4719H285.109C284.097 31.7849 280.053 35.766 274.756 35.766C268.785 35.766 263.68 30.7896 263.68 24.6282C263.68 18.4669 268.785 13.4904 274.756 13.4904C280.053 13.4904 284.097 17.4716 285.109 21.7845H279.571C279.33 21.2158 278.945 20.6945 278.512 20.2679C277.741 19.5096 276.537 18.7039 274.756 18.7039C271.626 18.7039 269.218 21.0262 269.218 24.6282C269.218 28.2302 271.626 30.5526 274.756 30.5526C276.537 30.5526 277.741 29.7943 278.512 29.036C278.945 28.6094 279.33 28.0881 279.571 27.4719Z" fill="#383192"/>
<path d="M290.646 27.9459V18.7039H287.276V14.2014H288.72C290.502 14.2014 291.369 13.3483 291.369 11.5946V8.51398C294.028 8.51398 296.184 10.6699 296.184 13.3294V13.7274H299C300.104 13.7274 301 14.6228 301 15.7274V16.7039C301 17.8084 300.104 18.7039 299 18.7039H296.184V27.7089C296.184 29.6047 297.388 30.7896 299.314 30.7896C299.844 30.7896 300.133 30.7422 300.374 30.6948L300.759 30.5526V35.2921C300.518 35.3869 300.277 35.4817 299.988 35.5291C299.459 35.6712 298.833 35.766 298.11 35.766C293.728 35.766 290.646 32.6854 290.646 27.9459Z" fill="#383192"/>
<path d="M154.797 27.4719H160.335C159.324 31.7849 155.279 35.766 149.982 35.766C144.011 35.766 138.906 30.7896 138.906 24.6282C138.906 18.4669 144.011 13.4904 149.982 13.4904C155.279 13.4904 159.324 17.4716 160.335 21.7845H154.797C154.557 21.2158 154.171 20.6945 153.738 20.2679C152.967 19.5096 151.764 18.7039 149.982 18.7039C146.852 18.7039 144.444 21.0262 144.444 24.6282C144.444 28.2302 146.852 30.5526 149.982 30.5526C151.764 30.5526 152.967 29.7943 153.738 29.036C154.171 28.6094 154.557 28.0881 154.797 27.4719Z" fill="#383192"/>
<defs>
<linearGradient id="paint0_linear_5713_74450" x1="0" y1="0" x2="42.2618" y2="33.4715" gradientUnits="userSpaceOnUse">
<stop stop-color="#3AC5EC"/>
<stop offset="1" stop-color="#C547E9"/>
</linearGradient>
<linearGradient id="paint1_linear_5713_74450" x1="0" y1="0" x2="42.2618" y2="33.4715" gradientUnits="userSpaceOnUse">
<stop stop-color="#3AC5EC"/>
<stop offset="1" stop-color="#C547E9"/>
</linearGradient>
<linearGradient id="paint2_linear_5713_74450" x1="0" y1="0" x2="42.2618" y2="33.4715" gradientUnits="userSpaceOnUse">
<stop stop-color="#3AC5EC"/>
<stop offset="1" stop-color="#C547E9"/>
</linearGradient>
<linearGradient id="paint3_linear_5713_74450" x1="0" y1="0" x2="42.2618" y2="33.4715" gradientUnits="userSpaceOnUse">
<stop stop-color="#3AC5EC"/>
<stop offset="1" stop-color="#C547E9"/>
</linearGradient>
</defs>
</svg>
