<svg width="515" height="344" viewBox="0 0 515 344" fill="none" xmlns="http://www.w3.org/2000/svg">
<g opacity="0.8">
<path d="M454.528 91.8131C454.528 91.8131 453.095 86.7886 446.289 84.276C439.483 81.7635 433.394 83.9169 431.245 85.7119C429.095 87.5062 427.662 90.0188 425.871 90.0188C424.081 90.0188 419.424 87.5062 415.125 89.3012C410.827 91.0955 411.185 93.6081 409.393 94.6848C407.603 95.7615 404.737 93.9672 401.513 94.6848C398.289 95.4024 395.065 98.2741 394.706 99.3508C394.348 100.428 393.632 100.068 390.766 100.068C387.901 100.068 385.035 104.016 385.035 104.016H476.021C476.021 104.016 472.081 95.4024 466.708 93.9665C461.334 92.5307 458.468 95.4024 457.394 95.0432C456.319 94.6841 454.528 91.8131 454.528 91.8131Z" fill="#F3F4F6" stroke="#17213A" stroke-miterlimit="10" stroke-linecap="round" stroke-linejoin="round"/>
<path d="M282.838 33.0622C282.838 33.0622 281.954 29.9616 277.754 28.4116C273.554 26.8616 269.796 28.1901 268.47 29.2977C267.144 30.4053 266.259 31.9553 265.154 31.9553C264.048 31.9553 261.175 30.4053 258.522 31.5122C255.869 32.6199 256.09 34.1698 254.985 34.8344C253.879 35.499 252.111 34.3914 250.122 34.8344C248.133 35.2775 246.143 37.049 245.922 37.7135C245.701 38.3781 245.258 38.1566 243.49 38.1566C241.722 38.1566 239.953 40.5926 239.953 40.5926H296.101C296.101 40.5926 293.67 35.2775 290.354 34.3914C287.038 33.5053 285.27 35.2775 284.606 35.0559C283.944 34.8337 282.838 33.0622 282.838 33.0622Z" fill="#F3F4F6" stroke="#17213A" stroke-miterlimit="10" stroke-linecap="round" stroke-linejoin="round"/>
<path d="M66.8504 42.807C66.8504 42.807 65.966 39.7064 61.7663 38.1557C57.566 36.6058 53.8086 37.9342 52.4819 39.0418C51.1553 40.1494 50.2715 41.6994 49.166 41.6994C48.0605 41.6994 45.1868 40.1494 42.5342 41.2564C39.8816 42.364 40.1027 43.914 38.9972 44.5785C37.8916 45.2431 36.1235 44.1355 34.1342 44.5785C32.1449 45.0216 30.1549 46.7931 29.9338 47.4577C29.7127 48.1222 29.2705 47.9007 27.5024 47.9007C25.7342 47.9007 23.9653 50.3368 23.9653 50.3368H80.1134C80.1134 50.3368 77.6819 45.0216 74.366 44.1355C71.0501 43.2494 69.2819 45.0216 68.6186 44.8001C67.9559 44.5785 66.8504 42.807 66.8504 42.807Z" fill="#F3F4F6" stroke="#17213A" stroke-miterlimit="10" stroke-linecap="round" stroke-linejoin="round"/>
<path opacity="0.7" d="M320.327 62.9814C320.327 62.9814 266.239 43.6865 213.144 74.4061C160.051 105.125 133.261 166.106 110.255 214.954C87.25 263.803 100.492 313.49 141.022 336.146C181.552 358.801 209.112 325.404 265.969 323.777C322.826 322.151 338.117 330.306 385.298 298.082C432.478 265.859 441.006 189.757 403.789 133.448C366.571 77.1388 320.327 62.9814 320.327 62.9814Z" fill="#C3C1DE"/>
<path d="M424.144 238.542H370.995V308.645H424.144V238.542Z" fill="#A8B1C7"/>
<path d="M424.145 238.542H399.224V308.645H424.145V238.542Z" fill="#5A6580"/>
<path d="M386.918 248.034H382.139V259.644H386.918V248.034Z" fill="#5A6580"/>
<path d="M386.918 293.475H382.139V305.085H386.918V293.475Z" fill="#5A6580"/>
<path d="M399.224 264.201C399.224 264.301 392.904 264.382 385.11 264.382C377.313 264.382 370.995 264.301 370.995 264.201C370.995 264.101 377.313 264.02 385.11 264.02C392.904 264.02 399.224 264.101 399.224 264.201Z" fill="#5A6580"/>
<path d="M386.918 270.927H382.139V282.538H386.918V270.927Z" fill="#5A6580"/>
<path d="M399.224 287.094C399.224 287.194 392.904 287.275 385.11 287.275C377.313 287.275 370.995 287.194 370.995 287.094C370.995 286.994 377.313 286.913 385.11 286.913C392.904 286.913 399.224 286.994 399.224 287.094Z" fill="#5A6580"/>
<path d="M409.295 248.034H404.516V259.644H409.295V248.034Z" fill="#17213A"/>
<path d="M419.662 248.034H414.883V259.644H419.662V248.034Z" fill="#17213A"/>
<path d="M409.295 270.064H404.516V281.674H409.295V270.064Z" fill="#17213A"/>
<path d="M419.662 270.064H414.883V281.674H419.662V270.064Z" fill="#17213A"/>
<path d="M409.295 292.096H404.516V303.706H409.295V292.096Z" fill="#17213A"/>
<path d="M419.662 292.096H414.883V303.706H419.662V292.096Z" fill="#17213A"/>
<path d="M428.14 236.103H367V238.631H428.14V236.103Z" fill="#17213A"/>
<path d="M424.516 238.868C424.516 238.968 412.637 239.049 397.986 239.049C383.33 239.049 371.454 238.968 371.454 238.868C371.454 238.768 383.331 238.688 397.986 238.688C412.636 238.688 424.516 238.768 424.516 238.868Z" fill="#A8B1C7"/>
<path d="M335.113 61.457H240.358V309.475H335.113V61.457Z" fill="#5A6580"/>
<path d="M335.113 61.457H287.736V309.475H335.113V61.457Z" fill="#17213A"/>
<path d="M284.638 31.9761H251.178V61.4581H284.638V31.9761Z" fill="#5A6580"/>
<path d="M284.64 31.9761H276.665V61.4581H284.64V31.9761Z" fill="#17213A"/>
<path d="M337.887 59.7383H232.462V61.4573H337.887V59.7383Z" fill="#17213A"/>
<path d="M267.083 74.3149H259.062V91.2269H267.083V74.3149Z" fill="#F2F2F2"/>
<path d="M287.736 97.865C287.736 98.043 277.129 98.188 264.048 98.188C250.963 98.188 240.358 98.043 240.358 97.865C240.358 97.687 250.962 97.542 264.048 97.542C277.129 97.542 287.736 97.686 287.736 97.865Z" fill="#17213A"/>
<path d="M314.873 74.3149H306.853V91.2269H314.873V74.3149Z" fill="#A8B1C7"/>
<path d="M335.526 97.865C335.526 98.043 324.919 98.188 311.838 98.188C298.752 98.188 288.148 98.043 288.148 97.865C288.148 97.687 298.752 97.542 311.838 97.542C324.919 97.542 335.526 97.686 335.526 97.865Z" fill="#5A6580"/>
<path d="M314.873 107.892H306.853V124.804H314.873V107.892Z" fill="#A8B1C7"/>
<path d="M335.526 131.442C335.526 131.62 324.919 131.765 311.838 131.765C298.752 131.765 288.148 131.62 288.148 131.442C288.148 131.264 298.752 131.119 311.838 131.119C324.919 131.119 335.526 131.264 335.526 131.442Z" fill="#5A6580"/>
<path d="M314.873 142.483H306.853V159.395H314.873V142.483Z" fill="#A8B1C7"/>
<path d="M335.526 166.032C335.526 166.21 324.919 166.355 311.838 166.355C298.752 166.355 288.148 166.21 288.148 166.032C288.148 165.854 298.752 165.709 311.838 165.709C324.919 165.71 335.526 165.854 335.526 166.032Z" fill="#5A6580"/>
<path d="M314.873 177.073H306.853V193.985H314.873V177.073Z" fill="#A8B1C7"/>
<path d="M335.526 200.623C335.526 200.801 324.919 200.946 311.838 200.946C298.752 200.946 288.148 200.801 288.148 200.623C288.148 200.445 298.752 200.3 311.838 200.3C324.919 200.3 335.526 200.445 335.526 200.623Z" fill="#5A6580"/>
<path d="M314.873 210.674H306.853V227.586H314.873V210.674Z" fill="#A8B1C7"/>
<path d="M335.526 234.224C335.526 234.402 324.919 234.547 311.838 234.547C298.752 234.547 288.148 234.402 288.148 234.224C288.148 234.046 298.752 233.901 311.838 233.901C324.919 233.901 335.526 234.046 335.526 234.224Z" fill="#5A6580"/>
<path d="M314.873 244.411H306.853V261.323H314.873V244.411Z" fill="#A8B1C7"/>
<path d="M314.873 278.59H306.853V295.502H314.873V278.59Z" fill="#A8B1C7"/>
<path d="M335.526 267.961C335.526 268.139 324.919 268.284 311.838 268.284C298.752 268.284 288.148 268.139 288.148 267.961C288.148 267.783 298.752 267.638 311.838 267.638C324.919 267.638 335.526 267.782 335.526 267.961Z" fill="#5A6580"/>
<path d="M267.083 108.405H259.062V125.317H267.083V108.405Z" fill="#F2F2F2"/>
<path d="M287.736 131.955C287.736 132.133 277.129 132.278 264.048 132.278C250.963 132.278 240.358 132.133 240.358 131.955C240.358 131.777 250.962 131.632 264.048 131.632C277.129 131.632 287.736 131.776 287.736 131.955Z" fill="#17213A"/>
<path d="M267.083 142.495H259.062V159.407H267.083V142.495Z" fill="#F2F2F2"/>
<path d="M287.736 166.044C287.736 166.222 277.129 166.367 264.048 166.367C250.963 166.367 240.358 166.222 240.358 166.044C240.358 165.866 250.962 165.721 264.048 165.721C277.129 165.721 287.736 165.866 287.736 166.044Z" fill="#17213A"/>
<path d="M267.083 176.584H259.062V193.496H267.083V176.584Z" fill="#F2F2F2"/>
<path d="M287.736 200.134C287.736 200.313 277.129 200.457 264.048 200.457C250.963 200.457 240.358 200.313 240.358 200.134C240.358 199.956 250.962 199.811 264.048 199.811C277.129 199.811 287.736 199.956 287.736 200.134Z" fill="#17213A"/>
<path d="M267.083 210.674H259.062V227.586H267.083V210.674Z" fill="#F2F2F2"/>
<path d="M287.736 234.224C287.736 234.402 277.129 234.547 264.048 234.547C250.963 234.547 240.358 234.402 240.358 234.224C240.358 234.046 250.962 233.901 264.048 233.901C277.129 233.901 287.736 234.046 287.736 234.224Z" fill="#17213A"/>
<path d="M267.083 244.764H259.062V261.676H267.083V244.764Z" fill="#F2F2F2"/>
<path d="M287.736 268.314C287.736 268.492 277.129 268.637 264.048 268.637C250.963 268.637 240.358 268.492 240.358 268.314C240.358 268.136 250.962 267.991 264.048 267.991C277.129 267.991 287.736 268.136 287.736 268.314Z" fill="#17213A"/>
<path d="M267.083 278.854H259.062V295.766H267.083V278.854Z" fill="#F2F2F2"/>
<path d="M203.071 213.207H130.41V309.044H203.071V213.207Z" fill="#5A6580"/>
<path d="M203.07 213.207H169.001V309.044H203.07V213.207Z" fill="#17213A"/>
<path d="M152.178 226.182H145.645V242.055H152.178V226.182Z" fill="#A8B1C7"/>
<path d="M152.178 288.305H145.645V304.178H152.178V288.305Z" fill="#A8B1C7"/>
<path d="M169.001 248.285C169.001 248.463 160.361 248.608 149.706 248.608C139.047 248.608 130.409 248.463 130.409 248.285C130.409 248.107 139.047 247.962 149.706 247.962C160.362 247.962 169.001 248.106 169.001 248.285Z" fill="#A8B1C7"/>
<path d="M152.178 257.479H145.645V273.352H152.178V257.479Z" fill="#A8B1C7"/>
<path d="M169.001 279.581C169.001 279.759 160.361 279.904 149.706 279.904C139.047 279.904 130.409 279.759 130.409 279.581C130.409 279.403 139.047 279.258 149.706 279.258C160.362 279.259 169.001 279.403 169.001 279.581Z" fill="#A8B1C7"/>
<path d="M182.769 226.182H176.236V242.055H182.769V226.182Z" fill="#A8B1C7"/>
<path d="M196.943 226.182H190.41V242.055H196.943V226.182Z" fill="#A8B1C7"/>
<path d="M182.769 256.301H176.236V272.174H182.769V256.301Z" fill="#A8B1C7"/>
<path d="M196.943 256.301H190.41V272.174H196.943V256.301Z" fill="#A8B1C7"/>
<path d="M182.769 286.42H176.236V302.293H182.769V286.42Z" fill="#A8B1C7"/>
<path d="M196.943 286.42H190.41V302.293H196.943V286.42Z" fill="#A8B1C7"/>
<path d="M208.533 209.871H124.948V213.327H208.533V209.871Z" fill="#17213A"/>
<path d="M203.578 213.652C203.578 213.83 187.338 213.975 167.309 213.975C147.273 213.975 131.036 213.83 131.036 213.652C131.036 213.474 147.273 213.329 167.309 213.329C187.338 213.329 203.578 213.474 203.578 213.652Z" fill="#5A6580"/>
<path d="M383.026 163.924H327.617V308.954H383.026V163.924Z" fill="#B2AED1"/>
<path d="M383.026 163.924H355.322V308.954H383.026V163.924Z" fill="#DBD9EB"/>
<path d="M353.51 146.684H333.944V163.924H353.51V146.684Z" fill="#B2AED1"/>
<path d="M353.51 146.684H348.847V163.924H353.51V146.684Z" fill="#DBD9EB"/>
<path d="M384.648 162.917H323V163.923H384.648V162.917Z" fill="#B2AED1"/>
<path d="M343.245 171.441H338.555V181.33H343.245V171.441Z" fill="#DBD9EB"/>
<path d="M355.322 185.212C355.322 185.316 349.12 185.401 341.47 185.401C333.818 185.401 327.617 185.316 327.617 185.212C327.617 185.108 333.818 185.023 341.47 185.023C349.119 185.023 355.322 185.108 355.322 185.212Z" fill="#DBD9EB"/>
<path d="M371.19 171.441H366.5V181.33H371.19V171.441Z" fill="#B2AED1"/>
<path d="M383.267 185.212C383.267 185.316 377.065 185.401 369.415 185.401C361.763 185.401 355.562 185.316 355.562 185.212C355.562 185.108 361.763 185.023 369.415 185.023C377.065 185.023 383.267 185.108 383.267 185.212Z" fill="#B2AED1"/>
<path d="M371.19 191.077H366.5V200.966H371.19V191.077Z" fill="#B2AED1"/>
<path d="M383.267 204.848C383.267 204.952 377.065 205.037 369.415 205.037C361.763 205.037 355.562 204.952 355.562 204.848C355.562 204.744 361.763 204.659 369.415 204.659C377.065 204.659 383.267 204.744 383.267 204.848Z" fill="#B2AED1"/>
<path d="M371.19 211.304H366.5V221.193H371.19V211.304Z" fill="#B2AED1"/>
<path d="M383.267 225.075C383.267 225.179 377.065 225.264 369.415 225.264C361.763 225.264 355.562 225.179 355.562 225.075C355.562 224.971 361.763 224.886 369.415 224.886C377.065 224.886 383.267 224.97 383.267 225.075Z" fill="#B2AED1"/>
<path d="M371.19 231.531H366.5V241.42H371.19V231.531Z" fill="#B2AED1"/>
<path d="M383.267 245.302C383.267 245.406 377.065 245.491 369.415 245.491C361.763 245.491 355.562 245.406 355.562 245.302C355.562 245.198 361.763 245.113 369.415 245.113C377.065 245.113 383.267 245.197 383.267 245.302Z" fill="#B2AED1"/>
<path d="M371.19 251.179H366.5V261.068H371.19V251.179Z" fill="#B2AED1"/>
<path d="M383.267 264.95C383.267 265.054 377.065 265.139 369.415 265.139C361.763 265.139 355.562 265.054 355.562 264.95C355.562 264.846 361.763 264.761 369.415 264.761C377.065 264.761 383.267 264.846 383.267 264.95Z" fill="#B2AED1"/>
<path d="M371.19 270.907H366.5V280.796H371.19V270.907Z" fill="#B2AED1"/>
<path d="M371.19 290.893H366.5V300.782H371.19V290.893Z" fill="#B2AED1"/>
<path d="M383.267 284.678C383.267 284.782 377.065 284.867 369.415 284.867C361.763 284.867 355.562 284.782 355.562 284.678C355.562 284.574 361.763 284.489 369.415 284.489C377.065 284.489 383.267 284.574 383.267 284.678Z" fill="#B2AED1"/>
<path d="M343.245 191.376H338.555V201.265H343.245V191.376Z" fill="#DBD9EB"/>
<path d="M355.322 205.147C355.322 205.251 349.12 205.336 341.47 205.336C333.818 205.336 327.617 205.252 327.617 205.147C327.617 205.043 333.818 204.958 341.47 204.958C349.119 204.959 355.322 205.043 355.322 205.147Z" fill="#DBD9EB"/>
<path d="M343.245 211.311H338.555V221.2H343.245V211.311Z" fill="#DBD9EB"/>
<path d="M355.322 225.082C355.322 225.186 349.12 225.271 341.47 225.271C333.818 225.271 327.617 225.186 327.617 225.082C327.617 224.978 333.818 224.893 341.47 224.893C349.119 224.893 355.322 224.977 355.322 225.082Z" fill="#DBD9EB"/>
<path d="M343.245 231.245H338.555V241.134H343.245V231.245Z" fill="#DBD9EB"/>
<path d="M355.322 245.016C355.322 245.12 349.12 245.205 341.47 245.205C333.818 245.205 327.617 245.12 327.617 245.016C327.617 244.912 333.818 244.827 341.47 244.827C349.119 244.827 355.322 244.912 355.322 245.016Z" fill="#DBD9EB"/>
<path d="M343.245 251.179H338.555V261.068H343.245V251.179Z" fill="#DBD9EB"/>
<path d="M355.322 264.95C355.322 265.054 349.12 265.139 341.47 265.139C333.818 265.139 327.617 265.054 327.617 264.95C327.617 264.846 333.818 264.761 341.47 264.761C349.119 264.761 355.322 264.846 355.322 264.95Z" fill="#DBD9EB"/>
<path d="M343.245 271.114H338.555V281.003H343.245V271.114Z" fill="#DBD9EB"/>
<path d="M355.322 284.884C355.322 284.988 349.12 285.073 341.47 285.073C333.818 285.073 327.617 284.988 327.617 284.884C327.617 284.78 333.818 284.695 341.47 284.695C349.119 284.695 355.322 284.78 355.322 284.884Z" fill="#DBD9EB"/>
<path d="M343.245 291.048H338.555V300.937H343.245V291.048Z" fill="#DBD9EB"/>
<path d="M270.807 112.094H196.674V309.014H270.807V112.094Z" fill="#B2AED1"/>
<path d="M270.808 112.094H242.362V309.014H270.808V112.094Z" fill="#DBD9EB"/>
<path d="M259.401 127.635H253.767V139.515H259.401V127.635Z" fill="#B2AED1"/>
<path d="M259.401 148.478H253.767V160.359H259.401V148.478Z" fill="#B2AED1"/>
<path d="M259.401 171.815H253.767V183.696H259.401V171.815Z" fill="#B2AED1"/>
<path d="M259.401 194.12H253.767V206.001H259.401V194.12Z" fill="#B2AED1"/>
<path d="M259.401 216.425H253.767V228.306H259.401V216.425Z" fill="#B2AED1"/>
<path d="M259.401 238.729H253.767V250.609H259.401V238.729Z" fill="#B2AED1"/>
<path d="M259.401 261.034H253.767V272.915H259.401V261.034Z" fill="#B2AED1"/>
<path d="M259.401 285.555H253.767V297.436H259.401V285.555Z" fill="#B2AED1"/>
<path d="M274.504 110.858H190.219V113.155H274.504V110.858Z" fill="#DBD9EB"/>
<path d="M256.584 97H226.579V112.006H256.584V97Z" fill="#DBD9EB"/>
<path d="M242.361 97H226.579V110.857H242.361V97Z" fill="#B2AED1"/>
<path d="M212.86 127.147H207.226V139.028H212.86V127.147Z" fill="#DBD9EB"/>
<path d="M227.853 127.147H222.219V139.028H227.853V127.147Z" fill="#DBD9EB"/>
<path d="M212.86 149.777H207.226V161.658H212.86V149.777Z" fill="#DBD9EB"/>
<path d="M227.853 149.777H222.219V161.658H227.853V149.777Z" fill="#DBD9EB"/>
<path d="M212.86 172.406H207.226V184.287H212.86V172.406Z" fill="#DBD9EB"/>
<path d="M227.853 172.406H222.219V184.287H227.853V172.406Z" fill="#DBD9EB"/>
<path d="M212.86 195.036H207.226V206.917H212.86V195.036Z" fill="#DBD9EB"/>
<path d="M227.853 195.036H222.219V206.917H227.853V195.036Z" fill="#DBD9EB"/>
<path d="M212.86 217.666H207.226V229.547H212.86V217.666Z" fill="#DBD9EB"/>
<path d="M227.853 217.666H222.219V229.547H227.853V217.666Z" fill="#DBD9EB"/>
<path d="M212.86 240.295H207.226V252.176H212.86V240.295Z" fill="#DBD9EB"/>
<path d="M227.853 240.295H222.219V252.176H227.853V240.295Z" fill="#DBD9EB"/>
<path d="M212.86 262.925H207.226V274.806H212.86V262.925Z" fill="#DBD9EB"/>
<path d="M227.853 262.925H222.219V274.806H227.853V262.925Z" fill="#DBD9EB"/>
<path d="M212.86 285.555H207.226V297.436H212.86V285.555Z" fill="#DBD9EB"/>
<path d="M227.853 285.555H222.219V297.436H227.853V285.555Z" fill="#DBD9EB"/>
<path d="M242.362 143.69C242.362 143.886 232.134 144.044 219.52 144.044C206.901 144.044 196.675 143.886 196.675 143.69C196.675 143.495 206.901 143.336 219.52 143.336C232.133 143.336 242.362 143.495 242.362 143.69Z" fill="#DBD9EB"/>
<path d="M242.362 166.4C242.362 166.596 232.134 166.754 219.52 166.754C206.901 166.754 196.675 166.595 196.675 166.4C196.675 166.204 206.901 166.046 219.52 166.046C232.133 166.046 242.362 166.205 242.362 166.4Z" fill="#DBD9EB"/>
<path d="M242.362 189.384C242.362 189.58 232.134 189.738 219.52 189.738C206.901 189.738 196.675 189.579 196.675 189.384C196.675 189.189 206.901 189.03 219.52 189.03C232.133 189.03 242.362 189.188 242.362 189.384Z" fill="#DBD9EB"/>
<path d="M242.362 212.203C242.362 212.399 232.134 212.557 219.52 212.557C206.901 212.557 196.675 212.399 196.675 212.203C196.675 212.008 206.901 211.849 219.52 211.849C232.133 211.849 242.362 212.007 242.362 212.203Z" fill="#DBD9EB"/>
<path d="M242.362 234.694C242.362 234.89 232.134 235.048 219.52 235.048C206.901 235.048 196.675 234.889 196.675 234.694C196.675 234.498 206.901 234.34 219.52 234.34C232.133 234.339 242.362 234.498 242.362 234.694Z" fill="#DBD9EB"/>
<path d="M242.362 256.573C242.362 256.769 232.134 256.927 219.52 256.927C206.901 256.927 196.675 256.769 196.675 256.573C196.675 256.378 206.901 256.219 219.52 256.219C232.133 256.219 242.362 256.378 242.362 256.573Z" fill="#DBD9EB"/>
<path d="M242.362 280.824C242.362 281.02 232.134 281.178 219.52 281.178C206.901 281.178 196.675 281.02 196.675 280.824C196.675 280.629 206.901 280.47 219.52 280.47C232.133 280.47 242.362 280.629 242.362 280.824Z" fill="#DBD9EB"/>
<path d="M270.48 143.69C270.48 143.886 264.39 144.044 256.88 144.044C249.367 144.044 243.279 143.886 243.279 143.69C243.279 143.495 249.367 143.336 256.88 143.336C264.39 143.336 270.48 143.495 270.48 143.69Z" fill="#B2AED1"/>
<path d="M270.48 166.4C270.48 166.596 264.39 166.754 256.88 166.754C249.367 166.754 243.279 166.595 243.279 166.4C243.279 166.204 249.367 166.046 256.88 166.046C264.39 166.046 270.48 166.205 270.48 166.4Z" fill="#B2AED1"/>
<path d="M270.48 189.111C270.48 189.307 264.39 189.465 256.88 189.465C249.367 189.465 243.279 189.307 243.279 189.111C243.279 188.916 249.367 188.757 256.88 188.757C264.39 188.756 270.48 188.915 270.48 189.111Z" fill="#B2AED1"/>
<path d="M270.185 212.203C270.185 212.399 264.095 212.557 256.585 212.557C249.072 212.557 242.984 212.399 242.984 212.203C242.984 212.008 249.072 211.849 256.585 211.849C264.095 211.849 270.185 212.007 270.185 212.203Z" fill="#B2AED1"/>
<path d="M270.185 234.694C270.185 234.89 264.095 235.048 256.585 235.048C249.072 235.048 242.984 234.889 242.984 234.694C242.984 234.498 249.072 234.34 256.585 234.34C264.095 234.339 270.185 234.498 270.185 234.694Z" fill="#B2AED1"/>
<path d="M270.185 257.184C270.185 257.379 264.095 257.538 256.585 257.538C249.072 257.538 242.984 257.379 242.984 257.184C242.984 256.988 249.072 256.83 256.585 256.83C264.095 256.83 270.185 256.989 270.185 257.184Z" fill="#B2AED1"/>
<path d="M270.185 280.824C270.185 281.02 264.095 281.178 256.585 281.178C249.072 281.178 242.984 281.02 242.984 280.824C242.984 280.629 249.072 280.47 256.585 280.47C264.095 280.47 270.185 280.629 270.185 280.824Z" fill="#B2AED1"/>
<path d="M40.4063 280.634C41.5379 280.938 44.126 280.488 44.128 280.488C44.1548 280.483 43.3143 278.869 43.2498 278.773C42.5006 277.664 40.4029 275.964 38.967 276.383C37.9322 276.685 37.5037 277.833 37.8917 278.793C38.2872 279.775 39.4429 280.374 40.4063 280.634Z" fill="#17213A"/>
<path d="M58.015 308.677H58.9517C58.9482 308.667 58.9448 308.658 58.9414 308.647C58.699 307.968 58.427 307.247 58.14 306.509C58.3028 306.414 59.2236 305.868 60.0201 305.251C60.9004 305.958 62.9851 306.627 63.255 306.712C63.0909 307.393 62.9247 308.054 62.7578 308.676H63.6684C63.8201 308.045 63.9712 307.382 64.1195 306.696C64.4065 306.713 66.7529 306.832 67.7781 306.433C68.7078 306.069 69.7914 305.348 70.0791 304.33C70.3606 303.333 69.8106 302.239 68.749 302.051C67.2761 301.791 65.3747 303.709 64.7505 304.892C64.7135 304.962 64.3983 305.764 64.2081 306.273C64.2747 305.957 64.3427 305.65 64.4072 305.324C64.5397 304.678 64.6524 304.031 64.776 303.335C64.824 302.996 64.8728 302.655 64.9215 302.309C64.9771 301.968 64.9929 301.601 65.0307 301.243C65.1014 300.412 65.1317 299.566 65.144 298.714C65.7078 298.828 67.7163 299.206 68.6948 298.987C69.6685 298.77 70.8488 298.221 71.2869 297.258C71.7161 296.316 71.3377 295.15 70.3167 294.803C68.9001 294.322 66.7309 295.93 65.9344 297.005C65.8842 297.072 65.4001 297.908 65.1426 298.371C65.1461 297.859 65.1516 297.348 65.1385 296.829C65.1001 295.332 65.0142 293.817 64.936 292.307C64.9112 291.844 64.8927 291.383 64.8728 290.92C65.0733 290.964 67.4505 291.464 68.5464 291.219C69.5201 291.001 70.7005 290.453 71.1386 289.49C71.5678 288.547 71.1894 287.382 70.1684 287.036C68.7518 286.554 66.5826 288.162 65.786 289.237C65.7263 289.318 65.03 290.521 64.868 290.836C64.8233 289.818 64.7883 288.804 64.7938 287.803C64.8 286.421 64.8824 285.067 65.0589 283.76C65.1516 283.78 67.6311 284.313 68.7538 284.063C69.7275 283.846 70.9079 283.297 71.346 282.334C71.7752 281.391 71.3968 280.227 70.3757 279.879C68.9584 279.398 66.79 281.006 65.9934 282.08C65.9309 282.165 65.1832 283.46 65.0644 283.704C65.0753 283.626 65.0774 283.544 65.0891 283.467C65.2951 282.075 65.6693 280.751 66.0806 279.53C66.3182 278.819 66.5846 278.154 66.8586 277.512C67.3104 277.659 69.3814 278.307 70.4162 278.193C71.4085 278.084 72.6417 277.669 73.1821 276.76C73.7122 275.87 73.4637 274.67 72.4872 274.214C71.1317 273.579 68.7991 274.939 67.89 275.919C67.8406 275.972 67.3983 276.571 67.0818 277.01C67.2095 276.723 67.3365 276.423 67.4643 276.15C67.9429 275.123 68.4448 274.212 68.8953 273.409C69.1555 272.955 69.3993 272.549 69.6314 272.172C70.1491 272.084 72.2332 271.705 73.0839 271.137C73.9134 270.582 74.8178 269.645 74.8803 268.588C74.9414 267.554 74.1689 266.604 73.0922 266.649C71.5973 266.712 70.1526 268.995 69.7969 270.285C69.766 270.397 69.4851 272.196 69.5119 272.192C69.5119 272.192 69.5373 272.187 69.5435 272.187C69.3121 272.545 69.069 272.933 68.8122 273.361C68.3432 274.156 67.8206 275.058 67.3173 276.079C66.8119 277.098 66.2921 278.219 65.8506 279.449C65.4063 280.682 65.0019 282.001 64.7608 283.415C64.7581 283.431 64.7574 283.448 64.7547 283.464C64.697 283.028 64.4958 281.816 64.4697 281.725C64.103 280.438 62.6391 278.167 61.1435 278.117C60.0668 278.081 59.3025 279.037 59.3719 280.071C59.4433 281.127 60.3545 282.057 61.1895 282.605C62.1309 283.223 64.5425 283.595 64.7348 283.624C64.5171 284.972 64.4038 286.373 64.366 287.797C64.344 288.612 64.3468 289.433 64.3598 290.256C64.298 289.881 64.2404 289.546 64.2266 289.5C63.8593 288.213 62.396 285.943 60.9004 285.892C59.823 285.855 59.0588 286.812 59.1288 287.846C59.1995 288.902 60.1114 289.832 60.9457 290.38C61.7931 290.935 63.8428 291.294 64.3859 291.382C64.3942 291.698 64.399 292.013 64.4093 292.329C64.4553 293.843 64.5075 295.354 64.5137 296.838C64.5164 297.361 64.4992 297.875 64.4841 298.391C64.4292 298.058 64.3798 297.778 64.3674 297.736C64 296.449 62.5367 294.178 61.0419 294.128C59.9645 294.092 59.2002 295.048 59.2703 296.082C59.3417 297.138 60.2529 298.068 61.0879 298.616C61.8961 299.146 63.7851 299.494 64.4306 299.601C64.3997 300.129 64.3688 300.657 64.3152 301.167C64.2706 301.514 64.2513 301.851 64.1875 302.197C64.1312 302.541 64.0756 302.882 64.0199 303.219C63.8895 303.864 63.759 304.532 63.6162 305.158C63.52 305.595 63.4205 306.009 63.3209 306.426C63.3243 305.906 63.3106 304.886 63.2996 304.801C63.1877 303.919 62.6617 302.536 61.8906 301.625C61.8748 301.495 61.848 301.366 61.8082 301.241C61.4944 300.254 60.4328 299.645 59.444 300.075C58.0713 300.672 57.5426 303.324 57.6731 304.655C57.6806 304.733 57.8592 305.577 57.9807 306.107C57.8619 305.807 57.75 305.513 57.6243 305.205C57.3792 304.594 57.1169 303.992 56.8367 303.342C56.6905 303.033 56.5428 302.722 56.3938 302.406C56.2524 302.091 56.0635 301.776 55.898 301.456C55.4991 300.724 55.0589 300.002 54.5996 299.284C55.1331 299.068 57.0166 298.273 57.7115 297.55C58.4044 296.83 59.0862 295.72 58.9221 294.675C58.7608 293.652 57.8042 292.889 56.7619 293.165C55.3151 293.546 54.3908 296.086 54.3187 297.423C54.3146 297.506 54.3702 298.47 54.4107 299C54.1313 298.571 53.8545 298.141 53.5579 297.716C52.7016 296.488 51.7966 295.273 50.8991 294.055C50.6238 293.683 50.3546 293.308 50.0827 292.935C50.2736 292.86 52.532 291.963 53.3114 291.153C54.0035 290.433 54.6861 289.323 54.522 288.278C54.3606 287.255 53.4041 286.492 52.3617 286.768C50.9149 287.149 49.9907 289.689 49.9186 291.026C49.9131 291.126 49.9955 292.514 50.0339 292.867C49.4365 292.043 48.8487 291.217 48.3021 290.378C47.5468 289.222 46.8698 288.047 46.2971 286.86C46.3863 286.825 48.7478 285.899 49.5457 285.07C50.2385 284.351 50.9211 283.241 50.7563 282.196C50.5956 281.172 49.6384 280.41 48.596 280.685C47.1492 281.067 46.2257 283.606 46.1529 284.943C46.1474 285.048 46.2366 286.541 46.2717 286.811C46.238 286.741 46.1948 286.671 46.1618 286.6C45.5671 285.324 45.151 284.014 44.8207 282.767C44.6278 282.044 44.4836 281.341 44.3586 280.655C44.8159 280.527 46.9007 279.923 47.7013 279.257C48.469 278.617 49.269 277.589 49.2195 276.532C49.1715 275.497 48.3035 274.634 47.2378 274.792C45.758 275.012 44.5612 277.435 44.3428 278.756C44.3311 278.828 44.2906 279.571 44.2693 280.113C44.2178 279.802 44.1588 279.482 44.1148 279.184C43.9487 278.062 43.8656 277.025 43.799 276.106C43.7653 275.583 43.7454 275.11 43.7317 274.667C44.1155 274.307 45.6447 272.84 46.0409 271.895C46.4282 270.973 46.6651 269.692 46.1357 268.776C45.6173 267.88 44.4499 267.515 43.5765 268.147C42.3645 269.026 42.4167 271.729 42.8294 273.002C42.8651 273.112 43.6218 274.767 43.6417 274.75C43.6417 274.75 43.6603 274.732 43.6651 274.728C43.6699 275.155 43.6802 275.612 43.7015 276.112C43.7475 277.034 43.8086 278.075 43.9514 279.205C44.0908 280.334 44.2742 281.557 44.5832 282.827C44.8915 284.1 45.2801 285.425 45.8576 286.737C45.8638 286.752 45.8727 286.766 45.8796 286.781C45.5919 286.449 44.7562 285.55 44.6841 285.489C43.6699 284.618 41.1986 283.533 39.9234 284.318C39.0054 284.883 38.8941 286.103 39.5217 286.926C40.1624 287.768 41.4348 288.04 42.4325 288.035C43.558 288.03 45.7745 287.007 45.9503 286.925C46.5113 288.17 47.1877 289.401 47.941 290.61C48.3708 291.301 48.8254 291.985 49.2889 292.664C49.0307 292.385 48.7979 292.138 48.7622 292.107C47.7473 291.236 45.276 290.152 44.0015 290.936C43.0828 291.501 42.9722 292.721 43.5998 293.545C44.2405 294.386 45.5129 294.658 46.5106 294.653C47.5235 294.649 49.4303 293.815 49.9323 293.588C50.1129 293.846 50.2907 294.106 50.4727 294.364C51.3448 295.602 52.2203 296.834 53.0422 298.068C53.332 298.503 53.6011 298.942 53.8731 299.38C53.6437 299.133 53.4487 298.927 53.4151 298.898C52.4002 298.028 49.9295 296.943 48.6544 297.727C47.7356 298.293 47.6251 299.513 48.2527 300.336C48.8934 301.178 50.1658 301.449 51.1635 301.445C52.1296 301.44 53.8971 300.686 54.4945 300.419C54.7589 300.876 55.0246 301.334 55.2601 301.789C55.4139 302.103 55.5842 302.395 55.7209 302.719C55.863 303.037 56.0038 303.352 56.1439 303.664C56.3904 304.274 56.6493 304.903 56.8745 305.504C57.0345 305.921 57.1794 306.323 57.327 306.726C57.0434 306.29 56.4707 305.447 56.4144 305.382C55.5437 304.367 53.2647 302.92 51.8859 303.502C50.8929 303.921 50.599 305.11 51.0948 306.02C51.6009 306.949 52.817 307.411 53.8044 307.557C54.8914 307.719 57.1478 307.082 57.4293 307C57.6367 307.576 57.8324 308.135 58.015 308.677Z" fill="#17213A"/>
<path d="M66.758 277.248C66.7834 277.259 66.9709 275.447 66.9695 275.332C66.9551 273.994 66.1414 271.416 64.7124 270.972C63.6831 270.652 62.6943 271.373 62.489 272.388C62.2795 273.425 62.9133 274.563 63.5739 275.312C64.3505 276.192 66.7566 277.246 66.758 277.248Z" fill="#17213A"/>
<path d="M16.3394 308.677H496.199" stroke="#17213A" stroke-miterlimit="10" stroke-linecap="round" stroke-linejoin="round"/>
<path d="M458.088 308.14V224.991H463.972V308.14H458.088Z" fill="#17213A" stroke="#17213A"/>
<path d="M464.472 224.492C464.472 224.671 462.931 224.816 461.03 224.816C459.129 224.816 457.588 224.671 457.588 224.492C457.588 224.313 459.129 224.167 461.03 224.167C462.931 224.167 464.472 224.312 464.472 224.492Z" fill="#DBD9EB"/>
<path opacity="0.2" d="M464.472 277.351L457.588 276.852V271.662H464.472V277.351Z" fill="#383192"/>
<path d="M500.698 230.905L425.456 224.296L421.369 271.04L496.611 277.649L500.698 230.905Z" fill="#383192"/>
<path d="M497.329 230.609L422.087 224L418 270.744L493.242 277.353L497.329 230.609Z" fill="#CEC8FF"/>
<path opacity="0.4" d="M497.686 237.881L483.572 237.233L497.589 238.997L497.686 237.881Z" fill="#383192"/>
<path opacity="0.4" d="M497.087 239.472L488.379 239.594L496.941 241.146L497.087 239.472Z" fill="#383192"/>
<path opacity="0.4" d="M419.028 258.877L426.64 258.954L419.126 257.761L419.028 258.877Z" fill="#383192"/>
<path opacity="0.4" d="M419.799 250.066L426.351 249.754L419.945 248.392L419.799 250.066Z" fill="#383192"/>
<path opacity="0.4" d="M494.285 272.386L487.733 272.698L494.139 274.06L494.285 272.386Z" fill="#383192"/>
<path d="M492.023 255.713L491.927 256.895L487.756 256.557L488.327 249.528L489.78 249.646L489.305 255.493L492.023 255.713Z" fill="#383192"/>
<path d="M484.882 253.637L484.296 251.424C484.26 251.307 484.222 251.171 484.183 251.015C484.146 250.859 484.113 250.691 484.082 250.509C484.022 250.687 483.96 250.851 483.896 251.001C483.835 251.149 483.778 251.278 483.723 251.387L482.794 253.467L484.882 253.637ZM487.107 256.504L485.978 256.412C485.852 256.402 485.751 256.365 485.675 256.3C485.602 256.232 485.55 256.15 485.519 256.053L485.153 254.673L482.353 254.446L481.77 255.749C481.731 255.827 481.668 255.897 481.582 255.958C481.496 256.016 481.392 256.04 481.269 256.03L480.131 255.938L483.448 249.132L484.935 249.252L487.107 256.504Z" fill="#383192"/>
<path d="M479.483 255.886L478.02 255.767L478.591 248.738L480.054 248.857L479.483 255.886Z" fill="#383192"/>
<path d="M476.561 253.907C476.642 253.914 476.707 253.948 476.757 254.011L477.284 254.673C476.97 255.012 476.594 255.257 476.156 255.41C475.721 255.564 475.213 255.617 474.632 255.569C474.105 255.527 473.639 255.399 473.234 255.188C472.829 254.973 472.492 254.694 472.224 254.35C471.956 254.006 471.761 253.609 471.638 253.157C471.516 252.704 471.476 252.218 471.518 251.699C471.546 251.35 471.61 251.022 471.71 250.714C471.813 250.404 471.948 250.123 472.115 249.87C472.282 249.617 472.475 249.392 472.696 249.195C472.92 248.999 473.167 248.837 473.438 248.709C473.708 248.578 473.999 248.487 474.309 248.434C474.622 248.378 474.951 248.364 475.297 248.392C475.555 248.413 475.797 248.455 476.023 248.519C476.252 248.583 476.463 248.664 476.657 248.761C476.85 248.858 477.027 248.971 477.185 249.101C477.347 249.228 477.49 249.365 477.615 249.511L477.071 250.14C477.039 250.18 476.999 250.214 476.951 250.243C476.903 250.271 476.84 250.282 476.763 250.276C476.685 250.27 476.609 250.236 476.532 250.175C476.459 250.113 476.367 250.044 476.257 249.967C476.149 249.89 476.01 249.817 475.84 249.748C475.674 249.679 475.458 249.634 475.193 249.612C474.899 249.588 474.625 249.62 474.371 249.707C474.117 249.793 473.893 249.931 473.699 250.12C473.508 250.306 473.352 250.542 473.232 250.828C473.111 251.114 473.035 251.445 473.005 251.819C472.974 252.197 472.999 252.539 473.078 252.844C473.161 253.147 473.284 253.407 473.448 253.625C473.616 253.844 473.817 254.016 474.05 254.142C474.287 254.266 474.545 254.338 474.822 254.361C474.987 254.374 475.136 254.378 475.27 254.373C475.407 254.368 475.533 254.35 475.65 254.321C475.769 254.292 475.881 254.25 475.986 254.197C476.095 254.144 476.204 254.075 476.315 253.99C476.353 253.963 476.392 253.942 476.433 253.926C476.473 253.91 476.516 253.903 476.561 253.907Z" fill="#383192"/>
<path d="M467.955 251.224C468.191 251.243 468.397 251.231 468.573 251.187C468.749 251.139 468.896 251.068 469.014 250.974C469.133 250.876 469.223 250.758 469.287 250.62C469.35 250.483 469.388 250.33 469.402 250.162C469.429 249.829 469.338 249.562 469.13 249.359C468.926 249.158 468.597 249.038 468.145 249.002L467.39 248.94L467.209 251.164L467.955 251.224ZM471.06 255.202L469.747 255.095C469.502 255.075 469.332 254.967 469.237 254.771L468.075 252.507C468.027 252.418 467.971 252.352 467.906 252.308C467.845 252.264 467.749 252.237 467.62 252.226L467.126 252.186L466.909 254.865L465.455 254.747L466.026 247.718L468.235 247.897C468.726 247.937 469.141 248.023 469.482 248.154C469.822 248.283 470.097 248.446 470.305 248.645C470.513 248.844 470.659 249.074 470.742 249.334C470.825 249.591 470.854 249.87 470.83 250.17C470.811 250.403 470.759 250.621 470.674 250.826C470.593 251.027 470.482 251.208 470.342 251.369C470.203 251.53 470.035 251.669 469.84 251.787C469.646 251.904 469.427 251.994 469.185 252.056C469.274 252.115 469.356 252.185 469.431 252.266C469.506 252.343 469.572 252.435 469.628 252.54L471.06 255.202Z" fill="#383192"/>
<path d="M461.833 248.524L461.687 250.331L464.031 250.521L463.942 251.621L461.598 251.43L461.448 253.276L464.461 253.521L464.369 254.659L459.892 254.296L460.463 247.267L464.939 247.63L464.847 248.768L461.833 248.524Z" fill="#383192"/>
<path d="M458.998 247.147L458.427 254.176L457.144 254.072L457.494 249.756C457.501 249.665 457.511 249.569 457.522 249.466C457.537 249.363 457.556 249.259 457.577 249.153L455.257 252.802C455.13 253.003 454.952 253.095 454.723 253.076L454.52 253.059C454.407 253.05 454.309 253.016 454.226 252.957C454.143 252.896 454.08 252.811 454.037 252.703L452.327 248.712C452.328 248.826 452.327 248.937 452.325 249.044C452.323 249.147 452.318 249.245 452.311 249.335L451.96 253.651L450.677 253.547L451.247 246.518L452.352 246.608C452.413 246.613 452.468 246.619 452.516 246.626C452.564 246.633 452.605 246.646 452.639 246.665C452.677 246.681 452.709 246.707 452.736 246.741C452.766 246.773 452.793 246.817 452.818 246.875L454.48 250.784C454.532 250.902 454.579 251.023 454.621 251.146C454.666 251.27 454.708 251.397 454.746 251.527C454.805 251.402 454.866 251.28 454.927 251.161C454.992 251.043 455.06 250.93 455.13 250.822L457.386 247.245C457.419 247.193 457.453 247.153 457.488 247.127C457.523 247.097 457.559 247.077 457.595 247.067C457.635 247.054 457.678 247.048 457.724 247.049C457.772 247.049 457.829 247.052 457.893 247.057L458.998 247.147Z" fill="#383192"/>
<path d="M449.782 246.4L449.212 253.429L447.928 253.324L448.278 249.008C448.286 248.918 448.295 248.821 448.307 248.718C448.322 248.615 448.34 248.511 448.361 248.405L446.041 252.055C445.915 252.256 445.737 252.347 445.507 252.328L445.304 252.312C445.191 252.303 445.093 252.269 445.01 252.21C444.927 252.148 444.864 252.063 444.821 251.956L443.111 247.965C443.112 248.079 443.111 248.189 443.109 248.296C443.107 248.4 443.102 248.497 443.095 248.588L442.745 252.904L441.461 252.8L442.031 245.771L443.136 245.86C443.197 245.865 443.252 245.871 443.3 245.878C443.348 245.886 443.389 245.899 443.424 245.918C443.461 245.934 443.493 245.959 443.52 245.994C443.55 246.025 443.577 246.07 443.602 246.127L445.264 250.036C445.316 250.154 445.363 250.275 445.405 250.399C445.451 250.523 445.492 250.65 445.531 250.78C445.589 250.654 445.65 250.532 445.711 250.414C445.776 250.296 445.844 250.182 445.915 250.074L448.17 246.498C448.203 246.445 448.238 246.406 448.272 246.379C448.307 246.35 448.343 246.33 448.379 246.32C448.419 246.307 448.462 246.301 448.508 246.301C448.556 246.302 448.613 246.305 448.678 246.31L449.782 246.4Z" fill="#383192"/>
<path d="M440.685 249.196C440.643 249.71 440.518 250.179 440.308 250.604C440.101 251.029 439.826 251.389 439.484 251.683C439.144 251.977 438.746 252.199 438.289 252.347C437.832 252.492 437.333 252.542 436.794 252.499C436.255 252.455 435.771 252.325 435.343 252.108C434.916 251.888 434.557 251.605 434.266 251.26C433.976 250.914 433.761 250.515 433.622 250.062C433.487 249.608 433.44 249.125 433.482 248.612C433.523 248.098 433.647 247.63 433.854 247.208C434.064 246.783 434.34 246.424 434.683 246.13C435.025 245.836 435.425 245.616 435.882 245.471C436.339 245.323 436.838 245.271 437.377 245.314C437.916 245.358 438.4 245.49 438.827 245.71C439.255 245.927 439.613 246.209 439.9 246.558C440.19 246.903 440.403 247.303 440.539 247.756C440.678 248.206 440.727 248.686 440.685 249.196ZM439.198 249.076C439.228 248.707 439.206 248.374 439.133 248.076C439.06 247.774 438.939 247.514 438.772 247.295C438.608 247.074 438.399 246.899 438.146 246.772C437.897 246.641 437.607 246.562 437.278 246.535C436.949 246.509 436.649 246.539 436.378 246.628C436.108 246.713 435.872 246.852 435.672 247.044C435.474 247.232 435.315 247.47 435.194 247.756C435.074 248.039 434.999 248.364 434.969 248.732C434.939 249.104 434.96 249.44 435.033 249.742C435.106 250.041 435.225 250.299 435.39 250.517C435.557 250.735 435.767 250.91 436.02 251.041C436.273 251.169 436.564 251.246 436.894 251.273C437.223 251.3 437.521 251.27 437.788 251.185C438.059 251.096 438.293 250.957 438.49 250.769C438.691 250.58 438.851 250.344 438.972 250.062C439.092 249.776 439.168 249.447 439.198 249.076Z" fill="#383192"/>
<path d="M432.3 250.315C432.38 250.321 432.446 250.356 432.496 250.419L433.023 251.081C432.709 251.419 432.333 251.665 431.895 251.818C431.46 251.971 430.952 252.024 430.37 251.977C429.844 251.934 429.378 251.807 428.973 251.595C428.567 251.381 428.231 251.101 427.963 250.758C427.695 250.414 427.5 250.016 427.377 249.564C427.255 249.112 427.214 248.626 427.257 248.106C427.285 247.757 427.349 247.429 427.449 247.122C427.552 246.812 427.687 246.53 427.854 246.277C428.02 246.024 428.214 245.799 428.435 245.603C428.659 245.406 428.906 245.244 429.177 245.117C429.447 244.986 429.738 244.894 430.047 244.841C430.361 244.786 430.69 244.772 431.036 244.8C431.294 244.821 431.536 244.863 431.762 244.927C431.991 244.991 432.202 245.071 432.396 245.168C432.589 245.265 432.765 245.379 432.924 245.509C433.086 245.636 433.229 245.773 433.354 245.919L432.81 246.548C432.778 246.588 432.738 246.622 432.69 246.65C432.642 246.679 432.579 246.69 432.502 246.684C432.424 246.678 432.347 246.644 432.271 246.582C432.198 246.521 432.106 246.452 431.995 246.375C431.888 246.298 431.749 246.225 431.579 246.155C431.412 246.087 431.197 246.042 430.932 246.02C430.638 245.996 430.364 246.028 430.11 246.114C429.856 246.201 429.632 246.339 429.438 246.528C429.247 246.714 429.091 246.95 428.97 247.236C428.85 247.522 428.774 247.852 428.744 248.227C428.713 248.605 428.737 248.946 428.817 249.252C428.899 249.555 429.023 249.815 429.187 250.033C429.355 250.251 429.555 250.424 429.789 250.55C430.026 250.673 430.283 250.746 430.561 250.769C430.726 250.782 430.875 250.786 431.009 250.781C431.146 250.775 431.272 250.758 431.388 250.729C431.508 250.699 431.62 250.658 431.725 250.605C431.833 250.552 431.943 250.483 432.054 250.397C432.092 250.371 432.131 250.35 432.171 250.334C432.212 250.317 432.254 250.311 432.3 250.315Z" fill="#383192"/>
</g>
</svg>
