<svg width="515" height="344" viewBox="0 0 515 344" fill="none" xmlns="http://www.w3.org/2000/svg">
<g opacity="0.8">
<path d="M454.528 91.8131C454.528 91.8131 453.095 86.7886 446.289 84.276C439.483 81.7635 433.394 83.9169 431.245 85.7119C429.095 87.5062 427.662 90.0188 425.871 90.0188C424.081 90.0188 419.424 87.5062 415.125 89.3012C410.827 91.0955 411.185 93.6081 409.393 94.6848C407.603 95.7615 404.737 93.9672 401.513 94.6848C398.289 95.4024 395.065 98.2741 394.706 99.3508C394.348 100.428 393.632 100.068 390.766 100.068C387.901 100.068 385.035 104.016 385.035 104.016H476.021C476.021 104.016 472.081 95.4024 466.708 93.9665C461.334 92.5307 458.468 95.4024 457.394 95.0432C456.319 94.6841 454.528 91.8131 454.528 91.8131Z" fill="#F3F4F6" stroke="#17213A" stroke-miterlimit="10" stroke-linecap="round" stroke-linejoin="round"/>
<path d="M282.838 33.0622C282.838 33.0622 281.954 29.9616 277.754 28.4116C273.554 26.8616 269.796 28.1901 268.47 29.2977C267.144 30.4053 266.259 31.9553 265.154 31.9553C264.048 31.9553 261.175 30.4053 258.522 31.5122C255.869 32.6199 256.09 34.1698 254.985 34.8344C253.879 35.499 252.111 34.3914 250.122 34.8344C248.133 35.2775 246.143 37.049 245.922 37.7135C245.701 38.3781 245.258 38.1566 243.49 38.1566C241.722 38.1566 239.953 40.5926 239.953 40.5926H296.101C296.101 40.5926 293.67 35.2775 290.354 34.3914C287.038 33.5053 285.27 35.2775 284.606 35.0559C283.944 34.8337 282.838 33.0622 282.838 33.0622Z" fill="#F3F4F6" stroke="#17213A" stroke-miterlimit="10" stroke-linecap="round" stroke-linejoin="round"/>
<path d="M66.8504 42.807C66.8504 42.807 65.966 39.7064 61.7663 38.1557C57.566 36.6058 53.8086 37.9342 52.4819 39.0418C51.1553 40.1494 50.2715 41.6994 49.166 41.6994C48.0605 41.6994 45.1868 40.1494 42.5342 41.2564C39.8816 42.364 40.1027 43.914 38.9972 44.5785C37.8916 45.2431 36.1235 44.1355 34.1342 44.5785C32.1449 45.0216 30.1549 46.7931 29.9338 47.4577C29.7127 48.1222 29.2705 47.9007 27.5024 47.9007C25.7342 47.9007 23.9653 50.3368 23.9653 50.3368H80.1134C80.1134 50.3368 77.6819 45.0216 74.366 44.1355C71.0501 43.2494 69.2819 45.0216 68.6186 44.8001C67.9559 44.5785 66.8504 42.807 66.8504 42.807Z" fill="#F3F4F6" stroke="#17213A" stroke-miterlimit="10" stroke-linecap="round" stroke-linejoin="round"/>
<path opacity="0.7" d="M320.327 62.9814C320.327 62.9814 266.239 43.6865 213.144 74.4061C160.051 105.125 133.261 166.106 110.255 214.954C87.25 263.803 100.492 313.49 141.022 336.146C181.552 358.801 209.112 325.404 265.969 323.777C322.826 322.151 338.117 330.306 385.298 298.082C432.478 265.859 441.006 189.757 403.789 133.448C366.571 77.1388 320.327 62.9814 320.327 62.9814Z" fill="#C3C1DE"/>
<path d="M120.928 203.546H269.476L351.297 67.7134L423.418 205.943V308.362H120.928V203.546Z" fill="#D9D3EF"/>
<path d="M257.632 308.681C257.498 308.681 257.39 287.089 257.39 260.46C257.39 233.822 257.499 212.235 257.632 212.235C257.767 212.235 257.875 233.822 257.875 260.46C257.875 287.089 257.767 308.681 257.632 308.681Z" fill="#263238"/>
<path d="M257.634 221.723C257.634 221.857 227.155 221.966 189.567 221.966C151.966 221.966 121.494 221.856 121.494 221.723C121.494 221.589 151.966 221.48 189.567 221.48C227.155 221.48 257.634 221.589 257.634 221.723Z" fill="#263238"/>
<path d="M257.634 233.46C257.634 233.595 227.155 233.703 189.567 233.703C151.966 233.703 121.494 233.595 121.494 233.46C121.494 233.326 151.966 233.218 189.567 233.218C227.155 233.218 257.634 233.326 257.634 233.46Z" fill="#263238"/>
<path d="M257.634 245.198C257.634 245.332 227.155 245.44 189.567 245.44C151.966 245.44 121.494 245.332 121.494 245.198C121.494 245.063 151.966 244.955 189.567 244.955C227.155 244.955 257.634 245.064 257.634 245.198Z" fill="#263238"/>
<path d="M257.634 256.936C257.634 257.07 227.155 257.179 189.567 257.179C151.966 257.179 121.494 257.069 121.494 256.936C121.494 256.803 151.966 256.693 189.567 256.693C227.155 256.692 257.634 256.802 257.634 256.936Z" fill="#263238"/>
<path d="M257.634 268.673C257.634 268.808 227.155 268.916 189.567 268.916C151.966 268.916 121.494 268.808 121.494 268.673C121.494 268.539 151.966 268.431 189.567 268.431C227.155 268.431 257.634 268.539 257.634 268.673Z" fill="#263238"/>
<path d="M257.634 280.411C257.634 280.545 227.155 280.653 189.567 280.653C151.966 280.653 121.494 280.544 121.494 280.411C121.494 280.276 151.966 280.168 189.567 280.168C227.155 280.168 257.634 280.276 257.634 280.411Z" fill="#263238"/>
<path d="M257.634 292.149C257.634 292.283 227.155 292.391 189.567 292.391C151.966 292.391 121.494 292.282 121.494 292.149C121.494 292.015 151.966 291.906 189.567 291.906C227.155 291.905 257.634 292.014 257.634 292.149Z" fill="#263238"/>
<path d="M423.417 308.363C423.417 308.363 423.402 308.191 423.396 307.854C423.391 307.503 423.384 307.006 423.374 306.359C423.365 305.025 423.351 303.084 423.333 300.577C423.317 295.525 423.292 288.205 423.262 279.065C423.242 260.751 423.212 235.151 423.179 205.944L423.206 206.054C419.387 198.737 415.431 191.158 411.38 183.397C395.056 152.051 380.281 123.676 369.577 103.123C364.254 92.8517 359.945 84.5349 356.959 78.7717C355.484 75.9018 354.337 73.67 353.551 72.1399C353.171 71.3888 352.879 70.8131 352.675 70.4091C352.48 70.0182 352.391 69.812 352.391 69.812C352.391 69.812 352.51 70.0024 352.719 70.3868C352.933 70.7852 353.238 71.3533 353.637 72.0951C354.442 73.6159 355.617 75.8337 357.126 78.6849C360.145 84.4313 364.501 92.7239 369.881 102.966C380.616 123.502 395.436 151.852 411.81 183.173C415.858 190.936 419.811 198.516 423.627 205.834L423.654 205.887V205.945C423.621 235.153 423.592 260.753 423.571 279.067C423.541 288.207 423.517 295.526 423.5 300.579C423.483 303.086 423.47 305.027 423.46 306.36C423.451 307.008 423.444 307.504 423.439 307.856C423.431 308.191 423.417 308.363 423.417 308.363Z" fill="#263238"/>
<path d="M269.445 210.465C269.579 210.465 269.687 232.176 269.687 258.952C269.687 285.737 269.578 307.443 269.445 307.443C269.311 307.443 269.202 285.737 269.202 258.952C269.202 232.175 269.31 210.465 269.445 210.465Z" fill="#263238"/>
<path d="M282.299 192.119C282.434 192.119 282.542 217.937 282.542 249.778C282.542 281.63 282.433 307.442 282.299 307.442C282.165 307.442 282.057 281.63 282.057 249.778C282.056 217.937 282.165 192.119 282.299 192.119Z" fill="#263238"/>
<path d="M295.655 166.432C295.789 166.432 295.897 198.001 295.897 236.934C295.897 275.881 295.788 307.442 295.655 307.442C295.52 307.442 295.412 275.881 295.412 236.934C295.412 198 295.52 166.432 295.655 166.432Z" fill="#263238"/>
<path d="M309.011 145.464C309.145 145.464 309.254 181.727 309.254 226.449C309.254 271.187 309.145 307.443 309.011 307.443C308.877 307.443 308.769 271.188 308.769 226.449C308.769 181.727 308.878 145.464 309.011 145.464Z" fill="#263238"/>
<path d="M322.368 307.443C322.233 307.443 322.125 265.957 322.125 214.795C322.125 163.615 322.234 122.138 322.368 122.138C322.502 122.138 322.61 163.614 322.61 214.795C322.61 265.957 322.502 307.443 322.368 307.443Z" fill="#263238"/>
<path d="M335.724 95.6641C335.858 95.6641 335.967 143.076 335.967 201.548C335.967 260.041 335.857 307.442 335.724 307.442C335.59 307.442 335.481 260.041 335.481 201.548C335.481 143.076 335.59 95.6641 335.724 95.6641Z" fill="#263238"/>
<path d="M349.081 69.812C349.215 69.812 349.324 123.012 349.324 188.622C349.324 254.255 349.214 307.444 349.081 307.444C348.947 307.444 348.838 254.256 348.838 188.622C348.837 123.011 348.947 69.812 349.081 69.812Z" fill="#263238"/>
<path d="M362.437 89.0659C362.571 89.0659 362.68 137.956 362.68 198.249C362.68 258.565 362.57 307.443 362.437 307.443C362.303 307.443 362.194 258.565 362.194 198.249C362.194 137.955 362.303 89.0659 362.437 89.0659Z" fill="#263238"/>
<path d="M375.794 114.012C375.928 114.012 376.036 157.316 376.036 210.723C376.036 264.148 375.927 307.443 375.794 307.443C375.66 307.443 375.551 264.148 375.551 210.723C375.55 157.316 375.66 114.012 375.794 114.012Z" fill="#263238"/>
<path d="M389.149 139.486C389.284 139.486 389.392 177.088 389.392 223.46C389.392 269.848 389.284 307.442 389.149 307.442C389.015 307.442 388.907 269.849 388.907 223.46C388.907 177.088 389.015 139.486 389.149 139.486Z" fill="#263238"/>
<path d="M402.506 166.432C402.64 166.432 402.748 198.001 402.748 236.934C402.748 275.881 402.64 307.442 402.506 307.442C402.371 307.442 402.263 275.881 402.263 236.934C402.263 198 402.372 166.432 402.506 166.432Z" fill="#263238"/>
<path d="M415.862 191.464C415.997 191.464 416.105 217.429 416.105 249.45C416.105 281.483 415.996 307.442 415.862 307.442C415.728 307.442 415.62 281.483 415.62 249.45C415.619 217.429 415.728 191.464 415.862 191.464Z" fill="#263238"/>
<path opacity="0.4" d="M257.403 211.26H120.928V214.518L125.8 214.992L124.407 308.333H133.612V215.752L239.121 226.006L236.698 308.333H245.903V226.665L257.403 227.783V211.26Z" fill="black"/>
<g opacity="0.4">
<path d="M282.299 192.119C281.509 206.447 280.444 225.43 282.299 239.659C283.793 226.665 285.642 210.479 287.136 197.485C287.652 192.99 288.176 188.464 289.539 184.151C290.902 179.838 292.074 176.218 295.564 173.341C294.66 184.691 294.982 196.427 295.655 207.792C297.71 188.569 298.243 168.321 304.897 151.611L282.299 192.119Z" fill="black"/>
</g>
<path d="M309.203 289.78L294.099 281.175L267.579 290.834L246.186 308.409H324.489L309.203 289.78Z" fill="#F5F5F5"/>
<path d="M246.186 308.409L273.331 292.628L309.203 289.78L293.494 280.48L267.579 290.834L246.186 308.409Z" fill="#E0E0E0"/>
<path d="M285.462 308.454L298.769 299.451L311.15 298.569L300.795 300.868L295.625 308.409L285.462 308.454Z" fill="#E0E0E0"/>
<path d="M311.573 298.383C311.574 298.404 311.228 298.448 310.593 298.512C309.906 298.573 308.996 298.655 307.889 298.754C305.541 298.935 302.363 299.181 298.781 299.457L298.861 299.429C298.384 299.757 297.881 300.102 297.371 300.452C294.035 302.738 291.004 304.793 288.801 306.266C287.729 306.975 286.845 307.559 286.183 307.997C285.897 308.178 285.659 308.329 285.462 308.454C285.295 308.556 285.205 308.604 285.198 308.595C285.192 308.586 285.27 308.518 285.425 308.399C285.612 308.26 285.839 308.093 286.112 307.891C286.759 307.432 287.623 306.818 288.671 306.075C290.84 304.552 293.85 302.468 297.186 300.181C297.698 299.831 298.201 299.487 298.678 299.16L298.716 299.135L298.759 299.132C302.344 298.898 305.526 298.691 307.875 298.537C308.986 298.478 309.898 298.43 310.586 298.393C311.223 298.366 311.572 298.362 311.573 298.383Z" fill="#263238"/>
<path d="M309.152 289.722C309.152 289.722 309.249 289.827 309.431 290.041C309.616 290.259 309.885 290.577 310.238 290.995C310.949 291.841 311.992 293.086 313.338 294.692C316.032 297.919 319.939 302.598 324.798 308.417L324.894 308.532H324.744C308.786 308.529 286.018 308.525 260.78 308.52C255.802 308.516 250.921 308.512 246.185 308.509H245.904L246.121 308.33C253.766 302.067 260.96 296.174 267.467 290.844L267.477 290.836L267.49 290.831C277.684 286.729 286.486 283.186 293.353 280.422L293.381 280.411L293.407 280.427C298.391 283.361 302.331 285.68 305.028 287.267C306.369 288.061 307.401 288.671 308.102 289.086C308.447 289.292 308.709 289.449 308.889 289.557C309.066 289.665 309.152 289.722 309.152 289.722C309.152 289.722 309.058 289.673 308.878 289.571C308.695 289.467 308.429 289.314 308.08 289.113C307.375 288.705 306.338 288.103 304.988 287.32C302.286 285.745 298.339 283.444 293.345 280.534L293.399 280.538C286.537 283.316 277.743 286.875 267.556 290.998L267.579 290.984C261.077 296.319 253.888 302.218 246.248 308.487L246.185 308.309C250.921 308.312 255.802 308.315 260.78 308.317C286.018 308.347 308.785 308.374 324.744 308.393L324.69 308.508C319.854 302.674 315.966 297.983 313.285 294.749C311.95 293.131 310.915 291.878 310.211 291.025C309.864 290.601 309.599 290.278 309.417 290.056C309.24 289.837 309.152 289.722 309.152 289.722Z" fill="#263238"/>
<path d="M311.342 292.273C308.429 294.88 304.047 295.717 300.377 294.371C299.557 294.07 298.752 293.653 298.182 292.991C297.612 292.329 297.314 291.383 297.597 290.556C295.346 291.145 292.809 290.489 291.126 288.881C289.442 287.274 288.463 284.616 288.948 282.339L293.407 280.427L309.202 289.781L311.342 292.273Z" fill="#545F64"/>
<path d="M120.927 308.363H116.135L117.321 292.149L115.224 270.816L119.296 271.16L120.927 308.363Z" fill="#545F64"/>
<path d="M129.522 308.363H134.313L133.128 292.149L135.224 270.816L131.152 271.16L129.522 308.363Z" fill="#545F64"/>
<path d="M149.214 308.363H145.654L145.905 284.554L144.422 271.669H148.945L150.295 294.747L149.214 308.363Z" fill="#545F64"/>
<path d="M164.582 308.363H159.791L160.977 292.149L158.881 270.816L162.953 271.16L164.582 308.363Z" fill="#545F64"/>
<path d="M173.179 308.363H177.971L176.785 292.149L178.881 270.816L174.81 271.16L173.179 308.363Z" fill="#545F64"/>
<path d="M192.871 308.363H189.311L189.562 284.554L188.079 271.669H192.601L193.951 294.747L192.871 308.363Z" fill="#545F64"/>
<path d="M208.238 308.363H203.447L204.633 292.149L202.536 270.816L206.608 271.16L208.238 308.363Z" fill="#545F64"/>
<path d="M216.834 308.363H221.626L220.44 292.149L222.537 270.816L218.465 271.16L216.834 308.363Z" fill="#545F64"/>
<path d="M116.785 248.404L115.152 246.881L112.03 248.735V240.832V211.262H100.933L103.271 229.689L103.148 233.857L98.1073 229.562L96.8589 231.082L102.992 239.23L100.818 308.335H111.914L110.216 266.373L112.03 254.554L116.785 248.404Z" fill="#545F64"/>
<path d="M245.902 247.88L244.268 246.38L241.147 248.207V240.415V211.262H230.05L232.387 229.429L230.05 308.364H241.147L239.333 265.596L241.147 253.944L245.902 247.88Z" fill="#545F64"/>
<path d="M241.508 274.921L99.3183 271.958C98.6997 269.879 98.7342 266.639 99.7885 264.759L169.073 267.291L241.509 267.426C242.667 269.856 242.507 272.364 241.508 274.921Z" fill="#545F64"/>
<path d="M241.508 274.922C241.508 274.922 241.554 274.765 241.653 274.475C241.746 274.178 241.898 273.728 242.031 273.107C242.287 271.9 242.575 269.842 241.441 267.459L241.507 267.501C232.173 267.504 213.419 267.513 188.659 267.523C182.463 267.516 175.891 267.511 168.998 267.503C162.108 267.256 154.898 266.998 147.421 266.73C132.465 266.187 116.44 265.606 99.7786 265.002L99.9997 264.878L99.9811 264.915C99.4203 265.972 99.2179 267.217 99.1647 268.412C99.1209 269.613 99.2365 270.808 99.55 271.888L99.3224 271.715C138.921 272.576 174.438 273.348 200.07 273.906C212.889 274.204 223.233 274.446 230.39 274.612C233.958 274.703 236.728 274.773 238.622 274.822C239.556 274.85 240.271 274.871 240.767 274.886C241.253 274.903 241.508 274.922 241.508 274.922C241.508 274.922 241.271 274.93 240.795 274.926C240.305 274.921 239.598 274.912 238.676 274.902C236.791 274.871 234.036 274.827 230.486 274.77C223.339 274.638 213.009 274.449 200.206 274.213C174.537 273.7 138.97 272.991 99.3131 272.2L99.1348 272.196L99.0854 272.027C98.7523 270.875 98.6348 269.643 98.6795 268.393C98.7374 267.148 98.9361 265.853 99.5547 264.681L99.5752 264.64L99.6405 264.51L99.7954 264.516C116.454 265.129 132.477 265.719 147.431 266.269C154.907 266.547 162.117 266.816 169.005 267.072C175.897 267.093 182.467 267.113 188.664 267.132C213.421 267.236 232.173 267.313 241.506 267.352H241.554L241.574 267.394C242.705 269.832 242.385 271.915 242.103 273.123C241.958 273.746 241.794 274.191 241.687 274.489C241.57 274.788 241.508 274.922 241.508 274.922Z" fill="#263238"/>
<path d="M115.624 268.474C115.624 268.474 114.267 268.749 111.847 268.912C109.432 269.069 105.936 269.078 101.822 268.351L101.482 268.291L101.812 268.19C105.966 266.922 111.251 266.316 116.737 267.252C118.841 267.606 120.856 268.154 122.719 268.848L123.018 268.959L122.708 269.029C116.335 270.476 110.579 270.303 106.544 270.172C104.517 270.091 102.899 269.989 101.787 269.915C101.27 269.879 100.849 269.849 100.512 269.825C100.221 269.803 100.07 269.782 100.07 269.782C100.07 269.782 100.222 269.779 100.513 269.791C100.852 269.806 101.274 269.826 101.791 269.849C102.904 269.901 104.523 269.985 106.547 270.049C110.581 270.147 116.324 270.293 122.664 268.843L122.653 269.024C120.8 268.337 118.796 267.794 116.705 267.442C111.251 266.512 105.998 267.103 101.861 268.348L101.851 268.188C105.946 268.928 109.431 268.945 111.842 268.816C113.05 268.752 113.995 268.655 114.638 268.583C115.281 268.508 115.624 268.474 115.624 268.474Z" fill="#263238"/>
<path d="M150.347 266.905C150.347 266.912 150.253 266.923 150.074 266.937C149.838 266.953 149.58 266.969 149.289 266.989C148.607 267.025 147.621 267.099 146.406 267.213C143.976 267.439 140.629 267.896 136.999 268.727C133.369 269.565 130.157 270.615 127.872 271.472C126.729 271.899 125.81 272.264 125.181 272.529C124.911 272.639 124.671 272.736 124.452 272.825C124.284 272.89 124.195 272.922 124.192 272.916C124.19 272.91 124.274 272.867 124.436 272.79C124.651 272.691 124.886 272.582 125.151 272.46C125.771 272.174 126.684 271.789 127.823 271.344C130.099 270.451 133.314 269.378 136.955 268.538C140.597 267.705 143.956 267.267 146.394 267.077C147.614 266.98 148.602 266.927 149.286 266.914C149.578 266.909 149.836 266.903 150.073 266.899C150.253 266.896 150.347 266.899 150.347 266.905Z" fill="#263238"/>
<path d="M217.173 270.053C217.173 270.053 216.048 270.434 213.873 270.739C211.711 271.023 208.439 271.193 204.488 270.227L204.293 270.179L204.483 270.115C207.43 269.117 211.051 268.32 215.158 268.251C219.253 268.176 223.829 268.827 228.383 270.575L228.592 270.655L228.384 270.74C224.772 272.211 220.701 273.122 216.419 273.451C212.136 273.79 207.654 273.575 203.115 273.01C194.506 271.902 186.478 269.876 179.041 268.864C171.612 267.789 164.807 267.835 159.169 268.432C153.52 269.009 149.034 270.074 145.977 270.913C144.448 271.337 143.27 271.698 142.476 271.961C141.682 272.219 141.261 272.345 141.261 272.345C141.261 272.345 142.903 271.716 145.957 270.84C149.01 269.977 153.498 268.89 159.154 268.295C164.8 267.679 171.621 267.618 179.065 268.686C186.516 269.69 194.547 271.712 203.138 272.817C207.668 273.381 212.136 273.597 216.403 273.262C220.668 272.936 224.72 272.034 228.315 270.575L228.317 270.74C223.789 268.996 219.236 268.339 215.158 268.403C211.068 268.462 207.46 269.243 204.519 270.226L204.514 270.114C208.443 271.091 211.704 270.941 213.863 270.677C214.949 270.541 215.774 270.367 216.33 270.248C216.885 270.117 217.173 270.053 217.173 270.053Z" fill="#263238"/>
<path d="M237.368 231.738C237.368 231.738 237.448 231.858 237.58 232.105C237.696 232.357 237.86 232.744 237.949 233.279C238.035 233.811 238.055 234.492 237.861 235.253C237.669 236.007 237.261 236.855 236.505 237.533L236.43 237.6L236.411 237.5C235.85 234.692 235.377 230.921 235.545 226.546C235.571 226.008 235.56 225.424 235.786 224.879C235.891 224.609 236.037 224.341 236.276 224.138C236.513 223.924 236.892 223.877 237.182 224.024C237.778 224.359 237.88 225.039 238.059 225.583C238.242 226.154 238.39 226.742 238.531 227.339C239.083 229.73 239.324 232.302 239.286 234.939C239.226 239.358 238.476 243.516 237.686 247.244C236.882 250.976 236.063 254.311 235.501 257.139C234.93 259.965 234.59 262.275 234.425 263.878C234.345 264.681 234.287 265.304 234.261 265.727C234.229 266.151 234.202 266.373 234.202 266.373C234.202 266.373 234.205 265.479 234.35 263.872C234.491 262.263 234.81 259.946 235.366 257.113C235.911 254.278 236.718 250.936 237.511 247.207C238.291 243.482 239.033 239.334 239.092 234.936C239.13 232.313 238.891 229.756 238.348 227.381C238.208 226.787 238.062 226.203 237.882 225.637C237.712 225.086 237.579 224.441 237.103 224.188C236.866 224.074 236.589 224.104 236.39 224.278C236.189 224.446 236.05 224.691 235.952 224.945C235.738 225.454 235.746 226.007 235.718 226.554C235.536 230.913 235.989 234.673 236.524 237.48L236.43 237.447C237.17 236.795 237.579 235.969 237.776 235.231C237.973 234.487 237.964 233.815 237.889 233.289C237.716 232.228 237.335 231.748 237.368 231.738Z" fill="#263238"/>
<path d="M236.051 306.272C236.044 306.273 236.02 306.181 235.981 306.003C235.932 305.77 235.878 305.516 235.818 305.227C235.679 304.553 235.497 303.572 235.289 302.357C234.873 299.929 234.389 296.555 234.038 292.81C233.69 289.063 233.542 285.658 233.502 283.194C233.481 281.962 233.478 280.965 233.491 280.276C233.496 279.981 233.502 279.721 233.506 279.483C233.512 279.302 233.519 279.207 233.525 279.207C233.532 279.207 233.538 279.302 233.546 279.483C233.552 279.721 233.559 279.982 233.566 280.276C233.586 281.068 233.61 282.042 233.639 283.191C233.715 285.652 233.883 289.05 234.231 292.791C234.582 296.531 235.044 299.902 235.425 302.334C235.609 303.469 235.765 304.43 235.892 305.212C235.939 305.502 235.981 305.76 236.019 305.995C236.047 306.175 236.057 306.27 236.051 306.272Z" fill="#263238"/>
<path d="M107.065 251.527C107.065 251.527 107.096 251.425 107.164 251.233C107.225 251.038 107.318 250.748 107.39 250.359C107.53 249.592 107.616 248.38 107.087 246.992L107.18 246.995C106.544 248.442 105.918 250.336 105.704 252.602C105.477 254.858 105.671 257.485 106.564 260.143L106.403 260.129C108.334 256.661 109.186 252.123 108.962 247.424C108.804 243.099 107.955 239.045 107.182 235.377C106.402 231.708 105.742 228.385 105.444 225.557C105.121 222.732 105.158 220.42 105.292 218.839C105.358 218.046 105.437 217.434 105.511 217.023C105.577 216.61 105.62 216.395 105.62 216.395C105.62 216.395 105.603 216.614 105.551 217.029C105.488 217.442 105.423 218.054 105.368 218.844C105.257 220.424 105.242 222.726 105.581 225.542C105.896 228.361 106.568 231.673 107.358 235.341C108.14 239.006 108.997 243.071 109.156 247.418C109.381 252.139 108.517 256.719 106.557 260.215L106.459 260.389L106.397 260.201C105.502 257.512 105.318 254.861 105.56 252.588C105.787 250.305 106.433 248.402 107.088 246.953L107.139 246.84L107.182 246.956C107.707 248.374 107.601 249.6 107.444 250.37C107.273 251.151 107.065 251.527 107.065 251.527Z" fill="#263238"/>
<path d="M106.299 308.921C106.299 308.921 106.299 308.793 106.318 308.553C106.344 308.256 106.374 307.91 106.41 307.504C106.499 306.593 106.604 305.273 106.707 303.64C106.915 300.375 107.037 295.853 106.793 290.867C106.543 285.88 105.976 281.391 105.447 278.163C105.184 276.549 104.95 275.246 104.772 274.348C104.696 273.947 104.632 273.607 104.577 273.313C104.534 273.076 104.521 272.949 104.521 272.949C104.521 272.949 104.56 273.07 104.615 273.304C104.68 273.596 104.757 273.935 104.846 274.333C105.048 275.226 105.302 276.528 105.583 278.141C106.148 281.366 106.737 285.863 106.988 290.858C107.232 295.852 107.087 300.384 106.845 303.649C106.724 305.282 106.599 306.602 106.486 307.511C106.437 307.916 106.394 308.26 106.358 308.558C106.326 308.797 106.299 308.921 106.299 308.921Z" fill="#263238"/>
<path d="M171.786 226.896H141.302V256.49H171.786V226.896Z" fill="#545F64"/>
<path d="M169.97 228.661H143.12V254.726H169.97V228.661Z" fill="#263238"/>
<path d="M170.654 240.897H142.621V242.971H170.654V240.897Z" fill="#545F64"/>
<path d="M157.445 227.6H155.432V255.415H157.445V227.6Z" fill="#545F64"/>
<path d="M153.573 246.722C153.587 246.746 153.147 247.024 152.438 247.476C151.729 247.927 150.754 248.556 149.697 249.28C148.64 250.005 147.7 250.686 147.024 251.185C146.346 251.683 145.928 251.993 145.911 251.97C145.902 251.96 145.996 251.869 146.173 251.714C146.349 251.558 146.611 251.34 146.94 251.076C147.597 250.549 148.526 249.848 149.587 249.121C150.648 248.395 151.637 247.782 152.366 247.359C152.73 247.148 153.029 246.983 153.238 246.874C153.447 246.766 153.566 246.711 153.573 246.722Z" fill="#F5F5F5"/>
<path d="M152.197 245.61C152.222 245.662 151.192 246.18 149.984 246.921C148.773 247.658 147.842 248.337 147.807 248.291C147.792 248.27 148.005 248.074 148.375 247.787C148.744 247.501 149.273 247.127 149.883 246.754C150.493 246.382 151.066 246.082 151.49 245.885C151.914 245.687 152.186 245.587 152.197 245.61Z" fill="#F5F5F5"/>
<path d="M160.136 237.765C160.128 237.755 160.226 237.661 160.409 237.504C160.673 237.28 160.933 237.061 161.192 236.841C162.036 236.124 162.864 235.418 163.768 234.65C164.653 233.86 165.466 233.137 166.293 232.4C166.546 232.173 166.799 231.947 167.056 231.715C167.238 231.556 167.344 231.472 167.353 231.481C167.362 231.491 167.275 231.593 167.109 231.769C166.865 232.016 166.625 232.258 166.387 232.5C165.769 233.107 164.894 233.927 163.895 234.796C162.897 235.665 161.966 236.419 161.279 236.948C161.007 237.151 160.734 237.354 160.456 237.562C160.258 237.703 160.145 237.776 160.136 237.765Z" fill="#F5F5F5"/>
<path d="M160.879 235.364C160.848 235.32 161.527 234.728 162.397 234.041C163.267 233.354 164 232.83 164.035 232.87C164.071 232.91 163.392 233.503 162.517 234.194C161.643 234.885 160.91 235.408 160.879 235.364Z" fill="#F5F5F5"/>
<path d="M143.256 228.79C143.241 228.837 142.636 228.615 142.09 228.06C141.54 227.509 141.323 226.902 141.37 226.887C141.422 226.861 141.706 227.401 142.228 227.923C142.745 228.45 143.284 228.738 143.256 228.79Z" fill="#263238"/>
<path d="M171.927 226.839C171.966 226.872 171.601 227.362 171.043 227.864C170.486 228.369 169.962 228.683 169.932 228.64C169.9 228.595 170.365 228.215 170.912 227.719C171.461 227.227 171.885 226.802 171.927 226.839Z" fill="#263238"/>
<path d="M171.777 256.281C171.745 256.325 171.316 256.013 170.817 255.585C170.318 255.156 169.945 254.779 169.984 254.741C170.022 254.704 170.452 255.016 170.944 255.437C171.436 255.86 171.808 256.238 171.777 256.281Z" fill="#263238"/>
<path d="M143.183 254.828C143.217 254.87 142.818 255.266 142.29 255.716C141.762 256.165 141.307 256.496 141.271 256.455C141.237 256.414 141.636 256.017 142.164 255.567C142.692 255.119 143.148 254.788 143.183 254.828Z" fill="#263238"/>
<path d="M225.441 227.167H194.957V256.76H225.441V227.167Z" fill="#545F64"/>
<path d="M223.625 228.931H196.774V254.996H223.625V228.931Z" fill="#263238"/>
<path d="M224.308 241.167H196.276V243.242H224.308V241.167Z" fill="#545F64"/>
<path d="M211.099 227.87H209.085V255.685H211.099V227.87Z" fill="#545F64"/>
<path d="M207.227 246.993C207.241 247.018 206.801 247.296 206.092 247.747C205.383 248.198 204.408 248.828 203.351 249.552C202.294 250.277 201.354 250.958 200.678 251.456C200.001 251.954 199.583 252.264 199.565 252.242C199.557 252.231 199.651 252.14 199.827 251.985C200.003 251.829 200.266 251.611 200.594 251.348C201.251 250.821 202.18 250.119 203.241 249.392C204.302 248.666 205.292 248.053 206.02 247.631C206.385 247.42 206.683 247.254 206.892 247.145C207.102 247.036 207.22 246.981 207.227 246.993Z" fill="#F5F5F5"/>
<path d="M205.852 245.881C205.876 245.932 204.847 246.451 203.638 247.192C202.427 247.929 201.496 248.607 201.462 248.561C201.446 248.541 201.66 248.345 202.029 248.057C202.399 247.771 202.928 247.398 203.538 247.025C204.148 246.652 204.721 246.353 205.145 246.155C205.568 245.957 205.84 245.857 205.852 245.881Z" fill="#F5F5F5"/>
<path d="M213.792 238.036C213.783 238.026 213.881 237.932 214.064 237.774C214.329 237.55 214.588 237.331 214.848 237.112C215.691 236.395 216.52 235.689 217.423 234.921C218.308 234.131 219.121 233.408 219.948 232.671C220.201 232.444 220.454 232.218 220.712 231.986C220.894 231.827 220.999 231.743 221.008 231.752C221.018 231.761 220.93 231.864 220.764 232.04C220.52 232.287 220.281 232.529 220.043 232.771C219.424 233.378 218.549 234.198 217.551 235.067C216.552 235.936 215.621 236.69 214.934 237.219C214.662 237.422 214.39 237.625 214.112 237.833C213.913 237.973 213.799 238.046 213.792 238.036Z" fill="#F5F5F5"/>
<path d="M214.533 235.635C214.502 235.591 215.182 234.999 216.051 234.312C216.921 233.625 217.654 233.101 217.69 233.141C217.725 233.181 217.046 233.774 216.172 234.464C215.298 235.155 214.564 235.679 214.533 235.635Z" fill="#F5F5F5"/>
<path d="M196.912 229.06C196.896 229.107 196.291 228.885 195.745 228.33C195.195 227.779 194.979 227.172 195.025 227.157C195.077 227.131 195.361 227.671 195.884 228.193C196.4 228.721 196.938 229.009 196.912 229.06Z" fill="#263238"/>
<path d="M225.581 227.109C225.62 227.143 225.255 227.633 224.697 228.134C224.14 228.638 223.616 228.954 223.586 228.911C223.555 228.866 224.019 228.485 224.566 227.99C225.115 227.497 225.54 227.073 225.581 227.109Z" fill="#263238"/>
<path d="M225.431 256.552C225.4 256.596 224.97 256.284 224.471 255.856C223.972 255.428 223.599 255.05 223.638 255.012C223.676 254.975 224.106 255.287 224.598 255.708C225.09 256.13 225.463 256.508 225.431 256.552Z" fill="#263238"/>
<path d="M196.837 255.099C196.872 255.14 196.472 255.536 195.944 255.986C195.416 256.435 194.961 256.766 194.925 256.725C194.891 256.684 195.29 256.287 195.818 255.838C196.346 255.388 196.803 255.058 196.837 255.099Z" fill="#263238"/>
<path d="M369.185 230.049H328.882V308.333H369.185V230.049Z" fill="#49536C"/>
<path d="M332.599 308.334C333.954 308.331 345.374 308.307 365.467 308.264L365.397 308.334C365.389 289.093 365.38 262.771 365.37 233.766V233.761L365.467 233.858C353.924 233.856 342.809 233.854 332.599 233.853L332.691 233.761C332.638 276.921 332.602 306.182 332.599 308.334C332.596 306.183 332.56 276.921 332.506 233.761V233.669H332.599C342.809 233.667 353.924 233.666 365.467 233.664H365.564V233.761V233.766C365.554 262.771 365.543 289.092 365.537 308.334V308.404H365.467C345.374 308.361 333.953 308.336 332.599 308.334Z" fill="#263238"/>
<path d="M329.185 230.002C329.225 229.965 330.062 230.831 331.055 231.935C332.049 233.039 332.821 233.962 332.781 233.999C332.741 234.034 331.904 233.169 330.911 232.064C329.917 230.961 329.144 230.037 329.185 230.002Z" fill="#263238"/>
<path d="M369.279 230.082C369.315 230.125 368.414 230.893 367.378 231.915C366.338 232.935 365.557 233.822 365.513 233.786C365.493 233.769 365.663 233.525 365.969 233.155C366.275 232.785 366.719 232.291 367.242 231.776C367.764 231.262 368.266 230.826 368.641 230.527C369.016 230.228 369.263 230.062 369.279 230.082Z" fill="#263238"/>
<path d="M361.671 265.285C361.052 265.213 360.11 265.743 359.739 266.506C359.368 267.267 359.627 268.268 360.295 268.79C360.962 269.31 361.977 269.327 362.661 268.829C363.345 268.331 363.641 267.359 363.349 266.564C363.057 265.769 362.205 265.219 361.361 265.281" fill="#263238"/>
<path d="M337.84 308.89C337.787 308.89 337.743 292.205 337.743 271.627C337.743 251.042 337.787 234.36 337.84 234.36C337.893 234.36 337.937 251.042 337.937 271.627C337.937 292.205 337.893 308.89 337.84 308.89Z" fill="#263238"/>
<path d="M346.281 308.89C346.228 308.89 346.184 292.205 346.184 271.627C346.184 251.042 346.228 234.36 346.281 234.36C346.334 234.36 346.378 251.042 346.378 271.627C346.378 292.205 346.335 308.89 346.281 308.89Z" fill="#263238"/>
<path d="M354.723 308.89C354.669 308.89 354.626 292.205 354.626 271.627C354.626 251.042 354.67 234.36 354.723 234.36C354.776 234.36 354.82 251.042 354.82 271.627C354.82 292.205 354.776 308.89 354.723 308.89Z" fill="#263238"/>
<path d="M361.514 308.89C361.461 308.89 361.417 292.205 361.417 271.627C361.417 251.042 361.461 234.36 361.514 234.36C361.568 234.36 361.612 251.042 361.612 271.627C361.612 292.205 361.569 308.89 361.514 308.89Z" fill="#263238"/>
<path opacity="0.4" d="M332.6 296L335.028 234.969L363.461 233.76H332.6V296Z" fill="black"/>
<path d="M324.304 153.475V196.559H328.107V153.475H324.304Z" fill="#F5F5F5"/>
<path d="M369.759 153.472H328.107V193.906H369.759V153.472Z" fill="#545F64"/>
<path d="M367.275 155.882H330.59V191.495H367.275V155.882Z" fill="#263238"/>
<path d="M368.211 172.601H329.909V175.435H368.211V172.601Z" fill="#545F64"/>
<path d="M350.16 154.433H347.41V192.436H350.16V154.433Z" fill="#545F64"/>
<path d="M344.872 180.56C344.878 180.571 344.732 180.672 344.46 180.844C344.091 181.077 343.71 181.316 343.309 181.568C342.337 182.18 341.001 183.036 339.556 184.026C338.111 185.016 336.829 185.952 335.908 186.637C335.527 186.921 335.166 187.19 334.816 187.45C334.558 187.64 334.411 187.741 334.402 187.731C334.394 187.721 334.525 187.599 334.769 187.39C335.012 187.18 335.373 186.886 335.823 186.528C336.725 185.814 337.996 184.858 339.445 183.865C340.894 182.874 342.244 182.033 343.236 181.452C343.732 181.161 344.137 180.931 344.421 180.78C344.705 180.627 344.865 180.548 344.872 180.56Z" fill="#F5F5F5"/>
<path d="M342.992 179.039C343.004 179.065 342.658 179.253 342.1 179.559C341.542 179.865 340.777 180.294 339.95 180.799C339.122 181.305 338.39 181.789 337.863 182.145C337.336 182.501 337.011 182.724 336.994 182.701C336.978 182.681 337.275 182.42 337.784 182.034C338.293 181.648 339.017 181.142 339.849 180.634C340.681 180.126 341.462 179.713 342.038 179.437C342.613 179.162 342.981 179.017 342.992 179.039Z" fill="#F5F5F5"/>
<path d="M353.84 168.321C353.832 168.311 353.968 168.188 354.222 167.974C354.565 167.689 354.922 167.393 355.299 167.079C356.211 166.324 357.464 165.276 358.825 164.092C360.187 162.906 361.397 161.809 362.269 161.01C362.632 160.679 362.974 160.367 363.305 160.066C363.551 159.845 363.691 159.727 363.7 159.736C363.71 159.745 363.587 159.881 363.357 160.12C363.041 160.436 362.712 160.762 362.363 161.11C361.514 161.936 360.315 163.051 358.952 164.239C357.589 165.425 356.319 166.458 355.384 167.186C354.992 167.484 354.623 167.764 354.268 168.034C354 168.229 353.848 168.332 353.84 168.321Z" fill="#F5F5F5"/>
<path d="M354.854 165.043C354.838 165.021 355.066 164.81 355.445 164.488C355.825 164.167 356.356 163.733 356.95 163.262C357.544 162.792 358.089 162.376 358.49 162.081C358.891 161.786 359.149 161.615 359.166 161.634C359.183 161.655 358.958 161.864 358.579 162.186C358.2 162.508 357.666 162.943 357.07 163.415C356.474 163.886 355.927 164.304 355.526 164.598C355.125 164.893 354.869 165.064 354.854 165.043Z" fill="#F5F5F5"/>
<path d="M330.776 156.06C330.762 156.106 329.948 155.789 329.207 155.036C328.46 154.289 328.151 153.473 328.198 153.459C328.251 153.431 328.626 154.181 329.346 154.899C330.057 155.625 330.805 156.007 330.776 156.06Z" fill="#263238"/>
<path d="M369.949 153.393C369.988 153.426 369.477 154.084 368.717 154.768C367.958 155.455 367.253 155.897 367.224 155.855C367.191 155.809 367.838 155.302 368.586 154.623C369.337 153.947 369.907 153.356 369.949 153.393Z" fill="#263238"/>
<path d="M369.744 193.621C369.714 193.664 369.097 193.272 368.417 192.687C367.735 192.103 367.256 191.553 367.293 191.517C367.332 191.478 367.869 191.962 368.543 192.539C369.217 193.119 369.777 193.576 369.744 193.621Z" fill="#263238"/>
<path d="M330.676 191.635C330.711 191.676 330.154 192.206 329.433 192.82C328.712 193.434 328.099 193.897 328.065 193.856C328.03 193.815 328.586 193.285 329.307 192.671C330.028 192.058 330.641 191.594 330.676 191.635Z" fill="#263238"/>
<path d="M376.775 149.669H321.509V153.472H376.775V149.669Z" fill="#F5F5F5"/>
<g opacity="0.4">
<path d="M321.903 197.476L322.64 197.962C330.894 198.523 339.148 199.084 347.402 199.645C352.533 199.994 357.689 200.342 362.814 199.903C366.79 199.562 370.726 198.746 374.51 197.477C357.039 195.637 339.374 195.637 321.903 197.476Z" fill="black"/>
</g>
<path d="M376.775 193.513H321.509V197.316H376.775V193.513Z" fill="#F5F5F5"/>
<path d="M369.79 152.899V195.984H373.593V152.899H369.79Z" fill="#F5F5F5"/>
<g opacity="0.4">
<path d="M324.057 153.557C332.156 156.294 341.987 158.527 351.297 158.994C358.527 159.357 367.149 156.768 373.593 153.472C357.094 153.412 340.556 153.617 324.057 153.557Z" fill="black"/>
</g>
<path d="M76.9365 211.261H264.798L351.297 67.7139H160.34L76.9365 211.261Z" fill="#17213A"/>
<path d="M173.862 67.7135C173.978 67.7807 155.463 99.9723 132.512 139.606C109.554 179.253 90.8545 211.328 90.7378 211.261C90.6222 211.193 109.133 179.009 132.092 139.362C155.043 99.7287 173.747 67.6463 173.862 67.7135Z" fill="#3A464C"/>
<path d="M190.529 67.7135C190.645 67.7807 172.13 99.9723 149.179 139.606C126.221 179.253 107.521 211.328 107.405 211.261C107.289 211.193 125.8 179.009 148.759 139.362C171.71 99.7287 190.414 67.6463 190.529 67.7135Z" fill="#3A464C"/>
<path d="M207.196 67.7135C207.313 67.7807 188.797 99.9723 165.846 139.606C142.887 179.253 124.188 211.328 124.071 211.261C123.956 211.193 142.467 179.009 165.425 139.362C188.377 99.7287 207.08 67.6463 207.196 67.7135Z" fill="#3A464C"/>
<path d="M223.864 67.7135C223.98 67.7807 205.465 99.9723 182.514 139.606C159.555 179.253 140.856 211.328 140.739 211.261C140.624 211.193 159.134 179.009 182.093 139.362C205.044 99.7287 223.747 67.6463 223.864 67.7135Z" fill="#3A464C"/>
<path d="M240.529 67.7135C240.645 67.7807 222.13 99.9723 199.179 139.606C176.22 179.253 157.521 211.328 157.404 211.261C157.289 211.193 175.8 179.009 198.758 139.362C221.709 99.7287 240.412 67.6463 240.529 67.7135Z" fill="#3A464C"/>
<path d="M257.195 67.7135C257.311 67.7807 238.796 99.9723 215.845 139.606C192.887 179.253 174.187 211.328 174.071 211.261C173.955 211.193 192.466 179.009 215.425 139.362C238.376 99.7287 257.079 67.6463 257.195 67.7135Z" fill="#3A464C"/>
<path d="M273.862 67.7135C273.978 67.7807 255.463 99.9723 232.512 139.606C209.554 179.253 190.854 211.328 190.738 211.261C190.622 211.193 209.133 179.009 232.092 139.362C255.043 99.7287 273.746 67.6463 273.862 67.7135Z" fill="#3A464C"/>
<path d="M290.528 67.7135C290.644 67.7807 272.129 99.9723 249.178 139.606C226.219 179.253 207.52 211.328 207.403 211.261C207.288 211.193 225.799 179.009 248.757 139.362C271.708 99.7287 290.411 67.6463 290.528 67.7135Z" fill="#3A464C"/>
<path d="M307.195 67.7135C307.311 67.7807 288.796 99.9723 265.845 139.606C242.886 179.253 224.187 211.328 224.07 211.261C223.955 211.193 242.466 179.009 265.424 139.362C288.375 99.7287 307.079 67.6463 307.195 67.7135Z" fill="#3A464C"/>
<path d="M323.861 67.7135C323.977 67.7807 305.462 99.9723 282.511 139.606C259.553 179.253 240.853 211.328 240.737 211.261C240.621 211.193 259.132 179.009 282.091 139.362C305.042 99.7287 323.745 67.6463 323.861 67.7135Z" fill="#3A464C"/>
<path d="M340.527 67.7135C340.643 67.7807 322.128 99.9723 299.177 139.606C276.219 179.253 257.52 211.328 257.403 211.261C257.287 211.193 275.798 179.009 298.757 139.362C321.708 99.7287 340.412 67.6463 340.527 67.7135Z" fill="#3A464C"/>
<path d="M76.937 211.261C76.937 211.261 77.2505 211.244 77.8635 211.235C78.4877 211.23 79.3955 211.221 80.5832 211.211C82.9857 211.201 86.5069 211.185 91.0394 211.165C100.132 211.147 113.267 211.121 129.497 211.088C161.979 211.069 206.834 211.044 256.375 211.017C261.619 211.017 266.811 211.018 271.683 211.018L271.471 211.143C293.828 170.895 313.753 135.025 328.095 109.207C335.28 96.3185 341.064 85.9416 345.059 78.7742C347.059 75.2074 348.609 72.4419 349.668 70.5563C350.194 69.628 350.596 68.9189 350.873 68.43C351.146 67.9523 351.297 67.7144 351.297 67.7144C351.297 67.7144 351.173 67.9681 350.914 68.4533C350.646 68.9469 350.257 69.6643 349.749 70.602C348.709 72.4979 347.184 75.2773 345.217 78.862C341.253 86.0461 335.513 96.4482 328.384 109.368C314.076 135.205 294.198 171.102 271.895 211.379L271.826 211.504H271.683C266.81 211.504 261.619 211.505 256.375 211.505C206.834 211.477 161.98 211.452 129.497 211.434C113.267 211.401 100.132 211.375 91.0394 211.357C86.5069 211.337 82.9848 211.321 80.5832 211.311C79.3964 211.301 78.4877 211.292 77.8635 211.287C77.2514 211.277 76.937 211.261 76.937 211.261Z" fill="#3A464C"/>
<path d="M423.418 205.944H437.261L359.838 67.7139H351.297L423.418 205.944Z" fill="#4E5A60"/>
<path d="M238.08 56.001H205.968V127.984H238.08V56.001Z" fill="#D9D3EF"/>
<path d="M238.08 127.984L253.512 101.402L254.135 56.001H238.08V127.984Z" fill="#D9D3EF"/>
<path opacity="0.3" d="M238.08 56.001H205.968V127.984H238.08V56.001Z" fill="black"/>
<path d="M205.968 56.0009C205.975 56.0009 205.983 56.1222 205.99 56.3592C205.996 56.6158 206.002 56.9657 206.012 57.4135C206.021 58.3633 206.035 59.7302 206.053 61.4861C206.07 65.0558 206.094 70.206 206.125 76.627C206.145 89.5202 206.174 107.509 206.208 127.984L205.969 127.746C211.141 127.745 216.522 127.743 222.02 127.742C227.521 127.743 232.905 127.745 238.08 127.746L237.841 127.984C237.874 107.504 237.903 89.5155 237.924 76.6232C237.955 70.2032 237.979 65.053 237.996 61.4842C238.014 59.7283 238.028 58.3624 238.037 57.4126C238.047 56.9647 238.053 56.6158 238.059 56.3583C238.066 56.1213 238.074 56 238.081 56C238.089 56 238.096 56.1213 238.104 56.3583C238.109 56.6149 238.116 56.9647 238.125 57.4126C238.134 58.3624 238.148 59.7283 238.166 61.4842C238.183 65.053 238.207 70.2032 238.238 76.6232C238.258 89.5155 238.287 107.504 238.321 127.984V128.223H238.081C232.906 128.224 227.523 128.226 222.021 128.227C216.523 128.226 211.142 128.224 205.97 128.223H205.73V127.984C205.763 107.508 205.792 89.5202 205.813 76.627C205.844 70.206 205.868 65.0558 205.885 61.4861C205.903 59.7292 205.917 58.3633 205.926 57.4135C205.935 56.9657 205.942 56.6158 205.947 56.3592C205.953 56.1222 205.96 56.0009 205.968 56.0009Z" fill="#263238"/>
<g opacity="0.4">
<path d="M205.115 129.57C199.568 136.939 195.159 145.163 192.092 153.862C200.225 144.734 208.753 135.319 220.035 130.611C218.204 134.659 216.374 138.707 214.542 142.756C219.312 135.416 227.591 130.474 236.315 129.761C236.352 130.33 236.389 130.9 236.426 131.469C238.013 129.576 240.263 126.516 239.8 126.878L238.077 127.985H205.966L205.115 129.57Z" fill="black"/>
</g>
<path d="M40.4063 280.634C41.5379 280.938 44.126 280.488 44.128 280.488C44.1548 280.483 43.3143 278.869 43.2498 278.773C42.5006 277.664 40.4029 275.964 38.967 276.383C37.9322 276.685 37.5037 277.833 37.8917 278.793C38.2872 279.775 39.4429 280.374 40.4063 280.634Z" fill="#17213A"/>
<path d="M58.015 308.677H58.9517C58.9482 308.667 58.9448 308.658 58.9414 308.647C58.699 307.968 58.427 307.247 58.14 306.509C58.3028 306.414 59.2236 305.868 60.0201 305.251C60.9004 305.958 62.9851 306.627 63.255 306.712C63.0909 307.393 62.9247 308.054 62.7578 308.676H63.6684C63.8201 308.045 63.9712 307.382 64.1195 306.696C64.4065 306.713 66.7529 306.832 67.7781 306.433C68.7078 306.069 69.7914 305.348 70.0791 304.33C70.3606 303.333 69.8106 302.239 68.749 302.051C67.2761 301.791 65.3747 303.709 64.7505 304.892C64.7135 304.962 64.3983 305.764 64.2081 306.273C64.2747 305.957 64.3427 305.65 64.4072 305.324C64.5397 304.678 64.6524 304.031 64.776 303.335C64.824 302.996 64.8728 302.655 64.9215 302.309C64.9771 301.968 64.9929 301.601 65.0307 301.243C65.1014 300.412 65.1317 299.566 65.144 298.714C65.7078 298.828 67.7163 299.206 68.6948 298.987C69.6685 298.77 70.8488 298.221 71.2869 297.258C71.7161 296.316 71.3377 295.15 70.3167 294.803C68.9001 294.322 66.7309 295.93 65.9344 297.005C65.8842 297.072 65.4001 297.908 65.1426 298.371C65.1461 297.859 65.1516 297.348 65.1385 296.829C65.1001 295.332 65.0142 293.817 64.936 292.307C64.9112 291.844 64.8927 291.383 64.8728 290.92C65.0733 290.964 67.4505 291.464 68.5464 291.219C69.5201 291.001 70.7005 290.453 71.1386 289.49C71.5678 288.547 71.1894 287.382 70.1684 287.036C68.7518 286.554 66.5826 288.162 65.786 289.237C65.7263 289.318 65.03 290.521 64.868 290.836C64.8233 289.818 64.7883 288.804 64.7938 287.803C64.8 286.421 64.8824 285.067 65.0589 283.76C65.1516 283.78 67.6311 284.313 68.7538 284.063C69.7275 283.846 70.9079 283.297 71.346 282.334C71.7752 281.391 71.3968 280.227 70.3757 279.879C68.9584 279.398 66.79 281.006 65.9934 282.08C65.9309 282.165 65.1832 283.46 65.0644 283.704C65.0753 283.626 65.0774 283.544 65.0891 283.467C65.2951 282.075 65.6693 280.751 66.0806 279.53C66.3182 278.819 66.5846 278.154 66.8586 277.512C67.3104 277.659 69.3814 278.307 70.4162 278.193C71.4085 278.084 72.6417 277.669 73.1821 276.76C73.7122 275.87 73.4637 274.67 72.4872 274.214C71.1317 273.579 68.7991 274.939 67.89 275.919C67.8406 275.972 67.3983 276.571 67.0818 277.01C67.2095 276.723 67.3365 276.423 67.4643 276.15C67.9429 275.123 68.4448 274.212 68.8953 273.409C69.1555 272.955 69.3993 272.549 69.6314 272.172C70.1491 272.084 72.2332 271.705 73.0839 271.137C73.9134 270.582 74.8178 269.645 74.8803 268.588C74.9414 267.554 74.1689 266.604 73.0922 266.649C71.5973 266.712 70.1526 268.995 69.7969 270.285C69.766 270.397 69.4851 272.196 69.5119 272.192C69.5119 272.192 69.5373 272.187 69.5435 272.187C69.3121 272.545 69.069 272.933 68.8122 273.361C68.3432 274.156 67.8206 275.058 67.3173 276.079C66.8119 277.098 66.2921 278.219 65.8506 279.449C65.4063 280.682 65.0019 282.001 64.7608 283.415C64.7581 283.431 64.7574 283.448 64.7547 283.464C64.697 283.028 64.4958 281.816 64.4697 281.725C64.103 280.438 62.6391 278.167 61.1435 278.117C60.0668 278.081 59.3025 279.037 59.3719 280.071C59.4433 281.127 60.3545 282.057 61.1895 282.605C62.1309 283.223 64.5425 283.595 64.7348 283.624C64.5171 284.972 64.4038 286.373 64.366 287.797C64.344 288.612 64.3468 289.433 64.3598 290.256C64.298 289.881 64.2404 289.546 64.2266 289.5C63.8593 288.213 62.396 285.943 60.9004 285.892C59.823 285.855 59.0588 286.812 59.1288 287.846C59.1995 288.902 60.1114 289.832 60.9457 290.38C61.7931 290.935 63.8428 291.294 64.3859 291.382C64.3942 291.698 64.399 292.013 64.4093 292.329C64.4553 293.843 64.5075 295.354 64.5137 296.838C64.5164 297.361 64.4992 297.875 64.4841 298.391C64.4292 298.058 64.3798 297.778 64.3674 297.736C64 296.449 62.5367 294.178 61.0419 294.128C59.9645 294.092 59.2002 295.048 59.2703 296.082C59.3417 297.138 60.2529 298.068 61.0879 298.616C61.8961 299.146 63.7851 299.494 64.4306 299.601C64.3997 300.129 64.3688 300.657 64.3152 301.167C64.2706 301.514 64.2513 301.851 64.1875 302.197C64.1312 302.541 64.0756 302.882 64.0199 303.219C63.8895 303.864 63.759 304.532 63.6162 305.158C63.52 305.595 63.4205 306.009 63.3209 306.426C63.3243 305.906 63.3106 304.886 63.2996 304.801C63.1877 303.919 62.6617 302.536 61.8906 301.625C61.8748 301.495 61.848 301.366 61.8082 301.241C61.4944 300.254 60.4328 299.645 59.444 300.075C58.0713 300.672 57.5426 303.324 57.6731 304.655C57.6806 304.733 57.8592 305.577 57.9807 306.107C57.8619 305.807 57.75 305.513 57.6243 305.205C57.3792 304.594 57.1169 303.992 56.8367 303.342C56.6905 303.033 56.5428 302.722 56.3938 302.406C56.2524 302.091 56.0635 301.776 55.898 301.456C55.4991 300.724 55.0589 300.002 54.5996 299.284C55.1331 299.068 57.0166 298.273 57.7115 297.55C58.4044 296.83 59.0862 295.72 58.9221 294.675C58.7608 293.652 57.8042 292.889 56.7619 293.165C55.3151 293.546 54.3908 296.086 54.3187 297.423C54.3146 297.506 54.3702 298.47 54.4107 299C54.1313 298.571 53.8545 298.141 53.5579 297.716C52.7016 296.488 51.7966 295.273 50.8991 294.055C50.6238 293.683 50.3546 293.308 50.0827 292.935C50.2736 292.86 52.532 291.963 53.3114 291.153C54.0035 290.433 54.6861 289.323 54.522 288.278C54.3606 287.255 53.4041 286.492 52.3617 286.768C50.9149 287.149 49.9907 289.689 49.9186 291.026C49.9131 291.126 49.9955 292.514 50.0339 292.867C49.4365 292.043 48.8487 291.217 48.3021 290.378C47.5468 289.222 46.8698 288.047 46.2971 286.86C46.3863 286.825 48.7478 285.899 49.5457 285.07C50.2385 284.351 50.9211 283.241 50.7563 282.196C50.5956 281.172 49.6384 280.41 48.596 280.685C47.1492 281.067 46.2257 283.606 46.1529 284.943C46.1474 285.048 46.2366 286.541 46.2717 286.811C46.238 286.741 46.1948 286.671 46.1618 286.6C45.5671 285.324 45.151 284.014 44.8207 282.767C44.6278 282.044 44.4836 281.341 44.3586 280.655C44.8159 280.527 46.9007 279.923 47.7013 279.257C48.469 278.617 49.269 277.589 49.2195 276.532C49.1715 275.497 48.3035 274.634 47.2378 274.792C45.758 275.012 44.5612 277.435 44.3428 278.756C44.3311 278.828 44.2906 279.571 44.2693 280.113C44.2178 279.802 44.1588 279.482 44.1148 279.184C43.9487 278.062 43.8656 277.025 43.799 276.106C43.7653 275.583 43.7454 275.11 43.7317 274.667C44.1155 274.307 45.6447 272.84 46.0409 271.895C46.4282 270.973 46.6651 269.692 46.1357 268.776C45.6173 267.88 44.4499 267.515 43.5765 268.147C42.3645 269.026 42.4167 271.729 42.8294 273.002C42.8651 273.112 43.6218 274.767 43.6417 274.75C43.6417 274.75 43.6603 274.732 43.6651 274.728C43.6699 275.155 43.6802 275.612 43.7015 276.112C43.7475 277.034 43.8086 278.075 43.9514 279.205C44.0908 280.334 44.2742 281.557 44.5832 282.827C44.8915 284.1 45.2801 285.425 45.8576 286.737C45.8638 286.752 45.8727 286.766 45.8796 286.781C45.5919 286.449 44.7562 285.55 44.6841 285.489C43.6699 284.618 41.1986 283.533 39.9234 284.318C39.0054 284.883 38.8941 286.103 39.5217 286.926C40.1624 287.768 41.4348 288.04 42.4325 288.035C43.558 288.03 45.7745 287.007 45.9503 286.925C46.5113 288.17 47.1877 289.401 47.941 290.61C48.3708 291.301 48.8254 291.985 49.2889 292.664C49.0307 292.385 48.7979 292.138 48.7622 292.107C47.7473 291.236 45.276 290.152 44.0015 290.936C43.0828 291.501 42.9722 292.721 43.5998 293.545C44.2405 294.386 45.5129 294.658 46.5106 294.653C47.5235 294.649 49.4303 293.815 49.9323 293.588C50.1129 293.846 50.2907 294.106 50.4727 294.364C51.3448 295.602 52.2203 296.834 53.0422 298.068C53.332 298.503 53.6011 298.942 53.8731 299.38C53.6437 299.133 53.4487 298.927 53.4151 298.898C52.4002 298.028 49.9295 296.943 48.6544 297.727C47.7356 298.293 47.6251 299.513 48.2527 300.336C48.8934 301.178 50.1658 301.449 51.1635 301.445C52.1296 301.44 53.8971 300.686 54.4945 300.419C54.7589 300.876 55.0246 301.334 55.2601 301.789C55.4139 302.103 55.5842 302.395 55.7209 302.719C55.863 303.037 56.0038 303.352 56.1439 303.664C56.3904 304.274 56.6493 304.903 56.8745 305.504C57.0345 305.921 57.1794 306.323 57.327 306.726C57.0434 306.29 56.4707 305.447 56.4144 305.382C55.5437 304.367 53.2647 302.92 51.8859 303.502C50.8929 303.921 50.599 305.11 51.0948 306.02C51.6009 306.949 52.817 307.411 53.8044 307.557C54.8914 307.719 57.1478 307.082 57.4293 307C57.6367 307.576 57.8324 308.135 58.015 308.677Z" fill="#17213A"/>
<path d="M66.758 277.248C66.7834 277.259 66.9709 275.447 66.9695 275.332C66.9551 273.994 66.1414 271.416 64.7124 270.972C63.6831 270.652 62.6943 271.373 62.489 272.388C62.2795 273.425 62.9133 274.563 63.5739 275.312C64.3505 276.192 66.7566 277.246 66.758 277.248Z" fill="#17213A"/>
<path d="M16.3394 308.677H496.199" stroke="#17213A" stroke-miterlimit="10" stroke-linecap="round" stroke-linejoin="round"/>
<path d="M458.088 308.14V224.991H463.972V308.14H458.088Z" fill="#17213A" stroke="#17213A"/>
<path d="M464.472 224.492C464.472 224.671 462.931 224.816 461.03 224.816C459.129 224.816 457.588 224.671 457.588 224.492C457.588 224.313 459.129 224.167 461.03 224.167C462.931 224.167 464.472 224.312 464.472 224.492Z" fill="#DBD9EB"/>
<path opacity="0.2" d="M464.472 277.351L457.588 276.852V271.662H464.472V277.351Z" fill="#383192"/>
<path d="M500.698 230.905L425.456 224.296L421.369 271.04L496.611 277.649L500.698 230.905Z" fill="#383192"/>
<path d="M497.329 230.609L422.087 224L418 270.744L493.242 277.353L497.329 230.609Z" fill="#CEC8FF"/>
<path opacity="0.4" d="M497.686 237.881L483.572 237.233L497.589 238.997L497.686 237.881Z" fill="#383192"/>
<path opacity="0.4" d="M497.087 239.472L488.379 239.594L496.941 241.146L497.087 239.472Z" fill="#383192"/>
<path opacity="0.4" d="M419.028 258.877L426.64 258.954L419.126 257.761L419.028 258.877Z" fill="#383192"/>
<path opacity="0.4" d="M419.799 250.066L426.351 249.754L419.945 248.392L419.799 250.066Z" fill="#383192"/>
<path opacity="0.4" d="M494.285 272.386L487.733 272.698L494.139 274.06L494.285 272.386Z" fill="#383192"/>
<path d="M488.828 250.895L488.702 252.449L490.663 252.609L490.598 253.411L488.637 253.252L488.508 254.837L490.997 255.039L490.929 255.873L487.394 255.586L487.849 249.98L491.384 250.267L491.317 251.097L488.828 250.895Z" fill="#383192"/>
<path d="M486.496 250.897C486.46 250.948 486.424 250.986 486.385 251.009C486.35 251.029 486.306 251.037 486.254 251.033C486.2 251.029 486.142 251.005 486.081 250.96C486.022 250.914 485.951 250.863 485.867 250.807C485.783 250.75 485.683 250.698 485.568 250.65C485.455 250.599 485.318 250.567 485.158 250.554C485.013 250.542 484.885 250.55 484.774 250.577C484.662 250.602 484.567 250.642 484.487 250.698C484.409 250.755 484.349 250.825 484.306 250.91C484.263 250.992 484.237 251.085 484.228 251.189C484.218 251.32 484.245 251.433 484.31 251.527C484.378 251.621 484.47 251.704 484.587 251.776C484.703 251.848 484.837 251.914 484.988 251.976C485.139 252.038 485.294 252.104 485.452 252.174C485.61 252.241 485.764 252.319 485.913 252.406C486.062 252.491 486.193 252.595 486.305 252.719C486.417 252.84 486.503 252.985 486.562 253.154C486.624 253.322 486.646 253.523 486.627 253.756C486.606 254.009 486.543 254.243 486.437 254.458C486.334 254.671 486.192 254.853 486.01 255.005C485.832 255.154 485.618 255.267 485.37 255.343C485.122 255.417 484.843 255.441 484.533 255.416C484.355 255.401 484.18 255.369 484.01 255.319C483.84 255.271 483.677 255.209 483.522 255.131C483.37 255.054 483.227 254.964 483.095 254.862C482.963 254.76 482.847 254.65 482.748 254.53L483.094 254.054C483.123 254.02 483.159 253.993 483.202 253.973C483.246 253.951 483.291 253.942 483.337 253.945C483.402 253.951 483.47 253.983 483.54 254.044C483.611 254.101 483.695 254.167 483.793 254.24C483.892 254.313 484.007 254.382 484.139 254.447C484.275 254.51 484.439 254.55 484.633 254.566C484.93 254.59 485.166 254.539 485.34 254.412C485.515 254.283 485.613 254.087 485.634 253.823C485.646 253.676 485.618 253.553 485.551 253.454C485.486 253.355 485.395 253.27 485.279 253.198C485.163 253.123 485.029 253.058 484.877 253.001C484.726 252.945 484.572 252.884 484.416 252.819C484.26 252.755 484.107 252.68 483.958 252.595C483.809 252.51 483.678 252.404 483.566 252.278C483.454 252.152 483.368 251.999 483.307 251.82C483.249 251.639 483.23 251.42 483.251 251.164C483.268 250.96 483.324 250.764 483.42 250.577C483.518 250.39 483.651 250.227 483.818 250.09C483.985 249.953 484.186 249.848 484.421 249.776C484.656 249.704 484.921 249.68 485.215 249.704C485.546 249.731 485.847 249.807 486.117 249.933C486.388 250.059 486.614 250.223 486.795 250.425L486.496 250.897Z" fill="#383192"/>
<path d="M479.709 254.115C479.91 254.132 480.093 254.112 480.256 254.058C480.421 254.004 480.564 253.92 480.682 253.808C480.8 253.695 480.895 253.555 480.966 253.386C481.039 253.218 481.085 253.026 481.102 252.812L481.375 249.455L482.417 249.539L482.145 252.896C482.118 253.23 482.039 253.534 481.907 253.81C481.778 254.083 481.605 254.315 481.386 254.505C481.171 254.693 480.915 254.833 480.618 254.926C480.322 255.017 479.995 255.048 479.635 255.018C479.274 254.989 478.954 254.906 478.676 254.769C478.399 254.629 478.168 254.449 477.983 254.229C477.8 254.006 477.666 253.749 477.581 253.459C477.498 253.166 477.47 252.853 477.497 252.519L477.77 249.162L478.812 249.247L478.54 252.6C478.523 252.814 478.535 253.011 478.578 253.188C478.624 253.366 478.696 253.522 478.794 253.655C478.895 253.785 479.022 253.89 479.174 253.97C479.329 254.051 479.507 254.099 479.709 254.115Z" fill="#383192"/>
<path d="M476.696 251.896C476.663 252.307 476.563 252.683 476.398 253.023C476.235 253.361 476.019 253.648 475.751 253.883C475.482 254.119 475.167 254.295 474.806 254.412C474.446 254.525 474.052 254.565 473.626 254.53C473.202 254.496 472.822 254.394 472.484 254.223C472.147 254.05 471.864 253.826 471.634 253.549C471.406 253.273 471.238 252.955 471.13 252.595C471.021 252.233 470.984 251.846 471.017 251.435C471.05 251.024 471.15 250.65 471.315 250.312C471.48 249.972 471.698 249.684 471.967 249.448C472.238 249.212 472.554 249.038 472.914 248.924C473.275 248.808 473.667 248.767 474.091 248.801C474.375 248.824 474.64 248.879 474.885 248.967C475.131 249.052 475.353 249.164 475.553 249.302C475.752 249.438 475.928 249.599 476.079 249.786C476.233 249.97 476.36 250.173 476.459 250.394C476.558 250.615 476.627 250.852 476.667 251.105C476.709 251.359 476.718 251.622 476.696 251.896ZM475.63 251.809C475.655 251.502 475.636 251.223 475.573 250.974C475.51 250.721 475.41 250.504 475.271 250.321C475.132 250.138 474.957 249.992 474.744 249.884C474.535 249.776 474.293 249.711 474.019 249.689C473.745 249.666 473.495 249.692 473.268 249.764C473.043 249.837 472.846 249.952 472.678 250.11C472.511 250.269 472.377 250.467 472.274 250.706C472.172 250.942 472.108 251.214 472.083 251.522C472.058 251.829 472.077 252.109 472.14 252.361C472.203 252.611 472.304 252.827 472.442 253.01C472.584 253.191 472.759 253.335 472.969 253.443C473.181 253.551 473.424 253.617 473.698 253.639C473.972 253.661 474.221 253.636 474.446 253.563C474.673 253.49 474.869 253.376 475.036 253.221C475.202 253.062 475.336 252.865 475.439 252.629C475.541 252.39 475.605 252.117 475.63 251.809Z" fill="#383192"/>
<path d="M470.329 248.559L469.875 254.164L468.828 254.079L469.027 251.629L466.395 251.416L466.196 253.866L465.149 253.781L465.604 248.175L466.651 248.26L466.455 250.671L469.087 250.885L469.283 248.474L470.329 248.559Z" fill="#383192"/>
<path d="M462.705 251.397L462.529 253.568L461.49 253.484L461.667 251.313L459.902 247.712L460.821 247.787C460.912 247.794 460.981 247.822 461.029 247.87C461.08 247.919 461.12 247.978 461.151 248.048L462.023 250.003C462.073 250.119 462.116 250.228 462.152 250.33C462.191 250.432 462.224 250.533 462.252 250.635C462.294 250.539 462.341 250.444 462.392 250.349C462.444 250.255 462.503 250.154 462.569 250.048L463.741 248.258C463.774 248.203 463.821 248.154 463.881 248.109C463.942 248.065 464.017 248.046 464.105 248.053L465.027 248.128L462.705 251.397Z" fill="#383192"/>
<path d="M457.33 250.188C457.526 250.204 457.699 250.193 457.847 250.156C457.999 250.119 458.124 250.061 458.224 249.983C458.327 249.903 458.406 249.806 458.463 249.691C458.519 249.575 458.553 249.447 458.564 249.305C458.587 249.02 458.511 248.794 458.334 248.627C458.161 248.459 457.881 248.36 457.496 248.328L456.829 248.274L456.678 250.135L457.33 250.188ZM459.774 253.344L458.832 253.268C458.653 253.253 458.53 253.173 458.461 253.027L457.428 251.136C457.39 251.065 457.345 251.014 457.293 250.981C457.243 250.948 457.167 250.928 457.063 250.919L456.618 250.883L456.44 253.073L455.397 252.989L455.852 247.383L457.562 247.522C457.942 247.553 458.264 247.619 458.529 247.722C458.796 247.821 459.011 247.949 459.173 248.105C459.337 248.262 459.452 248.443 459.519 248.649C459.586 248.852 459.609 249.072 459.59 249.31C459.575 249.499 459.532 249.675 459.461 249.838C459.393 250.002 459.301 250.148 459.184 250.276C459.069 250.404 458.93 250.514 458.767 250.605C458.606 250.696 458.425 250.763 458.224 250.807C458.288 250.851 458.346 250.902 458.398 250.961C458.451 251.018 458.498 251.084 458.538 251.16L459.774 253.344Z" fill="#383192"/>
<path d="M455.049 248.181L453.359 248.044L452.973 252.793L451.931 252.708L452.316 247.959L450.626 247.822L450.695 246.965L455.118 247.324L455.049 248.181Z" fill="#383192"/>
<path d="M449.955 246.905L449.5 252.51L448.965 252.467C448.882 252.46 448.814 252.442 448.759 252.411C448.707 252.378 448.658 252.328 448.611 252.259L445.988 248.284C445.989 248.456 445.984 248.614 445.973 248.759L445.693 252.202L444.775 252.127L445.229 246.521L445.776 246.566C445.82 246.569 445.857 246.575 445.888 246.583C445.921 246.588 445.949 246.598 445.971 246.613C445.996 246.625 446.019 246.644 446.041 246.669C446.062 246.692 446.086 246.722 446.111 246.761L448.745 250.752C448.745 250.661 448.746 250.571 448.748 250.483C448.75 250.394 448.754 250.313 448.76 250.238L449.036 246.83L449.955 246.905Z" fill="#383192"/>
<path d="M441.345 251.002C441.546 251.018 441.728 250.999 441.892 250.945C442.057 250.891 442.199 250.807 442.318 250.695C442.436 250.582 442.531 250.441 442.602 250.273C442.675 250.104 442.721 249.913 442.738 249.699L443.01 246.341L444.053 246.426L443.781 249.783C443.754 250.117 443.674 250.421 443.543 250.696C443.414 250.97 443.24 251.201 443.022 251.392C442.806 251.58 442.55 251.72 442.254 251.813C441.958 251.904 441.63 251.934 441.271 251.905C440.909 251.876 440.59 251.793 440.312 251.656C440.035 251.516 439.803 251.336 439.618 251.115C439.436 250.893 439.302 250.636 439.217 250.345C439.134 250.052 439.106 249.739 439.133 249.406L439.405 246.049L440.448 246.133L440.176 249.487C440.159 249.701 440.171 249.897 440.214 250.075C440.259 250.253 440.331 250.408 440.43 250.541C440.531 250.672 440.658 250.777 440.81 250.857C440.965 250.937 441.143 250.986 441.345 251.002Z" fill="#383192"/>
<path d="M438.332 248.783C438.299 249.194 438.199 249.569 438.034 249.91C437.871 250.248 437.655 250.534 437.386 250.77C437.117 251.006 436.803 251.182 436.442 251.298C436.082 251.412 435.688 251.452 435.262 251.417C434.838 251.383 434.457 251.28 434.12 251.11C433.783 250.937 433.499 250.712 433.269 250.436C433.042 250.16 432.874 249.842 432.765 249.482C432.657 249.119 432.619 248.733 432.653 248.322C432.686 247.911 432.785 247.537 432.951 247.199C433.116 246.858 433.333 246.57 433.602 246.335C433.874 246.099 434.19 245.924 434.55 245.811C434.911 245.694 435.303 245.653 435.727 245.688C436.011 245.711 436.276 245.766 436.521 245.854C436.766 245.939 436.989 246.05 437.188 246.189C437.388 246.325 437.564 246.486 437.715 246.672C437.869 246.857 437.996 247.059 438.095 247.281C438.194 247.502 438.263 247.739 438.302 247.992C438.344 248.245 438.354 248.509 438.332 248.783ZM437.266 248.696C437.291 248.389 437.272 248.11 437.209 247.86C437.146 247.608 437.045 247.391 436.907 247.208C436.768 247.025 436.593 246.879 436.38 246.771C436.17 246.663 435.929 246.598 435.655 246.575C435.381 246.553 435.13 246.578 434.903 246.651C434.679 246.724 434.482 246.839 434.313 246.997C434.147 247.155 434.012 247.354 433.91 247.593C433.807 247.829 433.744 248.101 433.719 248.408C433.694 248.716 433.713 248.996 433.776 249.248C433.838 249.498 433.939 249.714 434.078 249.897C434.219 250.077 434.395 250.222 434.605 250.33C434.817 250.438 435.06 250.503 435.334 250.526C435.608 250.548 435.857 250.522 436.082 250.45C436.309 250.377 436.505 250.263 436.671 250.107C436.838 249.949 436.972 249.752 437.074 249.516C437.177 249.277 437.241 249.004 437.266 248.696Z" fill="#383192"/>
<path d="M431.711 249.736C431.768 249.74 431.816 249.766 431.857 249.814L432.232 250.293C431.981 250.556 431.683 250.749 431.338 250.872C430.995 250.995 430.591 251.038 430.126 251C429.71 250.966 429.341 250.865 429.019 250.696C428.699 250.527 428.433 250.306 428.218 250.034C428.003 249.761 427.847 249.444 427.749 249.082C427.653 248.721 427.622 248.332 427.656 247.916C427.69 247.495 427.789 247.115 427.952 246.777C428.114 246.437 428.328 246.15 428.591 245.916C428.857 245.683 429.165 245.51 429.515 245.398C429.865 245.283 430.246 245.243 430.657 245.276C431.065 245.309 431.421 245.406 431.726 245.566C432.033 245.726 432.288 245.923 432.493 246.159L432.105 246.615C432.082 246.644 432.052 246.669 432.017 246.69C431.984 246.71 431.939 246.718 431.882 246.714C431.843 246.711 431.804 246.697 431.764 246.673C431.725 246.646 431.682 246.616 431.635 246.581C431.589 246.543 431.535 246.502 431.474 246.458C431.412 246.414 431.34 246.373 431.257 246.335C431.175 246.295 431.077 246.26 430.965 246.23C430.856 246.197 430.728 246.175 430.581 246.163C430.33 246.143 430.096 246.17 429.88 246.243C429.666 246.314 429.477 246.429 429.313 246.587C429.15 246.743 429.017 246.94 428.914 247.179C428.811 247.415 428.748 247.69 428.722 248.003C428.697 248.318 428.718 248.602 428.786 248.854C428.856 249.107 428.961 249.324 429.1 249.504C429.239 249.685 429.408 249.828 429.607 249.936C429.807 250.04 430.025 250.102 430.263 250.122C430.405 250.133 430.534 250.136 430.649 250.129C430.766 250.123 430.874 250.107 430.973 250.082C431.074 250.056 431.169 250.021 431.258 249.976C431.351 249.929 431.443 249.87 431.534 249.799C431.562 249.778 431.59 249.762 431.62 249.752C431.65 249.739 431.68 249.733 431.711 249.736Z" fill="#383192"/>
</g>
</svg>
