<svg width="150" height="150" viewBox="0 0 81 80" fill="none" xmlns="http://www.w3.org/2000/svg">
<path fill-rule="evenodd" clip-rule="evenodd" d="M59.9014 22.0112C59.9014 12.8089 53.5781 5.07235 45.0078 2.84579C43.9728 1.14051 42.089 0 39.9366 0C37.7843 0 35.9004 1.14051 34.8654 2.84579C26.2951 5.07235 19.9718 12.8089 19.9718 22.0112V25.6797H19.2324C17.5989 25.6797 16.2746 26.9936 16.2746 28.6144C16.2746 30.2352 17.5989 31.5493 19.2324 31.5493H21.3803H58.4929H60.6408C62.2743 31.5493 63.5986 30.2352 63.5986 28.6144C63.5986 26.9936 62.2743 25.6797 60.6408 25.6797H59.9014V22.0112ZM14.8779 80H0.5C1.27654 77.0736 2.16676 74.4812 3.14542 72.1724C6.6596 63.8144 11.6815 59.0961 16.3379 56.9421C19.4113 55.4943 22.108 55.208 23.6451 55.2113C24.1967 55.2113 24.6107 55.2476 24.8696 55.2759L24.8766 55.2776L24.8797 55.2781L24.8835 55.2792H27.8374L29.9608 70.7802L38.4042 61.2805L32.6038 55.28H48.3899L42.5895 61.2805L51.0329 70.7802L53.1563 55.28H56.1067L56.1154 55.2784L56.124 55.2767C56.383 55.2468 56.7969 55.2137 57.3486 55.2137C58.8865 55.2088 61.5806 55.4952 64.654 56.9413C67.7309 58.3731 71.058 60.9587 73.9028 64.9898C76.501 68.6966 78.7832 73.5253 80.5 80H66.1207C65.9049 79.3522 65.6847 78.7398 65.4611 78.1616C64.9511 76.8461 64.4315 75.7191 63.9205 74.7351V80H17.0775V74.7004C16.3315 76.1259 15.5822 77.8755 14.8779 80ZM57.6335 42.2598C58.5961 39.9359 59.0916 37.445 59.0916 34.9296H39.9366H20.7817C20.7817 37.445 21.2772 39.9359 22.2398 42.2598C23.2024 44.5838 24.6133 46.6954 26.392 48.4741C28.1707 50.2528 30.2824 51.6637 32.6063 52.6265C34.9303 53.5891 37.4211 54.0845 39.9366 54.0845C42.4521 54.0845 44.9429 53.5891 47.2669 52.6265C49.5909 51.6637 51.7025 50.2528 53.4812 48.4741C55.2599 46.6954 56.6708 44.5838 57.6335 42.2598Z" fill="#17213A"/>
</svg>
