<svg width="48" height="48" viewBox="0 0 48 48" fill="none" xmlns="http://www.w3.org/2000/svg">
<path id="Vector" d="M19.7334 30.0205H28.2666C29.5394 30.0218 30.7597 30.539 31.6596 31.4585C32.5595 32.3779 33.0654 33.6245 33.0662 34.9246V43.0959C33.0662 43.9962 33.7858 44.7295 34.6672 44.7295H43.2003C43.6242 44.7286 44.0305 44.5562 44.3303 44.25C44.63 43.9439 44.7988 43.5289 44.7997 43.0959V21.7189C44.8 21.4832 44.7503 21.2502 44.654 21.036C44.5578 20.8217 44.4172 20.6313 44.242 20.4779L25.0417 3.6693C24.7526 3.41311 24.3827 3.27206 24 3.27206C23.6173 3.27206 23.2474 3.41311 22.9583 3.6693L3.75961 20.4762C3.58395 20.6294 3.44296 20.8197 3.3464 21.0339C3.24983 21.2482 3.19999 21.4814 3.20033 21.7173V43.0942C3.20119 43.5272 3.36997 43.9422 3.66972 44.2484C3.96947 44.5545 4.37577 44.7269 4.79967 44.7278H13.3344C13.7583 44.7269 14.1646 44.5545 14.4644 44.2484C14.7641 43.9422 14.9329 43.5272 14.9338 43.0942V34.9246C14.9351 33.6247 15.4411 32.3783 16.3409 31.4589C17.2407 30.5396 18.4607 30.0223 19.7334 30.0205ZM43.2003 47.9983H34.6672C33.3947 47.997 32.1746 47.4801 31.2748 46.561C30.3749 45.6419 29.8688 44.3957 29.8675 43.0959V34.9246C29.8675 34.4908 29.6989 34.0747 29.3987 33.7677C29.0985 33.4608 28.6913 33.2881 28.2666 33.2877H19.7334C19.309 33.2886 18.9022 33.4614 18.6023 33.7683C18.3025 34.0752 18.1341 34.4911 18.1341 34.9246V43.0959C18.1324 44.3956 17.6261 45.6415 16.7264 46.5605C15.8267 47.4795 14.6068 47.9966 13.3344 47.9983H4.79967C3.52725 47.9966 2.30744 47.4795 1.4077 46.5605C0.507965 45.6415 0.0017306 44.3956 0 43.0959V21.7189C0 20.2858 0.611611 18.9278 1.67621 17.9941L20.8765 1.18885C21.7443 0.422027 22.8534 0 24.0008 0C25.1483 0 26.2573 0.422027 27.1251 1.18885L46.3254 17.9974C46.851 18.4579 47.2729 19.029 47.5619 19.6717C47.851 20.3144 48.0004 21.0134 48 21.7206V43.0976C47.9987 44.3974 47.4926 45.6435 46.5928 46.5626C45.6929 47.4817 44.4729 47.9987 43.2003 48V47.9983Z" fill="url(#paint0_linear_699_110767)"/>
<defs>
<linearGradient id="paint0_linear_699_110767" x1="0" y1="0" x2="50.7001" y2="47.2184" gradientUnits="userSpaceOnUse">
<stop stop-color="#3AC5EC"/>
<stop offset="1" stop-color="#C547E9"/>
</linearGradient>
</defs>
</svg>
