<svg width="48" height="48" viewBox="0 0 48 48" fill="none" xmlns="http://www.w3.org/2000/svg">
<path fill-rule="evenodd" clip-rule="evenodd" d="M25.4161 0.949724C24.2068 -0.316575 22.2467 -0.316575 21.0374 0.949724L0.454186 22.5141C-0.151395 23.1487 -0.151395 24.1773 0.454186 24.8119C1.05977 25.4466 2.04126 25.4466 2.64684 24.8119L4.64732 22.7126V39.8886C4.64732 42.5774 6.72748 44.7564 9.29229 44.7564H21.6786C22.5344 44.7564 23.2272 44.0294 23.2272 43.1335C23.2272 42.2365 22.5335 41.5106 21.6786 41.5106H9.29323C8.43735 41.5106 7.74459 40.7836 7.74459 39.8877V19.4677L23.2263 3.2436L43.8057 24.8129C44.4113 25.4475 45.3928 25.4475 45.9984 24.8129C46.6039 24.1783 46.6039 23.1497 45.9984 22.5151L38.7098 14.88V4.19455C38.7098 3.29763 38.0161 2.57165 37.1612 2.57165H34.0648C33.209 2.57165 32.5162 3.29861 32.5162 4.19455V8.38935L25.4161 0.949724ZM24.0018 34.0932C24.0018 29.9185 26.8369 26.4 31.1499 26.4C32.8851 26.4 34.4179 27.2355 36.0017 28.6959C37.6263 27.2217 39.2842 26.4 41.0059 26.4C45.3323 26.4 48.0677 29.9358 47.9987 34.1063C47.9583 36.5511 46.2545 39.1197 44.0881 41.4158C41.8844 43.7513 39.0445 45.9678 36.4243 47.7164L35.9993 48L35.5744 47.7163C32.9591 45.9704 30.1015 43.7752 27.8881 41.4493C25.7118 39.1623 24.0018 36.5885 24.0018 34.0932Z" fill="url(#paint0_linear_14598_8054)"/>
<defs>
<linearGradient id="paint0_linear_14598_8054" x1="0" y1="0" x2="50.7001" y2="47.2184" gradientUnits="userSpaceOnUse">
<stop stop-color="#3AC5EC"/>
<stop offset="1" stop-color="#C547E9"/>
</linearGradient>
</defs>
</svg>
