<svg width="48" height="48" viewBox="0 0 48 48" fill="none" xmlns="http://www.w3.org/2000/svg">
<path id="Intersect" fill-rule="evenodd" clip-rule="evenodd" d="M8.04197 48H0C0.134802 46.6059 0.311181 45.2735 0.535935 43.8967C2.27483 32.9373 6.31719 26.5687 12.5501 24.8584C13.4986 24.6109 15.7343 24.5434 24.4514 24.5884L24.4751 24.5885C35.0881 24.6334 35.1793 24.6338 36.4655 25.151C42.9345 27.7468 46.7325 35.2499 48 48H39.9511C39.6323 44.7618 39.0815 42.3491 38.1593 39.486L37.4366 37.2356L37.4036 48H27.724L27.2291 44.3693L25.9193 34.7601H24.0675H22.1931L22.0802 35.4353C22.0124 35.7953 21.4478 39.846 20.8381 44.4368C20.6711 45.6882 20.5074 46.8974 20.3569 48H10.5958L10.5628 37.2356L9.84015 39.4185C9.15393 41.4906 8.52515 44.4214 8.04197 48ZM26.2128 30.3044L26.6871 32.0597L26.2354 32.4422C25.1514 33.3649 23.0512 33.4099 21.8543 32.5323C21.4478 32.2397 21.4478 32.1947 21.8543 30.3944L22.2608 28.5716H23.9997H25.7386L26.2128 30.3044ZM20.5671 0.419177C18.0378 1.22932 15.373 3.47971 14.1987 5.79761C10.4048 13.2689 15.6666 21.9104 23.9997 21.8879C27.2517 21.8654 29.8713 20.7852 32.0393 18.5348C37.6173 12.7513 35.0654 2.78208 27.4098 0.44168C25.5354 -0.143421 22.3738 -0.143421 20.5671 0.419177Z" fill="url(#paint0_linear_677_18123)"/>
<defs>
<linearGradient id="paint0_linear_677_18123" x1="0" y1="0" x2="50.7001" y2="47.2184" gradientUnits="userSpaceOnUse">
<stop stop-color="#3AC5EC"/>
<stop offset="1" stop-color="#C547E9"/>
</linearGradient>
</defs>
</svg>
