<svg width="48" height="48" viewBox="0 0 48 48" fill="none" xmlns="http://www.w3.org/2000/svg">
<path fill-rule="evenodd" clip-rule="evenodd" d="M47.1366 48C47.6132 48 48 47.6039 48 47.1138V0.886154C48 0.396111 47.6132 0 47.1366 0H23.0173C22.5407 0 22.1538 0.396111 22.1538 0.886154V19.7592C22.1538 20.2492 22.5407 20.6453 23.0173 20.6453C23.4939 20.6453 23.8807 20.2492 23.8807 19.7592V1.77231H46.2732V46.2277H38.7692V37.8657C38.7692 37.3892 38.3983 37.0148 37.9448 37.0148H32.2316C31.7781 37.0148 31.4072 37.3892 31.4072 37.8657V46.2277H27.3297V37.7647C27.3297 37.2706 26.9348 36.8713 26.4481 36.8713C25.9614 36.8713 25.5665 37.2706 25.5665 37.7647V46.2131H20.7639V39.3888C20.7639 36.6319 18.5956 34.3855 15.9245 34.3855C13.2452 34.3855 11.0769 36.6319 11.0769 39.3888V46.2131H5.79168V37.7888C5.79168 37.2948 5.39672 36.8954 4.91006 36.8954C4.42341 36.8954 4.02844 37.2948 4.02844 37.7888V47.1066C4.02844 47.6006 4.42341 48 4.91006 48H25.5514H26.4481H47.1366ZM17.5896 17.3692L30.6367 31.004H30.6385C31.1304 31.5178 31.3949 32.1959 31.3843 32.9115C31.3728 33.6272 31.0881 34.2955 30.5803 34.794C30.0848 35.2819 29.4315 35.5508 28.7394 35.5508C28.0174 35.5508 27.3438 35.2622 26.8413 34.7369L15.6923 23.0864L4.54331 34.7369C4.05136 35.2506 3.39103 35.5392 2.68485 35.5508C1.97161 35.549 1.30952 35.2926 0.803464 34.7931C0.296531 34.2964 0.010885 33.6281 0.000305516 32.9115C-0.010274 32.1959 0.254213 31.5178 0.746158 31.004L13.7933 17.3692C14.7569 16.3641 16.6268 16.3641 17.5896 17.3692ZM28.7453 27.6923H32.5269C32.9156 27.6923 33.2308 28.0075 33.2308 28.3962V32.5268C33.2308 32.9156 32.9156 33.2308 32.5269 33.2308H32.2898C32.2998 33.1297 32.3057 33.0277 32.3073 32.9252C32.3214 31.9696 31.9667 31.0565 31.3052 30.3656L31.031 30.081L28.7453 27.6923ZM28.3962 9.23077H32.5268C32.9156 9.23077 33.2308 9.54597 33.2308 9.93478V14.0652C33.2308 14.454 32.9156 14.7692 32.5268 14.7692H28.3962C28.0075 14.7692 27.6923 14.454 27.6923 14.0652V9.93478C27.6923 9.54597 28.0075 9.23077 28.3962 9.23077ZM43.3691 9.23077H37.8616C37.3433 9.23077 36.9231 9.54597 36.9231 9.93478V14.0652C36.9231 14.454 37.3433 14.7692 37.8616 14.7692H43.3691C43.8875 14.7692 44.3077 14.454 44.3077 14.0652V9.93478C44.3077 9.54597 43.8875 9.23077 43.3691 9.23077ZM37.8616 27.6923H43.3691C43.8875 27.6923 44.3077 28.0075 44.3077 28.3962V32.5268C44.3077 32.9156 43.8875 33.2308 43.3691 33.2308H37.8616C37.3433 33.2308 36.9231 32.9156 36.9231 32.5268V28.3962C36.9231 28.0075 37.3433 27.6923 37.8616 27.6923ZM32.5268 18.4615H28.3962C28.0075 18.4615 27.6923 18.7767 27.6923 19.1655V23.2961C27.6923 23.6848 28.0075 24 28.3962 24H32.5268C32.9156 24 33.2308 23.6848 33.2308 23.2961V19.1655C33.2308 18.7767 32.9156 18.4615 32.5268 18.4615ZM37.8616 18.4615H43.3691C43.8875 18.4615 44.3077 18.7767 44.3077 19.1655V23.2961C44.3077 23.6848 43.8875 24 43.3691 24H37.8616C37.3433 24 36.9231 23.6848 36.9231 23.2961V19.1655C36.9231 18.7767 37.3433 18.4615 37.8616 18.4615Z" fill="url(#paint0_linear_12442_6505)"/>
<defs>
<linearGradient id="paint0_linear_12442_6505" x1="0" y1="0" x2="50.7001" y2="47.2184" gradientUnits="userSpaceOnUse">
<stop stop-color="#3AC5EC"/>
<stop offset="1" stop-color="#C547E9"/>
</linearGradient>
</defs>
</svg>
