<svg width="16" height="16" viewBox="0 0 16 16" fill="none" xmlns="http://www.w3.org/2000/svg">
<path d="M7.77649 0.0235472C7.62649 0.051672 7.47805 0.111046 7.36086 0.187608C7.24212 0.265733 0.0452886 7.46412 0.0171638 7.53443C0.00310143 7.56725 -0.00314853 7.62506 0.00153894 7.69068C0.0077889 7.81881 0.0640385 7.90787 0.170288 7.96881L0.2406 8.00787L1.12028 8.01255L1.9984 8.01724V11.8922C1.9984 15.4297 1.99996 15.7719 2.0234 15.8172C2.05934 15.8875 2.10621 15.9359 2.1734 15.9703C2.22965 16 2.3234 16 5.83119 16H9.43116L9.49991 15.9641C9.63116 15.8938 9.70304 15.7031 9.6546 15.5547C9.6296 15.4781 9.55147 15.3922 9.47491 15.3578C9.41554 15.3297 9.26866 15.3281 6.04212 15.3281H2.67027V11.4563C2.67027 7.72193 2.66871 7.58443 2.64058 7.5235C2.62496 7.48912 2.59215 7.44225 2.56715 7.41881C2.47183 7.32975 2.4609 7.32818 1.78434 7.32818H1.16247L4.4437 4.04539C6.37962 2.10947 7.74992 0.750104 7.78742 0.729792C7.87649 0.681355 8.11867 0.679792 8.20773 0.72823C8.24055 0.745417 8.82648 1.31885 9.52804 2.01885C10.2202 2.71103 10.8124 3.29071 10.8421 3.30634C10.878 3.32509 10.9312 3.33446 10.9983 3.33602C11.1312 3.33602 11.228 3.2829 11.2905 3.17509L11.3343 3.10165L11.339 1.88603L11.3421 0.67198H12.3343H13.3264V3.20634C13.3264 5.71882 13.328 5.74226 13.3593 5.81257C13.3827 5.86569 13.5671 6.05944 14.1124 6.60475L14.8343 7.32818H14.2124C13.5358 7.32818 13.5249 7.32975 13.4296 7.41881C13.3421 7.50162 13.3264 7.55943 13.3264 7.83443C13.3264 8.0563 13.3296 8.09224 13.3593 8.15162C13.4811 8.40318 13.8389 8.40474 13.9686 8.15318C13.9843 8.12037 13.9983 8.07818 13.9983 8.0563V8.01724L14.8702 8.01255L15.7421 8.00787L15.8186 7.96724C15.9342 7.90943 15.9874 7.82349 15.9952 7.68912C15.9999 7.60943 15.9952 7.56725 15.9733 7.52193C15.9546 7.48131 15.6217 7.136 14.9764 6.48913L14.0061 5.51726L13.9983 2.86103L13.9905 0.206358L13.9436 0.137609C13.9171 0.101671 13.8671 0.0547962 13.8343 0.036047L13.7718 0.000109673H12.3374C10.7358 0.000109673 10.8483 -0.00770378 10.7421 0.109484C10.7124 0.142296 10.6812 0.196983 10.6718 0.229795C10.6608 0.268858 10.6546 0.614168 10.6546 1.22823V2.16572L9.76866 1.27666C9.2796 0.787604 8.8296 0.343857 8.7671 0.28917C8.63898 0.178233 8.44992 0.0782337 8.29836 0.0391712C8.15617 0.00323486 7.92024 -0.00457764 7.77649 0.0235472Z" fill="#17213A"/>
<path d="M5.52151 8.02195C5.4512 8.05164 5.37933 8.13132 5.3512 8.20632C5.32777 8.26726 5.3262 8.50007 5.32933 10.6969L5.33402 13.1188L5.3762 13.1844C5.39964 13.2188 5.45277 13.2688 5.49339 13.2922L5.56839 13.336L6.63557 13.3407C7.35744 13.3438 7.72306 13.3391 7.76525 13.3282C7.90275 13.2907 7.99806 13.1563 7.99806 13C7.99806 12.8391 7.90275 12.711 7.75431 12.6735C7.71056 12.6625 7.39963 12.6563 6.84338 12.6563H5.99807V10.6641V8.67194H8.20118C10.6168 8.67194 10.4637 8.67819 10.5668 8.58132C10.7355 8.42195 10.684 8.11101 10.4715 8.02195C10.398 7.9907 5.59183 7.9907 5.52151 8.02195Z" fill="#17213A"/>
<path d="M12.0143 8.67351C10.7315 8.78601 9.59713 9.56569 9.02995 10.7266C8.47526 11.8625 8.54714 13.2079 9.21745 14.2813C9.42057 14.6078 9.77369 15 10.0612 15.2219C10.6174 15.65 11.2299 15.9 11.9237 15.986C12.1284 16.011 12.7221 15.9969 12.9205 15.9625C13.7971 15.8094 14.5862 15.3657 15.1268 14.7188C15.5908 14.1641 15.8643 13.5579 15.969 12.8532C16.0065 12.6 16.0096 12.1188 15.9768 11.8657C15.7971 10.511 14.8924 9.36882 13.6159 8.8907C13.1221 8.70476 12.5471 8.62663 12.0143 8.67351ZM12.6518 9.361C12.9909 9.39694 13.2971 9.486 13.6237 9.64225C14.9783 10.2922 15.6424 11.85 15.1705 13.2688C14.7924 14.4047 13.8002 15.1922 12.5924 15.3141C11.9909 15.375 11.3018 15.2094 10.7627 14.875C9.88463 14.3297 9.34244 13.361 9.34244 12.336C9.34244 10.9391 10.3206 9.72194 11.6877 9.41569C11.9987 9.34694 12.3424 9.32663 12.6518 9.361Z" fill="#17213A"/>
<path d="M12.2278 10.6766C12.1481 10.7031 12.0668 10.7703 12.0293 10.8438C11.9997 10.9016 11.9981 10.936 11.9981 11.4531V12H11.4512C10.9372 12 10.8997 12.0016 10.8434 12.0313C10.6153 12.1469 10.5965 12.4672 10.8075 12.6172L10.8762 12.6641L11.4356 12.6688L11.9965 12.6734L12.0012 13.2344L12.0059 13.7938L12.0528 13.8625C12.1872 14.0531 12.4746 14.0516 12.6137 13.8625L12.6621 13.7938L12.6668 13.2328L12.6715 12.6719H13.1996C13.5606 12.6719 13.745 12.6656 13.7809 12.6531C13.92 12.6063 14.0012 12.4859 14.0012 12.3281C14.0012 12.2125 13.9543 12.1219 13.8606 12.0547L13.7918 12.0078L13.2325 12.0031L12.6715 11.9985L12.6668 11.4375L12.6621 10.8781L12.6153 10.8094C12.5293 10.6891 12.3637 10.6313 12.2278 10.6766Z" fill="#17213A"/>
</svg>
