<svg width="24" height="24" viewBox="0 0 24 24" fill="none" xmlns="http://www.w3.org/2000/svg">
<g clip-path="url(#clip0_1472_35673)">
<path d="M23.4068 3.00079C23.349 3.00226 23.2886 3.01135 23.2272 3.02808L18.841 4.26615L2.0341 9.01154C2.03229 9.0133 2.03229 9.01477 2.02926 9.01477L2.01989 9.01624C1.03525 9.27594 0.345454 9.73754 0.0890113 10.4025C-0.0392098 10.737 -0.0298352 11.1223 0.123183 11.4448C0.274388 11.7673 0.545346 12.027 0.884043 12.2169L5.5242 14.1915L15.2533 9.63806C15.2705 9.63043 15.2881 9.62603 15.3053 9.62456C15.4583 9.61047 15.5321 9.80004 15.4093 9.88837L8.30272 15.0299C8.04295 15.1766 7.87935 15.5297 7.87935 15.8187V20.7355C8.06352 21.0257 8.47116 21.0885 8.73759 20.867L12.5107 17.8045L12.5237 17.7951L10.2303 16.8109C9.64421 16.56 10.076 15.7744 10.5989 15.9995L13.7146 17.337C13.7554 17.3523 13.7932 17.3717 13.828 17.3981L16.4847 18.5367C16.7765 18.5766 17.0441 18.5807 17.2897 18.5396C17.6883 18.4739 18.0285 18.2799 18.2583 18.0396C18.7195 17.5598 18.8365 17.0051 19.0379 16.6137L23.9632 3.80719C24.1063 3.28925 23.8132 2.9823 23.4068 3.00079Z" fill="#F3F4F6"/>
</g>
<defs>
<clipPath id="clip0_1472_35673">
<rect width="24" height="24" fill="white"/>
</clipPath>
</defs>
</svg>
