<svg width="32" height="32" viewBox="0 0 32 32" fill="none" xmlns="http://www.w3.org/2000/svg">
<path fill-rule="evenodd" clip-rule="evenodd" d="M23.7606 8.80447C23.7606 5.12357 21.2313 2.02894 17.8031 1.13831C17.3891 0.456206 16.6356 0 15.7746 0C14.9137 0 14.1602 0.456206 13.7462 1.13831C10.318 2.02894 7.78873 5.12357 7.78873 8.80447V10.2719H7.49296C6.83957 10.2719 6.30986 10.7974 6.30986 11.4458C6.30986 12.0941 6.83957 12.6197 7.49296 12.6197H8.35213H23.1972H24.0563C24.7097 12.6197 25.2394 12.0941 25.2394 11.4458C25.2394 10.7974 24.7097 10.2719 24.0563 10.2719H23.7606V8.80447ZM5.75114 32H0C0.310616 30.8294 0.666703 29.7925 1.05817 28.8689C2.46384 25.5257 4.47259 23.6384 6.33515 22.7768C7.56451 22.1977 8.64318 22.0832 9.25805 22.0845C9.47869 22.0845 9.64427 22.099 9.74784 22.1104L9.75063 22.111L9.75338 22.1117H10.9349L11.7843 28.3121L15.1617 24.5122L12.8415 22.112H16.4423C16.1553 22.9857 16 23.9192 16 24.8889C16 27.7966 17.3962 30.3783 19.5547 32H6.63098V29.8802C6.33258 30.4504 6.03289 31.1502 5.75114 32ZM23.1123 16.1776C20.1558 16.7773 17.7321 18.8443 16.6341 21.5855C16.3493 21.6176 16.0624 21.6338 15.7746 21.6338C14.7685 21.6338 13.7721 21.4356 12.8425 21.0506C11.9129 20.6655 11.0683 20.1011 10.3568 19.3896C9.64533 18.6781 9.08096 17.8335 8.6959 16.9039C8.31086 15.9744 8.11268 14.978 8.11268 13.9718H15.7746H23.4366C23.4366 14.7203 23.3269 15.4634 23.1123 16.1776ZM24.8889 24.2293C24.3964 24.2293 24 24.6471 24 25.1595V31.0698C24 31.5852 24.3993 32 24.8889 32C25.3814 32 25.7778 31.5822 25.7778 31.0698V25.1595C25.7778 24.6441 25.3814 24.2293 24.8889 24.2293ZM21.0933 31.346C21.517 31.6217 22.0741 31.4899 22.3407 31.0549C22.6074 30.6168 22.48 30.0409 22.0593 29.7652C20.5096 28.7542 19.5852 27.0203 19.5852 25.1301C19.5852 22.1095 21.9644 19.6496 24.8889 19.6496C27.8104 19.6496 30.1896 22.1065 30.1896 25.1301C30.1896 27.0418 29.2504 28.7849 27.677 29.7928C27.2533 30.0654 27.12 30.6413 27.3837 31.0825C27.6474 31.5206 28.2044 31.6584 28.6311 31.3858C30.7407 30.0317 32 27.6943 32 25.1271C32 21.0741 28.8118 17.7778 24.8919 17.7778C20.9689 17.7778 17.7778 21.0741 17.7778 25.1271C17.7778 27.6667 19.0163 29.9888 21.0933 31.346Z" fill="white"/>
</svg>
