<svg width="24" height="24" viewBox="0 0 24 24" fill="none" xmlns="http://www.w3.org/2000/svg">
<g clip-path="url(#clip0_1472_35668)">
<path d="M8.69 23.9996C10.8601 23.999 12.9412 23.0861 14.4754 21.4618L23.6492 11.7532C23.759 11.641 23.8465 11.5068 23.9067 11.3584C23.9669 11.2101 23.9986 11.0505 24 10.8891C24.0013 10.7276 23.9722 10.5675 23.9144 10.418C23.8567 10.2686 23.7713 10.1328 23.6635 10.0186C23.5556 9.90446 23.4273 9.81417 23.2861 9.75303C23.1449 9.69189 22.9936 9.66112 22.841 9.66252C22.6884 9.66393 22.5376 9.69747 22.3975 9.7612C22.2573 9.82493 22.1305 9.91757 22.0245 10.0337L12.8506 19.7436C11.8378 20.8535 10.4596 21.5074 9.00281 21.5692C7.54599 21.6311 6.12274 21.0961 5.02919 20.0755C4.4952 19.5435 4.06765 18.9033 3.7719 18.193C3.47615 17.4827 3.31823 16.7168 3.30751 15.9407C3.29679 15.1646 3.4335 14.3941 3.70951 13.675C3.98552 12.9559 4.39522 12.3027 4.91429 11.7544L12.7277 3.48548C13.3437 2.85249 14.1704 2.50141 15.029 2.50811C15.8876 2.51481 16.7092 2.87875 17.3164 3.5213C17.9235 4.16384 18.2674 5.03339 18.2738 5.94206C18.2801 6.85073 17.9484 7.72555 17.3502 8.3775L9.53683 16.6464C9.33513 16.8487 9.06784 16.9614 8.78996 16.9614C8.51209 16.9614 8.24479 16.8487 8.04309 16.6464C7.84662 16.4359 7.73644 16.1519 7.73644 15.856C7.73644 15.5601 7.84662 15.2761 8.04309 15.0656L14.2904 8.45411C14.5061 8.22449 14.6269 7.91356 14.626 7.58974C14.6251 7.26591 14.5027 6.95571 14.2858 6.72737C14.0688 6.49904 13.775 6.37127 13.469 6.37219C13.163 6.3731 12.8699 6.50261 12.6542 6.73224L6.40688 13.3413C5.7784 14.0084 5.42549 14.9121 5.42549 15.8542C5.42549 16.7962 5.7784 17.6999 6.40688 18.367C7.04642 19.0132 7.8966 19.3737 8.78077 19.3737C9.66494 19.3737 10.5151 19.0132 11.1547 18.367L18.9681 10.0982C19.4935 9.55289 19.9116 8.90277 20.1981 8.18542C20.4846 7.46807 20.6339 6.69772 20.6373 5.91893C20.6407 5.14013 20.4982 4.36835 20.218 3.64822C19.9378 2.92808 19.5254 2.27389 19.0048 1.72348C18.4842 1.17306 17.8656 0.737348 17.1848 0.441536C16.5041 0.145724 15.7747 -0.00431615 15.0388 9.44915e-05C14.3029 0.00450514 13.5751 0.163279 12.8976 0.467232C12.22 0.771185 11.6062 1.21429 11.0915 1.77091L3.27807 10.0398C2.54176 10.8186 1.96078 11.7461 1.56961 12.7671C1.17843 13.7881 0.985041 14.8818 1.0009 15.9834C1.01676 17.0851 1.24155 18.1721 1.66194 19.18C2.08232 20.1879 2.68973 21.0962 3.44812 21.8509C4.87125 23.2506 6.74728 24.0196 8.69 23.9996Z" fill="#A4A4A4"/>
</g>
<defs>
<clipPath id="clip0_1472_35668">
<rect width="24" height="24" fill="white"/>
</clipPath>
</defs>
</svg>
