<svg width="22" height="21" viewBox="0 0 22 21" fill="none" xmlns="http://www.w3.org/2000/svg">
<path d="M19.2503 12.2499C19.0072 12.2499 18.7741 12.3421 18.6022 12.5062C18.4303 12.6703 18.3337 12.8928 18.3337 13.1249V16.6249C18.3337 16.8569 18.2371 17.0795 18.0652 17.2436C17.8933 17.4077 17.6601 17.4999 17.417 17.4999H4.58368C4.34056 17.4999 4.10741 17.4077 3.9355 17.2436C3.76359 17.0795 3.66701 16.8569 3.66701 16.6249V13.1249C3.66701 12.8928 3.57044 12.6703 3.39853 12.5062C3.22662 12.3421 2.99346 12.2499 2.75035 12.2499C2.50723 12.2499 2.27407 12.3421 2.10216 12.5062C1.93026 12.6703 1.83368 12.8928 1.83368 13.1249V16.6249C1.83368 17.3211 2.12341 17.9888 2.63914 18.481C3.15486 18.9733 3.85433 19.2499 4.58368 19.2499H17.417C18.1464 19.2499 18.8458 18.9733 19.3616 18.481C19.8773 17.9888 20.167 17.3211 20.167 16.6249V13.1249C20.167 12.8928 20.0704 12.6703 19.8985 12.5062C19.7266 12.3421 19.4935 12.2499 19.2503 12.2499ZM10.3495 13.7461C10.4367 13.8258 10.5395 13.8882 10.652 13.9299C10.7617 13.9762 10.8804 14.0001 11.0003 14.0001C11.1203 14.0001 11.239 13.9762 11.3487 13.9299C11.4612 13.8882 11.564 13.8258 11.6512 13.7461L15.3178 10.2461C15.4905 10.0814 15.5874 9.85789 15.5874 9.62488C15.5874 9.39187 15.4905 9.16839 15.3178 9.00363C15.1452 8.83886 14.9111 8.7463 14.667 8.7463C14.4229 8.7463 14.1888 8.83886 14.0162 9.00363L11.917 11.0161V2.62488C11.917 2.39281 11.8204 2.17025 11.6485 2.00616C11.4766 1.84207 11.2435 1.74988 11.0003 1.74988C10.7572 1.74988 10.5241 1.84207 10.3522 2.00616C10.1803 2.17025 10.0837 2.39281 10.0837 2.62488V11.0161L7.98451 9.00363C7.89904 8.92205 7.79758 8.85733 7.68591 8.81318C7.57424 8.76902 7.45455 8.7463 7.33368 8.7463C7.21281 8.7463 7.09312 8.76902 6.98145 8.81318C6.86978 8.85733 6.76832 8.92205 6.68285 9.00363C6.59738 9.08521 6.52958 9.18207 6.48333 9.28866C6.43707 9.39525 6.41326 9.5095 6.41326 9.62488C6.41326 9.74026 6.43707 9.8545 6.48333 9.9611C6.52958 10.0677 6.59738 10.1645 6.68285 10.2461L10.3495 13.7461Z" fill="#17213A"/>
</svg>
