<svg width="515" height="344" viewBox="0 0 515 344" fill="none" xmlns="http://www.w3.org/2000/svg">
<g opacity="0.8">
<path d="M454.528 91.8131C454.528 91.8131 453.095 86.7886 446.289 84.276C439.483 81.7635 433.393 83.9169 431.244 85.7119C429.095 87.5062 427.662 90.0188 425.871 90.0188C424.08 90.0188 419.423 87.5062 415.125 89.3012C410.826 91.0955 411.185 93.6081 409.393 94.6848C407.602 95.7615 404.736 93.9672 401.512 94.6848C398.288 95.4024 395.064 98.2741 394.706 99.3508C394.347 100.428 393.631 100.068 390.766 100.068C387.9 100.068 385.034 104.016 385.034 104.016H476.021C476.021 104.016 472.081 95.4024 466.707 93.9665C461.334 92.5307 458.468 95.4024 457.393 95.0432C456.318 94.6841 454.528 91.8131 454.528 91.8131Z" fill="#F3F4F6" stroke="#17213A" stroke-miterlimit="10" stroke-linecap="round" stroke-linejoin="round"/>
<path d="M282.837 33.0622C282.837 33.0622 281.953 29.9616 277.753 28.4116C273.553 26.8616 269.795 28.1901 268.469 29.2977C267.143 30.4053 266.258 31.9553 265.153 31.9553C264.047 31.9553 261.174 30.4053 258.521 31.5122C255.868 32.6199 256.089 34.1698 254.984 34.8344C253.878 35.499 252.11 34.3914 250.121 34.8344C248.132 35.2775 246.142 37.049 245.921 37.7135C245.7 38.3781 245.257 38.1566 243.489 38.1566C241.721 38.1566 239.952 40.5926 239.952 40.5926H296.1C296.1 40.5926 293.669 35.2775 290.353 34.3914C287.037 33.5053 285.269 35.2775 284.605 35.0559C283.943 34.8337 282.837 33.0622 282.837 33.0622Z" fill="#F3F4F6" stroke="#17213A" stroke-miterlimit="10" stroke-linecap="round" stroke-linejoin="round"/>
<path d="M66.8499 42.807C66.8499 42.807 65.9655 39.7064 61.7658 38.1557C57.5655 36.6058 53.8081 37.9342 52.4814 39.0418C51.1548 40.1494 50.271 41.6994 49.1655 41.6994C48.06 41.6994 45.1863 40.1494 42.5337 41.2564C39.8811 42.364 40.1022 43.914 38.9967 44.5785C37.8911 45.2431 36.123 44.1355 34.1337 44.5785C32.1444 45.0216 30.1545 46.7931 29.9333 47.4577C29.7122 48.1222 29.27 47.9007 27.5019 47.9007C25.7337 47.9007 23.9648 50.3368 23.9648 50.3368H80.1129C80.1129 50.3368 77.6814 45.0216 74.3655 44.1355C71.0496 43.2494 69.2814 45.0216 68.6181 44.8001C67.9555 44.5785 66.8499 42.807 66.8499 42.807Z" fill="#F3F4F6" stroke="#17213A" stroke-miterlimit="10" stroke-linecap="round" stroke-linejoin="round"/>
<path opacity="0.7" d="M320.327 62.9814C320.327 62.9814 266.239 43.6865 213.144 74.4061C160.051 105.125 133.261 166.106 110.255 214.954C87.25 263.803 100.492 313.49 141.022 336.146C181.552 358.801 209.112 325.404 265.969 323.777C322.826 322.151 338.117 330.306 385.298 298.082C432.478 265.859 441.006 189.757 403.789 133.448C366.571 77.1388 320.327 62.9814 320.327 62.9814Z" fill="#C3C1DE"/>
<path d="M71.1494 308.705H443" stroke="#17213A" stroke-width="0.9836" stroke-miterlimit="10"/>
<path d="M245.765 255.313H93.7598V308.63H245.765V255.313Z" fill="#E0DFED" stroke="#17213A" stroke-width="0.9836" stroke-miterlimit="10"/>
<path d="M237.194 255.313H102.333V308.63H237.194V255.313Z" fill="white" stroke="#17213A" stroke-width="0.9836" stroke-miterlimit="10"/>
<path d="M128.906 264.016V308.55" stroke="#17213A" stroke-width="0.9836" stroke-miterlimit="10"/>
<path d="M182.101 264.016V308.55" stroke="#17213A" stroke-width="0.9836" stroke-miterlimit="10"/>
<path d="M202.049 264.016V308.55" stroke="#17213A" stroke-width="0.9836" stroke-miterlimit="10"/>
<path d="M221.995 264.016V308.55" stroke="#17213A" stroke-width="0.9836" stroke-miterlimit="10"/>
<path d="M102.311 274.397H237.349" stroke="#17213A" stroke-width="0.9836" stroke-miterlimit="10"/>
<path d="M102.311 286.167H237.349" stroke="#17213A" stroke-width="0.9836" stroke-miterlimit="10"/>
<path d="M102.311 298.43H237.349" stroke="#17213A" stroke-width="0.9836" stroke-miterlimit="10"/>
<path d="M165.004 255.313H155.528V308.63H165.004V255.313Z" fill="#E0DFED" stroke="#17213A" stroke-width="0.9836" stroke-miterlimit="10"/>
<path d="M78.5625 263.223H251.443V222.877H114.658L78.5625 263.223Z" fill="#17213A" stroke="#17213A" stroke-width="0.9836" stroke-miterlimit="10"/>
<path d="M133.656 221.296H252.331V186.343H162.152L133.656 221.296Z" fill="white" stroke="#17213A" stroke-width="0.9836" stroke-miterlimit="10"/>
<path d="M184.95 201.519H134.605V229.999H184.95V201.519Z" fill="#E0DFED" stroke="#17213A" stroke-width="0.9836" stroke-miterlimit="10"/>
<path d="M154.512 213.385H138.405V226.043H154.512V213.385Z" fill="white" stroke="#17213A" stroke-width="0.9836" stroke-miterlimit="10"/>
<path d="M175.452 213.385H159.345V226.043H175.452V213.385Z" fill="white" stroke="#17213A" stroke-width="0.9836" stroke-miterlimit="10"/>
<path d="M122.257 210.22H253.342V175.267H153.733L122.257 210.22Z" fill="#17213A" stroke="#17213A" stroke-width="0.9836" stroke-miterlimit="10"/>
<path d="M365.429 229.998H415.773V201.517H365.429V229.998Z" fill="#E0DFED" stroke="#17213A" stroke-width="0.9836" stroke-miterlimit="10"/>
<path d="M395.867 226.042H411.974V213.384H395.867V226.042Z" fill="white" stroke="#17213A" stroke-width="0.9836" stroke-miterlimit="10"/>
<path d="M374.928 226.042H391.035V213.384H374.928V226.042Z" fill="white" stroke="#17213A" stroke-width="0.9836" stroke-miterlimit="10"/>
<path d="M428.122 210.22H297.037V175.267H396.646L428.122 210.22Z" fill="#17213A" stroke="#17213A" stroke-width="0.9836" stroke-miterlimit="10"/>
<path d="M249.542 192.817L178.301 221.296V245.03H248.592L249.542 192.817Z" fill="#17213A" stroke="#17213A" stroke-width="0.9836" stroke-miterlimit="10"/>
<path d="M282.56 181.186L172.542 226.691L168.464 219.852L278.481 174.347L282.56 181.186Z" fill="#17213A" stroke="#17213A" stroke-width="0.9836" stroke-miterlimit="10"/>
<path d="M423.286 229.993L270.197 190.292V308.631H423.286V229.993Z" fill="#E0DFED" stroke="#17213A" stroke-width="0.9836" stroke-miterlimit="10"/>
<path d="M385.703 308.631H423.287V229.993L385.703 220.247V308.631Z" fill="#17213A" stroke="#17213A" stroke-width="0.9836" stroke-miterlimit="10"/>
<path d="M433.428 235.078L340.727 210.816L343.475 203.533L436.176 227.795L433.428 235.078Z" fill="#17213A" stroke="#17213A" stroke-width="0.9836" stroke-miterlimit="10"/>
<path d="M245.766 308.632H346.993V142.958L245.766 183.422V308.632Z" fill="white" stroke="#17213A" stroke-width="0.9836" stroke-miterlimit="10"/>
<path d="M255.242 252.94H346.994V142.958L255.242 179.634V252.94Z" fill="#17213A" stroke="#17213A" stroke-width="0.9836" stroke-miterlimit="10"/>
<path d="M245.766 252.898H302.281V198.691L245.766 183.422V252.898Z" fill="white" stroke="#17213A" stroke-width="0.9836" stroke-miterlimit="10"/>
<path d="M282.114 252.897H302.281V198.69L282.114 193.242V252.897Z" fill="#E0DFED" stroke="#17213A" stroke-width="0.9836" stroke-miterlimit="10"/>
<path d="M302.281 255.188H282.114V308.475H302.281V255.188Z" fill="#E0DFED" stroke="#17213A" stroke-width="0.9836" stroke-miterlimit="10"/>
<path d="M357.284 249.081H234.445V256.715H357.284V249.081Z" fill="#17213A" stroke="#17213A" stroke-width="0.9836" stroke-miterlimit="10"/>
<path d="M362.349 140.839L252.332 186.343L248.255 179.505L358.272 134L362.349 140.839Z" fill="#17213A" stroke="#17213A" stroke-width="0.9836" stroke-miterlimit="10"/>
<path d="M310.588 203.011L236.222 182.566L238.97 175.283L313.336 195.728L310.588 203.011Z" fill="#17213A" stroke="#17213A" stroke-width="0.9836" stroke-miterlimit="10"/>
<path d="M338.951 171.971H317.866V206.863H338.951V171.971Z" fill="white" stroke="#17213A" stroke-width="0.9836" stroke-miterlimit="10"/>
<path d="M338.951 211.136H317.866V246.028H338.951V211.136Z" fill="white" stroke="#17213A" stroke-width="0.9836" stroke-miterlimit="10"/>
<path d="M276.613 203.272H256.446V242.973H276.613V203.272Z" fill="white" stroke="#17213A" stroke-width="0.9836" stroke-miterlimit="10"/>
<path d="M276.613 260.231H256.446V289.648H276.613V260.231Z" fill="white" stroke="#17213A" stroke-width="0.9836" stroke-miterlimit="10"/>
<path d="M413.872 245.82H392.975V298.824H413.872V245.82Z" fill="white" stroke="#17213A" stroke-width="0.9836" stroke-miterlimit="10"/>
<path d="M321.693 260.852H305.586V304.363H321.693V260.852Z" fill="white" stroke="#17213A" stroke-width="0.9836" stroke-miterlimit="10"/>
<path d="M342.633 260.852H326.526V304.363H342.633V260.852Z" fill="#17213A" stroke="#17213A" stroke-width="0.9836" stroke-miterlimit="10"/>
<path d="M241.943 224.459H185.899V230.788H241.943V224.459Z" fill="white" stroke="#17213A" stroke-width="0.9836" stroke-miterlimit="10"/>
<path d="M340.732 262.405H328.483V270.962H340.732V262.405Z" fill="white" stroke="#17213A" stroke-width="0.9836" stroke-miterlimit="10"/>
<path d="M340.732 272.279H328.483V280.835H340.732V272.279Z" fill="white" stroke="#17213A" stroke-width="0.9836" stroke-miterlimit="10"/>
<path d="M340.732 282.151H328.483V290.707H340.732V282.151Z" fill="white" stroke="#17213A" stroke-width="0.9836" stroke-miterlimit="10"/>
<path d="M340.732 292.024H328.483V300.581H340.732V292.024Z" fill="white" stroke="#17213A" stroke-width="0.9836" stroke-miterlimit="10"/>
<path d="M40.4058 280.634C41.5374 280.938 44.1255 280.488 44.1275 280.488C44.1543 280.483 43.3138 278.869 43.2493 278.773C42.5001 277.664 40.4024 275.964 38.9665 276.383C37.9317 276.685 37.5033 277.833 37.8912 278.793C38.2867 279.775 39.4424 280.374 40.4058 280.634Z" fill="#17213A"/>
<path d="M58.015 308.677H58.9517C58.9482 308.667 58.9448 308.658 58.9414 308.647C58.699 307.968 58.427 307.247 58.14 306.509C58.3028 306.414 59.2236 305.868 60.0201 305.251C60.9004 305.958 62.9851 306.627 63.255 306.712C63.0909 307.393 62.9247 308.054 62.7578 308.676H63.6684C63.8201 308.045 63.9712 307.382 64.1195 306.696C64.4065 306.713 66.7529 306.832 67.7781 306.433C68.7078 306.069 69.7914 305.348 70.0791 304.33C70.3606 303.333 69.8106 302.239 68.749 302.051C67.2761 301.791 65.3747 303.709 64.7505 304.892C64.7135 304.962 64.3983 305.764 64.2081 306.273C64.2747 305.957 64.3427 305.65 64.4072 305.324C64.5397 304.678 64.6524 304.031 64.776 303.335C64.824 302.996 64.8728 302.655 64.9215 302.309C64.9771 301.968 64.9929 301.601 65.0307 301.243C65.1014 300.412 65.1317 299.566 65.144 298.714C65.7078 298.828 67.7163 299.206 68.6948 298.987C69.6685 298.77 70.8488 298.221 71.2869 297.258C71.7161 296.316 71.3377 295.15 70.3167 294.803C68.9001 294.322 66.7309 295.93 65.9344 297.005C65.8842 297.072 65.4001 297.908 65.1426 298.371C65.1461 297.859 65.1516 297.348 65.1385 296.829C65.1001 295.332 65.0142 293.817 64.936 292.307C64.9112 291.844 64.8927 291.383 64.8728 290.92C65.0733 290.964 67.4505 291.464 68.5464 291.219C69.5201 291.001 70.7005 290.453 71.1386 289.49C71.5678 288.547 71.1894 287.382 70.1684 287.036C68.7518 286.554 66.5826 288.162 65.786 289.237C65.7263 289.318 65.03 290.521 64.868 290.836C64.8233 289.818 64.7883 288.804 64.7938 287.803C64.8 286.421 64.8824 285.067 65.0589 283.76C65.1516 283.78 67.6311 284.313 68.7538 284.063C69.7275 283.846 70.9079 283.297 71.346 282.334C71.7752 281.391 71.3968 280.227 70.3757 279.879C68.9584 279.398 66.79 281.006 65.9934 282.08C65.9309 282.165 65.1832 283.46 65.0644 283.704C65.0753 283.626 65.0774 283.544 65.0891 283.467C65.2951 282.075 65.6693 280.751 66.0806 279.53C66.3182 278.819 66.5846 278.154 66.8586 277.512C67.3104 277.659 69.3814 278.307 70.4162 278.193C71.4085 278.084 72.6417 277.669 73.1821 276.76C73.7122 275.87 73.4637 274.67 72.4872 274.214C71.1317 273.579 68.7991 274.939 67.89 275.919C67.8406 275.972 67.3983 276.571 67.0818 277.01C67.2095 276.723 67.3365 276.423 67.4643 276.15C67.9429 275.123 68.4448 274.212 68.8953 273.409C69.1555 272.955 69.3993 272.549 69.6314 272.172C70.1491 272.084 72.2332 271.705 73.0839 271.137C73.9134 270.582 74.8178 269.645 74.8803 268.588C74.9414 267.554 74.1689 266.604 73.0922 266.649C71.5973 266.712 70.1526 268.995 69.7969 270.285C69.766 270.397 69.4851 272.196 69.5119 272.192C69.5119 272.192 69.5373 272.187 69.5435 272.187C69.3121 272.545 69.069 272.933 68.8122 273.361C68.3432 274.156 67.8206 275.058 67.3173 276.079C66.8119 277.098 66.2921 278.219 65.8506 279.449C65.4063 280.682 65.0019 282.001 64.7608 283.415C64.7581 283.431 64.7574 283.448 64.7547 283.464C64.697 283.028 64.4958 281.816 64.4697 281.725C64.103 280.438 62.6391 278.167 61.1435 278.117C60.0668 278.081 59.3025 279.037 59.3719 280.071C59.4433 281.127 60.3545 282.057 61.1895 282.605C62.1309 283.223 64.5425 283.595 64.7348 283.624C64.5171 284.972 64.4038 286.373 64.366 287.797C64.344 288.612 64.3468 289.433 64.3598 290.256C64.298 289.881 64.2404 289.546 64.2266 289.5C63.8593 288.213 62.396 285.943 60.9004 285.892C59.823 285.855 59.0588 286.812 59.1288 287.846C59.1995 288.902 60.1114 289.832 60.9457 290.38C61.7931 290.935 63.8428 291.294 64.3859 291.382C64.3942 291.698 64.399 292.013 64.4093 292.329C64.4553 293.843 64.5075 295.354 64.5137 296.838C64.5164 297.361 64.4992 297.875 64.4841 298.391C64.4292 298.058 64.3798 297.778 64.3674 297.736C64 296.449 62.5367 294.178 61.0419 294.128C59.9645 294.092 59.2002 295.048 59.2703 296.082C59.3417 297.138 60.2529 298.068 61.0879 298.616C61.8961 299.146 63.7851 299.494 64.4306 299.601C64.3997 300.129 64.3688 300.657 64.3152 301.167C64.2706 301.514 64.2513 301.851 64.1875 302.197C64.1312 302.541 64.0756 302.882 64.0199 303.219C63.8895 303.864 63.759 304.532 63.6162 305.158C63.52 305.595 63.4205 306.009 63.3209 306.426C63.3243 305.906 63.3106 304.886 63.2996 304.801C63.1877 303.919 62.6617 302.536 61.8906 301.625C61.8748 301.495 61.848 301.366 61.8082 301.241C61.4944 300.254 60.4328 299.645 59.444 300.075C58.0713 300.672 57.5426 303.324 57.6731 304.655C57.6806 304.733 57.8592 305.577 57.9807 306.107C57.8619 305.807 57.75 305.513 57.6243 305.205C57.3792 304.594 57.1169 303.992 56.8367 303.342C56.6905 303.033 56.5428 302.722 56.3938 302.406C56.2524 302.091 56.0635 301.776 55.898 301.456C55.4991 300.724 55.0589 300.002 54.5996 299.284C55.1331 299.068 57.0166 298.273 57.7115 297.55C58.4044 296.83 59.0862 295.72 58.9221 294.675C58.7608 293.652 57.8042 292.889 56.7619 293.165C55.3151 293.546 54.3908 296.086 54.3187 297.423C54.3146 297.506 54.3702 298.47 54.4107 299C54.1313 298.571 53.8545 298.141 53.5579 297.716C52.7016 296.488 51.7966 295.273 50.8991 294.055C50.6238 293.683 50.3546 293.308 50.0827 292.935C50.2736 292.86 52.532 291.963 53.3114 291.153C54.0035 290.433 54.6861 289.323 54.522 288.278C54.3606 287.255 53.4041 286.492 52.3617 286.768C50.9149 287.149 49.9907 289.689 49.9186 291.026C49.9131 291.126 49.9955 292.514 50.0339 292.867C49.4365 292.043 48.8487 291.217 48.3021 290.378C47.5468 289.222 46.8698 288.047 46.2971 286.86C46.3863 286.825 48.7478 285.899 49.5457 285.07C50.2385 284.351 50.9211 283.241 50.7563 282.196C50.5956 281.172 49.6384 280.41 48.596 280.685C47.1492 281.067 46.2257 283.606 46.1529 284.943C46.1474 285.048 46.2366 286.541 46.2717 286.811C46.238 286.741 46.1948 286.671 46.1618 286.6C45.5671 285.324 45.151 284.014 44.8207 282.767C44.6278 282.044 44.4836 281.341 44.3586 280.655C44.8159 280.527 46.9007 279.923 47.7013 279.257C48.469 278.617 49.269 277.589 49.2195 276.532C49.1715 275.497 48.3035 274.634 47.2378 274.792C45.758 275.012 44.5612 277.435 44.3428 278.756C44.3311 278.828 44.2906 279.571 44.2693 280.113C44.2178 279.802 44.1588 279.482 44.1148 279.184C43.9487 278.062 43.8656 277.025 43.799 276.106C43.7653 275.583 43.7454 275.11 43.7317 274.667C44.1155 274.307 45.6447 272.84 46.0409 271.895C46.4282 270.973 46.6651 269.692 46.1357 268.776C45.6173 267.88 44.4499 267.515 43.5765 268.147C42.3645 269.026 42.4167 271.729 42.8294 273.002C42.8651 273.112 43.6218 274.767 43.6417 274.75C43.6417 274.75 43.6603 274.732 43.6651 274.728C43.6699 275.155 43.6802 275.612 43.7015 276.112C43.7475 277.034 43.8086 278.075 43.9514 279.205C44.0908 280.334 44.2742 281.557 44.5832 282.827C44.8915 284.1 45.2801 285.425 45.8576 286.737C45.8638 286.752 45.8727 286.766 45.8796 286.781C45.5919 286.449 44.7562 285.55 44.6841 285.489C43.6699 284.618 41.1986 283.533 39.9234 284.318C39.0054 284.883 38.8941 286.103 39.5217 286.926C40.1624 287.768 41.4348 288.04 42.4325 288.035C43.558 288.03 45.7745 287.007 45.9503 286.925C46.5113 288.17 47.1877 289.401 47.941 290.61C48.3708 291.301 48.8254 291.985 49.2889 292.664C49.0307 292.385 48.7979 292.138 48.7622 292.107C47.7473 291.236 45.276 290.152 44.0015 290.936C43.0828 291.501 42.9722 292.721 43.5998 293.545C44.2405 294.386 45.5129 294.658 46.5106 294.653C47.5235 294.649 49.4303 293.815 49.9323 293.588C50.1129 293.846 50.2907 294.106 50.4727 294.364C51.3448 295.602 52.2203 296.834 53.0422 298.068C53.332 298.503 53.6011 298.942 53.8731 299.38C53.6437 299.133 53.4487 298.927 53.4151 298.898C52.4002 298.028 49.9295 296.943 48.6544 297.727C47.7356 298.293 47.6251 299.513 48.2527 300.336C48.8934 301.178 50.1658 301.449 51.1635 301.445C52.1296 301.44 53.8971 300.686 54.4945 300.419C54.7589 300.876 55.0246 301.334 55.2601 301.789C55.4139 302.103 55.5842 302.395 55.7209 302.719C55.863 303.037 56.0038 303.352 56.1439 303.664C56.3904 304.274 56.6493 304.903 56.8745 305.504C57.0345 305.921 57.1794 306.323 57.327 306.726C57.0434 306.29 56.4707 305.447 56.4144 305.382C55.5437 304.367 53.2647 302.92 51.8859 303.502C50.8929 303.921 50.599 305.11 51.0948 306.02C51.6009 306.949 52.817 307.411 53.8044 307.557C54.8914 307.719 57.1478 307.082 57.4293 307C57.6367 307.576 57.8324 308.135 58.015 308.677Z" fill="#17213A"/>
<path d="M66.757 277.248C66.7824 277.259 66.9699 275.447 66.9685 275.332C66.9541 273.994 66.1404 271.416 64.7114 270.972C63.6821 270.652 62.6933 271.373 62.488 272.388C62.2786 273.425 62.9124 274.563 63.5729 275.312C64.3496 276.192 66.7556 277.246 66.757 277.248Z" fill="#17213A"/>
<path d="M16.3389 308.677H496.198" stroke="#17213A" stroke-miterlimit="10" stroke-linecap="round" stroke-linejoin="round"/>
<path d="M458.088 308.14V224.991H463.972V308.14H458.088Z" fill="#17213A" stroke="#17213A"/>
<path d="M464.472 224.492C464.472 224.671 462.931 224.816 461.03 224.816C459.129 224.816 457.588 224.671 457.588 224.492C457.588 224.313 459.129 224.167 461.03 224.167C462.931 224.167 464.472 224.312 464.472 224.492Z" fill="#DBD9EB"/>
<path opacity="0.2" d="M464.472 277.351L457.588 276.852V271.662H464.472V277.351Z" fill="#383192"/>
<path d="M500.698 230.905L425.456 224.296L421.369 271.04L496.611 277.649L500.698 230.905Z" fill="#383192"/>
<path d="M497.329 230.609L422.087 224L418 270.744L493.242 277.353L497.329 230.609Z" fill="#CEC8FF"/>
<path opacity="0.4" d="M497.686 237.881L483.572 237.233L497.589 238.997L497.686 237.881Z" fill="#383192"/>
<path opacity="0.4" d="M497.087 239.472L488.379 239.594L496.941 241.146L497.087 239.472Z" fill="#383192"/>
<path opacity="0.4" d="M419.028 258.877L426.64 258.954L419.126 257.761L419.028 258.877Z" fill="#383192"/>
<path opacity="0.4" d="M419.799 250.066L426.351 249.754L419.945 248.392L419.799 250.066Z" fill="#383192"/>
<path opacity="0.4" d="M494.285 272.386L487.733 272.698L494.139 274.06L494.285 272.386Z" fill="#383192"/>
<path d="M488.533 259.686L486.366 259.51C486.215 259.498 486.097 259.45 486.011 259.367C485.931 259.285 485.868 259.193 485.822 259.091L483.477 254.384C483.423 254.515 483.363 254.627 483.295 254.719L480.364 258.648C480.292 258.735 480.209 258.815 480.116 258.889C480.029 258.958 479.919 258.987 479.784 258.976L477.754 258.811L482.124 253.11L478.857 247.131L481.024 247.307C481.175 247.319 481.281 247.35 481.342 247.398C481.409 247.441 481.468 247.511 481.52 247.608L483.833 252.109C483.898 251.979 483.973 251.849 484.06 251.721L486.813 248.078C486.881 247.98 486.952 247.91 487.026 247.867C487.1 247.825 487.191 247.808 487.298 247.816L489.377 247.985L485.163 253.267L488.533 259.686Z" fill="#383192"/>
<path d="M472.721 248.375L472.458 251.617L476.55 251.949L476.414 253.623L472.322 253.291L472.054 256.598L477.245 257.02L477.104 258.758L469.73 258.16L470.679 246.467L478.053 247.066L477.913 248.796L472.721 248.375Z" fill="#383192"/>
<path d="M468.323 256.238L468.177 258.033L461.328 257.477L462.277 245.785L464.452 245.962L463.649 255.859L468.323 256.238Z" fill="#383192"/>
<path d="M455.588 251.16C455.987 251.192 456.338 251.172 456.643 251.099C456.948 251.02 457.204 250.897 457.413 250.73C457.628 250.557 457.795 250.343 457.913 250.087C458.032 249.825 458.105 249.53 458.132 249.201C458.157 248.888 458.132 248.601 458.055 248.34C457.979 248.079 457.851 247.851 457.671 247.658C457.491 247.464 457.257 247.31 456.968 247.194C456.679 247.073 456.333 246.996 455.929 246.963L454.303 246.831L453.963 251.028L455.588 251.16ZM456.065 245.281C456.847 245.345 457.516 245.491 458.072 245.721C458.629 245.95 459.08 246.245 459.425 246.604C459.77 246.963 460.013 247.379 460.154 247.851C460.3 248.324 460.351 248.833 460.307 249.378C460.261 249.944 460.124 250.456 459.897 250.915C459.67 251.369 459.355 251.75 458.95 252.059C458.545 252.368 458.049 252.594 457.462 252.736C456.881 252.879 456.21 252.919 455.45 252.858L453.825 252.726L453.491 256.841L451.316 256.665L452.265 244.973L456.065 245.281Z" fill="#383192"/>
<path d="M444.162 254.318C444.582 254.352 444.963 254.313 445.303 254.199C445.648 254.086 445.945 253.912 446.192 253.677C446.439 253.442 446.636 253.149 446.784 252.797C446.937 252.446 447.032 252.047 447.068 251.6L447.637 244.597L449.812 244.774L449.243 251.776C449.187 252.471 449.021 253.106 448.747 253.681C448.478 254.251 448.116 254.734 447.661 255.131C447.211 255.523 446.677 255.816 446.059 256.01C445.442 256.199 444.758 256.263 444.009 256.202C443.254 256.141 442.587 255.967 442.008 255.682C441.429 255.391 440.947 255.015 440.561 254.555C440.181 254.09 439.902 253.555 439.723 252.949C439.55 252.338 439.492 251.685 439.548 250.989L440.117 243.987L442.292 244.163L441.724 251.158C441.688 251.605 441.714 252.014 441.804 252.385C441.898 252.756 442.048 253.08 442.254 253.358C442.465 253.63 442.729 253.849 443.047 254.016C443.37 254.183 443.741 254.284 444.162 254.318Z" fill="#383192"/>
<path d="M437.867 249.689C437.798 250.546 437.591 251.321 437.247 252.015C436.903 252.709 436.452 253.293 435.892 253.769C435.333 254.244 434.677 254.596 433.926 254.822C433.176 255.049 432.355 255.126 431.466 255.054L427.011 254.692L427.959 243L432.415 243.362C433.304 243.434 434.101 243.645 434.805 243.995C435.51 244.34 436.1 244.792 436.575 245.352C437.051 245.906 437.403 246.553 437.63 247.293C437.858 248.033 437.937 248.832 437.867 249.689ZM435.636 249.508C435.688 248.866 435.648 248.285 435.517 247.764C435.391 247.239 435.181 246.788 434.886 246.411C434.597 246.029 434.231 245.726 433.788 245.5C433.35 245.274 432.846 245.138 432.274 245.092L430.002 244.908L429.334 253.139L431.606 253.323C432.178 253.37 432.697 253.317 433.166 253.165C433.639 253.014 434.049 252.776 434.396 252.451C434.748 252.122 435.028 251.71 435.236 251.217C435.45 250.719 435.584 250.149 435.636 249.508Z" fill="#383192"/>
</g>
</svg>
