<svg width="528" height="459" viewBox="0 0 528 459" fill="none" xmlns="http://www.w3.org/2000/svg">
<g opacity="0.8" clip-path="url(#clip0_264_48628)">
<path opacity="0.7" d="M356.932 9.56614C356.932 9.56614 270.194 -21.2923 185.049 27.8376C99.9047 76.9663 56.9428 174.493 20.0499 252.617C-16.843 330.74 4.39231 410.206 69.3894 446.439C134.385 482.672 178.581 429.259 269.76 426.658C360.941 424.057 385.463 437.099 461.124 385.564C536.785 334.029 550.461 212.319 490.778 122.263C431.092 32.208 356.932 9.56614 356.932 9.56614Z" fill="#C3C1DE"/>
<path d="M528 378.35H0V378.614H528V378.35Z" fill="#EBEBEB"/>
<path d="M137.668 388.407H55.3967V388.671H137.668V388.407Z" fill="#EBEBEB"/>
<path d="M475.095 396.439H435.072V396.703H475.095V396.439Z" fill="#EBEBEB"/>
<path d="M158.991 398.213H138.725V398.477H158.991V398.213Z" fill="#EBEBEB"/>
<path d="M259.1 385.541H213.488V385.805H259.1V385.541Z" fill="#EBEBEB"/>
<path d="M275.189 385.541H268.502V385.805H275.189V385.541Z" fill="#EBEBEB"/>
<path d="M391.659 391.981H346.016V392.245H391.659V391.981Z" fill="#EBEBEB"/>
<path d="M250.287 331.254H46.3743C43.051 331.254 40.3466 328.55 40.3466 325.227V38.5946C40.3466 35.2714 43.051 32.5669 46.3743 32.5669H250.287C253.609 32.5669 256.313 35.2714 256.313 38.5946V325.227C256.313 328.55 253.609 331.254 250.287 331.254ZM46.3743 32.832C43.1957 32.832 40.6106 35.4171 40.6106 38.5957V325.228C40.6106 328.406 43.1957 330.991 46.3743 330.991H250.287C253.464 330.991 256.049 328.406 256.049 325.228V38.5946C256.049 35.4171 253.464 32.8309 250.287 32.8309L46.3743 32.832Z" fill="#EBEBEB"/>
<path d="M478.695 331.254H274.784C271.461 331.254 268.757 328.55 268.757 325.227V38.5946C268.757 35.2714 271.462 32.5669 274.784 32.5669H478.695C482.02 32.5669 484.723 35.2714 484.723 38.5946V325.227C484.724 328.55 482.02 331.254 478.695 331.254ZM274.784 32.832C271.606 32.832 269.021 35.4171 269.021 38.5957V325.228C269.021 328.406 271.606 330.991 274.784 330.991H478.695C481.874 330.991 484.459 328.406 484.459 325.228V38.5946C484.459 35.4171 481.874 32.8309 478.695 32.8309L274.784 32.832Z" fill="#EBEBEB"/>
<path d="M140.308 354.21H88.4242C86.1115 354.21 84.1484 352.513 83.8137 350.224L70.8259 261.443C70.4152 258.631 72.5947 256.109 75.4364 256.109H127.32C129.632 256.109 131.596 257.806 131.93 260.095L144.917 348.876C145.329 351.687 143.149 354.21 140.308 354.21Z" fill="#F0F0F0"/>
<path d="M94.5954 354.21H70.1311C67.8184 354.21 65.8553 352.513 65.5206 350.224L52.5339 261.444C52.1231 258.632 54.3027 256.111 57.1444 256.111H81.6077C83.9203 256.111 85.8834 257.808 86.2182 260.096L99.2049 348.877C99.6167 351.687 97.4371 354.21 94.5954 354.21Z" fill="#FAFAFA"/>
<path d="M404.262 233.609H152.084C145.679 233.609 140.042 238.412 139.494 244.336L133.148 312.882C132.599 318.806 137.346 323.609 143.751 323.609H395.929C402.334 323.609 407.971 318.806 408.519 312.882L414.865 244.336C415.413 238.412 410.667 233.609 404.262 233.609Z" fill="#E0E0E0"/>
<path d="M387.144 233.609H134.966C128.562 233.609 122.925 238.412 122.377 244.336L116.03 312.882C115.481 318.806 120.229 323.609 126.633 323.609H378.811C385.216 323.609 390.853 318.806 391.401 312.882L397.748 244.336C398.296 238.412 393.549 233.609 387.144 233.609Z" fill="#E6E6E6"/>
<path d="M103.13 346.612V322.207C103.13 318.01 106.531 314.609 110.728 314.609H205.709C209.904 314.609 213.307 318.01 213.307 322.207V346.612C213.307 350.808 209.905 354.21 205.709 354.21H110.728C106.531 354.21 103.13 350.808 103.13 346.612Z" fill="#EBEBEB"/>
<path d="M240.469 347.257V321.562C240.469 317.723 243.582 314.61 247.422 314.61H358.273C362.113 314.61 365.226 317.723 365.226 321.562V347.257C365.226 351.097 362.113 354.21 358.273 354.21H247.422C243.582 354.21 240.469 351.097 240.469 347.257Z" fill="#E0E0E0"/>
<path d="M213.306 347.257V321.562C213.306 317.723 216.419 314.61 220.258 314.61H331.11C334.949 314.61 338.063 317.723 338.063 321.562V347.257C338.063 351.097 334.949 354.21 331.11 354.21H220.258C216.419 354.21 213.306 351.097 213.306 347.257Z" fill="#EBEBEB"/>
<path d="M403.567 354.21H364.97C362.129 354.21 360.27 351.688 361.04 348.876L385.348 260.095C385.974 257.806 388.154 256.109 390.467 256.109H429.063C431.905 256.109 433.764 258.631 432.994 261.443L408.686 350.223C408.06 352.513 405.88 354.21 403.567 354.21Z" fill="#F0F0F0"/>
<path d="M371.141 354.21H346.677C343.836 354.21 341.977 351.688 342.747 348.876L367.055 260.095C367.681 257.806 369.861 256.109 372.173 256.109H396.637C399.478 256.109 401.337 258.631 400.567 261.443L376.259 350.223C375.633 352.513 373.454 354.21 371.141 354.21Z" fill="#FAFAFA"/>
<path d="M350.673 378.35H346.96L338.063 354.21H347.26L350.673 378.35Z" fill="#E0E0E0"/>
<path d="M397.791 378.35H394.078L385.18 354.21H394.378L397.791 378.35Z" fill="#E0E0E0"/>
<path d="M129.964 378.35H133.677L142.574 354.21H133.377L129.964 378.35Z" fill="#E0E0E0"/>
<path d="M82.8463 378.35H86.5592L95.4571 354.21H86.2593L82.8463 378.35Z" fill="#E0E0E0"/>
<path d="M404.798 77.674H123.203V178.111H404.798V77.674Z" fill="#E0E0E0"/>
<path d="M402.217 77.674H120.622V178.111H402.217V77.674Z" fill="#F0F0F0"/>
<path d="M393.768 169.663V86.1218L129.069 86.1218V169.663L393.768 169.663Z" fill="#FAFAFA"/>
<path d="M261.418 152.943C275.253 152.943 286.468 141.727 286.468 127.892C286.468 114.057 275.253 102.842 261.418 102.842C247.583 102.842 236.368 114.057 236.368 127.892C236.368 141.727 247.583 152.943 261.418 152.943Z" fill="#F0F0F0"/>
<path d="M172.038 169.663L189.583 86.122H228.302L210.759 169.663H172.038Z" fill="white"/>
<path d="M227.096 169.663L244.64 86.122H264L246.457 169.663H227.096Z" fill="white"/>
<path d="M345.306 169.663L362.85 86.122H382.21L364.666 169.663H345.306Z" fill="white"/>
<path d="M467.046 240.398C460.475 268.871 476.547 298.281 469.977 326.754C467.808 326.664 465.64 326.573 463.471 326.483C461.302 326.394 459.133 326.303 456.965 326.213C467.872 297.921 456.137 268.691 467.046 240.398Z" fill="#F0F0F0"/>
<path d="M450.208 252.746C455.591 279.968 438.313 307.188 443.695 334.41C445.866 334.41 448.037 334.41 450.208 334.41C452.378 334.41 454.549 334.41 456.72 334.41C446.995 307.187 459.932 279.968 450.208 252.746Z" fill="#F0F0F0"/>
<path d="M462.227 230.112C453.614 259.142 469.624 290.471 461.013 319.501C458.655 319.28 456.296 319.061 453.937 318.84C451.579 318.619 449.22 318.4 446.862 318.179C460.191 289.59 448.898 258.702 462.227 230.112Z" fill="#E6E6E6"/>
<path d="M474.914 271.915C477.692 287.612 462.202 299.956 464.98 315.653C466.73 315.974 468.48 316.295 470.229 316.617C471.979 316.938 473.729 317.259 475.479 317.581C469.202 301.241 481.192 288.255 474.914 271.915Z" fill="#E6E6E6"/>
<path d="M480.656 314.61C466.475 314.61 452.294 314.61 438.113 314.61C428.264 334.715 428.264 358.245 438.113 378.35C452.294 378.35 466.475 378.35 480.656 378.35C490.506 358.245 490.506 334.715 480.656 314.61Z" fill="#E0E0E0"/>
<path d="M405.289 264.509H177.09C174.63 264.509 172.728 262.496 172.863 260.036L180.549 120.132C180.684 117.671 182.807 115.658 185.268 115.658H413.466C415.927 115.658 417.829 117.671 417.693 120.132L410.008 260.036C409.873 262.496 407.749 264.509 405.289 264.509Z" fill="#17213A"/>
<path d="M309.296 139.451H287.237C279.882 139.451 274.194 133.442 274.597 126.098L274.821 122.016C275.212 114.9 281.363 109.078 288.49 109.078H310.534C317.897 109.078 323.591 115.093 323.187 122.446L322.964 126.514C322.574 133.629 316.423 139.451 309.296 139.451Z" fill="#17213A"/>
<path d="M329.377 409.675H322.309L302.852 112.195H309.92L329.377 409.675Z" fill="#17213A"/>
<path d="M276.328 409.675H283.395L302.852 112.195H295.784L276.328 409.675Z" fill="#17213A"/>
<path d="M404.074 264.509H175.876C173.415 264.509 171.513 262.496 171.649 260.036L179.334 120.132C179.469 117.671 181.593 115.658 184.052 115.658H412.251C414.711 115.658 416.613 117.671 416.478 120.132L408.792 260.036C408.657 262.496 406.534 264.509 404.074 264.509Z" fill="#383192"/>
<path opacity="0.4" d="M179.497 260.223C177.527 260.223 176.012 258.621 176.121 256.65L183.433 123.518C183.541 121.549 185.232 119.946 187.202 119.946H408.63C410.599 119.946 412.113 121.549 412.006 123.518L404.693 256.65C404.584 258.62 402.895 260.223 400.925 260.223H179.497Z" fill="#17213A"/>
<path opacity="0.1" d="M402.297 189.655H335.645C333.969 189.655 332.685 188.296 332.777 186.62L336.106 126.021C336.118 125.784 335.938 125.592 335.7 125.592C335.463 125.592 335.261 125.784 335.248 126.021L331.92 186.62C331.828 188.296 330.394 189.655 328.718 189.655H259.454C257.778 189.655 256.494 188.296 256.586 186.62L259.914 126.021C259.927 125.784 259.746 125.592 259.509 125.592C259.271 125.592 259.069 125.784 259.057 126.021L255.728 186.62C255.636 188.296 254.203 189.655 252.527 189.655H185.875C185.638 189.655 185.436 189.848 185.423 190.084C185.41 190.321 185.591 190.513 185.828 190.513H252.48C254.156 190.513 255.44 191.872 255.348 193.548L252.02 254.147C252.007 254.384 252.188 254.576 252.425 254.576C252.662 254.576 252.864 254.384 252.877 254.147L256.206 193.548C256.297 191.872 257.732 190.513 259.407 190.513H328.672C330.347 190.513 331.631 191.872 331.54 193.548L328.211 254.147C328.198 254.384 328.379 254.576 328.617 254.576C328.853 254.576 329.056 254.384 329.069 254.147L332.397 193.548C332.489 191.872 333.923 190.513 335.599 190.513H402.25C402.487 190.513 402.69 190.321 402.702 190.084C402.715 189.848 402.533 189.655 402.297 189.655Z" fill="white"/>
<path opacity="0.4" d="M293.625 136.576H266.853L265.357 163.803L292.091 164.518L293.625 136.576Z" fill="#17213A"/>
<path d="M290.722 163.348C281.766 162.912 272.809 162.475 263.851 162.039C265.338 152.784 266.27 143.507 266.646 134.256C275.657 134.692 284.667 135.128 293.675 135.565C293.247 144.817 292.262 154.096 290.722 163.348Z" fill="white"/>
<path opacity="0.4" d="M325.899 154.765L299.093 156.81L299.681 183.958L326.502 182.627L325.899 154.765Z" fill="#17213A"/>
<path d="M325.043 181.569C316.043 181.819 307.04 182.069 298.038 182.319C298.818 173.017 299.041 163.735 298.709 154.52C307.764 154.266 316.819 154.01 325.871 153.757C326.151 162.977 325.875 172.265 325.043 181.569Z" fill="#5149B0"/>
<path opacity="0.4" d="M247.608 204.284L198.185 202.397L193.75 246.364L243.056 249.405L247.608 204.284Z" fill="#17213A"/>
<path d="M240.603 247.414C224.097 246.076 207.588 244.737 191.079 243.399C194.394 228.525 196.685 213.574 197.947 198.625C214.555 199.966 231.159 201.307 247.762 202.649C246.403 217.597 244.013 232.547 240.603 247.414Z" fill="white"/>
<g opacity="0.3">
<path d="M196.74 142.728C195.208 142.728 194.023 141.474 194.107 139.941C194.191 138.409 195.513 137.154 197.046 137.154C198.579 137.154 199.764 138.408 199.68 139.941C199.596 141.474 198.272 142.728 196.74 142.728Z" fill="#17213A"/>
<path opacity="0.8" d="M240.412 142.728H206.12C204.587 142.728 203.403 141.474 203.486 139.941C203.57 138.409 204.893 137.154 206.426 137.154H240.718C242.251 137.154 243.435 138.408 243.352 139.941C243.268 141.474 241.944 142.728 240.412 142.728Z" fill="#17213A"/>
<path d="M196.073 154.878C194.541 154.878 193.356 153.625 193.439 152.092C193.524 150.56 194.846 149.306 196.378 149.306C197.91 149.306 199.095 150.559 199.012 152.092C198.928 153.625 197.605 154.878 196.073 154.878Z" fill="#17213A"/>
<path opacity="0.8" d="M245.818 154.878H205.452C203.92 154.878 202.735 153.625 202.82 152.092C202.904 150.56 204.226 149.306 205.758 149.306H246.124C247.656 149.306 248.841 150.559 248.758 152.092C248.672 153.625 247.35 154.878 245.818 154.878Z" fill="#17213A"/>
<path d="M195.405 167.03C193.873 167.03 192.688 165.776 192.772 164.243C192.856 162.711 194.178 161.456 195.712 161.456C197.244 161.456 198.429 162.709 198.345 164.243C198.261 165.776 196.938 167.03 195.405 167.03Z" fill="#17213A"/>
<path opacity="0.8" d="M224.432 167.03H204.785C203.253 167.03 202.068 165.776 202.151 164.243C202.236 162.711 203.558 161.456 205.09 161.456H224.737C226.269 161.456 227.454 162.709 227.371 164.243C227.286 165.776 225.964 167.03 224.432 167.03Z" fill="#17213A"/>
<path opacity="0.8" d="M242.624 179.181H222.978C221.445 179.181 220.26 177.927 220.344 176.394C220.428 174.862 221.75 173.607 223.284 173.607H242.931C244.463 173.607 245.648 174.861 245.564 176.394C245.48 177.927 244.158 179.181 242.624 179.181Z" fill="#17213A"/>
<path d="M194.738 179.181C193.206 179.181 192.021 177.927 192.104 176.394C192.189 174.862 193.511 173.607 195.043 173.607C196.575 173.607 197.76 174.861 197.677 176.394C197.593 177.927 196.27 179.181 194.738 179.181Z" fill="#17213A"/>
<path opacity="0.8" d="M213.191 179.181H204.117C202.585 179.181 201.4 177.927 201.484 176.394C201.568 174.862 202.89 173.607 204.423 173.607H213.496C215.028 173.607 216.213 174.861 216.129 176.394C216.045 177.927 214.723 179.181 213.191 179.181Z" fill="#17213A"/>
</g>
<path d="M279.993 215.338H266.695L264.867 248.611H278.165L279.993 215.338Z" fill="#5149B0"/>
<path d="M300.163 222.197H286.864L285.415 248.611H298.712L300.163 222.197Z" fill="#5149B0"/>
<path d="M321.683 204.478H308.385L305.961 248.611H319.258L321.683 204.478Z" fill="#5149B0"/>
<path d="M269.655 234.113C268.338 234.113 267.011 234.078 265.667 234.01C263.345 233.89 260.332 233.597 257.623 232.378C257.191 232.184 256.999 231.676 257.193 231.244C257.387 230.812 257.894 230.62 258.326 230.813C260.775 231.914 263.583 232.184 265.755 232.296C281.71 233.116 295.682 228.961 309.744 219.219C313.097 216.897 318.102 212.6 321.178 208.135C321.446 207.745 321.981 207.648 322.37 207.916C322.76 208.184 322.858 208.718 322.59 209.108C319.387 213.76 314.358 218.109 310.721 220.629C297.513 229.779 284.366 234.113 269.655 234.113Z" fill="white"/>
<path d="M324.57 214.706C324.461 214.706 324.35 214.685 324.243 214.64C323.804 214.46 323.597 213.958 323.778 213.521C324.992 210.581 325.248 207.276 324.516 204.285C321.174 206.532 317.606 208.428 313.893 209.925C313.452 210.102 312.954 209.89 312.777 209.451C312.599 209.012 312.811 208.512 313.251 208.335C317.209 206.738 320.999 204.676 324.514 202.206C324.735 202.051 325.017 202.008 325.273 202.093C325.531 202.177 325.733 202.377 325.819 202.634C327.052 206.284 326.885 210.491 325.362 214.177C325.226 214.506 324.907 214.706 324.57 214.706Z" fill="white"/>
<path d="M394.594 181.903H345.127C344.288 181.903 343.515 181.575 342.951 180.979C342.386 180.383 342.1 179.591 342.146 178.75L344.443 136.931C344.537 135.219 346.008 133.826 347.721 133.826H397.188C398.027 133.826 398.8 134.154 399.364 134.75C399.929 135.346 400.215 136.138 400.169 136.979L397.872 178.797C397.778 180.509 396.307 181.903 394.594 181.903ZM347.722 134.683C346.457 134.683 345.37 135.713 345.3 136.979L343.004 178.797C342.971 179.4 343.174 179.966 343.574 180.39C343.974 180.812 344.525 181.046 345.127 181.046H394.594C395.859 181.046 396.946 180.016 397.016 178.75L399.313 136.931C399.345 136.328 399.143 135.762 398.742 135.339C398.342 134.917 397.791 134.683 397.189 134.683H347.722Z" fill="#5149B0"/>
<path d="M399.277 145.824H344.408C344.172 145.824 343.979 145.632 343.979 145.395C343.979 145.159 344.172 144.967 344.408 144.967H399.277C399.513 144.967 399.705 145.159 399.705 145.395C399.705 145.632 399.514 145.824 399.277 145.824Z" fill="#5149B0"/>
<path d="M355.382 181.903C355.374 181.903 355.366 181.903 355.358 181.902C355.121 181.89 354.941 181.687 354.953 181.45L356.935 145.372C356.948 145.135 357.148 144.951 357.387 144.968C357.624 144.98 357.805 145.183 357.792 145.42L355.81 181.499C355.797 181.726 355.608 181.903 355.382 181.903Z" fill="#5149B0"/>
<path d="M392.993 150.11H363.204C362.967 150.11 362.775 149.918 362.775 149.682C362.775 149.445 362.967 149.253 363.204 149.253H392.993C393.229 149.253 393.421 149.445 393.421 149.682C393.421 149.918 393.229 150.11 392.993 150.11Z" fill="#5149B0"/>
<path d="M388.504 155.371H362.914C362.678 155.371 362.486 155.179 362.486 154.943C362.486 154.706 362.678 154.514 362.914 154.514H388.504C388.741 154.514 388.933 154.706 388.933 154.943C388.933 155.179 388.741 155.371 388.504 155.371Z" fill="#5149B0"/>
<path d="M377.512 160.8H362.617C362.38 160.8 362.188 160.608 362.188 160.371C362.188 160.135 362.38 159.943 362.617 159.943H377.512C377.748 159.943 377.94 160.135 377.94 160.371C377.94 160.608 377.748 160.8 377.512 160.8Z" fill="#5149B0"/>
<path d="M380.217 171.394H362.035C361.798 171.394 361.606 171.202 361.606 170.965C361.606 170.729 361.798 170.537 362.035 170.537H380.217C380.453 170.537 380.646 170.729 380.646 170.965C380.646 171.203 380.453 171.394 380.217 171.394Z" fill="#5149B0"/>
<path d="M376.631 176.823H361.736C361.499 176.823 361.307 176.631 361.307 176.394C361.307 176.158 361.499 175.965 361.736 175.965H376.631C376.867 175.965 377.06 176.158 377.06 176.394C377.06 176.631 376.867 176.823 376.631 176.823Z" fill="#5149B0"/>
<path d="M385.35 176.823H380.577C380.341 176.823 380.148 176.631 380.148 176.394C380.148 176.158 380.341 175.965 380.577 175.965H385.35C385.587 175.965 385.779 176.158 385.779 176.394C385.779 176.631 385.587 176.823 385.35 176.823Z" fill="#5149B0"/>
<path d="M390.221 166.06H362.327C362.091 166.06 361.899 165.868 361.899 165.631C361.899 165.395 362.091 165.203 362.327 165.203H390.221C390.457 165.203 390.649 165.395 390.649 165.631C390.649 165.868 390.457 166.06 390.221 166.06Z" fill="#5149B0"/>
<path d="M364.219 242.742C357.756 242.742 352.461 240.831 349.172 237.279C345.66 233.487 344.204 227.522 345.175 220.916C345.769 216.87 347.091 213.475 349.105 210.824C351.126 208.165 354.049 205.973 357.794 204.307C366.056 200.633 375.619 200.761 383.377 204.653C386.853 206.396 389.03 208.602 389.851 211.208C389.993 211.659 389.742 212.141 389.29 212.283C388.838 212.426 388.358 212.175 388.215 211.723C387.539 209.576 385.652 207.712 382.607 206.185C375.304 202.522 366.288 202.407 358.49 205.874C355.012 207.422 352.314 209.435 350.469 211.862C348.633 214.278 347.422 217.409 346.87 221.165C345.974 227.256 347.271 232.705 350.428 236.114C354.816 240.853 362.08 241.192 366.02 240.976C373.345 240.57 379.646 238.012 383.763 233.772C388.578 228.814 389.929 221.397 386.904 216.519C386.317 215.574 385.057 213.961 383.204 213.777C382.733 213.73 382.389 213.31 382.437 212.839C382.483 212.368 382.907 212.027 383.374 212.071C385.291 212.262 387.061 213.521 388.361 215.616C391.789 221.142 390.341 229.461 384.994 234.968C380.575 239.518 373.871 242.259 366.116 242.69C365.474 242.724 364.841 242.742 364.219 242.742Z" fill="white"/>
<path d="M145.009 153.355L141.963 158.663L138.979 164.082C137.014 167.703 135.136 171.354 133.422 175.022C132.569 176.862 131.757 178.693 131.016 180.534L130.879 180.866C130.867 180.893 130.852 180.919 130.834 180.946C130.787 180.999 130.771 181.046 130.743 181.091C130.686 181.184 130.649 181.274 130.6 181.394C130.521 181.632 130.551 182.038 130.726 182.578C131.062 183.674 132.054 185.104 133.27 186.434C134.463 187.773 136.005 189.141 137.394 190.342L134.919 195.614C133.661 195.255 132.615 194.893 131.506 194.408C130.41 193.946 129.344 193.386 128.282 192.755C126.184 191.459 124.076 189.857 122.33 187.235C121.481 185.922 120.754 184.298 120.468 182.419C120.339 181.483 120.292 180.503 120.412 179.548C120.466 179.069 120.536 178.593 120.655 178.141L120.827 177.454L120.957 177.037C121.636 174.878 122.339 172.741 123.163 170.681C124.768 166.536 126.576 162.531 128.549 158.632C129.534 156.682 130.556 154.755 131.632 152.857C132.715 150.943 133.769 149.097 135.007 147.168L145.009 153.355Z" fill="#FFC3BD"/>
<path d="M134.745 189.746L140.294 188.304L140.612 197.262C140.612 197.262 136.271 197.907 133.614 195.251L134.745 189.746Z" fill="#FFC3BD"/>
<path d="M148.156 186.794L146.904 194.659L140.611 197.262L140.293 188.304L148.156 186.794Z" fill="#FFC3BD"/>
<path d="M171.107 111.139C171.231 111.752 171.657 112.183 172.058 112.102C172.46 112.02 172.682 111.458 172.558 110.844C172.433 110.23 172.008 109.8 171.606 109.881C171.206 109.963 170.982 110.526 171.107 111.139Z" fill="#17213A"/>
<path d="M171.601 112.195C171.601 112.195 173.714 115.449 175.596 116.843C174.717 118.077 172.778 117.989 172.778 117.989L171.601 112.195Z" fill="#ED847E"/>
<path d="M168.17 108.19C168.081 108.19 167.992 108.158 167.921 108.093C167.772 107.955 167.762 107.722 167.901 107.574C169.281 106.08 170.955 106.345 171.027 106.358C171.226 106.392 171.361 106.582 171.328 106.782C171.293 106.981 171.102 107.114 170.905 107.083C170.85 107.074 169.541 106.882 168.439 108.072C168.368 108.151 168.269 108.19 168.17 108.19Z" fill="#17213A"/>
<path d="M153.64 119.764C154.753 125.439 155.862 135.838 151.892 139.625C151.892 139.625 153.443 145.383 163.988 145.383C175.584 145.383 169.53 139.626 169.53 139.626C163.202 138.115 163.365 133.419 164.468 129.01L153.64 119.764Z" fill="#FFC3BD"/>
<path d="M149.605 140.678C148.757 139.102 147.823 137.297 149.755 136.732C151.879 136.11 165.527 134.957 169.537 136.124C168.304 138.315 170.39 141.008 170.39 141.008L149.605 140.678Z" fill="#17213A"/>
<path d="M115.25 405.261C116.028 405.429 116.806 405.474 117.181 405.155C117.338 405.021 117.497 404.765 117.36 404.302C117.288 404.059 117.128 403.877 116.887 403.762C115.839 403.261 113.432 404.243 113.329 404.284C113.262 404.312 113.218 404.376 113.216 404.449C113.214 404.522 113.254 404.588 113.319 404.62C113.687 404.796 114.468 405.091 115.25 405.261ZM116.512 404.02C116.591 404.037 116.664 404.061 116.727 404.092C116.873 404.162 116.965 404.264 117.007 404.406C117.105 404.736 116.983 404.841 116.942 404.875C116.525 405.229 114.976 404.902 113.885 404.466C114.626 404.205 115.823 403.871 116.512 404.02Z" fill="#383192"/>
<path d="M113.36 404.633C113.39 404.639 113.421 404.638 113.451 404.63C114.328 404.373 116.204 403.04 116.228 402.161C116.232 402.001 116.176 401.712 115.758 401.566C115.486 401.471 115.213 401.494 114.943 401.632C113.906 402.161 113.252 404.31 113.224 404.4C113.205 404.465 113.222 404.534 113.27 404.583C113.294 404.608 113.326 404.625 113.36 404.633ZM115.556 401.89C115.582 401.896 115.61 401.904 115.636 401.914C115.863 401.993 115.86 402.104 115.859 402.151C115.846 402.671 114.608 403.717 113.699 404.141C113.927 403.521 114.445 402.298 115.109 401.959C115.261 401.881 115.408 401.859 115.556 401.89Z" fill="#383192"/>
<path d="M172.526 406.562C173.522 406.562 174.484 406.425 174.806 405.978C174.919 405.822 175.008 405.555 174.79 405.176C174.669 404.962 174.472 404.818 174.208 404.746C172.917 404.395 170.206 405.94 170.091 406.006C170.024 406.044 169.989 406.119 170.001 406.195C170.014 406.271 170.072 406.33 170.147 406.346C170.641 406.443 171.598 406.562 172.526 406.562ZM173.756 405.057C173.886 405.057 174.006 405.07 174.111 405.099C174.281 405.146 174.398 405.229 174.471 405.356C174.601 405.584 174.554 405.697 174.507 405.763C174.146 406.264 172.185 406.276 170.744 406.072C171.462 405.702 172.849 405.057 173.756 405.057Z" fill="#383192"/>
<path d="M170.183 406.348C170.208 406.348 170.234 406.342 170.258 406.332C171.195 405.912 173.049 404.234 172.907 403.357C172.874 403.151 172.728 402.895 172.223 402.844C171.846 402.806 171.505 402.911 171.204 403.159C170.217 403.969 170.009 406.058 169.999 406.147C169.993 406.211 170.021 406.276 170.075 406.314C170.107 406.336 170.145 406.348 170.183 406.348ZM172.075 403.203C172.111 403.203 172.148 403.205 172.186 403.208C172.517 403.242 172.538 403.372 172.544 403.415C172.63 403.941 171.369 405.26 170.413 405.834C170.512 405.224 170.789 403.974 171.437 403.443C171.633 403.281 171.842 403.203 172.075 403.203Z" fill="#383192"/>
<path d="M161.651 406.164H169.41L170.182 388.198H162.424L161.651 406.164Z" fill="#FFC3BD"/>
<path d="M104.713 402.572L112.295 404.215L119.907 387.481L112.325 385.839L104.713 402.572Z" fill="#FFC3BD"/>
<path d="M113.024 403.453L104.506 401.609C104.195 401.542 103.881 401.699 103.749 401.987L100.792 408.403C100.486 409.068 100.891 409.848 101.61 409.991C104.595 410.583 106.077 410.722 109.824 411.533C112.128 412.031 117.331 413.299 120.514 413.988C123.627 414.662 124.793 411.62 123.552 411.053C117.987 408.51 115.662 406.272 114.156 404.185C113.882 403.809 113.477 403.551 113.024 403.453Z" fill="#17213A"/>
<path d="M169.358 405.265H160.886C160.569 405.265 160.294 405.486 160.225 405.795L158.692 412.691C158.534 413.406 159.077 414.084 159.809 414.071C162.865 414.019 167.281 413.84 171.122 413.84C175.613 413.84 179.491 414.085 184.759 414.085C187.944 414.085 188.828 410.865 187.494 410.574C181.425 409.246 176.47 409.104 171.225 405.87C170.657 405.519 170.028 405.265 169.358 405.265Z" fill="#17213A"/>
<path d="M138.002 141.379C130.732 143.047 124.737 161.608 124.737 161.608L139.338 172.737C139.338 172.737 144.697 167.684 147.082 158.4C149.58 148.671 145.437 139.675 138.002 141.379Z" fill="#383192"/>
<path opacity="0.2" d="M138.002 141.379C130.732 143.047 124.737 161.608 124.737 161.608L139.338 172.737C139.338 172.737 144.697 167.684 147.082 158.4C149.58 148.671 145.437 139.675 138.002 141.379Z" fill="#FAFAFA"/>
<path opacity="0.2" d="M144.234 155.029C140.284 158.936 138.996 166.054 138.69 172.242L139.334 172.738C139.334 172.738 144.698 167.68 147.085 158.398C147.233 157.817 147.359 157.236 147.465 156.666L144.234 155.029Z" fill="#17213A"/>
<path d="M181.463 141.778C181.463 141.778 189.72 151.105 181.922 208.831C169.42 208.831 146.513 208.831 140.429 208.831C140.143 202.462 144.145 171.39 138.002 141.378C138.002 141.378 145.114 139.951 151.893 139.624C157.195 139.369 164.87 139.2 169.531 139.625C175.675 140.186 181.463 141.778 181.463 141.778Z" fill="#383192"/>
<path opacity="0.2" d="M181.463 141.778C181.463 141.778 189.72 151.105 181.922 208.831C169.42 208.831 146.513 208.831 140.429 208.831C140.143 202.462 144.145 171.39 138.002 141.378C138.002 141.378 145.114 139.951 151.893 139.624C157.195 139.369 164.87 139.2 169.531 139.625C175.675 140.186 181.463 141.778 181.463 141.778Z" fill="#FAFAFA"/>
<path opacity="0.2" d="M185.09 159.422L184.932 159.285L175.502 161.545C174.963 167.923 181.521 175.547 184.9 179.032C185.365 170.89 185.354 164.47 185.09 159.422Z" fill="#17213A"/>
<path opacity="0.2" d="M170.181 388.203L169.784 397.464H162.022L162.419 388.203H170.181Z" fill="#17213A"/>
<path opacity="0.2" d="M112.321 385.843L119.907 387.485L115.978 396.11L108.394 394.468L112.321 385.843Z" fill="#17213A"/>
<path d="M150.39 113.996C152.383 121.433 153.172 125.887 157.761 128.979C164.664 133.63 173.259 128.292 173.528 120.409C173.77 113.314 170.47 102.344 162.49 100.846C154.627 99.3706 148.398 106.56 150.39 113.996Z" fill="#FFC3BD"/>
<path d="M153.805 126.123C156.967 127.933 168.495 121.886 166.128 112.719C166.128 112.719 170.52 107.438 170.023 101.61C169.527 95.7823 165.527 93.5615 161.271 94.8118C157.52 95.9143 157.629 97.9682 157.629 97.9682C157.629 97.9682 139.901 100.055 143.685 107.261C136.469 115.128 149.859 123.864 153.805 126.123Z" fill="#17213A"/>
<path d="M144.182 107.861C144.182 107.861 142.07 104.206 138.99 106.253C140.443 106.274 142.819 106.522 144.182 107.861Z" fill="#17213A"/>
<path d="M169.458 105.451C169.458 105.451 173.322 96.7295 167.299 93.9216C169.33 96.7475 170.434 101.309 169.458 105.451Z" fill="#17213A"/>
<path d="M163.044 114.308C163.55 116.259 164.833 117.938 166.175 118.936C168.194 120.438 169.702 118.959 169.559 116.675C169.43 114.619 168.224 111.359 165.997 110.75C163.801 110.15 162.466 112.076 163.044 114.308Z" fill="#FFC3BD"/>
<path d="M167.203 208.832C167.203 208.832 158.399 268.118 153.566 290.329C148.273 314.652 119.892 395.122 119.892 395.122L106.004 392.116C106.004 392.116 125.85 326.537 130.292 292.534C133.704 266.415 140.429 208.832 140.429 208.832H167.203Z" fill="#17213A"/>
<path d="M123.217 390.487C123.276 390.499 120.629 395.509 120.629 395.509L105.004 392.126L106.321 387.429L123.217 390.487Z" fill="#383192"/>
<path opacity="0.3" d="M161.639 229.956C151.459 231.951 152.536 269.915 153.761 289.44C156.697 275.638 160.995 249.08 163.93 230.23C163.254 229.892 162.494 229.787 161.639 229.956Z" fill="#17213A"/>
<path d="M181.922 208.832C181.922 208.832 182.991 266.835 182.147 290.493C181.27 315.1 172.675 395.671 172.675 395.671H159.533C159.533 395.671 159.05 316.538 158.467 292.371C157.829 266.025 154.648 208.833 154.648 208.833H181.922V208.832Z" fill="#17213A"/>
<path opacity="0.4" d="M254.879 167.94H228.108L226.612 195.168L253.345 195.883L254.879 167.94Z" fill="#17213A"/>
<path d="M240.807 185.458C231.87 184.355 222.933 183.252 213.994 182.149C216.161 173.069 217.774 163.925 218.828 154.765C227.818 155.872 236.809 156.977 245.798 158.084C244.692 167.243 243.027 176.385 240.807 185.458Z" fill="#5149B0"/>
<path d="M175.203 390.436C175.263 390.436 174.462 395.892 174.462 395.892H158.475L158.043 391.023L175.203 390.436Z" fill="#383192"/>
<path d="M185.29 148.856C186.482 150.713 187.842 152.8 189.199 154.727C190.584 156.671 191.966 158.615 193.422 160.483C196.308 164.224 199.369 167.817 202.664 170.799C203.481 171.555 204.316 172.254 205.16 172.899L205.793 173.376C205.736 173.342 205.535 173.275 205.422 173.248C205.146 173.196 205.012 173.243 205.086 173.281C205.246 173.364 206.018 173.231 206.824 172.882C207.642 172.534 208.573 172.063 209.495 171.495C213.208 169.193 217.044 165.977 220.649 162.851L225.18 166.511C222.369 171.04 219.275 175.136 215.025 178.901C213.945 179.829 212.788 180.751 211.395 181.572C209.995 182.38 208.404 183.206 206.068 183.551C204.901 183.703 203.488 183.673 202.03 183.209C201.318 182.997 200.566 182.621 199.978 182.26L199.062 181.68C197.853 180.898 196.703 180.073 195.611 179.213C191.245 175.753 187.599 171.852 184.237 167.795C182.582 165.749 180.978 163.678 179.491 161.527C177.987 159.353 176.574 157.275 175.173 154.855L185.29 148.856Z" fill="#FFC3BD"/>
<path d="M170.051 153.513C167.569 163.913 186.388 174.098 186.388 174.098L198.611 159.777C198.611 159.777 193.046 151.344 186.123 144.699C177.572 136.492 171.939 145.596 170.051 153.513Z" fill="#383192"/>
<path opacity="0.2" d="M170.051 153.513C167.569 163.913 186.388 174.098 186.388 174.098L198.611 159.777C198.611 159.777 193.046 151.344 186.123 144.699C177.572 136.492 171.939 145.596 170.051 153.513Z" fill="#FAFAFA"/>
<path d="M219.42 165.015L222.305 155.75L229.897 159.534C229.897 159.534 228.791 166.294 223.265 167.466L219.42 165.015Z" fill="#FFC3BD"/>
<path d="M225.349 153.182L232.196 155.066L229.897 159.533L222.304 155.75L225.349 153.182Z" fill="#FFC3BD"/>
</g>
<defs>
<clipPath id="clip0_264_48628">
<rect width="528" height="459" fill="white"/>
</clipPath>
</defs>
</svg>
