<svg width="556" height="495" viewBox="0 0 556 495" fill="none" xmlns="http://www.w3.org/2000/svg">
<g opacity="0.8">
<path opacity="0.7" d="M369.932 28.5661C369.932 28.5661 283.194 -2.29234 198.049 46.8376C112.905 95.9663 69.9428 193.493 33.0499 271.617C-3.843 349.74 17.3923 429.206 82.3894 465.439C147.385 501.672 191.581 448.259 282.76 445.658C373.941 443.057 398.463 456.099 474.124 404.564C549.785 353.029 563.461 231.319 503.778 141.263C444.092 51.208 369.932 28.5661 369.932 28.5661Z" fill="#C3C1DE"/>
<path d="M1.21191 494.278H554.788" stroke="#17213A" stroke-miterlimit="10" stroke-linecap="round" stroke-linejoin="round"/>
<path d="M539.929 419.067C536.878 420.016 529.773 419.074 529.767 419.073C529.694 419.063 531.812 414.589 531.977 414.322C533.901 411.232 539.437 406.389 543.398 407.374C546.252 408.083 547.543 411.153 546.588 413.802C545.614 416.508 542.528 418.259 539.929 419.067Z" fill="#17213A"/>
<path d="M473.701 417.081C473.635 417.114 472.927 412.217 472.918 411.901C472.814 408.266 474.753 401.181 478.602 399.82C481.373 398.841 484.148 400.69 484.817 403.425C485.5 406.219 483.894 409.377 482.173 411.483C480.155 413.954 473.707 417.079 473.701 417.081Z" fill="#17213A"/>
<path d="M474.94 469.438C477.324 469.743 482.037 468.404 483.359 468.008C483.575 470.033 483.835 472.037 484.185 473.997C484.354 474.84 484.472 475.711 484.681 476.509C484.874 477.319 485.065 478.12 485.254 478.914C485.703 480.543 486.115 482.059 486.572 483.563C486.798 484.325 487.028 485.04 487.256 485.777C486.689 484.607 485.76 482.769 485.656 482.612C483.905 479.935 478.943 475.791 475.483 476.735C472.989 477.414 471.916 480.137 472.807 482.446C473.718 484.804 476.464 486.281 478.764 486.94C481.3 487.667 486.877 486.864 487.559 486.762C488.128 488.565 488.699 490.316 489.264 491.944C489.631 493.013 489.991 494.019 490.346 495H492.701C492.235 493.806 491.758 492.569 491.266 491.233C490.723 489.773 490.174 488.217 489.624 486.611C490.25 486.351 495.081 484.302 497.028 482.427C499.065 483.72 501.385 484.816 501.794 485.005C501.271 486.822 500.78 488.596 500.35 490.264C499.914 491.943 499.534 493.506 499.182 495H501.465C501.754 493.658 502.06 492.268 502.414 490.773C502.769 489.257 503.171 487.656 503.6 486.015C504.291 486.147 509.82 487.167 512.378 486.545C514.703 485.979 517.506 484.613 518.511 482.294C519.496 480.022 518.532 477.26 516.067 476.479C512.647 475.398 507.524 479.341 505.665 481.945C505.546 482.113 504.363 484.24 503.782 485.339C504.045 484.349 504.302 483.364 504.594 482.337C505 480.857 505.479 479.306 505.934 477.799C506.198 477.027 506.466 476.248 506.736 475.46C506.992 474.659 507.333 473.928 507.632 473.146C508.093 472.013 508.629 470.868 509.158 469.722C510.643 470.226 515.029 471.631 517.338 471.43C519.722 471.221 522.7 470.295 524.046 468.155C525.363 466.058 524.832 463.18 522.514 462.038C519.297 460.452 513.634 463.575 511.402 465.869C511.33 465.943 510.908 466.476 510.416 467.114C510.967 466.013 511.515 464.911 512.111 463.813C513.801 460.698 515.622 457.577 517.433 454.443C517.811 453.79 518.177 453.131 518.553 452.477C519.801 452.908 524.539 454.471 526.957 454.26C529.342 454.051 532.32 453.125 533.665 450.984C534.982 448.887 534.45 446.011 532.133 444.868C528.917 443.282 523.252 446.405 521.021 448.698C520.942 448.78 520.44 449.418 519.885 450.137C520.844 448.42 521.78 446.697 522.654 444.958C524.187 441.919 525.531 438.841 526.598 435.758C527.037 435.914 532.554 437.86 535.242 437.625C537.626 437.417 540.604 436.491 541.95 434.35C543.267 432.253 542.734 429.376 540.417 428.234C537.201 426.648 531.537 429.77 529.305 432.064C529.147 432.227 527.349 434.548 526.736 435.4C526.748 435.363 526.766 435.326 526.778 435.29C527.867 432.044 528.506 428.809 528.962 425.713C529.421 422.624 529.59 419.677 529.675 416.963C529.768 414.246 529.684 411.755 529.592 409.552C529.534 408.359 529.458 407.27 529.375 406.253C529.387 406.263 529.435 406.299 529.435 406.299C529.488 406.339 530.929 402.235 530.99 401.965C531.697 398.848 531.229 392.409 528.142 390.586C525.917 389.273 523.211 390.398 522.168 392.644C521.105 394.937 521.952 397.933 523.079 400.039C524.233 402.198 528.208 405.353 529.204 406.123C529.268 407.18 529.325 408.31 529.359 409.561C529.403 411.762 529.431 414.246 529.281 416.948C529.242 417.669 529.172 418.441 529.118 419.191C528.947 417.908 528.688 416.148 528.643 415.981C527.831 412.889 524.441 407.39 520.859 407.191C518.278 407.047 516.396 409.291 516.508 411.763C516.623 414.287 518.759 416.556 520.733 417.907C522.791 419.317 527.902 420.296 529.021 420.498C528.874 422.158 528.685 423.861 528.383 425.624C527.867 428.67 527.157 431.889 526.011 435.064C525.9 435.046 525.92 435.049 525.809 435.031C525.796 433.828 525.711 431.298 525.68 431.089C525.214 427.926 522.45 422.09 518.911 421.5C516.361 421.075 514.244 423.099 514.084 425.568C513.92 428.09 515.794 430.579 517.605 432.139C519.693 433.935 525.537 435.618 525.756 435.681C524.651 438.63 523.291 441.575 521.741 444.489C520.621 446.602 519.399 448.697 518.153 450.787C518.167 449.941 518.058 446.621 518.023 446.383C517.557 443.22 514.793 437.384 511.253 436.794C508.703 436.369 506.585 438.393 506.426 440.862C506.263 443.384 508.137 445.873 509.948 447.433C511.987 449.187 517.578 450.824 518.05 450.96C517.483 451.908 516.922 452.858 516.347 453.805C514.47 456.895 512.576 459.985 510.8 463.092C510.185 464.168 509.619 465.251 509.045 466.334C509.027 465.065 508.948 462.759 508.919 462.562C508.453 459.399 505.688 453.562 502.15 452.972C499.6 452.547 497.482 454.57 497.323 457.04C497.16 459.562 499.033 462.051 500.845 463.61C502.666 465.176 507.337 466.654 508.658 467.051C507.719 468.859 506.828 470.673 506.035 472.502C505.71 473.297 505.328 474.088 505.06 474.869C504.773 475.651 504.488 476.424 504.207 477.191C503.681 478.796 503.187 480.287 502.736 481.794C502.502 482.555 502.299 483.276 502.082 484.017C502.256 482.729 502.498 480.685 502.498 480.497C502.517 477.301 500.671 471.113 497.263 469.995C494.808 469.189 492.407 470.869 491.873 473.286C491.805 473.593 491.77 473.905 491.761 474.219C490.119 476.555 489.166 479.957 489.094 482.08C489.086 482.284 489.276 484.711 489.399 485.948C489.071 484.976 488.741 484.014 488.416 482.997C487.937 481.538 487.479 479.981 487.025 478.474C486.819 477.685 486.611 476.887 486.401 476.082C486.171 475.273 486.053 474.475 485.869 473.659C485.628 472.46 485.439 471.211 485.249 469.964C486.767 469.567 491.201 468.324 493.015 466.886C494.888 465.4 496.86 462.988 496.799 460.462C496.739 457.988 494.704 455.881 492.14 456.204C488.579 456.652 485.583 462.373 484.99 465.515C484.971 465.617 484.914 466.293 484.856 467.096C484.706 465.874 484.554 464.653 484.445 463.41C484.132 459.88 483.927 456.275 483.703 452.665C483.657 451.912 483.599 451.161 483.55 450.408C484.829 450.081 489.645 448.778 491.546 447.27C493.419 445.784 495.391 443.372 495.329 440.846C495.268 438.372 493.234 436.266 490.669 436.589C487.11 437.037 484.114 442.759 483.52 445.899C483.498 446.012 483.433 446.82 483.368 447.725C483.219 445.765 483.046 443.813 482.814 441.881C482.412 438.503 481.832 435.195 481.016 432.038C481.469 431.927 487.146 430.513 489.258 428.836C491.131 427.351 493.103 424.938 493.041 422.412C492.98 419.939 490.945 417.832 488.382 418.154C484.821 418.602 481.825 424.324 481.232 427.465C481.19 427.688 480.975 430.613 480.934 431.661C480.923 431.624 480.919 431.583 480.908 431.546C480.022 428.238 478.765 425.19 477.434 422.356C476.11 419.527 474.622 416.976 473.192 414.665C471.766 412.348 470.319 410.317 469.025 408.53C468.315 407.568 467.65 406.7 467.02 405.898C467.035 405.899 467.095 405.904 467.095 405.904C467.161 405.908 466.094 401.692 465.997 401.434C464.864 398.444 460.912 393.332 457.329 393.51C454.747 393.638 453.111 396.068 453.485 398.513C453.865 401.011 456.229 403.043 458.333 404.18C460.489 405.345 465.55 405.789 466.806 405.883C467.443 406.729 468.115 407.641 468.837 408.665C470.09 410.476 471.486 412.533 472.855 414.87C473.222 415.493 473.59 416.175 473.959 416.832C473.107 415.856 471.918 414.531 471.788 414.414C469.402 412.283 463.534 409.561 460.436 411.369C458.205 412.669 457.875 415.577 459.336 417.577C460.828 419.619 463.864 420.335 466.257 420.376C468.754 420.42 473.557 418.424 474.603 417.976C475.399 419.441 476.181 420.965 476.905 422.603C478.159 425.426 479.346 428.502 480.146 431.779C480.042 431.825 480.062 431.817 479.959 431.862C479.282 430.864 477.813 428.804 477.673 428.647C475.536 426.266 470.003 422.919 466.724 424.375C464.363 425.424 463.715 428.278 464.947 430.426C466.205 432.619 469.144 433.664 471.517 433.967C474.252 434.317 480.055 432.504 480.273 432.435C480.983 435.504 481.477 438.708 481.795 441.992C482.029 444.371 482.168 446.791 482.284 449.219C481.828 448.506 479.902 445.797 479.742 445.619C477.604 443.238 472.071 439.892 468.793 441.347C466.432 442.395 465.784 445.249 467.015 447.396C468.273 449.589 471.213 450.634 473.586 450.938C476.256 451.279 481.825 449.567 482.292 449.421C482.345 450.524 482.403 451.624 482.445 452.731C482.589 456.342 482.717 459.962 482.955 463.53C483.037 464.766 483.163 465.981 483.283 467.199C482.567 466.152 481.225 464.271 481.092 464.122C478.954 461.741 473.421 458.394 470.144 459.849C467.782 460.899 467.134 463.752 468.367 465.9C469.628 468.089 472.567 469.134 474.94 469.438Z" fill="#17213A"/>
<path d="M504.619 1H62.9277V275.271H504.619V1Z" fill="white" stroke="#17213A" stroke-miterlimit="10" stroke-linecap="round" stroke-linejoin="round"/>
<path d="M504.001 21.9558H492.883V243.837H504.001" stroke="#17213A" stroke-miterlimit="10" stroke-linecap="round" stroke-linejoin="round"/>
<path d="M492.708 198.506H504.65" stroke="#17213A" stroke-miterlimit="10" stroke-linecap="round" stroke-linejoin="round"/>
<path d="M493.17 72.5591H504.251" stroke="#17213A" stroke-miterlimit="10" stroke-linecap="round" stroke-linejoin="round"/>
<path d="M496.085 30.0825V66.1581" stroke="#17213A" stroke-miterlimit="10" stroke-linecap="round" stroke-linejoin="round"/>
<path d="M498.418 30.0825V66.1581" stroke="#17213A" stroke-miterlimit="10" stroke-linecap="round" stroke-linejoin="round"/>
<path d="M500.752 30.0825V66.1581" stroke="#17213A" stroke-miterlimit="10" stroke-linecap="round" stroke-linejoin="round"/>
<path d="M277.896 160.077L434.408 160.368L434.458 96.0911L277.945 95.8L277.896 160.077Z" fill="white" stroke="#17213A" stroke-width="0.5" stroke-miterlimit="10" stroke-linecap="round" stroke-linejoin="round"/>
<path d="M277.94 101.955L434.453 102.246L434.458 96.0911L277.945 95.8L277.94 101.955Z" fill="white" stroke="#17213A" stroke-width="0.5" stroke-miterlimit="10" stroke-linecap="round" stroke-linejoin="round"/>
<path d="M441.209 90.633L278.625 90.3317L278.656 49.9866L416.279 50.2421L441.209 90.633Z" fill="white" stroke="#17213A" stroke-width="0.5" stroke-miterlimit="10" stroke-linecap="round" stroke-linejoin="round"/>
<path d="M277.268 97.8507L441.202 98.1555L441.207 90.6334L277.274 90.3286L277.268 97.8507Z" fill="white" stroke="#17213A" stroke-width="0.5" stroke-miterlimit="10" stroke-linecap="round" stroke-linejoin="round"/>
<path d="M305.75 74.6837L196.063 74.4797L196.021 128.259L305.709 128.463L305.75 74.6837Z" fill="white" stroke="#17213A" stroke-width="0.5" stroke-miterlimit="10" stroke-linecap="round" stroke-linejoin="round"/>
<path d="M305.751 74.6837L196.063 74.4797L196.059 79.9207L305.746 80.1247L305.751 74.6837Z" fill="white" stroke="#17213A" stroke-width="0.5" stroke-miterlimit="10" stroke-linecap="round" stroke-linejoin="round"/>
<path d="M249.673 19.7654L189.947 65.1603L309.328 65.3815L249.673 19.7654Z" fill="white" stroke="#17213A" stroke-width="0.5" stroke-miterlimit="10" stroke-linecap="round" stroke-linejoin="round"/>
<path d="M249.669 25.9702L202.16 62.0802L297.123 62.2566L249.669 25.9702Z" fill="white" stroke="#17213A" stroke-width="0.5" stroke-miterlimit="10" stroke-linecap="round" stroke-linejoin="round"/>
<path d="M115.844 233.918L108.701 233.904L108.765 149.817L115.908 149.829L115.844 233.918Z" fill="white" stroke="#17213A" stroke-width="0.5" stroke-miterlimit="10" stroke-linecap="round" stroke-linejoin="round"/>
<path d="M456.641 234.303L126.048 233.69L126.112 149.849L456.705 150.462L456.641 234.303Z" fill="white" stroke="#17213A" stroke-width="0.5" stroke-miterlimit="10" stroke-linecap="round" stroke-linejoin="round"/>
<path d="M456.697 159.727L126.104 159.113L126.11 149.849L456.704 150.462L456.697 159.727Z" fill="white" stroke="#17213A" stroke-width="0.5" stroke-miterlimit="10" stroke-linecap="round" stroke-linejoin="round"/>
<path d="M323.551 147.629L99.585 147.213L118.48 122.426L323.571 122.808L323.551 147.629Z" fill="white" stroke="#17213A" stroke-width="0.5" stroke-miterlimit="10" stroke-linecap="round" stroke-linejoin="round"/>
<path d="M281.714 152.723L99.5811 152.385L99.5845 147.213L281.717 147.552L281.714 152.723Z" fill="white" stroke="#17213A" stroke-width="0.5" stroke-miterlimit="10" stroke-linecap="round" stroke-linejoin="round"/>
<path d="M456.706 147.876L272.023 147.533L271.956 233.96L456.639 234.302L456.706 147.876Z" fill="white" stroke="#17213A" stroke-width="0.5" stroke-miterlimit="10" stroke-linecap="round" stroke-linejoin="round"/>
<path d="M451.955 152.878L276.766 152.553L276.704 233.969L451.893 234.295L451.955 152.878Z" fill="white" stroke="#17213A" stroke-width="0.5" stroke-miterlimit="10" stroke-linecap="round" stroke-linejoin="round"/>
<path d="M437.307 164.389L291.397 164.117L291.343 233.997L437.253 234.268L437.307 164.389Z" fill="white" stroke="#17213A" stroke-width="0.5" stroke-miterlimit="10" stroke-linecap="round" stroke-linejoin="round"/>
<path d="M328.126 199.275L295.173 199.213L295.183 186.044L328.136 186.106L328.126 199.275Z" fill="white" stroke="#17213A" stroke-width="0.5" stroke-miterlimit="10" stroke-linecap="round" stroke-linejoin="round"/>
<path d="M363.299 199.341L330.348 199.279L330.358 186.11L363.31 186.172L363.299 199.341Z" fill="white" stroke="#17213A" stroke-width="0.5" stroke-miterlimit="10" stroke-linecap="round" stroke-linejoin="round"/>
<path d="M328.113 215.013L295.161 214.952L295.171 201.782L328.123 201.844L328.113 215.013Z" fill="white" stroke="#17213A" stroke-width="0.5" stroke-miterlimit="10" stroke-linecap="round" stroke-linejoin="round"/>
<path d="M363.286 215.079L330.333 215.017L330.343 201.848L363.296 201.91L363.286 215.079Z" fill="white" stroke="#17213A" stroke-width="0.5" stroke-miterlimit="10" stroke-linecap="round" stroke-linejoin="round"/>
<path d="M328.101 230.751L295.148 230.69L295.159 217.521L328.112 217.581L328.101 230.751Z" fill="white" stroke="#17213A" stroke-width="0.5" stroke-miterlimit="10" stroke-linecap="round" stroke-linejoin="round"/>
<path d="M363.274 230.816L330.322 230.756L330.333 217.586L363.284 217.647L363.274 230.816Z" fill="white" stroke="#17213A" stroke-width="0.5" stroke-miterlimit="10" stroke-linecap="round" stroke-linejoin="round"/>
<path d="M398.473 199.407L365.521 199.345L365.532 186.176L398.484 186.237L398.473 199.407Z" fill="white" stroke="#17213A" stroke-width="0.5" stroke-miterlimit="10" stroke-linecap="round" stroke-linejoin="round"/>
<path d="M433.643 199.473L400.691 199.411L400.702 186.241L433.653 186.303L433.643 199.473Z" fill="white" stroke="#17213A" stroke-width="0.5" stroke-miterlimit="10" stroke-linecap="round" stroke-linejoin="round"/>
<path d="M398.46 215.144L365.507 215.082L365.517 201.913L398.469 201.975L398.46 215.144Z" fill="white" stroke="#17213A" stroke-width="0.5" stroke-miterlimit="10" stroke-linecap="round" stroke-linejoin="round"/>
<path d="M433.632 215.21L400.681 215.148L400.69 201.979L433.643 202.04L433.632 215.21Z" fill="white" stroke="#17213A" stroke-width="0.5" stroke-miterlimit="10" stroke-linecap="round" stroke-linejoin="round"/>
<path d="M398.448 230.882L365.495 230.821L365.505 217.652L398.458 217.713L398.448 230.882Z" fill="white" stroke="#17213A" stroke-width="0.5" stroke-miterlimit="10" stroke-linecap="round" stroke-linejoin="round"/>
<path d="M433.621 230.948L400.669 230.887L400.679 217.718L433.631 217.778L433.621 230.948Z" fill="white" stroke="#17213A" stroke-width="0.5" stroke-miterlimit="10" stroke-linecap="round" stroke-linejoin="round"/>
<path d="M362.389 64.4065L264.88 148.555L459.768 148.917L362.389 64.4065Z" fill="white" stroke="#17213A" stroke-width="0.5" stroke-miterlimit="10" stroke-linecap="round" stroke-linejoin="round"/>
<path d="M362.378 75.9048L284.815 142.841L439.839 143.129L362.378 75.9048Z" fill="white" stroke="#17213A" stroke-width="0.5" stroke-miterlimit="10" stroke-linecap="round" stroke-linejoin="round"/>
<path d="M310.852 75.2102L189.94 74.9856L189.947 65.1602L310.859 65.3848L310.852 75.2102Z" fill="white" stroke="#17213A" stroke-width="0.5" stroke-miterlimit="10" stroke-linecap="round" stroke-linejoin="round"/>
<path d="M286.33 119.636L214.905 119.503L214.937 77.6169L286.363 77.7499L286.33 119.636Z" fill="white" stroke="#17213A" stroke-width="0.5" stroke-miterlimit="10" stroke-linecap="round" stroke-linejoin="round"/>
<path d="M276.126 119.616L225.108 119.522L225.141 77.636L276.158 77.7299L276.126 119.616Z" fill="white" stroke="#17213A" stroke-width="0.5" stroke-miterlimit="10" stroke-linecap="round" stroke-linejoin="round"/>
<path d="M252.659 119.573L248.577 119.566L248.609 77.6799L252.691 77.6868L252.659 119.573Z" fill="white" stroke="#17213A" stroke-width="0.5" stroke-miterlimit="10" stroke-linecap="round" stroke-linejoin="round"/>
<path d="M225.377 100.389L225.38 96.769L275.882 96.863L275.88 100.483L225.377 100.389Z" fill="white" stroke="#17213A" stroke-width="0.5" stroke-miterlimit="10" stroke-linecap="round" stroke-linejoin="round"/>
<path d="M212.786 220.337L141.36 220.204L141.401 168.493L212.826 168.624L212.786 220.337Z" fill="white" stroke="#17213A" stroke-width="0.5" stroke-miterlimit="10" stroke-linecap="round" stroke-linejoin="round"/>
<path d="M202.583 220.318L151.564 220.224L151.605 168.512L202.622 168.607L202.583 220.318Z" fill="white" stroke="#17213A" stroke-width="0.5" stroke-miterlimit="10" stroke-linecap="round" stroke-linejoin="round"/>
<path d="M179.115 220.274L175.033 220.267L175.073 168.555L179.155 168.563L179.115 220.274Z" fill="white" stroke="#17213A" stroke-width="0.5" stroke-miterlimit="10" stroke-linecap="round" stroke-linejoin="round"/>
<path d="M151.837 196.603L151.842 192.134L202.512 192.228L202.508 196.697L151.837 196.603Z" fill="white" stroke="#17213A" stroke-width="0.5" stroke-miterlimit="10" stroke-linecap="round" stroke-linejoin="round"/>
<path d="M263.333 169.754L235.783 169.702L235.734 233.308L263.283 233.359L263.333 169.754Z" fill="white" stroke="#17213A" stroke-width="0.5" stroke-miterlimit="10" stroke-linecap="round" stroke-linejoin="round"/>
<path d="M258.738 173.717L240.371 173.684L240.333 222.974L258.7 223.007L258.738 173.717Z" fill="white" stroke="#17213A" stroke-width="0.5" stroke-miterlimit="10" stroke-linecap="round" stroke-linejoin="round"/>
<path d="M299.63 174.115L299.631 171.372L294.826 171.363L294.823 174.106L299.63 174.115Z" fill="white" stroke="#17213A" stroke-width="0.5" stroke-miterlimit="10" stroke-linecap="round" stroke-linejoin="round"/>
<path d="M301.75 174.118L306.556 174.127L306.559 171.385L301.752 171.376L301.75 174.118Z" fill="white" stroke="#17213A" stroke-width="0.5" stroke-miterlimit="10" stroke-linecap="round" stroke-linejoin="round"/>
<path d="M299.626 175.621L294.821 175.611L294.818 179.054L299.624 179.062L299.626 175.621Z" fill="white" stroke="#17213A" stroke-width="0.5" stroke-miterlimit="10" stroke-linecap="round" stroke-linejoin="round"/>
<path d="M301.749 175.624L301.747 179.066L306.552 179.075L306.556 175.633L301.749 175.624Z" fill="white" stroke="#17213A" stroke-width="0.5" stroke-miterlimit="10" stroke-linecap="round" stroke-linejoin="round"/>
<path d="M317.725 174.148L317.728 171.406L312.921 171.396L312.919 174.139L317.725 174.148Z" fill="white" stroke="#17213A" stroke-width="0.5" stroke-miterlimit="10" stroke-linecap="round" stroke-linejoin="round"/>
<path d="M319.847 174.152L324.653 174.16L324.655 171.418L319.849 171.409L319.847 174.152Z" fill="white" stroke="#17213A" stroke-width="0.5" stroke-miterlimit="10" stroke-linecap="round" stroke-linejoin="round"/>
<path d="M317.724 175.654L312.917 175.646L312.915 179.087L317.72 179.096L317.724 175.654Z" fill="white" stroke="#17213A" stroke-width="0.5" stroke-miterlimit="10" stroke-linecap="round" stroke-linejoin="round"/>
<path d="M319.844 175.658L319.842 179.099L324.648 179.108L324.651 175.667L319.844 175.658Z" fill="white" stroke="#17213A" stroke-width="0.5" stroke-miterlimit="10" stroke-linecap="round" stroke-linejoin="round"/>
<path d="M335.826 174.181L335.828 171.439L331.022 171.43L331.02 174.173L335.826 174.181Z" fill="white" stroke="#17213A" stroke-width="0.5" stroke-miterlimit="10" stroke-linecap="round" stroke-linejoin="round"/>
<path d="M337.948 174.186L342.754 174.195L342.756 171.452L337.949 171.444L337.948 174.186Z" fill="white" stroke="#17213A" stroke-width="0.5" stroke-miterlimit="10" stroke-linecap="round" stroke-linejoin="round"/>
<path d="M335.824 175.689L331.018 175.679L331.016 179.121L335.821 179.13L335.824 175.689Z" fill="white" stroke="#17213A" stroke-width="0.5" stroke-miterlimit="10" stroke-linecap="round" stroke-linejoin="round"/>
<path d="M337.946 175.692L337.942 179.133L342.749 179.142L342.751 175.701L337.946 175.692Z" fill="white" stroke="#17213A" stroke-width="0.5" stroke-miterlimit="10" stroke-linecap="round" stroke-linejoin="round"/>
<path d="M353.926 174.216L353.928 171.473L349.121 171.465L349.119 174.207L353.926 174.216Z" fill="white" stroke="#17213A" stroke-width="0.5" stroke-miterlimit="10" stroke-linecap="round" stroke-linejoin="round"/>
<path d="M356.046 174.219L360.851 174.228L360.854 171.486L356.048 171.477L356.046 174.219Z" fill="white" stroke="#17213A" stroke-width="0.5" stroke-miterlimit="10" stroke-linecap="round" stroke-linejoin="round"/>
<path d="M353.923 175.721L349.117 175.712L349.114 179.154L353.921 179.162L353.923 175.721Z" fill="white" stroke="#17213A" stroke-width="0.5" stroke-miterlimit="10" stroke-linecap="round" stroke-linejoin="round"/>
<path d="M356.045 175.725L356.042 179.167L360.848 179.176L360.851 175.734L356.045 175.725Z" fill="white" stroke="#17213A" stroke-width="0.5" stroke-miterlimit="10" stroke-linecap="round" stroke-linejoin="round"/>
<path d="M372.025 174.249L372.027 171.506L367.222 171.497L367.22 174.24L372.025 174.249Z" fill="white" stroke="#17213A" stroke-width="0.5" stroke-miterlimit="10" stroke-linecap="round" stroke-linejoin="round"/>
<path d="M374.146 174.253L378.953 174.261L378.954 171.519L374.149 171.51L374.146 174.253Z" fill="white" stroke="#17213A" stroke-width="0.5" stroke-miterlimit="10" stroke-linecap="round" stroke-linejoin="round"/>
<path d="M372.022 175.755L367.217 175.747L367.215 179.188L372.02 179.197L372.022 175.755Z" fill="white" stroke="#17213A" stroke-width="0.5" stroke-miterlimit="10" stroke-linecap="round" stroke-linejoin="round"/>
<path d="M374.145 175.758L374.143 179.2L378.948 179.209L378.95 175.766L374.145 175.758Z" fill="white" stroke="#17213A" stroke-width="0.5" stroke-miterlimit="10" stroke-linecap="round" stroke-linejoin="round"/>
<path d="M390.123 174.282L390.125 171.54L385.32 171.531L385.317 174.274L390.123 174.282Z" fill="white" stroke="#17213A" stroke-width="0.5" stroke-miterlimit="10" stroke-linecap="round" stroke-linejoin="round"/>
<path d="M392.246 174.286L397.053 174.296L397.055 171.552L392.248 171.544L392.246 174.286Z" fill="white" stroke="#17213A" stroke-width="0.5" stroke-miterlimit="10" stroke-linecap="round" stroke-linejoin="round"/>
<path d="M390.122 175.789L385.317 175.78L385.314 179.221L390.12 179.23L390.122 175.789Z" fill="white" stroke="#17213A" stroke-width="0.5" stroke-miterlimit="10" stroke-linecap="round" stroke-linejoin="round"/>
<path d="M392.243 175.792L392.241 179.234L397.048 179.243L397.05 175.802L392.243 175.792Z" fill="white" stroke="#17213A" stroke-width="0.5" stroke-miterlimit="10" stroke-linecap="round" stroke-linejoin="round"/>
<path d="M408.224 174.317L408.226 171.573L403.42 171.565L403.418 174.308L408.224 174.317Z" fill="white" stroke="#17213A" stroke-width="0.5" stroke-miterlimit="10" stroke-linecap="round" stroke-linejoin="round"/>
<path d="M410.345 174.319L415.151 174.329L415.154 171.586L410.347 171.577L410.345 174.319Z" fill="white" stroke="#17213A" stroke-width="0.5" stroke-miterlimit="10" stroke-linecap="round" stroke-linejoin="round"/>
<path d="M408.221 175.822L403.415 175.813L403.413 179.255L408.218 179.263L408.221 175.822Z" fill="white" stroke="#17213A" stroke-width="0.5" stroke-miterlimit="10" stroke-linecap="round" stroke-linejoin="round"/>
<path d="M410.343 175.825L410.341 179.268L415.147 179.277L415.15 175.834L410.343 175.825Z" fill="white" stroke="#17213A" stroke-width="0.5" stroke-miterlimit="10" stroke-linecap="round" stroke-linejoin="round"/>
<path d="M426.325 174.35L426.327 171.607L421.521 171.598L421.519 174.34L426.325 174.35Z" fill="white" stroke="#17213A" stroke-width="0.5" stroke-miterlimit="10" stroke-linecap="round" stroke-linejoin="round"/>
<path d="M428.446 174.354L433.252 174.362L433.254 171.62L428.447 171.611L428.446 174.354Z" fill="white" stroke="#17213A" stroke-width="0.5" stroke-miterlimit="10" stroke-linecap="round" stroke-linejoin="round"/>
<path d="M426.323 175.855L421.517 175.846L421.515 179.289L426.321 179.298L426.323 175.855Z" fill="white" stroke="#17213A" stroke-width="0.5" stroke-miterlimit="10" stroke-linecap="round" stroke-linejoin="round"/>
<path d="M428.444 175.86L428.441 179.301L433.248 179.31L433.25 175.868L428.444 175.86Z" fill="white" stroke="#17213A" stroke-width="0.5" stroke-miterlimit="10" stroke-linecap="round" stroke-linejoin="round"/>
<path d="M241.186 20.0847H143.249" stroke="#17213A" stroke-width="0.5" stroke-miterlimit="10" stroke-linecap="round" stroke-linejoin="round"/>
<path d="M183.702 75.8447H84.7002" stroke="#17213A" stroke-width="0.5" stroke-miterlimit="10" stroke-linecap="round" stroke-linejoin="round"/>
<path d="M149.637 14.2446V80.6251" stroke="#17213A" stroke-width="0.5" stroke-miterlimit="10" stroke-linecap="round" stroke-linejoin="round"/>
<path d="M415.771 46.6378V19.554" stroke="#17213A" stroke-width="0.5" stroke-miterlimit="10" stroke-linecap="round" stroke-linejoin="round"/>
<path d="M259.817 21.1467H423.224" stroke="#17213A" stroke-width="0.5" stroke-miterlimit="10" stroke-linecap="round" stroke-linejoin="round"/>
<path d="M445.578 98.1497H464.207" stroke="#17213A" stroke-width="0.5" stroke-miterlimit="10" stroke-linecap="round" stroke-linejoin="round"/>
<path d="M422.689 50.8857H464.205" stroke="#17213A" stroke-width="0.5" stroke-miterlimit="10" stroke-linecap="round" stroke-linejoin="round"/>
<path d="M458.352 46.6377V111.957" stroke="#17213A" stroke-width="0.5" stroke-miterlimit="10" stroke-linecap="round" stroke-linejoin="round"/>
<path d="M464.74 148.068H476.982" stroke="#17213A" stroke-width="0.5" stroke-miterlimit="10" stroke-linecap="round" stroke-linejoin="round"/>
<path d="M473.788 144.352V235.692" stroke="#17213A" stroke-width="0.5" stroke-miterlimit="10" stroke-linecap="round" stroke-linejoin="round"/>
<path d="M463.674 235.161H484.965" stroke="#17213A" stroke-width="0.5" stroke-miterlimit="10" stroke-linecap="round" stroke-linejoin="round"/>
<path d="M111.314 122.577H84.7002" stroke="#17213A" stroke-width="0.5" stroke-miterlimit="10" stroke-linecap="round" stroke-linejoin="round"/>
<path d="M94.8139 153.378H84.7002" stroke="#17213A" stroke-width="0.5" stroke-miterlimit="10" stroke-linecap="round" stroke-linejoin="round"/>
<path d="M89.4902 72.1282V165.594" stroke="#17213A" stroke-width="0.5" stroke-miterlimit="10" stroke-linecap="round" stroke-linejoin="round"/>
<path d="M103.862 234.63H88.4258" stroke="#17213A" stroke-width="0.5" stroke-miterlimit="10" stroke-linecap="round" stroke-linejoin="round"/>
<path d="M502.016 332.957C502.629 330.148 499.956 330.52 498.335 331.471C496.793 332.377 494.345 332.508 492.587 332.672C490.923 332.827 489.233 332.568 487.61 333.09C485.434 333.792 479.541 336.427 478.04 336.851C473.508 338.129 451.981 327.881 445.177 323.38C438.373 318.879 422.083 316.575 422.083 316.575C422.083 316.575 418.706 308.305 415.303 290.478C411.9 272.651 399.904 254.867 399.904 254.867C396.985 252.082 396.018 259.068 396.018 259.068L400.469 315.799C400.469 315.799 399.959 334.193 402.067 336.16L402.256 338.581C402.256 338.581 407.078 343.675 411.048 345.09C413.557 345.985 415.838 346.878 417.179 347.415C417.605 347.607 418.022 347.78 418.422 347.92C425.831 350.508 464.079 352.543 464.079 352.543C464.079 352.543 469.555 358.375 475.826 358.708C482.096 359.039 485.063 359.685 486.367 358.812C487.67 357.94 500.963 345.656 500.432 342.616C499.902 339.576 490.41 339.513 490.41 339.513L497.897 337.28C499.382 336.31 501.615 334.793 502.016 332.957Z" fill="white" stroke="#17213A" stroke-miterlimit="10"/>
<path d="M500.433 342.615C499.903 339.575 490.412 339.512 490.412 339.512L497.899 337.279C499.382 336.31 501.615 334.793 502.016 332.957C502.629 330.147 499.956 330.52 498.335 331.471C496.793 332.376 494.345 332.508 492.587 332.672C490.923 332.826 489.233 332.567 487.61 333.09C485.434 333.791 479.541 336.427 478.04 336.851C476.793 337.202 474.252 336.678 471.09 335.643C461.477 340.207 459.779 348.4 459.541 352.279C462.338 352.448 464.079 352.541 464.079 352.541C464.079 352.541 469.555 358.374 475.826 358.706C482.096 359.037 485.063 359.683 486.367 358.81C487.671 357.938 500.964 345.654 500.433 342.615Z" fill="#F3F4F6" stroke="#17213A" stroke-miterlimit="10" stroke-linecap="round" stroke-linejoin="round"/>
<path d="M492.499 343.329C492.499 343.329 496.251 347.187 497.789 347.317C499.327 347.446 501.156 344.122 500.433 342.616C499.712 341.11 495.497 339.586 493.559 339.725C491.622 339.862 490.423 341.533 492.499 343.329Z" fill="#F3F4F6" stroke="#17213A" stroke-miterlimit="10" stroke-linecap="round" stroke-linejoin="round"/>
<path d="M492.499 343.328C492.499 343.328 489.768 344.268 489.544 345.903C489.32 347.539 494.968 352.009 495.958 352.006C496.948 352.003 499.228 349.489 499.073 348.767C498.919 348.045 496.227 344.856 492.499 343.328Z" fill="#F3F4F6" stroke="#17213A" stroke-miterlimit="10" stroke-linecap="round" stroke-linejoin="round"/>
<path d="M490.275 348.714C490.275 348.714 486.043 347.09 486.773 349.901C487.504 352.712 490.484 356.162 491.398 356.54C492.314 356.919 494.634 355.696 494.135 354.215C493.637 352.734 491.459 350.231 490.275 348.714Z" fill="#F3F4F6" stroke="#17213A" stroke-miterlimit="10" stroke-linecap="round" stroke-linejoin="round"/>
<path d="M487.312 352.179C487.312 352.179 483.88 350.515 483.925 353.289C483.97 356.064 486.607 359.249 487.712 359.664C488.818 360.079 490.262 358.784 489.954 357.34C489.646 355.898 487.312 352.179 487.312 352.179Z" fill="#F3F4F6" stroke="#17213A" stroke-miterlimit="10" stroke-linecap="round" stroke-linejoin="round"/>
<path d="M340.527 494.148L344.68 466.476L348.239 494.148H402.32L404.477 422.823L278.322 421.369L280.479 494.148H340.527Z" fill="#17213A" stroke="#17213A" stroke-miterlimit="10"/>
<path d="M316.429 237.398L276.088 256.575C276.088 256.575 271.266 362.355 271.91 381.607C272.553 400.859 274.804 425.886 274.804 425.886C274.804 425.886 301.175 431.34 314.36 434.228C327.545 437.116 351.343 437.115 351.343 437.115L356.167 427.49L358.418 436.474L381.633 435.078C383.931 434.939 386.183 434.373 388.272 433.406L407.3 424.601C407.3 424.601 406.979 314.868 405.693 294.974C404.406 275.081 399.904 254.868 399.904 254.868L368.71 240.428C368.71 240.428 345.511 228.271 316.429 237.398Z" fill="#383192" stroke="#17213A" stroke-miterlimit="10" stroke-linecap="round" stroke-linejoin="round"/>
<path d="M407.176 396.78C407.145 391.145 407.107 384.946 407.062 378.458C353.323 386.684 294.284 380.84 271.852 378.022C271.857 379.419 271.876 380.629 271.908 381.607C272.082 386.828 272.375 392.473 272.709 397.929C328.903 405.557 384.367 399.855 407.176 396.78Z" fill="white" stroke="#17213A" stroke-miterlimit="10" stroke-linecap="round" stroke-linejoin="round"/>
<path d="M273.004 331.988C272.761 338.851 272.538 345.533 272.355 351.704C328.388 359.367 383.76 353.74 406.827 350.649C406.764 344.379 406.693 338.205 406.614 332.346C353.889 340.336 296.183 334.845 273.004 331.988Z" fill="white" stroke="#17213A" stroke-miterlimit="10" stroke-linecap="round" stroke-linejoin="round"/>
<path d="M327.58 268.386L352.968 302.738L369.857 267.018L351.254 249.476L327.58 268.386Z" fill="white" stroke="#17213A" stroke-miterlimit="10" stroke-linecap="round" stroke-linejoin="round"/>
<path d="M325.74 229.217C325.74 229.217 319.68 230.476 317.661 233.5C315.64 236.523 313.62 239.547 313.62 239.547C313.62 239.547 316.397 251.135 318.67 258.189C320.943 265.243 328.77 278.344 328.77 278.344L350.233 264.992C350.233 264.992 358.313 269.023 360.08 270.031C361.848 271.038 370.938 280.107 370.938 280.107C370.938 280.107 376.241 258.945 374.726 251.639C373.211 244.333 369.929 237.531 369.929 237.531C369.929 237.531 348.466 225.438 325.74 229.217Z" fill="white" stroke="#17213A" stroke-miterlimit="10" stroke-linecap="round" stroke-linejoin="round"/>
<path d="M324.733 220.147C324.733 220.147 324.48 238.789 325.491 242.568C326.501 246.347 337.864 260.707 339.631 264.485C341.399 268.265 350.237 278.341 350.237 278.341C350.237 278.341 365.892 256.675 367.659 250.882C369.427 245.088 370.942 241.812 370.942 241.812C370.942 241.812 364.63 249.873 354.277 245.591C343.924 241.308 333.572 230.224 333.572 230.224C333.572 230.224 324.734 211.077 324.481 213.848C324.228 216.62 324.733 220.147 324.733 220.147Z" fill="white" stroke="#17213A" stroke-miterlimit="10" stroke-linecap="round" stroke-linejoin="round"/>
<path d="M380.534 208.055C380.534 208.055 378.514 222.918 376.746 231.232C374.979 239.545 369.171 251.135 364.373 254.158C359.576 257.18 353.01 256.928 349.475 255.669C345.94 254.41 332.052 245.34 328.265 241.057C324.477 236.774 324.729 220.147 324.729 220.147C324.729 220.147 320.942 220.903 319.427 217.376C317.912 213.849 316.901 207.299 316.901 207.299C316.901 207.299 315.892 205.284 316.649 201.253C317.407 197.221 318.669 196.466 318.669 196.466C318.669 196.466 343.667 206.795 353.262 208.055C362.858 209.314 380.534 208.055 380.534 208.055Z" fill="white" stroke="#17213A" stroke-miterlimit="10" stroke-linecap="round" stroke-linejoin="round"/>
<path d="M371.95 235.264C368.92 232.492 362.103 229.973 362.103 229.973C362.103 229.973 362.355 232.241 358.82 232.493C355.285 232.745 353.265 230.226 353.265 230.226C353.265 230.226 348.215 231.737 345.689 232.997C343.164 234.257 339.629 238.54 339.629 238.54C339.629 238.54 332.811 233.25 330.791 228.715C328.771 224.18 328.771 208.308 328.771 208.308C328.771 208.308 330.286 205.789 331.296 204.025C331.627 203.448 331.929 202.601 332.188 201.722C329.18 200.614 326.382 199.538 324.116 198.649L322.963 198.735L324.73 220.149C324.73 220.149 324.478 236.777 328.266 241.059C332.053 245.342 345.941 254.41 349.476 255.671C353.011 256.93 359.576 257.182 364.374 254.159C367.749 252.034 371.616 245.671 374.232 239.191C373.65 237.592 372.899 236.131 371.95 235.264Z" fill="#17213A" stroke="#17213A" stroke-miterlimit="10" stroke-linecap="round" stroke-linejoin="round"/>
<path d="M366.901 212.841L364.628 215.361L362.86 227.958" stroke="#17213A" stroke-miterlimit="10" stroke-linecap="round" stroke-linejoin="round"/>
<path d="M340.386 211.33C340.386 211.33 344.678 209.566 348.718 210.322C352.758 211.079 355.788 212.338 355.788 212.338" stroke="#17213A" stroke-miterlimit="10" stroke-linecap="round" stroke-linejoin="round"/>
<path d="M370.938 211.582C370.938 211.582 375.484 209.818 376.999 213.849" stroke="#17213A" stroke-miterlimit="10" stroke-linecap="round" stroke-linejoin="round"/>
<path d="M349.728 218.006C349.728 219.606 348.937 220.903 347.961 220.903C346.985 220.903 346.193 219.606 346.193 218.006C346.193 216.406 346.985 215.109 347.961 215.109C348.936 215.109 349.728 216.406 349.728 218.006Z" fill="black"/>
<path d="M371.19 219.895C371.19 221.495 370.399 222.792 369.423 222.792C368.447 222.792 367.655 221.495 367.655 219.895C367.655 218.295 368.447 216.998 369.423 216.998C370.399 216.998 371.19 218.295 371.19 219.895Z" fill="black"/>
<path d="M343.416 220.651L347.962 220.903" stroke="#17213A" stroke-miterlimit="10" stroke-linecap="round" stroke-linejoin="round"/>
<path d="M369.423 222.793L374.221 223.17" stroke="#17213A" stroke-miterlimit="10" stroke-linecap="round" stroke-linejoin="round"/>
<path d="M346.445 237.278C346.445 237.278 353.263 243.325 364.626 238.789" stroke="#9E9E9E" stroke-miterlimit="10" stroke-linecap="round" stroke-linejoin="round"/>
<path d="M317.914 198.733C317.914 198.733 341.901 208.81 348.72 210.322C355.538 211.833 367.405 211.581 378.516 211.078C389.626 210.575 386.091 207.299 385.586 205.031C385.08 202.763 384.828 201.504 384.828 201.504C384.828 201.504 389.121 189.16 382.807 173.792C376.495 158.425 362.102 151.371 349.73 151.371C337.357 151.371 322.711 163.463 319.681 171.274C316.652 179.084 317.408 191.428 316.904 192.94C316.399 194.451 311.854 197.223 313.369 197.474C314.883 197.726 317.914 198.733 317.914 198.733Z" fill="white" stroke="#17213A" stroke-miterlimit="10" stroke-linecap="round" stroke-linejoin="round"/>
<path d="M318.671 196.467L312.611 200.245L313.874 207.299L324.731 199.49L318.671 196.467Z" fill="white" stroke="#17213A" stroke-miterlimit="10" stroke-linecap="round" stroke-linejoin="round"/>
<path d="M320.186 193.695L327.761 197.474L328.014 190.672" stroke="#17213A" stroke-miterlimit="10" stroke-linecap="round" stroke-linejoin="round"/>
<path d="M331.803 192.688L332.055 197.979C332.055 197.979 339.378 202.765 348.469 204.781C357.559 206.797 378.264 205.537 379.779 205.285C381.294 205.033 382.556 204.026 382.556 204.026" stroke="#17213A" stroke-miterlimit="10" stroke-linecap="round" stroke-linejoin="round"/>
<path d="M352.002 153.638C352.002 153.638 357.052 155.906 359.325 160.188C360.819 163.004 361.345 168.501 361.345 168.501C361.345 168.501 354.022 170.012 352.76 171.776C351.498 173.539 353.517 181.853 353.769 190.167" stroke="#17213A" stroke-miterlimit="10" stroke-linecap="round" stroke-linejoin="round"/>
<path d="M368.164 168.251C368.164 168.251 372.709 169.007 373.972 173.289C375.234 177.572 375.487 190.924 375.487 190.924" stroke="#17213A" stroke-miterlimit="10" stroke-linecap="round" stroke-linejoin="round"/>
<path d="M276.087 256.574C276.087 256.574 269.014 258.396 266.12 265.455C263.226 272.514 245.538 319.359 244.251 335.082C242.965 350.804 255.185 360.75 261.618 361.392C268.049 362.034 274.161 361.071 277.055 355.617C279.949 350.163 281.878 304.921 281.878 304.921C281.878 304.921 284.129 277.648 283.165 270.59C282.199 263.53 279.3 257.32 276.087 256.574Z" fill="white" stroke="#17213A" stroke-miterlimit="10" stroke-linecap="round" stroke-linejoin="round"/>
<path d="M249.159 328.966C249.159 328.966 267.299 319.28 279.817 324.888" stroke="#17213A" stroke-miterlimit="10" stroke-linecap="round" stroke-linejoin="round"/>
<path d="M281.407 324.566C281.407 324.566 274.064 328.534 272.382 334.181C270.699 339.828 267.487 347.763 268.711 350.663C269.936 353.562 276.206 357.836 280.796 357.683C285.384 357.53 288.138 355.852 289.668 354.783C291.198 353.715 297.163 345.778 298.081 343.032C298.998 340.285 298.998 340.285 298.998 340.285C298.998 340.285 304.351 342.879 306.034 343.795C307.717 344.71 310.622 342.727 310.317 340.285C310.011 337.843 303.281 334.333 299.915 331.739C296.55 329.145 293.185 327.618 288.595 326.092C284.007 324.566 282.935 324.109 281.407 324.566Z" fill="#383192" stroke="#17213A" stroke-miterlimit="10" stroke-linecap="round" stroke-linejoin="round"/>
<path d="M298.996 340.286C298.996 340.286 290.736 337.691 287.523 336.776C284.311 335.86 283.546 335.708 283.546 335.708" stroke="#17213A" stroke-miterlimit="10" stroke-linecap="round" stroke-linejoin="round"/>
<path d="M296.398 346.085C296.398 346.085 291.045 346.389 286.456 345.169C281.867 343.948 276.054 341.048 276.054 341.048" stroke="#17213A" stroke-miterlimit="10" stroke-linecap="round" stroke-linejoin="round"/>
<path d="M274.523 349.29C274.523 349.29 280.489 351.732 285.384 352.495C290.279 353.258 292.114 352.342 292.114 352.342" stroke="#17213A" stroke-miterlimit="10" stroke-linecap="round" stroke-linejoin="round"/>
<path d="M299.763 330.976C299.763 330.976 300.528 331.128 303.893 330.976C307.258 330.824 310.165 329.145 310.47 330.518C310.776 331.892 310.47 333.418 308.941 334.18C307.411 334.943 304.963 334.943 304.963 334.943L298.691 330.975" fill="#383192"/>
<path d="M299.763 330.976C299.763 330.976 300.528 331.128 303.893 330.976C307.258 330.824 310.165 329.145 310.47 330.518C310.776 331.892 310.47 333.418 308.941 334.18C307.411 334.943 304.963 334.943 304.963 334.943L298.691 330.975" stroke="#17213A" stroke-miterlimit="10" stroke-linecap="round" stroke-linejoin="round"/>
<path d="M226.905 300.206C226.905 300.206 232.096 299.896 234.233 298.963C236.371 298.03 239.279 297.243 238.814 301.139C238.478 303.95 234.644 306.319 231.906 306.319C227.523 306.319 224.364 309.479 224.364 309.479L226.905 300.206Z" fill="#F3F4F6" stroke="#17213A" stroke-miterlimit="10" stroke-linecap="round" stroke-linejoin="round"/>
<path d="M194.27 276.423C194.27 276.423 232.774 285.25 233.095 287.17C233.415 289.09 209.661 396.399 209.661 396.399L171.182 381.042L194.27 276.423Z" fill="#E2E2E2" stroke="#17213A" stroke-miterlimit="10" stroke-linecap="round" stroke-linejoin="round"/>
<path d="M226.619 322.139C226.619 322.139 230.288 322.78 230.134 323.836C229.934 325.217 229.948 326.195 228.463 326.7C226.978 327.205 221.746 326.117 221.375 324.938C221.004 323.758 221.595 321.646 222.337 321.478C223.081 321.309 226.619 322.139 226.619 322.139Z" fill="#F3F4F6" stroke="#17213A" stroke-miterlimit="10" stroke-linecap="round" stroke-linejoin="round"/>
<path d="M227.773 316.866C227.773 316.866 232.359 317.667 232.168 318.987C231.918 320.714 231.936 321.934 230.08 322.567C228.224 323.198 221.684 321.838 221.22 320.364C220.756 318.891 221.495 316.25 222.423 316.04C223.351 315.829 227.773 316.866 227.773 316.866Z" fill="#F3F4F6" stroke="#17213A" stroke-miterlimit="10" stroke-linecap="round" stroke-linejoin="round"/>
<path d="M229.992 311.792C229.992 311.792 234.578 312.593 234.387 313.913C234.137 315.64 234.155 316.862 232.299 317.493C230.443 318.125 223.902 316.764 223.438 315.291C222.974 313.817 223.714 311.177 224.642 310.966C225.569 310.755 229.992 311.792 229.992 311.792Z" fill="#F3F4F6" stroke="#17213A" stroke-miterlimit="10" stroke-linecap="round" stroke-linejoin="round"/>
<path d="M230.918 305.979C230.918 305.979 235.503 306.78 235.313 308.1C235.062 309.827 235.081 311.048 233.225 311.68C231.369 312.311 224.828 310.951 224.364 309.477C223.9 308.003 224.64 305.363 225.568 305.152C226.495 304.941 230.918 305.979 230.918 305.979Z" fill="#F3F4F6" stroke="#17213A" stroke-miterlimit="10" stroke-linecap="round" stroke-linejoin="round"/>
<path d="M119.555 493.977C119.555 493.977 104.805 438.629 104.805 427.112C104.805 415.594 106.088 407.275 106.088 407.275L196.835 392.239L205.814 404.717C205.814 404.717 203.248 424.553 200.042 445.668C196.835 466.783 195.552 492.698 195.552 492.698L119.555 493.977Z" fill="#17213A" stroke="#17213A" stroke-miterlimit="10" stroke-linecap="round" stroke-linejoin="round"/>
<path d="M132.459 237.471C132.459 237.471 115.525 254.647 112.421 264.784C109.316 274.921 108.187 279.707 105.365 296.883C102.544 314.059 100.003 321.099 100.85 328.419C101.696 335.74 107.341 356.577 107.341 356.577C107.341 356.577 106.776 377.131 105.365 388.958C103.954 400.783 99.7206 408.668 100.568 412.047C101.416 415.427 158.423 424.999 170.276 423.31C182.129 421.621 190.878 418.805 190.878 418.805L196.523 400.503L197.369 419.368C197.369 419.368 203.014 417.397 205.836 416.271C208.658 415.145 212.327 413.456 212.327 413.456C212.327 413.456 209.223 366.152 209.223 365.307C209.223 364.463 210.352 314.624 209.787 308.147C209.223 301.671 203.861 288.155 198.216 279.145C192.572 270.135 182.411 253.804 179.026 249.861C175.639 245.92 177.614 247.046 169.712 240.569C161.81 234.093 143.466 230.432 132.459 237.471Z" fill="#383192" stroke="#17213A" stroke-miterlimit="10" stroke-linecap="round" stroke-linejoin="round"/>
<path d="M209.525 370.334C206.268 368.265 201.846 365.96 198.758 366.323C193.307 366.964 160.919 381.04 135.587 383.6C120.855 385.088 111.228 385.386 105.744 385.375C105.625 386.63 105.498 387.834 105.365 388.957C104.922 392.677 104.197 396.007 103.441 398.93L105.446 398.636C105.446 398.636 139.115 396.397 154.507 392.877C169.899 389.358 197.796 378.48 199.721 379.439C200.934 380.044 206.478 382.428 210.411 384.108C210.065 378.785 209.745 373.825 209.525 370.334Z" fill="white" stroke="#17213A" stroke-miterlimit="10" stroke-linecap="round" stroke-linejoin="round"/>
<path d="M181.441 335.611C169.256 339.45 124.363 356.406 121.477 356.727C119.65 356.93 112.171 355.85 106.926 355.03C107.185 356.005 107.339 356.577 107.339 356.577C107.339 356.577 107.2 361.642 106.888 368.187C108.262 368.707 109.614 369.204 110.574 369.523C113.461 370.483 120.836 369.203 124.363 367.604C127.89 366.004 180.48 347.448 185.61 346.489C189.085 345.839 201.743 347.094 209.559 347.973C209.647 343.072 209.739 337.641 209.809 332.389C202.258 332.483 189.57 333.05 181.441 335.611Z" fill="white" stroke="#17213A" stroke-miterlimit="10" stroke-linecap="round" stroke-linejoin="round"/>
<path d="M138.069 345.856C138.069 345.856 126.237 375.906 117.094 388.784" stroke="#17213A" stroke-miterlimit="10" stroke-linecap="round" stroke-linejoin="round"/>
<path d="M149.901 365.709C149.901 365.709 130.54 390.93 116.556 404.345" stroke="#17213A" stroke-miterlimit="10" stroke-linecap="round" stroke-linejoin="round"/>
<path d="M189.163 284.684C189.163 284.684 196.155 298.636 198.844 313.123C201.532 327.612 199.92 382.882 199.92 384.492" stroke="#17213A" stroke-miterlimit="10" stroke-linecap="round" stroke-linejoin="round"/>
<path d="M112.934 340.419C112.934 340.419 121.171 347.269 122.886 348.638C124.602 350.007 132.839 344.871 132.839 344.871" stroke="#17213A" stroke-miterlimit="10" stroke-linecap="round" stroke-linejoin="round"/>
<path d="M173.4 243.655C172.485 242.863 171.306 241.876 169.712 240.569C162.965 235.039 148.618 231.587 137.714 235.071C142.017 237.053 150.129 241.444 156.448 248.734C165.479 259.153 186.363 276.61 186.363 276.61C186.363 276.61 180.374 255.318 173.4 243.655Z" fill="#17213A" stroke="#17213A" stroke-miterlimit="10" stroke-linecap="round" stroke-linejoin="round"/>
<path d="M206.506 191.981C206.506 191.981 206.899 197.076 206.702 198.84C206.506 200.603 204.345 203.542 204.345 205.11C204.345 206.677 205.917 211.968 206.899 213.731C207.881 215.495 209.452 218.826 208.862 219.806C208.273 220.785 201.203 224.312 201.203 224.312C201.203 224.312 195.115 241.165 193.74 241.948C192.365 242.732 186.277 241.361 184.116 240.381C181.955 239.401 175.671 236.462 175.671 236.462C175.671 236.462 173.118 240.773 172.529 245.477C171.939 250.179 172.921 256.058 172.921 256.058C172.921 256.058 170.368 256.45 159.173 245.28C147.977 234.111 146.995 224.704 146.995 206.088C146.995 187.472 147.192 185.121 147.192 185.121L206.506 191.981Z" fill="white" stroke="#17213A" stroke-miterlimit="10" stroke-linecap="round" stroke-linejoin="round"/>
<path d="M175.668 236.464L169.71 233.248L172.533 242.26L175.668 236.464Z" fill="#17213A" stroke="#17213A" stroke-miterlimit="10" stroke-linecap="round" stroke-linejoin="round"/>
<path d="M179.598 190.218C179.598 190.218 178.42 193.353 176.063 195.117C173.707 196.88 172.725 201.191 170.171 204.13C167.618 207.069 164.476 207.265 163.101 203.346C161.727 199.427 161.923 195.313 157.799 192.372C153.674 189.432 155.049 196.683 154.067 207.265C153.085 217.846 155.638 237.05 157.406 239.793C159.173 242.536 160.745 243.516 160.745 243.516C160.745 243.516 154.656 249.003 137.962 246.455C121.267 243.908 120.089 230.191 122.838 221.961C125.588 213.731 129.909 194.724 129.909 191.784C129.909 188.845 130.694 184.73 130.694 184.73L179.598 190.218Z" fill="#17213A" stroke="#17213A" stroke-miterlimit="10" stroke-linecap="round" stroke-linejoin="round"/>
<path d="M197.203 223.901C197.203 223.901 191.704 223.117 189.15 220.962C189.15 220.962 189.936 229.388 193.078 228.604C196.221 227.82 197.203 223.901 197.203 223.901Z" stroke="#17213A" stroke-miterlimit="10" stroke-linecap="round" stroke-linejoin="round"/>
<path d="M198.041 205.983C197.721 207.63 197.03 208.881 196.498 208.778C195.965 208.675 195.794 207.256 196.113 205.61C196.433 203.963 197.123 202.712 197.656 202.815C198.188 202.918 198.36 204.337 198.041 205.983Z" fill="black"/>
<path d="M204.344 201.583C204.344 201.583 199.827 199.035 189.613 199.623C189.613 199.623 187.846 206.874 188.435 209.617C189.024 212.361 190.988 215.496 196.29 214.516C201.594 213.537 203.951 206.091 204.344 201.583Z" stroke="#17213A" stroke-miterlimit="10" stroke-linecap="round" stroke-linejoin="round"/>
<path d="M204.345 201.583C204.345 201.583 210.041 201.975 211.415 203.15C211.415 203.15 210.63 210.597 206.898 212.556L204.345 205.11C204.345 205.11 203.56 203.348 204.345 201.583Z" stroke="#17213A" stroke-miterlimit="10" stroke-linecap="round" stroke-linejoin="round"/>
<path d="M194.918 197.86C194.918 197.86 199.435 195.9 202.774 198.644" stroke="#17213A" stroke-miterlimit="10" stroke-linecap="round" stroke-linejoin="round"/>
<path d="M189.615 199.624L161.137 197.664L162.315 199.428L188.437 202.564L189.615 199.624Z" fill="#17213A" stroke="#17213A" stroke-miterlimit="10" stroke-linecap="round" stroke-linejoin="round"/>
<path d="M193.542 208.443L198.255 210.206" stroke="#17213A" stroke-miterlimit="10" stroke-linecap="round" stroke-linejoin="round"/>
<path d="M128.224 202.276L150.237 189.041L143.465 187.915L126.531 193.829L128.224 202.276Z" fill="white" stroke="#17213A" stroke-miterlimit="10" stroke-linecap="round" stroke-linejoin="round"/>
<path d="M125.756 188.657C125.756 188.657 182.873 192.636 191.255 192.941C201.912 193.328 218.756 193.346 221.538 190.966C224.321 188.586 214.779 190.57 211.598 188.586C208.417 186.603 207.387 172.11 204.867 162.514C202.729 154.374 193.09 138.264 171.868 137.951C155.525 137.711 133.575 146.653 130.12 164.133C129.246 168.556 127.105 176.38 127.559 177.193C127.7 177.445 128.078 183.849 128.023 184.133L125.756 188.657Z" fill="white" stroke="#17213A" stroke-miterlimit="10" stroke-linecap="round" stroke-linejoin="round"/>
<path d="M125.756 188.659C125.756 188.659 127.063 181.583 145.403 181.268C163.744 180.953 191.255 192.942 191.255 192.942C191.255 192.942 141.209 192.893 125.756 188.659Z" fill="white" stroke="#17213A" stroke-miterlimit="10" stroke-linecap="round" stroke-linejoin="round"/>
<path d="M199.872 157.775C199.872 157.775 201.036 160.792 201.966 165.436C202.896 170.079 205.688 187.488 205.688 187.488C205.688 187.488 198.476 190.041 193.125 190.274" stroke="#17213A" stroke-miterlimit="10" stroke-linecap="round" stroke-linejoin="round"/>
<path d="M296.037 267.661C296.037 267.661 271.666 290.888 258.935 307.219C246.204 323.55 223.652 355.487 216.376 371.092C209.102 386.698 200.372 421.175 200.372 421.175C200.372 421.175 213.103 439.321 237.11 440.41C261.117 441.498 344.416 428.071 368.786 426.619C393.157 425.167 403.165 422.829 426.258 411.74C452.491 399.143 504.4 324.966 511.01 313.753C518.086 301.75 524.397 281.204 524.397 281.204C524.397 281.204 471.226 304.582 436.593 310.073C400.469 315.8 352.053 306.132 334.23 301.051C316.407 295.969 296.037 267.661 296.037 267.661Z" fill="white" stroke="#17213A" stroke-miterlimit="10" stroke-linecap="round" stroke-linejoin="round"/>
<path d="M524.399 281.203C524.399 281.203 524.897 277.967 523.152 273.736C521.406 269.506 507.187 266.52 507.187 266.52C507.187 266.52 507.437 277.221 506.439 282.696C505.441 288.171 505.42 288.731 505.42 288.731L524.399 281.203Z" fill="white" stroke="#17213A" stroke-miterlimit="10" stroke-linecap="round" stroke-linejoin="round"/>
<path d="M166.888 306.739C166.888 306.739 161.243 277.455 156.163 268.163C151.083 258.871 132.661 256.774 127.377 264.503C124.457 268.773 123.426 277.174 121.168 288.437C118.91 299.7 123.426 337.994 126.248 338.276C129.07 338.558 137.537 331.799 137.537 331.799C137.537 331.799 141.77 342.5 144.31 344.189C146.851 345.878 184.385 358.549 198.778 359.957C198.778 359.957 209.784 362.772 210.63 361.083C211.477 359.394 217.968 340.247 217.968 340.247L200.188 333.208L169.991 313.498L166.888 306.739Z" fill="#17213A" stroke="#17213A" stroke-miterlimit="10" stroke-linecap="round" stroke-linejoin="round"/>
<path d="M137.536 331.8C137.536 331.8 125.965 305.05 124.555 290.408" stroke="#9E9E9E" stroke-miterlimit="10" stroke-linecap="round" stroke-linejoin="round"/>
<path d="M221.638 336.305C221.638 336.305 215.146 339.965 212.607 343.344C210.067 346.723 206.962 354.325 208.091 357.986C209.22 361.646 213.735 363.054 215.993 362.21C218.251 361.365 222.202 361.083 222.202 361.083C222.202 361.083 224.741 363.336 226.435 361.928C228.128 360.52 239.135 347.286 239.417 346.441C239.699 345.597 243.932 341.655 244.496 339.402C245.06 337.149 238.57 330.955 236.876 329.828C235.183 328.702 229.256 329.828 226.716 330.11C224.178 330.391 221.638 333.208 221.638 336.305Z" fill="#F3F4F6" stroke="#17213A" stroke-miterlimit="10" stroke-linecap="round" stroke-linejoin="round"/>
<path d="M225.169 337.581L239.418 346.442" stroke="#17213A" stroke-miterlimit="10" stroke-linecap="round" stroke-linejoin="round"/>
<path d="M232.349 336.148L235.858 343.95" stroke="#17213A" stroke-miterlimit="10" stroke-linecap="round" stroke-linejoin="round"/>
<path d="M219.903 339.491C219.903 339.491 218.945 339.65 219.105 341.401C219.265 343.152 221.019 343.789 221.019 343.789L234.422 351.431" stroke="#17213A" stroke-miterlimit="10" stroke-linecap="round" stroke-linejoin="round"/>
<path d="M219.423 343.312C219.423 343.312 215.594 347.451 215.913 348.725C216.233 349.998 229.795 356.684 229.795 356.684" stroke="#17213A" stroke-miterlimit="10" stroke-linecap="round" stroke-linejoin="round"/>
<path d="M222.202 361.084C222.202 361.084 214.318 356.686 213.201 354.616C212.085 352.547 214.637 350.158 214.637 350.158" stroke="#17213A" stroke-miterlimit="10" stroke-linecap="round" stroke-linejoin="round"/>
</g>
</svg>
