<svg width="308" height="247" viewBox="0 0 308 247" fill="none" xmlns="http://www.w3.org/2000/svg">
<g clip-path="url(#clip0_5831_45650)">
<path d="M91.6285 118.582L89.1504 89.2632L82.7345 82.8576L77.2731 83.3176L76.4076 73.0732L69.9916 66.6676L49.4467 68.3983L66.0435 27.1551L59.6275 20.7495L30.242 23.2274L0 95.1554L2.03132 119.187L8.44731 125.593L46.695 122.37L47.7374 134.697L54.1534 141.103L81.9619 138.76L80.3366 119.535L91.6285 118.582ZM44.4829 86.0814L42.2556 86.2694L44.1087 81.6631L44.4829 86.0814Z" fill="#383192"/>
<path opacity="0.2" d="M91.6285 118.582L89.1504 89.2632L82.7345 82.8576L77.2731 83.3176L76.4076 73.0732L69.9916 66.6676L49.4467 68.3983L66.0435 27.1551L59.6275 20.7495L30.242 23.2274L0 95.1554L2.03132 119.187L8.44731 125.593L46.695 122.37L47.7374 134.697L54.1534 141.103L81.9619 138.76L80.3366 119.535L91.6285 118.582ZM44.4829 86.0814L42.2556 86.2694L44.1087 81.6631L44.4829 86.0814Z" fill="white"/>
<path opacity="0.6" d="M85.2125 112.348L73.9193 113.3L75.5446 132.524L47.7361 134.867L46.1108 115.643L2.03132 119.357L0 95.3257L30.242 23.3977L59.6288 20.9211L32.9467 87.2237L44.4829 86.2517L43.0345 69.1099L69.9929 66.8379L71.4425 83.9797L82.7357 83.0279L85.2125 112.348Z" fill="white"/>
<path d="M152.113 0.0904266C125.551 -1.5348 105.278 18.8104 102.994 56.0407C102.777 59.5605 102.742 62.9482 102.871 66.2025C101.583 101.828 118.99 123.446 144.904 125.031C171.467 126.656 191.739 106.311 194.024 69.0819C194.24 65.562 194.277 62.1731 194.146 58.9201C195.434 23.2934 178.028 1.67626 152.113 0.0904266ZM159.995 59.5275C158.667 81.1917 153.371 87.6328 146.766 87.2288C141.407 86.9009 137.454 82.2031 136.866 68.8659C136.904 67.8124 136.953 66.7285 137.023 65.5951C138.353 43.9296 143.648 37.4884 150.252 37.8925C155.612 38.2204 159.564 42.9181 160.153 56.2554C160.115 57.3114 160.065 58.394 159.995 59.5275Z" fill="#383192"/>
<path opacity="0.2" d="M152.113 0.0904266C125.551 -1.5348 105.278 18.8104 102.994 56.0407C102.777 59.5605 102.742 62.9482 102.871 66.2025C101.583 101.828 118.99 123.446 144.904 125.031C171.467 126.656 191.739 106.311 194.024 69.0819C194.24 65.562 194.277 62.1731 194.146 58.9201C195.434 23.2934 178.028 1.67626 152.113 0.0904266ZM159.995 59.5275C158.667 81.1917 153.371 87.6328 146.766 87.2288C141.407 86.9009 137.454 82.2031 136.866 68.8659C136.904 67.8124 136.953 66.7285 137.023 65.5951C138.353 43.9296 143.648 37.4884 150.252 37.8925C155.612 38.2204 159.564 42.9181 160.153 56.2554C160.115 57.3114 160.065 58.394 159.995 59.5275Z" fill="white"/>
<path opacity="0.6" d="M102.994 56.2122C105.278 18.9819 125.551 -1.36326 152.113 0.261966C178.676 1.88719 196.308 24.5502 194.024 61.7804C191.739 99.0094 171.467 119.355 144.904 117.729C118.343 116.105 100.709 93.4425 102.994 56.2122ZM159.995 59.699C161.325 38.0336 156.857 30.9952 150.252 30.5923C143.648 30.1883 138.352 36.6294 137.023 58.2949C135.695 79.9591 140.162 86.9975 146.766 87.4016C153.371 87.8044 158.665 81.3632 159.995 59.699Z" fill="white"/>
<path d="M307.998 95.7437L295.507 94.7512L296.873 77.6031L267.056 75.2346L261.343 78.748L293.458 30.5592L260.955 27.9785L251.331 31.1819L205.95 96.9305L204.034 120.971L252.79 124.843L251.257 144.075L282.015 146.517L291.638 143.315L292.856 128.025L296.038 128.277L305.661 125.075L307.998 95.7437ZM256.38 91.6431L252.93 91.3686L256.873 85.4523L256.38 91.6431Z" fill="#383192"/>
<path opacity="0.2" d="M307.998 95.7437L295.507 94.7512L296.873 77.6031L267.056 75.2346L261.343 78.748L293.458 30.5592L260.955 27.9785L251.331 31.1819L205.95 96.9305L204.034 120.971L252.79 124.843L251.257 144.075L282.015 146.517L291.638 143.315L292.856 128.025L296.038 128.277L305.661 125.075L307.998 95.7437ZM256.38 91.6431L252.93 91.3686L256.873 85.4523L256.38 91.6431Z" fill="white"/>
<path opacity="0.6" d="M305.662 125.073L293.171 124.08L291.639 143.312L260.881 140.87L262.414 121.638L213.659 117.766L215.575 93.7258L260.956 27.9772L293.46 30.558L252.933 91.3686L265.692 92.3814L267.058 75.2333L296.875 77.6019L295.509 94.75L308 95.7424L305.662 125.073Z" fill="white"/>
<path d="M90.997 231.024V246.157H41.4453V186.468H89.8716V201.601H61.1745V208.623H86.39V223.054H61.1745V230.884L90.997 231.024Z" fill="#383192"/>
<path d="M131.545 198.792V215.821C130.14 215.58 128.716 215.463 127.29 215.47C121.487 215.47 117.408 218.104 117.408 225.512V246.157H98.1709V199.67H116.458V204.832C118.379 202.787 120.725 201.186 123.332 200.143C125.938 199.1 128.742 198.639 131.545 198.792Z" fill="#383192"/>
<path d="M170.37 198.792V215.821C168.965 215.578 167.541 215.46 166.115 215.47C160.312 215.47 156.233 218.104 156.233 225.512V246.157H136.996V199.67H155.319V204.832C157.23 202.784 159.569 201.181 162.17 200.137C164.772 199.093 167.571 198.634 170.37 198.792Z" fill="#383192"/>
<path d="M172.938 222.879C172.938 208.834 184.263 198.792 200.018 198.792C215.773 198.792 227.097 208.764 227.097 222.879C227.097 236.993 215.843 247 200.018 247C184.192 247 172.938 236.993 172.938 222.879ZM207.614 222.879C207.614 216.84 204.273 213.785 200.018 213.785C195.763 213.785 192.457 216.84 192.457 222.879C192.457 228.918 195.763 232.043 200.018 232.043C204.273 232.043 207.614 228.918 207.614 222.879Z" fill="#383192"/>
<path d="M266.554 198.792V215.821C265.137 215.579 263.701 215.462 262.264 215.47C256.496 215.47 252.417 218.103 252.417 225.512V246.157H233.145V199.67H251.467V204.831C253.388 202.786 255.734 201.186 258.34 200.143C260.947 199.1 263.75 198.639 266.554 198.792Z" fill="#383192"/>
</g>
<defs>
<clipPath id="clip0_5831_45650">
<rect width="308" height="247" fill="white"/>
</clipPath>
</defs>
</svg>
