<svg class="h-5 text-gray-400 hover:text-gray-500 dark:text-gray-400 dark:hover:text-gray-300" width="23" height="23" viewBox="0 0 23 23" fill="none" xmlns="http://www.w3.org/2000/svg">
<path d="M1 1L22 22" stroke="#17213A" stroke-linecap="round" stroke-linejoin="round"></path>
<path d="M9.74984 9.9566C9.38677 10.3679 9.1665 10.9083 9.1665 11.5C9.1665 12.7886 10.2111 13.8333 11.4998 13.8333C12.0916 13.8333 12.6319 13.6131 13.0432 13.25" stroke="#17213A" stroke-linecap="round" stroke-linejoin="round"></path>
<path d="M6.08883 6.32098C4.12669 7.69599 2.4921 9.65497 1 11.4997C3.20332 14.9892 7.16198 18.4997 11.5 18.4997C13.3082 18.4997 15.0506 17.8898 16.6274 16.9256" stroke="#17213A" stroke-linecap="round" stroke-linejoin="round"></path>
<path d="M11.5 4.49976C16.1765 4.49976 19.3184 8.18432 22 11.4998C21.6284 12.0881 21.207 12.6772 20.7423 13.2498" stroke="#17213A" stroke-linecap="round" stroke-linejoin="round"></path>
</svg>