<svg width="427" height="450" viewBox="0 0 427 450" fill="none" xmlns="http://www.w3.org/2000/svg">
<path d="M35.0898 394.245L43.5933 449.999H92.9946L104.461 395.05L35.0898 394.245Z" fill="#EBEBEB"/>
<path d="M97.5008 429.975C97.5008 430.135 84.8422 430.264 69.2304 430.264C53.6137 430.264 40.957 430.135 40.957 429.975C40.957 429.816 53.6127 429.686 69.2304 429.686C84.8422 429.687 97.5008 429.816 97.5008 429.975Z" fill="#FAFAFA"/>
<path d="M97.6796 427.234C97.6796 427.395 84.9356 427.524 69.2183 427.524C53.495 427.524 40.7539 427.395 40.7539 427.234C40.7539 427.075 53.496 426.945 69.2183 426.945C84.9356 426.945 97.6796 427.075 97.6796 427.234Z" fill="#FAFAFA"/>
<path d="M97.5781 424.136C97.5781 424.296 84.834 424.425 69.1167 424.425C53.3934 424.425 40.6523 424.296 40.6523 424.136C40.6523 423.977 53.3934 423.848 69.1167 423.848C84.834 423.848 97.5781 423.977 97.5781 424.136Z" fill="#FAFAFA"/>
<path d="M49.1958 446.817C49.0379 446.844 48.3595 443.701 47.68 439.797C47.0005 435.892 46.5784 432.705 46.7362 432.678C46.894 432.651 47.5725 435.793 48.2509 439.698C48.9304 443.602 49.3536 446.789 49.1958 446.817Z" fill="#FAFAFA"/>
<path d="M52.5713 446.226C52.4074 446.229 52.2185 443.158 51.9591 439.376C51.7038 435.594 51.4737 432.526 51.6365 432.507C51.7913 432.489 52.2808 435.539 52.5371 439.337C52.7984 443.135 52.7281 446.224 52.5713 446.226Z" fill="#FAFAFA"/>
<path d="M58.6935 446.221C58.5397 446.248 57.8653 443.117 57.4079 439.198C56.9456 435.278 56.8762 432.077 57.032 432.068C57.1958 432.058 57.5235 435.229 57.9839 439.13C58.4392 443.032 58.8553 446.193 58.6935 446.221Z" fill="#FAFAFA"/>
<path d="M63.031 446.514C62.8756 446.528 62.4734 443.338 62.3481 439.378C62.2167 435.418 62.4112 432.21 62.5667 432.213C62.7301 432.216 62.7953 435.416 62.9267 439.359C63.0511 443.301 63.1945 446.5 63.031 446.514Z" fill="#FAFAFA"/>
<path d="M70.6067 446.225C70.4472 446.231 70.2146 443.198 70.0882 439.453C69.9608 435.706 69.9879 432.665 70.1474 432.66C70.3068 432.655 70.5395 435.686 70.6658 439.432C70.7932 443.179 70.7661 446.22 70.6067 446.225Z" fill="#FAFAFA"/>
<path d="M76.2062 446.52C76.0468 446.519 75.9425 443.382 75.9746 439.514C76.0056 435.645 76.1611 432.51 76.3205 432.512C76.48 432.513 76.5843 435.65 76.5532 439.519C76.5211 443.386 76.3667 446.521 76.2062 446.52Z" fill="#FAFAFA"/>
<path d="M81.3767 445.772C81.2179 445.756 81.4059 442.478 81.7979 438.45C82.1899 434.421 82.6371 431.168 82.796 431.184C82.9548 431.199 82.7668 434.477 82.3748 438.506C81.9838 442.534 81.5365 445.787 81.3767 445.772Z" fill="#FAFAFA"/>
<path d="M88.0867 445.043C87.934 445.024 88.1742 442.211 88.918 438.816C89.6547 435.419 90.6076 432.761 90.7554 432.807C90.9142 432.854 90.2166 435.568 89.4849 438.94C88.7471 442.308 88.2516 445.066 88.0867 445.043Z" fill="#FAFAFA"/>
<path d="M83.3219 284.231C83.331 284.234 83.3109 284.327 83.2616 284.505C83.2003 284.716 83.1239 284.975 83.0305 285.293C82.8023 286.025 82.4877 287.031 82.0907 288.302C81.6675 289.603 81.1639 291.199 80.6402 293.072C80.1085 294.941 79.4472 297.053 78.8592 299.428C78.232 301.793 77.5525 304.383 76.9343 307.192C76.2488 309.985 75.6719 313.003 75.0286 316.171C73.8445 322.527 72.764 329.555 72.0021 336.977C71.2794 344.405 70.9457 351.509 70.8472 357.973C70.8503 361.206 70.8181 364.278 70.9367 367.152C70.9869 370.027 71.1397 372.701 71.2855 375.142C71.392 377.586 71.6222 379.788 71.773 381.725C71.9147 383.664 72.0926 385.327 72.2504 386.686C72.3881 388.011 72.4956 389.058 72.5751 389.821C72.6032 390.152 72.6263 390.421 72.6454 390.638C72.6585 390.823 72.6595 390.918 72.6494 390.919C72.6394 390.92 72.6183 390.828 72.5861 390.645C72.5519 390.43 72.5107 390.163 72.4585 389.835C72.3529 389.075 72.2082 388.032 72.0252 386.711C71.8333 385.354 71.6222 383.693 71.4493 381.754C71.2674 379.818 71.0091 377.615 70.8754 375.168C70.7025 372.724 70.5256 370.047 70.4552 367.166C70.3155 364.286 70.3296 361.208 70.3125 357.967C70.3819 351.488 70.6995 344.364 71.4242 336.918C72.1881 329.477 73.2877 322.433 74.5029 316.069C75.1623 312.897 75.7573 309.876 76.4649 307.082C77.1052 304.272 77.8088 301.681 78.4621 299.319C79.0773 296.948 79.7668 294.84 80.3287 292.976C80.8825 291.11 81.4192 289.523 81.8756 288.23C82.3168 286.971 82.6646 285.978 82.9189 285.253C83.0345 284.943 83.128 284.689 83.2033 284.484C83.2737 284.314 83.3129 284.228 83.3219 284.231Z" fill="#EBEBEB"/>
<path d="M74.413 318.754C75.7458 314.771 78.5139 311.283 82.0932 309.075C83.3175 308.32 84.8613 307.705 86.157 308.331C87.8808 309.162 88.0195 311.582 87.5048 313.421C86.6404 316.516 84.6131 319.273 81.9143 321.024C79.2155 322.776 76.7097 323.601 73.5234 323.136" fill="#EBEBEB"/>
<path d="M71.3953 342.064C72.6718 337.253 76.5185 330.412 80.5139 327.433C81.1461 326.962 81.8216 326.516 82.5875 326.331C83.3544 326.147 84.2349 326.265 84.8048 326.809C85.621 327.59 85.5406 328.901 85.3003 330.004C83.7735 337.023 77.9116 342.91 70.8867 344.481" fill="#EBEBEB"/>
<path d="M70.5938 362.582C72.5598 358.01 75.7722 353.98 79.7937 351.039C80.7366 350.349 81.8533 349.689 83.0041 349.898C84.749 350.213 85.5411 352.34 85.3873 354.104C85.0697 357.733 82.2915 360.643 79.4228 362.898C76.3351 365.326 70.9134 367.262 70.9134 367.262" fill="#EBEBEB"/>
<path d="M71.043 377.333C73.0623 373.903 75.5741 370.679 78.8699 368.441C79.5856 367.955 80.3606 367.509 81.2189 367.391C82.0763 367.274 83.0362 367.552 83.5227 368.266C84.3077 369.416 83.5599 370.97 82.7186 372.08C79.8128 375.915 76.148 378.816 71.5496 380.255" fill="#EBEBEB"/>
<path d="M70.6779 371.343C67.3056 367.221 63.5545 363.407 59.4847 359.967C58.8495 359.43 58.0464 358.868 57.2543 359.125C56.6412 359.324 56.2703 359.984 56.2281 360.626C56.1849 361.268 56.407 361.895 56.6542 362.49C59.1007 368.39 64.8642 373.01 71.0659 374.587" fill="#EBEBEB"/>
<path d="M71.0217 352.143C68.0908 348.578 65.1588 345.013 62.2278 341.448C61.3915 340.43 60.5271 339.389 59.3752 338.747C58.2234 338.105 56.7026 337.945 55.6241 338.703C54.5476 339.459 54.1837 340.942 54.4209 342.235C54.6571 343.527 55.3859 344.67 56.1367 345.749C57.9238 348.317 59.9622 350.768 62.5444 352.54C65.1266 354.312 67.4726 355.465 70.5724 355.008" fill="#EBEBEB"/>
<path d="M72.2476 330.539C70.5409 325.446 67.4521 320.82 63.3984 317.286C62.7209 316.695 61.9771 316.114 61.0926 315.944C59.3306 315.604 57.6289 317.072 57.059 318.77C56.4167 320.679 56.856 322.831 57.8621 324.577C58.8683 326.322 60.3921 327.714 61.9952 328.938C64.9513 331.193 68.2663 332.978 71.7772 334.207" fill="#EBEBEB"/>
<path d="M75.8212 311.268C74.9698 305.067 71.7353 299.908 67.9862 294.89C67.1961 293.833 66.0935 292.711 64.7868 292.91C63.9536 293.036 63.2811 293.709 62.9504 294.482C62.6207 295.255 62.5805 296.12 62.6027 296.96C62.7997 304.452 67.9801 311.569 75.0603 314.071" fill="#EBEBEB"/>
<path d="M78.2022 301.426C77.8946 298.238 77.586 295.028 77.8805 291.838C78.1761 288.649 79.1128 285.446 81.0708 282.909C81.9121 281.818 82.9675 280.842 84.2631 280.369C85.5588 279.895 87.1217 280.004 88.1802 280.887C89.1612 281.705 89.5703 283.054 89.521 284.328C89.4717 285.602 89.0204 286.823 88.5299 288.002C86.189 293.626 82.281 299.852 78.2022 301.426Z" fill="#EBEBEB"/>
<path d="M39.9016 308.815C39.9217 308.816 39.9378 309.087 39.9498 309.602C39.9559 310.173 39.9649 310.921 39.975 311.852C39.973 312.829 39.978 314.023 40.0303 315.41C40.0765 316.796 40.0855 318.376 40.2011 320.119C40.3539 323.607 40.6926 327.75 41.2224 332.333C41.7913 336.912 42.5743 341.927 43.6558 347.141C44.7654 352.35 46.0681 357.257 47.3909 361.679C48.7518 366.088 50.1097 370.021 51.3752 373.275C51.9712 374.917 52.5985 376.367 53.1151 377.654C53.6257 378.945 54.1011 380.041 54.4972 380.935C54.862 381.791 55.1555 382.479 55.3807 383.006C55.5767 383.482 55.6711 383.736 55.653 383.745C55.635 383.753 55.5053 383.516 55.2751 383.055C55.0248 382.539 54.6982 381.865 54.2921 381.027C53.8639 380.146 53.3573 379.061 52.8176 377.78C52.2718 376.501 51.6164 375.059 50.9943 373.422C49.6775 370.178 48.2744 366.25 46.8813 361.833C45.5253 357.407 44.2026 352.486 43.0889 347.258C42.0033 342.025 41.2344 336.991 40.6926 332.394C40.1901 327.791 39.8926 323.632 39.792 320.134C39.7026 318.386 39.7217 316.802 39.7066 315.412C39.6855 314.022 39.7126 312.826 39.7498 311.847C39.784 310.916 39.8121 310.168 39.8333 309.596C39.8584 309.085 39.8815 308.815 39.9016 308.815Z" fill="#E0E0E0"/>
<path d="M41.3242 334.235C41.3725 331.236 42.5042 328.268 44.4653 325.995C45.1357 325.218 46.0544 324.469 47.0706 324.615C48.4235 324.811 49.0406 326.428 49.0869 327.792C49.1653 330.085 48.3803 332.396 46.9208 334.169C45.4613 335.941 43.9335 337.042 41.664 337.409" fill="#E0E0E0"/>
<path d="M44.3017 350.747C44.1319 347.198 45.2757 341.713 47.3533 338.828C47.682 338.372 48.0459 337.922 48.5273 337.633C49.0098 337.342 49.635 337.234 50.1395 337.482C50.8632 337.838 51.0914 338.749 51.1658 339.55C51.6412 344.657 48.9193 349.925 44.4756 352.502" fill="#E0E0E0"/>
<path d="M48.1719 364.899C48.5237 361.364 49.8414 357.93 51.9452 355.065C52.4387 354.393 53.0568 353.704 53.8841 353.598C55.1405 353.438 56.1386 354.716 56.414 355.949C56.9809 358.488 55.7164 361.066 54.2509 363.218C52.6719 365.534 49.3991 368.017 49.3991 368.017" fill="#E0E0E0"/>
<path d="M51.6523 374.84C52.2876 372.071 53.3028 369.336 55.0628 367.105C55.4457 366.62 55.8769 366.15 56.4358 365.885C56.9946 365.621 57.7083 365.604 58.1937 365.985C58.9757 366.6 58.8019 367.819 58.4692 368.755C57.3183 371.991 55.4487 374.753 52.6283 376.719" fill="#E0E0E0"/>
<path d="M50.1005 370.845C46.9152 368.762 43.538 366.971 40.025 365.503C39.4762 365.274 38.8088 365.064 38.3253 365.409C37.9514 365.676 37.8409 366.205 37.9504 366.651C38.06 367.097 38.3464 367.478 38.643 367.83C41.581 371.321 46.5021 373.229 51.0644 372.97" fill="#E0E0E0"/>
<path d="M46.1531 357.699C43.388 355.902 40.6239 354.104 37.8587 352.306C37.0697 351.792 36.2566 351.269 35.3338 351.079C34.4111 350.89 33.3417 351.107 32.7708 351.855C32.2008 352.601 32.2732 353.689 32.7135 354.517C33.1537 355.346 33.8955 355.968 34.6403 356.541C36.4114 357.906 38.3281 359.137 40.4681 359.789C42.608 360.441 44.4544 360.722 46.4667 359.745" fill="#E0E0E0"/>
<path d="M42.3697 342.721C40.1081 339.62 37.0073 337.133 33.4853 335.598C32.8963 335.341 32.2651 335.106 31.6258 335.18C30.3523 335.327 29.511 336.692 29.4889 337.971C29.4638 339.409 30.2267 340.78 31.2891 341.753C32.3505 342.725 33.6883 343.345 35.0433 343.835C37.542 344.734 40.1845 345.239 42.8401 345.321" fill="#E0E0E0"/>
<path d="M40.6181 328.848C38.7003 324.81 35.3853 321.992 31.7508 319.38C30.9849 318.83 29.9918 318.303 29.1455 318.718C28.6057 318.983 28.2921 319.586 28.2348 320.184C28.1765 320.781 28.3363 321.378 28.5323 321.946C30.2823 327.004 35.3451 330.737 40.7055 330.92" fill="#E0E0E0"/>
<path d="M40.1792 321.62C39.2816 319.516 38.38 317.396 37.8925 315.162C37.405 312.928 37.3527 310.546 38.1377 308.398C38.4755 307.474 38.9831 306.583 39.763 305.983C40.543 305.383 41.6306 305.121 42.5422 305.495C43.3855 305.841 43.9565 306.672 44.1977 307.549C44.4389 308.427 44.3957 309.357 44.3153 310.263C43.9343 314.593 42.6166 319.673 40.1792 321.62Z" fill="#E0E0E0"/>
<path d="M102.426 308.273C102.446 308.272 102.469 308.542 102.494 309.057C102.515 309.629 102.543 310.376 102.577 311.308C102.614 312.286 102.642 313.482 102.621 314.872C102.605 316.261 102.625 317.846 102.535 319.594C102.435 323.092 102.137 327.252 101.634 331.854C101.093 336.45 100.324 341.486 99.2382 346.718C98.1245 351.946 96.8008 356.867 95.4459 361.293C94.0538 365.709 92.6496 369.638 91.3328 372.882C90.7107 374.519 90.0553 375.961 89.5095 377.24C88.9698 378.521 88.4622 379.606 88.035 380.487C87.6289 381.325 87.3023 381.998 87.052 382.515C86.8208 382.975 86.6922 383.213 86.6741 383.205C86.656 383.197 86.7504 382.942 86.9464 382.466C87.1706 381.939 87.4641 381.251 87.83 380.395C88.225 379.501 88.7014 378.405 89.212 377.114C89.7287 375.827 90.3559 374.377 90.9519 372.735C92.2164 369.48 93.5753 365.548 94.9363 361.139C96.259 356.717 97.5627 351.811 98.6723 346.601C99.7539 341.387 100.537 336.372 101.106 331.793C101.635 327.21 101.975 323.066 102.127 319.578C102.243 317.836 102.253 316.256 102.298 314.869C102.35 313.482 102.356 312.288 102.353 311.311C102.363 310.38 102.372 309.633 102.378 309.061C102.389 308.545 102.405 308.274 102.426 308.273Z" fill="#EBEBEB"/>
<path d="M101.031 333.693C100.982 330.695 99.8507 327.726 97.8897 325.454C97.2193 324.678 96.3006 323.928 95.2834 324.074C93.9305 324.27 93.3133 325.887 93.2671 327.25C93.1887 329.543 93.9737 331.855 95.4331 333.627C96.8926 335.399 98.4204 336.499 100.69 336.866" fill="#EBEBEB"/>
<path d="M98.0125 350.21C98.1813 346.661 97.0385 341.176 94.9609 338.291C94.6322 337.835 94.2683 337.386 93.7869 337.096C93.3044 336.805 92.6792 336.696 92.1736 336.945C91.45 337.301 91.2218 338.212 91.1474 339.013C90.672 344.12 93.3929 349.388 97.8376 351.965" fill="#EBEBEB"/>
<path d="M94.1891 364.358C93.8373 360.824 92.5195 357.389 90.4158 354.523C89.9223 353.851 89.3051 353.162 88.4769 353.057C87.2205 352.897 86.2224 354.175 85.947 355.408C85.3801 357.947 86.6445 360.526 88.11 362.677C89.6881 364.993 92.9618 367.476 92.9618 367.476" fill="#EBEBEB"/>
<path d="M90.6947 374.298C90.0604 371.529 89.0452 368.794 87.2842 366.563C86.9023 366.078 86.4701 365.608 85.9122 365.343C85.3534 365.079 84.6407 365.062 84.1542 365.443C83.3723 366.058 83.5461 367.277 83.8788 368.213C85.0297 371.449 86.8993 374.21 89.7197 376.178" fill="#EBEBEB"/>
<path d="M92.2207 370.303C95.406 368.22 98.7832 366.43 102.296 364.962C102.845 364.733 103.513 364.523 103.997 364.868C104.371 365.135 104.481 365.664 104.372 366.11C104.262 366.556 103.976 366.937 103.679 367.288C100.741 370.778 95.8201 372.687 91.2578 372.428" fill="#EBEBEB"/>
<path d="M96.1095 357.157C98.8746 355.359 101.639 353.562 104.404 351.764C105.193 351.25 106.006 350.727 106.929 350.537C107.851 350.348 108.922 350.565 109.492 351.313C110.062 352.059 109.989 353.147 109.549 353.975C109.11 354.805 108.367 355.426 107.622 356C105.851 357.365 103.934 358.595 101.795 359.248C99.6546 359.9 97.8092 360.181 95.7969 359.204" fill="#EBEBEB"/>
<path d="M99.9704 342.18C102.232 339.08 105.332 336.592 108.855 335.057C109.444 334.8 110.075 334.565 110.714 334.639C111.988 334.786 112.829 336.151 112.851 337.429C112.876 338.867 112.113 340.239 111.052 341.211C109.99 342.182 108.653 342.803 107.297 343.291C104.798 344.192 102.157 344.696 99.5 344.778" fill="#EBEBEB"/>
<path d="M101.692 328.307C103.61 324.269 106.925 321.451 110.559 318.839C111.325 318.289 112.318 317.762 113.166 318.177C113.705 318.442 114.018 319.045 114.076 319.643C114.133 320.24 113.975 320.837 113.779 321.405C112.029 326.463 106.966 330.196 101.605 330.379" fill="#EBEBEB"/>
<path d="M102.144 321.078C103.042 318.974 103.944 316.854 104.432 314.62C104.919 312.385 104.972 310.004 104.187 307.855C103.849 306.932 103.341 306.04 102.561 305.441C101.781 304.841 100.694 304.579 99.782 304.952C98.9377 305.298 98.3678 306.13 98.1266 307.007C97.8853 307.885 97.9286 308.814 98.008 309.721C98.3899 314.052 99.7076 319.132 102.144 321.078Z" fill="#EBEBEB"/>
<path d="M29.3594 383.203V393.636C29.3594 395.904 31.2018 397.744 33.4754 397.744H105.013C107.286 397.744 109.13 395.904 109.13 393.636V383.203H29.3594Z" fill="#EBEBEB"/>
<path d="M35.5664 397.741L36.1604 401.063L102.17 405.756L103.841 397.741H35.5664Z" fill="#E0E0E0"/>
<path d="M87.1055 326.937C87.1055 326.937 78.5217 318.897 75.2208 316.761C71.92 314.625 64.5162 311.688 61.751 311.421C58.9859 311.154 46.0509 314.892 46.0509 314.892C46.0509 314.892 26.9614 313.201 23.75 315.426C20.5386 317.652 20.8059 319.965 22.1448 321.656C23.4826 323.347 28.657 322.813 34.3652 322.902C40.0743 322.991 41.5911 323.524 41.5911 323.524L33.2947 332.335L54.7925 338.298L67.9055 337.808L72.6336 343.74L87.1055 326.937Z" fill="#FFBF9D"/>
<path d="M21.6523 307.032L22.171 326.011L23.0917 328.37L32.4746 339.783L55.3675 338.278L37.1294 331.188L30.6443 326.271L28.1365 318.162C28.1365 318.162 28.9154 305.652 21.6523 307.032Z" fill="#FFBF9D"/>
<path d="M23.2666 328.804H17.6911C17.6911 328.804 10.4169 316.867 3.75894 320.921L5.28875 323.28C5.28875 323.28 2.28843 321.925 0.386719 324.443L18.7374 340.505H19.5818L39.1356 339.248L23.2666 328.804Z" fill="#FFBF9D"/>
<path d="M26.5744 332.432C26.5684 332.489 25.9844 332.461 24.9963 332.498C24.0234 332.553 22.579 332.617 21.1326 333.272L20.9457 333.358L20.824 333.187C20.2591 332.391 19.5596 331.533 18.8419 330.639C17.3563 328.81 16.0125 327.155 14.8837 325.764C13.8776 324.51 13.2594 323.733 13.3117 323.684C13.3649 323.634 14.0866 324.329 15.1661 325.524C16.2467 326.719 17.7031 328.4 19.25 330.311C19.9727 331.213 20.6562 332.068 21.2321 332.919L20.9245 332.833C22.5297 332.154 24.0013 332.177 24.9973 332.2C26.0035 332.249 26.5814 332.38 26.5744 332.432Z" fill="#FF9A6C"/>
<path d="M66.2484 321.398C66.2956 321.567 63.1596 322.203 59.7965 324.122C56.4232 326.027 54.2732 328.391 54.1516 328.263C54.1044 328.22 54.5838 327.582 55.5066 326.682C56.4273 325.783 57.8204 324.646 59.5381 323.668C61.2579 322.694 62.9496 322.081 64.1939 321.751C65.4413 321.421 66.2363 321.336 66.2484 321.398Z" fill="#FF9A6C"/>
<path d="M47.9497 316.482C48.0532 316.591 46.7888 317.951 45.3233 319.701C43.8528 321.447 42.732 322.927 42.6074 322.845C42.4908 322.769 43.4306 321.138 44.9222 319.366C46.4098 317.591 47.8552 316.381 47.9497 316.482Z" fill="#FF9A6C"/>
<path d="M28.8476 335.085C28.8335 335.097 28.6838 334.947 28.4094 334.65C28.1028 334.309 27.7118 333.874 27.2293 333.337C26.7087 332.745 26.0935 332.043 25.3859 331.237C25.0261 330.824 24.6441 330.385 24.2401 329.921C23.842 329.455 23.3837 328.972 22.9987 328.378C22.2298 327.209 21.7021 325.688 21.6951 324.032C21.6639 322.414 21.6297 320.689 21.5946 318.875C21.5342 315.234 21.4679 311.238 21.3986 307.035L21.3945 306.805L21.6106 306.776C21.8016 306.75 22.0087 306.722 22.2167 306.693C23.5666 306.543 25.011 307.015 25.9176 308.003C26.8313 308.971 27.3419 310.17 27.6887 311.338C28.3541 313.701 28.4616 316.025 28.3772 318.176L28.3671 318.094C29.2959 321.171 30.1241 323.91 30.8207 326.219L30.7594 326.131C32.7254 327.664 34.3175 328.905 35.4734 329.805C35.984 330.216 36.3982 330.549 36.7248 330.812C37.0063 331.046 37.148 331.174 37.1379 331.187C37.1279 331.2 36.9661 331.099 36.6645 330.89C36.3228 330.647 35.8906 330.338 35.3568 329.958C34.1768 329.088 32.5525 327.89 30.5463 326.41L30.502 326.376L30.485 326.32C29.7572 324.021 28.8938 321.292 27.9239 318.227L27.9128 318.191L27.9138 318.144C27.9782 316.054 27.8535 313.745 27.2012 311.478C26.8655 310.356 26.3679 309.228 25.5447 308.361C24.7255 307.484 23.5003 307.083 22.265 307.211C22.074 307.237 21.884 307.263 21.7091 307.286L21.9222 307.026C21.9765 311.229 22.0278 315.225 22.074 318.866C22.2248 322.47 21.6599 325.905 23.3063 328.179C23.6581 328.746 24.0953 329.225 24.4893 329.706C24.8823 330.179 25.2552 330.628 25.605 331.049C26.2865 331.876 26.8805 332.597 27.3811 333.206C27.8334 333.769 28.1993 334.224 28.4868 334.582C28.737 334.902 28.8607 335.074 28.8476 335.085Z" fill="#FF9A6C"/>
<path d="M19.5815 340.504C19.5886 340.529 19.1895 340.55 18.6065 340.226C18.0236 339.915 17.2808 339.321 16.4535 338.51C14.7951 336.887 12.7788 334.408 10.7032 331.573C8.62857 328.734 6.8706 326.083 5.63529 324.14C5.01813 323.168 4.53366 322.373 4.21101 321.815C3.88836 321.258 3.72654 320.939 3.7577 320.92C3.78785 320.901 4.00697 321.183 4.38289 321.705C4.81912 322.329 5.33978 323.071 5.94487 323.935C7.25657 325.823 9.05978 328.435 11.1263 331.264C13.1949 334.089 15.1519 336.587 16.7179 338.251C17.4989 339.083 18.1864 339.702 18.7111 340.051C19.2327 340.41 19.5865 340.455 19.5815 340.504Z" fill="#FF9A6C"/>
<path d="M52.9782 328.255L42.8766 327.575L39.8572 319.316L39.3003 313.764C39.028 311.049 36.7533 308.908 34.0204 308.948C33.9882 308.948 33.955 308.949 33.9219 308.95L34.4888 322.561L36.5634 331.015L44.7713 335.845H54.8075L52.9782 328.255Z" fill="#FFBF9D"/>
<path d="M52.9782 328.255L42.8766 327.575L39.8572 319.316L39.3003 313.764C39.028 311.049 36.7533 308.908 34.0204 308.948C33.9882 308.948 33.955 308.949 33.9219 308.95L34.4888 322.561L36.5634 331.015L44.7713 335.845" fill="#FFBF9D"/>
<path d="M44.7781 335.847C44.769 335.863 44.565 335.763 44.185 335.559C43.7599 335.324 43.2121 335.02 42.5326 334.644C41.051 333.795 38.9995 332.62 36.4767 331.176L36.4103 331.138L36.3912 331.061C35.7811 328.637 35.0614 325.775 34.2674 322.619L34.2613 322.597L34.2603 322.572C34.0824 318.481 33.8804 313.853 33.6673 308.963L33.6562 308.703L33.9226 308.691C34.0141 308.687 34.1166 308.692 34.2181 308.695C36.7581 308.713 38.9201 310.691 39.4197 312.95C39.5634 313.522 39.5885 314.08 39.6458 314.613C39.6981 315.152 39.7504 315.686 39.8026 316.212C39.9052 317.266 40.0047 318.294 40.1012 319.294L40.0881 319.237C41.1927 322.312 42.1939 325.097 43.0623 327.512L42.8964 327.387C45.9661 327.629 48.4729 327.826 50.2822 327.969C51.1084 328.045 51.7748 328.107 52.2884 328.154C52.7468 328.202 52.987 328.238 52.986 328.256C52.985 328.275 52.7417 328.277 52.2814 328.263C51.7657 328.241 51.0973 328.213 50.2681 328.177C48.4558 328.076 45.946 327.936 42.8713 327.764L42.7487 327.757L42.7055 327.64C41.8109 325.234 40.7796 322.46 39.6408 319.397L39.6308 319.37L39.6277 319.339C39.5242 318.34 39.4177 317.312 39.3091 316.259C39.2548 315.733 39.2006 315.199 39.1453 314.66C39.085 314.116 39.0558 313.572 38.9252 313.069C38.4618 311.013 36.4927 309.227 34.2091 309.214C34.1166 309.211 34.0261 309.206 33.9387 309.21L34.193 308.939C34.387 313.829 34.5719 318.458 34.7338 322.55L34.7277 322.504C35.4856 325.669 36.1721 328.539 36.7541 330.97L36.6686 330.855C39.1563 332.359 41.1797 333.583 42.6401 334.466C43.2995 334.877 43.8302 335.209 44.2423 335.466C44.6012 335.702 44.7871 335.831 44.7781 335.847Z" fill="#FF9A6C"/>
<path d="M269.36 167.667C260.701 134.742 252.708 96.4289 204.461 99.8727C204.461 99.8727 174.727 105.581 160.608 127.474C152.302 140.353 145.106 195.868 143.675 239.715C143.675 239.722 143.675 239.729 143.675 239.736C143.617 241.521 144.362 253.966 144.311 255.713L272.025 266.32H295.032C295.032 266.32 293.59 243.059 286.655 220.497C279.909 198.552 272.426 179.321 269.36 167.667Z" fill="#263238"/>
<path d="M198.043 112.417L201.062 109.547L233.68 122.663C238.4 122.924 242.135 126.744 242.278 131.458L241.992 237.497C242.033 244.688 240.589 250.915 236.238 256.647L231.656 262.681C221.211 276.44 199.724 275.308 191.454 260.148C190.876 259.089 190.475 258.159 190.301 257.406C190.126 256.461 189.868 255.838 189.815 255.034C188.844 246.503 188.789 239.106 188.789 239.106C188.208 229.739 188.016 225.896 188.015 225.983C188.015 225.983 168.037 223.692 162.636 198.105C159.95 185.38 160.457 167.874 161.211 150.644C162.257 126.799 178.833 112.394 198.043 112.417Z" fill="#FFBF9D"/>
<path d="M206.434 167.654C206.46 169.404 207.967 170.825 209.798 170.831C211.626 170.838 213.092 169.428 213.066 167.678C213.04 165.928 211.533 164.505 209.705 164.499C207.872 164.493 206.408 165.905 206.434 167.654Z" fill="#263238"/>
<path d="M172.387 168.542C172.413 170.292 173.92 171.713 175.751 171.72C177.58 171.727 179.045 170.317 179.019 168.567C178.993 166.817 177.486 165.394 175.658 165.388C173.826 165.38 172.361 166.793 172.387 168.542Z" fill="#263238"/>
<path d="M164.615 157.458C165.047 157.869 167.467 155.889 171.035 155.719C174.596 155.499 177.307 157.2 177.672 156.744C177.853 156.541 177.395 155.784 176.214 155.012C175.05 154.244 173.095 153.538 170.873 153.658C168.652 153.781 166.824 154.692 165.791 155.58C164.737 156.476 164.403 157.274 164.615 157.458Z" fill="#263238"/>
<path d="M200.013 156.245C200.486 156.609 202.691 154.392 206.22 153.859C209.739 153.274 212.611 154.688 212.928 154.197C213.086 153.977 212.557 153.27 211.297 152.625C210.06 151.979 208.045 151.477 205.847 151.825C203.649 152.176 201.925 153.268 200.989 154.259C200.035 155.255 199.784 156.085 200.013 156.245Z" fill="#263238"/>
<path d="M188.365 183.738C188.372 183.536 186.135 183.264 182.518 182.985C181.603 182.936 180.731 182.799 180.546 182.187C180.299 181.54 180.63 180.542 181.019 179.463C181.764 177.221 182.545 174.87 183.366 172.407C186.611 162.366 188.913 154.127 188.507 154.001C188.1 153.873 185.139 161.909 181.893 171.951C181.115 174.426 180.369 176.784 179.662 179.042C179.368 180.092 178.834 181.293 179.368 182.633C179.648 183.3 180.341 183.759 180.933 183.888C181.526 184.036 182.039 184.02 182.491 184.024C186.118 184.037 188.362 183.941 188.365 183.738Z" fill="#263238"/>
<path d="M188.012 225.982C188.012 225.982 205.459 226.231 222.17 215.037C222.17 215.037 214.362 233.327 188.368 232.208L188.012 225.982Z" fill="#FF9A6C"/>
<path d="M199.513 190.976C198.51 189.764 196.908 189.099 195.351 189.009C193.106 188.881 191.528 189.164 190.33 190.921C189.768 191.891 189.817 193.386 190.079 193.796C190.34 194.207 190.145 194.216 190.545 194.505C191.994 195.549 193.664 196.22 195.391 196.618C197.118 197.016 199.113 196.604 200.009 195.205C200.804 193.962 200.517 192.186 199.513 190.976Z" fill="#FF9A6C"/>
<path d="M199.146 139.895C199.603 140.805 202.679 139.87 206.449 139.803C210.218 139.652 213.383 140.406 213.741 139.471C213.897 139.027 213.24 138.206 211.892 137.463C210.555 136.72 208.515 136.131 206.254 136.194C203.995 136.261 202.023 136.966 200.772 137.785C199.51 138.604 198.943 139.46 199.146 139.895Z" fill="#263238"/>
<path d="M165.128 151.017C165.796 151.794 168.212 150.833 171.165 150.645C174.111 150.355 176.65 150.915 177.184 150.042C177.416 149.618 176.981 148.828 175.849 148.118C174.733 147.409 172.899 146.877 170.872 147.039C168.844 147.206 167.122 148.026 166.136 148.905C165.132 149.787 164.832 150.637 165.128 151.017Z" fill="#263238"/>
<path d="M241.626 176.711C241.626 176.711 227.897 180.023 208.41 138.156C201.777 123.904 188.895 109.547 188.895 109.547L200.981 107.807C200.981 107.807 237.013 117.934 237.619 118.388C238.225 118.841 246.71 136.981 246.71 136.981L241.626 176.711Z" fill="#263238"/>
<path d="M237.12 175.036C237.029 173.115 239.026 168.475 240.913 168.084C245.949 167.04 255.121 166.99 255.853 179.85C256.853 197.43 238.957 194.804 238.896 194.302C238.85 193.911 237.438 181.67 237.12 175.036Z" fill="#FFBF9D"/>
<path d="M243.901 187.338C243.975 187.277 244.219 187.534 244.751 187.743C245.271 187.945 246.15 188.056 247.049 187.66C248.871 186.874 250.271 183.836 250.176 180.662C250.129 179.059 249.707 177.555 249.067 176.326C248.456 175.07 247.571 174.219 246.625 174.106C245.681 173.944 245.049 174.54 244.861 175.047C244.652 175.552 244.784 175.897 244.693 175.931C244.646 175.979 244.298 175.659 244.398 174.926C244.451 174.572 244.633 174.145 245.029 173.783C245.432 173.416 246.044 173.207 246.701 173.24C248.066 173.258 249.359 174.435 250.062 175.784C250.84 177.136 251.354 178.825 251.405 180.624C251.493 184.173 249.865 187.591 247.359 188.469C246.139 188.861 245.083 188.547 244.526 188.162C243.957 187.761 243.841 187.373 243.901 187.338Z" fill="#FF9A6C"/>
<path d="M201.782 191.686C201.729 192.138 198.718 192.072 195.144 192.762C191.562 193.415 188.781 194.569 188.567 194.169C188.348 193.821 190.99 191.935 194.853 191.222C198.711 190.485 201.859 191.282 201.782 191.686Z" fill="#263238"/>
<path d="M339.473 327.929C339.473 327.929 354.23 315.316 358.507 314.98C362.783 314.643 374.031 316.729 374.031 316.729C374.031 316.729 381.135 316.79 384.666 316.35C389.984 315.687 393.621 316.24 395.754 316.889C396.82 317.213 398.151 319.856 395.017 321.656C393.691 322.418 380.788 323.289 380.788 323.289L413.074 332.49L408.879 335.942C408.321 336.4 407.628 336.663 406.906 336.689L360.42 338.334L358.291 343.518L339.473 327.929Z" fill="#FFBF9D"/>
<path d="M374.711 327.938H389.79C389.79 327.938 395.079 320.931 396.992 318.012C398.664 315.459 400.682 314.709 402.441 315.312C402.898 315.468 403.271 315.809 403.51 316.229C403.866 316.849 403.876 317.608 403.537 318.238L396.908 330.586L400.383 329.415C400.383 329.415 407.345 322.615 408.696 321.043C410.045 319.472 414.997 312.847 419.386 317.675L413.309 324.411L419.386 320.145C419.386 320.145 424.225 315.991 426.813 320.931L408.745 336.133" fill="#FFBF9D"/>
<path d="M359.024 321.706C359.019 321.691 359.225 321.621 359.626 321.499C360.03 321.391 360.616 321.16 361.42 321.087C362.999 320.821 365.411 320.864 368.192 321.79C369.575 322.259 371.048 322.915 372.542 323.787C373.285 324.227 374.043 324.705 374.8 325.233C375.176 325.5 375.557 325.772 375.944 326.046C376.307 326.306 376.76 326.652 377.059 326.807C380.874 327.103 385.241 327.359 389.816 327.681L389.604 327.77C391.012 326.099 392.407 324.278 393.753 322.375C394.279 321.635 394.779 320.888 395.27 320.145C395.754 319.403 396.215 318.634 396.752 317.922C397.283 317.21 397.856 316.531 398.527 315.955C398.857 315.661 399.227 315.407 399.624 315.199C400.038 315.007 400.436 314.817 401.008 314.894L400.919 314.887C401.717 314.807 402.624 314.893 403.298 315.457C403.97 316.039 404.154 316.917 404.088 317.707L404.084 317.748L404.06 317.792C401.188 322.932 398.689 327.403 396.75 330.873L396.765 330.837C396.327 332.318 395.133 333.186 394.105 333.644C393.039 334.106 392.048 334.2 391.265 334.244C390.476 334.279 389.871 334.249 389.464 334.228C389.056 334.205 388.845 334.183 388.846 334.166C388.846 334.15 389.059 334.141 389.466 334.134C389.873 334.124 390.477 334.126 391.254 334.063C392.024 333.993 392.993 333.871 393.997 333.406C394.974 332.947 396.073 332.095 396.444 330.75L396.449 330.731L396.459 330.713C398.363 327.224 400.817 322.727 403.637 317.559L403.609 317.644C403.66 317.001 403.488 316.248 402.976 315.831C402.469 315.405 401.709 315.309 400.971 315.387L400.95 315.389L400.881 315.38C400.618 315.345 400.188 315.472 399.856 315.651C399.508 315.836 399.17 316.066 398.862 316.344C398.236 316.884 397.683 317.539 397.169 318.231C396.174 319.629 395.252 321.205 394.18 322.677C392.823 324.595 391.424 326.416 389.994 328.107L389.91 328.206L389.781 328.196C385.175 327.86 380.891 327.597 376.954 327.249C376.379 326.973 376.094 326.684 375.683 326.403C375.301 326.127 374.925 325.854 374.554 325.585C373.809 325.055 373.066 324.576 372.338 324.134C370.874 323.257 369.435 322.594 368.083 322.112C365.366 321.159 363.008 321.065 361.443 321.272C360.647 321.316 360.06 321.514 359.651 321.593C359.245 321.681 359.029 321.721 359.024 321.706Z" fill="#FF9A6C"/>
<path d="M419.386 317.674C419.413 317.699 419.202 317.991 418.797 318.502C418.392 319.012 417.794 319.738 417.046 320.628C415.55 322.408 413.457 324.843 411.121 327.51C408.745 330.136 406.77 332.702 405.034 334.288C404.179 335.089 403.422 335.673 402.858 336.014C402.292 336.355 401.942 336.468 401.931 336.442C401.911 336.403 402.227 336.23 402.744 335.846C403.26 335.461 403.965 334.846 404.775 334.024C406.419 332.396 408.329 329.819 410.716 327.179C413.056 324.506 415.196 322.105 416.765 320.385C417.549 319.525 418.192 318.835 418.643 318.366C419.096 317.899 419.359 317.65 419.386 317.674Z" fill="#FF9A6C"/>
<path d="M411.125 318.379C411.177 318.43 410.474 319.247 409.294 320.528C408.115 321.808 406.459 323.552 404.608 325.457C403.09 327.018 401.676 328.444 400.544 329.56L400.505 329.598L400.461 329.612C398.221 330.315 396.756 330.693 396.727 330.575C396.724 330.546 397.067 330.414 397.695 330.177C398.459 329.898 399.335 329.579 400.328 329.218L400.246 329.27C401.329 328.108 402.715 326.655 404.233 325.094C406.084 323.19 407.782 321.486 409.029 320.271C410.276 319.055 411.073 318.329 411.125 318.379Z" fill="#FF9A6C"/>
<path d="M289.455 253.094C289.455 253.094 311.127 258.666 313.253 288.053C314.464 304.796 305.533 358.581 305.533 358.581L337.536 325.787L366.058 345.587C366.058 345.587 327.255 392.922 318.301 400.038C309.347 407.153 295.086 418.601 290.443 417.672C285.801 416.744 285.801 395.397 285.801 395.397V277.523L289.455 253.094Z" fill="#383192"/>
<path d="M133.669 256.691C133.669 256.691 114.388 263.015 115.175 300.59C115.962 338.164 115.343 350.816 115.343 350.816L86.4489 320.307L62.4453 346.722C62.4453 346.722 89.2985 386.527 108.091 405.873C125.799 424.102 141.538 408.272 146.654 395.456C150.8 385.073 154.131 345.605 154.131 345.605L133.669 256.691Z" fill="#383192"/>
<g opacity="0.3">
<path d="M291.142 320.788C292.882 309.794 293.345 297.809 288.314 287.718C275.957 318.191 276.513 353.176 280.937 385.46L290.73 413.385C296.898 394.672 291.032 374.738 291.168 355.177C291.245 344.065 289.402 331.782 291.142 320.788Z" fill="black"/>
</g>
<path d="M129.648 280.617C129.648 280.617 142.538 367.107 145.033 374.681C147.528 382.254 147.528 404.574 147.528 404.574C147.528 404.574 134 429.7 133.168 447.168L296.072 447.502L285.487 375.735C285.124 373.055 285.099 364.808 285.246 362.109C285.931 349.47 286.91 322.356 290.54 305.694C294.762 286.319 289.079 253.161 289.079 253.161L240.418 241.203C228.901 257.715 200.167 257.938 188.833 241.203L133.916 256.692L129.648 280.617Z" fill="#383192"/>
<path d="M288.679 372.298C288.651 372.276 288.825 372.002 289.165 371.527C289.504 371.05 290.016 370.377 290.662 369.556C291.969 367.93 293.823 365.69 296.252 363.584C298.682 361.474 301.243 360.03 303.151 359.166C304.11 358.738 304.896 358.419 305.452 358.236C306.006 358.044 306.318 357.955 306.331 357.988C306.445 358.194 301.398 359.808 296.594 363.978C294.206 366.049 292.321 368.23 290.946 369.791C289.583 371.367 288.739 372.345 288.679 372.298Z" fill="#263238"/>
<path d="M137.838 370.468C137.739 370.496 137.361 368.709 136.13 366.069C134.919 363.439 132.704 359.983 129.312 357.113C125.92 354.241 122.141 352.625 119.344 351.862C116.532 351.082 114.704 351 114.715 350.898C114.717 350.867 115.173 350.859 115.994 350.924C116.816 350.989 118.002 351.154 119.438 351.504C122.299 352.186 126.186 353.78 129.651 356.714C133.117 359.645 135.327 363.211 136.468 365.916C137.048 367.272 137.407 368.412 137.604 369.212C137.802 370.011 137.869 370.461 137.838 370.468Z" fill="#263238"/>
<path d="M138.881 323.602C138.861 323.631 138.6 323.488 138.143 323.202C137.685 322.919 137.045 322.476 136.273 321.901C134.729 320.752 132.701 319.015 130.677 316.884C128.656 314.75 127.004 312.667 125.853 311.131C124.705 309.593 124.05 308.603 124.105 308.562C124.165 308.517 124.925 309.428 126.144 310.904C127.366 312.377 129.054 314.41 131.057 316.525C133.063 318.637 135.029 320.396 136.502 321.611C137.977 322.826 138.929 323.535 138.881 323.602Z" fill="#263238"/>
<path d="M252.595 370.415C252.602 370.421 252.557 370.489 252.463 370.615C252.347 370.764 252.205 370.946 252.033 371.167C251.64 371.64 251.106 372.378 250.317 373.241C248.794 375.017 246.432 377.457 243.264 380.196C240.101 382.942 236.075 385.908 231.376 388.836C226.678 391.767 221.298 394.63 215.541 397.387C209.776 400.134 204.204 402.568 199.162 404.829C194.118 407.086 189.603 409.174 185.869 411.046C182.134 412.913 179.164 414.527 177.14 415.691C176.119 416.257 175.348 416.736 174.81 417.036C174.565 417.173 174.364 417.286 174.199 417.379C174.059 417.453 173.986 417.488 173.981 417.48C173.976 417.472 174.04 417.423 174.17 417.334C174.328 417.23 174.518 417.102 174.754 416.947C175.274 416.618 176.028 416.11 177.035 415.517C179.032 414.296 181.981 412.631 185.702 410.717C189.421 408.8 193.927 406.673 198.963 404.391C203.997 402.105 209.559 399.658 215.314 396.916C221.059 394.165 226.428 391.324 231.121 388.427C235.816 385.533 239.844 382.613 243.022 379.915C246.207 377.226 248.599 374.835 250.163 373.106C250.973 372.266 251.531 371.551 251.95 371.1C252.139 370.892 252.293 370.721 252.419 370.581C252.529 370.467 252.588 370.41 252.595 370.415Z" fill="#263238"/>
<path d="M133.542 445.809C133.534 445.809 133.533 445.737 133.538 445.596C133.545 445.433 133.554 445.227 133.566 444.967C133.602 444.385 133.653 443.569 133.718 442.523C134.008 440.405 134.457 437.293 135.558 433.484C137.663 425.847 141.795 415.335 148.098 403.652L148.068 403.784C147.42 394.373 146.443 383.863 145.315 372.81C143.167 351.938 140.911 333.075 139.266 319.424C138.438 312.621 137.767 307.106 137.299 303.261C137.074 301.375 136.898 299.899 136.775 298.865C136.723 298.383 136.682 298.004 136.65 297.72C136.625 297.462 136.616 297.329 136.625 297.328C136.634 297.327 136.66 297.458 136.704 297.713C136.747 297.995 136.805 298.371 136.88 298.851C137.026 299.882 137.234 301.354 137.501 303.235C138.008 307.076 138.735 312.584 139.633 319.379C141.372 333.02 143.685 351.877 145.834 372.757C146.963 383.814 147.924 394.33 148.543 403.753L148.548 403.822L148.514 403.885C142.197 415.508 138.008 425.978 135.834 433.562C134.697 437.348 134.207 440.436 133.87 442.542C133.773 443.582 133.697 444.394 133.643 444.972C133.616 445.231 133.594 445.436 133.577 445.598C133.56 445.738 133.548 445.809 133.542 445.809Z" fill="#263238"/>
<path d="M292.548 282.64C292.558 282.64 292.564 282.785 292.568 283.068C292.569 283.376 292.571 283.793 292.573 284.326C292.56 285.433 292.592 287.066 292.487 289.165C292.371 293.367 291.937 299.437 291.191 306.914C290.453 314.392 289.365 323.271 288.266 333.138C287.171 343.004 286.073 353.872 285.727 365.316C285.356 376.767 286.478 387.657 287.952 397.465C289.399 407.285 291.106 416.068 292.428 423.462C293.776 430.853 294.767 436.855 295.326 441.019C295.628 443.098 295.798 444.722 295.919 445.821C295.974 446.352 296.016 446.767 296.048 447.073C296.074 447.354 296.084 447.5 296.074 447.501C296.065 447.502 296.038 447.359 295.995 447.079C295.951 446.775 295.891 446.362 295.814 445.834C295.659 444.739 295.457 443.122 295.124 441.049C294.502 436.896 293.457 430.91 292.063 423.53C290.695 416.146 288.95 407.368 287.475 397.537C285.974 387.722 284.831 376.789 285.204 365.302C285.552 353.83 286.666 342.952 287.787 333.085C288.913 323.216 290.04 314.344 290.824 306.877C291.618 299.41 292.106 293.352 292.285 289.157C292.421 287.061 292.422 285.431 292.469 284.325C292.489 283.792 292.505 283.376 292.516 283.068C292.528 282.784 292.539 282.64 292.548 282.64Z" fill="#263238"/>
<g opacity="0.3">
<path d="M137.103 301.168C134.193 328.345 137.676 357.318 146.547 383.176L137.103 301.168Z" fill="black"/>
</g>
<g opacity="0.3">
<path d="M237.865 396.988C225.521 408.3 213.137 417.968 197.953 423.352C209.4 424.323 220.948 419.955 229.798 412.646C238.647 405.339 244.942 397.634 248.996 386.91L237.865 396.988Z" fill="black"/>
</g>
<path d="M223.813 409.449C223.717 409.342 231.396 402.314 240.964 393.753C250.535 385.19 258.369 378.337 258.465 378.446C258.562 378.553 250.884 385.579 241.314 394.142C231.746 402.703 223.91 409.556 223.813 409.449Z" fill="#263238"/>
<path d="M251.118 197.207C251.118 200.677 248.298 203.49 244.821 203.49C241.343 203.49 238.523 200.677 238.523 197.207C238.523 193.737 241.343 190.924 244.821 190.924C248.298 190.924 251.118 193.737 251.118 197.207Z" fill="#455A64"/>
<path d="M288.611 279.791C286.755 264.431 284.897 249.07 283.041 233.708L243.189 221.707C242.419 249.145 237.606 279.96 230.688 306.526C245.374 311.278 261.065 312.908 276.417 311.276C277.096 303.855 277.775 296.434 278.453 289.013C279.45 294.607 280.445 300.199 281.441 305.793C285.624 303.455 288.09 298.797 288.924 294.086C289.758 289.375 289.185 284.542 288.611 279.791Z" fill="#263238"/>
<path d="M257.419 311.402C257.419 311.402 257.451 311.203 257.536 310.822C257.628 310.422 257.759 309.861 257.928 309.132C258.284 307.629 258.8 305.446 259.464 302.643C260.766 297.001 262.697 288.842 264.577 278.662C266.468 268.492 268.31 256.275 268.915 242.608C269.518 228.965 268.682 213.807 264.896 198.475C261.167 183.144 254.642 169.279 246.418 158.36C245.377 157.006 244.388 155.636 243.273 154.397C242.179 153.142 241.157 151.852 240.019 150.699C239.463 150.11 238.911 149.525 238.363 148.945C237.795 148.384 237.232 147.826 236.673 147.273C235.57 146.153 234.418 145.118 233.313 144.071C228.839 139.941 224.469 136.31 220.562 132.901C216.649 129.499 213.159 126.354 210.272 123.409C209.537 122.687 208.872 121.944 208.209 121.253C207.542 120.565 206.925 119.88 206.356 119.205C205.779 118.538 205.227 117.898 204.7 117.288C204.204 116.654 203.73 116.052 203.283 115.48C202.361 114.358 201.663 113.272 201.017 112.361C200.361 111.456 199.875 110.646 199.488 109.987C199.105 109.343 198.81 108.848 198.599 108.495C198.401 108.157 198.312 107.979 198.312 107.979C198.312 107.979 198.433 108.14 198.645 108.469C198.865 108.815 199.175 109.3 199.577 109.932C199.978 110.58 200.477 111.38 201.145 112.273C201.802 113.172 202.512 114.245 203.443 115.356C203.895 115.92 204.372 116.517 204.874 117.144C205.405 117.747 205.961 118.38 206.542 119.041C207.115 119.709 207.735 120.387 208.406 121.068C209.073 121.752 209.74 122.487 210.479 123.203C213.378 126.12 216.879 129.239 220.804 132.622C224.724 136.011 229.11 139.625 233.608 143.752C234.719 144.798 235.877 145.832 236.988 146.953C237.55 147.507 238.117 148.065 238.688 148.627C239.24 149.209 239.795 149.795 240.355 150.385C241.502 151.542 242.532 152.835 243.635 154.094C244.758 155.337 245.755 156.711 246.804 158.071C255.093 169.03 261.661 182.959 265.404 198.35C269.206 213.742 270.028 228.955 269.398 242.629C268.765 256.328 266.881 268.56 264.942 278.731C263.014 288.913 261.027 297.061 259.664 302.69C258.972 305.503 258.419 307.682 258.033 309.157C257.842 309.881 257.695 310.438 257.59 310.835C257.486 311.211 257.419 311.402 257.419 311.402Z" fill="#455A64"/>
<path d="M333.065 157.533C352.921 155.012 366.974 136.907 364.453 117.095C361.931 97.2824 343.791 83.2652 323.934 85.7865C304.077 88.3077 290.024 106.413 292.546 126.225C295.067 146.037 313.208 160.054 333.065 157.533Z" fill="white"/>
<path d="M292.271 121.654C292.271 121.654 292.266 121.455 292.278 121.068C292.293 120.666 292.315 120.093 292.343 119.346C292.359 118.966 292.377 118.543 292.396 118.077C292.438 117.611 292.53 117.107 292.605 116.558C292.686 116.01 292.773 115.419 292.866 114.788C292.935 114.152 293.164 113.506 293.321 112.804C293.936 109.991 295.228 106.66 297.288 103.125C299.365 99.6051 302.375 95.9206 306.491 92.7877C307.008 92.4006 307.532 92.0085 308.061 91.6124C308.613 91.2483 309.194 90.9154 309.769 90.5594C310.356 90.2234 310.912 89.8163 311.541 89.5295C312.164 89.2286 312.792 88.9247 313.429 88.6189C313.747 88.4674 314.067 88.315 314.389 88.1616C314.723 88.0392 315.06 87.9149 315.398 87.7915C316.073 87.5438 316.757 87.2931 317.445 87.0404C318.141 86.8087 318.868 86.6583 319.589 86.4607C320.317 86.2942 321.033 86.0375 321.792 85.9573C323.297 85.7397 324.82 85.4268 326.397 85.4137C327.182 85.3846 327.974 85.3064 328.771 85.3175C329.569 85.3566 330.372 85.3967 331.182 85.4358C331.586 85.4629 331.995 85.4599 332.4 85.512C332.804 85.5732 333.209 85.6344 333.615 85.6955C334.426 85.8279 335.251 85.9212 336.067 86.0887C337.676 86.5209 339.343 86.8458 340.929 87.5027C342.564 88.0232 344.104 88.8254 345.685 89.5796C346.455 89.9948 347.194 90.4781 347.957 90.9284C348.33 91.1661 348.729 91.3697 349.084 91.6374L350.158 92.4377C351.641 93.4516 352.939 94.7182 354.296 95.9397C354.911 96.6146 355.531 97.2925 356.152 97.9745L356.618 98.4859L357.037 99.0385L357.873 100.153L358.712 101.272L359.447 102.468L360.18 103.673L360.548 104.276L360.861 104.912C361.272 105.764 361.685 106.619 362.1 107.478C362.429 108.372 362.76 109.27 363.091 110.171C364.282 113.823 364.924 117.702 364.975 121.648C364.924 125.595 364.284 129.476 363.093 133.13C362.762 134.031 362.432 134.93 362.102 135.824C361.687 136.683 361.274 137.538 360.863 138.391L360.551 139.027L360.183 139.632L359.45 140.836L358.715 142.033L357.876 143.152L357.04 144.266L356.621 144.819L356.155 145.33C355.534 146.012 354.915 146.69 354.299 147.365C352.941 148.588 351.643 149.854 350.16 150.868L349.086 151.668C348.73 151.937 348.332 152.14 347.958 152.377C347.195 152.828 346.456 153.311 345.686 153.727C344.104 154.482 342.565 155.285 340.929 155.805C339.343 156.462 337.676 156.787 336.066 157.219C335.25 157.387 334.425 157.48 333.614 157.612C333.208 157.673 332.802 157.735 332.399 157.796C331.993 157.848 331.585 157.845 331.181 157.872C330.371 157.912 329.568 157.951 328.77 157.99C327.973 158 327.181 157.923 326.396 157.894C324.819 157.881 323.296 157.568 321.791 157.35C321.032 157.27 320.316 157.014 319.588 156.846C318.867 156.648 318.14 156.498 317.444 156.266C316.756 156.014 316.073 155.763 315.397 155.515C315.059 155.391 314.722 155.268 314.388 155.145C314.066 154.992 313.745 154.839 313.428 154.687C312.792 154.38 312.163 154.076 311.54 153.776C310.911 153.489 310.354 153.081 309.768 152.745C309.193 152.389 308.612 152.056 308.06 151.692C307.531 151.296 307.008 150.904 306.49 150.517C302.374 147.384 299.364 143.7 297.288 140.18C295.229 136.645 293.937 133.315 293.322 130.502C293.165 129.8 292.935 129.154 292.867 128.517C292.774 127.887 292.687 127.296 292.606 126.747C292.532 126.199 292.439 125.694 292.397 125.23C292.377 124.764 292.359 124.341 292.344 123.961C292.316 123.215 292.294 122.643 292.279 122.241C292.266 121.852 292.271 121.654 292.271 121.654C292.271 121.654 292.296 121.852 292.323 122.24C292.348 122.641 292.384 123.211 292.431 123.955C292.453 124.334 292.479 124.756 292.506 125.219C292.554 125.682 292.654 126.184 292.734 126.729C292.82 127.275 292.914 127.863 293.013 128.489C293.088 129.122 293.323 129.764 293.486 130.461C294.123 133.255 295.432 136.555 297.497 140.055C299.579 143.54 302.584 147.182 306.677 150.273C307.191 150.655 307.711 151.042 308.237 151.433C308.785 151.792 309.363 152.12 309.934 152.471C310.517 152.802 311.069 153.203 311.694 153.485C312.312 153.781 312.936 154.08 313.566 154.382C313.882 154.531 314.2 154.682 314.519 154.833C314.851 154.954 315.185 155.075 315.52 155.196C316.191 155.44 316.867 155.686 317.551 155.934C318.24 156.162 318.962 156.309 319.676 156.502C320.397 156.665 321.106 156.918 321.859 156.995C323.349 157.206 324.856 157.514 326.418 157.522C327.195 157.549 327.979 157.624 328.769 157.612C329.558 157.571 330.354 157.53 331.155 157.489C331.555 157.461 331.959 157.464 332.359 157.411C332.758 157.349 333.159 157.288 333.561 157.226C334.364 157.094 335.18 157 335.987 156.833C337.578 156.401 339.226 156.079 340.793 155.426C342.411 154.91 343.931 154.112 345.494 153.365C346.255 152.953 346.985 152.474 347.739 152.027C348.108 151.792 348.502 151.591 348.853 151.325L349.914 150.532C351.379 149.528 352.661 148.274 354.002 147.065C354.61 146.397 355.22 145.726 355.834 145.051L356.295 144.545L356.709 143.999L357.534 142.896L358.363 141.79L359.089 140.607L359.814 139.415L360.177 138.818L360.485 138.189C360.891 137.347 361.299 136.501 361.708 135.653C362.033 134.768 362.359 133.881 362.685 132.989C363.86 129.38 364.49 125.546 364.543 121.644C364.49 117.744 363.858 113.912 362.683 110.304C362.357 109.413 362.03 108.526 361.705 107.641C361.296 106.793 360.888 105.947 360.482 105.106L360.174 104.477L359.811 103.88L359.086 102.69L358.36 101.508L357.532 100.401L356.707 99.3003L356.293 98.7537L355.832 98.2483C355.219 97.5743 354.608 96.9034 354.001 96.2355C352.659 95.0271 351.378 93.7725 349.913 92.7697L348.852 91.9774C348.501 91.7117 348.107 91.5111 347.738 91.2754C346.984 90.8291 346.255 90.3498 345.493 89.9376C343.93 89.1895 342.41 88.3932 340.793 87.8767C339.226 87.2239 337.578 86.902 335.987 86.4697C335.18 86.3033 334.364 86.21 333.561 86.0766C333.159 86.0144 332.758 85.9533 332.359 85.8921C331.959 85.8389 331.555 85.842 331.155 85.8139C330.354 85.7728 329.559 85.7316 328.769 85.6915C327.98 85.6795 327.196 85.7547 326.419 85.7818C324.857 85.7908 323.35 86.0977 321.86 86.3083C321.108 86.3845 320.398 86.6382 319.677 86.8017C318.963 86.9952 318.241 87.1417 317.552 87.3693C316.869 87.618 316.192 87.8637 315.522 88.1074C315.188 88.2287 314.854 88.3501 314.521 88.4704C314.203 88.6219 313.885 88.7713 313.568 88.9207C312.938 89.2226 312.313 89.5214 311.696 89.8173C311.071 90.1001 310.519 90.5022 309.936 90.8322C309.365 91.1832 308.787 91.5111 308.239 91.8701C307.713 92.2612 307.193 92.6473 306.679 93.0294C302.586 96.1202 299.581 99.7616 297.498 103.246C295.433 106.746 294.124 110.048 293.487 112.842C293.324 113.539 293.089 114.181 293.014 114.813C292.915 115.44 292.821 116.028 292.735 116.573C292.654 117.119 292.555 117.621 292.506 118.084C292.479 118.548 292.453 118.969 292.431 119.347C292.384 120.091 292.348 120.663 292.323 121.064C292.296 121.455 292.271 121.654 292.271 121.654Z" fill="#263238"/>
<path d="M278.488 144.383C278.488 147.63 281.127 150.262 284.381 150.262C287.636 150.262 290.274 147.63 290.274 144.383C290.274 141.135 287.636 138.503 284.381 138.503C281.127 138.503 278.488 141.135 278.488 144.383Z" fill="white"/>
<path d="M278.489 144.383C278.474 144.383 278.466 144.253 278.464 144.005C278.457 143.758 278.488 143.389 278.591 142.926C278.785 142.015 279.356 140.656 280.722 139.587C281.399 139.064 282.26 138.617 283.26 138.431C284.254 138.25 285.379 138.272 286.457 138.673C287.533 139.05 288.565 139.774 289.298 140.782C290.052 141.777 290.48 143.062 290.491 144.383C290.48 145.704 290.053 146.99 289.298 147.985C288.564 148.993 287.533 149.717 286.456 150.095C285.378 150.495 284.252 150.517 283.258 150.336C282.258 150.15 281.397 149.702 280.72 149.179C279.354 148.11 278.783 146.751 278.589 145.84C278.485 145.377 278.455 145.008 278.462 144.761C278.466 144.512 278.474 144.383 278.489 144.383C278.537 144.38 278.515 144.906 278.755 145.798C278.993 146.671 279.59 147.951 280.909 148.935C281.564 149.415 282.384 149.821 283.327 149.981C284.264 150.136 285.319 150.102 286.32 149.717C287.322 149.355 288.277 148.673 288.956 147.732C289.653 146.802 290.045 145.611 290.056 144.383C290.044 143.154 289.652 141.963 288.954 141.034C288.276 140.092 287.321 139.411 286.32 139.049C285.319 138.665 284.264 138.631 283.327 138.785C282.384 138.945 281.563 139.351 280.909 139.832C279.59 140.814 278.993 142.094 278.755 142.969C278.515 143.859 278.538 144.386 278.489 144.383Z" fill="#263238"/>
<path d="M326.837 113.502V128.787H323.27L316.507 120.642V128.787H312.262V113.502H315.829L322.592 121.647V113.502H326.837Z" fill="#263238"/>
<path d="M329.121 121.145C329.121 116.559 332.733 113.196 337.636 113.196C342.538 113.196 346.149 116.559 346.149 121.145C346.149 125.731 342.538 129.094 337.636 129.094C332.732 129.094 329.121 125.731 329.121 121.145ZM341.771 121.145C341.771 118.502 339.953 116.777 337.635 116.777C335.314 116.777 333.497 118.502 333.497 121.145C333.497 123.787 335.315 125.512 337.635 125.512C339.954 125.512 341.771 123.787 341.771 121.145Z" fill="#263238"/>
<path d="M129.488 119.951C131.782 101.493 118.645 84.6692 100.145 82.3752C81.6449 80.0811 64.7879 93.1852 62.4937 111.644C60.1996 130.103 73.3371 146.926 91.8371 149.22C110.337 151.514 127.194 138.41 129.488 119.951Z" fill="white"/>
<path d="M129.746 115.794C129.746 115.794 129.751 115.61 129.739 115.249C129.725 114.875 129.705 114.341 129.678 113.645C129.663 113.291 129.645 112.897 129.627 112.463C129.588 112.03 129.503 111.56 129.433 111.049C129.358 110.537 129.278 109.988 129.19 109.4C129.126 108.808 128.913 108.206 128.766 107.552C128.193 104.932 126.99 101.831 125.071 98.5383C123.137 95.26 120.334 91.8292 116.5 88.9109C116.019 88.5499 115.531 88.1858 115.039 87.8158C114.525 87.4768 113.984 87.1669 113.449 86.835C112.902 86.5221 112.384 86.143 111.798 85.8753C111.218 85.5955 110.632 85.3127 110.04 85.0268C109.744 84.8854 109.445 84.743 109.146 84.6006C108.834 84.4863 108.521 84.371 108.206 84.2556C107.577 84.025 106.941 83.7913 106.299 83.5567C105.651 83.341 104.973 83.2006 104.302 83.0171C103.625 82.8617 102.957 82.623 102.251 82.5478C100.848 82.3452 99.4311 82.0544 97.9626 82.0423C97.2319 82.0153 96.4941 81.9431 95.7514 81.9531C95.0086 81.9902 94.2597 82.0263 93.5059 82.0634C93.13 82.0885 92.749 82.0855 92.3721 82.1346C91.9962 82.1918 91.6193 82.2479 91.2403 82.3061C90.4845 82.4295 89.7165 82.5167 88.9567 82.6721C87.458 83.0753 85.9051 83.3771 84.4285 83.9889C82.9047 84.4733 81.4714 85.2204 79.9989 85.9234C79.2812 86.3105 78.5937 86.7608 77.8831 87.18C77.5353 87.4016 77.1644 87.5901 76.8337 87.8398L75.8336 88.585C74.4526 89.5287 73.2434 90.709 71.9789 91.8473C71.406 92.476 70.8301 93.1078 70.2511 93.7416L69.8169 94.218L69.4259 94.7325L68.6479 95.7694L67.8669 96.8114L67.1824 97.9256L66.499 99.0468L66.1562 99.6094L65.8657 100.202C65.4828 100.995 65.0978 101.792 64.7118 102.591C64.4053 103.424 64.0977 104.261 63.7891 105.1C62.6805 108.501 62.0824 112.114 62.0352 115.788C62.0834 119.465 62.6784 123.079 63.7871 126.481C64.0957 127.32 64.4033 128.158 64.7098 128.991C65.0958 129.79 65.4808 130.588 65.8637 131.381L66.1542 131.973L66.4969 132.536L67.1804 133.658L67.8649 134.772L68.6469 135.814L69.4249 136.852L69.8149 137.367L70.2491 137.843C70.8281 138.478 71.404 139.11 71.9769 139.739C73.2414 140.877 74.4506 142.057 75.8316 143.001L76.8317 143.746C77.1624 143.996 77.5343 144.185 77.8821 144.407C78.5927 144.826 79.2802 145.276 79.9979 145.663C81.4714 146.366 82.9047 147.115 84.4285 147.599C85.9051 148.211 87.458 148.513 88.9577 148.916C89.7175 149.071 90.4865 149.158 91.2413 149.282C91.6203 149.339 91.9972 149.396 92.3731 149.453C92.75 149.502 93.131 149.499 93.5069 149.524C94.2607 149.562 95.0096 149.599 95.7524 149.635C96.4952 149.645 97.2329 149.572 97.9637 149.544C99.4332 149.532 100.85 149.241 102.252 149.038C102.958 148.964 103.626 148.724 104.303 148.569C104.974 148.384 105.652 148.245 106.3 148.029C106.942 147.794 107.578 147.561 108.207 147.33C108.522 147.215 108.835 147.1 109.147 146.985C109.446 146.842 109.745 146.7 110.041 146.559C110.633 146.273 111.219 145.99 111.799 145.711C112.385 145.443 112.904 145.064 113.45 144.751C113.985 144.419 114.526 144.109 115.04 143.77C115.532 143.401 116.02 143.036 116.501 142.675C120.335 139.757 123.138 136.326 125.071 133.048C126.989 129.755 128.192 126.654 128.765 124.034C128.912 123.38 129.125 122.778 129.189 122.186C129.276 121.598 129.357 121.048 129.431 120.537C129.501 120.025 129.587 119.556 129.625 119.123C129.643 118.689 129.661 118.295 129.676 117.942C129.702 117.247 129.722 116.713 129.737 116.339C129.75 115.979 129.746 115.794 129.746 115.794C129.746 115.794 129.723 115.979 129.698 116.34C129.675 116.713 129.64 117.246 129.597 117.939C129.576 118.291 129.553 118.684 129.528 119.116C129.483 119.547 129.39 120.014 129.315 120.523C129.234 121.031 129.147 121.578 129.054 122.162C128.985 122.75 128.766 123.349 128.614 123.998C128.021 126.599 126.802 129.674 124.879 132.933C122.94 136.178 120.142 139.57 116.329 142.449C115.851 142.805 115.367 143.165 114.876 143.529C114.365 143.863 113.828 144.169 113.296 144.496C112.753 144.804 112.24 145.178 111.658 145.442C111.083 145.718 110.501 145.995 109.914 146.276C109.619 146.416 109.324 146.555 109.027 146.696C108.718 146.809 108.407 146.922 108.095 147.035C107.471 147.262 106.841 147.492 106.205 147.722C105.562 147.935 104.891 148.07 104.226 148.251C103.554 148.402 102.893 148.639 102.193 148.71C100.804 148.907 99.401 149.192 97.9466 149.201C97.2229 149.226 96.4931 149.296 95.7574 149.285C95.0216 149.247 94.2808 149.209 93.535 149.17C93.1631 149.144 92.7862 149.147 92.4133 149.098C92.0414 149.041 91.6685 148.984 91.2936 148.927C90.5468 148.803 89.7859 148.716 89.0351 148.561C87.5535 148.159 86.0176 147.859 84.5582 147.25C83.0525 146.77 81.6353 146.026 80.1798 145.33C79.4712 144.946 78.7917 144.5 78.0891 144.085C77.7454 143.865 77.3785 143.679 77.0518 143.431L76.0638 142.693C74.6988 141.758 73.5057 140.59 72.2564 139.464C71.6905 138.842 71.1216 138.217 70.5496 137.588L70.1204 137.117L69.7355 136.608L68.9676 135.582L68.1956 134.551L67.5202 133.449L66.8447 132.34L66.506 131.783L66.2195 131.197C65.8416 130.413 65.4617 129.626 65.0797 128.836C64.7772 128.012 64.4736 127.185 64.1691 126.355C63.0755 122.994 62.4875 119.423 62.4392 115.789C62.4875 112.157 63.0765 108.588 64.1711 105.227C64.4756 104.398 64.7792 103.572 65.0817 102.748C65.4627 101.958 65.8426 101.171 66.2215 100.388L66.508 99.8019L66.8467 99.2463L67.5212 98.1372L68.1966 97.035L68.9686 96.0051L69.7365 94.9792L70.1225 94.4707L70.5517 93.9994C71.1226 93.3716 71.6915 92.7468 72.2574 92.125C73.5067 90.9998 74.6998 89.8315 76.0638 88.8969L77.0518 88.1588C77.3785 87.9111 77.7454 87.7245 78.0891 87.5049C78.7907 87.0897 79.4702 86.6424 80.1788 86.2594C81.6343 85.5634 83.0505 84.8213 84.5562 84.3399C86.0156 83.7322 87.5505 83.4313 89.032 83.0292C89.7829 82.8737 90.5438 82.7865 91.2906 82.6631C91.6655 82.606 92.0384 82.5488 92.4103 82.4916C92.7832 82.4425 93.1591 82.4445 93.532 82.4194C94.2778 82.3813 95.0186 82.3432 95.7544 82.3051C96.4891 82.2941 97.2188 82.3643 97.9436 82.3893C99.398 82.3974 100.801 82.6832 102.19 82.8797C102.891 82.9509 103.551 83.1866 104.223 83.339C104.887 83.5196 105.559 83.6559 106.202 83.8675C106.838 84.0992 107.468 84.3279 108.092 84.5545C108.405 84.6678 108.716 84.7811 109.024 84.8935C109.322 85.0339 109.617 85.1743 109.912 85.3137C110.499 85.5945 111.081 85.8733 111.656 86.148C112.238 86.4108 112.752 86.7859 113.294 87.0937C113.826 87.4207 114.363 87.7265 114.874 88.0605C115.364 88.4245 115.848 88.7845 116.327 89.1406C120.14 92.0198 122.938 95.4104 124.877 98.6566C126.801 101.916 128.02 104.992 128.613 107.593C128.765 108.243 128.983 108.841 129.053 109.429C129.146 110.014 129.233 110.561 129.314 111.069C129.389 111.577 129.482 112.045 129.527 112.476C129.552 112.908 129.575 113.301 129.596 113.653C129.64 114.346 129.674 114.879 129.698 115.252C129.723 115.61 129.746 115.794 129.746 115.794Z" fill="#263238"/>
<path d="M142.582 136.962C142.582 139.987 140.124 142.438 137.094 142.438C134.063 142.438 131.605 139.986 131.605 136.962C131.605 133.938 134.063 131.486 137.094 131.486C140.124 131.486 142.582 133.938 142.582 136.962Z" fill="white"/>
<path d="M142.583 136.961C142.598 136.961 142.605 136.841 142.607 136.609C142.613 136.379 142.584 136.035 142.488 135.604C142.307 134.756 141.774 133.489 140.502 132.495C139.872 132.008 139.07 131.591 138.138 131.417C137.213 131.249 136.165 131.27 135.161 131.643C134.157 131.994 133.198 132.668 132.514 133.607C131.811 134.533 131.413 135.73 131.402 136.96C131.412 138.192 131.81 139.388 132.513 140.315C133.197 141.253 134.157 141.928 135.161 142.279C136.165 142.652 137.213 142.673 138.138 142.505C139.07 142.332 139.872 141.914 140.502 141.428C141.774 140.432 142.307 139.167 142.487 138.318C142.582 137.888 142.612 137.544 142.606 137.313C142.605 137.082 142.598 136.961 142.583 136.961C142.538 136.958 142.559 137.449 142.335 138.279C142.114 139.093 141.558 140.284 140.329 141.2C139.72 141.648 138.956 142.027 138.077 142.176C137.205 142.319 136.222 142.288 135.289 141.93C134.356 141.593 133.467 140.959 132.835 140.081C132.185 139.216 131.819 138.105 131.809 136.961C131.82 135.817 132.185 134.708 132.836 133.842C133.467 132.966 134.356 132.331 135.289 131.994C136.222 131.636 137.204 131.604 138.077 131.748C138.956 131.898 139.72 132.276 140.329 132.723C141.558 133.639 142.114 134.83 142.335 135.644C142.558 136.474 142.538 136.964 142.583 136.961Z" fill="#263238"/>
<path d="M84.8918 118.453V123.028H81.2754V118.399L76.3984 110.271H80.2159L83.2484 115.337L86.2809 110.271H89.7878L84.8918 118.453Z" fill="#263238"/>
<path d="M100.906 120.239V123.027H90.6406V110.27H100.669V113.057H94.2209V115.209H99.9019V117.906H94.2209V120.239H100.906Z" fill="#263238"/>
<path d="M102.016 121.878L103.203 119.218C104.334 119.965 105.943 120.475 107.422 120.475C108.92 120.475 109.505 120.056 109.505 119.436C109.505 117.414 102.235 118.89 102.235 114.151C102.235 111.874 104.098 110.015 107.898 110.015C109.56 110.015 111.277 110.397 112.537 111.126L111.423 113.804C110.199 113.149 108.993 112.82 107.88 112.82C106.364 112.82 105.815 113.33 105.815 113.968C105.815 115.918 113.067 114.46 113.067 119.163C113.067 121.386 111.204 123.281 107.404 123.281C105.303 123.281 103.221 122.717 102.016 121.878Z" fill="#263238"/>
<path d="M259.161 69.6204C275.236 63.3085 283.128 45.1651 276.79 29.0959C270.451 13.0267 252.282 5.11687 236.207 11.4288C220.133 17.7406 212.24 35.8841 218.578 51.9532C224.917 68.0224 243.086 75.9323 259.161 69.6204Z" fill="white"/>
<path d="M235.223 69.1705C235.223 69.1705 235.379 69.2427 235.692 69.3661C236.016 69.4924 236.479 69.6719 237.082 69.9066C237.39 70.0249 237.731 70.1563 238.108 70.3007C238.492 70.4281 238.924 70.5284 239.386 70.6577C239.849 70.7831 240.349 70.9175 240.881 71.0609C241.411 71.2253 242.003 71.2665 242.614 71.3838C245.061 71.8652 248.149 71.9895 251.666 71.5773C255.177 71.1471 259.139 70.034 263.044 67.8578C263.529 67.582 264.021 67.3032 264.517 67.0214C264.996 66.7105 265.461 66.3655 265.941 66.0336C266.41 65.6856 266.924 65.3857 267.37 64.9866C267.822 64.5985 268.279 64.2054 268.741 63.8092C269.088 63.4793 269.657 62.9398 270.006 62.6108C270.03 62.5858 270.053 62.5607 270.077 62.5356C270.507 62.0863 270.941 61.633 271.378 61.1757C271.801 60.7054 272.171 60.1819 272.576 59.6795C272.959 59.162 273.409 58.6837 273.734 58.111C274.425 56.9958 275.197 55.8997 275.749 54.6572C276.043 54.0465 276.377 53.4477 276.643 52.8129C276.975 51.9334 277.31 51.0459 277.649 50.1494C277.682 50.0611 277.712 49.9698 277.737 49.8776C277.827 49.5376 277.918 49.1956 278.009 48.8527C278.183 48.1657 278.393 47.4808 278.541 46.7788C278.751 45.3577 279.066 43.9276 279.09 42.4484C279.24 40.9762 279.133 39.483 279.077 37.9727C279.013 37.2206 278.882 36.4704 278.787 35.7123C278.727 35.3352 278.702 34.9501 278.612 34.577L278.346 33.4528C278.109 32.2344 277.703 31.053 277.292 29.8626C277.06 29.2769 276.828 28.6913 276.596 28.1056L275.765 26.2644L275.47 25.7429L274.873 24.6989L274.273 23.6509L273.576 22.6581L272.873 21.6633L272.519 21.1649L272.121 20.6995C271.246 19.7769 269.82 18.2726 268.946 17.349C268.867 17.2748 268.79 17.2006 268.711 17.1264C266.221 14.9281 263.36 13.0869 260.244 11.6879C257.091 10.3701 253.788 9.54077 250.478 9.22487C250.381 9.21885 250.282 9.21384 250.185 9.20782C248.903 9.1998 246.814 9.18676 245.532 9.17773L244.919 9.20581L244.313 9.28905L243.104 9.45452L241.901 9.624L240.723 9.9028L239.551 10.1806L238.968 10.322L237.049 10.9748C236.461 11.2055 235.875 11.4362 235.287 11.6668C234.135 12.1793 232.993 12.6897 231.94 13.3486L230.935 13.9232C230.599 14.1118 230.3 14.3575 229.984 14.5711C229.364 15.0194 228.725 15.4365 228.13 15.9029C226.986 16.8937 225.819 17.8344 224.842 18.9495C223.775 19.9775 222.944 21.1839 222.046 22.3081C221.633 22.8958 221.274 23.5155 220.89 24.1122C220.701 24.4131 220.513 24.712 220.326 25.0108C220.276 25.09 220.23 25.1733 220.188 25.2575C219.761 26.117 219.34 26.9694 218.922 27.8118C218.64 28.4386 218.429 29.0914 218.181 29.7222C217.649 30.9738 217.374 32.2855 217.029 33.5501C216.831 34.1779 216.788 34.8328 216.671 35.4656C216.58 36.1034 216.449 36.7302 216.393 37.36C216.357 37.9958 216.32 38.6266 216.285 39.2513C216.28 39.7528 216.271 40.5691 216.266 41.0705C216.266 41.0735 216.266 41.0765 216.266 41.0795C216.291 41.6873 216.315 42.289 216.34 42.8847C216.352 43.4814 216.484 44.061 216.549 44.6407C216.634 45.2173 216.699 45.792 216.798 46.3535C216.931 46.9081 217.063 47.4567 217.192 47.9992C218.265 52.3316 220.156 55.979 222.237 58.8321C224.337 61.6772 226.536 63.8443 228.559 65.2975C229.063 65.6635 229.497 66.0667 229.98 66.3404C230.449 66.6313 230.888 66.903 231.296 67.1558C231.706 67.4035 232.075 67.6502 232.43 67.8427C232.793 68.0182 233.124 68.1787 233.419 68.3221C234.002 68.6009 234.449 68.8155 234.764 68.9659C235.065 69.1063 235.223 69.1705 235.223 69.1705C235.223 69.1705 235.075 69.0822 234.776 68.9278C234.467 68.7694 234.025 68.5447 233.45 68.2519C233.158 68.1045 232.831 67.939 232.472 67.7585C232.122 67.5609 231.757 67.3102 231.352 67.0585C230.948 66.8018 230.513 66.527 230.05 66.2321C229.574 65.9554 229.144 65.5482 228.647 65.1801C226.647 63.715 224.476 61.5448 222.406 58.7077C220.355 55.8626 218.496 52.2343 217.449 47.9341C217.322 47.3965 217.194 46.852 217.065 46.3014C216.968 45.7448 216.906 45.1752 216.823 44.6026C216.761 44.0279 216.633 43.4533 216.622 42.8616C216.6 42.2719 216.578 41.6762 216.555 41.0745C216.56 40.5962 216.569 39.8139 216.575 39.3356C216.577 39.3065 216.579 39.2774 216.58 39.2473C216.617 38.6336 216.655 38.0138 216.693 37.388C216.749 36.7643 216.882 36.1435 216.973 35.5127C217.092 34.8859 217.134 34.2381 217.332 33.6173C217.678 32.3657 217.952 31.069 218.483 29.8305C218.729 29.2067 218.938 28.5609 219.22 27.9411C219.636 27.1058 220.057 26.2614 220.481 25.4089C220.521 25.3277 220.567 25.2485 220.615 25.1723C220.801 24.8774 220.988 24.5816 221.176 24.2847C221.558 23.6961 221.912 23.0833 222.323 22.5027C223.213 21.3935 224.036 20.2011 225.094 19.1862C226.061 18.0851 227.217 17.1574 228.348 16.1787C228.937 15.7184 229.57 15.3062 230.183 14.8639C230.497 14.6533 230.792 14.4106 231.123 14.2251L232.119 13.6595C233.419 12.8462 234.858 12.2645 236.279 11.6197C237.019 11.369 237.761 11.1173 238.508 10.8635L239.069 10.673L239.646 10.5346L240.805 10.2618L241.969 9.98704L243.158 9.82056L244.353 9.6571L244.952 9.57486L245.558 9.54779C246.832 9.55681 248.908 9.57186 250.181 9.58088C250.268 9.5859 250.357 9.59091 250.444 9.59592C253.715 9.90882 256.978 10.7291 260.093 12.0309C263.173 13.4138 266 15.233 268.461 17.4031C268.534 17.4723 268.606 17.5415 268.678 17.6097C269.547 18.5243 270.963 20.0166 271.831 20.9312L272.224 21.3915L272.573 21.8839L273.27 22.8667L273.959 23.8475L274.552 24.8834L275.143 25.9144L275.435 26.4298L275.678 26.9684C276.003 27.6854 276.325 28.3984 276.647 29.1095C277.146 30.5857 277.7 32.0308 277.994 33.5341L278.258 34.6452C278.349 35.0143 278.373 35.3944 278.433 35.7674C278.529 36.5166 278.658 37.2587 278.724 38.0018C278.78 39.495 278.889 40.9712 278.744 42.4274C278.724 43.8905 278.412 45.3046 278.208 46.7116C278.062 47.4065 277.856 48.0845 277.685 48.7644C277.596 49.1034 277.507 49.4413 277.418 49.7783C277.395 49.8666 277.367 49.9548 277.335 50.04C277.001 50.9306 276.669 51.8131 276.342 52.6856C276.081 53.3144 275.75 53.9071 275.462 54.5128C274.918 55.7443 274.155 56.8304 273.475 57.9365C273.155 58.5051 272.71 58.9785 272.332 59.493C271.933 59.9904 271.568 60.5108 271.15 60.9772C270.718 61.4315 270.29 61.8818 269.865 62.328C269.653 62.5507 269.442 62.7733 269.232 62.9939C269.211 63.014 269.191 63.033 269.17 63.0531C268.5 63.6317 267.84 64.2024 267.191 64.764C266.751 65.1611 266.242 65.4589 265.779 65.8059C265.303 66.1369 264.844 66.4798 264.37 66.7897C263.879 67.0715 263.392 67.3493 262.912 67.6241C259.048 69.7973 255.122 70.9195 251.637 71.3667C248.146 71.796 245.074 71.6947 242.635 71.2374C242.025 71.1261 241.435 71.091 240.906 70.9325C240.374 70.7951 239.875 70.6668 239.412 70.5484C238.95 70.4251 238.518 70.3308 238.133 70.2095C237.755 70.0711 237.412 69.9457 237.104 69.8334C236.497 69.6148 236.031 69.4463 235.703 69.329C235.39 69.2186 235.223 69.1705 235.223 69.1705Z" fill="#263238"/>
<path d="M222.724 82.7491C218.989 82.0261 217.309 77.779 219.545 74.7072C220.67 73.1588 222.658 72.3766 224.539 72.7406C228.274 73.4637 229.954 77.7108 227.718 80.7825C226.593 82.3319 224.606 83.1132 222.724 82.7491Z" fill="white"/>
<path d="M221.603 82.4046C221.598 82.4166 221.698 82.4678 221.895 82.554C222.089 82.6443 222.392 82.7476 222.795 82.8248C223.585 82.9852 224.862 83.0003 226.181 82.2883C226.829 81.9332 227.481 81.4057 227.974 80.6797C228.459 79.9566 228.828 79.0591 228.881 78.0692C228.953 77.0875 228.732 76.0244 228.184 75.0968C227.653 74.1581 226.781 73.3779 225.734 72.9146C224.681 72.4683 223.513 72.364 222.462 72.6187C221.409 72.8524 220.479 73.418 219.809 74.1401C219.12 74.8541 218.715 75.7366 218.516 76.584C218.32 77.4395 218.38 78.2748 218.562 78.9889C218.94 80.437 219.824 81.3566 220.48 81.8239C220.812 82.0646 221.094 82.215 221.293 82.2953C221.493 82.3785 221.597 82.4166 221.603 82.4046C221.622 82.3675 221.196 82.204 220.571 81.7076C219.959 81.2192 219.148 80.3076 218.821 78.9257C218.664 78.2437 218.624 77.4545 218.821 76.6542C219.021 75.86 219.411 75.0376 220.061 74.3777C220.693 73.7098 221.564 73.1894 222.545 72.9768C223.523 72.7451 224.604 72.8454 225.584 73.2586C226.556 73.6908 227.368 74.4108 227.865 75.2813C228.38 76.1408 228.592 77.1306 228.534 78.0472C228.495 78.9708 228.16 79.8172 227.714 80.5052C227.263 81.1961 226.657 81.7046 226.051 82.0566C224.815 82.7616 223.594 82.7937 222.818 82.6804C222.027 82.565 221.617 82.3655 221.603 82.4046Z" fill="#263238"/>
<path d="M238.829 35.2734H243.565C243.565 35.2734 243.565 31.3051 247.698 31.2339C249.844 31.1968 250.958 32.5998 251.41 33.6749C251.935 34.9224 251.776 36.3455 251.073 37.5018C250.269 38.8235 248.508 40.025 245.316 39.4634V50.1187H249.999V43.8769C249.999 43.8769 256.568 42.1831 256.568 34.9606C256.568 28.0499 250.357 26.4453 247.697 26.4453C245.666 26.4463 238.74 26.9367 238.829 35.2734Z" fill="#263238"/>
<path d="M250.058 52.3145H245.305V56.7441H250.058V52.3145Z" fill="#263238"/>
<path d="M197.398 46.8646C199.1 27.7144 184.89 10.8081 165.66 9.10347C146.43 7.39883 129.462 21.5413 127.76 40.6916C126.059 59.8418 140.269 76.7481 159.499 78.4527C178.729 80.1574 195.697 66.0149 197.398 46.8646Z" fill="white"/>
<path d="M185.026 70.4861C185.026 70.4861 185.176 70.3668 185.455 70.1181C185.744 69.8584 186.154 69.4873 186.689 69.0049C186.96 68.7582 187.263 68.4824 187.595 68.1796C187.914 67.8607 188.229 67.4806 188.589 67.0865C188.945 66.6873 189.329 66.2581 189.738 65.7988C190.166 65.3535 190.503 64.7849 190.925 64.2344C192.627 62.0401 194.291 59.0265 195.633 55.32C196.954 51.6104 197.817 47.1126 197.588 42.1405C197.555 41.5197 197.521 40.8919 197.487 40.2561C197.414 39.6243 197.302 38.9905 197.209 38.3467C197.095 37.7068 197.052 37.045 196.875 36.4031C196.712 35.7593 196.548 35.1084 196.381 34.4516C196.225 33.9411 195.97 33.1047 195.813 32.5943C195.8 32.5582 195.787 32.5221 195.774 32.486C195.539 31.8341 195.302 31.1763 195.062 30.5124C194.803 29.8565 194.464 29.2267 194.164 28.5738C193.837 27.934 193.584 27.2481 193.173 26.6383C192.402 25.3948 191.691 24.0801 190.725 22.9097C190.261 22.313 189.829 21.6822 189.327 21.1006C188.613 20.3314 187.893 19.5552 187.165 18.7709C187.093 18.6937 187.016 18.6185 186.937 18.5483C186.641 18.2886 186.346 18.0278 186.048 17.7661C185.448 17.2506 184.868 16.7 184.24 16.2026C182.923 15.284 181.652 14.2571 180.184 13.4949C178.787 12.6114 177.24 11.9736 175.703 11.2766C174.919 10.9657 174.103 10.721 173.297 10.4382C172.89 10.3099 172.493 10.1424 172.075 10.0461L170.818 9.75027C169.481 9.37721 168.098 9.19268 166.703 9.00816C166.001 8.94698 165.3 8.88581 164.599 8.82463L162.342 8.73438L161.674 8.76747L160.332 8.84068L158.985 8.91489L157.644 9.11345L156.298 9.31804L155.624 9.42133L154.96 9.5848C153.601 9.99496 151.384 10.6639 150.026 11.075C149.913 11.1162 149.8 11.1563 149.687 11.1974C146.247 12.5803 142.978 14.5088 140.025 16.9137C137.136 19.3947 134.658 22.2679 132.692 25.4068C132.638 25.5011 132.583 25.5954 132.529 25.6906C131.882 26.9623 130.826 29.0352 130.179 30.3068L129.901 30.9306L129.681 31.5754L129.244 32.8621L128.814 34.1447L128.505 35.4554L128.198 36.7612L128.048 37.412L127.744 39.6484C127.681 40.3484 127.619 41.0474 127.557 41.7463C127.494 43.1483 127.435 44.5393 127.57 45.9172L127.642 47.2039C127.663 47.6321 127.76 48.0513 127.815 48.4735C127.954 49.3139 128.053 50.1583 128.222 50.9826C128.642 52.6153 129.001 54.2469 129.628 55.7743C130.124 57.3498 130.916 58.7788 131.591 60.233C131.973 60.938 132.414 61.6039 132.818 62.2838C133.025 62.6218 133.231 62.9587 133.435 63.2937C133.49 63.3829 133.549 63.4712 133.613 63.5544C134.26 64.4068 134.901 65.2523 135.535 66.0876C136.022 66.6813 136.569 67.2168 137.076 67.7774C138.062 68.9317 139.236 69.8594 140.329 70.8341C140.858 71.3436 141.492 71.7126 142.066 72.1459C142.658 72.554 143.22 72.9983 143.822 73.3663C144.44 73.7204 145.052 74.0703 145.658 74.4183C146.157 74.6741 146.969 75.0893 147.467 75.345C147.47 75.346 147.473 75.348 147.476 75.349C148.097 75.6278 148.711 75.9026 149.319 76.1753C149.922 76.4612 150.567 76.6186 151.178 76.8432C151.797 77.0468 152.405 77.2685 153.015 77.449C153.636 77.5934 154.25 77.7368 154.856 77.8782C159.723 78.9713 164.313 78.9091 168.204 78.2603C172.096 77.5894 175.36 76.4802 177.822 75.1925C178.439 74.8736 179.06 74.643 179.573 74.299C180.098 73.9771 180.588 73.6752 181.045 73.3954C181.497 73.1106 181.927 72.8669 182.297 72.6092C182.654 72.3354 182.979 72.0867 183.27 71.8631C183.84 71.4218 184.277 71.0839 184.585 70.8462C184.882 70.6125 185.026 70.4861 185.026 70.4861C185.026 70.4861 184.864 70.5904 184.561 70.8101C184.248 71.0397 183.804 71.3667 183.223 71.7929C182.929 72.0105 182.602 72.2532 182.241 72.5199C181.868 72.7707 181.436 73.0083 180.981 73.2861C180.524 73.5599 180.032 73.8547 179.506 74.1696C178.991 74.5056 178.371 74.7302 177.754 75.0421C175.292 76.3017 172.038 77.3808 168.169 78.0256C164.301 78.6484 159.746 78.6885 154.923 77.5864C154.322 77.444 153.714 77.3006 153.099 77.1541C152.494 76.9726 151.894 76.75 151.281 76.5464C150.676 76.3218 150.036 76.1633 149.44 75.8785C148.839 75.6067 148.233 75.3319 147.62 75.0541C147.145 74.8105 146.367 74.4113 145.891 74.1676C145.863 74.1516 145.834 74.1345 145.806 74.1185C145.211 73.7755 144.61 73.4295 144.003 73.0795C143.408 72.7125 142.853 72.2712 142.267 71.8651C141.7 71.4348 141.073 71.0688 140.551 70.5624C139.471 69.5946 138.312 68.674 137.339 67.5287C136.837 66.9721 136.296 66.4416 135.817 65.853C135.189 65.0216 134.554 64.1822 133.914 63.3348C133.853 63.2546 133.795 63.1703 133.743 63.0841C133.541 62.7521 133.338 62.4182 133.135 62.0832C132.737 61.4103 132.301 60.7504 131.925 60.0525C131.26 58.6124 130.478 57.1983 129.991 55.6399C129.372 54.1286 129.021 52.515 128.607 50.9004C128.441 50.0851 128.344 49.2497 128.208 48.4183C128.154 48.0011 128.059 47.586 128.038 47.1628L127.969 45.8901C127.804 44.1893 127.941 42.4684 128.005 40.7315C128.124 39.87 128.242 39.0045 128.361 38.1351L128.45 37.4822L128.599 36.8384L128.903 35.5487L129.209 34.253L129.636 32.9864L130.069 31.7158L130.287 31.078L130.562 30.4622C131.206 29.1996 132.257 27.1398 132.901 25.8772C132.95 25.7919 132.998 25.7077 133.048 25.6224C134.993 22.5226 137.44 19.6845 140.296 17.2316C143.215 14.8558 146.443 12.9504 149.841 11.5825C149.947 11.5444 150.051 11.5063 150.157 11.4692C151.505 11.061 153.703 10.3951 155.051 9.98694L155.707 9.82448L156.374 9.72319L157.704 9.51961L159.028 9.32205L160.36 9.24784L161.686 9.17363L162.346 9.14053L163.006 9.16661C163.884 9.2017 164.759 9.2358 165.629 9.2699C167.354 9.51058 169.076 9.67806 170.725 10.1364L171.968 10.4272C172.383 10.5215 172.775 10.6869 173.178 10.8133C173.974 11.0921 174.781 11.3328 175.557 11.6386C177.078 12.3276 178.608 12.9544 179.991 13.8259C181.445 14.576 182.703 15.5909 184.008 16.4965C184.63 16.9879 185.205 17.5314 185.8 18.0399C186.095 18.2986 186.388 18.5553 186.681 18.8121C186.757 18.8793 186.831 18.9505 186.901 19.0257C187.624 19.8029 188.342 20.5721 189.052 21.3332C189.549 21.9079 189.978 22.5316 190.44 23.1213C191.4 24.2776 192.105 25.5773 192.872 26.8068C193.281 27.4085 193.533 28.0885 193.858 28.7203C194.157 29.3661 194.494 29.9889 194.754 30.6367C194.993 31.2936 195.229 31.9444 195.463 32.5893C195.581 32.9112 195.698 33.2321 195.814 33.552C195.823 33.5821 195.833 33.6132 195.842 33.6433C196.087 34.598 196.328 35.5397 196.566 36.4673C196.744 37.1031 196.788 37.758 196.904 38.3918C196.997 39.0296 197.112 39.6584 197.185 40.2842C197.221 40.914 197.258 41.5367 197.293 42.1515C197.538 47.0805 196.703 51.5492 195.412 55.2407C194.1 58.9292 192.466 61.9378 190.793 64.1361C190.377 64.6876 190.048 65.2583 189.626 65.7045C189.223 66.1659 188.846 66.5981 188.496 67.0002C188.142 67.3984 187.831 67.7815 187.519 68.1034C187.192 68.4112 186.896 68.69 186.629 68.9408C186.108 69.4362 185.707 69.8162 185.426 70.083C185.157 70.3447 185.026 70.4861 185.026 70.4861Z" fill="#E0E0E0"/>
<path d="M192.37 89.6988C189.784 93.0564 184.699 92.6091 182.742 88.8524C181.756 86.959 181.966 84.5913 183.268 82.8995C185.853 79.5419 190.938 79.9892 192.895 83.7459C193.881 85.6393 193.672 88.007 192.37 89.6988Z" fill="white"/>
<path d="M191.467 90.643C191.476 90.654 191.577 90.5798 191.762 90.4273C191.949 90.2789 192.203 90.0282 192.481 89.6662C193.036 88.9592 193.688 87.6966 193.633 86.0278C193.601 85.2065 193.399 84.2939 192.919 83.4415C192.437 82.5981 191.724 81.7827 190.761 81.2362C189.815 80.6756 188.641 80.3647 187.441 80.4479C186.238 80.5081 185.022 80.9875 184.037 81.7978C183.065 82.6241 182.379 83.7343 182.109 84.9066C181.818 86.0719 181.919 87.2794 182.307 88.3063C182.678 89.3483 183.359 90.1917 184.107 90.8114C184.865 91.4332 185.729 91.7902 186.534 91.9657C188.17 92.3107 189.531 91.8905 190.325 91.4693C190.731 91.2597 191.023 91.0531 191.202 90.8947C191.387 90.7392 191.477 90.654 191.467 90.643C191.439 90.6058 191.063 90.9478 190.255 91.3219C189.461 91.6879 188.145 92.0399 186.6 91.6759C185.839 91.4914 185.031 91.1384 184.329 90.5427C183.634 89.948 183.007 89.1487 182.671 88.1729C182.319 87.2112 182.232 86.085 182.509 85.0019C182.766 83.9128 183.405 82.8859 184.308 82.1167C185.224 81.3655 186.349 80.9163 187.468 80.8561C188.585 80.7729 189.68 81.0547 190.568 81.5691C191.472 82.0685 192.151 82.8257 192.616 83.6109C193.081 84.4052 193.289 85.2616 193.338 86.0409C193.427 87.6224 192.849 88.8539 192.35 89.5699C191.839 90.299 191.436 90.6089 191.467 90.643Z" fill="#E0E0E0"/>
<path d="M151.864 38.0657H157.147C157.147 38.0657 157.147 33.6401 161.757 33.5609C164.151 33.5198 165.392 35.0842 165.897 36.2837C166.483 37.6756 166.305 39.2621 165.521 40.5528C164.624 42.027 162.661 43.3668 159.101 42.741V54.6259H164.325V47.664C164.325 47.664 171.651 45.7747 171.651 37.7187C171.651 30.0108 164.723 28.2207 161.758 28.2207C159.49 28.2197 151.765 28.7663 151.864 38.0657Z" fill="#E0E0E0"/>
<path d="M164.387 57.0732H159.086V62.0133H164.387V57.0732Z" fill="#E0E0E0"/>
<path d="M93.5205 187.35H98.8035C98.8035 187.35 98.8035 182.924 103.413 182.845C105.807 182.804 107.049 184.368 107.553 185.568C108.138 186.96 107.961 188.546 107.177 189.837C106.281 191.311 104.318 192.651 100.757 192.025V203.91H105.981V196.948C105.981 196.948 113.308 195.059 113.308 187.003C113.308 179.295 106.38 177.505 103.414 177.505C101.145 177.503 93.42 178.05 93.5205 187.35Z" fill="#E0E0E0"/>
<path d="M106.043 206.357H100.742V211.297H106.043V206.357Z" fill="#E0E0E0"/>
</svg>
