<svg width="24" height="24" viewBox="0 0 24 24" fill="none" xmlns="http://www.w3.org/2000/svg">
<g id="Frame 1261152837">
<path id="Union" fill-rule="evenodd" clip-rule="evenodd" d="M13.3969 0.663239H5.68874L5.87415 0.772127C5.98534 0.837431 5.98534 1.00069 5.87415 1.066L4.78241 1.70716C4.67122 1.77247 4.53222 1.69084 4.53222 1.56023V0.663239H3.5163C3.03896 0.663239 2.65201 1.05686 2.65201 1.54242V22.4576C2.65201 22.9431 3.03896 23.3368 3.5163 23.3368H19.2403C19.7177 23.3368 20.1046 22.9431 20.1046 22.4576V19.1105H9.77862C9.59438 19.1105 9.44503 18.9586 9.44503 18.7712V12.3239C9.44503 12.1365 9.59438 11.9846 9.77862 11.9846H20.1046V7.44987H15.2392C14.2217 7.44987 13.3969 6.61084 13.3969 5.57584V0.663239ZM20.7566 11.9846V7.11825L13.7229 0H3.5163C2.67887 0 2 0.690563 2 1.54242V22.4576C2 23.3094 2.67887 24 3.5163 24H19.2403C20.0778 24 20.7566 23.3094 20.7566 22.4576V19.1105H21.6664C21.8507 19.1105 22 18.9586 22 18.7712V12.3239C22 12.1365 21.8507 11.9846 21.6664 11.9846H20.7566ZM19.5045 6.78663L14.0489 1.26549V5.57584C14.0489 6.24454 14.5818 6.78663 15.2392 6.78663H19.5045ZM5.55572 13.5968C5.44453 13.5315 5.44453 13.3682 5.55572 13.3029L6.64746 12.6618C6.75865 12.5965 6.89765 12.6781 6.89765 12.8087V14.091C6.89765 14.2217 6.75865 14.3033 6.64746 14.238L5.55572 13.5968ZM5.87415 12.1397C5.98534 12.205 5.98534 12.3683 5.87415 12.4336L4.78241 13.0748C4.67122 13.1401 4.53222 13.0584 4.53222 12.9278V11.6455C4.53222 11.5149 4.67122 11.4333 4.78241 11.4986L5.87415 12.1397ZM5.87415 10.1817C5.98534 10.1164 5.98534 9.95311 5.87415 9.88781L4.78241 9.24664C4.67122 9.18133 4.53222 9.26296 4.53222 9.39357V10.6759C4.53222 10.8065 4.67122 10.8882 4.78241 10.8228L5.87415 10.1817ZM5.87415 7.58961C5.98534 7.65491 5.98534 7.81817 5.87415 7.88348L4.78241 8.52464C4.67122 8.58995 4.53222 8.50832 4.53222 8.37771V7.09537C4.53222 6.96476 4.67122 6.88313 4.78241 6.94844L5.87415 7.58961ZM5.87415 5.61612C5.98534 5.55082 5.98534 5.38756 5.87415 5.32226L4.78241 4.68108C4.67122 4.61578 4.53222 4.69741 4.53222 4.82802V6.11036C4.53222 6.24097 4.67122 6.3226 4.78241 6.25729L5.87415 5.61612ZM5.87415 3.0549C5.98534 3.12021 5.98534 3.28347 5.87415 3.34877L4.78241 3.98994C4.67122 4.05524 4.53222 3.97362 4.53222 3.84301V2.56067C4.53222 2.43006 4.67122 2.34843 4.78241 2.41373L5.87415 3.0549ZM5.55572 11.0292C5.44453 11.0945 5.44453 11.2578 5.55572 11.3231L6.64746 11.9642C6.75865 12.0295 6.89765 11.9479 6.89765 11.8173V10.535C6.89765 10.4044 6.75865 10.3227 6.64746 10.388L5.55572 11.0292ZM5.55572 9.04932C5.44453 8.98402 5.44453 8.82076 5.55572 8.75545L6.64746 8.11428C6.75865 8.04898 6.89765 8.13061 6.89765 8.26122V9.54356C6.89765 9.67417 6.75865 9.7558 6.64746 9.69049L5.55572 9.04932ZM5.55572 6.48171C5.44453 6.54702 5.44453 6.71028 5.55572 6.77558L6.64746 7.41675C6.75865 7.48205 6.89765 7.40042 6.89765 7.26982V5.98748C6.89765 5.85687 6.75865 5.77524 6.64746 5.84054L5.55572 6.48171ZM5.55572 4.50184C5.44453 4.43653 5.44453 4.27327 5.55572 4.20797L6.64746 3.5668C6.75865 3.50149 6.89765 3.58312 6.89765 3.71373V4.99607C6.89765 5.12668 6.75865 5.20831 6.64746 5.14301L5.55572 4.50184ZM5.55572 1.93423C5.44453 1.99953 5.44453 2.16279 5.55572 2.2281L6.64746 2.86926C6.75865 2.93457 6.89765 2.85294 6.89765 2.72233V1.43999C6.89765 1.30938 6.75865 1.22775 6.64746 1.29305L5.55572 1.93423ZM4.00152 18.6247L4.50948 15.0848H6.85974L7.37528 18.6247L5.68461 19.9974L4.00152 18.6247ZM5.67703 19.365L6.81425 18.4319L6.72328 17.8766H4.63836L4.55497 18.4319L5.67703 19.365ZM11.9469 13.9434H14.4337V14.5296L12.7399 16.5656H14.464V17.1517H11.8105V16.5656L13.4993 14.5296H11.9469V13.9434ZM16.0106 13.9434H15.298V17.1517H16.0106V13.9434ZM17.8453 13.9434H17.1327V17.1517H17.8453V16.0026H18.6755C19.2345 16.0026 19.6876 15.5416 19.6876 14.973C19.6876 14.4044 19.2345 13.9434 18.6755 13.9434H17.8453ZM17.8453 14.491V15.4396H18.5239C18.7814 15.4396 18.9901 15.2272 18.9901 14.9653C18.9901 14.7034 18.7814 14.491 18.5239 14.491H17.8453Z" fill="black"/>
</g>
</svg>
