<svg width="60" height="60" viewBox="0 0 60 60" fill="none" xmlns="http://www.w3.org/2000/svg">
<g clip-path="url(#clip0_1935_29668)">
<g clip-path="url(#clip1_1935_29668)">
<path d="M18.5455 4.09091H4.09092C2.59092 4.09091 1.36365 5.31818 1.36365 6.81818V17.7273H58.6364V12.2727C58.6364 10.7727 57.4091 9.54545 55.9091 9.54545H29.1818C27.9546 9.54545 26.7273 9.13636 25.7727 8.31818L21.9546 5.31818C21 4.5 19.7727 4.09091 18.5455 4.09091Z" fill="#F19920"/>
<path d="M60 19.0909V53.1818C60 54.6818 58.7727 55.9091 57.2727 55.9091H2.72727C1.22727 55.9091 0 54.6818 0 53.1818V19.0909C0 18.2727 0.545455 17.7273 1.36364 17.7273H58.6364C59.4545 17.7273 60 18.2727 60 19.0909Z" fill="#FFCB5B"/>
<path d="M55.9091 17.7273V13.6364C55.9091 12.8182 55.3637 12.2727 54.5455 12.2727H5.45458C4.6364 12.2727 4.09094 12.8182 4.09094 13.6364V17.7273H55.9091Z" fill="white"/>
<path d="M57.2728 27V53.1818H4.09093C3.27275 53.1818 2.72729 53.7273 2.72729 54.5455C2.72729 55.3636 3.27275 55.9091 4.09093 55.9091H57.2728C58.7728 55.9091 60 54.6818 60 53.1818V20.4545C58.2273 22.2273 57.2728 24.5455 57.2728 27Z" fill="#F7B84E"/>
<path d="M4.63637 19.0909C3.4091 19.0909 2.18183 18.5455 1.36365 17.7273H42.2727C41.4546 18.5455 40.2273 19.0909 39 19.0909H4.63637Z" fill="#FFDB6F"/>
<path d="M55.9091 17.7273H58.6364C58.0909 16.9091 57.2727 16.3636 56.4546 16.3636H55.9091V17.7273ZM4.09092 17.7273H1.36365C1.9091 16.9091 2.72728 16.3636 3.54547 16.3636H4.09092V17.7273Z" fill="#E78825"/>
<path d="M4.09094 16.3636H55.9091V17.7273H4.09094V16.3636Z" fill="#D1D9E1"/>
<path d="M21.1364 32.7273H38.8637C39.2728 32.7273 39.5455 33 39.5455 33.4091C39.5455 33.8182 39.2728 34.0909 38.8637 34.0909H21.1364C20.7273 34.0909 20.4546 33.8182 20.4546 33.4091C20.4546 33 20.7273 32.7273 21.1364 32.7273ZM23.8637 36.8182H36.1364C36.5455 36.8182 36.8182 37.0909 36.8182 37.5C36.8182 37.9091 36.5455 38.1818 36.1364 38.1818H23.8637C23.4546 38.1818 23.1819 37.9091 23.1819 37.5C23.1819 37.0909 23.4546 36.8182 23.8637 36.8182Z" fill="#F19920"/>
</g>
</g>
<defs>
<clipPath id="clip0_1935_29668">
<rect width="60" height="60" fill="white"/>
</clipPath>
<clipPath id="clip1_1935_29668">
<rect width="60" height="60" fill="white"/>
</clipPath>
</defs>
</svg>
