<svg width="598" height="108" viewBox="0 0 598 108" fill="none" xmlns="http://www.w3.org/2000/svg">
<path fill-rule="evenodd" clip-rule="evenodd" d="M2.44922 3.12176C1.57422 3.27658 0.703125 3.43093 0 2.85247V21.9027V86.0974V103.447C0.542969 102.619 1.30469 103.694 1.96875 104.043C2.49219 105.81 2.61328 104.231 2.97656 104.744C3.28516 104.737 3.52344 104.215 3.67188 102.945C4.87109 102.998 5.64844 99.9272 6.89844 101.721C7.32422 103.165 7.66016 103.853 7.85156 103.381C8.20312 104.25 8.45312 104.326 8.44141 102.19C8.78516 103.628 8.85156 102.71 8.91797 101.807C8.94141 101.515 8.96094 101.226 8.99219 101.018C9.05859 100.947 9.14844 101.08 9.24219 101.248C9.42188 101.574 9.61328 102.034 9.67969 101.424C9.97656 100.966 10.3555 101.43 10.8008 102.528C10.9609 101.106 11.3203 101.438 11.6172 101.084C12.4102 102.197 12.7227 98.4664 13.8086 99.6979C14.1602 98.6924 14.6758 99.0648 15.2031 99.4438C15.7812 99.8622 16.3711 100.288 16.7617 98.8772C17.2383 97.6723 17.9219 98.3001 18.6016 98.928C19.0898 99.3782 19.5781 99.828 19.9922 99.6029C21.0352 99.5459 22.0781 99.6437 23.1133 100.072C24.0508 99.6209 24.832 98.0651 25.9883 100.834C26.5625 99.5074 27.4375 100.846 28.1289 100.201C28.8984 100.308 29.7344 100.841 30.6562 102.084C31.332 100.896 32.5 104.379 33.2227 103.338C33.7344 103.528 34.2305 103.51 34.7148 103.37C35.0469 103.275 35.375 103.124 35.7031 102.945C35.9102 100.764 36.3828 101.181 36.9844 102.905C37.3594 102.338 37.9258 103.712 38.4414 104.572C39.2383 103.837 40.25 105.241 41.0195 104.145C41.9258 104.769 42.7383 104.384 43.5508 104.001C44.4219 103.588 45.293 103.175 46.2773 104.021C46.75 103.915 47.2148 103.756 47.6797 103.597C48.8984 103.181 50.1016 102.77 51.375 103.345C51.5469 103.338 51.7227 103.354 51.8945 103.369C52.5625 103.428 53.2227 103.488 53.7617 102.283C54.1445 101.762 54.5898 101.965 55.0391 102.308C55.4414 102.618 55.8516 103.042 56.2305 103.154C56.5898 103.12 56.9297 103.035 57.2617 102.952C57.875 102.797 58.4609 102.65 59.0586 102.857C59.5898 103.896 59.9844 103.449 60.3555 102.787C60.7266 102.122 61.0781 101.242 61.5156 101.412C61.8555 100.032 62.3359 100.351 62.8281 100.678C63.2578 100.96 63.6914 101.248 64.0469 100.44C64.5234 100.388 64.9961 100.074 65.4961 99.8541C65.9453 99.658 66.418 99.5368 66.9375 99.7434C67.8047 101.617 68.5117 101.177 69.2266 100.512C69.3945 99.8759 69.6016 99.7724 69.8086 99.6152C69.9688 99.4955 70.125 99.345 70.2617 98.9019C70.4648 98.3472 70.7383 98.6036 71.0117 98.8615C71.168 99.0083 71.3242 99.1555 71.4688 99.1536C72.1797 98.0518 73.0078 98.2351 73.8945 99.1674C74.7773 100.059 75.6133 100.329 76.3164 98.8952C77.3672 97.1988 78.6719 98.8159 79.8516 98.7774C80.5703 100.535 81.2148 101.286 81.6914 99.7387C82.0078 99.6774 82.3242 99.6347 82.6328 99.4675C82.8945 99.3255 83.1484 99.0938 83.3906 98.6844C84.1094 100.46 84.6016 99.0971 85.2578 100.011C85.4883 99.4276 85.7656 99.5278 86.043 99.628C86.3711 99.7482 86.6992 99.8679 86.9492 98.8135C87.1172 98.8867 87.2852 98.9456 87.4492 99.0045C87.8906 99.1612 88.332 99.317 88.7891 99.7387C88.9961 99.3896 89.2383 99.5568 89.4805 99.724C89.8594 99.9842 90.2383 100.244 90.4883 98.5709C90.7266 98.4588 90.9609 98.3025 91.1953 98.1463C92.0938 97.5512 92.9961 96.9542 94.0508 98.7774C94.3164 98.473 94.6289 98.9237 94.9414 99.3735C95.2812 99.8622 95.6211 100.35 95.8984 99.866C96.5078 100.142 96.9258 97.4576 97.5898 98.5571C98.4258 97.7635 99.2617 96.9134 100.195 97.6728C101.074 97.4529 102.07 99.2671 102.906 98.4963C103.793 98.4464 104.652 98.0356 105.566 98.4939C105.824 98.5224 106.086 98.6853 106.355 98.9085C106.551 99.0733 106.75 99.2714 106.949 99.4737C107.395 99.5008 107.855 99.8726 108.234 98.7228C109.066 97.8133 109.93 97.489 110.832 97.7725C111.711 97.7112 112.629 98.3871 113.551 99.1493C113.934 98.0741 114.387 98.3215 114.891 99.5098C115.211 100.017 115.531 100.523 115.82 100.459C115.965 100.427 116.102 100.251 116.227 99.8588C116.961 101.289 117.578 100.538 118.199 99.7867C118.406 99.5335 118.613 99.2804 118.824 99.1108C119.297 98.8278 119.797 99.0938 120.297 99.3597C120.695 99.5734 121.094 99.7871 121.48 99.7164C121.637 100.363 121.785 100.85 121.926 101.183C122.281 102.023 122.586 101.892 122.852 100.911C123.219 101.965 123.496 101.232 123.773 100.497C123.883 100.212 123.992 99.9268 124.105 99.7458C125.773 98.122 127.617 100.329 129.324 99.7206C130.195 100.448 131.02 100.142 131.844 99.837C132.723 99.5126 133.598 99.1887 134.523 100.109C135.352 99.2695 136.277 100.968 137.055 98.9679C137.664 98.4773 138.32 99.1678 138.977 99.856C139.215 100.107 139.453 100.358 139.688 100.551C140.328 99.8503 141.012 100.155 141.703 100.461C142.238 100.699 142.777 100.938 143.301 100.707C144.543 101.523 145.723 100.251 146.973 101.117C148.211 101.585 149.426 101.531 150.629 101.308C151.875 102.508 153 100.217 154.203 100.968C154.816 102.025 155.375 101.803 155.922 101.816C156.457 101.335 156.969 100.748 157.473 100.306C158.266 101.226 158.988 100.685 159.699 100.157C159.945 99.9724 160.191 99.7895 160.438 99.6708C160.973 98.5533 161.539 98.861 162.102 99.1669C162.492 99.3806 162.883 99.5938 163.262 99.3193C163.691 97.6481 164.211 99.6437 164.637 97.6956C164.875 97.3555 165.125 97.3688 165.379 97.5013C165.609 97.6234 165.848 97.8466 166.082 97.9881C167.035 97.0606 168.102 99.8432 169.102 97.1128C169.652 97.9995 170.152 95.8766 170.762 98.0494C171.301 96.8065 171.867 96.0466 172.488 96.902C172.715 97.0468 172.941 97.3935 173.168 97.7378C173.668 98.4963 174.156 99.2438 174.602 97.7977L174.734 97.8029C175.375 97.829 176 97.8547 176.598 96.8611C177.379 96.0803 178.16 96.504 178.922 96.9176C179.422 97.1898 179.914 97.4572 180.395 97.3736C181.148 97.4429 181.879 97.0995 182.598 97.1437C183.035 97.1708 183.465 97.3398 183.891 97.8295C184.457 98.5666 184.996 97.8409 185.551 99.2695C186.078 98.7162 186.605 98.8406 187.125 99.2671C187.406 101.209 187.66 101.113 187.91 100.977C187.965 100.81 188.02 100.592 188.07 100.375C188.258 99.5986 188.445 98.8316 188.656 100.415C189 99.714 189.355 100.425 189.703 100.974C189.844 101.198 189.984 101.395 190.125 101.458C190.781 104.136 191.391 103.286 191.984 102.455C192.285 102.031 192.586 101.612 192.887 101.669C193.793 103.986 194.816 104.578 195.926 102.81C197.051 103.351 198.27 103.986 199.539 103.805C199.828 103.664 200.121 104.057 200.418 104.453C200.77 104.924 201.125 105.399 201.48 104.989C201.879 103.943 202.281 104.144 202.688 104.346C202.945 104.475 203.207 104.605 203.469 104.411C204.141 104.331 204.809 104.885 205.477 103.648C205.645 103.979 205.809 103.586 205.977 103.224C206.145 102.854 206.312 102.516 206.48 103.016C206.645 103.598 206.809 103.774 206.973 103.95C207.141 104.129 207.309 104.308 207.477 104.914C207.863 104.71 208.246 105.153 208.625 105.591C208.895 105.902 209.16 106.211 209.426 106.284C210.066 106.535 210.695 106.29 211.309 104.674C212.531 104.701 213.68 104.887 214.723 104.104C215.617 102.832 216.293 104.241 216.949 103.091C217.016 102.178 217.07 102.975 217.125 103.795L217.184 104.581L217.219 104.782C217.285 105.19 217.348 105.593 217.426 104.429C217.465 105.121 217.512 104.715 217.559 104.257C217.598 103.896 217.637 103.503 217.672 103.589C217.723 102.962 217.766 102.931 217.809 102.776C217.848 102.648 217.887 102.435 217.93 101.725C218.258 102.116 218.617 100.574 218.988 102.02C219.207 101.066 219.43 100.946 219.66 100.822C219.879 100.705 220.105 100.584 220.344 99.7525C220.613 100.018 220.883 100.793 221.168 101.235C221.387 101.578 221.613 101.722 221.852 101.274C222.672 100.878 223.547 100.777 224.469 100.672C224.754 100.64 225.043 100.606 225.336 100.564C225.969 101.637 226.637 101.126 227.316 100.606C227.941 100.13 228.578 99.6447 229.207 100.365C229.371 99.8365 229.527 99.6128 229.684 99.4865C229.863 99.3421 230.043 99.3236 230.223 99.1241C230.391 99.5122 230.562 99.5991 230.738 99.6865C230.898 99.7658 231.059 99.8456 231.215 100.154C231.867 101.608 232.555 100.435 233.227 100.394C234.578 99.818 235.918 99.2899 237.176 100.566C237.816 100.482 238.441 100.51 239.031 101.651C239.309 103.07 239.598 103.437 239.902 103.045C240.078 102.764 240.246 102.819 240.418 102.572C240.543 102.394 240.672 102.062 240.805 101.34C240.863 101.685 240.91 102.677 240.961 103.217C240.996 103.56 241.035 103.721 241.082 103.417C241.18 103.787 241.289 103.436 241.395 103.408C241.484 103.976 241.582 104.163 241.684 104.09C241.789 104.015 241.902 103.654 242.02 103.15C242.176 105.415 242.387 104.966 242.609 103.898C242.738 103.976 242.883 103.367 243.027 102.758C243.102 102.452 243.172 102.146 243.242 101.927C243.52 101.875 243.801 101.74 244.09 101.59C244.449 101.402 244.816 101.191 245.188 101.086C245.336 101.147 245.488 101.177 245.641 101.208C246.156 101.31 246.68 101.413 247.184 102.753C247.496 102.608 247.801 102.942 248.105 103.285C248.484 103.712 248.867 104.155 249.273 103.719C250.004 103.127 250.758 102.157 251.461 103.222C251.516 103.467 251.574 103.569 251.633 103.653C251.75 103.826 251.871 103.919 251.965 105.034C252.055 106.179 252.172 106.244 252.301 105.841C252.371 105.628 252.445 105.282 252.52 104.896C252.711 104.288 252.883 104.469 253.051 104.651C253.238 104.852 253.426 105.054 253.645 104.188C253.762 104.437 253.871 105.11 253.984 105.489C254.039 105.672 254.094 105.786 254.156 105.751C254.281 106.144 254.426 105.675 254.57 105.205C254.629 105.018 254.688 104.832 254.742 104.698C255.152 103.306 255.52 103.397 255.895 103.206C256.328 102.898 256.746 103.182 257.156 103.49C257.465 103.72 257.77 103.964 258.082 103.986C258.387 103.876 258.707 103.313 259.02 102.852C259.469 102.196 259.906 101.747 260.285 103.109C260.992 103.424 261.664 104.481 262.383 103.712C262.734 103.666 263.094 103.359 263.445 103.079C263.789 102.809 264.129 102.564 264.453 102.61C265.027 102.193 265.566 102.349 266.09 102.501C266.809 102.71 267.504 102.911 268.215 101.608C268.516 101.108 268.809 100.861 269.129 99.884C269.305 100.3 269.508 99.9923 269.711 99.6803C269.816 99.5226 269.922 99.3635 270.023 99.2965C270.316 99.7306 270.621 99.9386 270.93 100.14C271.207 100.32 271.488 100.495 271.762 100.823C272.121 100.022 272.457 100.006 272.793 99.9885C273.082 99.9743 273.375 99.9595 273.688 99.4485C274.273 100.744 274.949 100.081 275.617 99.9814C276.113 100.092 276.633 99.79 277.16 99.4837C278.027 98.9793 278.914 98.463 279.746 99.7567C280.578 97.006 281.102 101.662 281.926 99.7273C282.402 97.2102 282.797 96.7818 283.102 98.3372C283.516 97.4439 283.871 97.9924 284.176 99.6846C284.969 98.5143 285.715 97.9406 286.387 98.5481C286.719 98.6649 287.035 99.0035 287.352 99.3379C287.688 99.6974 288.02 100.053 288.363 100.124C288.453 100.288 288.539 100.569 288.621 100.849C288.824 101.52 289.023 102.182 289.301 101.192C289.652 100.687 289.879 102.632 290.348 99.5596C290.711 98.6886 291.043 98.4417 291.34 98.7432C291.438 99.0463 291.547 99.0767 291.656 99.107C291.855 99.1621 292.055 99.2168 292.172 100.861C293.418 100.634 294.594 101.079 295.742 101.791C295.828 103.923 296.027 103.878 296.227 103.834C296.328 103.811 296.426 103.788 296.512 104.045C296.637 103.899 296.777 103.462 296.918 103.071C297.125 102.488 297.324 102.008 297.461 102.748C297.828 101.946 298.137 102.272 298.445 102.599C298.695 102.861 298.941 103.123 299.223 102.807C299.871 101.737 300.336 104.045 300.953 103.673C301.059 104.467 301.234 104.013 301.301 105.531C301.395 106.058 301.543 105.67 301.695 105.278L301.777 105.064C301.875 104.997 301.957 105.15 302.043 105.302C302.23 105.645 302.422 105.99 302.75 103.855C303.5 101.435 303.867 105.832 304.59 104.15C304.945 104.371 305.305 104.502 305.676 104.578C305.941 104.633 306.211 104.658 306.484 104.669C307.121 106.075 307.953 104.231 308.59 105.769C308.93 105.388 309.23 105.613 309.531 105.839C309.93 106.135 310.328 106.433 310.812 105.368C311.184 104.97 311.539 104.839 311.887 104.828C312.277 104.815 312.66 104.952 313.047 105.03C313.527 104.66 314.016 104.133 314.461 104.333C314.742 104.459 315.004 104.871 315.234 105.789C315.484 107.772 315.996 105.587 316.332 106.243C316.758 105.452 317.059 106.637 317.414 106.957C317.828 106.372 318.066 108.542 318.488 107.869C318.703 107.451 318.934 106.812 319.164 106.22C319.367 105.987 319.57 105.783 319.75 105.966C320.086 106.642 320.414 107.438 320.797 107.363C321.152 107.744 321.531 107.796 321.98 106.778C322.66 108.039 323.625 105.122 324.344 105.921C325.316 102.971 325.898 105.744 326.73 104.939C327 104.583 327.293 103.972 327.562 103.618C327.719 103.417 327.867 103.298 328.004 103.358C328.371 103.708 328.738 104.004 329.016 105.567C329.691 107.036 330.453 107.268 331.285 106.617C331.594 106.503 331.914 106.234 332.234 105.964C332.75 105.532 333.266 105.099 333.738 105.301C335.238 106.275 336.984 104.084 338.523 104.714C340.051 105.551 341.621 105.789 343.348 104.179C343.699 104.939 344.129 104.694 344.562 104.449C344.969 104.218 345.375 103.987 345.715 104.592C346.438 105.526 347.348 104.204 348.211 103.506C348.523 104.563 348.969 104.027 349.465 102.88C349.723 102.509 349.969 102.292 350.215 102.075C350.406 101.909 350.594 101.742 350.789 101.508C351.555 102.002 352.309 102.576 353.098 102.796C354.02 103.75 355.055 103.431 356.121 102.746C356.844 101.39 357.422 101.643 358 101.896C358.391 102.069 358.785 102.241 359.223 101.907C360.301 101.122 361.254 101.728 362.242 101.975C362.453 102.328 362.699 102.269 362.945 102.211C363.211 102.148 363.48 102.085 363.699 102.546C363.793 102.51 363.887 102.484 363.98 102.458C364.406 102.339 364.828 102.221 365.348 101.07C365.902 101.78 366.586 101.136 367.23 100.893C367.629 100.743 368.012 100.745 368.344 101.306C369.492 99.8071 370.312 101.723 371.441 100.422C372.574 99.0539 373.637 98.4645 374.512 99.7662C375.191 98.6084 375.715 99.051 376.238 99.4936C376.637 99.8332 377.035 100.173 377.508 99.7909C378.746 100.118 380.07 99.5435 381.363 99.2785C382.098 99.1275 382.82 99.0767 383.508 99.3488C384.129 99.4742 384.707 100.035 385.32 100.208C385.664 100.305 386.016 100.282 386.395 99.9952C387.039 98.7779 387.512 99.1697 387.984 99.5611C388.414 99.9144 388.84 100.267 389.391 99.4305C390.25 98.0024 390.852 98.9703 391.496 99.4746C391.746 99.6689 392 99.7947 392.281 99.6888C393.215 99.9885 394.41 97.8722 395.184 99.6029C395.457 99.3398 395.734 99.0349 395.988 98.9579C396.23 98.8834 396.449 99.0216 396.617 99.6143C396.984 100.619 397.406 101.116 397.918 100.795C398.398 100.744 399.043 99.222 399.473 99.639C399.695 100.353 400.031 100.065 400.34 100.044C400.508 100.031 400.668 100.1 400.797 100.464C401.98 101.979 403.184 102.959 404.668 101.381C405.945 101.596 406.969 103.789 408.441 102.131C409.199 101.104 409.93 100.338 410.367 102.034C410.625 101.454 410.719 102.243 410.832 102.907C410.91 103.36 410.992 103.754 411.137 103.619C411.23 104.392 411.469 103.949 411.707 103.505C411.879 103.18 412.055 102.855 412.172 103.002C413.086 100.705 413.57 102.056 414.215 102.084C414.758 101.563 415.152 102.314 415.547 103.066C415.684 103.331 415.824 103.596 415.969 103.805C416.691 102.81 417.289 102.884 417.895 102.958L418.07 102.98C418.652 103.717 419.594 101.614 419.992 104C420.109 105.839 420.402 106.288 420.766 106.204C420.91 106.098 421.07 105.893 421.23 105.687C421.492 105.345 421.754 105.002 421.961 105.111C422.73 104.662 423.598 103.567 424.211 104.569C424.691 104.536 425.148 104.612 425.602 104.687C425.996 104.752 426.387 104.817 426.781 104.808C427.656 104.59 428.324 105.816 429.332 104.272C430.152 104.703 431.055 104.326 431.945 103.955C432.703 103.64 433.449 103.329 434.125 103.521C435.059 102.224 435.914 101.465 436.594 101.975C437.418 101.417 438.207 101.09 438.746 102.599C439.449 102.921 440.117 103.472 440.93 103.002C441.527 102.752 442.176 102.155 442.801 101.787C443 101.668 443.199 101.573 443.391 101.521C444.266 100.653 445.141 99.8978 445.66 101.778C445.824 103.397 446.469 101.578 446.746 102.417C447.23 101.812 447.664 101.546 448.199 100.619C448.453 100.711 448.707 100.829 448.961 100.948C449.477 101.187 449.996 101.428 450.555 101.469C451.219 102.124 452.094 101.356 452.996 100.565L453.312 100.294C454.258 99.231 455.059 99.2082 455.809 99.5008C456.566 99.7458 457.242 100.562 458.062 100.403C458.215 100.153 458.27 100.579 458.312 101.094C458.344 101.449 458.367 101.847 458.41 102.097C458.594 101.518 458.648 101.809 458.703 102.1C458.758 102.398 458.812 102.695 459.008 102.061C459.445 101.796 460.168 99.5824 460.297 101.381C461.199 100.651 461.777 102.086 462.75 100.875C463.172 100.682 463.391 101.882 463.754 102.082C464.086 102.521 464.449 102.723 464.934 102.127C465.512 103.517 466.371 103.038 467.355 101.71C468.488 101.478 469.539 101.747 470.586 102.014C471.035 102.129 471.484 102.243 471.941 102.318C472.551 103.367 473.668 101.127 474.098 103.299C474.25 104.798 474.605 104.943 475.055 104.513C475.16 105.064 475.305 105.358 475.59 104.737C475.758 104.297 475.895 104.057 476.031 103.817C476.16 103.596 476.285 103.376 476.434 102.998C477.277 102.449 478.262 100.991 478.801 102.336L478.84 102.785C478.887 103.443 478.93 104.096 479.203 103.331C479.195 104.555 479.602 103.184 479.656 104.021C479.715 103.998 479.746 104.139 479.777 104.282C479.801 104.384 479.824 104.487 479.855 104.531C479.824 105.302 479.965 104.991 480.289 103.542C480.23 104.337 480.297 104.348 480.363 104.358C480.387 104.362 480.41 104.366 480.43 104.404C480.469 104.33 480.5 104.299 480.531 104.269C480.609 104.197 480.684 104.131 480.859 103.456C481.645 103.406 482.402 103.492 483.152 103.577C483.832 103.654 484.508 103.731 485.191 103.705C485.656 103.041 486.09 102.58 486.312 103.404C486.457 103.46 486.562 103.769 486.664 104.078C486.801 104.48 486.934 104.88 487.16 104.712C487.094 105.484 487.258 104.587 487.438 103.701C487.527 103.251 487.621 102.804 487.688 102.578C487.574 103.819 487.77 103.143 488.07 101.859C488.328 101.353 487.812 106.079 488.25 104.478C488.582 102.723 488.59 102.943 488.605 103.118C488.633 103.102 488.672 103.016 488.746 102.742C488.793 102.563 488.852 102.302 488.93 101.927C488.98 101.883 488.996 102.038 489.008 102.201C489.023 102.384 489.039 102.575 489.098 102.506C489.465 101.31 489.242 103.717 489.516 103.106C489.578 104.048 489.859 103.619 490.219 102.687C490.477 102.392 490.977 100.58 491.066 101.258C491.059 102.75 491.367 102.316 491.672 101.887C491.875 101.6 492.074 101.315 492.18 101.617C492.621 100.104 492.926 99.401 493.082 99.5848C492.898 101.823 493.477 99.4599 493.504 100.413C493.816 99.6504 493.805 100.832 493.742 102.308C493.871 102.1 493.91 102.422 493.973 102.587C494.039 102.754 494.133 102.763 494.367 101.904L494.426 101.827C494.875 101.285 495.32 100.741 495.594 101.297C495.684 103.027 496.098 102.862 496.613 102.17C497.129 100.297 497.262 100.705 497.297 101.714C497.406 102.286 497.375 103.714 497.781 102.587C498.117 101.811 498.324 101.816 498.539 101.821C498.77 101.826 499.008 101.832 499.414 100.864C499.633 100.899 499.789 101.292 499.945 101.683C500.18 102.258 500.414 102.83 500.836 102.263C501.348 102.417 501.984 101.853 502.609 101.296L502.633 101.277C503.309 98.9247 503.629 98.6164 503.836 98.9722C504.086 99.0809 504.113 100.464 504.457 100.007C504.844 99.4737 504.934 100.642 505.105 101.344C505.242 101.913 505.43 102.177 505.871 100.988C506.207 100.384 506.383 100.693 506.555 101.002C506.777 101.4 507 101.797 507.566 100.238C507.652 100.226 507.734 100.238 507.809 100.306C507.957 100.448 508.066 100.834 508.078 101.757C508.371 101.567 508.68 101.283 508.895 101.532C509.168 102.226 509.617 101.909 510.07 101.59C510.207 101.493 510.344 101.395 510.477 101.326C511.195 100.16 511.637 100.573 511.848 102.267L511.957 102.654C512.078 103.099 512.195 103.541 512.383 103.598C512.535 104.186 512.543 105.578 513.297 102.801C514.086 101.258 514.621 101.145 514.801 103.045C515.059 104.485 515.91 102.628 516.137 104.27C516.402 104.019 516.598 104.165 516.793 104.31C517.059 104.508 517.328 104.706 517.777 103.909C518.164 103.142 518.434 103.042 518.707 102.94C518.863 102.881 519.02 102.821 519.203 102.63C519.332 102.74 519.461 102.859 519.59 102.98C519.805 103.178 520.02 103.377 520.242 103.535C520.844 104.683 521.898 103.392 522.453 104.909C523.105 105.871 524.094 105.086 524.746 106.195C525.723 105.565 526.27 107.331 527.531 105.34C528.031 106.347 528.625 106.794 529.402 106.216C530.031 105.3 530.492 105.278 530.949 105.257C531.156 105.247 531.363 105.237 531.586 105.143C532.047 105.853 532.762 105.204 533.473 104.555L533.672 104.376C533.852 104.306 534.047 104.147 534.242 103.989C534.805 103.539 535.363 103.091 535.527 104.701C537.316 103.896 538.75 105.057 540.539 104.451C540.668 104.241 540.809 103.985 540.949 103.727C541.133 103.392 541.32 103.055 541.484 102.814C541.633 102.64 541.773 102.501 541.922 102.33C542.047 102.185 542.176 102.016 542.316 101.784C542.863 100.767 543.043 101.646 543.223 102.522L543.336 103.048C543.523 104.747 543.973 105.111 544.551 104.832C544.91 104.657 545.32 104.231 545.75 103.723C546.242 102.603 546.527 102.521 546.812 102.438C546.98 102.39 547.148 102.342 547.355 102.088C547.797 101.201 548.098 101.011 548.297 101.347C548.418 101.557 548.5 101.973 548.551 102.553C549.102 101.731 549.449 101.93 549.75 102.375C550.117 102.915 550.414 103.817 550.918 103.68C551.883 103.179 551.945 107.179 553.438 104.102C554.16 104.818 555.684 101.614 556.246 103.17C557.184 102.871 558.312 101.644 559.051 102.333C559.336 103.189 559.77 103.322 560.234 103.299C560.66 103.278 561.113 103.126 561.504 103.276C562.066 104.035 562.914 103.44 563.766 102.845C563.953 102.712 564.141 102.58 564.324 102.462C564.504 102.353 564.691 102.214 564.879 102.074C565.742 101.435 566.609 100.793 566.867 103.036C568.781 102.369 570.555 102.388 572.055 103.694C572.52 103.328 572.816 103.739 573.113 104.151C573.5 104.691 573.891 105.23 574.652 104.018C575.465 102.281 576.133 101.242 576.379 102.179C576.906 101.496 577.133 102.238 577.352 102.972L577.461 103.322C577.781 103.208 578.121 103.021 578.453 102.865C579.109 102.554 579.742 102.361 580.172 103.091C580.711 104.687 581.715 104.116 582.684 103.728C582.891 105.767 583.617 105.435 584.344 105.103C584.598 104.989 584.848 104.874 585.078 104.857C585.445 105.195 585.949 104.918 586.461 104.592C586.969 104.27 587.484 103.901 587.891 104.027C588.797 103.884 590.152 101.721 590.625 103.499C590.906 103.946 591.309 103.861 591.711 103.775C592.223 103.667 592.73 103.559 592.992 104.535C593.723 105.202 594.641 105.04 595.551 104.878C596.426 104.724 597.297 104.569 598 105.148V86.0974V21.9027V4.55318C597.668 5.05945 597.254 4.85429 596.832 4.53894C596.562 4.33852 596.289 4.09298 596.031 3.95715C595.707 2.86815 595.539 3.05004 595.371 3.22957C595.266 3.34165 595.164 3.45278 595.023 3.25616C594.852 3.25996 594.703 3.42381 594.578 3.7876C594.477 4.07683 594.395 4.49239 594.328 5.0547C593.848 5.03381 593.434 5.51301 593.031 5.98081C592.43 6.68132 591.852 7.35477 591.102 6.27906C590.676 4.83481 590.34 4.1476 590.148 4.6192C589.797 3.75056 589.547 3.67362 589.559 5.80984C589.215 4.37176 589.148 5.29027 589.082 6.1931C589.059 6.4847 589.039 6.77441 589.008 6.98243C588.938 7.05794 588.84 6.89884 588.738 6.71267C588.562 6.39162 588.383 5.99078 588.32 6.57637C588.023 7.03419 587.645 6.56972 587.199 5.47169C587.082 6.49753 586.863 6.61104 586.641 6.72739C586.555 6.77204 586.465 6.81763 586.383 6.91641C586.008 6.39209 585.742 6.94206 585.453 7.54189C585.125 8.21628 584.766 8.95384 584.191 8.30224C583.84 9.30766 583.324 8.93532 582.797 8.55633C582.219 8.13792 581.629 7.71191 581.238 9.12292C580.762 10.3278 580.078 9.69995 579.398 9.0721C578.91 8.62187 578.422 8.17212 578.008 8.39723C577.578 8.42098 577.148 8.41813 576.719 8.37633C576.105 8.31697 575.492 8.17924 574.887 7.928C574.691 8.02251 574.5 8.16594 574.312 8.30747C573.605 8.84128 572.926 9.35421 572.012 7.16575C571.723 7.83207 571.359 7.82637 570.98 7.73708C570.605 7.64827 570.215 7.47777 569.871 7.79882C569.102 7.69197 568.266 7.1591 567.344 5.91622C567.004 6.517 566.535 5.92382 566.062 5.32494C565.602 4.73935 565.133 4.1476 564.777 4.66242C563.918 4.34232 563.105 4.61255 562.297 5.0547C562.18 6.29141 561.977 6.69272 561.715 6.49468C561.512 6.34318 561.277 5.84213 561.016 5.09555C560.641 5.66213 560.074 4.28817 559.559 3.42856C559.191 3.76718 558.777 3.65177 558.363 3.53589C557.883 3.40006 557.395 3.26424 556.98 3.85504C555.102 2.55992 553.625 5.61037 551.723 3.97947C551.25 4.08491 550.785 4.24401 550.32 4.40263C549.102 4.81867 547.898 5.22995 546.625 4.65529C546.453 4.66194 546.277 4.64627 546.105 4.63107C545.438 4.5717 544.777 4.51234 544.238 5.71675C543.508 6.70792 542.566 5.08178 541.77 4.84574C541.41 4.87993 541.07 4.96542 540.738 5.04853C540.125 5.20336 539.539 5.34963 538.941 5.14304C538.41 4.10438 538.016 4.55128 537.645 5.21333C537.426 5.60609 537.215 6.07437 536.984 6.35648C536.828 6.55119 536.664 6.6571 536.484 6.58776C536.145 7.9679 535.664 7.64875 535.172 7.32247C534.742 7.03989 534.309 6.75209 533.953 7.56041C533.617 7.59698 533.281 7.7651 532.938 7.93798C532.359 8.22721 531.754 8.53068 531.062 8.25665C530.195 6.38355 529.488 6.82333 528.773 7.48775C528.621 8.06811 528.434 8.20536 528.242 8.34404C528.066 8.47369 527.891 8.60382 527.738 9.09822C527.535 9.65293 527.262 9.39647 526.988 9.13859C526.832 8.99184 526.676 8.84461 526.531 8.84651C525.82 9.94834 524.992 9.76502 524.105 8.83274C523.223 7.9413 522.387 7.67154 521.684 9.10487C520.984 10.2361 520.168 9.89419 519.355 9.55177C518.949 9.3808 518.543 9.20983 518.148 9.22265C517.43 7.46543 516.785 6.71457 516.309 8.2614C515.727 8.37491 515.137 8.42478 514.609 9.31574C514.191 8.28657 513.852 8.31174 513.512 8.33691C513.266 8.35496 513.02 8.37348 512.742 7.98927C512.512 8.57248 512.234 8.47227 511.957 8.37206C511.629 8.2519 511.301 8.13222 511.051 9.18656C510.625 9.00134 510.207 8.9073 509.785 8.67506C509.598 8.57153 509.406 8.44045 509.211 8.2614C509.004 8.61047 508.762 8.4433 508.52 8.27612C508.141 8.01586 507.762 7.75561 507.512 9.42924C506.367 9.96876 505.281 11.5246 503.949 9.22265C503.395 9.85763 502.633 7.20469 502.102 8.13412C501.492 7.85771 501.074 10.5425 500.41 9.44302C499.574 10.2366 498.738 11.0867 497.805 10.3273C497.324 10.448 496.805 9.95641 496.301 9.61494C495.883 9.33426 495.473 9.15569 495.094 9.50381C494.207 9.55415 493.348 9.96448 492.434 9.50618C491.988 9.45631 491.52 9.00276 491.051 8.52641C490.605 8.49934 490.145 8.12747 489.766 9.27727C488.934 10.1867 488.07 10.5111 487.168 10.2276C486.289 10.2889 485.371 9.61304 484.449 8.85078C484.203 9.53895 483.93 9.6857 483.633 9.3903C483.465 9.22408 483.289 8.91822 483.109 8.49032C482.629 7.72853 482.148 6.96865 481.773 8.14124C481.039 6.71124 480.422 7.4621 479.801 8.21343C479.594 8.46657 479.387 8.7197 479.176 8.88925C478.703 9.17231 478.203 8.90635 477.703 8.64039C477.305 8.42667 476.906 8.21296 476.52 8.28372C475.969 6.00693 475.52 5.71913 475.148 7.08881C474.641 5.62604 474.301 7.606 473.895 8.25428C472.934 9.19083 471.914 8.85363 470.895 8.51644C470.145 8.269 469.398 8.02204 468.676 8.27945C466.879 6.77821 465.273 9.6762 463.477 7.89143C463.141 8.23291 462.789 8.15407 462.438 8.07523C461.922 7.96077 461.406 7.84632 460.945 9.03221C460.43 9.44682 459.879 9.01796 459.328 8.45944C458.988 8.11655 458.648 7.72474 458.312 7.44928C457.672 8.14979 456.988 7.84537 456.297 7.53904C455.762 7.3011 455.223 7.06174 454.699 7.29303C454.086 6.88982 453.488 6.9962 452.887 7.10258C452.273 7.21182 451.66 7.32105 451.027 6.88269C449.789 6.41537 448.574 6.46951 447.371 6.69177C446.703 6.0492 446.07 6.40777 445.441 6.76444C444.898 7.07361 444.355 7.38089 443.797 7.03229C443.277 6.13896 442.797 6.15891 442.336 6.17838L442.078 6.18408C441.816 6.41822 441.562 6.678 441.312 6.93398C441.047 7.20279 440.785 7.4678 440.527 7.69434C439.457 6.45384 438.512 7.86911 437.562 8.32932C437.027 9.44682 436.461 9.13906 435.898 8.83321C435.508 8.61949 435.117 8.40625 434.738 8.68076C434.309 10.352 433.789 8.35639 433.363 10.3045C432.906 10.9576 432.41 10.3069 431.918 10.012C430.965 10.9395 429.898 8.15692 428.898 10.8873C428.672 10.523 428.453 10.6664 428.234 10.8113C427.918 11.0193 427.598 11.2311 427.238 9.95071C426.699 11.1936 426.133 11.9535 425.512 11.0981C425.285 10.9533 425.059 10.6066 424.832 10.2623C424.332 9.50381 423.844 8.75627 423.398 10.2024C422.711 10.1796 422.043 10.0756 421.402 11.139C420.59 11.9535 419.773 11.4572 418.98 11.0293C418.516 10.7771 418.055 10.5482 417.605 10.6265C417.215 10.5904 416.828 10.6659 416.449 10.7405C415.652 10.8963 414.875 11.0483 414.109 10.1706C413.543 9.43352 413.004 10.1597 412.449 8.73063C411.922 9.28392 411.395 9.15948 410.875 8.733C410.594 6.79198 410.34 6.88697 410.09 7.02327C409.91 7.57893 409.742 8.68836 409.559 8.48604C409.488 8.4091 409.418 8.14314 409.344 7.58558C409.117 8.04484 408.887 7.89761 408.656 7.58701C408.395 7.23034 408.133 6.65853 407.875 6.54217C407.219 3.86454 406.609 4.71418 406.016 5.5453C405.715 5.96941 405.414 6.3883 405.113 6.3313C404.207 4.01367 403.184 3.42191 402.074 5.19053C400.949 4.64864 399.73 4.01367 398.461 4.19509C398.09 4.37509 397.715 3.68502 397.336 3.22909C397.066 2.90329 396.793 2.6967 396.52 3.01157C395.867 4.72558 395.199 3.09089 394.531 3.58956C394.355 3.61046 394.18 3.58813 394.004 3.56581C393.508 3.50217 393.016 3.43853 392.523 4.35181C392.188 3.68264 391.855 5.97321 391.52 4.98442C391.188 3.80945 390.855 4.28817 390.523 3.08614C389.863 3.43521 389.211 1.89313 388.574 1.71645C388.266 1.59487 387.957 1.58917 387.652 1.79814C387.328 2.02136 387.008 2.49058 386.691 3.32645C385.977 3.31078 385.289 3.24049 384.633 3.34022C384.164 3.41146 383.711 3.56961 383.277 3.89589C382.383 5.16821 381.707 3.75958 381.051 4.90938C380.961 6.13658 380.895 4.27203 380.816 3.41954L380.781 3.21817C380.715 2.81021 380.652 2.40699 380.574 3.57151C380.504 2.33338 380.406 4.60542 380.328 4.41071C380.277 5.0623 380.23 5.07038 380.184 5.2423C380.148 5.3729 380.109 5.59849 380.07 6.27479C379.941 6.12329 379.809 6.26244 379.676 6.40539C379.461 6.63098 379.238 6.86607 379.012 5.97986C378.586 7.83492 378.148 6.53552 377.656 8.24763C377.5 8.09233 377.34 7.76273 377.18 7.42743C376.852 6.74544 376.512 6.03875 376.148 6.72597C375.57 7.00617 374.961 7.1382 374.328 7.22891C373.789 7.30633 373.234 7.35334 372.664 7.43598C372.031 6.36265 371.363 6.87367 370.684 7.39419C370.059 7.87101 369.422 8.35591 368.793 7.63545C368.555 8.41053 368.324 8.52973 368.094 8.64942C367.988 8.70403 367.883 8.75865 367.777 8.87595C367.609 8.48794 367.438 8.40103 367.262 8.31364C367.102 8.23433 366.941 8.15454 366.785 7.84632C366.473 7.14628 366.148 7.05509 365.824 7.1534C365.473 7.25931 365.121 7.58463 364.773 7.606C363.422 8.18209 362.082 8.71021 360.824 7.43361C360.184 7.51767 359.559 7.49012 358.969 6.34935C358.691 4.9298 358.402 4.56268 358.098 4.95497C358.004 5.10267 357.914 5.15776 357.824 5.21238C357.617 5.33634 357.418 5.45887 357.195 6.66043C357.102 6.09574 357.039 3.80043 356.918 4.5831C356.852 4.32807 356.777 4.41593 356.703 4.50379C356.672 4.54368 356.637 4.58358 356.605 4.59213C356.422 3.42856 356.207 3.86407 355.98 4.85049C355.824 2.58509 355.613 3.0339 355.391 4.102C355.195 3.98422 354.969 5.41755 354.758 6.07294C354.418 6.13706 354.07 6.3256 353.715 6.51415C353.418 6.67135 353.117 6.82855 352.812 6.91404C352.664 6.85277 352.512 6.82285 352.359 6.79246C351.844 6.69035 351.32 6.58681 350.816 5.24752C350.117 5.5719 349.461 3.49457 348.727 4.28153C348.312 4.61825 347.887 5.07798 347.473 5.21475C347.156 5.31829 346.844 5.23708 346.539 4.77782C346.477 4.49572 346.41 4.40263 346.344 4.30955C346.234 4.15472 346.125 3.99989 346.035 2.96598C345.898 1.21303 345.695 1.99096 345.48 3.10419C345.078 4.38553 344.77 2.16336 344.355 3.81182C344.285 3.66412 344.219 3.36777 344.152 3.07189C344.055 2.62736 343.957 2.18378 343.844 2.24932C343.672 1.70078 343.457 2.83205 343.258 3.30175C342.848 4.69424 342.48 4.60353 342.105 4.79397C341.348 5.33111 340.648 4.06591 339.918 4.01367C339.668 4.1039 339.41 4.49714 339.152 4.88943C338.645 5.65976 338.141 6.42676 337.715 4.89133C337.008 4.57598 336.336 3.51927 335.617 4.28817C335.293 4.33044 334.965 4.5907 334.641 4.84811C334.27 5.14589 333.902 5.44034 333.547 5.39048C332.973 5.80699 332.434 5.65074 331.91 5.49876C331.191 5.28979 330.496 5.08937 329.785 6.39257C329.484 6.89172 329.191 7.13868 328.871 8.11607C328.605 7.49012 328.281 8.50409 327.977 8.70356C327.672 8.25285 327.355 8.04626 327.035 7.83729C326.77 7.66489 326.5 7.49107 326.238 7.17715C325.879 7.97787 325.543 7.99449 325.207 8.01159C324.918 8.02584 324.625 8.04056 324.312 8.55158C323.859 7.54806 323.352 7.71999 322.836 7.89476C322.688 7.94558 322.535 7.99639 322.383 8.01871C321.074 7.72616 319.59 10.3226 318.254 8.24335C317.422 10.9941 316.898 6.33843 316.074 8.2728C315.793 9.75409 315.543 10.5121 315.32 10.5681C315.164 10.6071 315.023 10.3031 314.898 9.66291C314.484 10.5562 314.129 10.0077 313.824 8.31554C313.031 9.48576 312.285 10.0595 311.613 9.45204C311.281 9.33521 310.965 8.99659 310.648 8.66224C310.312 8.30272 309.98 7.94748 309.637 7.87576C309.547 7.71191 309.461 7.43076 309.379 7.1515C309.176 6.48043 308.977 5.81791 308.699 6.80765C308.543 7.03467 308.41 6.76824 308.27 6.68275C308.094 6.57732 307.91 6.74591 307.652 8.44045C307.289 9.31146 306.957 9.55842 306.66 9.25684C306.387 8.40863 306.012 9.69663 305.828 7.13868C305.188 7.25551 304.562 7.19424 303.953 7.01045C303.379 6.8371 302.816 6.55452 302.258 6.20877C302.129 3.00208 301.742 4.72131 301.488 3.95478C301.328 4.1438 301.141 4.81534 300.965 5.24847C300.801 5.65216 300.648 5.8483 300.539 5.2518C300.172 6.05442 299.863 5.72815 299.555 5.40093C299.305 5.13924 299.059 4.87708 298.777 5.19291C298.527 5.60372 298.305 5.51681 298.094 5.27507C297.75 4.88658 297.426 4.09725 297.047 4.32664C297.008 4.01889 296.957 3.89874 296.902 3.7781C296.82 3.58813 296.738 3.39769 296.699 2.46921C296.605 1.94204 296.457 2.33053 296.305 2.72235L296.223 2.93654C296.125 3.0035 296.043 2.85057 295.957 2.69765C295.77 2.35475 295.578 2.01043 295.25 4.14522C294.855 5.42135 294.566 4.80109 294.273 4.17704C294.012 3.61758 293.75 3.05527 293.41 3.85029C292.801 3.4694 292.168 3.3559 291.516 3.3312C291.047 2.29586 290.473 3.02202 289.945 2.8634C289.758 2.80688 289.578 2.63638 289.41 2.23127C288.629 3.11131 288.039 0.754729 287.188 2.63258C286.617 3.24666 286.078 3.22387 285.551 3.10893C285.352 3.06619 285.152 3.01062 284.953 2.97073L284.695 3.17827C283.996 3.75436 283.297 4.33139 282.766 2.21085C282.617 1.03304 282.375 1.32654 282.133 1.62099C281.969 1.82189 281.805 2.02325 281.668 1.7573C281.371 2.30726 281.137 1.90167 280.902 1.49561C280.797 1.31799 280.695 1.14037 280.586 1.04301C280.383 1.33081 280.223 0.952298 280.062 0.572832C279.895 0.181019 279.727 -0.21127 279.512 0.131152C279.34 0.46265 279.16 0.933301 278.977 1.41013L278.836 1.78009C278.633 2.01376 278.43 2.2175 278.25 2.0337C277.988 1.50606 277.73 0.90433 277.445 0.702012C277.367 0.645496 277.285 0.620325 277.203 0.636947C276.848 0.256057 276.469 0.203815 276.02 1.22206C275.34 -0.0388718 274.375 2.87765 273.656 2.0793C273.059 3.89351 272.605 3.54302 272.152 3.19157C271.871 2.97168 271.59 2.75132 271.27 3.06144C270.844 3.619 270.371 4.80727 269.996 4.64199L269.953 4.60305C269.602 4.2687 269.25 3.93673 268.984 2.43312C268.309 0.963696 267.547 0.732407 266.715 1.38306C266.418 1.49276 266.109 1.7459 265.801 2.00473C265.273 2.44689 264.746 2.90567 264.262 2.6986C263.469 2.18473 262.609 2.55327 261.746 2.92276C260.977 3.25284 260.203 3.58338 259.477 3.28561C257.949 2.44879 256.379 2.21085 254.652 3.82085C253.973 2.34668 252.988 4.65529 252.285 3.40814C251.562 2.47396 250.652 3.79615 249.789 4.49429C249.477 3.43758 249.031 3.97282 248.535 5.12024C248.215 5.57997 247.914 5.80366 247.605 6.08434C247.477 6.2026 247.344 6.3313 247.211 6.4923L246.777 6.20877C246.16 5.79511 245.543 5.38288 244.902 5.20431C243.98 4.24971 242.945 4.56933 241.879 5.25417C241.32 6.30661 240.848 6.39019 240.395 6.25627C239.863 6.10049 239.359 5.64884 238.777 6.09337C238.039 6.63003 237.359 6.51653 236.688 6.31183C236.379 6.21732 236.07 6.10334 235.758 6.02545C235.547 5.67258 235.301 5.731 235.055 5.78894C234.789 5.8521 234.52 5.91479 234.301 5.45364C233.777 5.65786 233.285 5.52868 232.652 6.93019C232.223 6.38165 231.715 6.64048 231.211 6.89884C230.66 7.18142 230.109 7.464 229.656 6.69415C228.508 8.19349 227.688 6.27716 226.559 7.57846C225.426 8.94624 224.363 9.53563 223.488 8.23386C222.289 10.2798 221.578 7.32912 220.492 8.20916C218.551 7.69671 216.391 9.40217 214.492 8.65131C213.523 8.45612 212.668 7.20469 211.605 8.00494C210.379 10.3226 209.77 6.80765 208.609 8.56963C207.891 9.76739 207.352 9.27964 206.816 8.79332C206.465 8.47702 206.117 8.16119 205.719 8.31127C205.359 8.19586 204.961 8.43997 204.562 8.68408C203.926 9.0721 203.293 9.46011 202.816 8.39723L202.688 8.52024C202.195 9.00846 201.699 9.49858 201.383 8.38583C201.016 7.38136 200.594 6.88459 200.082 7.20469C199.602 7.25646 198.957 8.77812 198.527 8.36114C198.18 7.25218 197.562 8.55823 197.203 7.53572C196.02 6.0207 194.816 5.04093 193.332 6.61958C192.895 6.54597 192.488 6.24249 192.086 5.93997C191.305 5.35581 190.527 4.7764 189.559 5.86873C188.801 6.89599 188.07 7.66252 187.633 5.96609C187.199 6.94158 187.223 4.04786 186.863 4.38126C186.77 3.60808 186.531 4.05071 186.293 4.49477C186.121 4.81962 185.945 5.14542 185.828 4.99771C184.914 7.2954 184.43 5.94376 183.785 5.91622C183.242 6.43674 182.848 5.68588 182.453 4.9336C182.316 4.66906 182.176 4.40453 182.031 4.19509C181.312 5.19053 180.711 5.11644 180.109 5.04236L179.93 5.02051C179.348 4.28343 178.406 6.38592 178.008 4.00037C177.891 2.16098 177.598 1.7117 177.234 1.79577C176.848 2.0793 176.371 3.06334 176.039 2.88904C175.68 3.09896 175.297 3.45088 174.93 3.66317C174.516 3.90396 174.117 3.96428 173.789 3.43093C173.309 3.4637 172.852 3.38819 172.398 3.31363C172.004 3.24809 171.613 3.1835 171.219 3.193C170.918 3.26803 170.641 3.17162 170.367 3.07616C169.844 2.89427 169.328 2.71522 168.668 3.72776C167.152 2.93179 165.344 4.89798 163.875 4.47862C162.941 5.77564 162.086 6.53552 161.406 6.02545C160.582 6.58301 159.793 6.90976 159.254 5.4014L158.867 5.20811C158.301 4.9108 157.734 4.61492 157.07 4.99771C156.715 5.14684 156.34 5.41897 155.965 5.69253C155.504 6.02593 155.043 6.3617 154.609 6.47901C153.734 7.34717 152.859 8.10278 152.34 6.22255C152.246 5.31021 152 5.48974 151.754 5.66973C151.566 5.80889 151.375 5.94899 151.254 5.58282C151.09 5.78894 150.93 5.95564 150.77 6.12234C150.461 6.44576 150.152 6.76966 149.801 7.38136C149.543 7.28923 149.289 7.17097 149.035 7.05177C148.523 6.81335 148.004 6.57162 147.445 6.53077C146.781 5.87585 145.906 6.64428 145.004 7.43503L144.688 7.70574C143.742 8.7691 142.941 8.79189 142.191 8.49934C141.676 8.33216 141.195 7.89998 140.684 7.69197C140.445 7.59461 140.199 7.54616 139.938 7.59698C139.762 7.88479 139.715 7.27498 139.668 6.66423C139.645 6.3807 139.625 6.09717 139.59 5.90292C139.219 7.07504 139.375 4.68521 138.992 5.93902C138.848 6.02593 138.672 6.32228 138.5 6.61768C138.145 7.22416 137.789 7.82827 137.703 6.61958C137.297 6.94823 136.957 6.83805 136.617 6.72834C136.199 6.59394 135.785 6.45953 135.25 7.12538C134.828 7.31772 134.609 6.11806 134.246 5.91859C133.914 5.47881 133.551 5.27697 133.066 5.87348C132.488 4.48337 131.629 4.96162 130.645 6.29046C129.77 6.46903 128.941 6.34983 128.129 6.16366C127.438 6.00456 126.754 5.79654 126.059 5.68303C125.449 4.63297 124.332 6.87319 123.902 4.70088C123.75 3.20202 123.395 3.05669 122.945 3.48745C122.84 2.93654 122.695 2.64161 122.41 3.26329C122.242 3.70354 122.105 3.94338 121.969 4.18227C121.84 4.40358 121.715 4.62442 121.566 5.00246C121.359 5.13734 121.145 5.32684 120.93 5.51633C120.266 6.09859 119.605 6.67895 119.199 5.66451C119.125 4.94595 119.133 3.72349 118.797 4.66906C118.801 3.44471 118.398 4.81677 118.344 3.97995C118.246 4.01842 118.223 3.57626 118.145 3.4694C118.176 2.6986 118.035 3.0092 117.711 4.4582C117.789 3.38344 117.641 3.74154 117.57 3.59668C117.438 3.85029 117.387 3.59431 117.141 4.54416C116.355 4.59403 115.598 4.50807 114.848 4.42305C114.168 4.34564 113.492 4.26918 112.809 4.29482C112.344 4.95924 111.91 5.41992 111.688 4.5964C111.543 4.54036 111.438 4.23071 111.336 3.92201C111.199 3.51975 111.066 3.11986 110.84 3.28798C110.941 2.12441 110.512 4.75075 110.312 5.42182C110.371 4.78542 110.348 4.65339 110.27 4.84906C110.195 5.03523 110.074 5.51586 109.93 6.14086C109.766 6.46381 109.914 4.65197 109.93 3.71826C109.941 3.19062 109.906 2.94366 109.75 3.52164C109.418 5.27697 109.41 5.05708 109.395 4.88231C109.348 4.90938 109.27 5.12499 109.07 6.07294C108.965 6.16793 109.012 5.36293 108.902 5.49449C108.703 6.14418 108.676 5.73005 108.648 5.31449C108.629 4.96494 108.609 4.61492 108.484 4.8937C108.453 4.43255 108.371 4.30005 108.254 4.39456C108.129 4.49287 107.965 4.83766 107.781 5.31306C107.684 5.4261 107.547 5.76282 107.414 6.09622C107.199 6.63193 106.988 7.16005 106.934 6.74211C106.941 5.42847 106.703 5.60847 106.438 5.96276C106.199 6.28049 105.941 6.73879 105.82 6.38355C105.379 7.89618 105.074 8.59907 104.918 8.41575C105.023 7.11398 104.875 7.36854 104.727 7.62215C104.617 7.80452 104.508 7.98642 104.496 7.58796C104.332 7.98594 104.258 7.85392 104.234 7.42648C104.211 7.03562 104.227 6.39732 104.258 5.69205C104.16 5.85353 104.113 5.69728 104.066 5.5415C103.992 5.29264 103.922 5.04568 103.633 6.09574L103.57 6.1741C103.125 6.71552 102.68 7.25978 102.406 6.70317C102.316 4.97302 101.902 5.13877 101.387 5.83026C100.871 7.70336 100.738 7.2954 100.703 6.28619C100.594 5.71438 100.625 4.2858 100.219 5.4128C99.8828 6.1893 99.6758 6.18408 99.4609 6.17885C99.2305 6.17363 98.9922 6.16793 98.5859 7.1363C98.3672 7.10068 98.2109 6.70792 98.0547 6.31706C97.8203 5.7424 97.5859 5.17059 97.1641 5.73717C96.6445 5.58092 96 6.16128 95.3672 6.72359C94.6914 9.07542 94.3711 9.38365 94.1641 9.02793C94.0625 8.98329 93.9961 8.7235 93.9336 8.46467C93.8398 8.09328 93.7461 7.72379 93.543 7.99354C93.2383 8.4129 93.1172 7.77888 92.9961 7.14723C92.8398 6.32655 92.6836 5.50968 92.1289 7.01187C91.6133 7.94035 91.4805 6.71362 91.1445 6.64286C90.9805 6.60819 90.7656 6.85135 90.4336 7.76225C90.168 7.79882 89.9414 7.61028 89.9219 6.24297C89.7578 6.3503 89.5859 6.48708 89.4297 6.54122C89.3086 6.58349 89.1992 6.57637 89.1055 6.46761C88.832 5.77422 88.3828 6.09099 87.9297 6.41014C87.793 6.5075 87.6562 6.60486 87.5234 6.67373C86.8047 7.83967 86.3633 7.42696 86.1523 5.7329L86.043 5.34631C85.9219 4.9013 85.8047 4.45915 85.6172 4.40168C85.4648 3.8142 85.457 2.42172 84.7031 5.19956C83.9141 6.74211 83.3789 6.85515 83.1992 4.95497C82.9414 3.515 82.0898 5.37195 81.8633 3.73014C81.3789 4.18559 81.1289 3.33642 80.6875 3.54777C80.5547 3.61141 80.4023 3.77098 80.2227 4.09061C79.8359 4.85761 79.5664 4.95829 79.293 5.05993C79.1367 5.11929 78.9805 5.17866 78.7969 5.37005C78.668 5.26035 78.5391 5.14067 78.4102 5.02003C78.1953 4.82199 77.9805 4.623 77.7578 4.46485C77.1562 3.31743 76.1016 4.6078 75.5469 3.09089C74.8945 2.12916 73.9062 2.91374 73.2539 1.80479C72.875 2.04985 72.5625 1.93302 72.2461 1.81524C71.7461 1.62954 71.2383 1.44242 70.4688 2.65965C69.9688 1.65281 69.375 1.20638 68.5977 1.78437C68.1172 2.48108 67.7383 2.6606 67.3828 2.7157C67.0586 2.76651 66.7539 2.71332 66.4141 2.85722C65.9531 2.14721 65.2383 2.79596 64.5273 3.44518L64.3281 3.62375C64.1484 3.69404 63.9531 3.85267 63.7578 4.01082C63.1953 4.46105 62.6367 4.90938 62.4727 3.29938C61.5312 3.72301 60.6875 3.60238 59.8398 3.4808C59.0781 3.37157 58.3086 3.26186 57.4609 3.54872C57.1602 4.03409 56.8086 4.75978 56.5156 5.18626L56.2891 5.43939C56.0977 5.64694 55.9062 5.854 55.6836 6.2159C55.1367 7.23271 54.957 6.35363 54.7773 5.47834L54.6641 4.9526C54.3594 2.19043 53.3633 2.95696 52.25 4.27678C51.7578 5.39665 51.4727 5.47929 51.1875 5.56192C51.0195 5.60989 50.8516 5.65786 50.6445 5.91194C49.9297 7.35192 49.5781 6.95726 49.4492 5.44699C48.7266 6.5265 48.3516 5.84498 47.9727 5.16109C47.7148 4.68996 47.457 4.21836 47.082 4.31999C46.1172 4.82104 46.0547 0.820743 44.5625 3.89826C44.2383 3.57531 43.75 4.04929 43.2578 4.52469C42.6602 5.10362 42.0625 5.68446 41.7539 4.83006C41.082 5.04473 40.3125 5.73717 39.6562 5.85638C39.3984 5.9034 39.1562 5.8616 38.9492 5.66688C38.5586 4.49144 37.8906 4.67856 37.2383 4.76263C36.9805 4.79587 36.7266 4.81297 36.4961 4.72368C35.8086 3.79615 34.6953 4.89133 33.6758 5.5377C33.4961 5.64694 33.3086 5.78609 33.1211 5.92572C32.2578 6.56497 31.3906 7.20754 31.1328 4.96399C29.2188 5.63079 27.4453 5.61274 25.9453 4.30622C25.4805 4.67239 25.1836 4.26063 24.8867 3.84887C24.5 3.30935 24.1094 2.77031 23.3477 3.98185C22.5352 5.71912 21.8672 6.75779 21.6211 5.82123C21.0078 6.61483 20.8047 5.48309 20.5391 4.67809C19.9844 4.87423 19.3828 5.28552 18.8477 5.38905C18.457 5.46504 18.1016 5.37433 17.8281 4.90938C17.2891 3.31315 16.2852 3.88449 15.3164 4.2725C15.0352 1.52601 13.8164 3.07949 12.9219 3.14313C12.5234 2.77554 11.9648 3.13458 11.4062 3.49362C10.9414 3.79093 10.4805 4.08776 10.1094 3.97282C9.75391 4.02887 9.33203 4.39408 8.91797 4.71133C8.27734 5.20526 7.66406 5.58377 7.375 4.50142C7.05859 4.00179 6.59375 4.16659 6.14844 4.25398C5.6875 4.34374 5.24609 4.35086 5.00781 3.46513C4.27734 2.79833 3.35938 2.96028 2.44922 3.12176Z" fill="#383192"/>
</svg>
