<svg width="746" height="676" viewBox="0 0 746 676" fill="none" xmlns="http://www.w3.org/2000/svg">
<path d="M429.147 467.266C414.361 507.466 419.905 575.659 424.526 604.731C449.555 606.271 506.775 600.457 535.423 564.878C564.072 529.298 566.228 425.295 563.725 377.74C491.527 390.447 447.629 417.016 429.147 467.266Z" fill="url(#paint0_linear_4491_128534)"/>
<path d="M28.3055 680.972C16.7538 707.309 4.62458 726.216 0.00390625 732.377L34.659 726.601H235.081L508.278 627.256L646.32 329.801L804.001 28.3016V0C800.766 4.62067 711.78 25.0286 667.691 34.655C591.45 47.9395 550.442 127.646 559.683 313.628C568.924 499.61 522.718 554.673 494.416 572.963C420.485 631.299 329.227 602.435 203.891 577.584C78.5553 552.733 42.7451 648.049 28.3055 680.972Z" fill="url(#paint1_radial_4491_128534)"/>
<path d="M803.966 274.93V146.129C669.504 194.646 660.532 304.965 672.854 354.059C695.496 279.204 769.696 270.117 803.966 274.93Z" fill="#5819A7"/>
<path d="M272.046 704.653C126.033 608.543 29.8458 683.09 0.00390625 732.377L222.951 732.377L272.046 704.653Z" fill="url(#paint2_linear_4491_128534)"/>
<path d="M123.027 732.377H224.105L270.889 705.231C208.51 674.272 146.323 710.429 123.027 732.377Z" fill="#0832FF"/>
<path d="M400.847 642.274C342.165 667.687 248.365 712.739 208.512 732.377H243.167C344.822 676.351 429.149 684.437 559.105 642.274C689.062 600.11 672.312 404.887 674.045 306.12C675.431 227.106 761.067 166.537 804.001 146.129V107.431C617.441 136.887 603.002 230.456 596.648 378.895C590.295 527.334 474.2 610.506 400.847 642.274Z" fill="#5153FF"/>
<path d="M804 107.43V24.2583C717.94 57.1806 685.017 117.249 682.707 154.792C712.279 127.53 775.891 111.859 804 107.43Z" fill="url(#paint3_linear_4491_128534)"/>
<defs>
<linearGradient id="paint0_linear_4491_128534" x1="447.631" y1="605.308" x2="564.88" y2="403.154" gradientUnits="userSpaceOnUse">
<stop stop-color="#5631C5"/>
<stop offset="1" stop-color="#59129D"/>
</linearGradient>
<radialGradient id="paint1_radial_4491_128534" cx="0" cy="0" r="1" gradientUnits="userSpaceOnUse" gradientTransform="translate(530.226 448.205) rotate(-148.602) scale(392.467 430.847)">
<stop stop-color="#8B5AEA"/>
<stop offset="1" stop-color="#EE4DE1"/>
</radialGradient>
<linearGradient id="paint2_linear_4491_128534" x1="0.00390575" y1="732.377" x2="272.046" y2="695.214" gradientUnits="userSpaceOnUse">
<stop stop-color="#AA54E5"/>
<stop offset="1" stop-color="#5C5CE9"/>
</linearGradient>
<linearGradient id="paint3_linear_4491_128534" x1="663.069" y1="136.887" x2="804" y2="73.353" gradientUnits="userSpaceOnUse">
<stop stop-color="#902DFF"/>
<stop offset="1" stop-color="#6C2DFF"/>
</linearGradient>
</defs>
</svg>
