<svg width="190" height="477" viewBox="0 0 190 477" fill="none" xmlns="http://www.w3.org/2000/svg">
<path d="M36.0024 187.071L45.8402 231.077L41.185 260.611H149.305L142.237 122.736L115.28 120.444L49.4216 131.561L36.0024 187.071Z" fill="#383192"/>
<path d="M63.5078 130.767C63.5078 130.767 35.3436 128.185 21.9296 147.344C13.7209 159.07 2.19583 185.999 2.19583 185.999L39.6843 192.462L63.5078 130.767Z" fill="#383192"/>
<g opacity="0.3">
<path d="M101.19 172.406C109.101 182.183 112.815 194.577 117.99 206.04C124.657 220.806 133.889 234.246 143.069 247.595C143.757 248.595 144.697 249.717 145.902 249.573C147.156 249.422 147.795 248.01 148.117 246.789C150.105 239.256 149.122 231.165 146.513 223.825C143.906 216.485 139.745 209.799 135.301 203.4C128.301 193.319 120.517 183.782 112.042 174.904C110.519 173.309 108.885 171.679 106.785 171.012C104.683 170.344 101.991 170.993 101.071 172.997" fill="#001C38"/>
</g>
<g opacity="0.3">
<path d="M45.4725 223.433C47.3006 216.237 49.1287 209.041 50.9568 201.846C51.3219 200.407 51.6959 198.948 52.44 197.665C53.3756 196.052 54.8323 194.82 56.261 193.622C58.0283 192.14 59.8589 190.624 62.0648 189.95C63.8599 189.403 65.8338 189.44 67.5123 188.603C69.8158 187.453 71.0556 184.933 71.9976 182.535C72.7189 180.7 73.3325 178.52 72.2803 176.853C71.2775 175.265 69.1705 174.825 67.293 174.769C58.6621 174.513 50.1138 179.772 46.4487 187.591C43.633 193.6 43.6343 200.494 43.6888 207.131C43.7383 213.046 43.7864 218.963 43.8359 224.878" fill="#001C38"/>
</g>
<path d="M80.035 224.272C80.0134 224.166 78.5594 224.418 76.1951 224.601C73.8334 224.787 70.5488 224.829 66.9663 224.366C63.3837 223.895 60.2196 223.011 57.9846 222.225C55.7458 221.443 54.4059 220.824 54.3577 220.923C54.3374 220.964 54.6531 221.159 55.2426 221.477C55.8295 221.802 56.7093 222.211 57.8198 222.664C60.0383 223.571 63.2379 224.544 66.8801 225.023C70.5222 225.493 73.8638 225.375 76.2408 225.067C77.4299 224.916 78.3857 224.745 79.0361 224.582C79.6889 224.424 80.0439 224.317 80.035 224.272Z" fill="#001C38"/>
<path d="M127.25 226.203C127.198 226.028 111.899 230.388 93.0816 235.938C74.2581 241.491 59.0464 246.134 59.0971 246.309C59.1491 246.483 74.4445 242.125 93.2679 236.572C112.085 231.022 127.301 226.378 127.25 226.203Z" fill="#001C38"/>
<g opacity="0.3">
<path d="M55.9745 221.661C57.5997 226.298 61.9999 229.458 66.878 230.052C71.7561 230.645 76.8763 228.266 79.5664 224.153C71.6433 225.14 63.3728 224.663 55.9745 221.661Z" fill="#001C38"/>
</g>
<g opacity="0.3">
<path d="M63.1892 244.962L63.5847 245.116C73.2361 246.843 82.2827 245.059 91.5372 241.824C100.793 238.588 109.411 233.791 117.957 228.986C99.7015 234.311 81.446 239.637 63.1892 244.962Z" fill="#001C38"/>
</g>
<path d="M94.7487 17.4157C91.947 8.03054 82.9993 0.814529 73.2338 0.0652911C63.4684 -0.683947 53.5242 5.08177 49.3229 13.9306C45.365 22.2673 45.9114 33.1027 39.0136 39.2348C34.2837 43.4399 27.1805 44.1981 22.571 48.535C12.8093 57.7211 19.5258 76.9072 9.12399 85.3605C16.0547 90.5341 24.2216 94.0407 32.7459 95.5024C33.2289 92.5993 34.5828 89.847 36.5872 87.6931C34.986 92.6868 37.9601 98.2471 42.2806 101.219C46.6011 104.19 51.9674 105.13 57.1639 105.83C69.688 107.516 82.6038 108.214 94.8159 104.962C107.028 101.711 118.549 93.9976 123.884 82.541C125.235 79.6379 126.241 76.447 128.519 74.1967C130.994 71.7512 134.545 70.8334 137.661 69.288C146.217 65.0449 151.641 55.2097 150.664 45.7092C142.473 45.5495 136.532 37.9189 132.917 30.5685C129.301 23.2169 126.283 14.8764 119.365 10.4874C114.775 7.57542 108.828 6.91112 103.709 8.74174C98.59 10.5711 94.4115 14.8535 92.7077 20.0158" fill="#001C38"/>
<path d="M114.834 34.5069L114.887 27.6256L73.4723 20.2638C60.715 19.0696 47.0918 32.0044 46.4414 44.7998C45.7175 59.0163 45.3943 76.4021 47.2059 86.9802C50.8468 108.253 67.216 110.768 67.216 110.768L67.7712 136.808L90.7796 200.802L115.57 130.644L114.834 34.5069Z" fill="#FFBE9D"/>
<path d="M54.2501 61.7439C54.2159 63.1878 55.4114 64.4073 56.9187 64.4694C58.4234 64.5316 59.6721 63.416 59.7063 61.9708C59.7405 60.5269 58.5451 59.3061 57.0416 59.2427C55.5343 59.1806 54.2844 60.3 54.2501 61.7439Z" fill="#001C38"/>
<path d="M51.059 53.803C51.4012 54.1554 53.4549 52.5974 56.396 52.5695C59.3333 52.4998 61.5099 53.9868 61.8243 53.623C61.979 53.462 61.6266 52.823 60.6783 52.1499C59.7453 51.4793 58.1594 50.8365 56.3263 50.8657C54.4944 50.8974 52.9618 51.5908 52.0845 52.2919C51.1883 52.9967 50.8891 53.6445 51.059 53.803Z" fill="#001C38"/>
<path d="M80.4259 61.7341C80.3917 63.178 81.5871 64.3963 83.0944 64.4597C84.5992 64.5218 85.8491 63.4062 85.8821 61.961C85.9163 60.5171 84.7209 59.2963 83.2161 59.2329C81.7088 59.1708 80.4588 60.2902 80.4259 61.7341Z" fill="#001C38"/>
<path d="M79.933 54.0032C80.2765 54.3556 82.3315 52.7988 85.27 52.771C88.2073 52.7012 90.3839 54.1882 90.6996 53.8231C90.853 53.6621 90.5044 53.0232 89.5523 52.3501C88.6193 51.6795 87.0334 51.0367 85.2016 51.0659C83.3697 51.0976 81.8358 51.791 80.9585 52.4921C80.0648 53.1982 79.7656 53.846 79.933 54.0032Z" fill="#001C38"/>
<path d="M69.5303 75.9295C69.5417 75.7621 67.7099 75.4693 64.7422 75.1258C63.9904 75.0573 63.278 74.9166 63.1449 74.4057C62.9611 73.8657 63.2666 73.0518 63.619 72.1733C64.3035 70.3465 65.0198 68.4336 65.7715 66.4281C68.7583 58.2476 70.9095 51.5262 70.5799 51.4083C70.2491 51.2904 67.5603 57.8254 64.5748 66.0059C63.8573 68.0228 63.1702 69.9447 62.5174 71.7854C62.2435 72.6423 61.7656 73.6159 62.1624 74.7379C62.3716 75.2957 62.9281 75.6975 63.4111 75.8205C63.8941 75.9612 64.3162 75.965 64.6889 75.9815C67.6718 76.1057 69.5214 76.0968 69.5303 75.9295Z" fill="#001C38"/>
<path d="M67.2939 110.82C67.2939 110.82 82.3707 111.52 96.4727 102.81C96.4727 102.81 89.4534 117.819 67.3725 116.133L67.2939 110.82Z" fill="#EB996E"/>
<path d="M70.8751 83.0155C71.9159 81.6045 73.7592 80.8135 75.6024 80.9897C76.8803 81.1114 78.1771 81.711 78.9656 82.7416C79.7541 83.771 79.9341 85.2453 79.2407 86.2443C78.4611 87.37 76.8054 87.6476 75.397 87.2661C73.9873 86.8832 72.7691 85.9743 71.6104 85.0679C71.2897 84.8169 70.9626 84.5545 70.7598 84.2084C70.5582 83.8623 70.5101 83.4059 70.7509 83.1131" fill="#EB996E"/>
<path d="M78.4332 77.871C77.954 77.8482 77.9869 81.0416 75.2816 83.3399C72.5814 85.6459 69.1738 85.3289 69.1548 85.7752C69.113 85.9755 69.9205 86.3862 71.3568 86.4077C72.7665 86.4394 74.8189 85.9615 76.4733 84.5556C78.1238 83.1459 78.8185 81.2824 78.9111 79.9716C79.0163 78.6367 78.6512 77.8495 78.4332 77.871Z" fill="#001C38"/>
<path d="M79.1284 45.703C79.4288 46.4991 82.3598 46.0846 85.8155 46.4585C89.2789 46.764 92.0742 47.7402 92.5229 47.0176C92.7232 46.6715 92.2288 45.9261 91.0942 45.1642C89.9698 44.4049 88.181 43.6911 86.1071 43.4858C84.0331 43.2842 82.1405 43.6366 80.8892 44.1627C79.6291 44.6888 78.9991 45.3252 79.1284 45.703Z" fill="#001C38"/>
<path d="M50.995 43.7102C51.5199 44.3719 53.5381 43.6544 55.9746 43.5923C58.4086 43.4453 60.4787 43.9866 60.9465 43.2817C61.1493 42.9394 60.8172 42.2739 59.9083 41.6527C59.0133 41.0328 57.5199 40.5359 55.8465 40.6069C54.1732 40.6804 52.7293 41.3028 51.8913 41.9975C51.0369 42.696 50.763 43.3869 50.995 43.7102Z" fill="#001C38"/>
<path d="M74.171 21.1429C74.9837 30.0475 81.7458 38.1078 90.3741 40.4544C93.8211 41.3926 98.1454 42.0024 99.3903 45.3505C100.68 48.819 97.5432 52.1824 96.1424 55.6078C94.422 59.8142 95.5579 65.0284 98.8731 68.1369C100.756 69.9029 103.209 70.9944 104.995 72.858C107.363 75.3289 108.286 78.985 107.789 82.3712C107.292 85.7573 105.484 88.8646 103.086 91.305C111.155 91.4191 119.809 86.9427 122.102 79.2056C123.469 74.5961 122.447 69.6646 121.609 64.9308C119.698 54.1448 118.779 43.1826 118.865 32.2293C118.881 30.3721 118.877 28.3589 117.76 26.8731C116.661 25.4101 114.767 24.8384 113 24.3693C101.496 21.3204 89.7909 19.0359 77.9857 17.5361" fill="#001C38"/>
<path d="M78.7695 17.8423C76.7094 22.0157 74.5961 26.2627 71.3507 29.5994C68.1053 32.9361 63.4818 35.2713 58.8723 34.6247C59.6354 33.2061 60.3986 31.7862 61.1618 30.3676C54.9803 37.3047 47.337 42.9322 38.8786 46.7773C42.7858 38.6042 46.83 30.2408 53.369 23.9718C59.908 17.7028 69.5822 13.878 78.1889 16.7039" fill="#001C38"/>
<path d="M64.8093 60.4701C64.8093 60.4701 64.969 59.3913 64.557 57.4911C64.1475 55.6301 62.9686 52.8601 60.1834 50.6873C58.8029 49.6262 57.0497 48.7173 55.0163 48.3408C52.9968 47.9769 50.7086 48.0264 48.5218 48.8441C47.4215 49.2206 46.3591 49.7923 45.3817 50.5174C44.3942 51.2286 43.4966 52.1135 42.755 53.1416C41.2249 55.1661 40.3578 57.7788 40.335 60.4676C40.3565 63.1577 41.2236 65.7717 42.7538 67.7962C43.4954 68.8243 44.3929 69.7092 45.3805 70.4204C46.3579 71.1455 47.4202 71.7172 48.5206 72.0937C50.7086 72.9114 52.9955 72.9608 55.0163 72.597C57.0509 72.2205 58.8041 71.3116 60.1847 70.2505C62.9711 68.0777 64.1488 65.309 64.5583 63.448C64.969 61.549 64.8093 60.4701 64.8093 60.4701C64.7256 60.4638 64.7877 61.5464 64.3073 63.3859C63.8319 65.1898 62.6161 67.838 59.8994 69.8803C58.5531 70.878 56.862 71.7236 54.9136 72.0595C52.9791 72.384 50.7986 72.3168 48.7259 71.5233C47.6826 71.1582 46.6773 70.608 45.7531 69.9146C44.8188 69.2351 43.9708 68.3908 43.2722 67.4134C41.8283 65.4877 41.0158 63.0157 40.9917 60.4676C41.0158 57.9208 41.8283 55.4488 43.2722 53.5244C43.9708 52.547 44.8188 51.704 45.7531 51.0245C46.676 50.3311 47.6826 49.7809 48.7259 49.4158C50.7973 48.6222 52.9778 48.555 54.9123 48.8783C56.8595 49.2142 58.5519 50.0598 59.8969 51.0575C62.6136 53.0997 63.8293 55.7467 64.3047 57.5519C64.7877 59.3939 64.7256 60.4765 64.8093 60.4701Z" fill="#001C38"/>
<path d="M96.7156 60.4667C96.7156 60.4667 96.8754 59.3879 96.4634 57.4876C96.0552 55.6267 94.8749 52.8567 92.0898 50.6839C90.7093 49.6228 88.956 48.7139 86.9226 48.3374C84.9032 47.9735 82.615 48.023 80.4282 48.8406C79.3278 49.2171 78.2655 49.7889 77.2881 50.514C76.3006 51.2252 75.403 52.11 74.6614 53.1382C73.1313 55.1627 72.2642 57.7754 72.2413 60.4642C72.2629 63.1543 73.13 65.7683 74.6601 67.7928C75.4018 68.8209 76.2993 69.7058 77.2868 70.417C78.2642 71.1421 79.3265 71.7138 80.4269 72.0903C82.615 72.908 84.9019 72.9574 86.9226 72.5936C88.9573 72.2171 90.7105 71.3081 92.0898 70.2471C94.8762 68.0742 96.0539 65.3056 96.4634 63.4446C96.8754 61.5456 96.7156 60.4667 96.7156 60.4667C96.632 60.4604 96.6941 61.543 96.2136 63.3825C95.7382 65.1864 94.5225 67.8346 91.8058 69.8769C90.4595 70.8746 88.7684 71.7201 86.8212 72.0561C84.8867 72.3806 82.7062 72.3134 80.6335 71.5198C79.5902 71.1547 78.5849 70.6046 77.6608 69.9111C76.7265 69.2316 75.8784 68.3873 75.1799 67.4099C73.736 65.4843 72.9234 63.0123 72.8993 60.4642C72.9234 57.9174 73.736 55.4454 75.1799 53.521C75.8784 52.5436 76.7265 51.7006 77.6608 51.0211C78.5837 50.3277 79.5902 49.7775 80.6335 49.4124C82.705 48.6188 84.8854 48.5516 86.8199 48.8749C88.7671 49.2108 90.4595 50.0564 91.8058 51.054C94.5225 53.0963 95.7382 55.7433 96.2136 57.5485C96.6941 59.3905 96.632 60.4731 96.7156 60.4667Z" fill="#001C38"/>
<path d="M72.6807 57.7898C72.7391 57.7365 72.4221 57.2497 71.6488 56.7426C70.892 56.2381 69.6281 55.7652 68.1943 55.8857C66.7606 56.0074 65.593 56.6856 64.9313 57.3106C64.2543 57.9406 64.0236 58.473 64.0895 58.5161C64.1706 58.5783 64.5294 58.1625 65.2241 57.6744C65.9099 57.1863 66.9824 56.6526 68.2488 56.5449C69.5153 56.4397 70.6625 56.7845 71.4193 57.1521C72.1876 57.5147 72.611 57.8646 72.6807 57.7898Z" fill="#001C38"/>
<path d="M50.3224 69.8827C50.401 69.6951 47.9113 68.9598 45.921 66.6399C43.8838 64.3593 43.4832 61.7947 43.2867 61.848C43.2093 61.8569 43.1916 62.5085 43.468 63.5176C43.7392 64.5228 44.368 65.8641 45.424 67.0747C46.4851 68.2816 47.7312 69.0815 48.6909 69.4821C49.6556 69.889 50.3034 69.9575 50.3224 69.8827Z" fill="white"/>
<path d="M82.1427 70.5853C82.2213 70.3977 79.7316 69.6624 77.7413 67.3425C75.7041 65.0619 75.3035 62.4974 75.107 62.5506C75.0297 62.5595 75.0119 63.2111 75.2883 64.2202C75.5596 65.2255 76.1883 66.5667 77.2443 67.7774C78.3054 68.9842 79.5515 69.7841 80.5112 70.1847C81.4747 70.5929 82.1237 70.6601 82.1427 70.5853Z" fill="white"/>
<path d="M28.0069 423.436C27.3223 425.491 47.6924 508.003 47.6924 508.003H97.0673L99.0234 429.601L28.0069 423.436Z" fill="#FFBE9D"/>
<path d="M117.907 429.598C118.592 433.707 136.21 508.001 136.21 508.001L200 507.661L184.338 423.435L117.907 429.598Z" fill="#FFBE9D"/>
<path d="M39.3009 260.607C39.3009 260.607 24.988 284.306 22.8658 306.868C20.7436 329.43 18.2969 438.142 18.2969 438.142C18.2969 438.142 122.959 466.027 194.422 422.05C181.569 385.687 170.778 353.189 163.319 330.167C155.761 306.841 151.285 282.677 149.541 258.219L149.468 257.201L39.3009 260.607Z" fill="#001C38"/>
<path d="M90.3794 260.475C90.368 260.475 90.3579 260.619 90.349 260.899C90.3427 261.215 90.3351 261.627 90.3249 262.145C90.3173 263.284 90.3072 264.89 90.2945 266.939C90.278 271.101 90.3009 277.124 90.3681 284.567C90.4999 299.451 90.8713 320.012 91.6371 342.711C92.4091 365.417 93.4309 385.957 94.3069 400.817C94.7443 408.247 95.1284 414.256 95.4263 418.408C95.5785 420.45 95.6976 422.053 95.7813 423.187C95.827 423.704 95.8624 424.114 95.8903 424.428C95.9182 424.709 95.9385 424.851 95.9499 424.851C95.9613 424.849 95.9639 424.706 95.9575 424.425C95.9461 424.109 95.9322 423.698 95.9144 423.178C95.8599 422.041 95.7826 420.437 95.6837 418.391C95.4669 414.193 95.1563 408.19 94.7735 400.79C94.0166 385.927 93.0696 365.388 92.2975 342.687C91.5318 319.994 91.0869 299.44 90.8346 284.559C90.7154 277.151 90.6191 271.14 90.5519 266.936C90.5113 264.889 90.4809 263.283 90.4581 262.144C90.4416 261.626 90.4276 261.214 90.4175 260.898C90.4036 260.619 90.3909 260.475 90.3794 260.475Z" fill="#001C38"/>
<path d="M48.7193 122.281L52.747 173.134C52.8902 174.944 54.461 176.303 56.2726 176.185L84.6168 174.346C86.4804 174.224 87.8775 172.591 87.7089 170.73L83.0765 119.915C82.913 118.123 81.3511 116.786 79.5547 116.903L51.8152 118.706C49.9656 118.825 48.5723 120.434 48.7193 122.281Z" fill="#001C38"/>
<path d="M8.14267 187.016C8.14267 187.016 -0.325851 244.227 0.00883484 251.915C0.343517 259.602 9.03265 276.647 20.7301 278.318C32.4276 279.989 43.457 269.294 43.7917 255.256C44.1264 241.219 45.8594 196.823 45.8594 196.823L37.1284 192.014L8.14267 187.016Z" fill="#FFBE9D"/>
<path d="M28.9533 190.396C28.9317 190.389 28.8277 190.59 28.6503 190.981C28.4487 191.443 28.2028 192.013 27.9036 192.702C27.276 194.205 26.3252 196.361 25.112 199.008C22.7122 204.315 19.1029 211.509 15.3808 219.596C11.6485 227.683 8.81387 235.264 7.27609 240.903C6.8476 242.3 6.58641 243.598 6.30497 244.723C6.01973 245.847 5.83973 246.831 5.70155 247.636C5.57477 248.379 5.47206 248.991 5.38713 249.49C5.32247 249.914 5.29965 250.139 5.3212 250.143C5.34402 250.146 5.40994 249.93 5.5177 249.514C5.63433 249.023 5.77888 248.421 5.95256 247.689C6.12877 246.895 6.3443 245.923 6.66377 244.812C6.97817 243.7 7.26848 242.416 7.7236 241.034C9.36914 235.453 12.2571 227.94 15.9804 219.87C19.6949 211.801 23.2421 204.563 25.538 199.197C26.698 196.521 27.5854 194.331 28.1419 192.796C28.3954 192.086 28.6046 191.502 28.7745 191.026C28.9114 190.622 28.9736 190.404 28.9533 190.396Z" fill="#EB996E"/>
<path d="M56.322 139.742C56.322 139.742 47.5543 145.135 44.9668 146.541C42.3793 147.947 42.7127 158.398 42.7127 158.398L27.9663 192.683L45.7477 199.054C45.7477 199.054 52.0763 187.06 53.8968 185.543C55.7173 184.027 58.1437 183.42 58.1437 183.42C58.1437 183.42 59.054 186.757 61.7834 185.24C64.5129 183.724 67.5466 180.084 67.5466 180.084C67.5466 180.084 69.9731 181.601 70.8833 179.781C71.7936 177.961 73.3098 174.018 73.3098 174.018C73.3098 174.018 68.1539 167.345 66.0304 167.345C63.9069 167.345 52.9878 167.952 52.9878 167.952C52.9878 167.952 53.5951 167.042 56.6275 165.829C59.6612 164.615 77.7228 159.302 78.5709 158.974C79.8387 158.483 81.275 155.163 77.3324 154.86C73.3897 154.557 51.1724 158.525 51.1724 158.525C51.1724 158.525 49.9554 152.786 50.8644 151.573C51.7721 150.358 59.6587 145.201 56.322 139.742Z" fill="#FFBE9D"/>
<path d="M67.5846 179.812C67.6455 179.807 67.7875 178.866 67.5124 177.317C67.3488 176.556 67.0066 175.606 66.175 174.863C65.3231 174.087 64.0541 173.932 62.917 173.874C60.5768 173.724 58.4534 173.876 56.9397 174.094C55.4236 174.312 54.5108 174.571 54.526 174.655C54.5552 174.858 58.2797 174.234 62.8764 174.533C64.0224 174.591 65.0898 174.728 65.782 175.327C66.4894 175.912 66.8557 176.738 67.0611 177.431C67.4325 178.855 67.4667 179.827 67.5846 179.812Z" fill="#EB996E"/>
<path d="M64.0828 180.907C63.9649 180.755 62.5628 181.698 60.6739 182.513C58.7901 183.343 57.1446 183.728 57.1763 183.918C57.1941 184.089 58.9625 183.986 60.9376 183.118C62.9177 182.261 64.1969 181.035 64.0828 180.907Z" fill="#EB996E"/>
<path d="M52.205 158.4C52.1809 158.23 50.5139 158.544 49.07 159.954C47.6134 161.351 47.2445 163.007 47.4131 163.036C47.5956 163.105 48.2003 161.693 49.5289 160.428C50.8359 159.143 52.2684 158.585 52.205 158.4Z" fill="#EB996E"/>
<path d="M112.274 181.347C112.274 181.347 145.304 254.88 164.492 257.131C174.168 258.267 180.062 252.979 182.139 242.945C184.215 232.91 177.295 167.169 177.295 167.169L144.077 176.399L146.592 189.134L126.706 169.32L112.274 181.347Z" fill="#FFBE9D"/>
<path d="M142.229 122.734C142.229 122.734 160.818 124.522 167.739 139.746C174.659 154.971 184.246 172.143 184.246 172.143L143.369 181.347C143.369 181.347 137.651 150.598 137.215 139.747C136.736 127.861 135.501 122.392 142.229 122.734Z" fill="#383192"/>
<path d="M108.009 162.786C108.103 162.886 108.177 163.006 108.228 163.137L106.356 163.137C106.407 163.006 106.481 162.886 106.575 162.786C106.669 162.685 106.781 162.606 106.904 162.551C107.027 162.497 107.159 162.469 107.292 162.469C107.425 162.469 107.557 162.497 107.68 162.551C107.803 162.606 107.915 162.685 108.009 162.786Z" fill="url(#paint0_linear_4491_128639)"/>
<path d="M106.598 167.038C106.504 166.937 106.429 166.818 106.378 166.687H108.251C108.2 166.818 108.125 166.937 108.031 167.038C107.937 167.138 107.825 167.218 107.702 167.273C107.579 167.327 107.448 167.355 107.315 167.355C107.181 167.355 107.05 167.327 106.927 167.273C106.804 167.218 106.692 167.138 106.598 167.038Z" fill="url(#paint1_linear_4491_128639)"/>
<path d="M106.93 165.35L106.389 164.368H108.001C108.345 164.368 108.719 164.346 108.993 164.559C109.081 164.627 109.165 164.715 109.264 164.83L109.298 164.729C109.537 164.005 109.015 163.252 108.273 163.252H106.268C105.706 163.252 105.25 163.722 105.25 164.301C105.25 164.88 105.706 165.35 106.268 165.35H106.93Z" fill="url(#paint2_linear_4491_128639)"/>
<path d="M107.676 164.474L108.218 165.455H106.606C106.262 165.455 105.888 165.478 105.613 165.265C105.526 165.197 105.441 165.109 105.342 164.993L105.309 165.095C105.069 165.819 105.591 166.571 106.334 166.571H108.339C108.901 166.571 109.357 166.102 109.357 165.523C109.357 164.943 108.901 164.474 108.339 164.474H107.676Z" fill="url(#paint3_linear_4491_128639)"/>
<path d="M110.868 166.703C110.492 166.703 110.188 166.398 110.188 166.022V163.145C110.563 163.145 110.868 163.449 110.868 163.825V166.703Z" fill="white"/>
<path d="M111.875 166.703C111.695 166.703 111.549 166.557 111.549 166.377V164.587C111.549 164.321 111.764 164.105 112.031 164.105L112.144 164.359C112.207 164.308 112.28 164.257 112.354 164.218C112.484 164.15 112.66 164.077 112.881 164.077C113.5 164.077 113.931 164.5 113.931 165.178V166.377C113.931 166.557 113.785 166.703 113.605 166.703C113.424 166.703 113.278 166.557 113.278 166.377V165.263C113.278 164.924 113.057 164.698 112.74 164.698C112.422 164.698 112.201 164.924 112.201 165.263V166.377C112.201 166.557 112.055 166.703 111.875 166.703Z" fill="white"/>
<path d="M114.855 166.703C114.674 166.703 114.528 166.557 114.528 166.377V164.587C114.528 164.321 114.744 164.105 115.01 164.105L115.124 164.359C115.175 164.308 115.237 164.257 115.3 164.218C115.407 164.15 115.561 164.077 115.748 164.077C116.014 164.077 116.202 164.161 116.321 164.246C116.389 164.297 116.445 164.353 116.485 164.415C116.547 164.353 116.616 164.297 116.695 164.246C116.831 164.161 117.024 164.077 117.251 164.077C117.818 164.077 118.187 164.444 118.187 165.15V166.377C118.187 166.557 118.041 166.703 117.86 166.703C117.68 166.703 117.534 166.557 117.534 166.377V165.206C117.534 164.89 117.336 164.698 117.109 164.698C116.882 164.698 116.684 164.89 116.684 165.206V166.377C116.684 166.557 116.538 166.703 116.357 166.703C116.177 166.703 116.031 166.557 116.031 166.377V165.206C116.031 164.89 115.833 164.698 115.606 164.698C115.379 164.698 115.181 164.89 115.181 165.206V166.377C115.181 166.557 115.035 166.703 114.855 166.703Z" fill="white"/>
<path d="M119.945 164.698C119.576 164.698 119.292 164.975 119.292 165.404C119.292 165.833 119.576 166.11 119.945 166.11C120.313 166.11 120.597 165.833 120.597 165.404C120.597 164.975 120.313 164.698 119.945 164.698ZM119.945 164.077C120.648 164.077 121.249 164.67 121.249 165.404C121.249 166.138 120.648 166.731 119.945 166.731C119.241 166.731 118.64 166.138 118.64 165.404C118.64 164.67 119.241 164.077 119.945 164.077Z" fill="white"/>
<path d="M125.812 164.698C125.444 164.698 125.16 164.975 125.16 165.404C125.16 165.833 125.444 166.11 125.812 166.11C126.181 166.11 126.465 165.833 126.465 165.404C126.465 164.975 126.181 164.698 125.812 164.698ZM125.812 164.077C126.516 164.077 127.117 164.67 127.117 165.404C127.117 166.138 126.516 166.731 125.812 166.731C125.109 166.731 124.508 166.138 124.508 165.404C124.508 164.67 125.109 164.077 125.812 164.077Z" fill="white"/>
<path d="M127.922 166.703C127.742 166.703 127.596 166.557 127.596 166.377V164.587C127.596 164.321 127.812 164.105 128.078 164.105L128.192 164.359C128.254 164.308 128.328 164.257 128.402 164.218C128.532 164.15 128.708 164.077 128.929 164.077C129.547 164.077 129.978 164.5 129.978 165.178V166.377C129.978 166.557 129.832 166.703 129.652 166.703C129.472 166.703 129.326 166.557 129.326 166.377V165.263C129.326 164.924 129.105 164.698 128.787 164.698C128.47 164.698 128.248 164.924 128.248 165.263V166.377C128.248 166.557 128.102 166.703 127.922 166.703Z" fill="white"/>
<path d="M130.902 166.703C130.722 166.703 130.576 166.557 130.576 166.377V164.587C130.576 164.321 130.792 164.105 131.058 164.105L131.172 164.359C131.234 164.308 131.308 164.257 131.381 164.218C131.512 164.15 131.688 164.077 131.909 164.077C132.527 164.077 132.958 164.5 132.958 165.178V166.377C132.958 166.557 132.812 166.703 132.632 166.703C132.452 166.703 132.306 166.557 132.306 166.377V165.263C132.306 164.924 132.085 164.698 131.767 164.698C131.449 164.698 131.228 164.924 131.228 165.263V166.377C131.228 166.557 131.082 166.703 130.902 166.703Z" fill="white"/>
<path d="M135.2 165.912H135.881C135.745 166.302 135.308 166.731 134.718 166.731C134.015 166.731 133.414 166.138 133.414 165.404C133.414 164.67 134.015 164.077 134.718 164.077C135.399 164.077 135.966 164.613 135.966 165.404C135.966 165.466 135.955 165.522 135.949 165.573L135.938 165.658H134.123C134.185 165.912 134.378 166.11 134.718 166.11C134.894 166.11 135.002 166.065 135.087 166.014C135.132 165.986 135.172 165.952 135.2 165.912ZM134.095 165.206H135.342C135.28 164.918 135.059 164.698 134.718 164.698C134.378 164.698 134.157 164.918 134.095 165.206Z" fill="white"/>
<path d="M138.177 165.743H138.829C138.71 166.257 138.233 166.731 137.61 166.731C136.906 166.731 136.305 166.138 136.305 165.404C136.305 164.67 136.906 164.077 137.61 164.077C138.233 164.077 138.71 164.551 138.829 165.065H138.177C138.148 164.997 138.103 164.935 138.052 164.884C137.961 164.794 137.819 164.698 137.61 164.698C137.241 164.698 136.957 164.975 136.957 165.404C136.957 165.833 137.241 166.11 137.61 166.11C137.819 166.11 137.961 166.02 138.052 165.929C138.103 165.878 138.148 165.816 138.177 165.743Z" fill="white"/>
<path d="M139.481 165.799V164.698H139.084V164.161H139.254C139.464 164.161 139.566 164.06 139.566 163.851V163.483C139.879 163.483 140.133 163.737 140.133 164.051V164.105H140.404C140.568 164.105 140.701 164.238 140.701 164.401C140.701 164.565 140.568 164.698 140.404 164.698H140.133V165.771C140.133 165.997 140.275 166.138 140.502 166.138C140.564 166.138 140.598 166.133 140.627 166.127L140.672 166.11V166.675C140.644 166.686 140.615 166.697 140.581 166.703C140.519 166.72 140.445 166.731 140.36 166.731C139.844 166.731 139.481 166.364 139.481 165.799Z" fill="white"/>
<path d="M123.481 165.743H124.133C124.014 166.257 123.538 166.731 122.914 166.731C122.211 166.731 121.609 166.138 121.609 165.404C121.609 164.67 122.211 164.077 122.914 164.077C123.538 164.077 124.014 164.551 124.133 165.065H123.481C123.453 164.997 123.407 164.935 123.356 164.884C123.266 164.794 123.124 164.698 122.914 164.698C122.545 164.698 122.262 164.975 122.262 165.404C122.262 165.833 122.545 166.11 122.914 166.11C123.124 166.11 123.266 166.02 123.356 165.929C123.407 165.878 123.453 165.816 123.481 165.743Z" fill="white"/>
<path d="M174.921 217.104C174.936 217.087 174.776 216.91 174.459 216.587C174.084 216.218 173.618 215.759 173.048 215.2C171.749 213.936 169.984 212.22 167.834 210.13C163.435 205.846 157.377 199.908 150.727 193.307C144.135 186.706 138.17 180.733 133.77 176.328C131.658 174.198 129.926 172.45 128.649 171.163C128.081 170.603 127.615 170.144 127.24 169.775C126.913 169.463 126.733 169.306 126.716 169.322C126.7 169.338 126.847 169.525 127.143 169.868C127.495 170.261 127.931 170.747 128.463 171.342C129.617 172.615 131.318 174.429 133.434 176.655C137.671 181.104 143.604 187.175 150.261 193.779C156.913 200.382 163.026 206.27 167.511 210.47C169.752 212.57 171.589 214.246 172.872 215.391C173.476 215.913 173.97 216.342 174.368 216.688C174.716 216.976 174.906 217.12 174.921 217.104Z" fill="#EB996E"/>
<path d="M83.1008 124.242L96.0255 129.275C96.0255 129.275 103.127 129.345 104.043 131.636C104.959 133.926 105.876 136.217 105.876 136.217C105.876 136.217 110.228 137.316 111.145 139.745C112.061 142.173 119.621 158.667 119.621 158.667L126.723 169.318L112.291 181.345C112.291 181.345 109.313 177.451 106.335 175.389C103.357 173.328 90.9862 162.954 90.758 160.123C90.5285 157.292 83.8412 141.432 83.7689 139.745C83.6967 138.058 83.5204 134.385 85.1926 135.302C86.8635 136.219 89.1543 140.8 89.1543 140.8L87.5506 134.615C87.5506 134.615 86.563 134.039 85.1926 132.324C83.4811 130.183 83.2529 127.75 83.2529 127.75L83.1008 124.242Z" fill="#FFBE9D"/>
<path d="M110.246 161.554C110.286 161.523 109.807 160.843 108.916 159.658C107.932 158.379 106.649 156.71 105.114 154.714L105.04 154.619L104.914 154.617C103.418 154.605 101.761 154.59 99.9899 154.573L99.8111 154.572L99.7186 154.746C99.2115 155.696 98.4484 156.726 97.4 157.177C96.9056 157.404 96.259 157.366 95.6049 157.405C94.9647 157.422 94.2916 157.417 93.6666 157.344L93.9138 157.817C94.1952 157.256 94.4944 156.658 94.7961 156.054C95.8939 153.847 96.9499 151.723 97.94 149.731L97.6586 149.904C100.922 149.876 103.87 149.851 106.36 149.831L106.255 149.807C108.202 150.714 109.822 151.471 111.076 152.055C112.222 152.573 112.865 152.839 112.886 152.796C112.907 152.754 112.303 152.407 111.194 151.816C109.964 151.181 108.376 150.361 106.467 149.374L106.42 149.35H106.36C103.872 149.329 100.922 149.305 97.6586 149.277L97.4659 149.275L97.3772 149.45C96.3769 151.438 95.3121 153.558 94.2054 155.76C93.9036 156.364 93.6057 156.961 93.3243 157.523L93.1139 157.945L93.5715 157.996C94.289 158.076 94.952 158.075 95.6226 158.056C95.9548 158.038 96.2844 158.02 96.6115 158.002C96.9436 157.982 97.3264 157.905 97.6434 157.766C98.944 157.172 99.697 156.072 100.261 155.002L99.9899 155.174C101.761 155.159 103.416 155.144 104.914 155.13L104.713 155.033C106.32 156.974 107.662 158.596 108.69 159.838C109.65 160.969 110.205 161.586 110.246 161.554Z" fill="#EB996E"/>
<path d="M105.852 141.816C105.852 141.767 105.088 141.72 103.718 141.678C102.221 141.65 100.274 141.614 97.9436 141.569L96.9459 141.55L97.8333 142.038C99.0364 142.7 100.451 143.461 101.603 144.565C101.886 144.849 102.089 145.173 101.971 145.368C101.87 145.632 101.493 145.898 101.141 146.106C100.399 146.525 99.5295 146.845 98.651 147.106L98.7372 147.095C97.1475 146.994 95.426 146.362 93.8654 145.481C92.5381 144.737 92.1528 143.042 92.0032 141.582C91.8764 140.076 91.9689 138.581 92.1819 137.217L91.9043 137.464C95.9216 137.146 99.3698 136.872 101.965 136.667C103.107 136.555 104.059 136.463 104.832 136.388C105.497 136.312 105.854 136.256 105.852 136.222C105.849 136.188 105.488 136.18 104.82 136.194C104.043 136.223 103.087 136.259 101.941 136.302C99.3419 136.446 95.8874 136.638 91.8637 136.861L91.6254 136.874L91.5861 137.108C91.3465 138.539 91.2375 140.049 91.3604 141.64C91.4276 142.432 91.5772 143.246 91.884 144.04C92.1807 144.823 92.7346 145.616 93.5396 146.057C95.1889 146.977 96.9231 147.634 98.7372 147.739L98.7778 147.742L98.8247 147.728C99.7564 147.442 100.632 147.114 101.453 146.642C101.846 146.383 102.28 146.149 102.529 145.599C102.673 145.323 102.585 144.945 102.464 144.726C102.334 144.503 102.182 144.321 102.023 144.16C100.717 142.955 99.3153 142.259 98.0539 141.598L97.9424 142.067C100.274 142.023 102.22 141.986 103.717 141.958C105.088 141.913 105.852 141.866 105.852 141.816Z" fill="#EB996E"/>
<path d="M126.722 169.317C126.729 169.312 126.695 169.247 126.623 169.123C126.531 168.975 126.422 168.797 126.288 168.577C125.961 168.064 125.513 167.366 124.944 166.475C123.723 164.607 121.979 161.937 119.773 158.563L119.787 158.588C118.408 155.468 116.772 151.765 114.925 147.583C113.996 145.488 113.012 143.272 111.983 140.951C111.712 140.355 111.495 139.818 111.166 139.153C110.808 138.54 110.288 138.059 109.73 137.656C108.597 136.86 107.318 136.321 105.948 135.932L106.147 136.107C105.756 135.123 105.358 134.119 104.952 133.097C104.749 132.586 104.544 132.072 104.337 131.552C104.071 130.921 103.526 130.535 103.006 130.246C101.928 129.707 100.77 129.45 99.602 129.266C98.4293 129.088 97.2453 128.986 96.0295 128.956L96.141 128.977C91.9854 127.354 87.6649 125.668 83.2202 123.933L82.7486 123.749L82.774 124.254C82.8335 125.464 82.8602 126.666 82.9502 127.973C83.1581 129.268 83.6221 130.52 84.3231 131.658C85.17 132.927 86.1132 134.006 87.386 134.896L87.2326 134.695C87.7803 136.802 88.3178 138.871 88.8388 140.879L89.4474 140.651C88.92 139.621 88.3546 138.637 87.7334 137.684C87.0856 136.748 86.4783 135.79 85.4539 135.088C85.2017 134.932 84.8277 134.744 84.3992 134.901C83.9935 135.067 83.816 135.424 83.7096 135.701C83.4991 136.286 83.4636 136.847 83.4281 137.403C83.4015 137.958 83.4078 138.504 83.4268 139.046C83.4433 139.321 83.4344 139.573 83.4737 139.862C83.5181 140.171 83.5891 140.448 83.6715 140.698C85.0001 144.78 86.5607 148.53 87.8944 152.166C88.5688 153.977 89.223 155.741 89.7896 157.467C90.0521 158.327 90.3538 159.196 90.4717 160.015C90.6276 161.014 91.2273 161.731 91.7255 162.427C93.9073 165.112 96.2868 167.221 98.4281 169.157C100.588 171.074 102.596 172.728 104.394 174.133C105.283 174.84 106.174 175.449 106.941 176.017C107.705 176.605 108.361 177.198 108.934 177.746C110.075 178.85 110.894 179.771 111.447 180.394C111.701 180.687 111.907 180.922 112.069 181.108C112.21 181.268 112.283 181.349 112.292 181.343C112.301 181.336 112.243 181.244 112.117 181.07C111.966 180.874 111.776 180.625 111.539 180.317C111.016 179.665 110.223 178.717 109.099 177.579C108.535 177.013 107.885 176.401 107.118 175.789C106.334 175.188 105.487 174.588 104.603 173.867C102.835 172.442 100.849 170.768 98.7158 168.835C96.6063 166.889 94.2407 164.75 92.1312 162.115C91.6456 161.439 91.1094 160.742 90.9991 159.958C90.8685 159.024 90.5718 158.186 90.3107 157.3C89.7491 155.553 89.1038 153.783 88.4357 151.965C87.1223 148.329 85.563 144.531 84.2724 140.526C84.19 140.27 84.133 140.029 84.0987 139.81C84.0632 139.57 84.0696 139.285 84.0556 139.025C84.0391 138.494 84.0341 137.962 84.0607 137.434C84.1063 136.473 84.3181 134.971 85.1193 135.635C85.9306 136.183 86.5822 137.138 87.1908 138.039C87.7917 138.966 88.3533 139.944 88.8629 140.942L90.2169 143.596L89.4715 140.714C88.9517 138.706 88.4167 136.636 87.8703 134.529L87.8399 134.412L87.7169 134.327C86.6482 133.585 85.6327 132.457 84.8835 131.31C84.2344 130.258 83.7932 129.063 83.603 127.877C83.5232 126.678 83.489 125.408 83.4306 124.226L82.9831 124.546C87.4304 126.273 91.7534 127.953 95.9129 129.568L95.9623 129.587L96.0244 129.59C98.352 129.68 100.763 129.868 102.722 130.788C103.185 131.041 103.598 131.354 103.777 131.776C103.986 132.295 104.193 132.81 104.398 133.319C104.809 134.338 105.212 135.341 105.607 136.324L105.662 136.458L105.808 136.499C107.096 136.858 108.357 137.384 109.404 138.115C109.923 138.484 110.389 138.919 110.692 139.434C110.946 139.933 111.221 140.586 111.479 141.146C112.528 143.465 113.528 145.677 114.474 147.77C116.367 151.94 118.044 155.632 119.456 158.743L119.463 158.757L119.47 158.768C121.737 162.102 123.531 164.739 124.785 166.584C125.388 167.452 125.861 168.133 126.208 168.632C126.359 168.841 126.482 169.01 126.583 169.151C126.667 169.266 126.715 169.322 126.722 169.317Z" fill="#EB996E"/>
<path d="M146.179 188.754C146.359 188.725 145.769 184.197 144.861 178.641C143.954 173.083 143.073 168.603 142.893 168.633C142.713 168.663 143.302 173.19 144.21 178.747C145.118 184.302 145.999 188.784 146.179 188.754Z" fill="#001C38"/>
<defs>
<linearGradient id="paint0_linear_4491_128639" x1="105.25" y1="162.469" x2="110.273" y2="166.4" gradientUnits="userSpaceOnUse">
<stop stop-color="#3AC5EC"/>
<stop offset="1" stop-color="#C547E9"/>
</linearGradient>
<linearGradient id="paint1_linear_4491_128639" x1="105.25" y1="162.469" x2="110.273" y2="166.4" gradientUnits="userSpaceOnUse">
<stop stop-color="#3AC5EC"/>
<stop offset="1" stop-color="#C547E9"/>
</linearGradient>
<linearGradient id="paint2_linear_4491_128639" x1="105.25" y1="162.469" x2="110.273" y2="166.4" gradientUnits="userSpaceOnUse">
<stop stop-color="#3AC5EC"/>
<stop offset="1" stop-color="#C547E9"/>
</linearGradient>
<linearGradient id="paint3_linear_4491_128639" x1="105.25" y1="162.469" x2="110.273" y2="166.4" gradientUnits="userSpaceOnUse">
<stop stop-color="#3AC5EC"/>
<stop offset="1" stop-color="#C547E9"/>
</linearGradient>
</defs>
</svg>
