<svg width="30" height="30" viewBox="0 0 30 30" fill="none" xmlns="http://www.w3.org/2000/svg">
<g id="Google__G__Logo 2" clip-path="url(#clip0_4290_48)">
<g id="Group">
<path id="Vector" d="M15.0118 12.2727V18.0818H23.0909C22.7361 19.95 21.6715 21.5319 20.0748 22.5955L24.9468 26.3729C27.7854 23.7548 29.4231 19.9092 29.4231 15.3411C29.4231 14.2774 29.3276 13.2546 29.1501 12.2729L15.0118 12.2727Z" fill="#4285F4"/>
<path id="Vector_2" d="M6.59874 17.8552L5.49991 18.6957L1.61041 21.7229C4.08054 26.6184 9.14326 30.0003 15.0115 30.0003C19.0646 30.0003 22.4627 28.6639 24.9465 26.373L20.0745 22.5957C18.7371 23.4957 17.0312 24.0412 15.0115 24.0412C11.1084 24.0412 7.79226 21.4094 6.60487 17.8639L6.59874 17.8552Z" fill="#34A853"/>
<path id="Vector_3" d="M1.61043 8.27734C0.586949 10.2955 0.000183105 12.5728 0.000183105 15C0.000183105 17.4273 0.586949 19.7046 1.61043 21.7227C1.61043 21.7362 6.60537 17.8499 6.60537 17.8499C6.30513 16.9499 6.12767 15.9955 6.12767 14.9999C6.12767 14.0043 6.30513 13.0498 6.60537 12.1498L1.61043 8.27734Z" fill="#FBBC05"/>
<path id="Vector_4" d="M15.0118 5.97276C17.2227 5.97276 19.1878 6.73638 20.7572 8.20913L25.056 3.91371C22.4494 1.48646 19.065 0 15.0118 0C9.14356 0 4.08054 3.36819 1.61041 8.27733L6.6052 12.1501C7.79243 8.60457 11.1087 5.97276 15.0118 5.97276Z" fill="#EA4335"/>
</g>
</g>
<defs>
<clipPath id="clip0_4290_48">
<rect width="29.4231" height="30" fill="white"/>
</clipPath>
</defs>
</svg>
