<svg width="50" height="50" viewBox="0 0 50 50" fill="none" xmlns="http://www.w3.org/2000/svg">
<rect width="50" height="50" rx="5" fill="#383192"/>
<path fill-rule="evenodd" clip-rule="evenodd" d="M17.1873 14.9655C17.9347 15.0738 18.7178 15.4525 19.3763 15.9755C15.7992 16.3543 13.0051 37.0364 12.9873 40.7697C12.9873 40.9885 13.0028 41.1915 13.0193 41.4082C13.0205 41.4237 13.0217 41.4394 13.0229 41.4551H12.7559C7.20339 41.4551 4.58729 39.7417 4.58729 39.7417C4.26695 39.5613 4 39.1105 4 38.9301C4.07119 36.8741 4.56949 18.23 4.56949 18.23C5.01441 16.6428 6.72288 15.2 8.32458 14.9655H8.68051C8.85847 14.9655 9.12542 15.0196 9.2678 15.1098C9.2678 15.1098 9.55254 15.2721 9.83729 15.3984C10.7093 15.7771 11.7237 15.9936 12.7737 15.9936C13.8237 15.9936 14.8203 15.7771 15.6924 15.3984C15.9771 15.2721 16.2619 15.1098 16.2619 15.1098C16.4042 15.0377 16.6712 14.9655 16.8492 14.9655H17.1873ZM7.75508 9.08599C7.75508 11.8995 9.99746 14.172 12.7737 14.172C15.55 14.172 17.7924 11.8995 17.7924 9.08599C17.7924 6.27246 15.55 4 12.7737 4C9.99746 4 7.75508 6.27246 7.75508 9.08599ZM30.6237 15.9755C31.2822 15.4525 32.0653 15.0738 32.8127 14.9655H33.1508C33.3288 14.9655 33.5958 15.0377 33.7381 15.1098C33.7381 15.1098 34.0229 15.2721 34.3076 15.3984C35.1797 15.7771 36.1763 15.9936 37.2263 15.9936C38.2763 15.9936 39.2907 15.7771 40.1627 15.3984C40.4475 15.2721 40.7322 15.1098 40.7322 15.1098C40.8746 15.0196 41.1415 14.9655 41.3195 14.9655H41.6754C43.2771 15.2 44.9856 16.6428 45.4305 18.23C45.4305 18.23 45.9288 36.8741 46 38.9301C46 39.1105 45.733 39.5613 45.4127 39.7417C45.4127 39.7417 42.7966 41.4551 37.2441 41.4551H36.9771L36.9807 41.4082C36.9972 41.1915 37.0127 40.9885 37.0127 40.7697C36.9949 37.0364 34.2008 16.3543 30.6237 15.9755ZM37.2263 14.172C40.0025 14.172 42.2449 11.8995 42.2449 9.08599C42.2449 6.27246 40.0025 4 37.2263 4C34.45 4 32.2076 6.27246 32.2076 9.08599C32.2076 11.8995 34.45 14.172 37.2263 14.172ZM25.0178 16.4986C28.4169 16.4986 31.1932 13.7031 31.1932 10.2583C31.1932 6.81353 28.4347 4.01804 25.0178 4.01804C21.6186 4.01804 18.8602 6.79549 18.8602 10.2583C18.8602 13.7211 21.6186 16.4986 25.0178 16.4986ZM30.4814 17.4725H29.983C29.8051 17.4725 29.5559 17.5446 29.3958 17.6167C29.3958 17.6167 29.0042 17.8512 28.6483 17.9955C27.5805 18.4644 26.3525 18.7349 25.0534 18.7349C23.7542 18.7349 22.5441 18.4644 21.4585 18.0135C21.1025 17.8512 20.6932 17.6167 20.6932 17.6167C20.5508 17.5266 20.2839 17.4725 20.1059 17.4725H19.6254C17.65 17.725 15.5856 37.1266 14.9983 39.0564C14.9983 39.0564 14.3754 40.3549 14.2864 42.8799C14.2864 43.2045 14.5356 43.6374 14.8737 43.8177C14.8737 43.8177 18.2195 46 25.0356 46C31.8517 46 35.1975 43.8177 35.1975 43.8177C35.5356 43.6374 35.8025 43.1684 35.7847 42.8799C35.6958 40.3549 35.0907 39.1105 35.0907 39.1105C34.539 37.1807 32.439 17.761 30.4814 17.4725Z" fill="#F3F4F6"/>
</svg>
