<svg width="32" height="32" viewBox="0 0 32 32" fill="none" xmlns="http://www.w3.org/2000/svg">
<path d="M15.2602 0.165771C15.0485 0.257249 11.6601 3.28908 7.72355 6.89591C0.473379 13.5476 0 14.0442 0 14.8675C0.0124573 15.4295 0.460921 16.292 0.872014 16.5664C1.08379 16.6971 1.53225 16.8408 1.85614 16.8931C2.60358 16.9977 3.23891 17.4289 3.51297 18.017C3.71229 18.4352 3.7372 19.0232 3.7372 24.5511C3.7372 30.3795 3.74966 30.6409 3.98635 31.0591C4.12338 31.2943 4.4099 31.5949 4.63413 31.7386C5.02031 31.9869 5.26945 32 8.57065 32H12.0836V27.0341C12.0836 21.5846 12.0961 21.467 12.8061 21.1664C13.0553 21.0488 14.0643 21.0227 16.2319 21.0488C19.2715 21.088 19.2964 21.088 19.6078 21.4017L19.9317 21.7153V26.8642V32H23.3326C26.4718 32 26.7459 31.9739 27.1196 31.7386C27.9916 31.1898 27.9543 31.4642 28.029 24.4727C28.0913 18.3568 28.1038 18.1607 28.3529 17.8079C28.7889 17.1806 29.1751 16.9715 30.0222 16.8931C30.9191 16.8016 31.3302 16.5925 31.6915 16.096C31.9904 15.6647 32.1026 14.6192 31.8908 14.0834C31.7039 13.6391 17.5648 0.610092 16.8174 0.218044C16.3191 -0.0563885 15.7834 -0.069457 15.2602 0.165771Z" fill="white"/>
</svg>
