<svg width="515" height="344" viewBox="0 0 515 344" fill="none" xmlns="http://www.w3.org/2000/svg">
<g opacity="0.8">
<path d="M454.528 91.8131C454.528 91.8131 453.095 86.7886 446.289 84.276C439.483 81.7635 433.394 83.9169 431.245 85.7119C429.095 87.5062 427.662 90.0188 425.871 90.0188C424.081 90.0188 419.424 87.5062 415.125 89.3012C410.827 91.0955 411.185 93.6081 409.393 94.6848C407.603 95.7615 404.737 93.9672 401.513 94.6848C398.289 95.4024 395.065 98.2741 394.706 99.3508C394.348 100.428 393.632 100.068 390.766 100.068C387.901 100.068 385.035 104.016 385.035 104.016H476.021C476.021 104.016 472.081 95.4024 466.708 93.9665C461.334 92.5307 458.468 95.4024 457.394 95.0432C456.319 94.6841 454.528 91.8131 454.528 91.8131Z" fill="#F3F4F6" stroke="#17213A" stroke-miterlimit="10" stroke-linecap="round" stroke-linejoin="round"/>
<path d="M282.838 33.0622C282.838 33.0622 281.954 29.9616 277.754 28.4116C273.554 26.8616 269.796 28.1901 268.47 29.2977C267.144 30.4053 266.259 31.9553 265.154 31.9553C264.048 31.9553 261.175 30.4053 258.522 31.5122C255.869 32.6199 256.09 34.1698 254.985 34.8344C253.879 35.499 252.111 34.3914 250.122 34.8344C248.133 35.2775 246.143 37.049 245.922 37.7135C245.701 38.3781 245.258 38.1566 243.49 38.1566C241.722 38.1566 239.953 40.5926 239.953 40.5926H296.101C296.101 40.5926 293.67 35.2775 290.354 34.3914C287.038 33.5053 285.27 35.2775 284.606 35.0559C283.944 34.8337 282.838 33.0622 282.838 33.0622Z" fill="#F3F4F6" stroke="#17213A" stroke-miterlimit="10" stroke-linecap="round" stroke-linejoin="round"/>
<path d="M66.8504 42.807C66.8504 42.807 65.966 39.7064 61.7663 38.1557C57.566 36.6058 53.8086 37.9342 52.4819 39.0418C51.1553 40.1494 50.2715 41.6994 49.166 41.6994C48.0605 41.6994 45.1868 40.1494 42.5342 41.2564C39.8816 42.364 40.1027 43.914 38.9972 44.5785C37.8916 45.2431 36.1235 44.1355 34.1342 44.5785C32.1449 45.0216 30.1549 46.7931 29.9338 47.4577C29.7127 48.1222 29.2705 47.9007 27.5024 47.9007C25.7342 47.9007 23.9653 50.3368 23.9653 50.3368H80.1134C80.1134 50.3368 77.6819 45.0216 74.366 44.1355C71.0501 43.2494 69.2819 45.0216 68.6186 44.8001C67.9559 44.5785 66.8504 42.807 66.8504 42.807Z" fill="#F3F4F6" stroke="#17213A" stroke-miterlimit="10" stroke-linecap="round" stroke-linejoin="round"/>
<path opacity="0.7" d="M320.327 62.9814C320.327 62.9814 266.239 43.6865 213.144 74.4061C160.051 105.125 133.261 166.106 110.255 214.954C87.25 263.803 100.492 313.49 141.022 336.146C181.552 358.801 209.112 325.404 265.969 323.777C322.826 322.151 338.117 330.306 385.298 298.082C432.478 265.859 441.006 189.757 403.789 133.448C366.571 77.1388 320.327 62.9814 320.327 62.9814Z" fill="#E0DFED"/>
<path d="M225.027 139.839H151.464V308.642H225.027V139.839Z" fill="#DBD9EB"/>
<path d="M225.027 139.839H151.464V308.642H225.027V139.839Z" fill="#C1BED7" stroke="#17213A"/>
<path d="M134.257 139.146H315.764L349.682 90.9911L385.226 140.505L427 139.838L381.973 79.2002L179.595 80.0394L134.257 139.146Z" fill="#17213A"/>
<path d="M225.028 139.838V308.643H406.276V139.838H385.5L349.682 90.9917L315.653 139.1L225.028 139.838Z" fill="#DBD9EB" stroke="#17213A"/>
<path d="M250.637 308.644V235.458H293.028V308.644" fill="#C1BED7"/>
<path d="M250.637 308.644V235.458H293.028V308.644" stroke="#17213A"/>
<path d="M385.227 233.397H318.441V274.767H385.227V233.397Z" fill="#F3F3F3" stroke="#17213A"/>
<path d="M385.227 150.597H318.441V191.967H385.227V150.597Z" fill="#F3F3F3" stroke="#17213A"/>
<path d="M288.605 150.969H246.487V190.85H288.605V150.969Z" fill="#F3F3F3" stroke="#17213A"/>
<path d="M337.724 233.397V275.151" stroke="#17213A" stroke-miterlimit="10"/>
<path d="M365.497 233.397V275.151" stroke="#17213A" stroke-miterlimit="10"/>
<path d="M337.724 255.534H365.496" stroke="#17213A" stroke-miterlimit="10"/>
<path d="M337.724 150.597V192.353" stroke="#17213A" stroke-miterlimit="10"/>
<path d="M365.497 150.597V192.353" stroke="#17213A" stroke-miterlimit="10"/>
<path d="M337.724 172.734H365.496" stroke="#17213A" stroke-miterlimit="10"/>
<path d="M267.545 150.971V190.85" stroke="#17213A" stroke-miterlimit="10"/>
<path d="M246.487 171.892H288.605" stroke="#17213A" stroke-miterlimit="10"/>
<path d="M358.506 123.216C358.506 128.148 354.507 132.147 349.575 132.147C344.643 132.147 340.644 128.148 340.644 123.216C340.644 118.284 344.643 114.285 349.575 114.285C354.509 114.285 358.506 118.281 358.506 123.216Z" fill="#F3F3F3" stroke="#17213A"/>
<path d="M285.871 112.26L297.142 98.36V64.9219H273.541V112.521L285.871 112.26Z" fill="#DBD9EB"/>
<path opacity="0.2" d="M285.871 112.26V64.9219H297.142V98.36L285.871 112.26Z" fill="#7A7B93"/>
<path d="M298.74 60H270.915V64.9221H298.74V60Z" fill="#DBD9EB"/>
<path d="M227.136 213.682H88.1514V308.644H227.136V213.682Z" fill="#DBD9EB" stroke="#17213A"/>
<path d="M173.847 213.682H88.1514V308.644H173.847V213.682Z" fill="#C1BED7" stroke="#17213A"/>
<path d="M155.796 308.475C155.756 308.475 155.714 308.052 155.677 307.242C155.648 306.3 155.611 305.123 155.564 303.676C155.515 300.395 155.449 295.899 155.365 290.33C155.301 278.765 155.212 262.781 155.111 244.296L155.793 244.978C147.864 244.988 139.294 244.998 130.422 245.007C121.545 244.998 112.974 244.988 105.042 244.978L105.723 244.296C105.622 262.784 105.534 278.77 105.47 290.332C105.386 295.902 105.32 300.395 105.27 303.679C105.226 305.126 105.187 306.302 105.157 307.245C105.118 308.054 105.079 308.477 105.039 308.477C105 308.477 104.96 308.054 104.921 307.245C104.891 306.302 104.855 305.126 104.808 303.679C104.759 300.398 104.692 295.902 104.608 290.332C104.545 278.77 104.458 262.784 104.355 244.296L104.353 243.614H105.037C112.969 243.605 121.54 243.595 130.417 243.585C139.289 243.595 147.859 243.605 155.788 243.614H156.472L156.47 244.296C156.369 262.781 156.28 278.765 156.216 290.33C156.133 295.899 156.066 300.395 156.017 303.676C155.973 305.123 155.936 306.3 155.904 307.242C155.877 308.052 155.837 308.475 155.796 308.475Z" fill="#263238"/>
<path d="M220.673 241.857H184.567V251.051H220.673V241.857Z" fill="#C1BED7" stroke="#17213A"/>
<path d="M134.257 139.145V144.033H315.653V139.099L134.257 139.145Z" fill="#3D4E78"/>
<path d="M315.653 144.034L349.576 96.4134L349.682 90.9917L315.764 139.147L315.653 144.034Z" fill="#3D4E78"/>
<path d="M426.127 139.839H385.5V142.992H426.127V139.839Z" fill="#3D4E78"/>
<path d="M278.572 224.243H263.582V229.943H278.572V224.243Z" fill="#17213A"/>
<path d="M289.615 272.384C289.472 272.423 289.502 271.439 288.49 270.728C288.008 270.393 287.257 270.233 286.553 270.514C285.854 270.774 285.266 271.52 285.274 272.381C285.266 273.243 285.854 273.991 286.553 274.252C287.257 274.532 288.008 274.372 288.49 274.038C289.504 273.329 289.475 272.345 289.615 272.384C289.686 272.31 290.033 273.43 288.857 274.518C288.291 275.017 287.289 275.335 286.285 274.99C285.291 274.68 284.407 273.624 284.42 272.381C284.407 271.139 285.288 270.085 286.285 269.775C287.289 269.431 288.288 269.748 288.854 270.248C290.033 271.338 289.686 272.455 289.615 272.384Z" fill="#263238"/>
<path d="M40.4063 280.634C41.5379 280.938 44.126 280.488 44.128 280.488C44.1548 280.483 43.3143 278.869 43.2498 278.773C42.5006 277.664 40.4029 275.964 38.967 276.383C37.9322 276.685 37.5037 277.833 37.8917 278.793C38.2872 279.775 39.4429 280.374 40.4063 280.634Z" fill="#17213A"/>
<path d="M58.015 308.677H58.9517C58.9482 308.667 58.9448 308.658 58.9414 308.647C58.699 307.968 58.427 307.247 58.14 306.509C58.3028 306.414 59.2236 305.868 60.0201 305.251C60.9004 305.958 62.9851 306.627 63.255 306.712C63.0909 307.393 62.9247 308.054 62.7578 308.676H63.6684C63.8201 308.045 63.9712 307.382 64.1195 306.696C64.4065 306.713 66.7529 306.832 67.7781 306.433C68.7078 306.069 69.7914 305.348 70.0791 304.33C70.3606 303.333 69.8106 302.239 68.749 302.051C67.2761 301.791 65.3747 303.709 64.7505 304.892C64.7135 304.962 64.3983 305.764 64.2081 306.273C64.2747 305.957 64.3427 305.65 64.4072 305.324C64.5397 304.678 64.6524 304.031 64.776 303.335C64.824 302.996 64.8728 302.655 64.9215 302.309C64.9771 301.968 64.9929 301.601 65.0307 301.243C65.1014 300.412 65.1317 299.566 65.144 298.714C65.7078 298.828 67.7163 299.206 68.6948 298.987C69.6685 298.77 70.8488 298.221 71.2869 297.258C71.7161 296.316 71.3377 295.15 70.3167 294.803C68.9001 294.322 66.7309 295.93 65.9344 297.005C65.8842 297.072 65.4001 297.908 65.1426 298.371C65.1461 297.859 65.1516 297.348 65.1385 296.829C65.1001 295.332 65.0142 293.817 64.936 292.307C64.9112 291.844 64.8927 291.383 64.8728 290.92C65.0733 290.964 67.4505 291.464 68.5464 291.219C69.5201 291.001 70.7005 290.453 71.1386 289.49C71.5678 288.547 71.1894 287.382 70.1684 287.036C68.7518 286.554 66.5826 288.162 65.786 289.237C65.7263 289.318 65.03 290.521 64.868 290.836C64.8233 289.818 64.7883 288.804 64.7938 287.803C64.8 286.421 64.8824 285.067 65.0589 283.76C65.1516 283.78 67.6311 284.313 68.7538 284.063C69.7275 283.846 70.9079 283.297 71.346 282.334C71.7752 281.391 71.3968 280.227 70.3757 279.879C68.9584 279.398 66.79 281.006 65.9934 282.08C65.9309 282.165 65.1832 283.46 65.0644 283.704C65.0753 283.626 65.0774 283.544 65.0891 283.467C65.2951 282.075 65.6693 280.751 66.0806 279.53C66.3182 278.819 66.5846 278.154 66.8586 277.512C67.3104 277.659 69.3814 278.307 70.4162 278.193C71.4085 278.084 72.6417 277.669 73.1821 276.76C73.7122 275.87 73.4637 274.67 72.4872 274.214C71.1317 273.579 68.7991 274.939 67.89 275.919C67.8406 275.972 67.3983 276.571 67.0818 277.01C67.2095 276.723 67.3365 276.423 67.4643 276.15C67.9429 275.123 68.4448 274.212 68.8953 273.409C69.1555 272.955 69.3993 272.549 69.6314 272.172C70.1491 272.084 72.2332 271.705 73.0839 271.137C73.9134 270.582 74.8178 269.645 74.8803 268.588C74.9414 267.554 74.1689 266.604 73.0922 266.649C71.5973 266.712 70.1526 268.995 69.7969 270.285C69.766 270.397 69.4851 272.196 69.5119 272.192C69.5119 272.192 69.5373 272.187 69.5435 272.187C69.3121 272.545 69.069 272.933 68.8122 273.361C68.3432 274.156 67.8206 275.058 67.3173 276.079C66.8119 277.098 66.2921 278.219 65.8506 279.449C65.4063 280.682 65.0019 282.001 64.7608 283.415C64.7581 283.431 64.7574 283.448 64.7547 283.464C64.697 283.028 64.4958 281.816 64.4697 281.725C64.103 280.438 62.6391 278.167 61.1435 278.117C60.0668 278.081 59.3025 279.037 59.3719 280.071C59.4433 281.127 60.3545 282.057 61.1895 282.605C62.1309 283.223 64.5425 283.595 64.7348 283.624C64.5171 284.972 64.4038 286.373 64.366 287.797C64.344 288.612 64.3468 289.433 64.3598 290.256C64.298 289.881 64.2404 289.546 64.2266 289.5C63.8593 288.213 62.396 285.943 60.9004 285.892C59.823 285.855 59.0588 286.812 59.1288 287.846C59.1995 288.902 60.1114 289.832 60.9457 290.38C61.7931 290.935 63.8428 291.294 64.3859 291.382C64.3942 291.698 64.399 292.013 64.4093 292.329C64.4553 293.843 64.5075 295.354 64.5137 296.838C64.5164 297.361 64.4992 297.875 64.4841 298.391C64.4292 298.058 64.3798 297.778 64.3674 297.736C64 296.449 62.5367 294.178 61.0419 294.128C59.9645 294.092 59.2002 295.048 59.2703 296.082C59.3417 297.138 60.2529 298.068 61.0879 298.616C61.8961 299.146 63.7851 299.494 64.4306 299.601C64.3997 300.129 64.3688 300.657 64.3152 301.167C64.2706 301.514 64.2513 301.851 64.1875 302.197C64.1312 302.541 64.0756 302.882 64.0199 303.219C63.8895 303.864 63.759 304.532 63.6162 305.158C63.52 305.595 63.4205 306.009 63.3209 306.426C63.3243 305.906 63.3106 304.886 63.2996 304.801C63.1877 303.919 62.6617 302.536 61.8906 301.625C61.8748 301.495 61.848 301.366 61.8082 301.241C61.4944 300.254 60.4328 299.645 59.444 300.075C58.0713 300.672 57.5426 303.324 57.6731 304.655C57.6806 304.733 57.8592 305.577 57.9807 306.107C57.8619 305.807 57.75 305.513 57.6243 305.205C57.3792 304.594 57.1169 303.992 56.8367 303.342C56.6905 303.033 56.5428 302.722 56.3938 302.406C56.2524 302.091 56.0635 301.776 55.898 301.456C55.4991 300.724 55.0589 300.002 54.5996 299.284C55.1331 299.068 57.0166 298.273 57.7115 297.55C58.4044 296.83 59.0862 295.72 58.9221 294.675C58.7608 293.652 57.8042 292.889 56.7619 293.165C55.3151 293.546 54.3908 296.086 54.3187 297.423C54.3146 297.506 54.3702 298.47 54.4107 299C54.1313 298.571 53.8545 298.141 53.5579 297.716C52.7016 296.488 51.7966 295.273 50.8991 294.055C50.6238 293.683 50.3546 293.308 50.0827 292.935C50.2736 292.86 52.532 291.963 53.3114 291.153C54.0035 290.433 54.6861 289.323 54.522 288.278C54.3606 287.255 53.4041 286.492 52.3617 286.768C50.9149 287.149 49.9907 289.689 49.9186 291.026C49.9131 291.126 49.9955 292.514 50.0339 292.867C49.4365 292.043 48.8487 291.217 48.3021 290.378C47.5468 289.222 46.8698 288.047 46.2971 286.86C46.3863 286.825 48.7478 285.899 49.5457 285.07C50.2385 284.351 50.9211 283.241 50.7563 282.196C50.5956 281.172 49.6384 280.41 48.596 280.685C47.1492 281.067 46.2257 283.606 46.1529 284.943C46.1474 285.048 46.2366 286.541 46.2717 286.811C46.238 286.741 46.1948 286.671 46.1618 286.6C45.5671 285.324 45.151 284.014 44.8207 282.767C44.6278 282.044 44.4836 281.341 44.3586 280.655C44.8159 280.527 46.9007 279.923 47.7013 279.257C48.469 278.617 49.269 277.589 49.2195 276.532C49.1715 275.497 48.3035 274.634 47.2378 274.792C45.758 275.012 44.5612 277.435 44.3428 278.756C44.3311 278.828 44.2906 279.571 44.2693 280.113C44.2178 279.802 44.1588 279.482 44.1148 279.184C43.9487 278.062 43.8656 277.025 43.799 276.106C43.7653 275.583 43.7454 275.11 43.7317 274.667C44.1155 274.307 45.6447 272.84 46.0409 271.895C46.4282 270.973 46.6651 269.692 46.1357 268.776C45.6173 267.88 44.4499 267.515 43.5765 268.147C42.3645 269.026 42.4167 271.729 42.8294 273.002C42.8651 273.112 43.6218 274.767 43.6417 274.75C43.6417 274.75 43.6603 274.732 43.6651 274.728C43.6699 275.155 43.6802 275.612 43.7015 276.112C43.7475 277.034 43.8086 278.075 43.9514 279.205C44.0908 280.334 44.2742 281.557 44.5832 282.827C44.8915 284.1 45.2801 285.425 45.8576 286.737C45.8638 286.752 45.8727 286.766 45.8796 286.781C45.5919 286.449 44.7562 285.55 44.6841 285.489C43.6699 284.618 41.1986 283.533 39.9234 284.318C39.0054 284.883 38.8941 286.103 39.5217 286.926C40.1624 287.768 41.4348 288.04 42.4325 288.035C43.558 288.03 45.7745 287.007 45.9503 286.925C46.5113 288.17 47.1877 289.401 47.941 290.61C48.3708 291.301 48.8254 291.985 49.2889 292.664C49.0307 292.385 48.7979 292.138 48.7622 292.107C47.7473 291.236 45.276 290.152 44.0015 290.936C43.0828 291.501 42.9722 292.721 43.5998 293.545C44.2405 294.386 45.5129 294.658 46.5106 294.653C47.5235 294.649 49.4303 293.815 49.9323 293.588C50.1129 293.846 50.2907 294.106 50.4727 294.364C51.3448 295.602 52.2203 296.834 53.0422 298.068C53.332 298.503 53.6011 298.942 53.8731 299.38C53.6437 299.133 53.4487 298.927 53.4151 298.898C52.4002 298.028 49.9295 296.943 48.6544 297.727C47.7356 298.293 47.6251 299.513 48.2527 300.336C48.8934 301.178 50.1658 301.449 51.1635 301.445C52.1296 301.44 53.8971 300.686 54.4945 300.419C54.7589 300.876 55.0246 301.334 55.2601 301.789C55.4139 302.103 55.5842 302.395 55.7209 302.719C55.863 303.037 56.0038 303.352 56.1439 303.664C56.3904 304.274 56.6493 304.903 56.8745 305.504C57.0345 305.921 57.1794 306.323 57.327 306.726C57.0434 306.29 56.4707 305.447 56.4144 305.382C55.5437 304.367 53.2647 302.92 51.8859 303.502C50.8929 303.921 50.599 305.11 51.0948 306.02C51.6009 306.949 52.817 307.411 53.8044 307.557C54.8914 307.719 57.1478 307.082 57.4293 307C57.6367 307.576 57.8324 308.135 58.015 308.677Z" fill="#17213A"/>
<path d="M66.758 277.248C66.7834 277.259 66.9709 275.447 66.9695 275.332C66.9551 273.994 66.1414 271.416 64.7124 270.972C63.6831 270.652 62.6943 271.373 62.489 272.388C62.2795 273.425 62.9133 274.563 63.5739 275.312C64.3505 276.192 66.7566 277.246 66.758 277.248Z" fill="#17213A"/>
<path d="M16.3394 308.677H496.199" stroke="#17213A" stroke-miterlimit="10" stroke-linecap="round" stroke-linejoin="round"/>
<path d="M458.088 308.14V224.991H463.972V308.14H458.088Z" fill="#17213A" stroke="#17213A"/>
<path d="M464.472 224.492C464.472 224.671 462.931 224.816 461.03 224.816C459.129 224.816 457.588 224.671 457.588 224.492C457.588 224.313 459.129 224.167 461.03 224.167C462.931 224.167 464.472 224.312 464.472 224.492Z" fill="#DBD9EB"/>
<path opacity="0.2" d="M464.472 277.351L457.588 276.852V271.662H464.472V277.351Z" fill="#383192"/>
<path d="M500.698 230.905L425.456 224.296L421.369 271.04L496.611 277.649L500.698 230.905Z" fill="#383192"/>
<path d="M497.329 230.609L422.087 224L418 270.744L493.242 277.353L497.329 230.609Z" fill="#CEC8FF"/>
<path opacity="0.4" d="M497.686 237.881L483.572 237.233L497.589 238.997L497.686 237.881Z" fill="#383192"/>
<path opacity="0.4" d="M497.087 239.472L488.379 239.594L496.941 241.146L497.087 239.472Z" fill="#383192"/>
<path opacity="0.4" d="M419.028 258.877L426.64 258.954L419.126 257.761L419.028 258.877Z" fill="#383192"/>
<path opacity="0.4" d="M419.799 250.066L426.351 249.754L419.945 248.392L419.799 250.066Z" fill="#383192"/>
<path opacity="0.4" d="M494.285 272.386L487.733 272.698L494.139 274.06L494.285 272.386Z" fill="#383192"/>
<path d="M482.301 248.705L482.034 252.002L486.312 252.349L486.149 254.355L481.871 254.008L481.598 257.376L487.096 257.822L486.928 259.899L478.76 259.237L479.8 246.412L487.967 247.074L487.799 249.151L482.301 248.705Z" fill="#383192"/>
<path d="M476.812 248.642C476.718 248.771 476.625 248.864 476.531 248.922C476.444 248.974 476.332 248.995 476.197 248.984C476.067 248.973 475.929 248.917 475.783 248.817C475.644 248.71 475.478 248.596 475.286 248.474C475.094 248.352 474.872 248.236 474.62 248.126C474.369 248.011 474.069 247.939 473.721 247.911C473.109 247.861 472.638 247.963 472.309 248.215C471.98 248.461 471.798 248.805 471.763 249.247C471.74 249.53 471.803 249.772 471.953 249.974C472.109 250.171 472.317 250.348 472.577 250.505C472.843 250.663 473.145 250.809 473.484 250.943C473.824 251.078 474.17 251.224 474.525 251.384C474.881 251.537 475.225 251.713 475.559 251.912C475.893 252.111 476.185 252.352 476.435 252.633C476.691 252.915 476.886 253.251 477.02 253.641C477.161 254.026 477.21 254.487 477.166 255.023C477.119 255.607 476.971 256.146 476.724 256.642C476.482 257.133 476.154 257.554 475.74 257.906C475.327 258.252 474.828 258.511 474.245 258.683C473.667 258.856 473.022 258.913 472.309 258.855C471.903 258.823 471.499 258.748 471.099 258.633C470.705 258.518 470.326 258.371 469.961 258.194C469.601 258.016 469.265 257.811 468.952 257.578C468.639 257.345 468.368 257.092 468.142 256.818L469.021 255.626C469.094 255.537 469.185 255.467 469.296 255.417C469.407 255.361 469.522 255.338 469.64 255.347C469.799 255.36 469.962 255.433 470.129 255.565C470.297 255.697 470.489 255.843 470.708 256.003C470.926 256.163 471.181 256.314 471.472 256.457C471.768 256.599 472.129 256.688 472.553 256.722C473.172 256.772 473.661 256.67 474.02 256.414C474.384 256.159 474.589 255.751 474.635 255.192C474.661 254.868 474.597 254.598 474.442 254.384C474.293 254.17 474.089 253.985 473.829 253.827C473.569 253.67 473.269 253.53 472.929 253.407C472.589 253.279 472.242 253.141 471.886 252.994C471.53 252.846 471.185 252.676 470.851 252.483C470.516 252.289 470.225 252.046 469.976 251.753C469.727 251.46 469.533 251.107 469.394 250.692C469.262 250.278 469.22 249.773 469.268 249.178C469.307 248.701 469.439 248.246 469.663 247.813C469.888 247.381 470.197 247.006 470.591 246.687C470.985 246.369 471.455 246.126 472.003 245.957C472.556 245.788 473.177 245.732 473.867 245.788C474.639 245.85 475.342 246.029 475.977 246.323C476.617 246.613 477.147 246.988 477.567 247.449L476.812 248.642Z" fill="#383192"/>
<path d="M461.274 255.683C461.704 255.718 462.096 255.679 462.449 255.565C462.803 255.446 463.108 255.263 463.365 255.017C463.623 254.771 463.828 254.464 463.983 254.097C464.137 253.73 464.233 253.311 464.272 252.839L464.891 245.202L467.542 245.417L466.923 253.054C466.86 253.832 466.675 254.538 466.369 255.171C466.069 255.799 465.667 256.33 465.163 256.764C464.66 257.198 464.064 257.52 463.377 257.731C462.689 257.942 461.927 258.014 461.091 257.946C460.254 257.878 459.51 257.685 458.86 257.365C458.216 257.046 457.68 256.632 457.253 256.123C456.825 255.613 456.511 255.024 456.31 254.356C456.116 253.682 456.05 252.956 456.113 252.178L456.732 244.541L459.384 244.756L458.765 252.393C458.727 252.864 458.754 253.293 458.847 253.681C458.941 254.068 459.094 254.404 459.308 254.688C459.523 254.972 459.795 255.202 460.124 255.377C460.455 255.546 460.838 255.648 461.274 255.683Z" fill="#383192"/>
<path d="M454.435 250.806C454.359 251.743 454.13 252.599 453.746 253.374C453.369 254.15 452.868 254.807 452.243 255.343C451.624 255.88 450.898 256.284 450.063 256.555C449.229 256.819 448.32 256.911 447.336 256.832C446.352 256.752 445.47 256.514 444.689 256.119C443.909 255.717 443.254 255.202 442.724 254.572C442.194 253.941 441.802 253.213 441.549 252.385C441.301 251.559 441.216 250.677 441.292 249.74C441.368 248.803 441.594 247.95 441.971 247.179C442.354 246.404 442.858 245.748 443.483 245.211C444.108 244.675 444.837 244.274 445.671 244.01C446.506 243.739 447.415 243.644 448.399 243.724C449.383 243.803 450.265 244.044 451.045 244.445C451.826 244.841 452.478 245.356 453.002 245.992C453.532 246.622 453.92 247.35 454.168 248.177C454.422 248.998 454.511 249.875 454.435 250.806ZM451.722 250.586C451.776 249.914 451.736 249.306 451.603 248.761C451.469 248.21 451.25 247.736 450.944 247.337C450.645 246.934 450.264 246.615 449.803 246.382C449.347 246.143 448.819 246 448.218 245.951C447.617 245.902 447.07 245.959 446.576 246.12C446.083 246.276 445.654 246.529 445.287 246.879C444.927 247.223 444.637 247.657 444.417 248.178C444.197 248.694 444.06 249.288 444.005 249.96C443.95 250.638 443.99 251.252 444.123 251.802C444.257 252.347 444.473 252.818 444.773 253.216C445.079 253.615 445.463 253.934 445.924 254.173C446.385 254.406 446.916 254.547 447.517 254.595C448.118 254.644 448.663 254.59 449.15 254.434C449.643 254.272 450.07 254.019 450.43 253.675C450.796 253.331 451.089 252.901 451.309 252.385C451.529 251.863 451.667 251.263 451.722 250.586Z" fill="#383192"/>
<path d="M439.877 243.174L438.837 256L436.168 255.783L436.616 250.259L430.968 249.801L430.52 255.325L427.85 255.109L428.89 242.284L431.559 242.5L431.118 247.945L436.766 248.403L437.208 242.958L439.877 243.174Z" fill="#383192"/>
</g>
</svg>
