<svg width="250" height="34" viewBox="0 0 250 34" fill="none" xmlns="http://www.w3.org/2000/svg">
<path d="M19.4538 2.2067C20.1175 2.9063 20.644 3.73686 21.0032 4.65094L7.79664 4.65094C8.15583 3.73686 8.6823 2.9063 9.34599 2.2067C10.0097 1.50709 10.7976 0.952127 11.6647 0.573502C12.5319 0.194876 13.4613 0 14.3999 0C15.3385 0 16.2679 0.194876 17.1351 0.573501C18.0022 0.952127 18.7902 1.50709 19.4538 2.2067Z" fill="white"/>
<path d="M9.5051 31.7933C8.84141 31.0937 8.31494 30.2631 7.95575 29.3491H21.1623C20.8031 30.2631 20.2766 31.0937 19.613 31.7933C18.9493 32.4929 18.1614 33.0479 17.2942 33.4265C16.427 33.8051 15.4976 34 14.559 34C13.6204 34 12.691 33.8051 11.8239 33.4265C10.9567 33.0479 10.1688 32.4929 9.5051 31.7933Z" fill="white"/>
<path d="M11.8494 20.0472L8.03124 13.2186H19.3982C21.8228 13.2186 24.4606 13.0608 26.3985 14.5427C27.0159 15.0148 27.6102 15.629 28.3068 16.4321L28.5432 15.7281C30.2351 10.6893 26.5523 5.45283 21.3166 5.45283H7.17545C3.21256 5.45283 1.06563e-06 8.71988 1.06563e-06 12.75C1.06563e-06 16.7801 3.21256 20.0472 7.17545 20.0472H11.8494Z" fill="white"/>
<path d="M17.1096 13.9528L20.9277 20.7814H9.56072C7.13611 20.7814 4.49835 20.9392 2.56047 19.4573C1.943 18.9852 1.34879 18.371 0.652116 17.5679L0.415748 18.2719C-1.27612 23.3107 2.40666 28.5472 7.64232 28.5472H21.7835C25.7464 28.5472 28.9589 25.2801 28.9589 21.25C28.9589 17.2199 25.7464 13.9528 21.7835 13.9528H17.1096Z" fill="white"/>
<path d="M39.6232 29.4631C36.9726 29.4631 34.8238 27.3143 34.8238 24.6637V4.70215C37.4745 4.70215 39.6232 6.85092 39.6232 9.50155V29.4631Z" fill="white"/>
<path d="M46.4227 29.4631C45.3181 29.4631 44.4227 28.5676 44.4227 27.4631V14.7832C44.4227 12.9057 45.9447 11.3837 47.8222 11.3837L48.6221 13.1523C49.0621 12.7986 49.582 12.4449 50.1019 12.1697C51.0218 11.6981 52.2617 11.1872 53.8215 11.1872C58.181 11.1872 61.2206 14.1349 61.2206 18.8513V27.4631C61.2206 28.5676 60.3251 29.4631 59.2206 29.4631H58.6211C57.5166 29.4631 56.6211 28.5676 56.6211 27.4631V19.4408C56.6211 17.0826 55.0613 15.5105 52.8216 15.5105C50.5819 15.5105 49.0221 17.0826 49.0221 19.4408V27.4631C49.0221 28.5676 48.1267 29.4631 47.0221 29.4631H46.4227Z" fill="white"/>
<path d="M67.4357 29.4631C66.3311 29.4631 65.4357 28.5676 65.4357 27.4631V14.7833C65.4357 12.9057 66.9577 11.3837 68.8353 11.3837L69.6352 13.1523C69.9951 12.7986 70.4351 12.4449 70.875 12.1697C71.6349 11.6981 72.7148 11.1872 74.0346 11.1872C75.9144 11.1872 77.2342 11.7767 78.0741 12.3662C78.5541 12.72 78.954 13.113 79.234 13.5453C79.6739 13.113 80.1539 12.72 80.7138 12.3662C81.6737 11.7767 83.0335 11.1872 84.6333 11.1872C88.6328 11.1872 91.2325 13.7419 91.2325 18.6547V27.4631C91.2325 28.5676 90.3371 29.4631 89.2325 29.4631H88.633C87.5285 29.4631 86.633 28.5676 86.633 27.4631V19.0478C86.633 16.8468 85.2332 15.5105 83.6334 15.5105C82.0336 15.5105 80.6338 16.8468 80.6338 19.0478V27.4631C80.6338 28.5676 79.7384 29.4631 78.6338 29.4631H78.0344C76.9298 29.4631 76.0344 28.5676 76.0344 27.4631V19.0478C76.0344 16.8468 74.6345 15.5105 73.0347 15.5105C71.4349 15.5105 70.0351 16.8468 70.0351 19.0478V27.4631C70.0351 28.5676 69.1397 29.4631 68.0351 29.4631H67.4357Z" fill="white"/>
<path d="M103.631 15.5105C101.031 15.5105 99.0315 17.4363 99.0315 20.4234C99.0315 23.4104 101.031 25.3363 103.631 25.3363C106.231 25.3363 108.23 23.4104 108.23 20.4234C108.23 17.4363 106.231 15.5105 103.631 15.5105ZM103.631 11.1872C108.59 11.1872 112.83 15.314 112.83 20.4234C112.83 25.5328 108.59 29.6596 103.631 29.6596C98.6716 29.6596 94.4321 25.5328 94.4321 20.4234C94.4321 15.314 98.6716 11.1872 103.631 11.1872Z" fill="white"/>
<path d="M145.01 15.5105C142.41 15.5105 140.41 17.4363 140.41 20.4234C140.41 23.4104 142.41 25.3363 145.01 25.3363C147.609 25.3363 149.609 23.4104 149.609 20.4234C149.609 17.4363 147.609 15.5105 145.01 15.5105ZM145.01 11.1872C149.969 11.1872 154.209 15.314 154.209 20.4234C154.209 25.5328 149.969 29.6596 145.01 29.6596C140.05 29.6596 135.811 25.5328 135.811 20.4234C135.811 15.314 140.05 11.1872 145.01 11.1872Z" fill="white"/>
<path d="M159.589 29.4631C158.485 29.4631 157.589 28.5676 157.589 27.4631V13.3837C157.589 12.2791 158.485 11.3837 159.589 11.3837H160.989L161.789 13.1523C162.229 12.7986 162.749 12.4449 163.269 12.1697C164.189 11.6981 165.428 11.1872 166.988 11.1872C171.348 11.1872 174.387 14.1349 174.387 18.8513V27.4631C174.387 28.5676 173.492 29.4631 172.387 29.4631H171.788C170.683 29.4631 169.788 28.5676 169.788 27.4631V19.4408C169.788 17.0826 168.228 15.5105 165.988 15.5105C163.749 15.5105 162.189 17.0826 162.189 19.4408V27.4631C162.189 28.5676 161.293 29.4631 160.189 29.4631H159.589Z" fill="white"/>
<path d="M180.602 29.4631C179.498 29.4631 178.602 28.5676 178.602 27.4631V13.3837C178.602 12.2791 179.498 11.3837 180.602 11.3837H182.002L182.802 13.1523C183.242 12.7986 183.762 12.4449 184.282 12.1697C185.202 11.6981 186.441 11.1872 188.001 11.1872C192.361 11.1872 195.4 14.1349 195.4 18.8513V27.4631C195.4 28.5676 194.505 29.4631 193.4 29.4631H192.801C191.696 29.4631 190.801 28.5676 190.801 27.4631V19.4408C190.801 17.0826 189.241 15.5105 187.001 15.5105C184.762 15.5105 183.202 17.0826 183.202 19.4408V27.4631C183.202 28.5676 182.306 29.4631 181.202 29.4631H180.602Z" fill="white"/>
<path d="M211.214 23.9606H216.013C215.053 26.6726 211.974 29.6596 207.814 29.6596C202.855 29.6596 198.616 25.5328 198.616 20.4234C198.616 15.314 202.855 11.1872 207.814 11.1872C212.614 11.1872 216.613 14.9209 216.613 20.4234C216.613 20.8557 216.533 21.2487 216.493 21.6025L216.413 22.192H203.615C204.055 23.9606 205.415 25.3363 207.814 25.3363C209.054 25.3363 209.814 25.0218 210.414 24.6681C210.734 24.4716 211.014 24.2358 211.214 23.9606ZM203.415 19.0478H212.214C211.774 17.0433 210.214 15.5105 207.814 15.5105C205.415 15.5105 203.855 17.0433 203.415 19.0478Z" fill="white"/>
<path d="M232.202 22.7816H236.801C235.962 26.3581 232.602 29.6596 228.202 29.6596C223.243 29.6596 219.004 25.5328 219.004 20.4234C219.004 15.314 223.243 11.1872 228.202 11.1872C232.602 11.1872 235.962 14.4886 236.801 18.0652H232.202C232.002 17.5936 231.682 17.1612 231.322 16.8075C230.682 16.1786 229.682 15.5105 228.202 15.5105C225.603 15.5105 223.603 17.4363 223.603 20.4234C223.603 23.4104 225.603 25.3363 228.202 25.3363C229.682 25.3363 230.682 24.7074 231.322 24.0786C231.682 23.7248 232.002 23.2925 232.202 22.7816Z" fill="white"/>
<path d="M241.401 23.1746V15.5105H238.601V11.7767H239.801C241.281 11.7767 242.001 11.0692 242.001 9.61503V7.06033C244.21 7.06033 246 8.85097 246 11.0598V11.3837H248C249.104 11.3837 250 12.2791 250 13.3837V13.5105C250 14.6151 249.104 15.5105 248 15.5105H246V22.9781C246 24.5502 247 25.5328 248.6 25.5328C249.04 25.5328 249.28 25.4935 249.48 25.4542L249.8 25.3363V29.2666C249.6 29.3452 249.4 29.4238 249.16 29.4631C248.72 29.581 248.2 29.6596 247.6 29.6596C243.961 29.6596 241.401 27.1049 241.401 23.1746Z" fill="white"/>
<path d="M128.569 22.7816H133.169C132.329 26.3581 128.969 29.6596 124.57 29.6596C119.61 29.6596 115.371 25.5328 115.371 20.4234C115.371 15.314 119.61 11.1872 124.57 11.1872C128.969 11.1872 132.329 14.4886 133.169 18.0652H128.569C128.369 17.5936 128.049 17.1612 127.689 16.8075C127.05 16.1786 126.05 15.5105 124.57 15.5105C121.97 15.5105 119.97 17.4363 119.97 20.4234C119.97 23.4104 121.97 25.3363 124.57 25.3363C126.05 25.3363 127.05 24.7074 127.689 24.0786C128.049 23.7248 128.369 23.2925 128.569 22.7816Z" fill="white"/>
</svg>
