<svg width="18" height="18" viewBox="0 0 18 18" fill="none" xmlns="http://www.w3.org/2000/svg">
<rect width="18" height="18" rx="3" fill="#383192"/>
<path fill-rule="evenodd" clip-rule="evenodd" d="M11.25 3H6.75C5.75544 3 4.80161 3.39509 4.09835 4.09835C3.39509 4.80161 3 5.75544 3 6.75V11.25C3 12.2446 3.39509 13.1984 4.09835 13.9017C4.80161 14.6049 5.75544 15 6.75 15H11.25C12.2446 15 13.1984 14.6049 13.9017 13.9017C14.6049 13.1984 15 12.2446 15 11.25V6.75C15 5.75544 14.6049 4.80161 13.9017 4.09835C13.1984 3.39509 12.2446 3 11.25 3ZM13.875 11.25C13.875 12.6975 12.6975 13.875 11.25 13.875H6.75C5.3025 13.875 4.125 12.6975 4.125 11.25V6.75C4.125 5.3025 5.3025 4.125 6.75 4.125H11.25C12.6975 4.125 13.875 5.3025 13.875 6.75V11.25ZM9 6C8.20435 6 7.44129 6.31607 6.87868 6.87868C6.31607 7.44129 6 8.20435 6 9C6 9.79565 6.31607 10.5587 6.87868 11.1213C7.44129 11.6839 8.20435 12 9 12C9.79565 12 10.5587 11.6839 11.1213 11.1213C11.6839 10.5587 12 9.79565 12 9C12 8.20435 11.6839 7.44129 11.1213 6.87868C10.5587 6.31607 9.79565 6 9 6ZM9 10.875C8.5029 10.8744 8.02633 10.6767 7.67483 10.3252C7.32333 9.97367 7.1256 9.4971 7.125 9C7.125 7.96575 7.9665 7.125 9 7.125C10.0335 7.125 10.875 7.96575 10.875 9C10.875 10.0335 10.0335 10.875 9 10.875ZM12.6248 5.77501C12.6248 5.99578 12.4458 6.17476 12.2251 6.17476C12.0043 6.17476 11.8253 5.99578 11.8253 5.77501C11.8253 5.55423 12.0043 5.37526 12.2251 5.37526C12.4458 5.37526 12.6248 5.55423 12.6248 5.77501Z" fill="white"/>
</svg>
