<svg width="40" height="40" viewBox="0 0 40 40" fill="none" xmlns="http://www.w3.org/2000/svg">
<path fill-rule="evenodd" clip-rule="evenodd" d="M33.3333 0H6.66667C4.89919 0.00207489 3.20471 0.70512 1.95491 1.95491C0.70512 3.20471 0.00207489 4.89919 0 6.66667V33.3333C0.00207489 35.1008 0.70512 36.7953 1.95491 38.0451C3.20471 39.2949 4.89919 39.9979 6.66667 40H33.3333C35.1008 39.9979 36.7953 39.2949 38.0451 38.0451C39.2949 36.7953 39.9979 35.1008 40 33.3333V6.66667C39.9979 4.89919 39.2949 3.20471 38.0451 1.95491C36.7953 0.70512 35.1008 0.00207489 33.3333 0ZM16.9376 6.45172C17.1876 6.70177 17.3281 7.04091 17.3281 7.39453C17.3281 7.74815 17.1876 8.08728 16.9376 8.33732C16.6875 8.58737 16.3484 8.72785 15.9948 8.72787H9.33333C8.97971 8.72787 8.64057 8.58739 8.39052 8.33734C8.14048 8.08729 8 7.74815 8 7.39453C8 7.04091 8.14048 6.70177 8.39052 6.45172C8.64057 6.20167 8.97971 6.0612 9.33333 6.0612H15.9948C16.3484 6.0612 16.6875 6.20167 16.9376 6.45172ZM14.1711 14.6401C13.9211 14.3901 13.7806 14.051 13.7806 13.6973C13.7806 13.3437 13.9211 13.0046 14.1711 12.7545C14.4212 12.5045 14.7603 12.364 15.1139 12.364H28.8704C29.2241 12.364 29.5632 12.5045 29.8133 12.7545C30.0633 13.0046 30.2038 13.3437 30.2038 13.6973C30.2038 14.051 30.0633 14.3901 29.8133 14.6401C29.5632 14.8902 29.2241 15.0307 28.8704 15.0307H15.1139C14.7603 15.0307 14.4212 14.8902 14.1711 14.6401ZM21.3281 18.6667H30.6667C31.0203 18.6667 31.3594 18.8071 31.6095 19.0572C31.8595 19.3072 32 19.6464 32 20C32 20.3536 31.8595 20.6928 31.6095 20.9428C31.3594 21.1929 31.0203 21.3333 30.6667 21.3333H21.3281C20.9745 21.3333 20.6354 21.1929 20.3853 20.9428C20.1353 20.6928 19.9948 20.3536 19.9948 20C19.9948 19.6464 20.1353 19.3072 20.3853 19.0572C20.6354 18.8071 20.9745 18.6667 21.3281 18.6667ZM23.599 25.3599C23.8491 25.6099 23.9896 25.949 23.9896 26.3027C23.9896 26.6563 23.8491 26.9954 23.599 27.2455C23.349 27.4955 23.0099 27.636 22.6563 27.636H11.9538C11.6002 27.636 11.261 27.4955 11.011 27.2455C10.7609 26.9954 10.6204 26.6563 10.6204 26.3027C10.6204 25.949 10.7609 25.6099 11.011 25.3599C11.261 25.1098 11.6002 24.9693 11.9538 24.9693H22.6563C23.0099 24.9693 23.349 25.1098 23.599 25.3599ZM19.9792 31.2721H30.6667C31.0203 31.2721 31.3594 31.4126 31.6095 31.6627C31.8595 31.9127 32 32.2518 32 32.6055C32 32.9591 31.8595 33.2982 31.6095 33.5483C31.3594 33.7983 31.0203 33.9388 30.6667 33.9388H19.9792C19.6256 33.9388 19.2864 33.7983 19.0364 33.5483C18.7863 33.2982 18.6458 32.9591 18.6458 32.6055C18.6458 32.2518 18.7863 31.9127 19.0364 31.6627C19.2864 31.4126 19.6256 31.2721 19.9792 31.2721Z" fill="url(#paint0_linear_4697_29888)"/>
<defs>
<linearGradient id="paint0_linear_4697_29888" x1="0" y1="0" x2="42.2501" y2="39.3487" gradientUnits="userSpaceOnUse">
<stop stop-color="#3AC5EC"/>
<stop offset="1" stop-color="#C547E9"/>
</linearGradient>
</defs>
</svg>
