<svg width="41" height="40" viewBox="0 0 41 40" fill="none" xmlns="http://www.w3.org/2000/svg">
<path fill-rule="evenodd" clip-rule="evenodd" d="M12.1515 27.0386C12.2781 29.605 14.0661 34.6195 20.7479 33.4928C20.8065 33.5224 20.8663 33.5514 20.9273 33.5797C21.37 33.7853 21.8651 33.9313 22.4853 34.0385C24.2071 34.337 25.7172 35.6034 26.4261 37.3438L27.2406 39.3442C27.402 39.7406 27.7875 40 28.2155 40H32.4263C32.8066 40 33.1572 39.7941 33.3436 39.4627C33.53 39.131 33.5228 38.7239 33.3248 38.3991C33.3065 38.3689 32.2766 36.6537 31.397 34.0329C34.2494 33.0117 37.7961 30.3814 37.0201 25.5508C39.1518 23.6842 40.5 20.9439 40.5 17.8947C40.5 14.5179 38.807 11.3552 36.039 9.48056C36.0866 8.02223 35.438 6.59542 34.2517 5.62914C32.8697 4.50355 30.9903 4.18418 29.0895 4.71857C27.2307 1.7865 24.017 0 20.4996 0C17.2031 0 14.1668 1.56337 12.2579 4.21247C12.1983 4.21117 12.1387 4.21052 12.0789 4.21052C7.62887 4.21052 4.00875 7.83065 4.00875 12.2807C4.00875 12.4282 4.01268 12.575 4.0205 12.7212C1.88596 13.8655 0.5 16.1333 0.5 18.5965C0.5 22.2724 3.49067 25.2631 7.16663 25.2631C7.84336 25.2631 8.50178 25.1632 9.1334 24.9655C9.93397 25.9016 10.9737 26.6225 12.1515 27.0386ZM30.9856 23.8131C30.7022 23.8131 30.4363 23.7925 30.1913 23.7593C28.1563 23.4817 26.6312 22.2184 26.0754 21.162C25.8044 20.6473 26.0021 20.011 26.5164 19.7403C27.0331 19.4693 27.6677 19.6673 27.9381 20.1813C28.2002 20.6792 29.1881 21.4978 30.4757 21.6732C31.87 21.8644 33.2146 21.2836 34.4704 19.95C34.8682 19.5265 35.535 19.5063 35.9582 19.9055C36.3813 20.304 36.4012 20.9701 36.0027 21.3933C34.1921 23.3155 32.3781 23.8131 30.9856 23.8131ZM15.6454 11.7774C15.1291 11.7774 14.6781 11.397 14.6045 10.8707C14.3612 9.13483 14.8563 7.58981 15.9987 6.51936C17.297 5.30328 19.2237 4.88559 21.4222 5.34201C21.9917 5.46023 22.3573 6.01737 22.2391 6.58653C22.1209 7.15568 21.5606 7.52128 20.9946 7.40341C19.4848 7.0892 18.2215 7.32151 17.4378 8.05617C16.8098 8.6445 16.5439 9.54054 16.6891 10.5788C16.77 11.1544 16.3688 11.6866 15.7928 11.7671C15.7434 11.7743 15.6941 11.7774 15.6454 11.7774ZM22.5135 22.1673C22.2494 22.1673 21.9852 22.0686 21.7806 21.8702C19.1216 19.2914 16.5829 21.4145 16.3026 21.665C15.8702 22.0498 15.2058 22.0165 14.8179 21.5872C14.4301 21.1572 14.4599 20.4969 14.8875 20.1063C15.6631 19.3978 17.0635 18.5959 18.7072 18.5046C19.3059 17.3135 20.8008 14.9305 23.5521 13.922C26.0185 13.0174 28.833 13.4392 31.9145 15.1768C32.4209 15.4622 32.6001 16.104 32.3147 16.6104C32.0296 17.1169 31.3878 17.2968 30.881 17.0107C28.3667 15.5941 26.1494 15.2172 24.2925 15.8926C22.6123 16.5025 21.5233 17.868 20.9282 18.8436C21.6964 19.1311 22.4793 19.6148 23.2465 20.3591C23.6638 20.7638 23.6738 21.4303 23.2691 21.8476C23.0628 22.0604 22.7883 22.1673 22.5135 22.1673ZM9.07812 12.8652C9.03666 12.8652 8.99486 12.8628 8.95271 12.858C8.37535 12.7895 7.96313 12.2659 8.03132 11.6886C8.17044 10.517 9.1864 8.26649 12.0369 8.13286C12.6283 8.11401 13.1108 8.55466 13.1379 9.13512C13.1649 9.71592 12.7164 10.2087 12.1356 10.2361C10.3343 10.3204 10.1297 11.8705 10.1222 11.9367C10.0585 12.4719 9.60409 12.8652 9.07812 12.8652Z" fill="url(#paint0_linear_4697_35827)"/>
<defs>
<linearGradient id="paint0_linear_4697_35827" x1="0.5" y1="0" x2="42.7501" y2="39.3487" gradientUnits="userSpaceOnUse">
<stop stop-color="#3AC5EC"/>
<stop offset="1" stop-color="#C547E9"/>
</linearGradient>
</defs>
</svg>
