<svg width="41" height="40" viewBox="0 0 41 40" fill="none" xmlns="http://www.w3.org/2000/svg">
<path fill-rule="evenodd" clip-rule="evenodd" d="M19.5753 0.186494C19.3106 0.289406 15.0751 3.70022 10.1544 7.7579C1.09172 15.2411 0.5 15.7998 0.5 16.726C0.515572 17.3582 1.07615 18.3285 1.59002 18.6372C1.85474 18.7842 2.41532 18.9459 2.82018 19.0048C3.75448 19.1224 4.54864 19.6075 4.89121 20.2691C5.14036 20.7396 5.1715 21.4011 5.1715 27.62C5.1715 34.177 5.18707 34.471 5.48294 34.9415C5.65422 35.2061 6.01237 35.5442 6.29266 35.706C6.77538 35.9853 7.08682 36 11.2133 36H15.6045V30.4133C15.6045 24.2827 15.6201 24.1504 16.5077 23.8122C16.8182 23.6803 18.0731 23.6507 20.7663 23.6797C22.3928 20.8814 25.4231 19 28.8929 19C31.5351 19 33.9224 20.091 35.6291 21.847C35.6807 20.4323 35.7619 20.2623 35.9411 20.0339C36.4861 19.3282 36.9689 19.093 38.0277 19.0048C39.1489 18.9018 39.6628 18.6666 40.1143 18.1079C40.4881 17.6228 40.6282 16.4466 40.3635 15.8439C40.1299 15.344 22.4561 0.686354 21.5218 0.245301C20.8989 -0.0634362 20.2293 -0.078138 19.5753 0.186494ZM28.8929 22.1429C25.4411 22.1429 22.6429 24.9411 22.6429 28.3929C22.6429 31.8446 25.4411 34.6429 28.8929 34.6429C32.3446 34.6429 35.1429 31.8446 35.1429 28.3929C35.1429 24.9411 32.3446 22.1429 28.8929 22.1429ZM20.5 28.3929C20.5 23.7576 24.2576 20 28.8929 20C33.5281 20 37.2857 23.7576 37.2857 28.3929C37.2857 30.3243 36.6333 32.1033 35.5368 33.5216L40.1862 38.171C40.6046 38.5894 40.6046 39.2678 40.1862 39.6862C39.7678 40.1046 39.0894 40.1046 38.671 39.6862L34.0216 35.0368C32.6033 36.1333 30.8243 36.7857 28.8929 36.7857C24.2576 36.7857 20.5 33.0281 20.5 28.3929Z" fill="url(#paint0_linear_4433_32766)"/>
<defs>
<linearGradient id="paint0_linear_4433_32766" x1="0.5" y1="0" x2="42.7501" y2="39.3487" gradientUnits="userSpaceOnUse">
<stop stop-color="#3AC5EC"/>
<stop offset="1" stop-color="#C547E9"/>
</linearGradient>
</defs>
</svg>
