<svg width="41" height="40" viewBox="0 0 41 40" fill="none" xmlns="http://www.w3.org/2000/svg">
<path fill-rule="evenodd" clip-rule="evenodd" d="M20.5 0C9.45424 0 0.5 8.95434 0.5 20C0.5 31.0457 9.45424 40 20.5 40C31.5457 40 40.5 31.0457 40.5 20C40.5 8.95434 31.5457 0 20.5 0ZM18.428 37.0191C14.6334 36.5647 11.1224 34.8661 8.37809 32.1218C5.1402 28.8839 3.35711 24.579 3.35711 20C3.35711 15.8779 4.80288 11.9785 7.45337 8.87895C7.47654 9.15687 7.51126 9.4416 7.54534 9.72103L7.54534 9.72104C7.61166 10.265 7.67554 10.7888 7.64703 11.2035C7.63512 11.3762 7.62283 11.544 7.61085 11.7076L7.61085 11.7076C7.46417 13.7105 7.36466 15.0691 8.60279 16.8536C8.98315 17.4018 9.15434 18.1231 9.31758 18.811L9.31759 18.811C9.37826 19.0666 9.43784 19.3177 9.50665 19.5535C9.69559 20.2011 10.315 20.6145 10.9019 21.0062L10.9019 21.0062C11.0865 21.1293 11.2678 21.2504 11.4315 21.3759C11.7906 21.6511 12.1456 21.938 12.5001 22.2283V19.9669C11.5662 18.9855 11.5684 17.861 11.571 16.5011L11.5713 16.2796C11.8484 16.2898 12.153 16.2773 12.467 16.2643C12.7843 16.2512 13.1112 16.2377 13.4292 16.2469C13.4844 16.1883 13.5418 16.1317 13.6013 16.077L13.6086 16.0703L18.2719 11.8704L18.2679 11.8741L18.9445 12.6104L14.2778 16.8134C14.0308 17.0404 13.8337 17.3188 13.6996 17.6302C13.5654 17.9416 13.4974 18.2787 13.5001 18.6192V25.6029C13.5001 26.2386 13.7459 26.8483 14.1835 27.2979C14.6211 27.7474 15.2146 28 15.8334 28H25.1667C25.7855 28 26.379 27.7474 26.8166 27.2979C27.2542 26.8483 27.5 26.2386 27.5 25.6029V18.6112C27.5015 18.2721 27.433 17.9365 27.2989 17.6266C27.1648 17.3166 26.9683 17.0395 26.7222 16.8134L22.0556 12.6104C21.6278 12.2173 21.074 12 20.5 12C19.9261 12 19.3723 12.2173 18.9445 12.6104L18.2753 11.8674L18.2719 11.8704C18.8812 11.3124 19.6739 11 20.5 11C20.6606 11 20.8198 11.0118 20.9767 11.0349C21.2921 10.6845 21.479 10.3743 21.4226 10.1486C21.2439 9.43433 19.1607 7.41049 17.9371 7.72626C17.8213 7.75614 17.1343 8.44277 16.5653 9.01137L16.5653 9.01143C16.2337 9.34283 15.9422 9.63413 15.8274 9.73191C15.8357 9.17943 15.8439 8.62703 15.8524 8.07453C15.8553 7.88591 15.6648 7.6946 15.494 7.52308C15.3489 7.37737 15.2181 7.24595 15.2321 7.1426C15.283 6.76616 15.9939 6.18665 16.5829 5.70652C16.8836 5.46137 17.1526 5.24212 17.2857 5.08904C17.219 5.0474 17.1136 4.96864 16.9879 4.8748C16.5933 4.58013 15.9996 4.13674 15.7835 4.22674C15.4385 4.37054 15.0711 4.49198 14.7038 4.61341L14.7038 4.61341C14.3367 4.73474 13.9697 4.85607 13.6249 4.99972C13.6249 4.76049 13.5958 4.53578 13.5612 4.31385C14.9504 3.69932 16.4158 3.274 17.918 3.04924L19.2722 3.59347L20.2284 4.72818L21.1826 5.71212L22.0167 5.98087L23.3416 4.73135L23 3.83933V3.03751C25.6202 3.41808 28.0946 4.39558 30.2617 5.90289C29.9288 5.9327 29.5676 5.97896 29.1677 6.03016L29.1677 6.03017L28.9673 6.05578C28.8345 5.97729 28.6765 5.92747 28.5216 5.87864C28.445 5.85449 28.3692 5.83058 28.2976 5.80356C28.9256 7.15376 29.5806 8.4853 30.2461 9.81758C30.5175 10.361 30.9153 10.9196 31.3187 11.4861C31.9717 12.4031 32.6396 13.341 32.8108 14.2696C32.9994 15.2932 33.0033 16.2625 33.0076 17.3006C33.0107 18.0585 33.0139 18.8531 33.0892 19.7322C33.2612 21.7385 35.3512 24.018 35.3512 24.018C35.3512 24.018 36.3162 24.3467 37.1188 24.2322C36.3707 27.1921 34.8368 29.9066 32.6218 32.1218C30.1571 34.5865 27.0738 36.207 23.7222 36.8412C24.1972 35.6665 25.043 34.6229 25.8275 34.0179C26.5099 33.4913 27.3646 32.4786 27.7211 31.6763C28.0397 30.9597 28.4508 30.3283 28.8758 29.6758C28.9259 29.5988 28.9762 29.5216 29.0265 29.4439C29.4291 28.823 28.7665 28.0151 28.001 27.3908C27.8693 27.6078 27.7128 27.8109 27.5332 27.9954C26.9102 28.6353 26.0596 29 25.1667 29H16.1442C16.1306 29.0243 16.1166 29.0488 16.1022 29.0736C15.9525 29.3313 16.6673 30.9887 16.9052 31.2266C17.6261 31.9475 18.3415 32.6088 19.1274 33.2579C20.0311 34.0045 19.5291 34.917 18.9724 35.9288C18.7785 36.2811 18.578 36.6455 18.428 37.0191ZM18.9445 22.4067V26.4019H22.0556V22.4067C22.0556 22.1948 21.9736 21.9915 21.8278 21.8417C21.6819 21.6918 21.4841 21.6076 21.2778 21.6076H19.7223C19.516 21.6076 19.3181 21.6918 19.1723 21.8417C19.0264 21.9915 18.9445 22.1948 18.9445 22.4067ZM25.7166 26.1679C25.8625 26.018 25.9444 25.8148 25.9444 25.6029V18.6112C25.9443 18.4978 25.9206 18.3857 25.875 18.2823C25.8294 18.179 25.763 18.0868 25.68 18.012L21.0134 13.817C20.8714 13.6889 20.689 13.6182 20.5 13.6182C20.3111 13.6182 20.1286 13.6889 19.9867 13.817L15.3201 18.012C15.2371 18.0868 15.1706 18.179 15.125 18.2823C15.0794 18.3857 15.0558 18.4978 15.0556 18.6112V25.6029C15.0556 25.8148 15.1376 26.018 15.2834 26.1679C15.4293 26.3177 15.6271 26.4019 15.8334 26.4019H17.3889V22.4067C17.3889 21.7709 17.6348 21.1612 18.0723 20.7117C18.5099 20.2621 19.1034 20.0096 19.7223 20.0096H21.2778C21.8966 20.0096 22.4901 20.2621 22.9277 20.7117C23.3653 21.1612 23.6111 21.7709 23.6111 22.4067V26.4019H25.1667C25.3729 26.4019 25.5708 26.3177 25.7166 26.1679Z" fill="url(#paint0_linear_4697_29881)"/>
<defs>
<linearGradient id="paint0_linear_4697_29881" x1="0.5" y1="0" x2="42.7501" y2="39.3487" gradientUnits="userSpaceOnUse">
<stop stop-color="#3AC5EC"/>
<stop offset="1" stop-color="#C547E9"/>
</linearGradient>
</defs>
</svg>
