<svg width="41" height="40" viewBox="0 0 41 40" fill="none" xmlns="http://www.w3.org/2000/svg">
<path fill-rule="evenodd" clip-rule="evenodd" d="M7.93402 10.0461C7.31237 9.48349 6.86139 8.90208 6.55575 8.27201C5.91789 6.94374 5.5889 5.59406 5.57786 4.258L5.57527 4.10032C5.56881 3.94367 5.57206 3.78677 5.585 3.63052C5.74268 2.06022 6.63427 0.930504 8.16243 0.362728C8.799 0.129128 9.49786 0.00713776 10.2421 0C11.0001 0.00713776 11.6989 0.129129 12.3329 0.362079C13.8637 0.930504 14.7546 2.06022 14.9123 3.62987C14.9278 3.78885 14.9259 3.94394 14.922 4.09967L14.9194 4.25151C14.9084 5.59406 14.5794 6.94309 13.9422 8.27007C13.6359 8.90208 13.1849 9.48349 12.5633 10.0461C11.956 10.6021 11.1635 10.9121 10.3401 10.9156L10.2214 10.9123C10.2181 10.9136 10.2155 10.9136 10.2123 10.9136C9.33629 10.9136 8.55112 10.6048 7.93402 10.0461ZM17.77 13.626C18.195 13.7635 18.5948 13.9693 18.9536 14.2353C20.0632 15.0827 20.0016 16.1326 19.9912 16.2481L19.9945 18.6237C19.9562 19.0053 19.8867 19.2823 19.7836 19.5289C19.3799 20.4925 18.5312 20.8351 17.9277 20.8351H2.57281C1.9622 20.8351 1.11149 20.4906 0.709174 19.5192C0.609244 19.2778 0.541109 19.0059 0.507367 18.7094L0.502824 16.1819C0.495686 16.1333 0.43469 15.0834 1.54496 14.2359C1.87395 13.9848 2.28081 13.7765 2.7545 13.6169L5.98343 12.4009L6.97949 12.1517L7.24488 12.1984C7.53949 12.2893 7.79321 12.4645 8.02162 12.7338C8.07061 12.7932 8.11736 12.8545 8.16178 12.9174C8.77304 13.783 9.38755 14.646 10.0027 15.5091L10.2486 15.8543L12.039 13.3405C12.0662 13.3023 12.0912 13.2626 12.1162 13.2229C12.124 13.2106 12.1317 13.1983 12.1395 13.186C12.2369 13.029 12.3582 12.8343 12.5418 12.6663L12.671 12.5618C13.2933 12.1128 13.9655 12.1829 14.6287 12.4346L17.77 13.626ZM28.4392 29.211C27.8176 28.6484 27.3666 28.067 27.061 27.4369C26.4224 26.1086 26.0935 24.7589 26.0837 23.4216L26.0811 23.2639C26.0772 23.1082 26.0753 22.9531 26.0902 22.7954C26.2479 21.2251 27.1395 20.0954 28.6676 19.5276C29.3042 19.294 30.0031 19.172 30.7474 19.1649C31.5053 19.172 32.2041 19.294 32.8381 19.527C34.3689 20.0954 35.2598 21.2251 35.4175 22.7948C35.4331 22.9537 35.4311 23.1088 35.4272 23.2645L35.4246 23.4164C35.4136 24.7589 35.0846 26.108 34.4474 27.4349C34.1411 28.067 33.6901 28.6484 33.0685 29.211C32.4612 29.767 31.6687 30.077 30.8453 30.0805L30.7266 30.0772C30.7234 30.0785 30.7208 30.0785 30.7175 30.0785C29.8415 30.0785 29.0563 29.7696 28.4392 29.211ZM38.2746 32.7909C38.6996 32.9284 39.0993 33.1342 39.4582 33.4002C40.5678 34.2476 40.5068 35.2975 40.4958 35.413L40.499 37.7886C40.4607 38.1701 40.3913 38.4472 40.2881 38.6938C39.8845 39.6574 39.0357 40 38.4323 40H23.0774C22.4668 40 21.6161 39.6554 21.2137 38.6841C21.1138 38.4427 21.0457 38.1708 21.0119 37.8742L21.0067 35.3462C20.9996 35.2975 20.9386 34.2476 22.0489 33.4002C22.3779 33.1491 22.7847 32.9408 23.2584 32.7811L26.4873 31.5651L27.4834 31.3159L27.7488 31.3627C28.0434 31.4535 28.2971 31.6287 28.5255 31.898C28.5745 31.9574 28.6213 32.0187 28.6657 32.0816C29.277 32.9472 29.8915 33.8103 30.5066 34.6733L30.7526 35.0185L32.5435 32.5054C32.5708 32.4672 32.5958 32.4275 32.6208 32.3877C32.6286 32.3755 32.6363 32.3632 32.6441 32.3509C32.7414 32.1939 32.8628 31.9992 33.0464 31.8312L33.1755 31.7267C33.7978 31.2777 34.4701 31.3477 35.1333 31.5995L38.2746 32.7909ZM26.8533 12.484C27.8498 13.4949 28.8595 14.4925 29.8824 15.4767C30.3262 15.9043 31.2133 15.9186 31.6403 15.5065C32.6508 14.5317 33.6508 13.546 34.6401 12.5495C34.8828 12.3049 35.0119 12.02 35.0119 11.7261C35.0119 11.4646 34.9068 11.2141 34.7108 11.0045C34.278 10.5412 33.6168 10.5159 33.1035 10.9422C33.0218 11.0104 32.9413 11.0811 32.8375 11.1726C32.7942 11.2116 32.7463 11.2534 32.6927 11.3001C32.6739 11.3165 32.6545 11.3334 32.6344 11.351L31.8297 12.0531L31.8304 9.68081C31.8304 8.82811 31.8302 8.84266 31.8295 8.90147C31.8289 8.95754 31.8277 9.05385 31.8258 8.47712C31.8239 8.05275 31.7927 7.62124 31.7337 7.19298C31.4144 4.89981 29.2458 2.79741 26.9993 2.6021C26.6379 2.5703 26.2732 2.54824 25.9072 2.53332C25.8385 2.5305 25.401 2.52787 24.9953 2.52543C24.6542 2.52338 24.3356 2.52147 24.2779 2.51969C23.6912 2.50282 23.2078 2.97716 23.2078 3.56375C23.2079 3.70555 23.2368 3.84585 23.2928 3.9761C23.3489 4.10636 23.4308 4.22384 23.5338 4.3214C23.6367 4.41896 23.7583 4.49455 23.8914 4.54356C24.0245 4.59258 24.1661 4.614 24.3077 4.60651C24.4459 4.59937 25.8099 4.59418 25.8741 4.59418C28.168 4.59678 29.7111 6.1314 29.7137 8.41288C29.7142 9.21463 29.7143 8.31355 29.7143 8.31355C29.7143 8.31355 29.7143 8.39898 29.7143 8.64583L29.7137 12.1394L28.9 11.3893C28.8111 11.3089 28.7384 11.2407 28.6754 11.1817C28.5664 11.0805 28.4879 11.0078 28.4074 10.9371C27.9357 10.525 27.2628 10.5445 26.8416 10.9805C26.6392 11.1908 26.5263 11.4562 26.5263 11.7268C26.5263 12.0045 26.6398 12.2653 26.8533 12.484ZM13.937 27.5356C12.9406 26.5247 11.9308 25.5271 10.9079 24.5429C10.4641 24.116 9.57704 24.101 9.15007 24.5131C8.13951 25.4879 7.1395 26.4736 6.15021 27.4701C5.90752 27.7147 5.77839 27.9995 5.77839 28.2935C5.77839 28.555 5.88351 28.8055 6.07948 29.0151C6.51229 29.4784 7.17352 29.5037 7.6868 29.0773C7.76856 29.0092 7.84902 28.9385 7.95285 28.847C7.99613 28.808 8.04404 28.7662 8.09765 28.7195C8.11637 28.7031 8.13579 28.6862 8.15595 28.6686L8.96059 27.9665L8.95994 30.3388C8.95994 31.1915 8.96011 31.1769 8.9608 31.1181C8.96145 31.0621 8.96258 30.9657 8.96448 31.5425C8.9669 31.9721 8.99768 32.4011 9.05663 32.8266C9.37588 35.1198 11.5445 37.2222 13.791 37.4175C14.1544 37.449 14.5186 37.4719 14.8831 37.4863C14.9518 37.4891 15.3894 37.4917 15.7951 37.4942C16.1362 37.4962 16.4547 37.4981 16.5125 37.4999C17.0991 37.5168 17.5825 37.0424 17.5825 36.4558C17.5824 36.314 17.5535 36.1737 17.4975 36.0435C17.4414 35.9132 17.3595 35.7958 17.2566 35.6982C17.1537 35.6006 17.032 35.525 16.8989 35.476C16.7659 35.427 16.6242 35.4056 16.4826 35.4131C16.3444 35.4202 14.9804 35.4254 14.9162 35.4254C12.6223 35.4228 11.0792 33.8882 11.0766 31.6067C11.0762 30.805 11.076 31.706 11.076 31.706C11.076 31.706 11.076 31.6206 11.076 31.3738L11.0766 27.8802L11.8904 28.6303C11.9659 28.6988 12.0407 28.768 12.1149 28.8379C12.2031 28.9207 12.2924 29.0022 12.3829 29.0825C12.8546 29.4946 13.5275 29.4751 13.9487 29.0391C14.1511 28.8288 14.264 28.5634 14.264 28.2928C14.264 28.0151 14.1505 27.7543 13.937 27.5356Z" fill="url(#paint0_linear_4697_29941)"/>
<defs>
<linearGradient id="paint0_linear_4697_29941" x1="0.5" y1="0" x2="42.7501" y2="39.3487" gradientUnits="userSpaceOnUse">
<stop stop-color="#3AC5EC"/>
<stop offset="1" stop-color="#C547E9"/>
</linearGradient>
</defs>
</svg>
