<svg width="40" height="40" viewBox="0 0 40 40" fill="none" xmlns="http://www.w3.org/2000/svg">
<path fill-rule="evenodd" clip-rule="evenodd" d="M3 0C1.34375 0 0 1.34326 0 3V8H40V3C40 2.61182 39.9258 2.24072 39.793 1.90039C39.5586 1.30762 39.1406 0.807129 38.6094 0.46875C38.1445 0.171875 37.5938 0 37 0H3ZM10 10H40V37C40 37.873 39.6289 38.6592 39.0352 39.2075C38.7578 39.4609 38.4375 39.6631 38.082 39.7998C37.7461 39.9292 37.3828 40 37 40H10V10ZM28.8711 28.4229C28.793 28.4229 28.7227 28.4146 28.6562 28.3984C28.6055 28.3862 28.5625 28.3696 28.5195 28.3486C28.4648 28.3193 28.4141 28.2822 28.3711 28.2363C28.3008 28.1621 28.25 28.0708 28.2227 27.9634C28.2109 27.9238 28.2031 27.8818 28.1992 27.8379L28.1953 27.7236V20.7222C28.1953 20.4971 28.2578 20.3262 28.3828 20.21C28.457 20.1362 28.543 20.0845 28.6484 20.0547C28.7227 20.0337 28.8047 20.0234 28.8945 20.0234C29.0898 20.0234 29.2383 20.0625 29.3477 20.1401C29.4648 20.21 29.5703 20.334 29.6641 20.5127L32.3555 25.4932L35.0469 20.5127C35.0938 20.4204 35.1406 20.3428 35.1914 20.2793C35.2227 20.2417 35.2539 20.2095 35.2891 20.1821L35.3477 20.1401C35.457 20.0625 35.6094 20.0234 35.8008 20.0234C36.0195 20.0234 36.1875 20.0854 36.3047 20.21C36.418 20.3262 36.4766 20.4971 36.4766 20.7222V27.7236C36.4766 27.9409 36.418 28.1118 36.3047 28.2363C36.2383 28.312 36.1484 28.3647 36.0391 28.394C35.9688 28.4131 35.8906 28.4229 35.8008 28.4229L35.6758 28.415C35.625 28.4087 35.5781 28.3979 35.5352 28.3833C35.4414 28.3521 35.3633 28.3032 35.3008 28.2363C35.2344 28.1641 35.1836 28.0762 35.1562 27.9727L35.1367 27.8721C35.1289 27.8252 35.125 27.7759 35.125 27.7236V22.8003L32.9375 26.7915C32.8594 26.9238 32.7773 27.021 32.6914 27.083C32.6055 27.145 32.4883 27.1763 32.3438 27.1763C32.1953 27.1763 32.0742 27.145 31.9805 27.083C31.9219 27.0391 31.8672 26.9839 31.8164 26.918C31.7891 26.8794 31.7617 26.8374 31.7383 26.7915L29.5469 22.8271V27.7236C29.5469 27.9409 29.4883 28.1118 29.3711 28.2363C29.2617 28.3604 29.0977 28.4229 28.8711 28.4229ZM20.375 28.2241C20.5078 28.356 20.6914 28.4224 20.9336 28.4224C21.1797 28.4224 21.3672 28.356 21.4922 28.2241C21.582 28.1226 21.6406 27.9941 21.668 27.8389C21.6758 27.7808 21.6797 27.7188 21.6797 27.6533V25.0439H22.7852C22.9062 25.0439 23.0156 25.0518 23.1172 25.0669C23.1953 25.0786 23.2695 25.0947 23.3359 25.1147C23.3984 25.1338 23.4531 25.1567 23.5078 25.1836C23.7031 25.269 23.8672 25.4438 24.0078 25.708L25.1836 27.8745L25.2617 28.0034L25.3359 28.1104C25.3984 28.1846 25.4648 28.2456 25.5352 28.2939C25.668 28.3794 25.8359 28.4224 26.0469 28.4224C26.2578 28.4224 26.418 28.3755 26.5234 28.2822C26.6328 28.1816 26.6914 28.0532 26.6992 27.8979C26.707 27.7427 26.6641 27.5835 26.5703 27.4204L25.6992 25.8013C25.5742 25.5698 25.4375 25.3813 25.2852 25.2358C25.2148 25.1714 25.1445 25.1152 25.0703 25.0674C24.9609 24.9951 24.8516 24.9448 24.7227 24.9062C24.9219 24.8594 25.1094 24.7964 25.2773 24.7178L25.4492 24.6318C25.5469 24.5771 25.6367 24.5176 25.7227 24.4526C25.9336 24.2935 26.1016 24.1021 26.2344 23.8789C26.3867 23.6294 26.4883 23.3472 26.5352 23.0322C26.5586 22.8867 26.5703 22.7339 26.5703 22.5742C26.5703 22.1475 26.4961 21.7734 26.3516 21.4521C26.2305 21.189 26.0586 20.9609 25.8359 20.7686C25.5742 20.5347 25.25 20.3638 24.8672 20.2559C24.6836 20.2041 24.4883 20.167 24.2812 20.144C24.1133 20.1255 23.9375 20.1162 23.7539 20.1162H20.9453C20.7891 20.1162 20.6562 20.1436 20.5469 20.1982C20.4883 20.2285 20.4336 20.2671 20.3867 20.3145C20.2539 20.4385 20.1875 20.625 20.1875 20.8735V27.6533C20.1875 27.894 20.25 28.0845 20.375 28.2241ZM23.4961 23.937H21.6797V21.293H23.4961C24.0312 21.293 24.4375 21.4053 24.707 21.6309C24.7812 21.687 24.8438 21.75 24.8984 21.8203C24.9453 21.8843 24.9844 21.9531 25.0156 22.0283L25.0508 22.1201C25.1016 22.2642 25.125 22.4272 25.125 22.6094C25.125 23.0518 24.9883 23.3857 24.707 23.6108C24.4375 23.8286 24.0312 23.937 23.4961 23.937ZM14.957 28.3315C14.5664 28.2466 14.2109 28.1138 13.8867 27.9331C13.5938 27.7637 13.332 27.5615 13.1055 27.3267C12.8633 27.0767 12.6562 26.7896 12.4883 26.4653C12.1641 25.8286 12 25.0791 12 24.2173C12 23.5723 12.0938 22.9937 12.2812 22.4814C12.3672 22.2432 12.4688 22.021 12.5898 21.8154C12.7305 21.5718 12.8945 21.3511 13.082 21.1533C13.4336 20.7803 13.8594 20.4971 14.3633 20.3027C14.8789 20.1011 15.4531 20 16.0898 20C16.207 20 16.3242 20.0039 16.4414 20.0122C16.5742 20.0215 16.7031 20.0361 16.832 20.0562C17.0039 20.0825 17.1758 20.1182 17.3477 20.1631C17.7578 20.272 18.1211 20.4272 18.4297 20.6289C18.5938 20.73 18.7031 20.8545 18.7578 21.002C18.8125 21.1416 18.8242 21.2812 18.793 21.4214C18.7734 21.4956 18.7461 21.564 18.707 21.626C18.6758 21.6738 18.6367 21.7183 18.5938 21.7593C18.5 21.8521 18.3789 21.9067 18.2305 21.9224C18.0938 21.9297 17.9375 21.8794 17.7656 21.7705C17.5273 21.6152 17.2656 21.5029 16.9844 21.4331C16.707 21.3628 16.4219 21.3281 16.1367 21.3281C15.5859 21.3281 15.1172 21.4404 14.7383 21.666L14.6211 21.7417C14.2969 21.9624 14.0508 22.2632 13.875 22.6445C13.8086 22.7935 13.7539 22.9541 13.707 23.1265C13.625 23.4487 13.5859 23.8125 13.5859 24.2173C13.5859 24.8306 13.6797 25.355 13.875 25.7896C13.9883 26.0435 14.1328 26.2612 14.3086 26.4434C14.4375 26.5737 14.5781 26.686 14.7383 26.7798C15.1172 27.0054 15.5859 27.1177 16.1367 27.1177C16.4297 27.1177 16.7227 27.083 17.0078 27.0127C17.2969 26.9351 17.5703 26.8188 17.8242 26.6636L17.9688 26.5898L18.0898 26.5488C18.1289 26.5391 18.168 26.5337 18.207 26.5322L18.2773 26.5352C18.3594 26.54 18.4375 26.5581 18.5039 26.5903C18.5469 26.6123 18.5898 26.6406 18.6289 26.6753C18.7227 26.7607 18.7852 26.8691 18.8164 27.0015L18.832 27.084V27.1318C18.8359 27.2173 18.8242 27.3057 18.793 27.3975C18.7461 27.5293 18.6523 27.646 18.5117 27.7466C18.2031 27.9722 17.8281 28.147 17.3945 28.271C16.9648 28.3877 16.5312 28.4458 16.0898 28.4458C15.6875 28.4458 15.3086 28.4077 14.957 28.3315ZM3 40H8V10H0V37C0 38.6567 1.34375 40 3 40ZM2 14C1.44922 14 1 14.4478 1 15C1 15.2451 1.08984 15.4697 1.23438 15.6436C1.41797 15.8613 1.69531 16 2 16H6C6.33203 16 6.62891 15.8354 6.8125 15.5825C6.92969 15.4185 7 15.2173 7 15C7 14.7803 6.92969 14.5767 6.80859 14.4116C6.625 14.1621 6.33203 14 6 14H2ZM1 20C1 19.4478 1.44922 19 2 19H6C6.55078 19 7 19.4478 7 20C7 20.2856 6.88281 20.543 6.6875 20.7251C6.59766 20.8096 6.49219 20.8779 6.37891 20.9253C6.26172 20.9731 6.13281 21 6 21H2C1.44922 21 1 20.5522 1 20ZM1.31641 24.269C1.12109 24.4517 1 24.7119 1 25C1 25.5522 1.44922 26 2 26H6C6.55078 26 7 25.5522 7 25C7 24.4478 6.55078 24 6 24H2C1.73828 24 1.49609 24.1021 1.31641 24.269ZM1 30C1 29.4478 1.44922 29 2 29H4C4.55078 29 5 29.4478 5 30C5 30.5522 4.55078 31 4 31H2C1.44922 31 1 30.5522 1 30ZM2 34C1.44922 34 1 34.4478 1 35C1 35.5522 1.44922 36 2 36H3C3.55078 36 4 35.5522 4 35C4 34.4478 3.55078 34 3 34H2ZM4 5C4.55228 5 5 4.55228 5 4C5 3.44772 4.55228 3 4 3C3.44772 3 3 3.44772 3 4C3 4.55228 3.44772 5 4 5ZM10 4C10 4.55228 9.55229 5 9 5C8.44771 5 8 4.55228 8 4C8 3.44772 8.44771 3 9 3C9.55229 3 10 3.44772 10 4ZM14 5C14.5523 5 15 4.55228 15 4C15 3.44772 14.5523 3 14 3C13.4477 3 13 3.44772 13 4C13 4.55228 13.4477 5 14 5Z" fill="url(#paint0_linear_4697_29875)"/>
<defs>
<linearGradient id="paint0_linear_4697_29875" x1="0" y1="0" x2="42.2501" y2="39.3487" gradientUnits="userSpaceOnUse">
<stop stop-color="#3AC5EC"/>
<stop offset="1" stop-color="#C547E9"/>
</linearGradient>
</defs>
</svg>
