<svg width="40" height="40" viewBox="0 0 40 40" fill="none" xmlns="http://www.w3.org/2000/svg">
<path fill-rule="evenodd" clip-rule="evenodd" d="M28.8198 27.8075C28.6723 27.983 28.4899 28.1292 28.283 28.2377C28.0761 28.3461 27.8488 28.4147 27.6141 28.4395C27.3793 28.4643 27.1418 28.4448 26.9149 28.3821C26.6881 28.3195 26.4765 28.215 26.2921 28.0744L17.3034 21.2295C17.0929 21.0691 16.923 20.8657 16.8063 20.6344C16.6897 20.403 16.6291 20.1497 16.6292 19.893V7.91444C16.6292 7.46059 16.8186 7.02533 17.1558 6.70442C17.4929 6.3835 17.9502 6.20321 18.427 6.20321C18.9038 6.20321 19.361 6.3835 19.6982 6.70442C20.0353 7.02533 20.2247 7.46059 20.2247 7.91444V19.0717L28.5393 25.4032C28.9113 25.6867 29.1498 26.0993 29.2024 26.5501C29.255 27.0009 29.1173 27.4532 28.8198 27.8075ZM36.6667 17.8947V15.7895C36.6667 11.6018 34.9107 7.58573 31.7851 4.62463C28.6595 1.66353 24.4203 0 20 0C15.5797 0 11.3405 1.66353 8.21489 4.62463C5.08928 7.58573 3.33333 11.6018 3.33333 15.7895V17.8947C2.44928 17.8947 1.60143 18.2274 0.976311 18.8197C0.35119 19.4119 0 20.2151 0 21.0526V27.3684C0 28.2059 0.35119 29.0092 0.976311 29.6014C1.60143 30.1936 2.44928 30.5263 3.33333 30.5263H4.44444C4.44444 31.0847 4.67857 31.6201 5.09532 32.015C5.51207 32.4098 6.0773 32.6316 6.66667 32.6316C7.25604 32.6316 7.82127 32.4098 8.23802 32.015C8.65476 31.6201 8.88889 31.0847 8.88889 30.5263V17.8947C8.88655 17.5263 8.78216 17.1648 8.58617 16.8465C8.39017 16.5283 8.10943 16.2643 7.77201 16.081C7.43458 15.8977 7.05228 15.8016 6.66333 15.8021C6.27438 15.8027 5.89239 15.9 5.55556 16.0842V15.7895C5.55556 12.1602 7.07738 8.67956 9.78624 6.11327C12.4951 3.54699 16.1691 2.10526 20 2.10526C23.8309 2.10526 27.5049 3.54699 30.2138 6.11327C32.9226 8.67956 34.4444 12.1602 34.4444 15.7895V16.0842C34.1076 15.9 33.7256 15.8027 33.3367 15.8021C32.9477 15.8016 32.5654 15.8977 32.228 16.081C31.8906 16.2643 31.6098 16.5283 31.4138 16.8465C31.2178 17.1648 31.1135 17.5263 31.1111 17.8947V30.5263C31.1111 31.0847 31.3452 31.6201 31.762 32.015C32.1787 32.4098 32.744 32.6316 33.3333 32.6316C33.616 32.6331 33.8959 32.5793 34.1556 32.4737C33.7056 34.0292 32.7293 35.4019 31.3765 36.3812C30.0238 37.3605 28.3692 37.8922 26.6667 37.8947H23.3333V36.8421C23.3333 36.2175 23.1378 35.607 22.7716 35.0877C22.4053 34.5684 21.8847 34.1636 21.2756 33.9246C20.6665 33.6856 19.9963 33.623 19.3497 33.7449C18.7031 33.8667 18.1092 34.1675 17.643 34.6091C17.1768 35.0508 16.8593 35.6135 16.7307 36.226C16.6021 36.8386 16.6681 37.4735 16.9204 38.0506C17.1727 38.6276 17.5999 39.1208 18.1481 39.4678C18.6963 39.8148 19.3407 40 20 40H26.6667C29.3188 40 31.8624 39.0019 33.7377 37.2252C35.6131 35.4486 36.6667 33.0389 36.6667 30.5263C37.5507 30.5263 38.3986 30.1936 39.0237 29.6014C39.6488 29.0092 40 28.2059 40 27.3684V21.0526C40 20.2151 39.6488 19.4119 39.0237 18.8197C38.3986 18.2274 37.5507 17.8947 36.6667 17.8947Z" fill="url(#paint0_linear_4697_30038)"/>
<defs>
<linearGradient id="paint0_linear_4697_30038" x1="0" y1="0" x2="42.2501" y2="39.3487" gradientUnits="userSpaceOnUse">
<stop stop-color="#3AC5EC"/>
<stop offset="1" stop-color="#C547E9"/>
</linearGradient>
</defs>
</svg>
