<svg width="40" height="40" viewBox="0 0 40 40" fill="none" xmlns="http://www.w3.org/2000/svg">
<path d="M34 0H6C2.6 0 0 2.6 0 6V26C0 29.4 2.6 32 6 32H29.2L36.6 39.4C37.4 40.2 38.6 40.2 39.4 39.4C39.8 39 40 38.6 40 38V6C40 2.6 37.4 0 34 0ZM10 22C8.8 22 8 21.2 8 20C8 18.8 8.8 18 10 18C11.2 18 12 18.8 12 20C12 21.2 11.2 22 10 22ZM10 14C8.8 14 8 13.2 8 12C8 10.8 8.8 10 10 10C11.2 10 12 10.8 12 12C12 13.2 11.2 14 10 14ZM30 22H18C16.8 22 16 21.2 16 20C16 18.8 16.8 18 18 18H30C31.2 18 32 18.8 32 20C32 21.2 31.2 22 30 22ZM30 14H18C16.8 14 16 13.2 16 12C16 10.8 16.8 10 18 10H30C31.2 10 32 10.8 32 12C32 13.2 31.2 14 30 14Z" fill="url(#paint0_linear_4697_29857)"/>
<defs>
<linearGradient id="paint0_linear_4697_29857" x1="0" y1="0" x2="42.2501" y2="39.3487" gradientUnits="userSpaceOnUse">
<stop stop-color="#3AC5EC"/>
<stop offset="1" stop-color="#C547E9"/>
</linearGradient>
</defs>
</svg>
