<svg width="18" height="18" viewBox="0 0 18 18" fill="none" xmlns="http://www.w3.org/2000/svg">
<rect width="18" height="18" rx="3" fill="#383192"/>
<path d="M5.72766 6.89935V14.999H3.15002V6.89935H5.72766ZM5.89154 4.39877C5.89202 4.41326 5.8925 4.43026 5.8925 4.44776C5.8925 4.8222 5.74056 5.15914 5.49785 5.3951L5.49689 5.3956C5.2365 5.64456 4.8882 5.79703 4.50549 5.79703C4.48208 5.79703 4.45819 5.79653 4.43478 5.79553H4.43813H4.42236C4.40277 5.79653 4.37984 5.79703 4.3569 5.79703C3.98232 5.79703 3.64214 5.64406 3.38939 5.3951L3.38987 5.3956C3.14907 5.15164 3 4.8107 3 4.43326C3 4.42126 3 4.40927 3.00048 4.39677V4.39877C3 4.38827 3 4.37627 3 4.36427C3 3.98334 3.1548 3.64039 3.40182 3.39993L3.40277 3.39943C3.66269 3.15197 4.01003 3 4.39083 3C4.4128 3 4.4343 3.0005 4.45628 3.0015H4.45342C4.47396 3.0005 4.49737 3 4.52174 3C4.8968 3 5.23841 3.15147 5.49355 3.39893L5.49259 3.39793C5.73865 3.64639 5.89154 3.99433 5.89154 4.37977V4.40077V4.39977V4.39877ZM14.999 10.3578V14.999H12.4295V10.6672C12.4319 10.6277 12.4329 10.5817 12.4329 10.5357C12.4329 10.0878 12.3139 9.66939 12.107 9.31245L12.1128 9.32295C11.9087 9.025 11.5791 8.83353 11.2069 8.83353C11.1782 8.83353 11.1495 8.83453 11.1209 8.83703H11.1247C11.1118 8.83653 11.097 8.83603 11.0822 8.83603C10.786 8.83603 10.5136 8.94251 10.2981 9.12098L10.301 9.11898C10.0846 9.30245 9.91495 9.53691 9.80793 9.80636L9.80411 9.81786C9.74869 9.99533 9.71715 10.1993 9.71715 10.4113C9.71715 10.4353 9.71763 10.4593 9.71859 10.4833V10.4798V15H7.14907C7.15958 12.826 7.16483 11.0633 7.16483 9.71188C7.16483 8.36044 7.16229 7.55407 7.15719 7.29278L7.14955 6.90035H9.71906V8.07715H9.7033C9.80554 7.90468 9.91113 7.75521 10.0272 7.61523L10.0234 7.61973C10.1577 7.46526 10.302 7.32578 10.4572 7.2008L10.4649 7.1948C10.6579 7.03933 10.8844 6.91735 11.13 6.84286L11.1443 6.83936C11.4013 6.75887 11.6971 6.71238 12.0029 6.71238H12.0406H12.0387C12.0726 6.71088 12.1123 6.70988 12.1519 6.70988C12.9551 6.70988 13.6785 7.06682 14.1854 7.63773L14.1868 7.63973C14.7289 8.25829 15 9.16414 15 10.3573L14.999 10.3578Z" fill="white"/>
</svg>
