<svg width="24" height="24" viewBox="0 0 24 24" fill="none" xmlns="http://www.w3.org/2000/svg">
<path fill-rule="evenodd" clip-rule="evenodd" d="M8.36364 7.45455C8.36364 5.44624 9.99169 3.81818 12 3.81818C14.0083 3.81818 15.6364 5.44624 15.6364 7.45455C15.6364 9.46285 14.0083 11.0909 12 11.0909C9.99169 11.0909 8.36364 9.46285 8.36364 7.45455ZM12 2C8.98754 2 6.54545 4.44208 6.54545 7.45455C6.54545 10.467 8.98754 12.9091 12 12.9091C15.0125 12.9091 17.4545 10.467 17.4545 7.45455C17.4545 4.44208 15.0125 2 12 2ZM7.45455 13.9318C6.03347 13.9318 4.65571 14.4461 3.62773 15.3839C2.59697 16.3242 2 17.6184 2 18.9876V21.0909C2 21.593 2.40701 22 2.90909 22C3.41117 22 3.81818 21.593 3.81818 21.0909V18.9876C3.81818 18.1573 4.179 17.342 4.85312 16.7271C5.53002 16.1095 6.46456 15.75 7.45455 15.75H16.5455C17.5354 15.75 18.47 16.1095 19.1469 16.7271C19.821 17.342 20.1818 18.1573 20.1818 18.9876V21.0909C20.1818 21.593 20.5888 22 21.0909 22C21.593 22 22 21.593 22 21.0909V18.9876C22 17.6184 21.403 16.3242 20.3723 15.3839C19.3443 14.4461 17.9665 13.9318 16.5455 13.9318H7.45455Z" fill="#17213A"/>
</svg>
