<svg width="10" height="14" viewBox="0 0 10 14" fill="none" xmlns="http://www.w3.org/2000/svg">
<path d="M4.99489 0.546875C2.36442 0.546875 0.17145 2.95859 0.860513 5.67656C1.63708 8.75547 5.02223 12.1898 5.02223 12.1898C5.02223 12.1898 8.34723 8.76641 9.1402 5.69297C9.83473 2.975 7.62536 0.546875 4.99489 0.546875ZM8.58239 5.53438C7.90426 8.24141 5.01676 11.3422 5.01676 11.3422C5.01676 11.3422 2.08004 8.20313 1.41286 5.49609C0.822232 3.10625 2.73629 1.10469 4.99489 1.10469C7.25348 1.11563 9.18395 3.15 8.58239 5.53438Z" fill="#17213A" stroke="#17213A" stroke-width="0.5"/>
<path d="M5.0002 2.70703C3.69316 2.70703 2.6377 3.7625 2.6377 5.06953C2.6377 6.37656 3.69316 7.43203 5.0002 7.43203C6.30723 7.43203 7.3627 6.37656 7.3627 5.06953C7.3627 3.76797 6.30176 2.70703 5.0002 2.70703ZM5.0002 6.87422C4.00488 6.87422 3.20098 6.06484 3.20098 5.075C3.20098 4.07969 4.01035 3.27578 5.0002 3.27578C5.99551 3.27578 6.79941 4.08516 6.79941 5.075C6.79941 6.06484 5.99004 6.87422 5.0002 6.87422Z" fill="#17213A" stroke="#17213A" stroke-width="0.5"/>
<path d="M6.97481 10.85C7.96465 11.0469 8.6209 11.3914 8.6209 11.7797C8.6209 12.3922 7.00215 12.8898 5.00059 12.8898C2.99902 12.8898 1.38027 12.3922 1.38027 11.7797C1.38027 11.3914 2.02559 11.0523 2.99902 10.8555L2.87871 10.3359C1.64277 10.6258 0.811523 11.1617 0.811523 11.7797C0.811523 12.7039 2.6873 13.4531 5.00606 13.4531C7.32481 13.4531 9.20059 12.7039 9.20059 11.7797C9.20059 11.1672 8.36934 10.6258 7.12793 10.3359L6.97481 10.85Z" fill="#17213A" stroke="#17213A" stroke-width="0.5"/>
</svg>
