<svg width="530" height="482" viewBox="0 0 530 482" fill="none" xmlns="http://www.w3.org/2000/svg">
<g opacity="0.8">
<path d="M352.83 31.1274C352.83 31.1274 270.026 1.6842 188.744 48.5608C107.463 95.4363 66.4502 188.491 31.231 263.031C-3.98815 337.571 16.2838 413.392 78.3321 447.963C140.379 482.535 182.57 431.571 269.613 429.09C356.657 426.608 380.066 439.052 452.295 389.881C524.524 340.709 537.579 224.581 480.603 138.655C423.625 52.7308 352.83 31.1274 352.83 31.1274Z" fill="#383192"/>
<path opacity="0.7" d="M352.83 31.1274C352.83 31.1274 270.026 1.6842 188.744 48.5608C107.463 95.4363 66.4502 188.491 31.231 263.031C-3.98815 337.571 16.2838 413.392 78.3321 447.963C140.379 482.535 182.57 431.571 269.613 429.09C356.657 426.608 380.066 439.052 452.295 389.881C524.524 340.709 537.579 224.581 480.603 138.655C423.625 52.7308 352.83 31.1274 352.83 31.1274Z" fill="white"/>
<path d="M303.284 133.813H231.963C231.963 133.813 239.035 114.498 249.917 114.498C260.801 114.498 264.209 127.83 264.209 127.83C264.209 127.83 271.552 120.586 277.584 120.586C283.615 120.586 288.861 130.158 288.861 130.158C288.861 130.158 297.383 125.012 303.284 133.813Z" fill="#EBEBEB"/>
<path opacity="0.5" d="M321.773 180.878H288.443C288.443 180.878 295.891 170.088 301.759 170.088C307.626 170.088 309.36 177.282 309.36 177.282C309.36 177.282 313.501 173.925 317.338 174.524C321.174 175.123 321.773 180.878 321.773 180.878Z" fill="#EBEBEB"/>
<path opacity="0.5" d="M371.508 158.379H338.178C338.178 158.379 345.625 147.589 351.493 147.589C357.36 147.589 359.095 154.783 359.095 154.783C359.095 154.783 363.236 151.426 367.073 152.025C370.909 152.624 371.508 158.379 371.508 158.379Z" fill="#EBEBEB"/>
<path d="M229.878 203.504H164.957C164.957 203.504 173.848 183.656 183.358 182.415C192.869 181.175 197.417 197.164 197.417 197.164C197.417 197.164 203.551 191.513 208.375 191.513C213.199 191.513 216.92 198.956 216.92 198.956C216.92 198.956 226.57 193.856 229.878 203.504Z" fill="#EBEBEB"/>
<path d="M366.618 230.343H301.697C301.697 230.343 310.588 210.495 320.099 209.254C329.609 208.014 334.157 224.002 334.157 224.002C334.157 224.002 340.291 218.351 345.115 218.351C349.939 218.351 353.662 225.795 353.662 225.795C353.662 225.795 363.31 220.694 366.618 230.343Z" fill="#EBEBEB"/>
<path opacity="0.5" d="M197.418 152.984H153.562C153.562 152.984 161.096 138.604 169.268 138.395C177.441 138.185 181.736 149.278 181.736 149.278C181.736 149.278 194.449 139.075 197.418 152.984Z" fill="#EBEBEB"/>
<path d="M216.854 218.745C215.201 218.745 215.294 216.849 216.055 214.956C216.301 214.347 216.464 213.832 216.854 213.023C217.242 213.833 217.404 214.347 217.65 214.956C218.411 216.849 218.505 218.745 216.854 218.745Z" fill="#C7C7C7"/>
<path d="M190.707 226.908C189.054 226.908 189.148 225.012 189.908 223.119C190.154 222.51 190.317 221.995 190.707 221.187C191.095 221.995 191.257 222.51 191.503 223.119C192.265 225.012 192.359 226.908 190.707 226.908Z" fill="#DBDBDB"/>
<path d="M233.969 225.688C232.316 225.688 232.409 223.792 233.17 221.899C233.416 221.29 233.578 220.775 233.969 219.967C234.357 220.775 234.519 221.29 234.765 221.899C235.525 223.792 235.62 225.688 233.969 225.688Z" fill="#DBDBDB"/>
<path d="M176.588 178.344C174.935 178.344 175.028 176.449 175.79 174.555C176.036 173.947 176.199 173.432 176.588 172.623C176.976 173.432 177.138 173.947 177.384 174.555C178.145 176.449 178.239 178.344 176.588 178.344Z" fill="#DBDBDB"/>
<path d="M242.865 252.245C241.212 252.245 241.306 250.349 242.066 248.456C242.312 247.847 242.475 247.332 242.865 246.523C243.253 247.332 243.415 247.847 243.662 248.456C244.423 250.35 244.517 252.245 242.865 252.245Z" fill="#C7C7C7"/>
<path d="M294.928 147.652C293.275 147.652 293.368 145.756 294.129 143.863C294.375 143.254 294.537 142.739 294.928 141.931C295.316 142.739 295.478 143.254 295.724 143.863C296.485 145.756 296.579 147.652 294.928 147.652Z" fill="#C7C7C7"/>
<path d="M341.904 255.105C340.251 255.105 340.345 253.209 341.105 251.316C341.352 250.707 341.514 250.192 341.904 249.384C342.292 250.192 342.454 250.707 342.701 251.316C343.462 253.209 343.556 255.105 341.904 255.105Z" fill="#DBDBDB"/>
<path d="M255.111 141.252C253.458 141.252 253.552 139.358 254.312 137.464C254.559 136.855 254.721 136.34 255.111 135.531C255.499 136.34 255.661 136.855 255.908 137.464C256.669 139.357 256.763 141.252 255.111 141.252Z" fill="#DBDBDB"/>
<path d="M284.578 168.063C282.925 168.063 283.019 166.168 283.779 164.274C284.025 163.665 284.188 163.15 284.578 162.342C284.966 163.151 285.128 163.665 285.374 164.274C286.136 166.168 286.229 168.063 284.578 168.063Z" fill="#DBDBDB"/>
<path d="M357.524 241.637C355.87 241.637 355.964 239.742 356.725 237.848C356.971 237.24 357.134 236.725 357.524 235.916C357.912 236.725 358.074 237.241 358.32 237.848C359.081 239.742 359.175 241.637 357.524 241.637Z" fill="#DBDBDB"/>
<path d="M312.479 200.8C310.825 200.8 310.92 198.905 311.68 197.012C311.926 196.403 312.088 195.888 312.479 195.079C312.867 195.888 313.029 196.403 313.275 197.012C314.036 198.905 314.13 200.8 312.479 200.8Z" fill="#DBDBDB"/>
<path d="M346.074 174.244C344.421 174.244 344.515 172.348 345.276 170.455C345.522 169.846 345.684 169.331 346.074 168.522C346.463 169.331 346.625 169.846 346.871 170.455C347.632 172.348 347.726 174.244 346.074 174.244Z" fill="#DBDBDB"/>
<path d="M354.971 200.8C353.318 200.8 353.411 198.905 354.172 197.012C354.418 196.403 354.58 195.888 354.971 195.079C355.359 195.888 355.521 196.403 355.767 197.012C356.528 198.905 356.622 200.8 354.971 200.8Z" fill="#C7C7C7"/>
<path d="M365.147 170.546C363.493 170.546 363.587 168.652 364.348 166.758C364.594 166.149 364.756 165.634 365.147 164.825C365.535 165.635 365.697 166.149 365.943 166.758C366.704 168.651 366.798 170.546 365.147 170.546Z" fill="#C7C7C7"/>
<path d="M161.176 164.826C159.523 164.826 159.617 162.93 160.377 161.037C160.623 160.428 160.786 159.913 161.176 159.104C161.564 159.914 161.726 160.428 161.972 161.037C162.733 162.93 162.827 164.826 161.176 164.826Z" fill="#C7C7C7"/>
<path d="M236.576 153.576C234.923 153.576 235.017 151.68 235.777 149.787C236.023 149.178 236.186 148.663 236.576 147.854C236.964 148.664 237.126 149.178 237.372 149.787C238.134 151.68 238.227 153.576 236.576 153.576Z" fill="#C7C7C7"/>
<path d="M177.91 217.589C176.257 217.589 176.351 215.694 177.111 213.801C177.357 213.192 177.52 212.677 177.91 211.868C178.298 212.677 178.46 213.192 178.706 213.801C179.468 215.694 179.561 217.589 177.91 217.589Z" fill="#DBDBDB"/>
<path d="M166.281 242.234C164.628 242.234 164.722 240.338 165.482 238.445C165.729 237.836 165.891 237.321 166.281 236.513C166.669 237.322 166.831 237.836 167.078 238.445C167.839 240.339 167.933 242.234 166.281 242.234Z" fill="#DBDBDB"/>
<path d="M112.047 252.705H88.8496V262.507H112.047V252.705Z" fill="#EBEBEB"/>
<path d="M99.1075 265.065H75.9102V274.868H99.1075V265.065Z" fill="#EBEBEB"/>
<path d="M124.987 265.065H101.791V274.868H124.987V265.065Z" fill="#EBEBEB"/>
<path d="M441.481 265.065H418.283V274.868H441.481V265.065Z" fill="#EBEBEB"/>
<path d="M441.481 61.3652H418.283V71.1677H441.481V61.3652Z" fill="#EBEBEB"/>
<path d="M454.422 73.7256H431.225V83.528H454.422V73.7256Z" fill="#EBEBEB"/>
<path d="M99.1075 61.376H75.9102V71.1784H99.1075V61.376Z" fill="#EBEBEB"/>
<path d="M227.594 381.773H250.791V371.971H227.594V381.773Z" fill="#EBEBEB"/>
<path d="M240.536 369.414H263.732V359.612H240.536V369.414Z" fill="#EBEBEB"/>
<path d="M70.2871 397.654L118.532 397.441L166.778 397.364L263.267 397.217L359.757 397.363L408.002 397.44L456.247 397.654L408.002 397.869L359.757 397.946L263.267 398.091L166.778 397.945L118.532 397.867L70.2871 397.654Z" fill="#263238"/>
<path d="M124.768 430.429C149.643 430.429 169.808 426.647 169.808 421.981C169.808 417.316 149.643 413.533 124.768 413.533C99.8934 413.533 79.7285 417.316 79.7285 421.981C79.7285 426.647 99.8934 430.429 124.768 430.429Z" fill="#EBEBEB"/>
<path d="M358.643 430.429C409.632 430.429 450.967 426.647 450.967 421.981C450.967 417.316 409.632 413.533 358.643 413.533C307.653 413.533 266.318 417.316 266.318 421.981C266.318 426.647 307.653 430.429 358.643 430.429Z" fill="#EBEBEB"/>
<path d="M431.773 361.906H285.512V371.789H431.773V361.906Z" fill="#37474F"/>
<path d="M315.562 371.793L311.901 380.721L294.017 424.405H289.441L301.465 380.721L303.918 371.793H315.562Z" fill="#37474F"/>
<path d="M303.919 371.793H315.562L311.902 380.721H301.465L303.919 371.793Z" fill="#263238"/>
<path d="M427.841 424.405H423.265L405.382 380.721L401.73 371.793H413.365L415.817 380.721L427.841 424.405Z" fill="#37474F"/>
<path d="M415.817 380.721H405.382L401.73 371.793H413.365L415.817 380.721Z" fill="#263238"/>
<path opacity="0.6" d="M417.667 341.546C417.667 341.546 429.636 336.033 429.636 328.642C429.636 321.251 414.114 316.493 414.114 310.716C414.114 304.94 420.883 301.541 420.883 301.541C420.883 301.541 410.191 305.194 410.191 312.5C410.191 319.806 420.424 324.756 421.402 329.406C422.762 335.863 417.667 341.546 417.667 341.546Z" fill="#DBDBDB"/>
<path opacity="0.6" d="M418.26 341.545C418.26 341.545 406.291 337.21 406.291 331.4C406.291 325.589 421.813 321.848 421.813 317.306C421.813 312.764 415.044 310.092 415.044 310.092C415.044 310.092 425.736 312.964 425.736 318.708C425.736 324.452 413.986 328.402 413.146 333.069C412.321 337.646 418.26 341.545 418.26 341.545Z" fill="#DBDBDB"/>
<path d="M423.486 360.131H412.102V361.907H423.486V360.131Z" fill="#383192"/>
<path d="M423.486 360.131H412.102V361.303H423.486V360.131Z" fill="#17213A"/>
<path d="M398.588 355.355C399.935 357.247 402.318 358.601 404.999 358.097C405.38 358.025 405.762 357.918 406.153 357.765C406.684 357.56 407.219 357.284 407.763 356.918L406.316 354.774C406.022 354.978 405.736 355.137 405.462 355.259C402.751 356.488 401.035 354.351 400.698 353.863C399.137 351.67 398.579 346.66 400.159 344.733C400.263 344.591 400.72 344.364 402.554 344.755C402.892 344.831 403.276 344.916 403.71 345.036C404.191 345.173 404.478 345.251 404.751 345.26L404.797 343.973L404.923 342.688C404.804 342.667 404.62 342.613 404.379 342.545C403.687 342.36 402.755 342.106 401.79 342.008C400.441 341.868 399.026 342.03 398.159 343.095C395.592 346.242 396.634 352.606 398.588 355.355Z" fill="#383192"/>
<path d="M406.317 354.773C406.023 354.978 405.737 355.137 405.463 355.259L406.154 357.764C406.685 357.559 407.219 357.283 407.763 356.918L406.317 354.773Z" fill="#17213A"/>
<path d="M401.791 342.01L402.554 344.756C402.892 344.832 403.276 344.917 403.71 345.037C404.191 345.174 404.478 345.252 404.751 345.261L404.797 343.974L404.923 342.689C404.804 342.668 404.62 342.614 404.379 342.546C403.688 342.362 402.755 342.108 401.791 342.01Z" fill="#17213A"/>
<path d="M432.938 338.65C432.938 338.65 431.572 350.252 429.212 355.139C426.853 360.019 423.561 360.565 421.516 360.565C419.47 360.565 419.657 360.565 417.798 360.565C415.931 360.565 416.126 360.565 414.073 360.565C412.027 360.565 408.735 360.019 406.376 355.139C404.017 350.252 402.65 338.65 402.65 338.65H432.938Z" fill="#383192"/>
<path opacity="0.1" d="M407.598 341.965C407.598 342.707 406.996 343.309 406.254 343.309C405.512 343.309 404.91 342.707 404.91 341.965C404.91 341.223 405.512 340.621 406.254 340.621C406.996 340.62 407.598 341.222 407.598 341.965ZM418.116 340.34C417.374 340.34 416.772 340.942 416.772 341.684C416.772 342.426 417.374 343.027 418.116 343.027C418.858 343.027 419.46 342.426 419.46 341.684C419.46 340.942 418.858 340.34 418.116 340.34ZM418.116 357.225C417.374 357.225 416.772 357.827 416.772 358.569C416.772 359.311 417.374 359.912 418.116 359.912C418.858 359.912 419.46 359.311 419.46 358.569C419.46 357.827 418.858 357.225 418.116 357.225ZM427.865 349.609C427.123 349.609 426.521 350.211 426.521 350.953C426.521 351.695 427.123 352.296 427.865 352.296C428.607 352.296 429.209 351.695 429.209 350.953C429.209 350.21 428.607 349.609 427.865 349.609ZM412.923 353.581C412.181 353.581 411.579 354.182 411.579 354.924C411.579 355.666 412.181 356.268 412.923 356.268C413.665 356.268 414.267 355.666 414.267 354.924C414.267 354.182 413.665 353.581 412.923 353.581ZM428.713 340.34C427.971 340.34 427.369 340.942 427.369 341.684C427.369 342.426 427.971 343.027 428.713 343.027C429.455 343.027 430.057 342.426 430.057 341.684C430.057 340.942 429.455 340.34 428.713 340.34ZM417.957 349.399C417.215 349.399 416.614 350 416.614 350.742C416.614 351.484 417.215 352.086 417.957 352.086C418.699 352.086 419.301 351.484 419.301 350.742C419.301 350 418.699 349.399 417.957 349.399ZM407.763 349.609C407.021 349.609 406.419 350.211 406.419 350.953C406.419 351.695 407.021 352.296 407.763 352.296C408.505 352.296 409.107 351.695 409.107 350.953C409.107 350.21 408.505 349.609 407.763 349.609ZM423.487 345.11C422.745 345.11 422.143 345.711 422.143 346.453C422.143 347.195 422.745 347.797 423.487 347.797C424.229 347.797 424.83 347.195 424.83 346.453C424.83 345.711 424.229 345.11 423.487 345.11ZM423.118 353.8C422.376 353.8 421.774 354.402 421.774 355.144C421.774 355.886 422.376 356.488 423.118 356.488C423.86 356.488 424.462 355.886 424.462 355.144C424.462 354.402 423.861 353.8 423.118 353.8ZM412.29 345.11C411.548 345.11 410.947 345.711 410.947 346.453C410.947 347.195 411.548 347.797 412.29 347.797C413.032 347.797 413.634 347.195 413.634 346.453C413.635 345.711 413.032 345.11 412.29 345.11Z" fill="#17213A"/>
<path d="M362.966 350.201H303.635V361.907H362.966V350.201Z" fill="#383192"/>
<path d="M313.124 350.201H307.326V361.907H313.124V350.201Z" fill="#37474F"/>
<path d="M317.693 350.201H315.273V361.907H317.693V350.201Z" fill="#37474F"/>
<path d="M355.985 350.201H350.188V361.907H355.985V350.201Z" fill="#37474F"/>
<path d="M341.344 341.465H300.188V350.199H341.344V341.465Z" fill="#455A64"/>
<path d="M359.102 341.465H341.344V350.199H359.102V341.465Z" fill="#455A64"/>
<path d="M341.344 342.371H300.188V349.293H341.344V342.371Z" fill="#F3F4F6"/>
<path d="M302.85 343.794C306.058 343.714 309.265 343.656 312.472 343.627L322.095 343.576L331.718 343.626C334.926 343.656 338.134 343.714 341.341 343.794C338.133 343.875 334.925 343.934 331.718 343.962L322.095 344.012L312.472 343.962C309.265 343.933 306.058 343.875 302.85 343.794Z" fill="#B3B3B3"/>
<path d="M302.85 345.154C306.058 345.073 309.265 345.015 312.472 344.986L322.095 344.936L331.718 344.985C334.926 345.015 338.134 345.073 341.341 345.154C338.133 345.234 334.925 345.293 331.718 345.322L322.095 345.372L312.472 345.321C309.265 345.292 306.058 345.233 302.85 345.154Z" fill="#B3B3B3"/>
<path d="M302.85 346.511C306.058 346.43 309.265 346.373 312.472 346.344L322.095 346.293L331.718 346.343C334.926 346.373 338.134 346.43 341.341 346.511C338.133 346.592 334.925 346.65 331.718 346.679L322.095 346.729L312.472 346.678C309.265 346.65 306.058 346.591 302.85 346.511Z" fill="#B3B3B3"/>
<path d="M302.85 347.869C306.058 347.788 309.265 347.73 312.472 347.701L322.095 347.65L331.718 347.7C334.926 347.73 338.134 347.788 341.341 347.869C338.133 347.95 334.925 348.008 331.718 348.037L322.095 348.087L312.472 348.036C309.265 348.007 306.058 347.948 302.85 347.869Z" fill="#B3B3B3"/>
<path d="M350.604 331.895H309.416V341.466H350.604V331.895Z" fill="#37474F"/>
<path d="M346.237 331.895H342.398V341.466H346.237V331.895Z" fill="#383192"/>
<path d="M339.879 331.895H338.391V341.466H339.879V331.895Z" fill="#383192"/>
<path d="M406.623 94.1924H123.709V95.0684H406.623V94.1924Z" fill="#EBEBEB"/>
<path d="M406.622 327.478H123.709L150.843 295.99H379.488L406.622 327.478Z" fill="#EBEBEB"/>
<path d="M150.842 94.6309H123.709V327.479L150.842 295.991V94.6309Z" fill="#DBDBDB"/>
<path d="M379.488 94.6309H406.622V327.479L379.488 295.991V94.6309Z" fill="#DBDBDB"/>
<path d="M150.846 94.6309V295.993H379.495V94.6309H150.846ZM372.772 289.319H157.561V101.304H372.772V289.319H372.772Z" fill="#A6A6A6"/>
<path d="M268.528 101.305H261.809V289.316H268.528V101.305Z" fill="#A6A6A6"/>
<path d="M418.003 68.6357H112.326V73.5151H418.003V68.6357Z" fill="#EBEBEB"/>
<path d="M418.003 74.125H112.326V79.0043H418.003V74.125Z" fill="#EBEBEB"/>
<path d="M418.003 79.6143H112.326V84.4936H418.003V79.6143Z" fill="#EBEBEB"/>
<path d="M418.003 85.1035H112.326V89.9828H418.003V85.1035Z" fill="#EBEBEB"/>
<path d="M418.003 90.5928H112.326V95.4721H418.003V90.5928Z" fill="#EBEBEB"/>
<path d="M418.003 96.083H112.326V100.962H418.003V96.083Z" fill="#EBEBEB"/>
<path d="M418.003 101.571H112.326V106.451H418.003V101.571Z" fill="#EBEBEB"/>
<path d="M418.003 107.061H112.326V111.94H418.003V107.061Z" fill="#EBEBEB"/>
<path d="M418.003 112.551H112.326V117.43H418.003V112.551Z" fill="#EBEBEB"/>
<path d="M394.456 65.9707H393.58V204.719H394.456V65.9707Z" fill="#263238"/>
<path d="M395.575 208.799H392.465L393.244 204.331H394.795L395.575 208.799Z" fill="#263238"/>
<path d="M397.612 65.9707H396.736V254.952H397.612V65.9707Z" fill="#263238"/>
<path d="M398.731 258.237H395.621L396.401 253.77H397.951L398.731 258.237Z" fill="#263238"/>
<path d="M423.441 60.8672H106.889V71.0752H423.441V60.8672Z" fill="#DBDBDB"/>
<path d="M232.633 193.211C238.645 201.512 274.177 234.075 296.27 229.052C303.773 227.347 296.633 195.708 277.055 168.174C276.475 167.358 256.05 176.038 257.118 181.466C257.233 182.05 263.448 195.8 263.929 195.333C263.929 195.333 255.975 190.544 239.876 185.653C232.263 183.339 229.039 188.25 232.633 193.211Z" fill="#FFABA0"/>
<path d="M280.115 172.661C279.077 171.223 270.851 155.275 264.312 151.068C260.849 148.84 250.638 143.79 249.019 145.727C247.541 147.495 249.999 149.567 249.999 149.567C249.999 149.567 245.414 147.382 243.388 149.864C241.363 152.346 245.691 155.628 245.691 155.628C245.691 155.628 240.819 153.727 238.975 156.348C237.132 158.968 242.036 161.538 242.036 161.538C242.036 161.538 237.662 159.593 237.053 162.391C236.319 165.756 244.788 168.432 248.127 171.535C248.886 172.24 262.478 186.916 262.478 186.916L280.115 172.661Z" fill="#FFABA0"/>
<path d="M242.04 161.724C248.264 163.706 250.643 165.65 254.782 170.571C254.863 170.667 255.024 170.568 254.949 170.46C251.334 165.273 248.7 162.405 242.12 161.418C241.798 161.369 241.744 161.63 242.04 161.724Z" fill="#17213A"/>
<path d="M245.669 155.816C251.954 158.439 254.554 160.525 259.267 165.36C259.334 165.428 259.457 165.323 259.395 165.247C255.168 160.118 252.474 157.316 245.852 155.52C245.552 155.438 245.382 155.696 245.669 155.816Z" fill="#17213A"/>
<path d="M250.22 149.807C256.121 152.787 259.07 154.95 263.045 160.231C263.139 160.355 263.33 160.231 263.247 160.097C259.719 154.318 256.059 151.59 250.331 149.638C249.939 149.504 249.849 149.62 250.22 149.807Z" fill="#17213A"/>
<path d="M262.744 192.181C262.744 192.181 255.344 188.685 252.432 186.432C249.52 184.179 241.757 171.79 244.338 169.961C247.67 167.6 253.56 173.87 256.044 177.318C256.044 177.318 263.746 171.849 268.947 175.434C274.149 179.02 262.744 192.181 262.744 192.181Z" fill="#FFABA0"/>
<path d="M245.465 169.613C250.056 169.652 253.025 174.388 255.685 177.552C255.887 177.793 256.152 177.715 256.305 177.524C259.686 175.448 265.061 173.503 268.9 175.18C269.012 175.229 269.098 175.076 268.991 175.011C265.118 172.654 259.682 174.134 256.124 176.645C253.447 173.358 250.262 168.738 245.464 169.569C245.436 169.573 245.436 169.613 245.465 169.613Z" fill="#17213A"/>
<path d="M261.808 192.18L289.602 179.716C289.602 179.716 307.536 224.13 297.34 229.575C287.145 235.02 255.861 220.034 235.972 197.927C227.039 187.998 230.922 182.6 241.847 185.651C252.771 188.702 263.13 194.625 263.13 194.625L261.808 192.18Z" fill="#383192"/>
<path d="M280.731 221.939C280.03 221.939 279.461 222.509 279.461 223.209C279.461 223.91 280.03 224.48 280.731 224.48C281.432 224.48 282.01 223.91 282.01 223.209C282.01 222.509 281.432 221.939 280.731 221.939ZM280.731 224.261C280.153 224.261 279.68 223.788 279.68 223.209C279.68 222.631 280.153 222.158 280.731 222.158C281.318 222.158 281.791 222.631 281.791 223.209C281.791 223.788 281.318 224.261 280.731 224.261ZM247.487 196.045C246.777 196.045 246.208 196.614 246.208 197.315C246.208 198.016 246.777 198.585 247.487 198.585C248.187 198.585 248.757 198.016 248.757 197.315C248.757 196.614 248.187 196.045 247.487 196.045ZM247.487 198.366C246.9 198.366 246.427 197.893 246.427 197.315C246.427 196.737 246.9 196.264 247.487 196.264C248.065 196.264 248.538 196.737 248.538 197.315C248.538 197.893 248.065 198.366 247.487 198.366ZM252.795 189.58C252.681 190.035 252.27 190.377 251.779 190.377C251.201 190.377 250.728 189.904 250.728 189.326C250.728 189.124 250.78 188.94 250.885 188.783C250.824 188.756 250.754 188.73 250.684 188.704C250.57 188.888 250.509 189.098 250.509 189.326C250.509 190.026 251.078 190.596 251.779 190.596C252.357 190.596 252.856 190.202 252.997 189.667C252.935 189.641 252.865 189.606 252.795 189.58ZM278.374 198.83C277.674 198.83 277.104 199.4 277.104 200.1C277.104 200.801 277.674 201.371 278.374 201.371C279.075 201.371 279.645 200.801 279.645 200.1C279.645 199.4 279.075 198.83 278.374 198.83ZM278.374 201.152C277.796 201.152 277.323 200.679 277.323 200.1C277.323 199.522 277.796 199.049 278.374 199.049C278.953 199.049 279.426 199.522 279.426 200.1C279.426 200.679 278.953 201.152 278.374 201.152ZM292.32 195.388C291.611 195.388 291.041 195.966 291.041 196.667C291.041 197.367 291.611 197.937 292.32 197.937C293.021 197.937 293.59 197.367 293.59 196.667C293.59 195.966 293.021 195.388 292.32 195.388ZM292.32 197.718C291.733 197.718 291.26 197.245 291.26 196.667C291.26 196.08 291.733 195.607 292.32 195.607C292.898 195.607 293.371 196.08 293.371 196.667C293.371 197.245 292.898 197.718 292.32 197.718ZM283.227 189.685C282.527 189.685 281.957 190.254 281.957 190.955C281.957 191.656 282.527 192.234 283.227 192.234C283.937 192.234 284.506 191.656 284.506 190.955C284.506 190.254 283.937 189.685 283.227 189.685ZM283.227 192.015C282.649 192.015 282.176 191.542 282.176 190.955C282.176 190.377 282.649 189.904 283.227 189.904C283.814 189.904 284.287 190.377 284.287 190.955C284.287 191.542 283.814 192.015 283.227 192.015ZM287.529 203.578C286.828 203.578 286.258 204.156 286.258 204.857C286.258 205.558 286.828 206.127 287.529 206.127C288.229 206.127 288.799 205.558 288.799 204.857C288.799 204.156 288.229 203.578 287.529 203.578ZM287.529 205.908C286.95 205.908 286.477 205.435 286.477 204.857C286.477 204.27 286.95 203.797 287.529 203.797C288.115 203.797 288.58 204.27 288.58 204.857C288.58 205.435 288.115 205.908 287.529 205.908ZM288.808 225.54C288.098 225.54 287.529 226.109 287.529 226.81C287.529 227.511 288.098 228.08 288.808 228.08C289.508 228.08 290.078 227.511 290.078 226.81C290.078 226.109 289.508 225.54 288.808 225.54ZM288.808 227.861C288.221 227.861 287.748 227.388 287.748 226.81C287.748 226.223 288.221 225.759 288.808 225.759C289.386 225.759 289.859 226.223 289.859 226.81C289.859 227.388 289.386 227.861 288.808 227.861ZM287.993 180.645C287.292 180.645 286.723 181.214 286.723 181.915C286.723 182.624 287.292 183.194 287.993 183.194C288.694 183.194 289.263 182.624 289.263 181.915C289.263 181.214 288.694 180.645 287.993 180.645ZM287.993 182.975C287.415 182.975 286.942 182.502 286.942 181.915C286.942 181.337 287.415 180.864 287.993 180.864C288.571 180.864 289.044 181.337 289.044 181.915C289.044 182.502 288.571 182.975 287.993 182.975ZM275.554 186.014C275.545 186.023 275.545 186.023 275.536 186.023C275.413 186.128 275.265 186.198 275.098 186.225H275.089L274.643 186.426C274.73 186.452 274.809 186.461 274.905 186.461C275.378 186.461 275.799 186.198 276.009 185.813L275.554 186.014ZM237.36 192.015C236.659 192.015 236.09 192.584 236.09 193.285C236.09 193.986 236.659 194.555 237.36 194.555C238.061 194.555 238.63 193.986 238.63 193.285C238.63 192.584 238.061 192.015 237.36 192.015ZM237.36 194.336C236.773 194.336 236.309 193.863 236.309 193.285C236.309 192.698 236.773 192.234 237.36 192.234C237.938 192.234 238.411 192.698 238.411 193.285C238.411 193.863 237.938 194.336 237.36 194.336ZM263.053 212.505C262.352 212.505 261.783 213.074 261.783 213.775C261.783 214.476 262.352 215.045 263.053 215.045C263.754 215.045 264.323 214.476 264.323 213.775C264.323 213.074 263.754 212.505 263.053 212.505ZM263.053 214.826C262.475 214.826 262.002 214.362 262.002 213.775C262.002 213.197 262.475 212.724 263.053 212.724C263.631 212.724 264.104 213.197 264.104 213.775C264.104 214.362 263.631 214.826 263.053 214.826ZM272.602 216.639C271.901 216.639 271.331 217.209 271.331 217.918C271.331 218.619 271.901 219.189 272.602 219.189C273.302 219.189 273.872 218.619 273.872 217.918C273.872 217.209 273.302 216.639 272.602 216.639ZM272.602 218.97C272.023 218.97 271.55 218.496 271.55 217.918C271.55 217.331 272.023 216.858 272.602 216.858C273.18 216.858 273.653 217.331 273.653 217.918C273.653 218.496 273.18 218.97 272.602 218.97ZM292.881 216.858C292.18 216.858 291.602 217.428 291.602 218.137C291.602 218.838 292.18 219.408 292.881 219.408C293.582 219.408 294.151 218.838 294.151 218.137C294.151 217.428 293.582 216.858 292.881 216.858ZM292.881 219.189C292.294 219.189 291.821 218.715 291.821 218.137C291.821 217.55 292.294 217.077 292.881 217.077C293.459 217.077 293.932 217.55 293.932 218.137C293.932 218.715 293.459 219.189 292.881 219.189ZM296.989 229.587C296.551 229.587 296.157 229.814 295.929 230.156C296.087 230.112 296.236 230.06 296.385 230.007C296.394 229.998 296.402 229.998 296.411 229.998C296.534 229.902 296.674 229.841 296.832 229.814H296.84C296.989 229.753 297.13 229.692 297.261 229.613C297.173 229.595 297.086 229.587 296.989 229.587ZM255.809 204.857C255.108 204.857 254.53 205.427 254.53 206.127C254.53 206.828 255.108 207.398 255.809 207.398C256.509 207.398 257.079 206.828 257.079 206.127C257.079 205.427 256.509 204.857 255.809 204.857ZM255.809 207.179C255.222 207.179 254.749 206.706 254.749 206.127C254.749 205.549 255.222 205.076 255.809 205.076C256.387 205.076 256.86 205.549 256.86 206.127C256.86 206.706 256.387 207.179 255.809 207.179ZM259.47 196.667C258.769 196.667 258.2 197.236 258.2 197.937C258.2 198.638 258.769 199.207 259.47 199.207C260.171 199.207 260.74 198.638 260.74 197.937C260.74 197.236 260.171 196.667 259.47 196.667ZM259.47 198.988C258.892 198.988 258.419 198.515 258.419 197.937C258.419 197.359 258.892 196.886 259.47 196.886C260.048 196.886 260.521 197.359 260.521 197.937C260.521 198.515 260.048 198.988 259.47 198.988ZM270.306 192.663C269.606 192.663 269.036 193.233 269.036 193.933C269.036 194.634 269.606 195.204 270.306 195.204C271.007 195.204 271.577 194.634 271.577 193.933C271.577 193.233 271.007 192.663 270.306 192.663ZM270.306 194.985C269.728 194.985 269.255 194.512 269.255 193.933C269.255 193.355 269.728 192.882 270.306 192.882C270.885 192.882 271.358 193.355 271.358 193.933C271.358 194.512 270.885 194.985 270.306 194.985ZM275.904 207.967C275.203 207.967 274.634 208.536 274.634 209.237C274.634 209.938 275.203 210.516 275.904 210.516C276.605 210.516 277.183 209.938 277.183 209.237C277.183 208.536 276.605 207.967 275.904 207.967ZM275.904 210.297C275.326 210.297 274.853 209.824 274.853 209.237C274.853 208.659 275.326 208.186 275.904 208.186C276.491 208.186 276.964 208.659 276.964 209.237C276.964 209.824 276.491 210.297 275.904 210.297ZM284.506 213.17C283.806 213.17 283.227 213.74 283.227 214.441C283.227 215.141 283.806 215.711 284.506 215.711C285.207 215.711 285.777 215.141 285.777 214.441C285.777 213.74 285.207 213.17 284.506 213.17ZM284.506 215.492C283.919 215.492 283.446 215.019 283.446 214.441C283.446 213.862 283.919 213.389 284.506 213.389C285.085 213.389 285.558 213.862 285.558 214.441C285.558 215.019 285.085 215.492 284.506 215.492ZM299.854 222.009C300.073 222.009 300.283 222.079 300.45 222.202C300.458 222.123 300.458 222.044 300.467 221.957C300.283 221.852 300.073 221.79 299.854 221.79C299.153 221.79 298.584 222.368 298.584 223.069C298.584 223.77 299.153 224.339 299.854 224.339C299.994 224.339 300.134 224.313 300.266 224.269C300.283 224.19 300.292 224.103 300.301 224.024C300.16 224.085 300.012 224.12 299.854 224.12C299.276 224.12 298.803 223.647 298.803 223.069C298.803 222.482 299.276 222.009 299.854 222.009ZM296.481 207.398C295.772 207.398 295.202 207.967 295.202 208.677C295.202 209.377 295.772 209.947 296.481 209.947C297.182 209.947 297.751 209.377 297.751 208.677C297.751 207.967 297.182 207.398 296.481 207.398ZM296.481 209.728C295.894 209.728 295.421 209.255 295.421 208.677C295.421 208.09 295.894 207.617 296.481 207.617C297.059 207.617 297.532 208.09 297.532 208.677C297.532 209.255 297.059 209.728 296.481 209.728ZM267.626 203.937C266.925 203.937 266.347 204.507 266.347 205.208C266.347 205.908 266.925 206.478 267.626 206.478C268.327 206.478 268.896 205.908 268.896 205.208C268.896 204.507 268.327 203.937 267.626 203.937ZM267.626 206.259C267.039 206.259 266.566 205.786 266.566 205.208C266.566 204.629 267.039 204.156 267.626 204.156C268.204 204.156 268.677 204.629 268.677 205.208C268.677 205.786 268.204 206.259 267.626 206.259Z" fill="#F3F4F6"/>
<path d="M263.174 194.625C266.558 201.57 270.083 208.453 273.791 215.231C274.824 217.121 275.84 219.02 276.865 220.914C276.901 220.98 276.792 221.036 276.75 220.976C274.543 217.797 272.528 214.499 270.664 211.108C268.82 207.754 267.031 204.318 265.525 200.796C264.659 198.772 263.824 196.734 263.039 194.677C263.005 194.589 263.133 194.543 263.174 194.625Z" fill="#17213A"/>
<path d="M290.112 186.659C286.074 188.192 282.092 189.919 278.153 191.724C276.219 192.611 274.282 193.498 272.378 194.458C270.396 195.458 268.464 196.578 266.479 197.561C266.389 197.606 266.439 197.75 266.531 197.708C268.533 196.789 270.603 196.018 272.625 195.144C274.575 194.303 276.504 193.403 278.439 192.519C282.385 190.717 286.33 188.897 290.22 186.958C290.404 186.868 290.307 186.585 290.112 186.659Z" fill="#17213A"/>
<path d="M254.521 214.44C247.924 209.683 241.503 204.077 235.967 197.928C228.144 189.229 230.159 183.999 238.131 184.901L254.521 214.44Z" fill="#17213A"/>
<path d="M372.674 305.916C370.476 306.713 305.361 307.995 302.91 306.501C302.624 306.349 301.563 284.807 301.563 284.807C301.641 284.501 300.553 282.424 298.893 279.54C294.25 271.438 285.174 256.928 285.174 256.928L323.819 245.242L339.695 277.043L343.741 285.156C343.741 285.156 352.616 288.626 360.359 292.086C360.37 292.097 360.38 292.097 360.38 292.106C365.151 294.228 369.299 296.174 370.267 296.9C372.759 298.814 374.873 305.14 372.674 305.916Z" fill="#FFABA0"/>
<path d="M372.674 305.916C370.476 306.713 305.361 307.996 302.91 306.501C302.623 306.35 301.563 284.807 301.563 284.807C301.641 284.501 300.553 282.424 298.893 279.54L339.695 277.043L343.74 285.156C343.74 285.156 352.616 288.626 360.359 292.087C360.369 292.097 360.38 292.097 360.38 292.107C365.151 294.228 369.298 296.174 370.266 296.9C372.759 298.814 374.872 305.14 372.674 305.916Z" fill="#F3F4F6"/>
<path d="M372.948 306.159C370.683 306.96 305.484 308.079 302.97 306.55C302.015 305.975 300.864 295.939 301.566 284.808L343.601 284.137C343.601 284.137 367.944 294.897 370.521 296.868C373.084 298.842 375.212 305.358 372.948 306.159Z" fill="#383192"/>
<path opacity="0.1" d="M320.029 307.288C310.75 307.246 303.765 307.026 302.969 306.554C302.015 305.977 300.861 295.942 301.564 284.806L302.591 284.785L320.029 307.288Z" fill="#17213A"/>
<path d="M371.968 303.567C361.034 303.486 316.926 304.192 306.112 304.942C306.025 304.948 306.025 305.008 306.113 305.011C316.948 305.328 361.05 304.264 371.972 303.746C372.202 303.735 372.199 303.568 371.968 303.567Z" fill="#17213A"/>
<path d="M366.287 294.596C363.693 294.535 361.181 295.809 359.794 297.377C358.462 298.884 357.336 300.989 357.452 303.254C357.455 303.319 357.575 303.319 357.584 303.252C358.135 298.964 361.96 295.141 366.29 294.733C366.377 294.725 366.376 294.599 366.287 294.596Z" fill="#17213A"/>
<path d="M347.05 285.174C342.674 285.188 337.629 286.819 334.972 290.444C334.869 290.584 335.07 290.729 335.198 290.659C339.119 288.553 342.851 286.97 347.134 285.712C347.436 285.622 347.363 285.173 347.05 285.174Z" fill="#17213A"/>
<path d="M350.448 286.432C346.072 286.446 341.027 288.077 338.37 291.702C338.267 291.842 338.468 291.986 338.597 291.917C342.516 289.811 346.25 288.227 350.533 286.97C350.834 286.881 350.76 286.431 350.448 286.432Z" fill="#17213A"/>
<path d="M353.849 287.691C349.473 287.705 344.428 289.337 341.771 292.961C341.667 293.102 341.869 293.246 341.998 293.177C345.917 291.07 349.65 289.487 353.933 288.229C354.234 288.14 354.162 287.691 353.849 287.691Z" fill="#17213A"/>
<path d="M357.247 288.949C352.871 288.963 347.826 290.594 345.169 294.219C345.066 294.359 345.267 294.504 345.396 294.435C349.315 292.329 353.049 290.745 357.332 289.487C357.633 289.398 357.56 288.948 357.247 288.949Z" fill="#17213A"/>
<path d="M308.718 294.515C303.81 294.613 303.954 302.24 308.87 302.142C313.778 302.043 313.634 294.416 308.718 294.515Z" fill="#17213A"/>
<path d="M351.576 273.42C349.33 271.622 346.571 273.464 345.239 275.394C343.08 278.52 341.636 282.873 341.455 286.648C341.451 286.741 341.523 286.777 341.594 286.771C341.693 287.082 342.068 287.339 342.386 287.11C345.464 284.903 349.028 282.924 351.337 279.838C352.684 278.036 353.7 275.121 351.576 273.42ZM346.368 282.809C344.88 283.931 343.347 284.975 341.902 286.152C342.646 283.959 343.291 281.745 344.256 279.628C344.717 278.618 345.208 277.588 345.803 276.649C346.729 275.188 350.96 271.458 351.477 276.21C351.762 278.831 348.141 281.472 346.368 282.809Z" fill="#17213A"/>
<path d="M330.615 288.457C334.434 288.977 338.344 287.826 342.077 287.181C342.464 287.114 342.544 286.667 342.39 286.378C342.446 286.331 342.469 286.255 342.4 286.193C339.584 283.673 335.467 281.648 331.725 280.994C329.415 280.59 326.167 281.264 325.873 284.126C325.596 286.832 328.386 288.153 330.615 288.457ZM327.932 286.012C324.907 282.31 330.534 281.912 332.224 282.277C333.312 282.512 334.39 282.883 335.432 283.264C337.618 284.061 339.649 285.155 341.733 286.162C339.881 286.366 338.062 286.727 336.218 287.001C334.021 287.326 329.599 288.054 327.932 286.012Z" fill="#17213A"/>
<path d="M295.955 279.119L341.801 272.171C341.801 272.171 319.764 228.249 306.122 204.414C298.537 191.162 277.788 190.512 267.695 206.391C254.213 227.603 243.752 247.479 237.756 258.499L227.355 259.389L229.6 276.379L264.161 284.119C277.4 285.704 286.692 262.134 286.908 262.533C288.584 265.629 295.955 279.119 295.955 279.119Z" fill="#37474F"/>
<path d="M287.152 262.637C285.847 259.967 284.83 257.133 283.672 254.397C282.552 251.749 281.424 249.106 280.311 246.456C278.062 241.099 275.733 235.769 273.552 230.386C272.327 227.364 271.203 224.304 270.059 221.251C270.032 221.178 269.918 221.21 269.942 221.287C270.827 224.173 271.748 227.047 272.714 229.906C272.457 229.412 272.202 228.919 271.934 228.439C271.198 227.122 270.439 225.822 269.675 224.522C269.645 224.472 269.57 224.519 269.598 224.57C270.301 225.876 271.004 227.179 271.735 228.47C272.099 229.113 272.495 229.748 272.88 230.389C275.6 238.396 278.683 246.273 282.389 253.882C283.847 256.874 285.554 259.738 287.013 262.725C287.058 262.818 287.197 262.732 287.152 262.637Z" fill="#17213A"/>
<path d="M296.979 270.968C294.769 267.558 289.505 257.234 287.619 253.665C283.805 246.446 280.315 239.078 277.016 231.613C275.152 227.395 273.408 223.138 271.681 218.862C271.67 218.833 271.625 218.845 271.634 218.876C274.231 226.579 277.325 234.124 280.681 241.523C284.042 248.933 294.887 268.896 296.839 271.054C296.91 271.133 297.036 271.058 296.979 270.968Z" fill="#17213A"/>
<path d="M268.519 224.564C264.569 231.618 260.532 238.624 256.564 245.668C254.559 249.229 252.555 252.789 250.572 256.362C249.638 258.043 248.732 259.743 247.764 261.405C246.848 262.976 245.754 264.277 244.141 265.163C242.365 266.138 240.322 266.605 238.393 267.17C236.163 267.823 233.948 268.524 231.707 269.139C231.605 269.167 231.653 269.323 231.754 269.296C233.752 268.762 235.768 268.302 237.776 267.807C239.599 267.357 241.473 266.977 243.24 266.332C244.841 265.749 246.225 264.88 247.293 263.535C248.437 262.094 249.251 260.405 250.129 258.798C254.093 251.553 258.015 244.284 261.91 237.001C264.123 232.861 266.318 228.711 268.556 224.584C268.567 224.56 268.531 224.541 268.519 224.564Z" fill="#17213A"/>
<path d="M294.915 272.685C297.662 272.185 300.476 271.947 303.245 271.59C306.022 271.233 308.8 270.874 311.577 270.511C317.117 269.787 335.975 266.783 337.399 266.311C337.489 266.281 337.458 266.135 337.367 266.132C336.017 266.09 323.668 267.734 320.898 268.142C315.358 268.958 309.855 269.94 304.334 270.871C302.757 271.136 301.188 271.437 299.614 271.715C298.043 271.994 296.47 272.332 294.887 272.535C294.793 272.549 294.818 272.703 294.915 272.685Z" fill="#17213A"/>
<path d="M322.404 320.294C321.671 318.074 282.368 266.146 279.684 265.146C279.377 265.014 261.809 277.517 261.809 277.517C261.083 278.484 227.688 271.427 227.688 271.427L227.355 311.714L288.188 310.42C288.188 310.42 296.405 315.25 303.921 319.186C303.935 319.188 303.94 319.196 303.948 319.19C308.572 321.627 312.667 323.681 313.835 323.986C316.877 324.764 323.152 322.503 322.404 320.294Z" fill="#FFABA0"/>
<path d="M313.836 323.984C312.663 323.684 308.573 321.629 303.951 319.186C303.941 319.196 303.931 319.186 303.922 319.186C296.411 315.252 288.192 310.416 288.192 310.416L274.653 310.706L253.457 276.505C258.109 277.328 261.578 277.823 261.811 277.513C261.811 277.513 279.372 265.011 279.682 265.147C282.367 266.145 321.666 318.073 322.403 320.292C323.15 322.502 316.879 324.77 313.836 323.984Z" fill="#F3F4F6"/>
<path d="M322.763 320.362C321.991 318.088 282.511 266.189 279.754 265.16C278.711 264.765 270.117 270.074 261.809 277.515L287.301 310.944C287.301 310.944 310.82 323.404 313.965 324.206C317.101 324.999 323.536 322.637 322.763 320.362Z" fill="#383192"/>
<path d="M320.121 321.197C313.29 312.659 286.542 277.581 280.437 268.622C280.387 268.549 280.435 268.513 280.491 268.581C287.448 276.895 313.911 312.19 320.263 321.089C320.398 321.276 320.265 321.377 320.121 321.197Z" fill="#17213A"/>
<path d="M309.557 322.289C307.904 320.29 307.35 317.528 307.722 315.469C308.081 313.49 309.037 311.302 310.888 309.991C310.941 309.953 311.015 310.048 310.968 310.096C307.941 313.183 307.306 318.554 309.666 322.207C309.714 322.28 309.614 322.358 309.557 322.289Z" fill="#17213A"/>
<path d="M290.25 313.01C287.552 309.565 285.71 304.593 286.912 300.262C286.958 300.094 287.196 300.163 287.221 300.307C287.993 304.69 289.06 308.601 290.723 312.744C290.842 313.036 290.443 313.257 290.25 313.01Z" fill="#17213A"/>
<path d="M293.341 314.902C290.644 311.457 288.802 306.485 290.004 302.155C290.05 301.987 290.288 302.056 290.313 302.199C291.085 306.581 292.153 310.493 293.815 314.636C293.933 314.929 293.534 315.148 293.341 314.902Z" fill="#17213A"/>
<path d="M296.435 316.793C293.738 313.348 291.896 308.376 293.097 304.046C293.144 303.877 293.382 303.947 293.408 304.09C294.179 308.472 295.246 312.384 296.91 316.527C297.026 316.819 296.629 317.039 296.435 316.793Z" fill="#17213A"/>
<path d="M299.527 318.683C296.83 315.238 294.987 310.266 296.189 305.936C296.236 305.769 296.473 305.837 296.499 305.981C297.27 310.363 298.337 314.275 300.001 318.417C300.118 318.71 299.72 318.93 299.527 318.683Z" fill="#17213A"/>
<path d="M273.858 277.125C270.898 273.209 276.978 268.601 279.943 272.523C282.904 276.439 276.824 281.047 273.858 277.125Z" fill="#17213A"/>
<path d="M288.712 319.681C289.707 315.958 289.055 311.933 288.885 308.15C288.867 307.757 288.433 307.621 288.127 307.737C288.087 307.677 288.015 307.643 287.945 307.704C285.091 310.181 282.566 314.012 281.447 317.642C280.756 319.883 281.017 323.191 283.82 323.842C286.47 324.456 288.131 321.855 288.712 319.681ZM285.95 322.037C281.898 324.573 282.209 318.941 282.783 317.309C283.153 316.261 283.657 315.237 284.165 314.25C285.23 312.182 286.57 310.305 287.832 308.363C287.802 310.228 287.931 312.077 287.971 313.94C288.016 316.16 288.184 320.639 285.95 322.037Z" fill="#17213A"/>
<path d="M276.319 297.029C274.253 299.031 275.734 301.999 277.481 303.564C280.311 306.097 284.449 308.078 288.172 308.73C288.264 308.745 288.308 308.68 288.311 308.608C288.633 308.549 288.935 308.209 288.748 307.864C286.944 304.534 285.428 300.749 282.657 298.072C281.037 296.508 278.272 295.136 276.319 297.029ZM284.98 303.375C285.906 304.992 286.749 306.643 287.736 308.225C285.653 307.211 283.538 306.293 281.559 305.071C280.615 304.487 279.655 303.869 278.799 303.162C277.465 302.06 274.296 297.394 279.075 297.478C281.71 297.523 283.875 301.447 284.98 303.375Z" fill="#17213A"/>
<path d="M245.146 262.117C245.146 262.117 186.242 250.413 167.279 254.259C140.832 259.623 135.975 290.894 155.588 302.547C180.436 317.311 272.772 314.452 272.772 314.452L248.868 273.937C248.868 273.937 219.848 266.197 186.504 267.319L245.436 277.502L245.146 262.117Z" fill="#37474F"/>
<path d="M250.459 276.552C250.429 276.502 250.423 276.401 250.409 276.345C250.395 276.289 250.381 276.232 250.367 276.176C250.334 276.045 250.299 275.914 250.262 275.784C250.186 275.512 250.088 275.254 249.985 274.991C249.881 274.729 249.769 274.474 249.648 274.219C249.525 273.956 249.358 273.744 249.201 273.503C249.185 273.478 249.158 273.474 249.137 273.459C249.124 273.447 249.11 273.438 249.095 273.429C249.074 273.42 249.057 273.408 249.035 273.404C249.014 273.396 248.998 273.384 248.975 273.38C244.931 272.627 217.454 268.696 213.368 268.23C209.249 267.76 192.211 265.995 183.941 266.137C183.166 266.15 182.392 266.181 181.617 266.208C181.454 266.153 181.277 266.124 181.108 266.083C180.712 265.987 180.317 265.889 179.916 265.812C179.17 265.668 178.418 265.56 177.667 265.445C176.103 265.206 174.533 265.04 172.976 264.749C172.882 264.731 172.845 264.874 172.94 264.895C174.505 265.242 176.043 265.695 177.61 266.036C178.062 266.134 178.513 266.233 178.966 266.324C175.933 266.483 172.905 266.717 169.879 266.991C169.784 267 169.781 267.147 169.879 267.142C173.997 266.9 178.147 266.869 182.271 266.939C186.367 267.009 203.34 268.549 211.581 269.412C216.204 269.895 244.221 273.984 248.865 274.179C248.886 274.18 248.903 274.172 248.922 274.169C248.96 274.276 248.997 274.382 249.05 274.486C249.177 274.738 249.305 274.988 249.443 275.234C249.576 275.473 249.707 275.707 249.858 275.934C249.933 276.047 250.008 276.159 250.085 276.271C250.124 276.326 250.163 276.382 250.201 276.438C250.234 276.485 250.304 276.558 250.322 276.613C250.355 276.716 250.515 276.647 250.459 276.552Z" fill="#17213A"/>
<path d="M264.148 311.99C262.668 309.623 261.406 307.097 260.052 304.655C258.693 302.205 257.333 299.758 255.97 297.311C253.25 292.431 243.488 276.018 242.523 274.87C242.462 274.797 242.337 274.88 242.368 274.965C242.828 276.235 248.921 287.102 250.323 289.525C253.128 294.371 256.075 299.122 258.981 303.906C259.81 305.273 260.669 306.621 261.51 307.981C262.35 309.337 263.246 310.674 264.019 312.069C264.067 312.154 264.2 312.073 264.148 311.99Z" fill="#17213A"/>
<path d="M242.249 278.954C239.809 278.369 237.31 277.987 234.845 277.521C232.374 277.053 229.902 276.589 227.429 276.13C222.483 275.212 195.844 270.17 173.562 268.178C173.443 268.168 173.446 268.36 173.567 268.366C183.629 268.819 215.593 274.588 225.422 276.245C228.196 276.713 230.969 277.189 233.743 277.67C236.557 278.158 239.375 278.758 242.208 279.118C242.313 279.131 242.357 278.979 242.249 278.954Z" fill="#17213A"/>
<path d="M250.133 261.581C249.036 262.484 187.315 256.157 187.053 255.728C186.345 254.563 199.203 216.506 207.511 202.388C218.164 184.287 223.012 183.147 225.917 182.355C229.632 181.342 235.706 182.15 238.496 184.158C240.051 185.278 244.223 194.408 245.642 201.624C248.492 216.116 251.09 260.786 250.133 261.581Z" fill="#383192"/>
<path d="M246.847 209.535C246.725 209.973 246.313 210.297 245.831 210.297C245.253 210.297 244.78 209.824 244.78 209.237C244.78 208.659 245.253 208.186 245.831 208.186C246.217 208.186 246.558 208.396 246.734 208.703C246.725 208.572 246.707 208.44 246.69 208.309C246.462 208.09 246.164 207.967 245.831 207.967C245.13 207.967 244.561 208.537 244.561 209.237C244.561 209.938 245.13 210.516 245.831 210.516C246.269 210.516 246.663 210.289 246.9 209.938C246.882 209.798 246.865 209.667 246.847 209.535ZM237.36 192.015C236.66 192.015 236.09 192.585 236.09 193.285C236.09 193.986 236.66 194.556 237.36 194.556C238.061 194.556 238.631 193.986 238.631 193.285C238.631 192.585 238.061 192.015 237.36 192.015ZM237.36 194.337C236.773 194.337 236.309 193.864 236.309 193.285C236.309 192.699 236.773 192.234 237.36 192.234C237.939 192.234 238.412 192.699 238.412 193.285C238.412 193.864 237.939 194.337 237.36 194.337ZM216.039 189.72C215.986 189.781 215.933 189.852 215.881 189.913C216.398 189.983 216.792 190.421 216.792 190.955C216.792 191.542 216.319 192.015 215.741 192.015C215.294 192.015 214.917 191.735 214.76 191.341C214.716 191.402 214.672 191.463 214.611 191.533C214.821 191.945 215.25 192.234 215.741 192.234C216.441 192.234 217.011 191.656 217.011 190.955C217.011 190.36 216.599 189.86 216.039 189.72ZM223.117 207.967C222.416 207.967 221.846 208.537 221.846 209.237C221.846 209.938 222.416 210.516 223.117 210.516C223.826 210.516 224.396 209.938 224.396 209.237C224.396 208.537 223.826 207.967 223.117 207.967ZM223.117 210.297C222.538 210.297 222.065 209.824 222.065 209.237C222.065 208.659 222.538 208.186 223.117 208.186C223.704 208.186 224.177 208.659 224.177 209.237C224.177 209.824 223.704 210.297 223.117 210.297ZM221.96 233.871C221.259 233.871 220.681 234.44 220.681 235.141C220.681 235.842 221.259 236.411 221.96 236.411C222.661 236.411 223.23 235.842 223.23 235.141C223.23 234.44 222.661 233.871 221.96 233.871ZM221.96 236.192C221.373 236.192 220.9 235.719 220.9 235.141C220.9 234.563 221.373 234.09 221.96 234.09C222.538 234.09 223.011 234.563 223.011 235.141C223.011 235.719 222.538 236.192 221.96 236.192ZM201.164 243.918C200.463 243.918 199.894 244.488 199.894 245.188C199.894 245.898 200.463 246.467 201.164 246.467C201.865 246.467 202.443 245.898 202.443 245.188C202.443 244.488 201.865 243.918 201.164 243.918ZM201.164 246.248C200.586 246.248 200.113 245.775 200.113 245.188C200.113 244.61 200.586 244.137 201.164 244.137C201.751 244.137 202.224 244.61 202.224 245.188C202.224 245.775 201.751 246.248 201.164 246.248ZM211.378 212.505C210.677 212.505 210.108 213.074 210.108 213.775C210.108 214.476 210.677 215.045 211.378 215.045C212.079 215.045 212.657 214.476 212.657 213.775C212.657 213.074 212.079 212.505 211.378 212.505ZM211.378 214.826C210.8 214.826 210.327 214.362 210.327 213.775C210.327 213.197 210.8 212.724 211.378 212.724C211.965 212.724 212.438 213.197 212.438 213.775C212.438 214.362 211.965 214.826 211.378 214.826ZM210.327 236.481C209.626 236.481 209.057 237.05 209.057 237.751C209.057 238.452 209.626 239.021 210.327 239.021C211.028 239.021 211.597 238.452 211.597 237.751C211.597 237.05 211.028 236.481 210.327 236.481ZM210.327 238.802C209.749 238.802 209.276 238.338 209.276 237.751C209.276 237.173 209.749 236.7 210.327 236.7C210.905 236.7 211.378 237.173 211.378 237.751C211.378 238.338 210.905 238.802 210.327 238.802ZM221.207 255.324C220.506 255.324 219.937 255.893 219.937 256.594C219.937 257.295 220.506 257.873 221.207 257.873C221.908 257.873 222.477 257.295 222.477 256.594C222.477 255.893 221.908 255.324 221.207 255.324ZM221.207 257.654C220.629 257.654 220.156 257.181 220.156 256.594C220.156 256.016 220.629 255.543 221.207 255.543C221.794 255.543 222.258 256.016 222.258 256.594C222.258 257.181 221.794 257.654 221.207 257.654ZM195.952 255.324C195.251 255.324 194.682 255.893 194.682 256.594C194.682 256.629 194.682 256.673 194.69 256.708C194.76 256.717 194.831 256.725 194.909 256.734C194.901 256.69 194.901 256.647 194.901 256.594C194.901 256.016 195.374 255.543 195.952 255.543C196.53 255.543 197.003 256.016 197.003 256.594C197.003 256.725 196.977 256.848 196.942 256.962C197.012 256.971 197.091 256.979 197.161 256.979C197.205 256.857 197.222 256.725 197.222 256.594C197.222 255.893 196.653 255.324 195.952 255.324ZM195.952 234.501C195.251 234.501 194.682 235.071 194.682 235.771C194.682 236.472 195.251 237.042 195.952 237.042C196.653 237.042 197.222 236.472 197.222 235.771C197.222 235.071 196.653 234.501 195.952 234.501ZM195.952 236.823C195.374 236.823 194.901 236.35 194.901 235.771C194.901 235.193 195.374 234.72 195.952 234.72C196.53 234.72 197.003 235.193 197.003 235.771C197.003 236.35 196.53 236.823 195.952 236.823ZM200.437 217.139C200.411 217.209 200.384 217.279 200.358 217.349C200.577 217.542 200.709 217.822 200.709 218.138C200.709 218.716 200.235 219.189 199.657 219.189C199.64 219.189 199.614 219.189 199.596 219.18C199.561 219.25 199.535 219.32 199.508 219.39C199.552 219.408 199.605 219.408 199.657 219.408C200.358 219.408 200.928 218.838 200.928 218.138C200.928 217.726 200.735 217.358 200.437 217.139ZM226.104 220.879C225.403 220.879 224.825 221.458 224.825 222.158C224.825 222.859 225.403 223.429 226.104 223.429C226.805 223.429 227.374 222.859 227.374 222.158C227.374 221.458 226.805 220.879 226.104 220.879ZM226.104 223.21C225.517 223.21 225.044 222.737 225.044 222.158C225.044 221.572 225.517 221.098 226.104 221.098C226.682 221.098 227.155 221.572 227.155 222.158C227.155 222.737 226.682 223.21 226.104 223.21ZM243.992 234.501C243.291 234.501 242.721 235.071 242.721 235.771C242.721 236.472 243.291 237.042 243.992 237.042C244.692 237.042 245.262 236.472 245.262 235.771C245.262 235.071 244.692 234.501 243.992 234.501ZM243.992 236.823C243.414 236.823 242.94 236.35 242.94 235.771C242.94 235.193 243.414 234.72 243.992 234.72C244.579 234.72 245.043 235.193 245.043 235.771C245.043 236.35 244.579 236.823 243.992 236.823ZM235.486 212.505C234.785 212.505 234.216 213.074 234.216 213.775C234.216 214.476 234.785 215.045 235.486 215.045C236.187 215.045 236.756 214.476 236.756 213.775C236.756 213.074 236.187 212.505 235.486 212.505ZM235.486 214.826C234.908 214.826 234.435 214.362 234.435 213.775C234.435 213.197 234.908 212.724 235.486 212.724C236.064 212.724 236.537 213.197 236.537 213.775C236.537 214.362 236.064 214.826 235.486 214.826ZM233.9 229.368C233.199 229.368 232.63 229.937 232.63 230.638C232.63 231.348 233.199 231.917 233.9 231.917C234.601 231.917 235.17 231.348 235.17 230.638C235.17 229.937 234.601 229.368 233.9 229.368ZM233.9 231.698C233.322 231.698 232.849 231.225 232.849 230.638C232.849 230.06 233.322 229.587 233.9 229.587C234.478 229.587 234.951 230.06 234.951 230.638C234.951 231.225 234.478 231.698 233.9 231.698ZM221.207 244.689C220.506 244.689 219.937 245.259 219.937 245.959C219.937 246.66 220.506 247.23 221.207 247.23C221.908 247.23 222.477 246.66 222.477 245.959C222.477 245.259 221.908 244.689 221.207 244.689ZM221.207 247.011C220.629 247.011 220.156 246.538 220.156 245.959C220.156 245.381 220.629 244.908 221.207 244.908C221.794 244.908 222.258 245.381 222.258 245.959C222.258 246.538 221.794 247.011 221.207 247.011ZM232.735 253.686C232.034 253.686 231.465 254.255 231.465 254.956C231.465 255.657 232.034 256.235 232.735 256.235C233.436 256.235 234.005 255.657 234.005 254.956C234.005 254.255 233.436 253.686 232.735 253.686ZM232.735 256.016C232.157 256.016 231.684 255.543 231.684 254.956C231.684 254.378 232.157 253.905 232.735 253.905C233.313 253.905 233.786 254.378 233.786 254.956C233.786 255.543 233.313 256.016 232.735 256.016ZM235.065 201.826C234.364 201.826 233.786 202.396 233.786 203.097C233.786 203.806 234.364 204.376 235.065 204.376C235.766 204.376 236.335 203.806 236.335 203.097C236.335 202.396 235.766 201.826 235.065 201.826ZM235.065 204.157C234.478 204.157 234.005 203.684 234.005 203.097C234.005 202.518 234.478 202.045 235.065 202.045C235.643 202.045 236.116 202.518 236.116 203.097C236.116 203.684 235.643 204.157 235.065 204.157ZM226.577 185.726C225.876 185.726 225.307 186.295 225.307 187.005C225.307 187.705 225.876 188.275 226.577 188.275C227.278 188.275 227.847 187.705 227.847 187.005C227.847 186.295 227.278 185.726 226.577 185.726ZM226.577 188.056C225.999 188.056 225.526 187.583 225.526 187.005C225.526 186.418 225.999 185.945 226.577 185.945C227.155 185.945 227.628 186.418 227.628 187.005C227.628 187.583 227.155 188.056 226.577 188.056ZM224.939 197.201C224.238 197.201 223.668 197.779 223.668 198.48C223.668 199.181 224.238 199.75 224.939 199.75C225.639 199.75 226.209 199.181 226.209 198.48C226.209 197.779 225.639 197.201 224.939 197.201ZM224.939 199.531C224.361 199.531 223.887 199.058 223.887 198.48C223.887 197.893 224.361 197.42 224.939 197.42C225.517 197.42 225.99 197.893 225.99 198.48C225.99 199.058 225.517 199.531 224.939 199.531ZM215.452 223.21C214.751 223.21 214.181 223.779 214.181 224.48C214.181 225.181 214.751 225.759 215.452 225.759C216.161 225.759 216.731 225.181 216.731 224.48C216.731 223.779 216.161 223.21 215.452 223.21ZM215.452 225.54C214.873 225.54 214.4 225.067 214.4 224.48C214.4 223.902 214.873 223.429 215.452 223.429C216.039 223.429 216.512 223.902 216.512 224.48C216.512 225.067 216.039 225.54 215.452 225.54ZM213.411 199.882C212.71 199.882 212.14 200.451 212.14 201.152C212.14 201.853 212.71 202.431 213.411 202.431C214.111 202.431 214.689 201.853 214.689 201.152C214.689 200.451 214.111 199.882 213.411 199.882ZM213.411 202.212C212.832 202.212 212.359 201.739 212.359 201.152C212.359 200.574 212.832 200.101 213.411 200.101C213.997 200.101 214.47 200.574 214.47 201.152C214.47 201.739 213.997 202.212 213.411 202.212ZM203.696 227.607C202.995 227.607 202.425 228.177 202.425 228.877C202.425 229.578 202.995 230.148 203.696 230.148C204.396 230.148 204.966 229.578 204.966 228.877C204.966 228.177 204.396 227.607 203.696 227.607ZM203.696 229.929C203.118 229.929 202.644 229.456 202.644 228.877C202.644 228.299 203.118 227.826 203.696 227.826C204.274 227.826 204.747 228.299 204.747 228.877C204.747 229.456 204.274 229.929 203.696 229.929ZM210.966 251.356C210.257 251.356 209.688 251.934 209.688 252.634C209.688 253.335 210.257 253.905 210.966 253.905C211.667 253.905 212.237 253.335 212.237 252.634C212.237 251.934 211.667 251.356 210.966 251.356ZM210.966 253.686C210.38 253.686 209.907 253.213 209.907 252.634C209.907 252.048 210.38 251.575 210.966 251.575C211.545 251.575 212.018 252.048 212.018 252.634C212.018 253.213 211.545 253.686 210.966 253.686ZM242.827 222.045C242.126 222.045 241.556 222.614 241.556 223.315C241.556 224.024 242.126 224.594 242.827 224.594C243.527 224.594 244.106 224.024 244.106 223.315C244.106 222.614 243.527 222.045 242.827 222.045ZM242.827 224.375C242.248 224.375 241.775 223.902 241.775 223.315C241.775 222.737 242.248 222.264 242.827 222.264C243.414 222.264 243.887 222.737 243.887 223.315C243.887 223.902 243.414 224.375 242.827 224.375ZM233.9 242.753C233.199 242.753 232.63 243.331 232.63 244.032C232.63 244.733 233.199 245.302 233.9 245.302C234.601 245.302 235.17 244.733 235.17 244.032C235.17 243.331 234.601 242.753 233.9 242.753ZM233.9 245.083C233.322 245.083 232.849 244.61 232.849 244.032C232.849 243.445 233.322 242.972 233.9 242.972C234.478 242.972 234.951 243.445 234.951 244.032C234.951 244.61 234.478 245.083 233.9 245.083ZM244.675 247.378C243.974 247.378 243.396 247.957 243.396 248.657C243.396 249.358 243.974 249.928 244.675 249.928C245.376 249.928 245.945 249.358 245.945 248.657C245.945 247.957 245.376 247.378 244.675 247.378ZM244.675 249.709C244.088 249.709 243.615 249.236 243.615 248.657C243.615 248.07 244.088 247.597 244.675 247.597C245.253 247.597 245.726 248.07 245.726 248.657C245.726 249.236 245.253 249.709 244.675 249.709ZM243.002 257.654C242.301 257.654 241.732 258.223 241.732 258.924C241.732 259.625 242.301 260.194 243.002 260.194C243.703 260.194 244.272 259.625 244.272 258.924C244.272 258.223 243.703 257.654 243.002 257.654ZM243.002 259.975C242.415 259.975 241.951 259.502 241.951 258.924C241.951 258.346 242.415 257.873 243.002 257.873C243.58 257.873 244.053 258.346 244.053 258.924C244.053 259.502 243.58 259.975 243.002 259.975Z" fill="#F3F4F6"/>
<path d="M215.328 192.436C204.911 208.831 186.312 242.649 191.647 252.451C196.937 262.172 229 269.809 239.964 272.235C243.574 273.034 257.803 247.672 254.259 245.923C248.24 242.954 219.324 236.428 218.478 234.413C217.947 233.148 224.618 210.752 225.859 197.463C227.471 180.191 218.564 187.343 215.328 192.436Z" fill="#FFABA0"/>
<path d="M251.116 244.712C251.116 244.712 262.508 246.792 269.895 248.504C274.015 249.459 280.934 251.725 283.641 253.812C287.689 256.932 302.627 272.567 298.915 276.271C295.554 279.623 284.426 264.561 284.426 264.561C284.426 264.561 296.999 278.767 292.21 282.06C287.421 285.353 277.11 266.663 277.11 266.663C277.11 266.663 289.701 281.549 284.225 284.163C280.087 286.138 269.795 269.737 269.795 269.737C269.795 269.737 280.528 282.607 276.36 284.821C271.754 287.269 261.305 272.726 261.305 272.726C249.762 276.573 242.692 273.682 237.908 271.028C236.749 270.385 251.116 244.712 251.116 244.712Z" fill="#FFABA0"/>
<path d="M280.391 259.368C281.928 260.984 283.495 262.609 284.884 264.354C286.273 266.101 287.601 267.897 288.821 269.765C291.812 274.345 292.969 277.682 292.875 277.484C290.654 272.794 285.781 266.466 284.392 264.718C283.006 262.976 281.708 261.162 280.323 259.418C280.287 259.374 280.354 259.33 280.391 259.368Z" fill="#17213A"/>
<path d="M273.994 264.267C275.868 266.415 277.807 268.478 279.587 270.709C281.357 272.929 282.843 275.191 284.456 277.526C284.581 277.706 284.443 277.714 284.311 277.538C282.605 275.269 280.854 273.302 279.122 271.052C277.397 268.811 275.745 266.485 273.94 264.308C273.911 264.274 273.965 264.235 273.994 264.267Z" fill="#17213A"/>
<path d="M267.747 267.484C270.779 270.62 273.228 274.31 275.544 277.988C275.659 278.172 275.481 278.162 275.352 277.981C272.826 274.441 270.87 271.645 267.637 267.589C267.587 267.526 267.683 267.419 267.747 267.484Z" fill="#17213A"/>
<path d="M252.178 244.197L227.673 272.02C227.673 272.02 194.307 262.874 189.997 251.174C185.688 239.474 203.311 207.858 212.857 194.866C222.404 181.873 228.083 182.442 226.384 197.729C224.862 211.418 218.843 233.269 219.341 234.046C219.84 234.823 252.178 244.197 252.178 244.197Z" fill="#383192"/>
<path d="M216.704 190.132C216.652 190.185 216.608 190.237 216.555 190.299C216.704 190.474 216.792 190.71 216.792 190.956C216.792 191.542 216.319 192.015 215.741 192.015C215.539 192.015 215.355 191.963 215.198 191.858C215.154 191.919 215.101 191.972 215.057 192.033C215.25 192.156 215.487 192.234 215.741 192.234C216.441 192.234 217.011 191.656 217.011 190.956C217.011 190.64 216.897 190.351 216.704 190.132ZM223.117 207.967C222.416 207.967 221.846 208.537 221.846 209.238C221.846 209.938 222.416 210.517 223.117 210.517C223.826 210.517 224.396 209.938 224.396 209.238C224.396 208.537 223.826 207.967 223.117 207.967ZM223.117 210.298C222.538 210.298 222.065 209.825 222.065 209.238C222.065 208.659 222.538 208.186 223.117 208.186C223.704 208.186 224.177 208.659 224.177 209.238C224.177 209.825 223.704 210.298 223.117 210.298ZM222.976 235.404C222.863 235.859 222.451 236.192 221.96 236.192C221.373 236.192 220.9 235.719 220.9 235.141C220.9 234.992 220.927 234.861 220.979 234.729C220.909 234.712 220.848 234.685 220.786 234.659C220.716 234.808 220.681 234.966 220.681 235.141C220.681 235.842 221.259 236.411 221.96 236.411C222.547 236.411 223.038 236.017 223.178 235.474C223.108 235.448 223.047 235.43 222.976 235.404ZM201.164 243.918C200.463 243.918 199.894 244.488 199.894 245.189C199.894 245.898 200.463 246.468 201.164 246.468C201.865 246.468 202.443 245.898 202.443 245.189C202.443 244.488 201.865 243.918 201.164 243.918ZM201.164 246.249C200.586 246.249 200.113 245.776 200.113 245.189C200.113 244.611 200.586 244.137 201.164 244.137C201.751 244.137 202.224 244.611 202.224 245.189C202.224 245.776 201.751 246.249 201.164 246.249ZM204.309 260.273C203.608 260.273 203.039 260.843 203.039 261.544C203.039 262.253 203.608 262.823 204.309 262.823C205.01 262.823 205.579 262.253 205.579 261.544C205.579 260.843 205.01 260.273 204.309 260.273ZM204.309 262.604C203.731 262.604 203.258 262.131 203.258 261.544C203.258 260.965 203.731 260.492 204.309 260.492C204.887 260.492 205.36 260.965 205.36 261.544C205.36 262.131 204.887 262.604 204.309 262.604ZM211.378 212.505C210.677 212.505 210.108 213.075 210.108 213.775C210.108 214.476 210.677 215.046 211.378 215.046C212.079 215.046 212.657 214.476 212.657 213.775C212.657 213.075 212.079 212.505 211.378 212.505ZM211.378 214.827C210.8 214.827 210.327 214.362 210.327 213.775C210.327 213.197 210.8 212.724 211.378 212.724C211.965 212.724 212.438 213.197 212.438 213.775C212.438 214.362 211.965 214.827 211.378 214.827ZM210.327 236.481C209.626 236.481 209.057 237.051 209.057 237.751C209.057 238.452 209.626 239.022 210.327 239.022C211.028 239.022 211.597 238.452 211.597 237.751C211.597 237.051 211.028 236.481 210.327 236.481ZM210.327 238.803C209.749 238.803 209.276 238.338 209.276 237.751C209.276 237.173 209.749 236.7 210.327 236.7C210.905 236.7 211.378 237.173 211.378 237.751C211.378 238.338 210.905 238.803 210.327 238.803ZM221.207 255.324C220.506 255.324 219.937 255.893 219.937 256.594C219.937 257.295 220.506 257.873 221.207 257.873C221.908 257.873 222.477 257.295 222.477 256.594C222.477 255.893 221.908 255.324 221.207 255.324ZM221.207 257.654C220.629 257.654 220.156 257.181 220.156 256.594C220.156 256.016 220.629 255.543 221.207 255.543C221.794 255.543 222.258 256.016 222.258 256.594C222.258 257.181 221.794 257.654 221.207 257.654ZM195.952 255.324C195.251 255.324 194.682 255.893 194.682 256.594C194.682 256.857 194.76 257.085 194.892 257.286V257.295C194.892 257.304 194.901 257.304 194.901 257.304C195.102 257.461 195.304 257.628 195.505 257.786H195.514C195.654 257.847 195.794 257.873 195.952 257.873C196.653 257.873 197.222 257.295 197.222 256.594C197.222 255.893 196.653 255.324 195.952 255.324ZM195.952 257.654C195.374 257.654 194.901 257.181 194.901 256.594C194.901 256.016 195.374 255.543 195.952 255.543C196.53 255.543 197.003 256.016 197.003 256.594C197.003 257.181 196.53 257.654 195.952 257.654ZM195.952 234.501C195.251 234.501 194.682 235.071 194.682 235.772C194.682 236.472 195.251 237.042 195.952 237.042C196.653 237.042 197.222 236.472 197.222 235.772C197.222 235.071 196.653 234.501 195.952 234.501ZM195.952 236.823C195.374 236.823 194.901 236.35 194.901 235.772C194.901 235.194 195.374 234.72 195.952 234.72C196.53 234.72 197.003 235.194 197.003 235.772C197.003 236.35 196.53 236.823 195.952 236.823ZM199.657 216.859C199.596 216.859 199.535 216.868 199.473 216.876C199.43 216.964 199.386 217.043 199.342 217.13C199.438 217.095 199.543 217.078 199.657 217.078C200.235 217.078 200.709 217.551 200.709 218.138C200.709 218.716 200.235 219.189 199.657 219.189C199.193 219.189 198.799 218.891 198.659 218.479C198.615 218.558 198.571 218.637 198.536 218.716V218.725C198.738 219.128 199.167 219.408 199.657 219.408C200.358 219.408 200.928 218.839 200.928 218.138C200.928 217.428 200.358 216.859 199.657 216.859ZM214.295 263.812C213.594 263.812 213.016 264.382 213.016 265.091C213.016 265.792 213.594 266.362 214.295 266.362C214.996 266.362 215.565 265.792 215.565 265.091C215.565 264.382 214.996 263.812 214.295 263.812ZM214.295 266.143C213.708 266.143 213.235 265.67 213.235 265.091C213.235 264.504 213.708 264.031 214.295 264.031C214.873 264.031 215.346 264.504 215.346 265.091C215.346 265.67 214.873 266.143 214.295 266.143ZM221.207 244.689C220.506 244.689 219.937 245.259 219.937 245.96C219.937 246.66 220.506 247.23 221.207 247.23C221.908 247.23 222.477 246.66 222.477 245.96C222.477 245.259 221.908 244.689 221.207 244.689ZM221.207 247.011C220.629 247.011 220.156 246.538 220.156 245.96C220.156 245.381 220.629 244.908 221.207 244.908C221.794 244.908 222.258 245.381 222.258 245.96C222.258 246.538 221.794 247.011 221.207 247.011ZM232.735 253.686C232.034 253.686 231.465 254.255 231.465 254.956C231.465 255.657 232.034 256.235 232.735 256.235C233.436 256.235 234.005 255.657 234.005 254.956C234.005 254.255 233.436 253.686 232.735 253.686ZM232.735 256.016C232.157 256.016 231.684 255.543 231.684 254.956C231.684 254.378 232.157 253.905 232.735 253.905C233.313 253.905 233.786 254.378 233.786 254.956C233.786 255.543 233.313 256.016 232.735 256.016ZM228.513 262.06C227.812 262.06 227.234 262.63 227.234 263.331C227.234 264.031 227.812 264.601 228.513 264.601C229.214 264.601 229.783 264.031 229.783 263.331C229.783 262.63 229.214 262.06 228.513 262.06ZM228.513 264.382C227.926 264.382 227.453 263.909 227.453 263.331C227.453 262.752 227.926 262.279 228.513 262.279C229.091 262.279 229.564 262.752 229.564 263.331C229.564 263.909 229.091 264.382 228.513 264.382ZM225.999 187.881C225.999 187.881 225.99 187.881 225.99 187.872C225.71 187.688 225.526 187.364 225.526 187.005C225.526 186.978 225.526 186.952 225.534 186.935C225.482 186.838 225.42 186.751 225.359 186.672C225.324 186.777 225.307 186.891 225.307 187.005C225.307 187.539 225.631 187.995 226.104 188.187C226.077 188.082 226.042 187.977 225.999 187.881ZM224.939 197.201C224.238 197.201 223.668 197.78 223.668 198.48C223.668 199.181 224.238 199.751 224.939 199.751C225.639 199.751 226.209 199.181 226.209 198.48C226.209 197.78 225.639 197.201 224.939 197.201ZM224.939 199.532C224.361 199.532 223.887 199.059 223.887 198.48C223.887 197.893 224.361 197.42 224.939 197.42C225.517 197.42 225.99 197.893 225.99 198.48C225.99 199.059 225.517 199.532 224.939 199.532ZM215.452 223.21C214.751 223.21 214.181 223.779 214.181 224.48C214.181 225.181 214.751 225.759 215.452 225.759C216.161 225.759 216.731 225.181 216.731 224.48C216.731 223.779 216.161 223.21 215.452 223.21ZM215.452 225.54C214.873 225.54 214.4 225.067 214.4 224.48C214.4 223.902 214.873 223.429 215.452 223.429C216.039 223.429 216.512 223.902 216.512 224.48C216.512 225.067 216.039 225.54 215.452 225.54ZM213.411 199.882C212.71 199.882 212.14 200.451 212.14 201.152C212.14 201.853 212.71 202.431 213.411 202.431C214.111 202.431 214.689 201.853 214.689 201.152C214.689 200.451 214.111 199.882 213.411 199.882ZM213.411 202.212C212.832 202.212 212.359 201.739 212.359 201.152C212.359 200.574 212.832 200.101 213.411 200.101C213.997 200.101 214.47 200.574 214.47 201.152C214.47 201.739 213.997 202.212 213.411 202.212ZM203.696 227.607C202.995 227.607 202.425 228.177 202.425 228.878C202.425 229.578 202.995 230.148 203.696 230.148C204.396 230.148 204.966 229.578 204.966 228.878C204.966 228.177 204.396 227.607 203.696 227.607ZM203.696 229.929C203.118 229.929 202.644 229.456 202.644 228.878C202.644 228.299 203.118 227.826 203.696 227.826C204.274 227.826 204.747 228.299 204.747 228.878C204.747 229.456 204.274 229.929 203.696 229.929ZM210.966 251.356C210.257 251.356 209.688 251.934 209.688 252.635C209.688 253.335 210.257 253.905 210.966 253.905C211.667 253.905 212.237 253.335 212.237 252.635C212.237 251.934 211.667 251.356 210.966 251.356ZM210.966 253.686C210.38 253.686 209.907 253.213 209.907 252.635C209.907 252.048 210.38 251.575 210.966 251.575C211.545 251.575 212.018 252.048 212.018 252.635C212.018 253.213 211.545 253.686 210.966 253.686ZM233.9 242.753C233.199 242.753 232.63 243.332 232.63 244.032C232.63 244.733 233.199 245.303 233.9 245.303C234.601 245.303 235.17 244.733 235.17 244.032C235.17 243.332 234.601 242.753 233.9 242.753ZM233.9 245.084C233.322 245.084 232.849 244.611 232.849 244.032C232.849 243.445 233.322 242.972 233.9 242.972C234.478 242.972 234.951 243.445 234.951 244.032C234.951 244.611 234.478 245.084 233.9 245.084ZM244.675 247.379C243.974 247.379 243.396 247.957 243.396 248.658C243.396 249.358 243.974 249.928 244.675 249.928C245.376 249.928 245.945 249.358 245.945 248.658C245.945 247.957 245.376 247.379 244.675 247.379ZM244.675 249.709C244.088 249.709 243.615 249.236 243.615 248.658C243.615 248.071 244.088 247.598 244.675 247.598C245.253 247.598 245.726 248.071 245.726 248.658C245.726 249.236 245.253 249.709 244.675 249.709Z" fill="#F3F4F6"/>
<path d="M242.943 243.755C239.151 247.495 235.53 251.416 231.999 255.398C230.266 257.354 228.53 259.312 226.871 261.332C225.144 263.435 223.54 265.641 221.801 267.73C221.722 267.824 221.859 267.955 221.941 267.861C223.734 265.835 225.686 263.935 227.527 261.949C229.304 260.033 231.024 258.066 232.76 256.113C236.3 252.13 239.83 248.127 243.231 244.025C243.391 243.831 243.125 243.576 242.943 243.755Z" fill="#17213A"/>
<path d="M250.216 243.565C247.627 243.244 219.081 234.654 219.046 234.641C218.987 234.604 220.966 224.89 221.369 223.056C222.188 219.304 223.091 215.566 224.065 211.853C224.078 211.769 224.233 211.783 224.22 211.868C223.94 214.146 223.59 216.424 223.191 218.676C223.58 217.703 223.99 216.729 224.462 215.793C224.499 215.71 224.629 215.772 224.604 215.855C224.009 217.758 223.342 219.646 222.676 221.524C222.571 222.024 222.503 222.525 222.398 223.025C222.006 224.907 221.59 226.788 221.151 228.658C220.932 229.574 220.066 233.146 219.857 234.105C223.928 235.085 247.917 242.351 250.267 243.373C250.35 243.412 250.312 243.579 250.216 243.565Z" fill="#17213A"/>
<path d="M189.33 247.597C189.453 248.477 189.694 249.315 189.972 250.131C190.264 250.942 190.599 251.734 191.021 252.481C191.445 253.225 191.897 253.96 192.437 254.637C192.958 255.33 193.542 255.977 194.132 256.647C193.757 256.41 193.39 256.154 193.034 255.884C192.702 255.587 192.341 255.312 192.048 254.97C191.407 254.335 190.902 253.576 190.447 252.797C189.599 251.213 189.082 249.378 189.33 247.597Z" fill="#17213A"/>
<path d="M237.501 195.395C233.95 196.096 228.107 190.493 225.882 186.043C225.731 185.738 226.307 182.604 226.825 178.763C227.131 176.431 227.417 173.827 227.505 171.433C227.521 170.941 242.389 175.639 242.389 175.639C242.389 175.639 240.727 180.604 240.597 184.78C240.59 185.13 240.613 185.456 240.663 185.767C240.667 185.812 240.677 185.867 240.679 185.93C240.915 187.808 240.933 194.714 237.501 195.395Z" fill="#FFABA0"/>
<path d="M228.426 171.529C228.972 175.604 231.127 185.479 239.135 185.958C239.693 185.992 240.205 185.983 240.675 185.932C240.681 185.865 240.667 185.815 240.662 185.766C240.614 185.452 240.587 185.13 240.592 184.782C240.723 180.599 242.388 175.634 242.388 175.634C242.388 175.634 231.663 172.246 228.426 171.529Z" fill="#17213A"/>
<path d="M229.127 151.615C226.285 156.406 225.369 172.031 228.238 176.264C232.397 182.401 241.025 184.995 246.698 179.579C252.198 174.33 253.029 153.948 249.655 149.914C244.686 143.973 233.328 144.536 229.127 151.615Z" fill="#FFABA0"/>
<path d="M238.09 161.6C238.542 161.428 238.988 161.345 239.452 161.221C239.977 161.081 240.38 160.915 240.915 161.099C241.203 161.197 241.394 161.601 241.324 161.888C241.163 162.559 240.564 162.89 239.939 163.084C239.262 163.294 238.686 163.284 238.029 163.019C237.393 162.764 237.495 161.827 238.09 161.6Z" fill="#17213A"/>
<path d="M249.927 164.324C249.602 163.966 249.242 163.691 248.883 163.37C248.479 163.008 248.194 162.679 247.633 162.6C247.332 162.558 246.98 162.831 246.912 163.119C246.752 163.79 247.138 164.356 247.607 164.812C248.116 165.306 248.635 165.556 249.341 165.618C250.023 165.677 250.356 164.795 249.927 164.324Z" fill="#17213A"/>
<path d="M236.819 174.908C237.041 175.188 237.25 175.562 237.63 175.643C237.995 175.721 238.448 175.61 238.802 175.522C238.837 175.513 238.866 175.553 238.84 175.583C238.513 175.953 237.903 176.134 237.424 175.985C236.955 175.84 236.771 175.395 236.711 174.942C236.704 174.88 236.787 174.868 236.819 174.908Z" fill="#17213A"/>
<path d="M239.139 173.692C240.56 173.321 242.281 173.709 243.366 173.981C243.492 173.978 243.633 173.748 243.668 173.634L243.669 173.627C243.674 173.588 243.877 171.36 243.877 171.36C244.156 171.545 245.587 172.412 245.615 171.984C245.835 168.442 246.08 164.502 245.552 160.931C245.541 160.812 245.36 160.817 245.356 160.934C245.01 164.33 245.263 167.765 244.968 171.182C244.508 170.939 243.761 170.502 243.335 170.459C243.216 170.478 243.238 172.87 243.154 173.23C243.154 173.23 241.077 172.32 239.18 173.225C238.687 173.459 238.462 173.868 239.139 173.692Z" fill="#17213A"/>
<path d="M246.623 165.98C246.638 165.944 246.692 166.04 246.683 166.08C246.468 167.054 246.387 168.206 247.213 168.698C247.238 168.713 247.227 168.762 247.194 168.751C246.141 168.396 246.264 166.868 246.623 165.98Z" fill="#17213A"/>
<path d="M246.352 167.267C246.35 167.527 246.41 167.805 246.563 168.067C246.715 168.329 247.015 168.507 247.312 168.564C247.618 168.623 247.971 168.493 248.176 168.283C248.381 168.072 248.515 167.831 248.596 167.583C248.649 167.425 248.682 167.265 248.71 167.104C248.763 166.762 248.758 166.417 248.655 166.092C248.629 166.343 248.574 166.585 248.497 166.814C248.425 167.033 248.342 167.236 248.244 167.432C248.036 167.838 247.726 168.153 247.387 168.074C247.024 168.022 246.808 167.686 246.738 167.231C246.666 166.786 246.676 166.303 246.696 165.811C246.477 166.256 246.346 166.747 246.352 167.267Z" fill="#17213A"/>
<path d="M240.545 165.057C240.54 165.019 240.462 165.097 240.46 165.138C240.393 166.133 240.149 167.262 239.218 167.502C239.189 167.509 239.186 167.56 239.22 167.558C240.331 167.513 240.641 166.011 240.545 165.057Z" fill="#17213A"/>
<path d="M240.442 166.37C240.371 166.619 240.236 166.87 240.017 167.078C239.797 167.287 239.46 167.373 239.159 167.345C238.848 167.316 238.545 167.093 238.407 166.833C238.27 166.574 238.208 166.305 238.201 166.044C238.195 165.878 238.208 165.715 238.226 165.552C238.27 165.209 238.372 164.879 238.563 164.596C238.517 164.844 238.501 165.092 238.513 165.333C238.52 165.565 238.543 165.783 238.583 165.998C238.669 166.445 238.878 166.835 239.225 166.855C239.587 166.907 239.89 166.645 240.084 166.228C240.277 165.82 240.404 165.353 240.522 164.875C240.606 165.363 240.594 165.872 240.442 166.37Z" fill="#17213A"/>
<path d="M252.263 157.454C246.25 160.229 239.824 153.4 239.824 153.4C237.375 157.313 233.252 156.094 233.252 156.094C233.252 156.094 230.648 165.022 228.248 164.597C224.588 163.953 225.562 151.342 227.131 149.098C228.7 146.852 231.914 146.755 231.914 146.755C231.914 146.755 232.463 144.901 235.021 143.557C237.846 142.068 246.044 146.108 246.044 146.108C246.044 146.108 246.91 144.603 248.761 143.502C249.935 142.809 251.269 143.214 251.97 144.353C251.448 144.881 251.005 145.586 250.711 146.45C249.827 149.043 252.008 149.41 252.399 146.989C252.571 145.911 252.375 145.009 251.97 144.353C253.314 142.955 255.159 142.739 256.083 143.767C257.758 145.633 257.263 155.149 252.263 157.454Z" fill="#17213A"/>
<path d="M247.018 179.25C247.669 178.558 248.107 177.704 248.496 176.85C248.891 175.995 249.216 175.108 249.497 174.209C250.044 172.406 250.471 170.563 250.751 168.698C251.065 166.836 251.234 164.951 251.368 163.065C251.491 161.178 251.569 159.284 251.569 157.386C251.731 159.278 251.769 161.181 251.704 163.081C251.638 164.982 251.465 166.881 251.183 168.766C250.863 170.645 250.438 172.51 249.815 174.314C249.16 176.089 248.395 177.915 247.018 179.25Z" fill="#17213A"/>
<path d="M245.626 166.433C245.895 164.058 247.391 162.27 248.962 162.448C250.532 162.626 251.592 164.703 251.323 167.077C251.055 169.452 249.557 171.239 247.986 171.061C246.415 170.884 245.356 168.808 245.626 166.433ZM246.202 166.497C245.969 168.554 246.799 170.342 248.052 170.484C249.304 170.626 250.513 169.069 250.746 167.013C250.979 164.956 250.149 163.167 248.896 163.026C247.643 162.883 246.435 164.441 246.202 166.497Z" fill="#F3F4F6"/>
<path d="M234.797 165.206C235.066 162.831 237.089 161.103 239.308 161.354C241.525 161.605 243.111 163.741 242.842 166.117C242.573 168.492 240.55 170.219 238.333 169.969C236.114 169.718 234.528 167.581 234.797 165.206ZM235.375 165.272C235.142 167.329 236.498 169.176 238.398 169.391C240.297 169.606 242.031 168.108 242.264 166.051C242.497 163.995 241.141 162.146 239.242 161.932C237.341 161.717 235.607 163.215 235.375 165.272Z" fill="#F3F4F6"/>
<path d="M242.692 165.708C244.934 165.196 245.828 166.01 245.835 166.019L246.243 165.605C246.201 165.561 245.148 164.549 242.562 165.141L242.692 165.708Z" fill="#F3F4F6"/>
<path d="M235.13 164.863L235.3 164.308C234.934 164.196 226.328 161.578 225.377 161.417C224.375 161.232 221.879 162.296 221.598 162.416L221.825 162.95C222.533 162.648 224.497 161.9 225.238 161.984C225.253 161.986 225.266 161.987 225.281 161.99C226.012 162.113 232.043 163.924 235.13 164.863Z" fill="#F3F4F6"/>
<path d="M229.349 164.584C229.349 164.584 227.034 158.967 224.559 159.688C222.084 160.408 223.07 168.021 225.444 169.562C227.818 171.102 229.287 168.932 229.287 168.932L229.349 164.584Z" fill="#FFABA0"/>
<path d="M224.895 161.863C224.854 161.85 224.833 161.906 224.866 161.93C226.517 163.07 227.098 164.965 227.378 166.86C226.988 166.068 226.335 165.536 225.292 165.979C225.236 166.002 225.265 166.086 225.32 166.086C226.098 166.093 226.606 166.341 226.976 167.048C227.238 167.549 227.362 168.136 227.509 168.68C227.558 168.862 227.87 168.841 227.85 168.639C227.848 168.624 227.846 168.608 227.844 168.594C228.406 166.29 227.328 162.65 224.895 161.863Z" fill="#17213A"/>
<path d="M241.455 188.57C241.45 188.54 241.405 188.545 241.408 188.576C241.675 191.45 242.106 198.118 237.579 197.851C235.756 197.745 234.062 196.66 232.644 195.591C231.187 194.494 229.88 193.207 228.692 191.825C227.374 190.291 226.017 188.681 224.971 186.948C224.926 186.874 224.815 186.956 224.863 187.029C225.988 188.755 226.938 190.556 228.23 192.175C229.473 193.733 230.877 195.176 232.496 196.347C234.013 197.444 235.814 198.522 237.742 198.544C239.577 198.565 240.875 197.392 241.36 195.684C241.996 193.44 241.879 190.838 241.455 188.57Z" fill="#17213A"/>
<path d="M119.768 339.501C120.026 335.724 120.488 331.942 121.367 328.256C122.159 324.927 123.284 321.523 125.384 318.772C127.301 316.259 130.056 314.257 133.258 313.865C136.342 313.488 139.239 314.862 141.546 316.805C144.404 319.212 146.594 322.4 148.648 325.489C150.946 328.944 152.901 332.536 154.782 336.227C154.845 336.349 154.658 336.451 154.598 336.329C153.045 333.21 151.136 330.178 149.111 327.345C147.197 324.668 145.153 322 142.793 319.697C140.676 317.63 137.987 315.697 134.918 315.6C131.867 315.503 129.05 317.216 127.212 319.569C125.158 322.199 124.113 325.484 123.33 328.684C122.47 332.197 122.041 335.79 121.748 339.39C121.145 346.798 120.982 354.248 120.814 361.676C120.719 365.879 120.662 370.083 120.624 374.287C120.604 376.416 120.588 378.547 120.572 380.677C120.557 382.729 120.664 384.81 120.326 386.838C120.257 387.251 119.579 387.212 119.51 386.818C119.171 384.898 119.254 382.926 119.228 380.98C119.2 378.961 119.175 376.942 119.156 374.923C119.121 370.998 119.101 367.073 119.113 363.147C119.134 355.269 119.23 347.361 119.768 339.501Z" fill="#17213A"/>
<path d="M130.352 333.916C130.746 331.822 131.453 329.092 132.647 327.47C134.791 324.553 137.106 325.822 134.965 329.051C132.628 332.576 132.291 335.361 131.955 337.013C131.955 337.013 135.559 342.163 139.91 344.698C139.724 342.718 139.165 339.673 139.55 336.736C140.386 330.374 144.233 330.732 143.283 335.785C142.518 339.838 142.205 344.14 142.411 346.006C143.718 346.996 145.946 347.847 147.061 348.283C146.812 347.547 146.547 346.661 146.253 345.589C144.71 339.885 148.512 338.106 148.634 341.315C148.726 343.952 149.749 348.041 150.113 349.405C152.2 350.106 153.93 350.585 154.987 350.957C159.383 352.5 162.12 355.831 162.12 355.831C164.114 354.059 165.723 351.907 166.981 349.541C165.651 348.397 163.55 346.697 160.634 344.638C155.166 340.779 157.068 335.905 161.406 338.935C164.536 341.121 166.96 345.174 168.06 347.254C169.568 343.652 170.361 339.699 170.54 335.869C166.245 331.837 155.623 326.219 158.825 326.219C161.705 326.219 168.153 330.444 170.518 332.073C170.453 330.937 170.332 329.829 170.153 328.763C166.108 326.112 152.965 321.988 155.058 320.801C157.359 319.501 166.529 323.746 169.303 325.089C168.696 323.117 167.873 321.401 166.873 320.058C161.284 312.574 151.205 309.997 146.808 311.423C143.696 312.432 144.605 320.327 143.937 320.058C131.439 315.028 125.755 318.582 130.352 333.916ZM160.992 333.051C161.879 331.979 165.981 335.131 164.795 336.854C163.608 338.576 159.849 334.424 160.992 333.051ZM139.557 326.319C140.637 327.005 139.043 330.994 137.378 329.786C135.962 328.756 138.471 325.626 139.557 326.319Z" fill="#383192"/>
<path d="M141.195 327.541C141.76 326.426 142.348 325.317 142.991 324.244C143.604 323.224 144.257 322.137 145.057 321.249C144.878 321.03 144.706 320.807 144.522 320.591C144.448 320.504 144.576 320.38 144.653 320.467C144.863 320.706 145.062 320.951 145.265 321.193C145.305 321.216 145.337 321.25 145.352 321.296C146.125 322.222 146.853 323.175 147.546 324.148C148.775 324.407 149.989 324.801 151.177 325.199C152.403 325.61 153.617 326.036 154.809 326.539C154.934 326.592 154.872 326.797 154.748 326.742C153.567 326.22 152.37 325.714 151.146 325.301C149.989 324.91 148.811 324.609 147.638 324.277C148.019 324.815 148.394 325.359 148.754 325.91C150.955 326.544 153.109 327.549 155.172 328.529C157.341 329.559 159.429 330.757 161.506 331.958C161.624 332.027 161.512 332.209 161.395 332.138C159.361 330.92 157.241 329.881 155.095 328.877C153.084 327.936 151.003 327.162 148.977 326.267C154.081 334.232 157.143 343.424 161.235 351.934C161.294 352.058 161.102 352.16 161.049 352.036C159.8 349.052 158.361 346.143 157 343.208C155.778 340.572 154.586 337.922 153.363 335.287C153.005 334.516 152.637 333.746 152.263 332.978C152.486 337.233 152.396 341.561 153.092 345.766C153.117 345.917 152.894 345.944 152.884 345.789C152.589 341.242 151.788 336.767 151.82 332.195C151.82 332.169 151.838 332.157 151.845 332.136C150.979 330.398 150.056 328.682 149.059 327.014C147.368 330.996 145.59 335.038 144.801 339.313C144.777 339.445 144.563 339.386 144.599 339.252C145.749 334.966 146.815 330.675 148.879 326.714C147.788 324.911 146.598 323.174 145.284 321.531C144.717 322.59 143.989 323.59 143.344 324.601C142.714 325.59 142.096 326.583 141.513 327.601C140.269 329.775 139.175 331.993 138.32 334.349C138.274 334.478 138.065 334.411 138.118 334.288C139.092 332.021 140.08 329.742 141.195 327.541Z" fill="#17213A"/>
<path d="M100.958 337.225C104.234 333.94 108.042 329.628 113.103 329.637C117.989 329.645 121.585 333.58 123.65 337.637C125.811 341.881 126.587 346.689 127.197 351.362C127.928 356.957 128.333 362.597 128.493 368.237C128.581 371.369 128.569 374.506 128.492 377.639C128.414 380.8 128.337 384.007 127.775 387.125C127.683 387.631 126.872 387.65 126.842 387.103C126.694 384.466 126.8 381.815 126.815 379.175C126.829 376.575 126.788 373.974 126.693 371.376C126.5 366.119 126.117 360.87 125.5 355.645C124.961 351.082 124.533 346.39 123.167 341.981C121.935 338.006 119.626 333.458 115.596 331.712C110.095 329.328 104.723 333.682 101.122 337.36C101.028 337.456 100.863 337.321 100.958 337.225Z" fill="#17213A"/>
<path d="M84.2467 344.566V344.573C84.2712 345.244 84.3106 345.908 84.3553 346.558C85.8506 345.506 87.7297 344.551 89.7234 344.333C94.3724 343.839 94.0763 347.374 90.9709 347.522C88.0082 347.663 86.0215 348.166 84.5918 348.8C85.3504 354.939 87.0385 359.875 87.2917 359.941C87.5448 360.001 93.2283 359.593 99.5749 358.389C98.4195 355.925 95.788 352.652 97.1274 352.388C98.5027 352.115 99.9376 355.037 100.68 358.165C103.742 357.546 106.895 356.738 109.615 355.706C107.57 353.935 104.41 351.732 105.617 350.795C106.824 349.85 109.334 352.957 110.836 355.211C112.329 354.574 113.655 353.86 114.697 353.058C111.942 349.011 105.227 348.187 106.104 345.262C106.999 342.278 113.263 346.394 116.083 351.812C119.397 348.376 120.367 343.514 120.018 339.359C117.133 339.025 111.581 339.634 111.983 337.561C112.361 335.589 116.396 335.883 119.681 337.093C119.276 335.209 118.591 333.603 117.753 332.528C114.711 328.623 105.432 333.588 105.432 333.588C105.432 333.588 106.424 324.261 102.884 322.648C100.844 321.722 97.2448 321.729 93.633 323.855C95.6592 324.023 98.1085 324.665 99.0914 326.071C100.35 327.864 98.3652 328.839 97.102 328.012C96.2155 327.424 94.5528 325.579 91.5578 325.336C90.3945 326.3 89.2583 327.527 88.2071 329.045C87.8654 329.526 87.5457 330.035 87.2286 330.587C90.1474 329.375 94.0106 328.754 98.0927 330.783C102.116 332.781 99.8684 336.96 96.4064 335.336C92.9813 333.732 89.6481 332.117 85.9785 333.036C84.6313 336.142 84.1845 339.819 84.2143 343.439C85.5905 342.443 87.6228 341.252 90.1737 340.579C94.1735 339.529 95.3824 341.918 90.9893 342.365C88.1974 342.645 85.8498 343.667 84.2467 344.566ZM89.1137 338.144C88.8369 336.848 91.6743 336.477 92.1473 337.528C92.5398 338.424 89.3827 339.441 89.1137 338.144ZM113.384 345.321C113.651 344.615 115.55 345.419 115.377 346.3C115.14 347.477 113.125 346.028 113.384 345.321ZM99.984 349.868C101.367 349.315 103.527 352.754 102.02 353.542C100.512 354.329 98.854 350.323 99.984 349.868Z" fill="#383192"/>
<path d="M87.8339 359.233C89.9188 355.747 91.9792 352.243 94.1674 348.822C95.1871 347.227 96.2549 345.666 97.3631 344.133C97.1957 344.099 97.0284 344.05 96.8664 344.016C96.5913 343.957 96.3136 343.905 96.0368 343.857C95.3964 343.745 94.7508 343.652 94.1043 343.587C93.4955 343.525 92.885 343.492 92.2735 343.485C91.6375 343.477 90.9429 343.456 90.3174 343.588C90.2386 343.604 90.2272 343.481 90.3008 343.484C90.9516 343.511 91.6183 343.425 92.2718 343.416C92.9051 343.407 93.5393 343.423 94.1709 343.461C94.7648 343.497 95.3561 343.556 95.9448 343.646C96.2698 343.696 96.5939 343.753 96.9172 343.817C97.109 343.856 97.3131 343.883 97.5023 343.941C98.6315 342.388 99.8036 340.866 101.015 339.376C97.3596 337.697 93.5998 336.313 89.6035 335.733C89.536 335.724 89.5623 335.62 89.6289 335.631C93.6103 336.268 97.6031 337.296 101.206 339.142C101.873 338.325 102.543 337.51 103.217 336.699C103.972 335.792 104.778 334.906 105.46 333.943C105.505 333.88 105.597 333.95 105.545 334.005C104.599 335.015 103.742 336.129 102.899 337.245C102.906 337.247 102.913 337.244 102.919 337.248C104.425 338.255 105.809 339.456 107.161 340.656C108.548 341.885 109.902 343.156 111.216 344.462C111.264 344.51 111.192 344.586 111.143 344.538C109.843 343.246 108.496 342.013 107.086 340.841C105.677 339.671 104.195 338.596 102.778 337.437C102.771 337.431 102.773 337.422 102.768 337.416C102.445 337.845 102.121 338.272 101.797 338.693C101.633 338.905 101.471 339.12 101.306 339.333C101.298 339.352 101.286 339.364 101.271 339.378C100.729 340.084 100.188 340.791 99.6521 341.503C100.308 342.382 100.793 343.42 101.263 344.409C101.73 345.393 102.136 346.409 102.511 347.432C103.287 349.548 103.808 351.755 104.25 353.962C104.263 354.029 104.162 354.059 104.149 353.993C103.731 351.796 103.042 349.678 102.25 347.59C101.846 346.524 101.384 345.485 100.908 344.449C100.475 343.506 99.9508 342.6 99.5452 341.646C99.0774 342.268 98.6122 342.892 98.1541 343.521C98.0209 343.704 97.8948 343.891 97.7625 344.075C97.7827 344.116 97.7704 344.168 97.717 344.17C97.71 344.17 97.703 344.169 97.6951 344.169C96.2628 346.169 94.8998 348.216 93.5744 350.286C93.6646 350.42 93.7031 350.584 93.7557 350.739C93.8407 350.991 93.9204 351.244 93.9948 351.499C94.1438 352.01 94.2638 352.526 94.3584 353.05C94.4469 353.542 94.5169 354.037 94.566 354.534C94.6203 355.082 94.5677 355.688 94.6904 356.221C94.7097 356.305 94.5739 356.311 94.5888 356.224C94.6702 355.726 94.5423 355.146 94.4731 354.65C94.3969 354.111 94.2971 353.577 94.1727 353.048C94.0605 352.568 93.9309 352.092 93.789 351.621C93.718 351.384 93.6418 351.15 93.5612 350.917C93.5183 350.794 93.4579 350.664 93.4158 350.532C92.7956 351.505 92.1806 352.482 91.5753 353.465C90.3752 355.414 89.1856 357.369 87.989 359.32C87.9303 359.418 87.7735 359.333 87.8339 359.233Z" fill="#17213A"/>
<path d="M119.987 386C120.041 384.024 120.354 382.035 120.566 380.071C120.78 378.097 121.004 376.125 121.216 374.151C121.621 370.347 121.848 366.458 122.742 362.729C123.512 359.521 124.925 356.448 127.39 354.187C128.636 353.043 130.221 352.105 131.947 352.012C133.712 351.916 135.338 352.527 136.786 353.504C138.433 354.615 139.704 356.192 140.855 357.792C142.041 359.44 143.09 361.143 144.027 362.944C144.062 363.013 143.957 363.055 143.919 362.991C142.187 359.989 139.801 357.4 137.054 355.298C135.79 354.331 134.338 353.605 132.727 353.495C131.129 353.385 129.706 354.148 128.532 355.168C126.228 357.171 124.895 360.116 124.101 363.008C123.159 366.437 122.855 370.045 122.386 373.56C122.106 375.65 121.84 377.741 121.564 379.831C121.29 381.91 121.117 384.042 120.675 386.093C120.578 386.535 119.974 386.444 119.987 386Z" fill="#17213A"/>
<path d="M129.702 370.66C130.272 371.456 131 372.179 131.851 372.855C131.526 370.927 131.133 367.501 132.106 365.678C133.617 362.846 135.406 364.259 134.506 366.721C133.207 370.235 133.037 372.609 133.051 373.701C134.966 374.961 137.277 375.979 139.613 376.797C139.406 375.849 139.275 374.672 139.396 373.419C139.698 370.392 142.016 370.448 141.414 373.598C141.149 374.959 141.093 376.268 141.096 377.296C146.383 378.954 151.322 379.603 151.322 379.603C153.29 376.981 154.672 374.461 155.555 372.068C153.091 371.45 148.101 371.31 148.208 369.55C148.35 367.18 153.183 369.005 156.01 370.723C156.706 368.455 156.95 366.314 156.865 364.348C155.761 363.986 153.72 363.538 150.069 363.222C144.994 362.784 145.244 359.907 148.921 359.973C151.634 360.023 155.065 361.684 156.691 362.547C155.633 355.646 150.368 351.222 146.147 351.054C139.05 350.767 141.604 359.599 141.604 359.599C141.604 359.599 136.796 356.215 132.258 356.304C127.73 356.401 124.85 363.909 129.702 370.66ZM148.657 357.893C148.5 356.901 151.666 356.662 151.831 357.936C152.02 359.367 148.818 358.904 148.657 357.893ZM153.753 368.254C153.687 367.605 155.055 367.491 155.364 368.309C155.571 368.842 153.807 368.895 153.753 368.254ZM136.712 368.858C137.782 369.009 138.39 372.834 136.549 372.758C135.145 372.699 135.806 368.729 136.712 368.858Z" fill="#383192"/>
<path d="M138.193 373.104C138.369 372.629 138.527 372.145 138.677 371.658C138.539 372.15 138.416 372.644 138.325 373.14C138.306 373.238 138.158 373.199 138.193 373.104Z" fill="#17213A"/>
<path d="M140.065 366.958C140.398 365.978 140.772 365.01 141.153 364.047C141.356 363.533 141.567 363.023 141.792 362.518C141.981 362.093 142.14 361.61 142.425 361.238C142.207 360.831 142.003 360.419 141.85 359.999C141.835 359.959 141.887 359.928 141.915 359.961C142.456 360.593 142.875 361.388 143.297 362.106C143.494 362.441 143.682 362.781 143.875 363.118C144.273 363.142 144.678 363.232 145.069 363.303C145.495 363.381 145.919 363.468 146.341 363.563C146.763 363.658 147.185 363.755 147.606 363.856C148.024 363.956 148.44 364.095 148.864 364.159C148.962 364.174 148.922 364.329 148.828 364.291C148.408 364.122 147.942 364.041 147.5 363.945C147.093 363.858 146.685 363.785 146.272 363.726C145.859 363.667 145.446 363.616 145.032 363.575C144.721 363.544 144.406 363.528 144.093 363.499C144.262 363.797 144.438 364.091 144.603 364.391C144.629 364.439 144.652 364.487 144.678 364.535C145.02 364.506 145.363 364.595 145.698 364.655C146.065 364.721 146.43 364.79 146.794 364.871C147.534 365.034 148.272 365.21 149.002 365.413C150.538 365.841 152.054 366.332 153.57 366.827C153.654 366.855 153.601 366.983 153.516 366.954C152.013 366.44 150.478 366.029 148.929 365.681C148.203 365.517 147.477 365.351 146.748 365.199C146.383 365.124 146.02 365.043 145.655 364.966C145.374 364.906 145.079 364.873 144.807 364.779C145.588 366.221 146.324 367.687 146.999 369.182C148.471 372.438 149.71 375.793 150.972 379.134C151.003 379.218 150.874 379.272 150.845 379.189C149.666 375.849 148.175 372.636 146.617 369.459C146.333 368.881 146.042 368.308 145.755 367.732C145.731 367.849 145.703 367.965 145.681 368.085C145.608 368.48 145.538 368.874 145.471 369.27C145.338 370.062 145.203 370.853 145.085 371.646C144.846 373.252 144.458 374.949 144.513 376.578C144.516 376.681 144.36 376.676 144.376 376.578C144.503 375.793 144.503 374.971 144.553 374.176C144.605 373.346 144.666 372.515 144.763 371.689C144.855 370.892 144.957 370.096 145.089 369.304C145.155 368.908 145.225 368.513 145.298 368.118C145.351 367.831 145.364 367.506 145.521 367.259C145.105 366.425 144.693 365.59 144.273 364.758C143.879 363.978 143.479 363.2 143.075 362.427C142.903 362.1 142.717 361.769 142.535 361.435C142.432 361.846 142.222 362.241 142.064 362.63C141.883 363.077 141.7 363.525 141.516 363.972C141.11 364.962 140.731 365.962 140.353 366.963C139.817 368.382 139.224 369.837 138.781 371.314C139.213 369.866 139.579 368.389 140.065 366.958Z" fill="#17213A"/>
<path d="M138.676 371.66C138.708 371.545 138.744 371.431 138.778 371.316C138.745 371.43 138.712 371.545 138.676 371.66Z" fill="#17213A"/>
<path d="M108.121 382.158L108.62 392.722L109.905 419.949H137.996L139.28 392.722L139.78 382.158H108.121Z" fill="#37474F"/>
<path d="M108.121 382.158L108.62 392.722H139.28L139.78 382.158H108.121Z" fill="#17213A"/>
<path d="M106.123 386.43H141.775V377.889H106.123V386.43Z" fill="#37474F"/>
<path d="M135.721 419.949H130.789V424.421H135.721V419.949Z" fill="#37474F"/>
<path d="M135.721 419.949H130.789V422.185H135.721V419.949Z" fill="#17213A"/>
<path d="M117.104 419.949H112.178V424.421H117.104V419.949Z" fill="#37474F"/>
<path d="M117.104 419.949H112.178V422.185H117.104V419.949Z" fill="#17213A"/>
</g>
</svg>
