<svg width="16" height="16" viewBox="0 0 16 16" fill="none" xmlns="http://www.w3.org/2000/svg">
<path fill-rule="evenodd" clip-rule="evenodd" d="M14.2843 2.9264L14.3022 2.93537L15.5484 3.55631C15.7298 3.64676 15.8386 3.71221 15.8748 3.75266C16.0405 3.93737 16.0482 4.23508 15.8591 4.40677C15.8133 4.44834 15.7483 4.49013 15.6641 4.53212L8.92151 7.8897C8.7395 7.98038 8.59346 8.04217 8.48348 8.07506C8.02506 8.21209 7.58602 8.14174 7.15829 7.92838C4.9113 6.80774 2.61524 5.6641 0.27003 4.49745C-0.0953671 4.31542 -0.0850318 3.82468 0.271372 3.64731C2.55079 2.51378 4.8313 1.37793 7.11296 0.239742C7.29452 0.149064 7.45178 0.08693 7.58468 0.0533808C7.99471 -0.0506439 8.401 -0.00262935 8.80351 0.197404C10.6314 1.10622 12.4597 2.01728 14.2843 2.9264ZM6.79313 11.6576C5.816 11.1741 4.84135 10.6897 3.86479 10.2044C2.71054 9.63078 1.55364 9.05584 0.386973 8.47946C0.238942 8.4061 0.145396 8.34368 0.106293 8.29227C-0.0954078 8.02825 0.00326562 7.70305 0.289968 7.56174C0.678151 7.37027 1.05543 7.18352 1.42188 7.00151C1.71941 6.85375 2.00981 6.70907 2.29302 6.56753C2.29611 6.56602 2.29941 6.56491 2.30274 6.56423C2.30429 6.56393 2.30587 6.5637 2.30746 6.56356L2.31068 6.56344C2.31682 6.56344 2.32284 6.56484 2.32834 6.56753L3.97901 7.38758C4.84709 7.8189 5.70768 8.24659 6.56079 8.67065C6.83126 8.80521 7.03426 8.89444 7.1698 8.93833C7.86938 9.16599 8.56327 9.10858 9.25154 8.76609C10.7502 8.02038 12.2277 7.28653 13.684 6.56454C13.6918 6.56055 13.6995 6.56055 13.7073 6.56454C14.336 6.87954 14.995 7.20696 15.6844 7.54678C15.9127 7.65917 16.043 7.84437 15.9871 8.10174C15.9568 8.24029 15.873 8.3438 15.7357 8.41231C13.6703 9.4422 11.4071 10.5682 8.94621 11.7903C8.71619 11.9044 8.5352 11.977 8.40316 12.0081C8.05806 12.089 7.7214 12.0686 7.39315 11.9469C7.35225 11.9318 7.15226 11.8354 6.79313 11.6576ZM9.19311 12.717C8.58883 13.0195 7.94983 13.0785 7.27621 12.8939C7.10551 12.8471 6.91069 12.7688 6.69177 12.6591C5.22893 11.9267 3.77348 11.1994 2.32553 10.4772C2.31507 10.4721 2.30474 10.4721 2.29452 10.4772L1.09803 11.0752L0.270599 11.4886C-0.0884498 11.6682 -0.0911353 12.1621 0.268239 12.3407C2.48076 13.4422 4.70708 14.5547 6.94714 15.6785C7.17916 15.7949 7.35266 15.8727 7.46753 15.9119C7.78805 16.0219 8.12187 16.0289 8.46899 15.933C8.58679 15.9004 8.75696 15.8284 8.97941 15.7169C11.2126 14.597 13.4457 13.4812 15.6786 12.3695C15.894 12.2625 16.028 12.0976 15.995 11.8451C15.9733 11.6782 15.863 11.5521 15.712 11.4769C15.0657 11.1554 14.3974 10.8217 13.707 10.4759C13.7026 10.4737 13.6982 10.4727 13.6938 10.4727C13.6896 10.4727 13.6853 10.4738 13.681 10.4759C11.763 11.4326 10.267 12.1796 9.19311 12.717Z" fill="#383192"/>
</svg>
