<svg width="18" height="18" viewBox="0 0 18 18" fill="none" xmlns="http://www.w3.org/2000/svg">
<path fill-rule="evenodd" clip-rule="evenodd" d="M6.75 7.5C8.40685 7.5 9.75 6.15685 9.75 4.5C9.75 2.84315 8.40685 1.5 6.75 1.5C5.09314 1.5 3.75 2.84315 3.75 4.5C3.75 6.15685 5.09314 7.5 6.75 7.5ZM11.25 4.5C11.25 6.98528 9.23528 9 6.75 9C4.26472 9 2.25 6.98528 2.25 4.5C2.25 2.01472 4.26472 0 6.75 0C9.23528 0 11.25 2.01472 11.25 4.5ZM15.023 10.7907C14.6444 10.6227 14.2013 10.7934 14.0332 11.172C13.8652 11.5506 14.0359 11.9937 14.4145 12.1617C14.7891 12.328 15.1313 12.5497 15.4265 12.819C16.1233 13.4547 16.5 14.3013 16.5 15.1678V17.25C16.5 17.6642 16.8358 18 17.25 18C17.6642 18 18 17.6642 18 17.25V15.1678C18 13.8567 17.4285 12.6149 16.4375 11.7108C16.0187 11.3288 15.5394 11.0199 15.023 10.7907ZM12 15.1678V18H13.5V15.1678C13.5 14.079 13.1444 13.0348 12.5115 12.2649C11.8785 11.495 11.0201 11.0625 10.125 11.0625H3.375C2.47989 11.0625 1.62145 11.495 0.988514 12.2649C0.355579 13.0348 0 14.079 0 15.1678V18H1.5V15.1678C1.5 14.3921 1.75582 13.6936 2.14721 13.2175C2.53179 12.7497 2.98313 12.5625 3.375 12.5625H10.125C10.5169 12.5625 10.9682 12.7497 11.3528 13.2175C11.7442 13.6936 12 14.3921 12 15.1678ZM12.9375 0.375C12.5233 0.375 12.1875 0.710786 12.1875 1.125C12.1875 1.53921 12.5233 1.875 12.9375 1.875C13.4962 1.875 14.0121 2.04871 14.437 2.34508C15.1189 2.82071 15.5625 3.60861 15.5625 4.5C15.5625 5.39139 15.1189 6.17929 14.437 6.65492C14.0121 6.95129 13.4962 7.125 12.9375 7.125C12.5233 7.125 12.1875 7.46079 12.1875 7.875C12.1875 8.28921 12.5233 8.625 12.9375 8.625C13.8129 8.625 14.6267 8.35146 15.2951 7.8852C16.362 7.14106 17.0625 5.9024 17.0625 4.5C17.0625 3.0976 16.362 1.85894 15.2951 1.1148C14.6267 0.64854 13.8129 0.375 12.9375 0.375Z" fill="#17213A"/>
</svg>
