<svg width="18" height="18" viewBox="0 0 18 18" fill="none" xmlns="http://www.w3.org/2000/svg">
<path fill-rule="evenodd" clip-rule="evenodd" d="M16.0698 3.2922L16.09 3.30229L17.492 4.00084C17.696 4.10261 17.8184 4.17624 17.8591 4.22174C18.0455 4.42954 18.0542 4.76447 17.8415 4.95762C17.79 5.00438 17.7169 5.05139 17.6221 5.09864L10.0367 8.87591C9.83194 8.97793 9.66765 9.04744 9.54391 9.08445C9.0282 9.2386 8.53427 9.15945 8.05307 8.91942C5.52521 7.65871 2.94215 6.37212 0.303783 5.05963C-0.107288 4.85485 -0.0956608 4.30276 0.305294 4.10322C2.86964 2.828 5.43522 1.55017 8.00208 0.26971C8.20633 0.167697 8.38326 0.0977962 8.53276 0.0600534C8.99405 -0.0569744 9.45113 -0.00295802 9.90394 0.22208C11.9603 1.2445 14.0172 2.26944 16.0698 3.2922ZM7.64227 13.1148C6.543 12.5708 5.44652 12.0259 4.34789 11.4799C3.04935 10.8346 1.74784 10.1878 0.435344 9.5394C0.26881 9.45686 0.16357 9.38664 0.119579 9.3288C-0.107334 9.03178 0.00367382 8.66594 0.326214 8.50695C0.76292 8.29155 1.18736 8.08146 1.59962 7.8767C1.93434 7.71046 2.26104 7.54771 2.57964 7.38847C2.58312 7.38678 2.58683 7.38552 2.59058 7.38476C2.59232 7.38442 2.59411 7.38417 2.59589 7.38401L2.59951 7.38387C2.60642 7.38387 2.6132 7.38545 2.61938 7.38847L4.47639 8.31103C5.45298 8.79626 6.42115 9.27742 7.38089 9.75448C7.68517 9.90586 7.91354 10.0063 8.06603 10.0556C8.85306 10.3117 9.63368 10.2472 10.408 9.86185C12.094 9.02292 13.7562 8.19734 15.3945 7.38511C15.4032 7.38062 15.412 7.38062 15.4207 7.38511C16.128 7.73949 16.8694 8.10783 17.6449 8.49013C17.9018 8.61657 18.0484 8.82492 17.9854 9.11445C17.9514 9.27032 17.8572 9.38678 17.7027 9.46384C15.3791 10.6225 12.833 11.8892 10.0645 13.2641C9.80571 13.3925 9.60209 13.4741 9.45355 13.5091C9.06532 13.6001 8.68657 13.5771 8.31729 13.4402C8.27129 13.4233 8.0463 13.3148 7.64227 13.1148ZM10.3423 14.3066C9.66243 14.647 8.94356 14.7133 8.18573 14.5057C7.9937 14.453 7.77452 14.3649 7.52825 14.2415C5.88254 13.4175 4.24517 12.5993 2.61622 11.7869C2.60445 11.7811 2.59283 11.7811 2.58134 11.7869L1.23529 12.4596L0.304424 12.9246C-0.099506 13.1267 -0.102527 13.6824 0.301769 13.8833C2.79086 15.1224 5.29546 16.3741 7.81554 17.6383C8.07655 17.7692 8.27174 17.8568 8.40097 17.9009C8.76155 18.0246 9.1371 18.0325 9.52762 17.9246C9.66014 17.888 9.85158 17.807 10.1018 17.6816C12.6142 16.4216 15.1264 15.1663 17.6384 13.9157C17.8807 13.7953 18.0315 13.6098 17.9944 13.3257C17.97 13.138 17.8459 12.9961 17.676 12.9115C16.9489 12.5498 16.197 12.1744 15.4204 11.7854C15.4155 11.783 15.4105 11.7818 15.4056 11.7818C15.4008 11.7818 15.396 11.783 15.3911 11.7854C13.2334 12.8617 11.5504 13.7021 10.3423 14.3066Z" fill="#17213A"/>
</svg>
