<svg width="18" height="18" viewBox="0 0 18 18" fill="none" xmlns="http://www.w3.org/2000/svg">
<path d="M18 10.1957C18 10.3937 17.901 10.6044 17.703 10.828L14.4843 14.6215C14.2097 14.9472 13.8249 15.2234 13.33 15.4501C12.835 15.6768 12.3768 15.7902 11.9553 15.7902H1.53273C1.31559 15.7902 1.12241 15.7487 0.953166 15.6656C0.783927 15.5826 0.699308 15.4453 0.699308 15.2537C0.699308 15.0557 0.798298 14.845 0.996278 14.6215L4.215 10.828C4.48962 10.5023 4.8744 10.226 5.36934 9.99933C5.86429 9.77262 6.32251 9.65926 6.74401 9.65926H17.1666C17.3837 9.65926 17.5769 9.70077 17.7461 9.78379C17.9154 9.86681 18 10.0041 18 10.1957ZM14.7142 6.90035V8.43307H6.74401C6.14369 8.43307 5.51463 8.58475 4.85684 8.8881C4.19905 9.19145 3.67536 9.57304 3.28579 10.0329L0.0574754 13.8264L0.00958259 13.8838C0.00958259 13.8583 0.00798549 13.8184 0.00479129 13.7641C0.0015971 13.7098 0 13.6699 0 13.6444V4.44797C0 3.86042 0.21075 3.3559 0.63225 2.93439C1.05375 2.51289 1.55828 2.30214 2.14583 2.30214H5.21128C5.79883 2.30214 6.30335 2.51289 6.72486 2.93439C7.14636 3.35589 7.35711 3.86042 7.35711 4.44797V4.75451H12.5684C13.1559 4.75451 13.6605 4.96526 14.082 5.38676C14.5035 5.80826 14.7142 6.31278 14.7142 6.90034V6.90035Z" fill="#17213A"/>
</svg>
