<svg width="48" height="48" viewBox="0 0 48 48" fill="none" xmlns="http://www.w3.org/2000/svg">
<path fill-rule="evenodd" clip-rule="evenodd" d="M42.9067 8.80611L42.8529 8.7792L42.4528 8.57985L42.2636 8.48559C36.9855 5.8557 31.6974 3.22083 26.4105 0.59221C25.203 -0.00788803 23.9841 -0.151931 22.754 0.160142C22.3554 0.260789 21.8836 0.44719 21.3389 0.719231C14.494 4.1338 7.65245 7.54134 0.814113 10.9419C-0.255094 11.474 -0.2861 12.9463 0.810085 13.4924C7.84581 16.9923 14.7339 20.4232 21.4749 23.7851C22.7581 24.4252 24.0752 24.6363 25.4504 24.2252C25.7804 24.1265 26.2185 23.9411 26.7645 23.6691L46.9923 13.5964C47.245 13.4704 47.44 13.345 47.5774 13.2203C48.1445 12.7052 48.1214 11.8121 47.6244 11.258C47.5157 11.1366 47.1893 10.9403 46.6453 10.6689L42.9067 8.80611ZM20.0498 34.8097C17.2735 33.4354 14.5034 32.0588 11.7285 30.6797L11.6552 30.6434L11.5944 30.6132C8.13169 28.8923 4.66089 27.1675 1.16091 25.4384C0.716824 25.2183 0.436186 25.031 0.318877 24.8768C-0.286222 24.0848 0.00979681 23.1092 0.869899 22.6852C2.03444 22.1108 3.16627 21.5506 4.26563 21.0045L5.12292 20.5783C5.71826 20.2821 6.30358 19.9902 6.87914 19.7026L6.88634 19.6994L6.89305 19.6969C6.89806 19.6952 6.90319 19.6937 6.90831 19.6927C6.91295 19.6918 6.91771 19.6911 6.92247 19.6907L6.93212 19.6903C6.95055 19.6903 6.96862 19.6945 6.9851 19.7026L11.9371 22.1627C14.5413 23.4567 17.1231 24.7398 19.6824 26.0119C20.4938 26.4156 21.1028 26.6833 21.5094 26.815C22.0517 26.9914 22.5927 27.1108 23.1326 27.1731C21.4086 29.293 20.2925 31.927 20.0498 34.8097ZM20.1433 38.0112C20.7123 41.966 22.9342 45.3866 26.0863 47.5504C25.8174 47.6653 25.5908 47.7482 25.407 47.799C24.3656 48.0866 23.3641 48.0656 22.4026 47.7358C22.058 47.6181 21.5375 47.3846 20.8415 47.0355C14.1213 43.6642 7.44237 40.3265 0.804714 37.0222C-0.273405 36.4864 -0.265348 35.0045 0.811794 34.4657L3.29408 33.2255L6.88366 31.4316C6.9143 31.4163 6.9453 31.4163 6.97667 31.4316C11.3205 33.5982 15.6868 35.7801 20.0753 37.9774L20.1433 38.0112ZM37.5 35.5434C37.5 36.408 36.8311 37.113 36 37.113C35.1689 37.113 34.5 36.4131 34.5 35.5434V25.5697C34.5 24.7051 35.1689 24 36 24C36.8262 24 37.5 24.6999 37.5 25.5697V35.5434ZM40.3 25.5948C40.75 24.8607 41.69 24.6384 42.405 25.1037C45.91 27.3939 48 31.3124 48 35.5981C48 42.4375 42.615 48 35.995 48C29.38 48 24 42.4375 24 35.5981C24 31.2659 26.125 27.3215 29.685 25.0365C30.405 24.5764 31.345 24.809 31.79 25.5483C32.235 26.2927 32.01 27.2646 31.295 27.7247C28.64 29.4255 27.055 32.367 27.055 35.5929C27.055 40.6953 31.07 44.8414 36 44.8414C40.935 44.8414 44.95 40.6901 44.95 35.5929C44.95 32.4032 43.39 29.4772 40.775 27.7712C40.065 27.306 39.85 26.3341 40.3 25.5948Z" fill="url(#paint0_linear_936_34241)"/>
<defs>
<linearGradient id="paint0_linear_936_34241" x1="0" y1="0" x2="50.7001" y2="47.2184" gradientUnits="userSpaceOnUse">
<stop stop-color="#3AC5EC"/>
<stop offset="1" stop-color="#C547E9"/>
</linearGradient>
</defs>
</svg>
