<svg width="48" height="48" viewBox="0 0 48 48" fill="none" xmlns="http://www.w3.org/2000/svg">
<path fill-rule="evenodd" clip-rule="evenodd" d="M42.8529 8.7792L42.9067 8.80612L46.6452 10.6689C47.1893 10.9403 47.5157 11.1366 47.6244 11.258C48.1214 11.8121 48.1445 12.7052 47.5774 13.2203C47.44 13.345 47.245 13.4704 46.9923 13.5964L26.7645 23.6691C26.2185 23.9411 25.7804 24.1265 25.4504 24.2252C24.0752 24.6363 22.7581 24.4252 21.4749 23.7851C14.7339 20.4232 7.84572 16.9923 0.810089 13.4924C-0.286101 12.9463 -0.255095 11.474 0.814117 10.9419C7.65236 7.54134 14.4939 4.13379 21.3389 0.719227C21.8835 0.447192 22.3553 0.26079 22.754 0.160142C23.9841 -0.151932 25.203 -0.00788806 26.4105 0.592212C31.8942 3.31867 37.3791 6.05183 42.8529 8.7792ZM20.3794 34.9728C17.448 33.5222 14.5241 32.0691 11.5944 30.6132C8.13161 28.8923 4.66091 27.1675 1.16092 25.4384C0.716827 25.2183 0.436188 25.031 0.318878 24.8768C-0.286223 24.0848 0.00979684 23.1092 0.869903 22.6852C2.03445 22.1108 3.16629 21.5506 4.26565 21.0045C5.15823 20.5612 6.02944 20.1272 6.87905 19.7026C6.88833 19.6981 6.89821 19.6947 6.90822 19.6927C6.91286 19.6918 6.91762 19.6911 6.92238 19.6907L6.93203 19.6903C6.95046 19.6903 6.96853 19.6945 6.98501 19.7026L11.937 22.1627C14.5413 23.4567 17.1231 24.7398 19.6824 26.0119C20.4938 26.4156 21.1028 26.6833 21.5094 26.815C23.6082 27.498 25.6898 27.3257 27.7546 26.2983C32.2507 24.0611 36.6832 21.8596 41.052 19.6936C41.0753 19.6817 41.0986 19.6817 41.1219 19.6936C43.008 20.6386 44.9851 21.6209 47.0531 22.6403C47.7381 22.9775 48.1291 23.5331 47.9611 24.3052C47.8704 24.7209 47.6191 25.0314 47.2071 25.2369C41.011 28.3266 34.2214 31.7045 26.8386 35.3708C26.1486 35.7133 25.6056 35.9311 25.2095 36.0242C24.1742 36.2669 23.1642 36.2057 22.1794 35.8406C22.0568 35.7954 21.4568 35.5061 20.3794 34.9728ZM27.5793 38.151C25.7665 39.0586 23.8495 39.2356 21.8286 38.6817C21.3165 38.5412 20.7321 38.3065 20.0753 37.9774C15.6868 35.7801 11.3204 33.5982 6.97658 31.4317C6.94521 31.4163 6.91421 31.4163 6.88357 31.4317L3.29409 33.2255L0.811798 34.4657C-0.265349 35.0045 -0.273406 36.4864 0.804718 37.0222C7.44228 40.3265 14.1212 43.6642 20.8414 47.0355C21.5375 47.3846 22.058 47.6181 22.4026 47.7358C23.3641 48.0656 24.3656 48.0866 25.407 47.799C25.7604 47.7013 26.2709 47.4853 26.9382 47.1508C33.6378 43.791 40.337 40.4436 47.0359 37.1085C47.682 36.7874 48.0841 36.2928 47.9851 35.5352C47.92 35.0346 47.589 34.6563 47.136 34.4306C45.197 33.4661 43.1921 32.4651 41.1211 31.4276C41.1079 31.4212 41.0947 31.418 41.0815 31.4181C41.0687 31.4182 41.0559 31.4213 41.0431 31.4276C35.289 34.2978 30.8011 36.5389 27.5793 38.151Z" fill="url(#paint0_linear_471_32644)"/>
<defs>
<linearGradient id="paint0_linear_471_32644" x1="0" y1="0" x2="50.7001" y2="47.2184" gradientUnits="userSpaceOnUse">
<stop stop-color="#3AC5EC"/>
<stop offset="1" stop-color="#C547E9"/>
</linearGradient>
</defs>
</svg>
