<svg width="24" height="24" viewBox="0 0 24 24" fill="none" xmlns="http://www.w3.org/2000/svg">
<path fill-rule="evenodd" clip-rule="evenodd" d="M13.6591 0.614991C12.6762 -0.204997 11.3238 -0.204997 10.3409 0.614991C10.331 0.623228 10.3213 0.631667 10.3118 0.6403C9.23589 1.61478 6.76486 3.59477 4.53253 5.3535C3.4228 6.2278 2.38176 7.03984 1.61805 7.6334C1.23625 7.93013 0.923872 8.17217 0.707023 8.33997L0.376057 8.59575C0.325356 8.63418 0.278637 8.6776 0.23663 8.72527C0.0893541 8.89243 0 9.11195 0 9.35236L0 9.3524L0 21.4709C0 22.8377 1.16099 24 2.52632 24H21.4737C22.839 24 24 22.8377 24 21.4709V9.3548C24 9.34894 24 9.34306 23.9999 9.33718C23.9951 9.03444 23.8487 8.76614 23.624 8.59582L23.293 8.33997C23.0761 8.17217 22.7638 7.93013 22.3819 7.6334C21.6182 7.03984 20.5772 6.2278 19.4675 5.3535C17.2351 3.59477 14.7641 1.61478 13.6882 0.6403C13.6787 0.631667 13.669 0.623228 13.6591 0.614991ZM22.1053 11.3114C21.8789 11.4882 21.6353 11.6782 21.3785 11.8784L21.3785 11.8785C20.713 12.3976 19.9593 12.9854 19.1898 13.5894C17.049 15.2695 14.7632 17.0907 13.6882 18.0644C13.6537 18.0957 13.6169 18.1244 13.5781 18.1503L13.5363 18.1783C13.2413 18.3764 12.7133 18.7311 12 18.7311C11.7104 18.7311 11.4037 18.6948 11.0941 18.5756C10.7923 18.4594 10.534 18.2823 10.3047 18.0587C9.15845 17.0697 6.87836 15.2538 4.76853 13.5877C4.15467 13.1029 3.55318 12.6293 2.9997 12.1934L2.99947 12.1932C2.60208 11.8803 2.22944 11.5869 1.89474 11.3228V21.4709C1.89474 21.7901 2.20743 22.1032 2.52632 22.1032H21.4737C21.7926 22.1032 22.1053 21.7901 22.1053 21.4709V11.3114ZM4.08796 10.637C3.46255 10.1445 2.90949 9.70897 2.47733 9.36675L2.77997 9.13169C3.54587 8.53644 4.59036 7.7217 5.70431 6.84408C7.90837 5.10762 10.4233 3.09464 11.566 2.06222C11.8396 1.84168 12.1604 1.84168 12.434 2.06222C13.5767 3.09464 16.0916 5.10762 18.2957 6.84408C19.4096 7.7217 20.4541 8.53644 21.22 9.13169L21.5184 9.36347C21.1847 9.62502 20.7789 9.94144 20.3236 10.2966C19.6423 10.8279 18.85 11.4459 18.0208 12.0966C15.9313 13.7365 13.6253 15.5714 12.4708 16.6094C12.1709 16.8066 12.0883 16.8342 12 16.8342C11.8686 16.8342 11.8068 16.8178 11.7743 16.8053C11.746 16.7943 11.697 16.7703 11.6173 16.6905C11.6009 16.6742 11.584 16.6585 11.5666 16.6434C10.3892 15.6254 8.05454 13.7666 5.94199 12.0984C5.28878 11.5826 4.65888 11.0865 4.08901 10.6378L4.08796 10.637Z" fill="#17213A"/>
</svg>
