<svg width="36" height="36" viewBox="0 0 36 36" fill="none" xmlns="http://www.w3.org/2000/svg">
<rect width="36" height="36" rx="8" fill="#383192"/>
<path fill-rule="evenodd" clip-rule="evenodd" d="M18.6956 10.1502C18.5481 10.1445 18.3372 10.1429 18.0102 10.1429H15.2174C14.4696 10.1429 13.9716 10.1438 13.589 10.1759C13.2185 10.2069 13.049 10.2619 12.9416 10.3181C12.6471 10.4722 12.4076 10.718 12.2575 11.0204C12.2028 11.1307 12.1493 11.3048 12.119 11.6852C12.0878 12.0781 12.0869 12.5895 12.0869 13.3572V22.6429C12.0869 23.4106 12.0878 23.922 12.119 24.3149C12.1493 24.6953 12.2028 24.8694 12.2575 24.9796C12.4076 25.282 12.6471 25.5279 12.9416 25.682C13.049 25.7382 13.2185 25.7931 13.589 25.8242C13.9716 25.8563 14.4696 25.8572 15.2174 25.8572H20.7825C21.5303 25.8572 22.0283 25.8563 22.4109 25.8242C22.7814 25.7931 22.9509 25.7382 23.0583 25.682C23.3528 25.5279 23.5923 25.282 23.7424 24.9796C23.7971 24.8694 23.8506 24.6953 23.8809 24.3149C23.9121 23.922 23.913 23.4106 23.913 22.6429V16.2038C23.913 15.868 23.9114 15.6516 23.9059 15.5001L21.0993 15.5001C20.8829 15.5001 20.6626 15.5001 20.4743 15.4843C20.2647 15.4668 20.0048 15.4244 19.7401 15.286C19.3802 15.0976 19.0875 14.7971 18.9041 14.4275C18.7693 14.1558 18.728 13.8889 18.7109 13.6737C18.6955 13.4804 18.6956 13.2541 18.6956 13.0319L18.6956 13.0001V10.1502ZM20.1457 8.32506C19.9415 8.2316 19.7291 8.15744 19.5111 8.1037C19.088 7.99939 18.6506 7.99968 18.108 8.00004L18.0102 8.00008L15.1755 8.00008L15.1754 8.00008C14.4806 8.00007 13.8968 8.00005 13.419 8.04014C12.9195 8.08204 12.4447 8.17305 11.9941 8.40881C11.3069 8.76833 10.7482 9.34201 10.3981 10.0476C10.1685 10.5103 10.0798 10.9978 10.039 11.5107C9.99997 12.0013 9.99999 12.6007 10 13.3141V13.3142V22.6859V22.6859C9.99999 23.3994 9.99997 23.9988 10.039 24.4894C10.0798 25.0023 10.1685 25.4898 10.3981 25.9525C10.7482 26.6581 11.3069 27.2318 11.9941 27.5913C12.4447 27.827 12.9195 27.918 13.419 27.96C13.8967 28 14.4805 28 15.1753 28H15.1753H15.1754H20.8245H20.8246H20.8246C21.5194 28 22.1032 28 22.5809 27.96C23.0804 27.918 23.5552 27.827 24.0058 27.5913C24.693 27.2318 25.2517 26.6581 25.6018 25.9525C25.8314 25.4898 25.9201 25.0023 25.9609 24.4894C25.9999 23.9988 25.9999 23.3993 25.9999 22.6859V16.2038L25.9999 16.1034C26.0003 15.5463 26.0006 15.0972 25.899 14.6627C25.8466 14.4389 25.7744 14.2208 25.6834 14.0111C25.6763 13.9939 25.6688 13.977 25.6609 13.9602C25.6018 13.8294 25.5353 13.7021 25.4617 13.5788C25.2344 13.1978 24.9249 12.8804 24.5409 12.4867L24.4718 12.4158L21.6994 9.56915L21.6303 9.49813L21.6303 9.49812C21.2469 9.10391 20.9378 8.78614 20.5668 8.55268C20.4467 8.47713 20.3226 8.40888 20.1952 8.34821C20.1789 8.34006 20.1624 8.33234 20.1457 8.32506ZM20.7825 11.6582V13.0001C20.7825 13.1275 20.7826 13.2278 20.7839 13.3144L20.7846 13.355L20.8243 13.3558C20.9086 13.3572 21.0062 13.3572 21.1304 13.3572H22.4373L20.7825 11.6582ZM12.95 19C12.95 18.4201 13.4201 17.95 14 17.95H22C22.5799 17.95 23.05 18.4201 23.05 19C23.05 19.5799 22.5799 20.05 22 20.05H14C13.4201 20.05 12.95 19.5799 12.95 19ZM14 21.95C13.4201 21.95 12.95 22.4201 12.95 23C12.95 23.5799 13.4201 24.05 14 24.05H19C19.5799 24.05 20.05 23.5799 20.05 23C20.05 22.4201 19.5799 21.95 19 21.95H14Z" fill="white"/>
</svg>
