<svg width="515" height="344" viewBox="0 0 515 344" fill="none" xmlns="http://www.w3.org/2000/svg">
<g opacity="0.8">
<path d="M454.528 91.8131C454.528 91.8131 453.095 86.7886 446.289 84.276C439.483 81.7635 433.394 83.9169 431.245 85.7119C429.095 87.5062 427.662 90.0188 425.871 90.0188C424.081 90.0188 419.424 87.5062 415.125 89.3012C410.827 91.0955 411.185 93.6081 409.393 94.6848C407.603 95.7615 404.737 93.9672 401.513 94.6848C398.289 95.4024 395.065 98.2741 394.706 99.3508C394.348 100.428 393.632 100.068 390.766 100.068C387.901 100.068 385.035 104.016 385.035 104.016H476.021C476.021 104.016 472.081 95.4024 466.708 93.9665C461.334 92.5307 458.468 95.4024 457.394 95.0432C456.319 94.6841 454.528 91.8131 454.528 91.8131Z" fill="#F3F4F6" stroke="#17213A" stroke-miterlimit="10" stroke-linecap="round" stroke-linejoin="round"/>
<path d="M282.838 33.0622C282.838 33.0622 281.954 29.9616 277.754 28.4116C273.554 26.8616 269.796 28.1901 268.47 29.2977C267.144 30.4053 266.259 31.9553 265.154 31.9553C264.048 31.9553 261.175 30.4053 258.522 31.5122C255.869 32.6199 256.09 34.1698 254.985 34.8344C253.879 35.499 252.111 34.3914 250.122 34.8344C248.133 35.2775 246.143 37.049 245.922 37.7135C245.701 38.3781 245.258 38.1566 243.49 38.1566C241.722 38.1566 239.953 40.5926 239.953 40.5926H296.101C296.101 40.5926 293.67 35.2775 290.354 34.3914C287.038 33.5053 285.27 35.2775 284.606 35.0559C283.944 34.8337 282.838 33.0622 282.838 33.0622Z" fill="#F3F4F6" stroke="#17213A" stroke-miterlimit="10" stroke-linecap="round" stroke-linejoin="round"/>
<path d="M66.8504 42.807C66.8504 42.807 65.966 39.7064 61.7663 38.1557C57.566 36.6058 53.8086 37.9342 52.4819 39.0418C51.1553 40.1494 50.2715 41.6994 49.166 41.6994C48.0605 41.6994 45.1868 40.1494 42.5342 41.2564C39.8816 42.364 40.1027 43.914 38.9972 44.5785C37.8916 45.2431 36.1235 44.1355 34.1342 44.5785C32.1449 45.0216 30.1549 46.7931 29.9338 47.4577C29.7127 48.1222 29.2705 47.9007 27.5024 47.9007C25.7342 47.9007 23.9653 50.3368 23.9653 50.3368H80.1134C80.1134 50.3368 77.6819 45.0216 74.366 44.1355C71.0501 43.2494 69.2819 45.0216 68.6186 44.8001C67.9559 44.5785 66.8504 42.807 66.8504 42.807Z" fill="#F3F4F6" stroke="#17213A" stroke-miterlimit="10" stroke-linecap="round" stroke-linejoin="round"/>
<path opacity="0.7" d="M320.327 62.9814C320.327 62.9814 266.239 43.6865 213.144 74.4061C160.051 105.125 133.261 166.106 110.255 214.954C87.25 263.803 100.492 313.49 141.022 336.146C181.552 358.801 209.112 325.404 265.969 323.777C322.826 322.151 338.117 330.306 385.298 298.082C432.478 265.859 441.006 189.757 403.789 133.448C366.571 77.1388 320.327 62.9814 320.327 62.9814Z" fill="#C3C1DE"/>
<path d="M444.64 146.645H473.147" stroke="#263238" stroke-miterlimit="10" stroke-linecap="round" stroke-linejoin="round"/>
<path d="M83.6689 146.645H439.803" stroke="#263238" stroke-miterlimit="10" stroke-linecap="round" stroke-linejoin="round"/>
<path d="M33.644 146.645H75.316" stroke="#263238" stroke-miterlimit="10" stroke-linecap="round" stroke-linejoin="round"/>
<path d="M50.3154 266.27V295.143" stroke="#263238" stroke-miterlimit="10" stroke-linecap="round" stroke-linejoin="round"/>
<path d="M50.3154 146.468V259.674" stroke="#263238" stroke-miterlimit="10" stroke-linecap="round" stroke-linejoin="round"/>
<path d="M95.6426 146.468V295.144" stroke="#263238" stroke-miterlimit="10" stroke-linecap="round" stroke-linejoin="round"/>
<path d="M140.969 146.468V295.144" stroke="#263238" stroke-miterlimit="10" stroke-linecap="round" stroke-linejoin="round"/>
<path d="M186.295 146.468V295.144" stroke="#263238" stroke-miterlimit="10" stroke-linecap="round" stroke-linejoin="round"/>
<path d="M231.622 146.468V295.144" stroke="#263238" stroke-miterlimit="10" stroke-linecap="round" stroke-linejoin="round"/>
<path d="M276.948 146.468V295.144" stroke="#263238" stroke-miterlimit="10" stroke-linecap="round" stroke-linejoin="round"/>
<path d="M322.274 146.468V295.144" stroke="#263238" stroke-miterlimit="10" stroke-linecap="round" stroke-linejoin="round"/>
<path d="M367.601 146.468V295.144" stroke="#263238" stroke-miterlimit="10" stroke-linecap="round" stroke-linejoin="round"/>
<path d="M412.927 146.468V295.144" stroke="#263238" stroke-miterlimit="10" stroke-linecap="round" stroke-linejoin="round"/>
<path d="M458.253 248.683V295.143" stroke="#263238" stroke-miterlimit="10" stroke-linecap="round" stroke-linejoin="round"/>
<path d="M458.253 146.468V243.846" stroke="#263238" stroke-miterlimit="10" stroke-linecap="round" stroke-linejoin="round"/>
<path d="M410.64 81.833H266.67V308.999H410.64V81.833Z" fill="#D8D6F1"/>
<path d="M410.64 81.833H266.67V308.999H410.64V81.833Z" fill="#17213A"/>
<path d="M410.64 81.833H266.67V308.999H410.64V81.833Z" stroke="#17213A" stroke-miterlimit="10" stroke-linecap="round" stroke-linejoin="round"/>
<path d="M282.334 106.604H410.504" stroke="#DEDCF2" stroke-miterlimit="10" stroke-linecap="round" stroke-linejoin="round"/>
<path d="M282.334 135.764H410.504" stroke="#DEDCF2" stroke-miterlimit="10" stroke-linecap="round" stroke-linejoin="round"/>
<path d="M282.334 164.924H410.504" stroke="#DEDCF2" stroke-miterlimit="10" stroke-linecap="round" stroke-linejoin="round"/>
<path d="M282.334 194.086H410.504" stroke="#DEDCF2" stroke-miterlimit="10" stroke-linecap="round" stroke-linejoin="round"/>
<path d="M282.334 223.246H410.504" stroke="#DEDCF2" stroke-miterlimit="10" stroke-linecap="round" stroke-linejoin="round"/>
<path d="M282.334 252.406H410.504" stroke="#DEDCF2" stroke-miterlimit="10" stroke-linecap="round" stroke-linejoin="round"/>
<path d="M282.334 281.566H410.504" stroke="#DEDCF2" stroke-miterlimit="10" stroke-linecap="round" stroke-linejoin="round"/>
<path d="M353.285 81.833H349.794V308.999H353.285V81.833Z" fill="#DEDCF2" stroke="#17213A" stroke-miterlimit="10" stroke-linecap="round" stroke-linejoin="round"/>
<path d="M110.182 91.7092H115.598V89.1597L110.182 91.7092Z" fill="white" stroke="#17213A" stroke-miterlimit="10" stroke-linecap="round" stroke-linejoin="round"/>
<path d="M283.437 308.999H115.41V81.8331L200.216 34.54L283.437 81.8331V308.999Z" fill="#D8D6F1" stroke="#17213A" stroke-miterlimit="10" stroke-linecap="round" stroke-linejoin="round"/>
<path d="M128.394 77.4438H267.415" stroke="#17213A" stroke-miterlimit="10" stroke-linecap="round" stroke-linejoin="round"/>
<path d="M116.188 106.604H283.69" stroke="#17213A" stroke-miterlimit="10" stroke-linecap="round" stroke-linejoin="round"/>
<path d="M116.188 135.764H283.69" stroke="#17213A" stroke-miterlimit="10" stroke-linecap="round" stroke-linejoin="round"/>
<path d="M116.188 164.924H283.69" stroke="#17213A" stroke-miterlimit="10" stroke-linecap="round" stroke-linejoin="round"/>
<path d="M116.188 194.086H283.69" stroke="#17213A" stroke-miterlimit="10" stroke-linecap="round" stroke-linejoin="round"/>
<path d="M116.188 223.246H283.69" stroke="#17213A" stroke-miterlimit="10" stroke-linecap="round" stroke-linejoin="round"/>
<path d="M116.188 252.406H283.69" stroke="#17213A" stroke-miterlimit="10" stroke-linecap="round" stroke-linejoin="round"/>
<path d="M116.188 281.566H283.69" stroke="#17213A" stroke-miterlimit="10" stroke-linecap="round" stroke-linejoin="round"/>
<path opacity="0.9" d="M241.106 57.7766L200.217 34.54L158.548 57.7766H241.106Z" fill="#B3B6BD" stroke="#17213A" stroke-miterlimit="10" stroke-linecap="round" stroke-linejoin="round"/>
<path d="M260.173 106.896H142.645V308.999H260.173V106.896Z" fill="#17213A" stroke="#17213A" stroke-miterlimit="10" stroke-linecap="round" stroke-linejoin="round"/>
<path d="M196.899 118.124H150.199V181.012H196.899V118.124Z" fill="#919191" stroke="#17213A" stroke-miterlimit="10" stroke-linecap="round" stroke-linejoin="round"/>
<path d="M171.298 121.328H152.784V147.188H171.298V121.328Z" fill="#5C5C5C" stroke="#17213A" stroke-miterlimit="10" stroke-linecap="round" stroke-linejoin="round"/>
<path d="M193.926 121.328H175.413V147.188H193.926V121.328Z" fill="#5C5C5C" stroke="#17213A" stroke-miterlimit="10" stroke-linecap="round" stroke-linejoin="round"/>
<path d="M171.298 151.302H152.784V177.163H171.298V151.302Z" fill="#5C5C5C" stroke="#17213A" stroke-miterlimit="10" stroke-linecap="round" stroke-linejoin="round"/>
<path d="M193.926 151.302H175.413V177.163H193.926V151.302Z" fill="#5C5C5C" stroke="#17213A" stroke-miterlimit="10" stroke-linecap="round" stroke-linejoin="round"/>
<path d="M252.369 118.124H205.67V181.012H252.369V118.124Z" fill="#919191" stroke="#17213A" stroke-miterlimit="10" stroke-linecap="round" stroke-linejoin="round"/>
<path d="M226.769 121.328H208.255V147.188H226.769V121.328Z" fill="#5C5C5C" stroke="#17213A" stroke-miterlimit="10" stroke-linecap="round" stroke-linejoin="round"/>
<path d="M249.396 121.328H230.882V147.188H249.396V121.328Z" fill="#5C5C5C" stroke="#17213A" stroke-miterlimit="10" stroke-linecap="round" stroke-linejoin="round"/>
<path d="M213.651 151.302H208.255V177.163H226.769V151.302H213.651Z" fill="#5C5C5C" stroke="#17213A" stroke-miterlimit="10" stroke-linecap="round" stroke-linejoin="round"/>
<path d="M249.396 151.302H230.882V177.163H249.396V151.302Z" fill="#5C5C5C" stroke="#17213A" stroke-miterlimit="10" stroke-linecap="round" stroke-linejoin="round"/>
<path d="M200.745 109.495V306.599" stroke="#5C5C5C" stroke-miterlimit="10" stroke-linecap="round" stroke-linejoin="round"/>
<path d="M207.375 205.335H194.717V211.363H207.375V205.335Z" fill="#5C5C5C" stroke="#17213A" stroke-miterlimit="10" stroke-linecap="round" stroke-linejoin="round"/>
<path d="M200.217 34.54L289.643 84.9362H426.164L336.737 34.54H200.217Z" fill="#17213A" stroke="#17213A" stroke-miterlimit="10" stroke-linecap="round" stroke-linejoin="round"/>
<path d="M216.517 41.5488H344.327" stroke="#DEDCF2" stroke-miterlimit="10" stroke-linecap="round" stroke-linejoin="round"/>
<path d="M236.021 51.8779H363.831" stroke="#DEDCF2" stroke-miterlimit="10" stroke-linecap="round" stroke-linejoin="round"/>
<path d="M255.064 62.2051H382.876" stroke="#DEDCF2" stroke-miterlimit="10" stroke-linecap="round" stroke-linejoin="round"/>
<path d="M272.32 72.5332H400.131" stroke="#DEDCF2" stroke-miterlimit="10" stroke-linecap="round" stroke-linejoin="round"/>
<path d="M426.367 84.936H289.643V91.1652H426.367V84.936Z" fill="#919191" stroke="#17213A" stroke-miterlimit="10" stroke-linecap="round" stroke-linejoin="round"/>
<path d="M289.643 91.1654L200.336 41.7504L110.182 91.7094V84.437L200.217 34.54L289.643 84.9362V91.1654Z" fill="#919191" stroke="#17213A" stroke-miterlimit="10" stroke-linecap="round" stroke-linejoin="round"/>
<path d="M115.637 246.754C115.637 246.754 113.823 244.578 113.098 246.028C112.373 247.479 113.279 247.661 113.279 247.661C113.279 247.661 111.284 247.117 111.284 248.205C111.284 249.293 112.373 249.474 112.373 249.474C112.373 249.474 108.745 247.661 108.745 248.749C108.745 249.837 108.745 249.837 108.745 249.837C108.745 249.837 106.025 249.474 106.025 250.744C106.025 252.013 106.025 252.013 106.025 252.013C106.025 252.013 103.486 250.562 103.305 251.832C103.123 253.101 103.667 254.371 103.667 254.371C103.667 254.371 100.584 253.464 101.128 254.552C101.672 255.64 102.761 256.184 102.761 256.184C102.761 256.184 99.8589 256.003 99.8589 257.273L101.854 258.179C101.854 258.179 100.04 259.812 100.584 260.356C101.128 260.9 103.305 260.174 103.305 260.174C103.305 260.174 101.854 262.169 102.398 262.351C102.942 262.532 103.667 261.806 103.667 261.806C103.667 261.806 102.398 265.071 103.305 265.071C104.211 265.071 106.388 264.345 106.388 264.345H135.583C135.583 264.345 139.21 261.081 138.485 260.537C137.76 259.993 137.76 259.993 137.76 259.993C137.76 259.993 139.029 258.905 138.666 258.179C138.304 257.454 137.034 257.635 137.034 257.635C137.034 257.635 138.666 254.371 137.034 254.008C135.402 253.645 134.495 254.008 134.495 254.008C134.495 254.008 134.495 250.018 133.588 250.018C132.682 250.018 131.775 250.925 131.775 250.925C131.775 250.925 132.682 249.293 131.049 249.112C129.417 248.93 129.417 248.93 129.417 248.93C129.417 248.93 128.148 246.028 127.241 246.391C126.334 246.754 126.334 246.754 126.334 246.754C126.334 246.754 125.246 245.303 124.158 245.847C123.07 246.391 123.07 246.391 123.07 246.391C123.07 246.391 122.888 244.94 121.619 245.122C120.349 245.303 118.898 246.935 118.898 246.935C118.898 246.935 119.08 245.484 118.173 245.484C117.269 245.485 115.637 246.754 115.637 246.754Z" fill="#C0BCE0" stroke="#263238" stroke-miterlimit="10" stroke-linecap="round" stroke-linejoin="round"/>
<path d="M116 260.717C116 260.717 110.741 258.723 111.829 258.178C112.918 257.634 115.457 258.723 115.457 258.723C115.457 258.723 111.829 254.37 112.918 254.37C114.006 254.37 115.094 255.458 115.094 255.458C115.094 255.458 114.006 251.469 114.731 251.469L116.363 252.195C116.363 252.195 115.457 247.479 116.726 248.205C117.996 248.93 117.814 254.733 117.814 254.733C117.814 254.733 119.809 249.837 119.99 251.831C120.172 253.826 118.902 256.728 118.902 256.728C118.902 256.728 120.716 254.914 120.716 256.546C120.716 258.178 119.809 259.085 119.809 259.085C119.809 259.085 123.618 258.904 122.529 260.355C121.441 261.806 117.452 263.256 117.452 263.256" fill="#C0BCE0"/>
<path d="M116 260.717C116 260.717 110.741 258.723 111.829 258.178C112.918 257.634 115.457 258.723 115.457 258.723C115.457 258.723 111.829 254.37 112.918 254.37C114.006 254.37 115.094 255.458 115.094 255.458C115.094 255.458 114.006 251.469 114.731 251.469L116.363 252.195C116.363 252.195 115.457 247.479 116.726 248.205C117.996 248.93 117.814 254.733 117.814 254.733C117.814 254.733 119.809 249.837 119.99 251.831C120.172 253.826 118.902 256.728 118.902 256.728C118.902 256.728 120.716 254.914 120.716 256.546C120.716 258.178 119.809 259.085 119.809 259.085C119.809 259.085 123.618 258.904 122.529 260.355C121.441 261.806 117.452 263.256 117.452 263.256" stroke="#263238" stroke-miterlimit="10" stroke-linecap="round" stroke-linejoin="round"/>
<path d="M108.021 252.194C108.021 252.194 102.763 250.199 103.85 249.655C104.938 249.111 107.477 250.199 107.477 250.199C107.477 250.199 103.85 245.848 104.938 245.848C106.026 245.848 107.115 246.936 107.115 246.936C107.115 246.936 106.026 242.946 106.752 242.946L108.384 243.671C108.384 243.671 107.477 238.957 108.747 239.682C110.016 240.406 109.835 246.21 109.835 246.21C109.835 246.21 111.83 241.314 112.011 243.308C112.193 245.303 110.923 248.204 110.923 248.204C110.923 248.204 112.737 246.391 112.737 248.023C112.737 249.655 111.83 250.562 111.83 250.562C111.83 250.562 115.638 250.381 114.55 251.832C113.462 253.282 109.473 254.733 109.473 254.733" fill="#C0BCE0"/>
<path d="M108.021 252.194C108.021 252.194 102.763 250.199 103.85 249.655C104.938 249.111 107.477 250.199 107.477 250.199C107.477 250.199 103.85 245.848 104.938 245.848C106.026 245.848 107.115 246.936 107.115 246.936C107.115 246.936 106.026 242.946 106.752 242.946L108.384 243.671C108.384 243.671 107.477 238.957 108.747 239.682C110.016 240.406 109.835 246.21 109.835 246.21C109.835 246.21 111.83 241.314 112.011 243.308C112.193 245.303 110.923 248.204 110.923 248.204C110.923 248.204 112.737 246.391 112.737 248.023C112.737 249.655 111.83 250.562 111.83 250.562C111.83 250.562 115.638 250.381 114.55 251.832C113.462 253.282 109.473 254.733 109.473 254.733" stroke="#263238" stroke-miterlimit="10" stroke-linecap="round" stroke-linejoin="round"/>
<path d="M116.181 246.391C116.181 246.391 110.923 244.396 112.01 243.852C113.098 243.308 115.637 244.396 115.637 244.396C115.637 244.396 112.01 240.044 113.098 240.044C114.186 240.044 115.274 241.132 115.274 241.132C115.274 241.132 114.186 237.142 114.912 237.142L116.544 237.867C116.544 237.867 115.637 233.153 116.906 233.877C118.176 234.603 117.995 240.405 117.995 240.405C117.995 240.405 119.99 235.51 120.171 237.504C120.352 239.499 119.083 242.399 119.083 242.399C119.083 242.399 120.896 240.586 120.896 242.218C120.896 243.85 119.99 244.757 119.99 244.757C119.99 244.757 123.798 244.576 122.71 246.026C121.622 247.477 117.633 248.928 117.633 248.928" fill="#C0BCE0"/>
<path d="M116.181 246.391C116.181 246.391 110.923 244.396 112.01 243.852C113.098 243.308 115.637 244.396 115.637 244.396C115.637 244.396 112.01 240.044 113.098 240.044C114.186 240.044 115.274 241.132 115.274 241.132C115.274 241.132 114.186 237.142 114.912 237.142L116.544 237.867C116.544 237.867 115.637 233.153 116.906 233.877C118.176 234.603 117.995 240.405 117.995 240.405C117.995 240.405 119.99 235.51 120.171 237.504C120.352 239.499 119.083 242.399 119.083 242.399C119.083 242.399 120.896 240.586 120.896 242.218C120.896 243.85 119.99 244.757 119.99 244.757C119.99 244.757 123.798 244.576 122.71 246.026C121.622 247.477 117.633 248.928 117.633 248.928" stroke="#263238" stroke-miterlimit="10" stroke-linecap="round" stroke-linejoin="round"/>
<path d="M121.802 251.468C121.802 251.468 116.544 249.473 117.632 248.929C118.72 248.385 121.259 249.473 121.259 249.473C121.259 249.473 117.632 245.121 118.72 245.121C119.808 245.121 120.897 246.209 120.897 246.209C120.897 246.209 119.808 242.219 120.534 242.219L122.166 242.945C122.166 242.945 121.259 238.229 122.529 238.955C123.798 239.68 123.617 245.483 123.617 245.483C123.617 245.483 125.612 240.586 125.793 242.581C125.975 244.576 124.705 247.477 124.705 247.477C124.705 247.477 126.519 245.663 126.519 247.295C126.519 248.928 125.612 249.834 125.612 249.834C125.612 249.834 129.42 249.653 128.332 251.104C127.244 252.555 123.255 254.005 123.255 254.005" fill="#C0BCE0"/>
<path d="M121.802 251.468C121.802 251.468 116.544 249.473 117.632 248.929C118.72 248.385 121.259 249.473 121.259 249.473C121.259 249.473 117.632 245.121 118.72 245.121C119.808 245.121 120.897 246.209 120.897 246.209C120.897 246.209 119.808 242.219 120.534 242.219L122.166 242.945C122.166 242.945 121.259 238.229 122.529 238.955C123.798 239.68 123.617 245.483 123.617 245.483C123.617 245.483 125.612 240.586 125.793 242.581C125.975 244.576 124.705 247.477 124.705 247.477C124.705 247.477 126.519 245.663 126.519 247.295C126.519 248.928 125.612 249.834 125.612 249.834C125.612 249.834 129.42 249.653 128.332 251.104C127.244 252.555 123.255 254.005 123.255 254.005" stroke="#263238" stroke-miterlimit="10" stroke-linecap="round" stroke-linejoin="round"/>
<path d="M124.127 259.81C124.127 259.81 121.15 257.02 122.03 256.956C122.91 256.891 124.313 258.322 124.313 258.322C124.313 258.322 123.081 254.402 123.812 254.703C124.542 255.003 124.97 256.033 124.97 256.033C124.97 256.033 125.342 253.057 125.828 253.257L126.723 254.195C126.723 254.195 127.417 250.782 128.068 251.619C128.719 252.457 126.995 256.299 126.995 256.299C126.995 256.299 129.685 253.566 129.255 254.954C128.827 256.341 127.173 257.937 127.173 257.937C127.173 257.937 128.89 257.222 128.44 258.316C127.989 259.411 127.131 259.769 127.131 259.769C127.131 259.769 129.735 260.699 128.605 261.372C127.475 262.045 124.399 261.916 124.399 261.916" fill="#C0BCE0"/>
<path d="M124.127 259.81C124.127 259.81 121.15 257.02 122.03 256.956C122.91 256.891 124.313 258.322 124.313 258.322C124.313 258.322 123.081 254.402 123.812 254.703C124.542 255.003 124.97 256.033 124.97 256.033C124.97 256.033 125.342 253.057 125.828 253.257L126.723 254.195C126.723 254.195 127.417 250.782 128.068 251.619C128.719 252.457 126.995 256.299 126.995 256.299C126.995 256.299 129.685 253.566 129.255 254.954C128.827 256.341 127.173 257.937 127.173 257.937C127.173 257.937 128.89 257.222 128.44 258.316C127.989 259.411 127.131 259.769 127.131 259.769C127.131 259.769 129.735 260.699 128.605 261.372C127.475 262.045 124.399 261.916 124.399 261.916" stroke="#263238" stroke-miterlimit="10" stroke-linecap="round" stroke-linejoin="round"/>
<path d="M133.225 308.998H106.054L100.232 263.619H139.047L133.225 308.998Z" fill="#919191" stroke="#263238" stroke-miterlimit="10" stroke-linecap="round" stroke-linejoin="round"/>
<path d="M87.1216 203.433C87.1216 203.433 77.4945 182.666 80.5193 182.666C83.5441 182.666 83.9756 186.987 83.9756 186.987C83.9756 186.987 80.3036 176.618 81.3831 176.618C82.4636 176.618 83.7599 178.563 83.7599 178.563C83.7599 178.563 80.3036 169.706 81.5998 169.706C82.896 169.706 84.6246 172.73 84.6246 172.73C84.6246 172.73 82.2479 159.336 84.6246 160.632C87.0014 161.928 87.2171 169.058 87.2171 169.058C87.2171 169.058 89.1614 153.071 90.2419 156.312C91.3224 159.553 90.2419 170.57 90.2419 170.57C90.2419 170.57 94.7787 161.28 95.6425 164.305C96.5064 167.33 89.5938 176.187 89.5938 176.187C89.5938 176.187 94.9944 171.219 94.7787 174.242C94.563 177.267 92.1195 180.926 92.1195 180.926C92.1195 180.926 97.5869 178.347 96.9388 180.939C96.2907 183.532 93.2668 186.988 93.2668 186.988C93.2668 186.988 94.8675 184.33 94.8236 188.035C94.7797 191.741 92.4029 195.197 92.4029 195.197C92.4029 195.197 95.4278 194.333 93.9149 196.709C92.401 199.085 87.1216 203.433 87.1216 203.433Z" fill="#C0BCE0" stroke="#263238" stroke-miterlimit="10" stroke-linecap="round" stroke-linejoin="round"/>
<path d="M85.456 191.6C85.456 191.6 85.3806 182.125 84.1664 181.79C82.9523 181.455 81.9911 183.265 81.9911 183.265C81.9911 183.265 80.4706 176.658 79.3834 177.395C78.2962 178.133 78.8546 180.285 78.8546 180.285C78.8546 180.285 74.9879 175.913 73.1552 175.869C71.3226 175.824 73.8558 178.483 73.8558 178.483C73.8558 178.483 68.7377 175.303 67.0397 176.025C65.3416 176.748 70.7499 180.547 70.7499 180.547C70.7499 180.547 56.2012 175.609 57.6616 178.395C59.122 181.182 66.7199 182.894 66.7199 182.894C66.7199 182.894 59.8217 183.796 62.6976 184.936C64.5894 185.685 68.5373 186.155 71.0181 186.387C72.3086 186.509 73.201 186.566 73.201 186.566C73.201 186.566 64.724 189.569 68.2175 190.417C70.0855 190.871 72.7515 190.82 74.8285 190.675C76.6373 190.548 77.9984 190.35 77.9984 190.35C77.9984 190.35 73.5437 191.311 75.3544 192.272C77.1642 193.233 81.2838 193.486 81.2838 193.486C81.2838 193.486 77.2835 194.611 78.9376 195.721C80.5918 196.831 84.7325 198.869 84.7325 198.869L85.456 191.6Z" fill="#C0BCE0" stroke="#263238" stroke-miterlimit="10" stroke-linecap="round" stroke-linejoin="round"/>
<path d="M90.8276 190.736C90.8276 190.736 90.903 181.26 92.1172 180.925C93.3313 180.59 94.2925 182.401 94.2925 182.401C94.2925 182.401 95.813 175.794 96.9002 176.531C97.9874 177.269 97.429 179.421 97.429 179.421C97.429 179.421 101.296 175.048 103.128 175.004C104.961 174.96 102.428 177.619 102.428 177.619C102.428 177.619 107.546 174.438 109.244 175.161C110.942 175.884 105.534 179.683 105.534 179.683C105.534 179.683 120.082 174.745 118.622 177.531C117.162 180.317 109.564 182.03 109.564 182.03C109.564 182.03 116.462 182.932 113.586 184.071C111.694 184.821 107.746 185.29 105.266 185.523C103.975 185.644 103.083 185.702 103.083 185.702C103.083 185.702 111.56 188.705 108.066 189.553C106.198 190.006 103.532 189.956 101.456 189.811C99.6473 189.684 98.2862 189.485 98.2862 189.485C98.2862 189.485 102.741 190.447 100.93 191.408C99.1204 192.369 95.0008 192.621 95.0008 192.621C95.0008 192.621 99.0011 193.746 97.3469 194.855C95.6928 195.965 91.5521 198.003 91.5521 198.003L90.8276 190.736Z" fill="#C0BCE0" stroke="#263238" stroke-miterlimit="10" stroke-linecap="round" stroke-linejoin="round"/>
<path d="M75.5474 214.663C75.5474 214.663 80.8077 218.421 83.0622 221.051C85.3168 223.681 85.3168 223.681 85.3168 223.681V286.29H89.8259V223.681L96.5895 215.414L90.202 219.923L94.335 204.518L87.1952 218.796L80.8077 206.396L82.6861 217.293L75.5474 214.663Z" fill="#263238" stroke="#263238" stroke-miterlimit="10" stroke-linecap="round" stroke-linejoin="round"/>
<path d="M78.2691 212.161C78.2691 212.161 71.8596 206.151 70.8573 206.752C69.8561 207.354 70.4565 209.156 70.4565 209.156C70.4565 209.156 65.0482 205.95 64.8478 207.152C64.6473 208.354 66.4504 209.355 66.4504 209.355C66.4504 209.355 61.0421 209.155 59.8404 210.356C58.6387 211.558 62.0434 211.558 62.0434 211.558C62.0434 211.558 56.6352 212.96 56.0338 214.563C55.4325 216.166 61.4421 214.964 61.4421 214.964C61.4421 214.964 48.8225 221.574 51.6268 222.376C54.4312 223.177 60.4408 219.17 60.4408 219.17C60.4408 219.17 56.6352 224.378 59.2391 223.177C60.9524 222.386 63.7921 220.035 65.535 218.518C66.4418 217.73 67.0517 217.167 67.0517 217.167C67.0517 217.167 63.646 224.778 66.4504 222.976C67.9499 222.012 69.6203 220.19 70.8507 218.703C71.9216 217.407 72.6595 216.366 72.6595 216.366C72.6595 216.366 70.4565 219.971 72.2586 219.371C74.0616 218.77 76.866 216.166 76.866 216.166C76.866 216.166 75.0629 219.571 76.866 219.17C78.6691 218.77 82.6856 217.293 82.6856 217.293L78.2691 212.161Z" fill="#C0BCE0" stroke="#263238" stroke-miterlimit="10" stroke-linecap="round" stroke-linejoin="round"/>
<path d="M85.652 207.824C85.652 207.824 85.5823 199.038 84.456 198.728C83.3297 198.417 82.4391 200.095 82.4391 200.095C82.4391 200.095 81.0293 193.969 80.0214 194.653C79.0134 195.336 79.5317 197.333 79.5317 197.333C79.5317 197.333 75.9466 193.279 74.2475 193.237C72.5485 193.196 74.8966 195.662 74.8966 195.662C74.8966 195.662 70.1508 192.712 68.5768 193.383C67.0019 194.053 72.0169 197.576 72.0169 197.576C72.0169 197.576 58.5268 192.997 59.8812 195.581C61.2357 198.164 68.2809 199.752 68.2809 199.752C68.2809 199.752 61.8847 200.588 64.5516 201.645C66.306 202.34 69.9666 202.775 72.2669 202.991C73.4629 203.103 74.2915 203.157 74.2915 203.157C74.2915 203.157 66.4311 205.941 69.6707 206.728C71.4021 207.149 73.8743 207.103 75.8005 206.967C77.4776 206.85 78.7404 206.665 78.7404 206.665C78.7404 206.665 74.6103 207.557 76.2883 208.447C77.9663 209.338 81.7863 209.573 81.7863 209.573C81.7863 209.573 78.077 210.616 79.6109 211.645C81.1448 212.674 84.9839 214.564 84.9839 214.564L85.652 207.824Z" fill="#C0BCE0" stroke="#263238" stroke-miterlimit="10" stroke-linecap="round" stroke-linejoin="round"/>
<path d="M90.6328 207.022C90.6328 207.022 90.7025 198.236 91.8288 197.926C92.9551 197.615 93.8457 199.294 93.8457 199.294C93.8457 199.294 95.2555 193.167 96.2635 193.851C97.2724 194.535 96.7541 196.531 96.7541 196.531C96.7541 196.531 100.339 192.477 102.038 192.436C103.737 192.395 101.388 194.86 101.388 194.86C101.388 194.86 106.134 191.912 107.709 192.582C109.284 193.252 104.269 196.774 104.269 196.774C104.269 196.774 117.759 192.196 116.406 194.779C115.052 197.362 108.006 198.95 108.006 198.95C108.006 198.95 114.402 199.786 111.735 200.843C109.981 201.538 106.32 201.973 104.021 202.189C102.825 202.301 101.996 202.355 101.996 202.355C101.996 202.355 109.857 205.139 106.617 205.927C104.886 206.348 102.413 206.301 100.487 206.165C98.8101 206.048 97.5473 205.864 97.5473 205.864C97.5473 205.864 101.677 206.755 99.9994 207.646C98.3214 208.536 94.5014 208.771 94.5014 208.771C94.5014 208.771 98.2107 209.814 96.6768 210.843C95.1429 211.872 91.3038 213.762 91.3038 213.762L90.6328 207.022Z" fill="#C0BCE0" stroke="#263238" stroke-miterlimit="10" stroke-linecap="round" stroke-linejoin="round"/>
<path d="M96.049 213.192C96.049 213.192 102.002 206.73 103.045 207.256C104.088 207.782 103.62 209.624 103.62 209.624C103.62 209.624 108.779 206.032 109.068 207.216C109.355 208.399 107.63 209.531 107.63 209.531C107.63 209.531 113.01 208.935 114.295 210.046C115.582 211.157 112.186 211.405 112.186 211.405C112.186 211.405 117.682 212.408 118.399 213.962C119.116 215.516 113.035 214.757 113.035 214.757C113.035 214.757 126.104 220.427 123.365 221.431C120.627 222.435 114.341 218.879 114.341 218.879C114.341 218.879 118.518 223.795 115.833 222.787C114.067 222.123 111.062 219.986 109.214 218.602C108.251 217.882 107.602 217.365 107.602 217.365C107.602 217.365 111.555 224.707 108.627 223.114C107.061 222.263 105.261 220.568 103.926 219.174C102.762 217.961 101.951 216.976 101.951 216.976C101.951 216.976 104.411 220.411 102.57 219.943C100.728 219.476 97.7413 217.084 97.7413 217.084C97.7413 217.084 99.7878 220.348 97.9609 220.08C96.134 219.813 92.02 218.633 92.02 218.633L96.049 213.192Z" fill="#C0BCE0" stroke="#263238" stroke-miterlimit="10" stroke-linecap="round" stroke-linejoin="round"/>
<path d="M91.0891 216.967C91.0891 216.967 85.6808 210.757 84.879 212.161C84.0772 213.563 84.9811 214.564 84.9811 214.564C84.9811 214.564 79.4708 213.763 80.0711 214.965L82.6856 217.294C82.6856 217.294 78.8694 217.368 78.669 218.971C78.4685 220.574 81.6738 219.372 81.6738 219.372C81.6738 219.372 74.6629 224.981 75.8646 226.383C77.0664 227.785 79.6703 224.58 79.6703 224.58C79.6703 224.58 76.465 231.39 77.8672 232.192C79.2694 232.993 82.2742 225.982 82.2742 225.982C82.2742 225.982 80.872 236.397 82.4746 235.396C84.0772 234.395 85.0785 225.38 85.0785 225.38C85.0785 225.38 86.0798 227.784 86.8816 226.181C87.6824 224.579 87.6824 221.373 87.6824 221.373C87.6824 221.373 89.7632 226.188 89.8243 223.68C89.8587 222.283 89.5628 221.043 89.2936 220.218C89.0798 219.563 88.8841 219.17 88.8841 219.17C88.8841 219.17 91.6885 225.38 91.8889 223.176C92.0903 220.973 91.0891 216.967 91.0891 216.967Z" fill="#C0BCE0" stroke="#263238" stroke-miterlimit="10" stroke-linecap="round" stroke-linejoin="round"/>
<path d="M89.5519 197.209C89.5519 197.209 80.8181 196.383 80.9622 198.542C81.1063 200.702 82.8569 201.15 82.8569 201.15C82.8569 201.15 76.1095 204.34 77.6711 205.236L82.3167 205.9C82.3167 205.9 78.1101 208.811 79.0742 210.748C80.0382 212.686 82.7262 208.969 82.7262 208.969C82.7262 208.969 79.0532 220.427 81.4347 221.103C83.8162 221.778 84.3488 216.269 84.3488 216.269C84.3488 216.269 85.8169 226.25 87.976 226.106C90.1351 225.961 88.2957 215.906 88.2957 215.906C88.2957 215.906 94.4485 228.577 95.4956 226.271C96.5427 223.965 90.9817 213.157 90.9817 213.157C90.9817 213.157 93.8815 215.099 93.5885 212.716C93.2954 210.332 90.9206 206.754 90.9206 206.754C90.9206 206.754 96.8118 210.588 95.0221 207.743C94.0247 206.157 92.7752 204.991 91.8637 204.269C91.1392 203.696 90.6295 203.403 90.6295 203.403C90.6295 203.403 98.3629 208.259 96.9531 205.649C95.5462 203.042 89.5519 197.209 89.5519 197.209Z" fill="#C0BCE0" stroke="#263238" stroke-miterlimit="10" stroke-linecap="round" stroke-linejoin="round"/>
<path d="M102.142 281.067H92.0821H82.8835H72.823C71.0132 284.491 68.7969 293.113 68.7969 295.762C68.7969 300.231 73.9713 306.392 80.5832 308.999H82.8826H92.0812H94.3806C100.992 306.392 106.167 300.231 106.167 295.762C106.168 293.113 103.951 284.491 102.142 281.067Z" fill="white" stroke="#263238" stroke-miterlimit="10" stroke-linecap="round" stroke-linejoin="round"/>
<path d="M68.812 295.989C68.98 300.438 74.0809 306.435 80.5821 308.998H94.3805C100.883 306.434 105.983 300.437 106.151 295.989H68.812Z" fill="#263238" stroke="#263238" stroke-miterlimit="10" stroke-linecap="round" stroke-linejoin="round"/>
<path d="M102.142 281.067C102.142 281.067 106.456 275.955 107.138 278.231C107.821 280.508 103.496 283.923 103.496 283.923L102.142 281.067Z" fill="white" stroke="#263238" stroke-miterlimit="10" stroke-linecap="round" stroke-linejoin="round"/>
<path d="M72.823 281.067C72.823 281.067 68.5086 275.955 67.8261 278.231C67.1427 280.508 71.4686 283.923 71.4686 283.923L72.823 281.067Z" fill="white" stroke="#263238" stroke-miterlimit="10" stroke-linecap="round" stroke-linejoin="round"/>
<path d="M401.106 252.244C401.106 252.244 407.849 250.246 410.946 249.02C414.044 247.793 426.688 240.717 430.806 239.014C434.923 237.31 440.082 235.72 442.43 236.027C444.779 236.334 446.761 237.217 447.449 236.543C448.138 235.869 449.906 230.246 450.174 229.349C450.44 228.452 450.169 227.395 449.442 226.887C448.714 226.378 447.953 226.639 446.242 226.814C444.531 226.989 434.608 229.505 429.416 231.866C424.224 234.228 413.298 240.447 409.842 241.567C406.386 242.687 402.123 243.567 400.707 243.732C399.292 243.897 398.853 244.059 398.853 244.059L401.106 252.244Z" fill="white" stroke="#263238" stroke-miterlimit="10" stroke-linecap="round" stroke-linejoin="round"/>
<path d="M398.742 242.465C398.742 242.465 400.471 245.517 401.203 247.98C401.935 250.442 402.527 254.034 405.581 256.894C408.635 259.753 410.654 260.842 410.654 260.842C410.654 260.842 407.823 264.783 404.34 265.992C400.857 267.201 399.943 267.321 399.943 267.321C399.943 267.321 398.503 261.329 396.125 256.523C393.748 251.717 391.822 245.386 391.822 245.386C391.822 245.386 395.131 242.465 398.742 242.465Z" fill="#263238" stroke="#263238" stroke-miterlimit="10" stroke-linecap="round" stroke-linejoin="round"/>
<path d="M444.853 230.5C445.349 230.647 445.631 231.168 445.483 231.664C445.335 232.159 444.815 232.441 444.32 232.294C443.824 232.147 443.543 231.626 443.69 231.13C443.837 230.636 444.358 230.353 444.853 230.5Z" fill="#263238" stroke="#263238" stroke-miterlimit="10" stroke-linecap="round" stroke-linejoin="round"/>
<path d="M410.654 260.842C410.654 260.842 409.589 260.261 407.853 258.868C405.787 260.727 402.755 263.188 399.344 265.109C399.733 266.449 399.943 267.321 399.943 267.321C399.943 267.321 400.857 267.202 404.34 265.992C407.823 264.782 410.654 260.842 410.654 260.842Z" fill="white" stroke="#263238" stroke-miterlimit="10" stroke-linecap="round" stroke-linejoin="round"/>
<path d="M415.269 265.553C415.269 265.553 404.629 265.996 402.413 265.996C400.196 265.996 388.226 265.996 388.226 265.996C388.226 265.996 387.783 274.863 387.783 279.739C387.783 284.616 387.339 294.369 387.339 294.369L386.896 308.999H423.249L421.92 278.852V265.996L415.269 265.553Z" fill="white" stroke="#263238" stroke-miterlimit="10" stroke-linecap="round" stroke-linejoin="round"/>
<path d="M400.677 266.548L399.715 308.534" stroke="#263238" stroke-miterlimit="10" stroke-linecap="round" stroke-linejoin="round"/>
<path d="M396.441 266.548V291.97" stroke="#263238" stroke-miterlimit="10" stroke-linecap="round" stroke-linejoin="round"/>
<path d="M392.204 266.548V271.171" stroke="#263238" stroke-miterlimit="10" stroke-linecap="round" stroke-linejoin="round"/>
<path d="M392.012 274.636V279.836" stroke="#263238" stroke-miterlimit="10" stroke-linecap="round" stroke-linejoin="round"/>
<path d="M393.552 308.15V287.927" stroke="#263238" stroke-miterlimit="10" stroke-linecap="round" stroke-linejoin="round"/>
<path d="M415.268 265.553L415.508 271.555" stroke="#263238" stroke-miterlimit="10" stroke-linecap="round" stroke-linejoin="round"/>
<path d="M408.96 308.92L408.768 303.527" stroke="#263238" stroke-miterlimit="10" stroke-linecap="round" stroke-linejoin="round"/>
<path d="M374.565 284.787C374.565 284.787 348.519 284.787 347.051 284.787C345.583 284.787 322.106 284.787 321.005 285.521C319.905 286.255 316.237 289.557 316.237 291.758C316.237 293.959 315.87 300.562 315.87 300.562L320.272 306.799L328.343 309L373.098 308.634L374.565 284.787Z" fill="white" stroke="#263238" stroke-miterlimit="10" stroke-linecap="round" stroke-linejoin="round"/>
<path d="M368.696 286.988C368.696 286.988 362.827 291.024 362.827 293.958C362.827 296.893 364.661 304.964 366.862 307.165C369.063 309.366 380.802 308.265 383.003 307.165C385.204 306.064 386.671 296.159 385.571 291.39C384.47 286.622 376.4 281.485 368.696 286.988Z" fill="white" stroke="#263238" stroke-miterlimit="10" stroke-linecap="round" stroke-linejoin="round"/>
<path d="M370.182 289.48C370.182 289.48 365.846 292.461 365.846 294.629C365.846 296.798 367.201 302.76 368.827 304.385C370.453 306.011 379.125 305.199 380.751 304.385C382.378 303.572 383.461 296.255 382.649 292.732C381.836 289.209 375.874 285.415 370.182 289.48Z" fill="white" stroke="#263238" stroke-miterlimit="10" stroke-linecap="round" stroke-linejoin="round"/>
<path d="M371.76 292.122C371.76 292.122 369.05 293.985 369.05 295.339C369.05 296.694 369.896 300.419 370.912 301.436C371.929 302.451 377.347 301.944 378.363 301.436C379.379 300.928 380.056 296.356 379.548 294.154C379.041 291.953 375.315 289.582 371.76 292.122Z" fill="white" stroke="#263238" stroke-miterlimit="10" stroke-linecap="round" stroke-linejoin="round"/>
<path d="M354.123 301.899C358.405 301.831 360.512 301.831 360.512 301.831" stroke="#263238" stroke-miterlimit="10" stroke-linecap="round" stroke-linejoin="round"/>
<path d="M315.87 300.562C315.87 300.562 328.597 298.155 334.278 299.993C339.959 301.831 340.962 302.165 348.815 301.998" stroke="#263238" stroke-miterlimit="10" stroke-linecap="round" stroke-linejoin="round"/>
<path d="M362.183 292.641H352.826" stroke="#263238" stroke-miterlimit="10" stroke-linecap="round" stroke-linejoin="round"/>
<path d="M349.964 284.787C349.964 284.787 323.919 284.787 322.45 284.787C320.983 284.787 297.505 284.787 296.405 285.521C295.304 286.255 291.636 289.557 291.636 291.758C291.636 293.959 291.27 300.562 291.27 300.562L295.672 306.799L303.742 309L348.497 308.634L349.964 284.787Z" fill="white" stroke="#263238" stroke-miterlimit="10" stroke-linecap="round" stroke-linejoin="round"/>
<path d="M344.095 286.988C344.095 286.988 338.226 291.024 338.226 293.958C338.226 296.893 340.061 304.964 342.262 307.165C344.463 309.366 356.201 308.265 358.402 307.165C360.604 306.064 362.071 296.159 360.97 291.39C359.87 286.622 351.799 281.485 344.095 286.988Z" fill="white" stroke="#263238" stroke-miterlimit="10" stroke-linecap="round" stroke-linejoin="round"/>
<path d="M345.581 289.479C345.581 289.479 341.245 292.46 341.245 294.629C341.245 296.798 342.601 302.759 344.226 304.385C345.852 306.01 354.524 305.198 356.151 304.385C357.776 303.572 358.861 296.254 358.047 292.731C357.235 289.208 351.273 285.414 345.581 289.479Z" fill="white" stroke="#263238" stroke-miterlimit="10" stroke-linecap="round" stroke-linejoin="round"/>
<path d="M347.158 292.122C347.158 292.122 344.448 293.985 344.448 295.339C344.448 296.694 345.295 300.419 346.311 301.436C347.327 302.451 352.747 301.944 353.762 301.436C354.778 300.928 355.456 296.356 354.948 294.154C354.44 291.953 350.715 289.582 347.158 292.122Z" fill="white" stroke="#263238" stroke-miterlimit="10" stroke-linecap="round" stroke-linejoin="round"/>
<path d="M329.521 301.899C333.804 301.831 335.911 301.831 335.911 301.831" stroke="#263238" stroke-miterlimit="10" stroke-linecap="round" stroke-linejoin="round"/>
<path d="M291.27 300.562C291.27 300.562 303.995 298.155 309.677 299.993C315.358 301.831 316.362 302.165 324.214 301.998" stroke="#263238" stroke-miterlimit="10" stroke-linecap="round" stroke-linejoin="round"/>
<path d="M337.582 292.641H328.224" stroke="#263238" stroke-miterlimit="10" stroke-linecap="round" stroke-linejoin="round"/>
<path d="M364.019 261.246C364.019 261.246 337.976 260.821 336.509 260.797C335.042 260.773 311.567 260.389 310.455 261.104C309.343 261.82 305.62 265.061 305.585 267.262C305.549 269.463 305.074 276.059 305.074 276.059L309.373 282.366L317.406 284.699L362.162 285.063L364.019 261.246Z" fill="white" stroke="#263238" stroke-miterlimit="10" stroke-linecap="round" stroke-linejoin="round"/>
<path d="M358.114 263.351C358.114 263.351 352.179 267.289 352.131 270.224C352.084 273.159 353.786 281.259 355.95 283.495C358.115 285.731 369.871 284.824 372.089 283.758C374.307 282.694 375.937 272.814 374.915 268.028C373.892 263.242 365.907 257.975 358.114 263.351Z" fill="white" stroke="#263238" stroke-miterlimit="10" stroke-linecap="round" stroke-linejoin="round"/>
<path d="M359.559 265.866C359.559 265.866 355.175 268.775 355.14 270.944C355.105 273.111 356.362 279.095 357.961 280.748C359.56 282.4 368.245 281.729 369.884 280.942C371.523 280.156 372.727 272.858 371.972 269.321C371.216 265.786 365.317 261.894 359.559 265.866Z" fill="white" stroke="#263238" stroke-miterlimit="10" stroke-linecap="round" stroke-linejoin="round"/>
<path d="M361.094 268.534C361.094 268.534 358.354 270.353 358.332 271.707C358.311 273.062 359.096 276.801 360.095 277.833C361.095 278.866 366.521 278.446 367.545 277.955C368.57 277.464 369.322 272.903 368.849 270.695C368.377 268.484 364.691 266.053 361.094 268.534Z" fill="white" stroke="#263238" stroke-miterlimit="10" stroke-linecap="round" stroke-linejoin="round"/>
<path d="M343.298 278.022C347.581 278.024 349.689 278.058 349.689 278.058" stroke="#263238" stroke-miterlimit="10" stroke-linecap="round" stroke-linejoin="round"/>
<path d="M305.073 276.059C305.073 276.059 317.837 273.861 323.488 275.792C329.138 277.723 330.135 278.073 337.99 278.035" stroke="#263238" stroke-miterlimit="10" stroke-linecap="round" stroke-linejoin="round"/>
<path d="M351.51 268.897L342.153 268.744" stroke="#263238" stroke-miterlimit="10" stroke-linecap="round" stroke-linejoin="round"/>
<path d="M40.4063 280.634C41.5379 280.938 44.126 280.488 44.128 280.488C44.1548 280.483 43.3143 278.869 43.2498 278.773C42.5006 277.664 40.4029 275.964 38.967 276.383C37.9322 276.685 37.5037 277.833 37.8917 278.793C38.2872 279.775 39.4429 280.374 40.4063 280.634Z" fill="#17213A"/>
<path d="M58.015 308.677H58.9517C58.9482 308.667 58.9448 308.658 58.9414 308.647C58.699 307.968 58.427 307.247 58.14 306.509C58.3028 306.414 59.2236 305.868 60.0201 305.251C60.9004 305.958 62.9851 306.627 63.255 306.712C63.0909 307.393 62.9247 308.054 62.7578 308.676H63.6684C63.8201 308.045 63.9712 307.382 64.1195 306.696C64.4065 306.713 66.7529 306.832 67.7781 306.433C68.7078 306.069 69.7914 305.348 70.0791 304.33C70.3606 303.333 69.8106 302.239 68.749 302.051C67.2761 301.791 65.3747 303.709 64.7505 304.892C64.7135 304.962 64.3983 305.764 64.2081 306.273C64.2747 305.957 64.3427 305.65 64.4072 305.324C64.5397 304.678 64.6524 304.031 64.776 303.335C64.824 302.996 64.8728 302.655 64.9215 302.309C64.9771 301.968 64.9929 301.601 65.0307 301.243C65.1014 300.412 65.1317 299.566 65.144 298.714C65.7078 298.828 67.7163 299.206 68.6948 298.987C69.6685 298.77 70.8488 298.221 71.2869 297.258C71.7161 296.316 71.3377 295.15 70.3167 294.803C68.9001 294.322 66.7309 295.93 65.9344 297.005C65.8842 297.072 65.4001 297.908 65.1426 298.371C65.1461 297.859 65.1516 297.348 65.1385 296.829C65.1001 295.332 65.0142 293.817 64.936 292.307C64.9112 291.844 64.8927 291.383 64.8728 290.92C65.0733 290.964 67.4505 291.464 68.5464 291.219C69.5201 291.001 70.7005 290.453 71.1386 289.49C71.5678 288.547 71.1894 287.382 70.1684 287.036C68.7518 286.554 66.5826 288.162 65.786 289.237C65.7263 289.318 65.03 290.521 64.868 290.836C64.8233 289.818 64.7883 288.804 64.7938 287.803C64.8 286.421 64.8824 285.067 65.0589 283.76C65.1516 283.78 67.6311 284.313 68.7538 284.063C69.7275 283.846 70.9079 283.297 71.346 282.334C71.7752 281.391 71.3968 280.227 70.3757 279.879C68.9584 279.398 66.79 281.006 65.9934 282.08C65.9309 282.165 65.1832 283.46 65.0644 283.704C65.0753 283.626 65.0774 283.544 65.0891 283.467C65.2951 282.075 65.6693 280.751 66.0806 279.53C66.3182 278.819 66.5846 278.154 66.8586 277.512C67.3104 277.659 69.3814 278.307 70.4162 278.193C71.4085 278.084 72.6417 277.669 73.1821 276.76C73.7122 275.87 73.4637 274.67 72.4872 274.214C71.1317 273.579 68.7991 274.939 67.89 275.919C67.8406 275.972 67.3983 276.571 67.0818 277.01C67.2095 276.723 67.3365 276.423 67.4643 276.15C67.9429 275.123 68.4448 274.212 68.8953 273.409C69.1555 272.955 69.3993 272.549 69.6314 272.172C70.1491 272.084 72.2332 271.705 73.0839 271.137C73.9134 270.582 74.8178 269.645 74.8803 268.588C74.9414 267.554 74.1689 266.604 73.0922 266.649C71.5973 266.712 70.1526 268.995 69.7969 270.285C69.766 270.397 69.4851 272.196 69.5119 272.192C69.5119 272.192 69.5373 272.187 69.5435 272.187C69.3121 272.545 69.069 272.933 68.8122 273.361C68.3432 274.156 67.8206 275.058 67.3173 276.079C66.8119 277.098 66.2921 278.219 65.8506 279.449C65.4063 280.682 65.0019 282.001 64.7608 283.415C64.7581 283.431 64.7574 283.448 64.7547 283.464C64.697 283.028 64.4958 281.816 64.4697 281.725C64.103 280.438 62.6391 278.167 61.1435 278.117C60.0668 278.081 59.3025 279.037 59.3719 280.071C59.4433 281.127 60.3545 282.057 61.1895 282.605C62.1309 283.223 64.5425 283.595 64.7348 283.624C64.5171 284.972 64.4038 286.373 64.366 287.797C64.344 288.612 64.3468 289.433 64.3598 290.256C64.298 289.881 64.2404 289.546 64.2266 289.5C63.8593 288.213 62.396 285.943 60.9004 285.892C59.823 285.855 59.0588 286.812 59.1288 287.846C59.1995 288.902 60.1114 289.832 60.9457 290.38C61.7931 290.935 63.8428 291.294 64.3859 291.382C64.3942 291.698 64.399 292.013 64.4093 292.329C64.4553 293.843 64.5075 295.354 64.5137 296.838C64.5164 297.361 64.4992 297.875 64.4841 298.391C64.4292 298.058 64.3798 297.778 64.3674 297.736C64 296.449 62.5367 294.178 61.0419 294.128C59.9645 294.092 59.2002 295.048 59.2703 296.082C59.3417 297.138 60.2529 298.068 61.0879 298.616C61.8961 299.146 63.7851 299.494 64.4306 299.601C64.3997 300.129 64.3688 300.657 64.3152 301.167C64.2706 301.514 64.2513 301.851 64.1875 302.197C64.1312 302.541 64.0756 302.882 64.0199 303.219C63.8895 303.864 63.759 304.532 63.6162 305.158C63.52 305.595 63.4205 306.009 63.3209 306.426C63.3243 305.906 63.3106 304.886 63.2996 304.801C63.1877 303.919 62.6617 302.536 61.8906 301.625C61.8748 301.495 61.848 301.366 61.8082 301.241C61.4944 300.254 60.4328 299.645 59.444 300.075C58.0713 300.672 57.5426 303.324 57.6731 304.655C57.6806 304.733 57.8592 305.577 57.9807 306.107C57.8619 305.807 57.75 305.513 57.6243 305.205C57.3792 304.594 57.1169 303.992 56.8367 303.342C56.6905 303.033 56.5428 302.722 56.3938 302.406C56.2524 302.091 56.0635 301.776 55.898 301.456C55.4991 300.724 55.0589 300.002 54.5996 299.284C55.1331 299.068 57.0166 298.273 57.7115 297.55C58.4044 296.83 59.0862 295.72 58.9221 294.675C58.7608 293.652 57.8042 292.889 56.7619 293.165C55.3151 293.546 54.3908 296.086 54.3187 297.423C54.3146 297.506 54.3702 298.47 54.4107 299C54.1313 298.571 53.8545 298.141 53.5579 297.716C52.7016 296.488 51.7966 295.273 50.8991 294.055C50.6238 293.683 50.3546 293.308 50.0827 292.935C50.2736 292.86 52.532 291.963 53.3114 291.153C54.0035 290.433 54.6861 289.323 54.522 288.278C54.3606 287.255 53.4041 286.492 52.3617 286.768C50.9149 287.149 49.9907 289.689 49.9186 291.026C49.9131 291.126 49.9955 292.514 50.0339 292.867C49.4365 292.043 48.8487 291.217 48.3021 290.378C47.5468 289.222 46.8698 288.047 46.2971 286.86C46.3863 286.825 48.7478 285.899 49.5457 285.07C50.2385 284.351 50.9211 283.241 50.7563 282.196C50.5956 281.172 49.6384 280.41 48.596 280.685C47.1492 281.067 46.2257 283.606 46.1529 284.943C46.1474 285.048 46.2366 286.541 46.2717 286.811C46.238 286.741 46.1948 286.671 46.1618 286.6C45.5671 285.324 45.151 284.014 44.8207 282.767C44.6278 282.044 44.4836 281.341 44.3586 280.655C44.8159 280.527 46.9007 279.923 47.7013 279.257C48.469 278.617 49.269 277.589 49.2195 276.532C49.1715 275.497 48.3035 274.634 47.2378 274.792C45.758 275.012 44.5612 277.435 44.3428 278.756C44.3311 278.828 44.2906 279.571 44.2693 280.113C44.2178 279.802 44.1588 279.482 44.1148 279.184C43.9487 278.062 43.8656 277.025 43.799 276.106C43.7653 275.583 43.7454 275.11 43.7317 274.667C44.1155 274.307 45.6447 272.84 46.0409 271.895C46.4282 270.973 46.6651 269.692 46.1357 268.776C45.6173 267.88 44.4499 267.515 43.5765 268.147C42.3645 269.026 42.4167 271.729 42.8294 273.002C42.8651 273.112 43.6218 274.767 43.6417 274.75C43.6417 274.75 43.6603 274.732 43.6651 274.728C43.6699 275.155 43.6802 275.612 43.7015 276.112C43.7475 277.034 43.8086 278.075 43.9514 279.205C44.0908 280.334 44.2742 281.557 44.5832 282.827C44.8915 284.1 45.2801 285.425 45.8576 286.737C45.8638 286.752 45.8727 286.766 45.8796 286.781C45.5919 286.449 44.7562 285.55 44.6841 285.489C43.6699 284.618 41.1986 283.533 39.9234 284.318C39.0054 284.883 38.8941 286.103 39.5217 286.926C40.1624 287.768 41.4348 288.04 42.4325 288.035C43.558 288.03 45.7745 287.007 45.9503 286.925C46.5113 288.17 47.1877 289.401 47.941 290.61C48.3708 291.301 48.8254 291.985 49.2889 292.664C49.0307 292.385 48.7979 292.138 48.7622 292.107C47.7473 291.236 45.276 290.152 44.0015 290.936C43.0828 291.501 42.9722 292.721 43.5998 293.545C44.2405 294.386 45.5129 294.658 46.5106 294.653C47.5235 294.649 49.4303 293.815 49.9323 293.588C50.1129 293.846 50.2907 294.106 50.4727 294.364C51.3448 295.602 52.2203 296.834 53.0422 298.068C53.332 298.503 53.6011 298.942 53.8731 299.38C53.6437 299.133 53.4487 298.927 53.4151 298.898C52.4002 298.028 49.9295 296.943 48.6544 297.727C47.7356 298.293 47.6251 299.513 48.2527 300.336C48.8934 301.178 50.1658 301.449 51.1635 301.445C52.1296 301.44 53.8971 300.686 54.4945 300.419C54.7589 300.876 55.0246 301.334 55.2601 301.789C55.4139 302.103 55.5842 302.395 55.7209 302.719C55.863 303.037 56.0038 303.352 56.1439 303.664C56.3904 304.274 56.6493 304.903 56.8745 305.504C57.0345 305.921 57.1794 306.323 57.327 306.726C57.0434 306.29 56.4707 305.447 56.4144 305.382C55.5437 304.367 53.2647 302.92 51.8859 303.502C50.8929 303.921 50.599 305.11 51.0948 306.02C51.6009 306.949 52.817 307.411 53.8044 307.557C54.8914 307.719 57.1478 307.082 57.4293 307C57.6367 307.576 57.8324 308.135 58.015 308.677Z" fill="#17213A"/>
<path d="M66.758 277.248C66.7834 277.259 66.9709 275.447 66.9695 275.332C66.9551 273.994 66.1414 271.416 64.7124 270.972C63.6831 270.652 62.6943 271.373 62.489 272.388C62.2795 273.425 62.9133 274.563 63.5739 275.312C64.3505 276.192 66.7566 277.246 66.758 277.248Z" fill="#17213A"/>
<path d="M16.3394 308.677H496.199" stroke="#17213A" stroke-miterlimit="10" stroke-linecap="round" stroke-linejoin="round"/>
<path d="M458.088 308.14V224.991H463.972V308.14H458.088Z" fill="#17213A" stroke="#17213A"/>
<path d="M464.472 224.492C464.472 224.671 462.931 224.816 461.03 224.816C459.129 224.816 457.588 224.671 457.588 224.492C457.588 224.313 459.129 224.167 461.03 224.167C462.931 224.167 464.472 224.312 464.472 224.492Z" fill="#DBD9EB"/>
<path opacity="0.2" d="M464.472 277.351L457.588 276.852V271.662H464.472V277.351Z" fill="#383192"/>
<path d="M500.698 230.905L425.456 224.296L421.369 271.04L496.611 277.649L500.698 230.905Z" fill="#383192"/>
<path d="M497.329 230.609L422.087 224L418 270.744L493.242 277.353L497.329 230.609Z" fill="#CEC8FF"/>
<path opacity="0.4" d="M497.686 237.881L483.572 237.233L497.589 238.997L497.686 237.881Z" fill="#383192"/>
<path opacity="0.4" d="M497.087 239.472L488.379 239.594L496.941 241.146L497.087 239.472Z" fill="#383192"/>
<path opacity="0.4" d="M419.028 258.877L426.64 258.954L419.126 257.761L419.028 258.877Z" fill="#383192"/>
<path opacity="0.4" d="M419.799 250.066L426.351 249.754L419.945 248.392L419.799 250.066Z" fill="#383192"/>
<path opacity="0.4" d="M494.285 272.386L487.733 272.698L494.139 274.06L494.285 272.386Z" fill="#383192"/>
<path d="M489.878 250.128L489.707 252.24L492.448 252.463L492.343 253.748L489.602 253.526L489.427 255.684L492.95 255.97L492.842 257.3L487.609 256.876L488.276 248.658L493.509 249.083L493.401 250.414L489.878 250.128Z" fill="#383192"/>
<path d="M486.359 250.088C486.299 250.171 486.239 250.231 486.179 250.268C486.124 250.301 486.052 250.314 485.965 250.307C485.882 250.301 485.794 250.265 485.7 250.2C485.611 250.132 485.505 250.059 485.382 249.981C485.259 249.902 485.117 249.828 484.955 249.758C484.794 249.684 484.602 249.638 484.379 249.62C483.987 249.588 483.685 249.653 483.474 249.814C483.264 249.972 483.147 250.193 483.124 250.476C483.109 250.657 483.15 250.812 483.246 250.942C483.346 251.068 483.479 251.181 483.646 251.282C483.816 251.383 484.01 251.477 484.227 251.563C484.445 251.649 484.667 251.743 484.894 251.845C485.122 251.943 485.343 252.056 485.557 252.184C485.77 252.311 485.957 252.465 486.118 252.646C486.282 252.826 486.407 253.041 486.493 253.292C486.583 253.538 486.614 253.834 486.586 254.177C486.556 254.551 486.461 254.897 486.302 255.214C486.148 255.529 485.938 255.799 485.672 256.024C485.407 256.246 485.088 256.412 484.714 256.522C484.344 256.633 483.931 256.669 483.474 256.632C483.213 256.611 482.955 256.564 482.699 256.49C482.446 256.416 482.203 256.322 481.969 256.208C481.739 256.094 481.523 255.963 481.323 255.814C481.122 255.664 480.949 255.502 480.804 255.327L481.367 254.563C481.414 254.506 481.472 254.461 481.543 254.429C481.615 254.393 481.688 254.378 481.764 254.384C481.866 254.393 481.97 254.439 482.077 254.524C482.184 254.609 482.308 254.702 482.448 254.805C482.588 254.907 482.751 255.004 482.937 255.095C483.128 255.187 483.359 255.243 483.63 255.266C484.027 255.298 484.34 255.232 484.57 255.068C484.804 254.905 484.935 254.644 484.964 254.285C484.981 254.077 484.94 253.905 484.841 253.768C484.746 253.631 484.615 253.512 484.448 253.411C484.281 253.31 484.089 253.22 483.871 253.142C483.654 253.059 483.431 252.971 483.203 252.876C482.975 252.782 482.754 252.673 482.54 252.549C482.326 252.425 482.139 252.269 481.979 252.082C481.82 251.894 481.695 251.667 481.607 251.402C481.522 251.136 481.495 250.813 481.526 250.432C481.551 250.126 481.635 249.834 481.779 249.557C481.923 249.28 482.121 249.04 482.374 248.836C482.626 248.632 482.927 248.476 483.278 248.368C483.633 248.26 484.031 248.223 484.473 248.259C484.967 248.299 485.418 248.414 485.824 248.603C486.235 248.788 486.575 249.029 486.843 249.324L486.359 250.088Z" fill="#383192"/>
<path d="M476.404 254.6C476.68 254.622 476.931 254.597 477.157 254.524C477.384 254.448 477.58 254.331 477.745 254.173C477.909 254.015 478.041 253.819 478.14 253.584C478.239 253.349 478.301 253.08 478.325 252.778L478.722 247.885L480.421 248.023L480.024 252.916C479.984 253.414 479.865 253.866 479.669 254.272C479.477 254.675 479.219 255.015 478.896 255.293C478.574 255.57 478.192 255.777 477.752 255.912C477.311 256.048 476.823 256.093 476.287 256.05C475.751 256.006 475.274 255.882 474.858 255.677C474.445 255.473 474.102 255.207 473.828 254.881C473.554 254.555 473.353 254.178 473.224 253.749C473.1 253.317 473.058 252.852 473.098 252.354L473.495 247.46L475.194 247.598L474.797 252.491C474.772 252.794 474.79 253.069 474.85 253.317C474.909 253.565 475.008 253.78 475.145 253.962C475.282 254.144 475.457 254.291 475.668 254.403C475.88 254.512 476.125 254.577 476.404 254.6Z" fill="#383192"/>
<path d="M472.022 251.473C471.973 252.073 471.826 252.622 471.58 253.119C471.339 253.616 471.017 254.036 470.617 254.38C470.221 254.724 469.755 254.983 469.22 255.156C468.686 255.326 468.103 255.385 467.473 255.334C466.842 255.282 466.277 255.13 465.777 254.877C465.277 254.619 464.857 254.289 464.518 253.885C464.178 253.481 463.927 253.014 463.765 252.484C463.606 251.955 463.552 251.39 463.6 250.789C463.649 250.189 463.794 249.642 464.036 249.149C464.281 248.652 464.604 248.231 465.004 247.888C465.405 247.544 465.872 247.287 466.407 247.118C466.941 246.945 467.524 246.884 468.154 246.935C468.785 246.986 469.35 247.14 469.85 247.397C470.35 247.651 470.768 247.981 471.103 248.388C471.443 248.792 471.692 249.259 471.851 249.789C472.013 250.315 472.07 250.876 472.022 251.473ZM470.283 251.332C470.318 250.901 470.293 250.512 470.207 250.163C470.122 249.81 469.981 249.506 469.785 249.25C469.593 248.992 469.349 248.788 469.054 248.638C468.762 248.485 468.424 248.393 468.039 248.362C467.654 248.331 467.303 248.367 466.987 248.47C466.671 248.57 466.395 248.732 466.16 248.956C465.93 249.177 465.744 249.455 465.603 249.789C465.462 250.12 465.374 250.5 465.339 250.93C465.304 251.365 465.329 251.758 465.414 252.111C465.5 252.46 465.639 252.762 465.831 253.017C466.027 253.272 466.272 253.476 466.568 253.63C466.864 253.779 467.204 253.869 467.589 253.901C467.974 253.932 468.323 253.898 468.635 253.797C468.951 253.694 469.225 253.532 469.455 253.311C469.69 253.091 469.878 252.815 470.019 252.485C470.16 252.15 470.248 251.766 470.283 251.332Z" fill="#383192"/>
<path d="M462.695 246.584L462.028 254.801L460.318 254.662L460.605 251.123L456.986 250.829L456.699 254.369L454.989 254.23L455.656 246.012L457.366 246.151L457.083 249.64L460.702 249.933L460.985 246.445L462.695 246.584Z" fill="#383192"/>
<path d="M454.523 247.299L452.122 247.104L451.566 253.951L449.862 253.812L450.417 246.965L448.016 246.77L448.127 245.4L454.635 245.928L454.523 247.299Z" fill="#383192"/>
<path d="M447.098 245.317L446.431 253.535L445.553 253.464C445.421 253.453 445.312 253.423 445.224 253.374C445.137 253.322 445.055 253.239 444.977 253.126L441.305 247.584C441.305 247.717 441.302 247.847 441.296 247.976C441.293 248.105 441.287 248.224 441.278 248.334L440.892 253.085L439.392 252.964L440.059 244.746L440.953 244.819C441.025 244.825 441.085 244.833 441.134 244.845C441.186 244.853 441.232 244.87 441.272 244.896C441.312 244.918 441.35 244.948 441.385 244.985C441.42 245.022 441.457 245.071 441.498 245.131L445.196 250.698C445.193 250.554 445.193 250.415 445.196 250.282C445.199 250.146 445.206 250.017 445.216 249.896L445.597 245.196L447.098 245.317Z" fill="#383192"/>
<path d="M435.157 245.687L434.986 247.799L437.727 248.022L437.623 249.307L434.882 249.085L434.707 251.243L438.229 251.529L438.121 252.86L432.888 252.435L433.555 244.217L438.788 244.642L438.68 245.973L435.157 245.687Z" fill="#383192"/>
<path d="M428.896 247.956C429.428 247.999 429.827 247.902 430.094 247.665C430.364 247.429 430.517 247.088 430.553 246.642C430.57 246.438 430.552 246.251 430.502 246.079C430.455 245.905 430.372 245.754 430.254 245.626C430.139 245.495 429.988 245.39 429.8 245.31C429.613 245.23 429.387 245.18 429.123 245.158L428.047 245.071L427.82 247.868L428.896 247.956ZM429.228 243.867C429.79 243.912 430.27 244.018 430.667 244.183C431.068 244.349 431.391 244.561 431.636 244.82C431.881 245.076 432.053 245.371 432.151 245.706C432.253 246.041 432.289 246.399 432.258 246.781C432.225 247.185 432.129 247.549 431.969 247.875C431.81 248.2 431.586 248.472 431.299 248.692C431.011 248.912 430.658 249.074 430.239 249.176C429.821 249.275 429.338 249.303 428.79 249.258L427.714 249.171L427.485 251.997L425.786 251.859L426.453 243.642L429.228 243.867Z" fill="#383192"/>
</g>
</svg>
