<svg width="33" height="47" viewBox="0 0 33 47" fill="none" xmlns="http://www.w3.org/2000/svg">
<path d="M13.8364 39.369C11.7612 43.5382 7.9632 47.6496 6.23181 46.7877C4.50043 45.9259 5.49107 40.4171 7.56625 36.2479C9.64143 32.0787 12.0154 30.828 13.747 31.6899C15.4784 32.5517 15.9116 35.1998 13.8364 39.369Z" fill="#F1375A"/>
<path d="M13.8127 37.4897C12.2452 40.6385 9.3768 43.7438 8.06915 43.0928C6.7615 42.4419 7.50974 38.2813 9.07695 35.1325C10.6444 31.9837 12.4373 31.0389 13.7449 31.6899C15.0528 32.3408 15.3799 34.341 13.8127 37.4897Z" fill="#F5A404"/>
<path d="M13.7896 35.8123C12.6755 38.0504 10.6366 40.2576 9.70723 39.795C8.77767 39.3323 9.30964 36.3749 10.4237 34.1368C11.5378 31.8986 12.8123 31.2273 13.7418 31.6898C14.6714 32.1523 14.9035 33.5742 13.7896 35.8123Z" fill="#EAF2DF"/>
<path opacity="0.3" d="M10.2474 35.8651C11.2809 36.3177 12.1389 36.9935 12.8213 37.8926C13.101 38.3933 13.3807 38.8942 13.6606 39.3949C13.6863 39.4521 13.7104 39.5098 13.7335 39.5677C13.7674 39.5014 13.8008 39.435 13.8338 39.3688C15.909 35.1995 15.4758 32.5515 13.7444 31.6896C12.1395 30.8908 9.98288 31.9089 8.02344 35.3815C8.79268 35.3627 9.53385 35.5236 10.2474 35.8651Z" fill="#F1375A"/>
<path d="M21.1879 29.2847C28.9693 33.1581 21.3053 43.8647 19.6432 43.0374C17.9808 42.2101 22.4319 36.916 18.3906 34.9043L21.1879 29.2847Z" fill="#FF4848"/>
<path opacity="0.3" d="M22.7592 39.6854C21.5868 39.6685 21.294 38.3818 21.2843 37.4362C21.2743 36.4361 21.4258 35.4401 21.6253 34.4625C21.787 33.6706 22.0847 32.9363 22.5395 32.2665C22.8218 31.8507 23.1861 31.5178 23.5488 31.1841C23.0084 30.4564 22.2394 29.8081 21.1879 29.2847L18.3906 34.9043C22.4319 36.9158 17.9808 42.2098 19.6432 43.0374C20.3121 43.3705 21.9533 41.835 23.1683 39.6288C23.0412 39.6668 22.9054 39.6876 22.7592 39.6854Z" fill="#FF4848"/>
<path opacity="0.3" d="M22.2313 40.9616C21.0044 41.4125 20.6368 40.1495 20.6476 39.2077C20.6649 37.684 20.669 36.0493 20.9883 34.5573C21.3126 33.0421 22.2572 31.9527 23.3475 30.9303C22.8226 30.3055 22.1155 29.7463 21.1879 29.2847L18.3906 34.9043C22.4319 36.9158 17.9808 42.2101 19.6432 43.0374C20.1739 43.3017 21.3163 42.3875 22.3725 40.8977C22.326 40.9196 22.2808 40.9433 22.2313 40.9616Z" fill="#FF4848"/>
<path d="M11.1761 24.3008C3.39476 20.4273 -0.527539 32.9967 1.13483 33.8242C2.7972 34.6518 4.33762 27.9089 8.37888 29.9204L11.1761 24.3008Z" fill="#FF4848"/>
<path opacity="0.3" d="M7.84167 23.5803C7.90811 23.728 7.95419 23.8881 7.97219 24.0604C8.059 24.883 7.57311 25.5672 7.00191 26.1013C6.0462 26.9947 4.79556 27.4662 3.89129 28.4331C3.49606 28.8557 3.24936 29.4029 2.81576 29.7887C2.4096 30.1499 1.72459 30.2793 1.35722 29.8783C0.65442 31.824 0.555822 33.5363 1.13474 33.8244C2.79711 34.6519 4.33753 27.909 8.37879 29.9205L11.1761 24.3009C9.96957 23.7006 8.85611 23.4954 7.84167 23.5803Z" fill="#FF4848"/>
<path opacity="0.3" d="M8.74416 23.585C9.40516 24.6884 9.22469 26.4302 8.64684 27.4537C8.081 28.4563 7.05156 28.648 6.04977 28.9731C5.26059 29.2294 4.3426 29.722 3.7639 30.3281C3.34531 30.7664 3.10654 31.3595 2.66694 31.7753C2.10668 32.3049 1.32822 32.4194 0.823032 31.9219C0.676857 32.9155 0.774593 33.6454 1.13446 33.8243C2.79683 34.6519 4.33725 27.9089 8.37851 29.9205L11.1758 24.3008C10.3171 23.8735 9.50655 23.6497 8.74416 23.585Z" fill="#FF4848"/>
<path d="M17.9043 35.0515L8.69934 30.4697L8.57031 34.1888L15.0147 37.3966L17.9043 35.0515Z" fill="#666666"/>
<path d="M17.1708 34.6868L9.43076 30.834L9.08203 34.444L14.501 37.1412L17.1708 34.6868Z" fill="#808080"/>
<path d="M16.3633 34.2841L10.2394 31.2358L9.64844 34.725L13.9358 36.8593L16.3633 34.2841Z" fill="#666666"/>
<path d="M15.3603 33.7851L11.2436 31.7358L10.3516 35.0752L13.2337 36.5099L15.3603 33.7851Z" fill="#808080"/>
<path d="M14.0987 33.1572L12.5047 32.3638L11.2344 35.5149L12.3504 36.0705L14.0987 33.1572Z" fill="#666666"/>
<path d="M17.1699 34.687L16.4766 35.3244L17.1519 35.6605L17.9023 35.0516L17.1699 34.687Z" fill="#666666"/>
<path d="M8.6975 30.4697L8.66406 31.4355L9.33943 31.7716L9.42988 30.8341L8.6975 30.4697Z" fill="#666666"/>
<path d="M9.4342 30.834L9.34375 31.7715L10.0888 32.1425L10.2422 31.2363L9.4342 30.834Z" fill="#808080"/>
<path d="M16.3647 34.2842L15.7344 34.9529L16.4796 35.3239L17.173 34.6865L16.3647 34.2842Z" fill="#808080"/>
<path d="M10.2394 31.2358L10.0859 32.142L11.0114 32.6026L11.2431 31.7355L10.2394 31.2358Z" fill="#666666"/>
<path d="M15.3609 33.7852L14.8086 34.4927L15.7341 34.9533L16.3644 34.2846L15.3609 33.7852Z" fill="#666666"/>
<path d="M11.2434 31.7358L11.0117 32.603L12.1749 33.182L12.5048 32.3636L11.2434 31.7358Z" fill="#808080"/>
<path d="M14.0985 33.1567L13.6445 33.9133L14.8075 34.4922L15.3599 33.7847L14.0985 33.1567Z" fill="#808080"/>
<path d="M12.5017 32.3638L12.1719 33.1821L13.6418 33.9138L14.0957 33.1572L12.5017 32.3638Z" fill="#666666"/>
<path d="M31.6862 8.39705C31.6635 8.38569 31.6423 8.37262 31.6219 8.35654C31.6017 8.34132 31.584 8.32396 31.5672 8.30532C31.5503 8.2856 31.5355 8.26524 31.5231 8.24359C31.5107 8.22194 31.4999 8.19837 31.492 8.17479C31.4841 8.151 31.4785 8.1257 31.4753 8.10106C31.4725 8.07555 31.4721 8.05026 31.4733 8.02518C31.4755 8.00032 31.4791 7.97546 31.486 7.95145C31.4922 7.92702 31.5014 7.90323 31.5128 7.88051C31.5237 7.85843 31.5372 7.83657 31.5533 7.81642C31.5683 7.79627 31.5861 7.77849 31.6045 7.76177C31.6238 7.74548 31.6442 7.73069 31.666 7.71761C31.6877 7.70518 31.7113 7.69447 31.735 7.68654C31.7588 7.67861 31.7839 7.67303 31.8088 7.66982C31.8334 7.6666 31.8587 7.66639 31.8847 7.66789C31.9095 7.67003 31.9342 7.67368 31.9584 7.68054C32.0077 7.69382 32.0533 7.71654 32.0936 7.74784C32.1138 7.76305 32.1316 7.78041 32.1483 7.79906C32.1646 7.81835 32.1794 7.83871 32.1927 7.86058C32.2051 7.88222 32.2152 7.90537 32.2231 7.92916C32.2317 7.95338 32.2366 7.97824 32.2405 8.00332C32.2432 8.02883 32.2437 8.05391 32.2424 8.0792C32.2404 8.10406 32.2366 8.12892 32.2297 8.15293C32.2233 8.17822 32.2141 8.20201 32.2029 8.22409C32.1916 8.2468 32.1783 8.26867 32.1624 8.28817C32.1474 8.3081 32.1299 8.32611 32.1112 8.34283C32.0919 8.35912 32.0718 8.3739 32.0495 8.38698C32.0272 8.39898 32.0045 8.41012 31.9798 8.41784C31.956 8.42577 31.9316 8.43177 31.9067 8.43478C31.8812 8.43756 31.8562 8.43799 31.8309 8.43671C31.806 8.43478 31.7811 8.43092 31.7571 8.42406C31.7327 8.41763 31.7089 8.40841 31.6862 8.39705Z" fill="white"/>
<path d="M21.6548 3.4059C21.6321 3.39454 21.6102 3.38126 21.5907 3.36539C21.5705 3.35018 21.5527 3.33282 21.536 3.31417C21.5197 3.29488 21.5043 3.2743 21.4919 3.25244C21.4794 3.23079 21.4687 3.20743 21.4608 3.18364C21.4529 3.15985 21.4473 3.13477 21.4441 3.10991C21.4411 3.08505 21.4409 3.05911 21.4422 3.03404C21.4441 3.00917 21.4479 2.98431 21.4548 2.9603C21.461 2.93587 21.4702 2.91208 21.4816 2.88915C21.4925 2.86707 21.506 2.84542 21.5223 2.82506C21.5373 2.80513 21.5549 2.78712 21.5735 2.7704C21.5928 2.75412 21.6132 2.73933 21.6353 2.72625C21.6569 2.71382 21.6805 2.7031 21.7041 2.69517C21.7279 2.68724 21.7529 2.68167 21.7778 2.67846C21.8027 2.67546 21.8286 2.67524 21.8537 2.67653C21.8785 2.67867 21.9034 2.68231 21.9274 2.68917C21.9767 2.70246 22.0224 2.72518 22.0627 2.75647C22.0826 2.77169 22.1006 2.78927 22.1173 2.8077C22.1336 2.82699 22.1484 2.84735 22.1608 2.869C22.1739 2.89108 22.184 2.91422 22.1925 2.93823C22.2005 2.96202 22.2054 2.98688 22.2093 3.01196C22.212 3.03747 22.2125 3.06254 22.2112 3.08783C22.2093 3.1127 22.2054 3.13756 22.1985 3.16156C22.1919 3.18664 22.1827 3.21065 22.1717 3.23272C22.1263 3.32382 22.0457 3.3939 21.9493 3.42691C21.9248 3.43463 21.9004 3.44041 21.8749 3.4432C21.85 3.4462 21.825 3.44684 21.7997 3.44534C21.7748 3.44341 21.7499 3.43955 21.7259 3.4327C21.7006 3.42605 21.6775 3.41726 21.6548 3.4059Z" fill="white"/>
<path d="M18.1368 35.1666C18.1368 35.1666 23.0693 32.6863 25.7341 27.3327C28.1297 22.5198 31.5786 13.2437 31.9054 8.82453C32.2106 4.71146 31.4665 1.47674 29.3906 0.44344C27.3148 -0.589863 24.2854 0.766226 21.1872 3.48912C17.8584 6.41413 12.5367 14.7577 10.1409 19.5708C7.47609 24.9244 8.47081 30.355 8.47081 30.355L18.1368 35.1666Z" fill="#F2F2F2"/>
<path d="M29.3869 0.442869C28.311 -0.0927511 26.9785 0.015059 25.5133 0.62098C26.9193 1.61463 27.6313 3.24764 28.0255 4.88579C28.8957 8.5031 28.1768 11.9989 26.5168 15.2673C25.0447 18.1657 23.0454 20.8365 19.9582 22.1073C18.5957 22.6682 16.809 22.9374 15.3547 22.5897C13.284 22.0949 12.0531 20.4661 11.7411 18.4233C11.6585 17.8836 11.6225 17.3409 11.62 16.7987C11.0554 17.7968 10.5517 18.7371 10.137 19.5702C7.47218 24.9238 8.4669 30.3544 8.4669 30.3544L18.1331 35.166C18.1331 35.166 23.0656 32.6857 25.7304 27.3321C28.126 22.5192 31.5749 13.2431 31.9017 8.82396C32.2069 4.71089 31.4628 1.47617 29.3869 0.442869Z" fill="#F2F2F2"/>
<path d="M25.5789 22.7636C24.3627 24.0185 23.0358 25.3298 21.4919 26.1663C18.5185 27.7773 14.7205 28.2182 12.0055 25.7583C10.5517 24.441 9.78547 22.8017 9.50041 21.032C7.64943 25.8688 8.47054 30.3551 8.47054 30.3551L18.1368 35.1666C18.1368 35.1666 23.0692 32.6864 25.734 27.3327C27.1806 24.4264 29.0103 19.8937 30.3056 15.7847C29.1458 18.3734 27.522 20.7583 25.5789 22.7636Z" fill="#F2F2F2"/>
<path d="M31.902 8.82391C29.9087 9.20093 27.7098 8.93129 25.6679 7.91492C23.6259 6.89855 22.0847 5.30627 21.1836 3.48872C24.2818 0.765825 27.3112 -0.590478 29.387 0.443039C31.463 1.47613 32.2072 4.71085 31.902 8.82391Z" fill="#FF4848"/>
<path opacity="0.3" d="M30.673 1.5752C30.8147 2.18798 30.721 2.88006 30.3129 3.58029C29.1714 5.53994 27.1384 5.64646 25.1016 5.43363C23.9736 5.31575 22.9415 4.70147 22.5928 3.56893C22.4722 3.17734 22.464 2.76732 22.547 2.37766C22.0958 2.71652 21.6406 3.08753 21.1836 3.48898C22.0847 5.30653 23.6257 6.89881 25.6679 7.91518C27.7101 8.93155 29.9087 9.20119 31.902 8.82417C32.1328 5.71526 31.7633 3.10918 30.673 1.5752Z" fill="#FF4848"/>
<path opacity="0.3" d="M31.7864 4.62695C31.7793 4.65182 31.7737 4.67711 31.7662 4.70176C31.2278 6.46936 29.745 7.20989 28.0023 7.35027C26.5802 7.46473 24.9746 7.3237 23.6914 6.62969C24.2838 7.11987 24.944 7.5541 25.6686 7.91504C27.7108 8.93141 29.9094 9.20105 31.9027 8.82403C32.0178 7.27697 31.9838 5.85487 31.7864 4.62695Z" fill="#FF4848"/>
<path d="M25.6851 7.01898C25.7798 6.82844 26.0106 6.75063 26.2018 6.8458C26.3924 6.94053 26.4699 7.17223 26.3752 7.36256C26.2805 7.5531 26.0488 7.63069 25.8585 7.53574C25.6677 7.441 25.5901 7.20952 25.6851 7.01898Z" fill="white"/>
<path d="M24.4163 6.67819C24.2427 6.55474 24.202 6.3149 24.3248 6.14086C24.4483 5.96725 24.6885 5.92567 24.8621 6.04912C25.0362 6.17194 25.0773 6.41285 24.9539 6.58646C24.8431 6.74314 24.6354 6.79222 24.4682 6.70906C24.45 6.70027 24.4328 6.68998 24.4163 6.67819Z" fill="white"/>
<path d="M27.1549 7.68176C27.219 7.47857 27.4359 7.36605 27.6389 7.43099C27.8421 7.49508 27.9538 7.71177 27.8897 7.91496C27.8249 8.11772 27.6082 8.2296 27.4057 8.16573C27.3864 8.15951 27.3678 8.15201 27.3498 8.14301C27.1828 8.05985 27.0966 7.86459 27.1549 7.68176Z" fill="white"/>
<path d="M23.0957 5.58968C22.9439 5.44115 22.942 5.19638 23.0905 5.04463C23.2395 4.89224 23.4836 4.88988 23.636 5.03885C23.7873 5.18824 23.7899 5.43236 23.6411 5.5839C23.5207 5.7065 23.3394 5.73157 23.1945 5.65956C23.1585 5.64177 23.1252 5.6184 23.0957 5.58968Z" fill="white"/>
<path d="M28.7503 8.12692C28.782 7.91623 28.9781 7.77113 29.189 7.80264C29.399 7.83393 29.5441 8.03026 29.5131 8.24138C29.4818 8.45143 29.2854 8.59653 29.0747 8.56481C29.0338 8.55902 28.995 8.54659 28.9599 8.52923C28.8141 8.45678 28.7254 8.29625 28.7503 8.12692Z" fill="white"/>
<path d="M21.957 4.13373C21.8317 3.96183 21.8687 3.72114 22.0409 3.59511C22.2127 3.46972 22.4541 3.50723 22.5795 3.67891C22.7057 3.85102 22.6676 4.09215 22.4957 4.21753C22.3752 4.30562 22.2215 4.31355 22.0966 4.2514C22.0426 4.22461 21.995 4.18538 21.957 4.13373Z" fill="white"/>
<path d="M30.5313 8.21732C30.5279 8.0047 30.6978 7.82916 30.9107 7.82573C31.1242 7.82251 31.2988 7.99227 31.3023 8.20488C31.3057 8.4175 31.1366 8.59347 30.9231 8.59647C30.8597 8.59754 30.799 8.58297 30.7459 8.55639C30.6207 8.49445 30.5337 8.36671 30.5313 8.21732Z" fill="white"/>
<g opacity="0.8">
<path d="M26.7324 16.811C27.7464 14.5765 26.7569 11.9431 24.5224 10.9291C22.2879 9.91519 19.6545 10.9046 18.6406 13.1391C17.6266 15.3736 18.6161 18.007 20.8506 19.021C23.0851 20.0349 25.7185 19.0455 26.7324 16.811Z" fill="black"/>
</g>
<path d="M26.5258 16.1661C27.5395 13.9313 26.5497 11.2979 24.3149 10.2842C22.0802 9.27055 19.4468 10.2604 18.4331 12.4951C17.4194 14.7299 18.4093 17.3633 20.644 18.377C22.8788 19.3907 25.5121 18.4008 26.5258 16.1661Z" fill="#FF4848"/>
<path opacity="0.3" d="M26.9182 14.4553C26.8623 14.6687 26.7941 14.8784 26.7161 15.082C26.3112 16.1361 25.2597 17.0806 24.2281 17.4876C23.2068 17.8906 21.7725 17.9296 20.7677 17.4296C19.6534 16.8749 18.8668 16.0698 18.362 14.9416C18.1962 14.5706 18.1023 14.1803 18.0652 13.7842C17.9855 14.424 18.0442 15.091 18.2628 15.743C19.043 18.0696 21.5616 19.3232 23.8882 18.543C25.7049 17.9339 26.8672 16.2651 26.9182 14.4553Z" fill="#FF4848"/>
<path d="M20.2039 17.846C20.0438 17.7423 19.9975 17.5271 20.1011 17.3659C20.2052 17.2051 20.4191 17.1593 20.5803 17.2626C20.7411 17.3668 20.7878 17.5811 20.6843 17.7423C20.5874 17.8921 20.3943 17.9425 20.2385 17.8649C20.2269 17.8591 20.2155 17.8526 20.2039 17.846ZM21.6528 18.0961C21.6771 17.9058 21.8505 17.7716 22.0412 17.7952C22.2305 17.8196 22.3657 17.9928 22.3415 18.1832C22.3177 18.3728 22.1439 18.5077 21.9542 18.4839C21.9139 18.4785 21.8766 18.4667 21.8427 18.45C21.7144 18.3861 21.6342 18.2462 21.6528 18.0961ZM18.9034 16.5133C18.8041 16.3493 18.8558 16.1367 19.0195 16.0364C19.1826 15.9367 19.3965 15.9882 19.4958 16.1521C19.5961 16.3157 19.544 16.5291 19.3809 16.6288C19.2748 16.6931 19.1483 16.6948 19.0448 16.6432C18.9878 16.6149 18.9392 16.5707 18.9034 16.5133ZM23.3675 18.0801C23.3064 17.8981 23.4044 17.7015 23.5863 17.6405L23.5874 17.64C23.5906 17.639 23.5934 17.6385 23.5958 17.6372C23.7777 17.5762 23.9741 17.673 24.036 17.8546C24.0973 18.0359 24 18.2329 23.8189 18.2942C23.8168 18.2948 23.8148 18.2957 23.8127 18.2963C23.8105 18.297 23.8086 18.2978 23.8065 18.2985C23.8065 18.2985 23.8065 18.2985 23.8071 18.2989C23.7162 18.3293 23.6211 18.3199 23.5416 18.2805C23.4625 18.2408 23.3982 18.1709 23.3675 18.0801ZM18.3103 14.748C18.2915 14.5577 18.4297 14.3873 18.6209 14.368C18.8112 14.3491 18.9814 14.488 19.0003 14.6784C19.02 14.8689 18.8809 15.0393 18.6905 15.0582C18.6226 15.0648 18.5574 15.0522 18.5009 15.0241C18.3982 14.9726 18.323 14.8715 18.3103 14.748ZM24.9148 17.3157C24.781 17.1794 24.7832 16.9591 24.9197 16.8247C25.0567 16.6914 25.2764 16.6931 25.4108 16.8296C25.5447 16.967 25.5424 17.1863 25.4058 17.3205C25.2969 17.4266 25.1368 17.4476 25.0076 17.3833C24.9746 17.367 24.9429 17.3442 24.9148 17.3157ZM18.542 12.9C18.6076 12.72 18.8063 12.6268 18.9863 12.6923C19.1664 12.7579 19.2592 12.9573 19.1936 13.1373C19.1284 13.3167 18.9289 13.4095 18.7488 13.3439C18.7364 13.3394 18.7244 13.3343 18.7126 13.3285C18.5568 13.2511 18.4809 13.0679 18.542 12.9ZM25.7601 15.5173C25.8253 15.3379 26.0242 15.2448 26.2044 15.3096C26.3845 15.3752 26.4777 15.5739 26.4121 15.7539C26.3465 15.9339 26.1479 16.027 25.9678 15.9616C25.9554 15.9571 25.9425 15.9515 25.9309 15.9457C25.7756 15.8686 25.699 15.6851 25.7601 15.5173ZM19.5455 11.8254C19.4111 11.6888 19.4139 11.4687 19.5504 11.3343C19.6874 11.201 19.9071 11.2027 20.041 11.3401C20.175 11.4775 20.1727 11.6968 20.0353 11.8307C19.9272 11.9373 19.7674 11.9574 19.6383 11.8931C19.6045 11.8764 19.5734 11.8541 19.5455 11.8254ZM25.9511 13.9762C25.9314 13.7857 26.0696 13.6151 26.2604 13.5953C26.4507 13.5763 26.6211 13.7147 26.6408 13.9053C26.6605 14.0958 26.5221 14.2664 26.3315 14.2861C26.2636 14.2928 26.1984 14.2801 26.1418 14.2521C26.0383 14.2006 25.9631 14.0992 25.9511 13.9762ZM20.9217 10.8028C20.8604 10.6215 20.9575 10.4245 21.1395 10.3636C21.3208 10.3023 21.5178 10.3994 21.5787 10.5814C21.64 10.7627 21.5429 10.9597 21.3609 11.0205C21.27 11.051 21.1751 11.0426 21.0958 11.0032C21.0163 10.9637 20.9522 10.8939 20.9217 10.8028ZM25.4534 12.5039C25.3531 12.3404 25.4052 12.1269 25.5687 12.0266C25.7312 11.9268 25.9451 11.978 26.0454 12.1415C26.1451 12.3048 26.0936 12.5185 25.9305 12.6182C25.8248 12.6836 25.698 12.6842 25.5944 12.6326C25.5383 12.6049 25.4886 12.5612 25.4534 12.5039ZM22.6049 10.4764C22.6289 10.286 22.8019 10.1516 22.9926 10.175C23.1823 10.1988 23.3174 10.372 23.2931 10.5623C23.27 10.7524 23.0962 10.887 22.9065 10.8632C22.8658 10.8585 22.8285 10.8467 22.7948 10.83C22.6664 10.7663 22.5861 10.6264 22.6049 10.4764ZM24.3672 11.3941C24.206 11.2906 24.1595 11.0763 24.2628 10.9151C24.3667 10.7533 24.5811 10.7065 24.7422 10.8101C24.903 10.9142 24.9504 11.129 24.8462 11.2898C24.75 11.44 24.5566 11.4908 24.4006 11.4132C24.3888 11.4076 24.3781 11.4014 24.3672 11.3941Z" fill="white"/>
<path d="M23.5002 17.3791C21.8164 17.9436 19.994 17.0364 19.4294 15.3528C18.8648 13.669 19.7721 11.8465 21.4557 11.2819C23.1395 10.7174 24.962 11.6247 25.5268 13.3083C26.0913 14.9918 25.184 16.8145 23.5002 17.3791Z" fill="#662D91"/>
<path d="M22.1488 17.2791C20.5203 17.0991 19.346 15.633 19.526 14.0043C19.7061 12.3758 21.1721 11.2015 22.8008 11.3815C24.4293 11.5615 25.6037 13.0276 25.4236 14.6563C25.2436 16.2848 23.7773 17.4589 22.1488 17.2791Z" fill="#29DFE2"/>
<path d="M25.0632 15.5122C24.372 16.128 23.2478 16.5755 22.3071 16.4715C21.2638 16.3562 20.4073 15.9475 19.68 15.201C19.6597 15.18 19.6408 15.1579 19.6211 15.1362C19.9398 16.2641 20.9137 17.1426 22.1504 17.2794C23.5556 17.4347 24.8391 16.5815 25.2806 15.2985C25.2098 15.3739 25.1376 15.4459 25.0632 15.5122Z" fill="#29DFE2"/>
<path opacity="0.5" d="M24.4381 12.1048C24.1262 11.8298 23.7545 11.6181 23.3413 11.4927L19.5195 14.5536C19.5515 14.9842 19.6771 15.3931 19.8775 15.7575L24.4381 12.1048Z" fill="white"/>
<path opacity="0.5" d="M24.9965 12.7648C24.9108 12.6272 24.8145 12.4963 24.7076 12.3745L20.082 16.0793C20.1776 16.2102 20.2841 16.3326 20.3997 16.4464L24.9965 12.7648Z" fill="white"/>
<path d="M15.0284 32.7073C13.3288 36.122 10.1888 40.8185 9.39595 40.4239C8.60291 40.0293 10.4573 34.6927 12.157 31.2779C13.8567 27.8631 14.7584 27.6632 15.5512 28.058C16.3442 28.4525 16.7283 29.2925 15.0284 32.7073Z" fill="#FF4848"/>
<path opacity="0.3" d="M15.5511 28.0577C15.4675 28.0161 15.3829 27.9818 15.296 27.9565C15.7354 29.0391 15.343 30.4417 14.879 31.4564C14.4445 32.4059 13.8489 33.2819 13.2511 34.1347C12.9024 34.632 12.4746 35.2713 11.811 35.3369C11.099 35.4072 10.7755 35.1026 10.7005 34.5848C9.60142 37.3844 8.8341 40.1442 9.39587 40.4237C10.1889 40.8183 13.3287 36.1218 15.0284 32.707C16.7282 29.2923 16.3441 28.4523 15.5511 28.0577Z" fill="#FF4848"/>
<path opacity="0.3" d="M16.1994 29.5527C16.1004 29.7669 15.9923 29.9923 15.8736 30.2307C14.1739 33.6454 11.0339 38.3419 10.2411 37.9473C9.88598 37.7705 10.0622 36.6013 10.5176 35.0579C9.51882 37.688 8.86596 40.1601 9.39579 40.4239C10.1888 40.8185 13.3286 36.1221 15.0283 32.7073C15.7626 31.2327 16.1076 30.2384 16.1994 29.5527Z" fill="#FF4848"/>
<path opacity="0.5" d="M25.8575 3.00374C24.9087 3.48256 23.9555 3.50614 23.7286 3.05626C23.5016 2.60658 24.0869 1.85384 25.0358 1.37502C25.9846 0.896201 26.9378 0.872838 27.1647 1.32251C27.3915 1.77218 26.8064 2.52492 25.8575 3.00374Z" fill="white"/>
<path opacity="0.5" d="M19.5766 9.02257C18.9085 9.84904 18.0493 10.2625 17.6577 9.94571C17.2659 9.62914 17.4901 8.70236 18.1582 7.87589C18.8262 7.04942 19.6855 6.63597 20.0771 6.95275C20.4687 7.26932 20.2447 8.1961 19.5766 9.02257Z" fill="white"/>
<path opacity="0.5" d="M21.5651 6.31576C21.3083 6.6334 20.8426 6.68292 20.5247 6.42593C20.2071 6.16916 20.1576 5.70341 20.4146 5.38556C20.6713 5.06791 21.1371 5.0184 21.4549 5.27539C21.7726 5.53238 21.8219 5.99812 21.5651 6.31576Z" fill="white"/>
</svg>
