<svg width="12" height="12" viewBox="0 0 12 12" fill="none" xmlns="http://www.w3.org/2000/svg">
<path fill-rule="evenodd" clip-rule="evenodd" d="M6.68325 0.683544C6.68325 0.306033 6.37721 0 5.9997 0C5.62219 0 5.31616 0.306033 5.31616 0.683544V5.31645H0.683544C0.306033 5.31645 0 5.62248 0 6C0 6.37751 0.306033 6.68354 0.683544 6.68354H5.31616V11.3165C5.31616 11.694 5.62219 12 5.9997 12C6.37721 12 6.68325 11.694 6.68325 11.3165V6.68354H11.3165C11.694 6.68354 12 6.37751 12 6C12 5.62248 11.694 5.31645 11.3165 5.31645H6.68325V0.683544Z" fill="#383192"/>
</svg>
