<svg width="515" height="344" viewBox="0 0 515 344" fill="none" xmlns="http://www.w3.org/2000/svg">
<g opacity="0.8">
<path d="M489.676 307.473C493.568 262.931 491.289 216.09 481.677 172.461C468.073 110.707 429.79 64.8509 368.303 46.3189C334.912 36.2555 296.921 32.433 264.023 46.3506C224.76 62.9609 205.584 104.813 181.938 137.469C176.28 145.283 170.58 150.085 160.607 149.905C148.104 149.679 135.534 147.07 122.995 148.002C101.958 149.566 93.708 164.777 89.656 183.497C88.2078 190.188 85.8896 197.236 80.3949 201.305C78.0987 203.006 75.4001 204.059 72.7372 205.092C51.48 213.343 38.3036 218.675 27.9171 239.488C20.7112 264.757 22.513 308.676 22.513 308.676H495.681L489.676 307.473Z" fill="#DEDCEE"/>
<path d="M40.4062 280.634C41.5378 280.938 44.1258 280.488 44.1279 280.488C44.1547 280.483 43.3142 278.869 43.2497 278.773C42.5005 277.664 40.4027 275.964 38.9669 276.383C37.9321 276.685 37.5036 277.833 37.8916 278.793C38.2871 279.775 39.4428 280.374 40.4062 280.634Z" fill="#17213A"/>
<path d="M58.015 308.677H58.9517C58.9482 308.666 58.9448 308.657 58.9414 308.646C58.699 307.967 58.427 307.246 58.14 306.509C58.3028 306.414 59.2236 305.868 60.0201 305.25C60.9004 305.958 62.9851 306.627 63.255 306.712C63.0909 307.393 62.9247 308.054 62.7578 308.676H63.6684C63.8201 308.045 63.9712 307.382 64.1195 306.696C64.4065 306.712 66.7529 306.832 67.7781 306.432C68.7078 306.069 69.7914 305.348 70.0791 304.33C70.3606 303.333 69.8106 302.239 68.749 302.051C67.2761 301.791 65.3747 303.709 64.7505 304.892C64.7135 304.961 64.3983 305.764 64.2081 306.273C64.2747 305.956 64.3427 305.65 64.4072 305.323C64.5397 304.678 64.6524 304.031 64.776 303.334C64.824 302.996 64.8728 302.655 64.9215 302.309C64.9771 301.968 64.9929 301.601 65.0307 301.243C65.1014 300.412 65.1317 299.566 65.144 298.714C65.7078 298.828 67.7163 299.206 68.6948 298.987C69.6685 298.769 70.8488 298.221 71.2869 297.258C71.7161 296.315 71.3377 295.15 70.3167 294.803C68.9001 294.322 66.7309 295.93 65.9344 297.005C65.8842 297.071 65.4001 297.907 65.1426 298.371C65.1461 297.859 65.1516 297.347 65.1385 296.829C65.1001 295.332 65.0142 293.817 64.936 292.306C64.9112 291.843 64.8927 291.382 64.8728 290.92C65.0733 290.963 67.4505 291.464 68.5464 291.219C69.5201 291.001 70.7005 290.453 71.1386 289.49C71.5678 288.547 71.1894 287.382 70.1684 287.036C68.7518 286.554 66.5826 288.162 65.786 289.237C65.7263 289.318 65.03 290.521 64.868 290.835C64.8233 289.818 64.7883 288.804 64.7938 287.803C64.8 286.421 64.8824 285.067 65.0589 283.759C65.1516 283.78 67.6311 284.313 68.7538 284.063C69.7275 283.845 70.9079 283.297 71.346 282.334C71.7752 281.391 71.3968 280.227 70.3757 279.879C68.9584 279.397 66.79 281.005 65.9934 282.08C65.9309 282.165 65.1832 283.459 65.0644 283.704C65.0753 283.626 65.0774 283.544 65.0891 283.467C65.2951 282.074 65.6693 280.751 66.0806 279.53C66.3182 278.819 66.5846 278.154 66.8586 277.512C67.3104 277.659 69.3814 278.307 70.4162 278.193C71.4085 278.083 72.6417 277.669 73.1821 276.76C73.7122 275.87 73.4637 274.67 72.4872 274.213C71.1317 273.579 68.7991 274.939 67.89 275.919C67.8406 275.972 67.3983 276.57 67.0818 277.01C67.2095 276.723 67.3365 276.423 67.4643 276.15C67.9429 275.123 68.4448 274.212 68.8953 273.409C69.1555 272.954 69.3993 272.548 69.6314 272.171C70.1491 272.084 72.2332 271.705 73.0839 271.137C73.9134 270.581 74.8178 269.644 74.8803 268.588C74.9414 267.554 74.1689 266.603 73.0922 266.649C71.5973 266.711 70.1526 268.995 69.7969 270.285C69.766 270.396 69.4851 272.195 69.5119 272.191C69.5119 272.191 69.5373 272.187 69.5435 272.187C69.3121 272.545 69.069 272.932 68.8122 273.361C68.3432 274.156 67.8206 275.058 67.3173 276.079C66.8119 277.098 66.2921 278.219 65.8506 279.449C65.4063 280.682 65.0019 282.001 64.7608 283.415C64.7581 283.431 64.7574 283.448 64.7547 283.464C64.697 283.028 64.4958 281.816 64.4697 281.725C64.103 280.438 62.6391 278.167 61.1435 278.116C60.0668 278.081 59.3025 279.037 59.3719 280.071C59.4433 281.127 60.3545 282.057 61.1895 282.605C62.1309 283.223 64.5425 283.595 64.7348 283.624C64.5171 284.972 64.4038 286.373 64.366 287.797C64.344 288.612 64.3468 289.433 64.3598 290.255C64.298 289.881 64.2404 289.546 64.2266 289.5C63.8593 288.213 62.396 285.942 60.9004 285.892C59.823 285.855 59.0588 286.812 59.1288 287.845C59.1995 288.902 60.1114 289.832 60.9457 290.379C61.7931 290.935 63.8428 291.294 64.3859 291.382C64.3942 291.698 64.399 292.013 64.4093 292.328C64.4553 293.843 64.5075 295.354 64.5137 296.838C64.5164 297.36 64.4992 297.875 64.4841 298.39C64.4292 298.058 64.3798 297.778 64.3674 297.736C64 296.449 62.5367 294.178 61.0419 294.128C59.9645 294.092 59.2002 295.048 59.2703 296.082C59.3417 297.138 60.2529 298.068 61.0879 298.615C61.8961 299.146 63.7851 299.494 64.4306 299.601C64.3997 300.129 64.3688 300.657 64.3152 301.166C64.2706 301.514 64.2513 301.851 64.1875 302.197C64.1312 302.541 64.0756 302.882 64.0199 303.219C63.8895 303.864 63.759 304.531 63.6162 305.158C63.52 305.594 63.4205 306.009 63.3209 306.426C63.3243 305.905 63.3106 304.886 63.2996 304.801C63.1877 303.919 62.6617 302.536 61.8906 301.625C61.8748 301.495 61.848 301.366 61.8082 301.241C61.4944 300.254 60.4328 299.645 59.444 300.075C58.0713 300.672 57.5426 303.323 57.6731 304.655C57.6806 304.733 57.8592 305.577 57.9807 306.107C57.8619 305.806 57.75 305.513 57.6243 305.205C57.3792 304.594 57.1169 303.992 56.8367 303.342C56.6905 303.033 56.5428 302.721 56.3938 302.406C56.2524 302.091 56.0635 301.775 55.898 301.456C55.4991 300.724 55.0589 300.002 54.5996 299.284C55.1331 299.068 57.0166 298.273 57.7115 297.55C58.4044 296.83 59.0862 295.72 58.9221 294.675C58.7608 293.651 57.8042 292.889 56.7619 293.164C55.3151 293.546 54.3908 296.086 54.3187 297.422C54.3146 297.506 54.3702 298.47 54.4107 299C54.1313 298.571 53.8545 298.141 53.5579 297.715C52.7016 296.488 51.7966 295.272 50.8991 294.055C50.6238 293.682 50.3546 293.308 50.0827 292.935C50.2736 292.86 52.532 291.962 53.3114 291.153C54.0035 290.433 54.6861 289.323 54.522 288.278C54.3606 287.255 53.4041 286.492 52.3617 286.767C50.9149 287.149 49.9907 289.689 49.9186 291.025C49.9131 291.126 49.9955 292.514 50.0339 292.866C49.4365 292.043 48.8487 291.217 48.3021 290.378C47.5468 289.222 46.8698 288.047 46.2971 286.86C46.3863 286.824 48.7478 285.899 49.5457 285.07C50.2385 284.35 50.9211 283.241 50.7563 282.196C50.5956 281.172 49.6384 280.41 48.596 280.685C47.1492 281.067 46.2257 283.606 46.1529 284.943C46.1474 285.048 46.2366 286.541 46.2717 286.811C46.238 286.74 46.1948 286.671 46.1618 286.6C45.5671 285.324 45.151 284.014 44.8207 282.767C44.6278 282.044 44.4836 281.341 44.3586 280.654C44.8159 280.527 46.9007 279.923 47.7013 279.256C48.469 278.617 49.269 277.589 49.2195 276.532C49.1715 275.497 48.3035 274.634 47.2378 274.792C45.758 275.012 44.5612 277.435 44.3428 278.756C44.3311 278.828 44.2906 279.571 44.2693 280.113C44.2178 279.802 44.1588 279.482 44.1148 279.184C43.9487 278.062 43.8656 277.025 43.799 276.106C43.7653 275.583 43.7454 275.11 43.7317 274.667C44.1155 274.307 45.6447 272.839 46.0409 271.895C46.4282 270.973 46.6651 269.692 46.1357 268.776C45.6173 267.88 44.4499 267.514 43.5765 268.147C42.3645 269.026 42.4167 271.729 42.8294 273.002C42.8651 273.112 43.6218 274.767 43.6417 274.749C43.6417 274.749 43.6603 274.732 43.6651 274.728C43.6699 275.155 43.6802 275.612 43.7015 276.112C43.7475 277.034 43.8086 278.075 43.9514 279.205C44.0908 280.334 44.2742 281.556 44.5832 282.826C44.8915 284.1 45.2801 285.424 45.8576 286.736C45.8638 286.752 45.8727 286.766 45.8796 286.78C45.5919 286.449 44.7562 285.55 44.6841 285.488C43.6699 284.617 41.1986 283.532 39.9234 284.317C39.0054 284.883 38.8941 286.103 39.5217 286.926C40.1624 287.768 41.4348 288.039 42.4325 288.035C43.558 288.03 45.7745 287.007 45.9503 286.925C46.5113 288.169 47.1877 289.401 47.941 290.61C48.3708 291.301 48.8254 291.984 49.2889 292.663C49.0307 292.385 48.7979 292.138 48.7622 292.107C47.7473 291.236 45.276 290.152 44.0015 290.936C43.0828 291.501 42.9722 292.721 43.5998 293.545C44.2405 294.386 45.5129 294.658 46.5106 294.653C47.5235 294.649 49.4303 293.815 49.9323 293.587C50.1129 293.846 50.2907 294.106 50.4727 294.364C51.3448 295.602 52.2203 296.833 53.0422 298.068C53.332 298.503 53.6011 298.941 53.8731 299.38C53.6437 299.133 53.4487 298.926 53.4151 298.898C52.4002 298.028 49.9295 296.943 48.6544 297.727C47.7356 298.293 47.6251 299.513 48.2527 300.336C48.8934 301.177 50.1658 301.449 51.1635 301.444C52.1296 301.44 53.8971 300.686 54.4945 300.419C54.7589 300.876 55.0246 301.334 55.2601 301.788C55.4139 302.103 55.5842 302.395 55.7209 302.719C55.863 303.036 56.0038 303.352 56.1439 303.664C56.3904 304.274 56.6493 304.903 56.8745 305.504C57.0345 305.921 57.1794 306.322 57.327 306.726C57.0434 306.289 56.4707 305.447 56.4144 305.382C55.5437 304.367 53.2647 302.92 51.8859 303.502C50.8929 303.921 50.599 305.11 51.0948 306.02C51.6009 306.948 52.817 307.411 53.8044 307.557C54.8914 307.719 57.1478 307.082 57.4293 307C57.6367 307.576 57.8324 308.135 58.015 308.677Z" fill="#17213A"/>
<path d="M66.7577 277.248C66.7832 277.259 66.9706 275.447 66.9692 275.332C66.9548 273.994 66.1411 271.416 64.7122 270.972C63.6828 270.652 62.694 271.372 62.4887 272.388C62.2793 273.425 62.9131 274.563 63.5737 275.312C64.3503 276.192 66.7564 277.246 66.7577 277.248Z" fill="#17213A"/>
<path d="M16.3392 308.677H496.198" stroke="#17213A" stroke-miterlimit="10" stroke-linecap="round" stroke-linejoin="round"/>
<path d="M454.528 91.8129C454.528 91.8129 453.095 86.7885 446.289 84.2759C439.483 81.7633 433.394 83.9167 431.245 85.7117C429.095 87.506 427.662 90.0186 425.871 90.0186C424.081 90.0186 419.424 87.506 415.125 89.301C410.827 91.0953 411.185 93.6079 409.393 94.6846C407.603 95.7613 404.737 93.967 401.513 94.6846C398.289 95.4022 395.065 98.2739 394.706 99.3506C394.348 100.427 393.632 100.068 390.766 100.068C387.901 100.068 385.035 104.016 385.035 104.016H476.021C476.021 104.016 472.081 95.4022 466.708 93.9663C461.334 92.5305 458.468 95.4022 457.394 95.0431C456.319 94.6839 454.528 91.8129 454.528 91.8129Z" fill="#F3F4F6" stroke="#17213A" stroke-miterlimit="10" stroke-linecap="round" stroke-linejoin="round"/>
<path d="M282.838 33.0622C282.838 33.0622 281.954 29.9616 277.754 28.4116C273.554 26.8616 269.796 28.1901 268.469 29.2977C267.144 30.4053 266.259 31.9553 265.154 31.9553C264.048 31.9553 261.174 30.4053 258.522 31.5123C255.869 32.6199 256.09 34.1698 254.985 34.8344C253.879 35.499 252.111 34.3914 250.122 34.8344C248.132 35.2775 246.142 37.049 245.921 37.7135C245.7 38.3781 245.258 38.1566 243.49 38.1566C241.722 38.1566 239.953 40.5927 239.953 40.5927H296.101C296.101 40.5927 293.669 35.2775 290.354 34.3914C287.038 33.5053 285.269 35.2775 284.606 35.0559C283.943 34.8337 282.838 33.0622 282.838 33.0622Z" fill="#F3F4F6" stroke="#17213A" stroke-miterlimit="10" stroke-linecap="round" stroke-linejoin="round"/>
<path d="M66.8504 42.8071C66.8504 42.8071 65.966 39.7064 61.7663 38.1558C57.566 36.6058 53.8086 37.9342 52.4819 39.0418C51.1553 40.1495 50.2715 41.6994 49.166 41.6994C48.0605 41.6994 45.1868 40.1495 42.5342 41.2564C39.8816 42.364 40.1027 43.914 38.9972 44.5786C37.8916 45.2431 36.1235 44.1355 34.1342 44.5786C32.1449 45.0216 30.1549 46.7931 29.9338 47.4577C29.7127 48.1223 29.2705 47.9007 27.5024 47.9007C25.7342 47.9007 23.9653 50.3368 23.9653 50.3368H80.1134C80.1134 50.3368 77.6819 45.0216 74.366 44.1355C71.0501 43.2494 69.2819 45.0216 68.6186 44.8001C67.9559 44.5786 66.8504 42.8071 66.8504 42.8071Z" fill="#F3F4F6" stroke="#17213A" stroke-miterlimit="10" stroke-linecap="round" stroke-linejoin="round"/>
<path d="M278.111 220.962H121.029V287.779H278.111V220.962Z" fill="#17213A" fill-opacity="0.3" stroke="#17213A" stroke-miterlimit="10"/>
<path d="M282.237 216.65H97.2268V225.482H282.237V216.65Z" fill="#F3F4F6" stroke="#17213A" stroke-miterlimit="10"/>
<path d="M146.997 157.254L84.197 219.392H220.48L219.437 225.135H282.497V154.156H149.863L146.997 157.254Z" fill="#17213A" stroke="#17213A" stroke-miterlimit="10"/>
<path d="M283.427 154.156H149.428V198.705H283.427V154.156Z" fill="#DBD9EB" stroke="#17213A" stroke-miterlimit="10"/>
<path d="M331.262 160.916H136.549L154.335 100.084H331.262V160.916Z" fill="#17213A" stroke="#17213A" stroke-miterlimit="10"/>
<path d="M179.067 163.68H162.205V196.299H179.067V163.68Z" fill="#17213A" stroke="#17213A" stroke-miterlimit="10"/>
<path d="M169.746 164.88H163.516V174.052H169.746V164.88Z" fill="#F3F4F6" stroke="#17213A" stroke-miterlimit="10"/>
<path d="M177.757 164.88H171.526V174.052H177.757V164.88Z" fill="#F3F4F6" stroke="#17213A" stroke-miterlimit="10"/>
<path d="M169.746 175.327H163.516V184.5H169.746V175.327Z" fill="#F3F4F6" stroke="#17213A" stroke-miterlimit="10"/>
<path d="M177.757 175.327H171.526V184.5H177.757V175.327Z" fill="#F3F4F6" stroke="#17213A" stroke-miterlimit="10"/>
<path d="M169.746 185.774H163.516V194.947H169.746V185.774Z" fill="#F3F4F6" stroke="#17213A" stroke-miterlimit="10"/>
<path d="M177.757 185.774H171.526V194.947H177.757V185.774Z" fill="#F3F4F6" stroke="#17213A" stroke-miterlimit="10"/>
<path d="M217.914 163.68H201.052V196.299H217.914V163.68Z" fill="#17213A" stroke="#17213A" stroke-miterlimit="10"/>
<path d="M208.592 164.88H202.362V174.052H208.592V164.88Z" fill="#F3F4F6" stroke="#17213A" stroke-miterlimit="10"/>
<path d="M216.603 164.88H210.372V174.052H216.603V164.88Z" fill="#F3F4F6" stroke="#17213A" stroke-miterlimit="10"/>
<path d="M208.592 175.327H202.362V184.5H208.592V175.327Z" fill="#F3F4F6" stroke="#17213A" stroke-miterlimit="10"/>
<path d="M216.603 175.327H210.372V184.5H216.603V175.327Z" fill="#F3F4F6" stroke="#17213A" stroke-miterlimit="10"/>
<path d="M208.592 185.774H202.362V194.947H208.592V185.774Z" fill="#F3F4F6" stroke="#17213A" stroke-miterlimit="10"/>
<path d="M216.603 185.774H210.372V194.947H216.603V185.774Z" fill="#F3F4F6" stroke="#17213A" stroke-miterlimit="10"/>
<path d="M256.76 163.68H239.898V196.299H256.76V163.68Z" fill="#17213A" stroke="#17213A" stroke-miterlimit="10"/>
<path d="M247.439 164.88H241.208V174.052H247.439V164.88Z" fill="#F3F4F6" stroke="#17213A" stroke-miterlimit="10"/>
<path d="M255.45 164.88H249.219V174.052H255.45V164.88Z" fill="#F3F4F6" stroke="#17213A" stroke-miterlimit="10"/>
<path d="M247.439 175.327H241.208V184.5H247.439V175.327Z" fill="#F3F4F6" stroke="#17213A" stroke-miterlimit="10"/>
<path d="M255.45 175.327H249.219V184.5H255.45V175.327Z" fill="#F3F4F6" stroke="#17213A" stroke-miterlimit="10"/>
<path d="M247.439 185.774H241.208V194.947H247.439V185.774Z" fill="#F3F4F6" stroke="#17213A" stroke-miterlimit="10"/>
<path d="M255.45 185.774H249.219V194.947H255.45V185.774Z" fill="#F3F4F6" stroke="#17213A" stroke-miterlimit="10"/>
<path d="M282.32 287.779H96.4362V308.645H282.32V287.779Z" fill="#DBD9EB" stroke="#17213A" stroke-miterlimit="10"/>
<path d="M282.32 287.779H221.311V308.645H282.32V287.779Z" fill="#F3F4F6" stroke="#17213A" stroke-miterlimit="10"/>
<path d="M282.32 287.779H221.311V301.35H282.32V287.779Z" fill="#F3F4F6" stroke="#17213A" stroke-miterlimit="10"/>
<path d="M282.32 287.779H221.311V294.128H282.32V287.779Z" fill="#F3F4F6" stroke="#17213A" stroke-miterlimit="10"/>
<path d="M414.351 207.117H376.826V308.551H414.351V207.117Z" fill="#DBD9EB" stroke="#17213A" stroke-miterlimit="10"/>
<path d="M372.936 210.528H430.54L373.379 160.138L372.936 210.528Z" fill="#17213A" stroke="#17213A" stroke-miterlimit="10"/>
<path d="M398.43 232.193H381.569V264.812H398.43V232.193Z" fill="#17213A" stroke="#17213A" stroke-miterlimit="10"/>
<path d="M389.11 233.392H382.879V242.565H389.11V233.392Z" fill="#F3F4F6" stroke="#17213A" stroke-miterlimit="10"/>
<path d="M397.12 233.392H390.889V242.565H397.12V233.392Z" fill="#F3F4F6" stroke="#17213A" stroke-miterlimit="10"/>
<path d="M389.11 243.839H382.879V253.012H389.11V243.839Z" fill="#F3F4F6" stroke="#17213A" stroke-miterlimit="10"/>
<path d="M397.12 243.839H390.889V253.012H397.12V243.839Z" fill="#F3F4F6" stroke="#17213A" stroke-miterlimit="10"/>
<path d="M389.11 254.287H382.879V263.459H389.11V254.287Z" fill="#F3F4F6" stroke="#17213A" stroke-miterlimit="10"/>
<path d="M397.12 254.287H390.889V263.459H397.12V254.287Z" fill="#F3F4F6" stroke="#17213A" stroke-miterlimit="10"/>
<path d="M388.445 150.371L375.151 159.694V130.17L388.445 150.371Z" fill="#17213A" fill-opacity="0.3" stroke="#17213A" stroke-miterlimit="10"/>
<path d="M268.141 150.371L281.434 159.694V130.17L268.141 150.371Z" fill="#17213A" fill-opacity="0.3" stroke="#17213A" stroke-miterlimit="10"/>
<path d="M376.826 308.552H276.763V137.704L327.056 78.5366L376.826 137.704V308.552Z" fill="#DBD9EB" stroke="#17213A" stroke-miterlimit="10"/>
<path d="M352.971 109.345L327.056 78.5366L300.869 109.345H352.971Z" fill="#17213A" fill-opacity="0.3" stroke="#17213A" stroke-miterlimit="10"/>
<path d="M376.826 258.684H276.763V308.551H376.826V258.684Z" fill="#F3F4F6" stroke="#17213A" stroke-miterlimit="10"/>
<path d="M317.675 230.037H300.797V270.956H317.675V230.037Z" fill="#17213A" stroke="#17213A" stroke-miterlimit="10"/>
<path d="M308.345 231.541H302.109V243.048H308.345V231.541Z" fill="#F3F4F6" stroke="#17213A" stroke-miterlimit="10"/>
<path d="M316.364 231.541H310.128V243.047H316.364V231.541Z" fill="#F3F4F6" stroke="#17213A" stroke-miterlimit="10"/>
<path d="M308.345 244.647H302.109V256.153H308.345V244.647Z" fill="#F3F4F6" stroke="#17213A" stroke-miterlimit="10"/>
<path d="M316.364 244.647H310.128V256.153H316.364V244.647Z" fill="#F3F4F6" stroke="#17213A" stroke-miterlimit="10"/>
<path d="M308.345 257.752H302.109V269.259H308.345V257.752Z" fill="#F3F4F6" stroke="#17213A" stroke-miterlimit="10"/>
<path d="M316.364 257.752H310.128V269.259H316.364V257.752Z" fill="#F3F4F6" stroke="#17213A" stroke-miterlimit="10"/>
<path d="M334.882 230.037H318.004V270.956H334.882V230.037Z" fill="#17213A" stroke="#17213A" stroke-miterlimit="10"/>
<path d="M325.553 231.541H319.316V243.048H325.553V231.541Z" fill="#F3F4F6" stroke="#17213A" stroke-miterlimit="10"/>
<path d="M333.571 231.541H327.334V243.047H333.571V231.541Z" fill="#F3F4F6" stroke="#17213A" stroke-miterlimit="10"/>
<path d="M325.553 244.647H319.316V256.153H325.553V244.647Z" fill="#F3F4F6" stroke="#17213A" stroke-miterlimit="10"/>
<path d="M333.571 244.647H327.334V256.153H333.571V244.647Z" fill="#F3F4F6" stroke="#17213A" stroke-miterlimit="10"/>
<path d="M325.553 257.752H319.316V269.259H325.553V257.752Z" fill="#F3F4F6" stroke="#17213A" stroke-miterlimit="10"/>
<path d="M333.571 257.752H327.334V269.259H333.571V257.752Z" fill="#F3F4F6" stroke="#17213A" stroke-miterlimit="10"/>
<path d="M352.089 230.037H335.211V270.956H352.089V230.037Z" fill="#17213A" stroke="#17213A" stroke-miterlimit="10"/>
<path d="M342.76 231.541H336.523V243.048H342.76V231.541Z" fill="#F3F4F6" stroke="#17213A" stroke-miterlimit="10"/>
<path d="M350.778 231.541H344.541V243.047H350.778V231.541Z" fill="#F3F4F6" stroke="#17213A" stroke-miterlimit="10"/>
<path d="M342.76 244.647H336.523V256.153H342.76V244.647Z" fill="#F3F4F6" stroke="#17213A" stroke-miterlimit="10"/>
<path d="M350.778 244.647H344.541V256.153H350.778V244.647Z" fill="#F3F4F6" stroke="#17213A" stroke-miterlimit="10"/>
<path d="M342.76 257.752H336.523V269.259H342.76V257.752Z" fill="#F3F4F6" stroke="#17213A" stroke-miterlimit="10"/>
<path d="M350.778 257.752H344.541V269.259H350.778V257.752Z" fill="#F3F4F6" stroke="#17213A" stroke-miterlimit="10"/>
<path d="M354.678 274.872H297.871V278.788H354.678V274.872Z" fill="#F3F4F6" stroke="#17213A" stroke-miterlimit="10"/>
<path d="M266.376 153.338H266.875L327.967 80.2629L388.904 153.152L392.201 149.072L327.967 72.24L263.17 149.747L266.376 153.338Z" fill="#17213A" stroke="#17213A" stroke-miterlimit="10"/>
<path d="M105.039 228.362H100.359V284.272H105.039V228.362Z" fill="#F3F4F6" stroke="#17213A" stroke-miterlimit="10"/>
<path d="M105.997 225.765H99.3988V229.459H105.997V225.765Z" fill="#F3F4F6" stroke="#17213A" stroke-miterlimit="10"/>
<path d="M105.997 284.106H99.3988V287.801H105.997V284.106Z" fill="#F3F4F6" stroke="#17213A" stroke-miterlimit="10"/>
<path d="M143.971 228.362H139.292V284.272H143.971V228.362Z" fill="#F3F4F6" stroke="#17213A" stroke-miterlimit="10"/>
<path d="M144.931 225.765H138.332V229.459H144.931V225.765Z" fill="#F3F4F6" stroke="#17213A" stroke-miterlimit="10"/>
<path d="M144.931 284.106H138.332V287.801H144.931V284.106Z" fill="#F3F4F6" stroke="#17213A" stroke-miterlimit="10"/>
<path d="M186.97 228.362H182.29V284.272H186.97V228.362Z" fill="#F3F4F6" stroke="#17213A" stroke-miterlimit="10"/>
<path d="M187.929 225.765H181.331V229.459H187.929V225.765Z" fill="#F3F4F6" stroke="#17213A" stroke-miterlimit="10"/>
<path d="M187.929 284.106H181.331V287.801H187.929V284.106Z" fill="#F3F4F6" stroke="#17213A" stroke-miterlimit="10"/>
<path d="M229.969 228.362H225.289V284.272H229.969V228.362Z" fill="#F3F4F6" stroke="#17213A" stroke-miterlimit="10"/>
<path d="M230.928 225.765H224.33V229.459H230.928V225.765Z" fill="#F3F4F6" stroke="#17213A" stroke-miterlimit="10"/>
<path d="M230.928 284.106H224.33V287.801H230.928V284.106Z" fill="#F3F4F6" stroke="#17213A" stroke-miterlimit="10"/>
<path d="M272.967 228.362H268.288V284.272H272.967V228.362Z" fill="#F3F4F6" stroke="#17213A" stroke-miterlimit="10"/>
<path d="M273.927 225.765H267.328V229.459H273.927V225.765Z" fill="#F3F4F6" stroke="#17213A" stroke-miterlimit="10"/>
<path d="M273.927 284.106H267.328V287.801H273.927V284.106Z" fill="#F3F4F6" stroke="#17213A" stroke-miterlimit="10"/>
<path d="M260.499 232.504H241.002V287.557H260.499V232.504Z" fill="#17213A" fill-opacity="0.6" stroke="#17213A" stroke-miterlimit="10"/>
<path d="M259.182 236.769H242.32V269.388H259.182V236.769Z" fill="#17213A" stroke="#17213A" stroke-miterlimit="10"/>
<path d="M249.86 237.969H243.63V247.141H249.86V237.969Z" fill="#F3F4F6" stroke="#17213A" stroke-miterlimit="10"/>
<path d="M257.871 237.969H251.641V247.141H257.871V237.969Z" fill="#F3F4F6" stroke="#17213A" stroke-miterlimit="10"/>
<path d="M249.86 248.416H243.63V257.589H249.86V248.416Z" fill="#F3F4F6" stroke="#17213A" stroke-miterlimit="10"/>
<path d="M257.871 248.416H251.641V257.589H257.871V248.416Z" fill="#F3F4F6" stroke="#17213A" stroke-miterlimit="10"/>
<path d="M249.86 258.863H243.63V268.036H249.86V258.863Z" fill="#F3F4F6" stroke="#17213A" stroke-miterlimit="10"/>
<path d="M257.871 258.863H251.641V268.036H257.871V258.863Z" fill="#F3F4F6" stroke="#17213A" stroke-miterlimit="10"/>
<path d="M335.915 142.573H319.038V183.493H335.915V142.573Z" fill="#17213A" stroke="#17213A" stroke-miterlimit="10"/>
<path d="M326.586 144.079H320.349V155.585H326.586V144.079Z" fill="#F3F4F6" stroke="#17213A" stroke-miterlimit="10"/>
<path d="M334.605 144.079H328.368V155.585H334.605V144.079Z" fill="#F3F4F6" stroke="#17213A" stroke-miterlimit="10"/>
<path d="M326.586 157.183H320.349V168.69H326.586V157.183Z" fill="#F3F4F6" stroke="#17213A" stroke-miterlimit="10"/>
<path d="M334.605 157.183H328.368V168.69H334.605V157.183Z" fill="#F3F4F6" stroke="#17213A" stroke-miterlimit="10"/>
<path d="M326.586 170.289H320.349V181.795H326.586V170.289Z" fill="#F3F4F6" stroke="#17213A" stroke-miterlimit="10"/>
<path d="M334.605 170.289H328.368V181.795H334.605V170.289Z" fill="#F3F4F6" stroke="#17213A" stroke-miterlimit="10"/>
<path d="M296.047 224.222L294.744 251.114H296.829L298.393 224.222H296.047Z" fill="#F3F4F6" stroke="#17213A" stroke-miterlimit="10"/>
<path d="M360.67 224.222L356.762 251.114H358.847L363.016 224.222H360.67Z" fill="#F3F4F6" stroke="#17213A" stroke-miterlimit="10"/>
<path d="M369.791 226.31H295.005L291.357 198.635H362.755L369.791 226.31Z" fill="#17213A" stroke="#17213A" stroke-miterlimit="10"/>
<path d="M432.771 308.412V244.431H437.087V308.412H432.771Z" fill="#17213A" stroke="#17213A"/>
<path d="M437.587 243.931C437.587 244.07 436.397 244.181 434.929 244.181C433.461 244.181 432.271 244.069 432.271 243.931C432.271 243.793 433.461 243.681 434.929 243.681C436.397 243.681 437.587 243.793 437.587 243.931Z" fill="#DBD9EB"/>
<path opacity="0.2" d="M437.587 284.75L432.271 284.365V280.357H437.587V284.75Z" fill="#383192"/>
<path d="M465.56 248.884L407.457 243.781L404.301 279.877L462.404 284.981L465.56 248.884Z" fill="#383192"/>
<path d="M403.018 248.034L402.819 250.3L403.226 250.336L403.426 248.07L403.018 248.034Z" fill="#F3F4F6"/>
<path d="M402.6 252.838L402.11 258.397L402.518 258.433L403.007 252.874L402.6 252.838Z" fill="#F3F4F6"/>
<path d="M462.958 248.656L404.856 243.552L401.7 279.648L459.803 284.752L462.958 248.656Z" fill="#CEC8FF"/>
<path opacity="0.4" d="M463.235 254.271L452.336 253.771L463.16 255.133L463.235 254.271Z" fill="#383192"/>
<path opacity="0.4" d="M462.772 255.499L456.048 255.594L462.659 256.792L462.772 255.499Z" fill="#383192"/>
<path opacity="0.4" d="M402.494 270.484L408.372 270.543L402.569 269.622L402.494 270.484Z" fill="#383192"/>
<path opacity="0.4" d="M403.089 263.68L408.148 263.439L403.202 262.388L403.089 263.68Z" fill="#383192"/>
<path opacity="0.4" d="M460.608 280.916L455.549 281.157L460.495 282.209L460.608 280.916Z" fill="#383192"/>
<path d="M417.875 250.822L425.875 251.525L425.677 253.78L420.927 253.363L420.767 255.196L424.824 255.552L424.639 257.671L420.581 257.315L420.206 261.604L416.956 261.318L417.875 250.822Z" fill="#383192"/>
<path d="M426.751 256.898C426.901 255.184 427.494 253.892 428.53 253.021C429.566 252.15 430.934 251.789 432.634 251.939C434.376 252.092 435.679 252.679 436.539 253.7C437.4 254.721 437.757 256.076 437.609 257.766C437.502 258.992 437.207 259.98 436.727 260.729C436.246 261.479 435.598 262.037 434.781 262.405C433.964 262.774 432.975 262.907 431.813 262.805C430.632 262.701 429.671 262.427 428.93 261.982C428.189 261.537 427.614 260.885 427.204 260.026C426.795 259.167 426.644 258.124 426.751 256.898ZM429.986 257.196C429.893 258.256 430.023 259.035 430.376 259.533C430.728 260.03 431.242 260.309 431.918 260.368C432.614 260.429 433.172 260.25 433.592 259.83C434.013 259.41 434.275 258.613 434.377 257.438C434.464 256.45 434.328 255.711 433.97 255.22C433.612 254.729 433.093 254.453 432.412 254.394C431.76 254.336 431.216 254.522 430.78 254.95C430.344 255.378 430.08 256.127 429.986 257.196Z" fill="#383192"/>
<path d="M438.929 263.249L439.848 252.753L445.241 253.227C446.24 253.315 446.998 253.468 447.511 253.686C448.024 253.904 448.423 254.26 448.706 254.754C448.989 255.248 449.101 255.829 449.043 256.497C448.992 257.08 448.824 257.571 448.54 257.972C448.255 258.373 447.883 258.685 447.427 258.91C447.137 259.052 446.746 259.158 446.255 259.225C446.628 259.388 446.898 259.542 447.063 259.686C447.175 259.782 447.331 259.981 447.533 260.284C447.734 260.586 447.866 260.816 447.929 260.975L449.23 264.155L445.574 263.833L444.125 260.474C443.942 260.039 443.77 259.753 443.61 259.613C443.391 259.431 443.134 259.326 442.838 259.3L442.552 259.275L442.179 263.536L438.929 263.249ZM442.726 257.292L444.09 257.412C444.237 257.425 444.527 257.402 444.96 257.344C445.178 257.319 445.362 257.225 445.514 257.06C445.665 256.896 445.75 256.699 445.77 256.47C445.8 256.131 445.716 255.861 445.517 255.661C445.319 255.46 444.925 255.335 444.334 255.282L442.912 255.157L442.726 257.292Z" fill="#383192"/>
<path d="M411.034 270.845L414.13 270.922C414.153 271.429 414.255 271.823 414.437 272.103C414.733 272.557 415.19 272.812 415.809 272.866C416.271 272.907 416.637 272.829 416.906 272.634C417.175 272.439 417.322 272.198 417.347 271.912C417.371 271.64 417.273 271.386 417.054 271.15C416.835 270.915 416.3 270.663 415.45 270.396C414.059 269.951 413.084 269.437 412.525 268.855C411.962 268.271 411.716 267.569 411.788 266.748C411.835 266.209 412.036 265.713 412.39 265.261C412.744 264.808 413.246 264.473 413.896 264.253C414.546 264.034 415.417 263.972 416.507 264.068C417.845 264.185 418.844 264.525 419.502 265.085C420.161 265.646 420.509 266.476 420.547 267.576L417.482 267.487C417.442 267.008 417.302 266.649 417.061 266.411C416.82 266.174 416.471 266.035 416.014 265.995C415.638 265.961 415.347 266.017 415.143 266.16C414.939 266.303 414.826 266.489 414.806 266.718C414.792 266.885 414.857 267.043 415.002 267.19C415.143 267.342 415.493 267.503 416.054 267.672C417.442 268.102 418.428 268.499 419.013 268.866C419.597 269.233 420.009 269.66 420.247 270.147C420.485 270.635 420.579 271.165 420.529 271.737C420.47 272.41 420.23 273.015 419.809 273.55C419.388 274.086 418.831 274.471 418.139 274.706C417.446 274.941 416.593 275.014 415.579 274.925C413.798 274.768 412.595 274.316 411.969 273.568C411.344 272.82 411.032 271.912 411.034 270.845Z" fill="#383192"/>
<path d="M428.45 274.128L424.776 273.805L424.114 275.493L420.81 275.203L425.664 265.052L429.194 265.362L432.211 276.205L428.823 275.907L428.45 274.128ZM427.977 271.799L427.151 267.925L425.677 271.597L427.977 271.799Z" fill="#383192"/>
<path d="M434.157 265.799L437.393 266.083L436.701 273.995L441.751 274.439L441.525 277.023L433.239 276.295L434.157 265.799Z" fill="#383192"/>
<path d="M443.907 266.656L452.579 267.418L452.383 269.659L446.954 269.182L446.808 270.85L451.844 271.293L451.657 273.434L446.621 272.991L446.44 275.06L452.026 275.551L451.818 277.928L442.989 277.152L443.907 266.656Z" fill="#383192"/>
</g>
</svg>
