<svg width="193" height="34" viewBox="0 0 193 34" fill="none" xmlns="http://www.w3.org/2000/svg">
<path fill-rule="evenodd" clip-rule="evenodd" d="M70.7566 4.32715V34H76.1763V4.32715H70.7566ZM50.6081 32.6414C52.028 33.5471 53.622 34 55.3901 34C56.7832 34 58.029 33.7118 59.1274 33.1354C59.8576 32.734 60.4872 32.2416 61.0161 31.6582V33.5883H66.2402V13.7025H61.0161V15.6143C60.4872 15.0249 59.8576 14.5386 59.1274 14.1554C58.029 13.579 56.7832 13.2908 55.3901 13.2908C53.622 13.2908 52.028 13.7437 50.6081 14.6495C49.1882 15.5553 48.0764 16.7904 47.2727 18.3549C46.4689 19.9194 46.0671 21.6898 46.0671 23.666C46.0671 25.6148 46.4689 27.3714 47.2727 28.9359C48.0764 30.5004 49.1882 31.7356 50.6081 32.6414ZM59.9311 27.5361C59.0202 28.5242 57.8281 29.0183 56.3546 29.0183C55.3901 29.0183 54.5329 28.7987 53.7827 28.3595C53.0594 27.8929 52.4834 27.2616 52.0547 26.4657C51.6529 25.6422 51.452 24.6953 51.452 23.6248C51.452 22.5818 51.6529 21.6623 52.0547 20.8664C52.4834 20.0429 53.0594 19.4116 53.7827 18.9725C54.5329 18.5059 55.3901 18.2726 56.3546 18.2726C57.3458 18.2726 58.2031 18.5059 58.9265 18.9725C59.6766 19.4116 60.2526 20.0429 60.6545 20.8664C61.0831 21.6623 61.2974 22.5818 61.2974 23.6248C61.2974 25.2168 60.842 26.5206 59.9311 27.5361ZM34.8502 34C32.8347 34 31.0447 33.5617 29.4801 32.6851C27.9155 31.7812 26.6691 30.5485 25.7409 28.9871C24.8393 27.4257 24.3885 25.6451 24.3885 23.6454C24.3885 21.6731 24.826 19.92 25.7011 18.3859C26.6028 16.8245 27.8227 15.5918 29.3608 14.6879C30.8989 13.7565 32.6093 13.2908 34.4922 13.2908C36.3485 13.2908 37.9794 13.7291 39.3849 14.6057C40.8169 15.4549 41.9307 16.6328 42.7263 18.1394C43.5484 19.6186 43.9594 21.3033 43.9594 23.1934C43.9594 23.5495 43.9329 23.9194 43.8799 24.3029C43.8534 24.659 43.7871 25.0699 43.681 25.5355L29.63 25.5713C29.7318 25.9806 29.8674 26.3659 30.037 26.7271C30.4878 27.6037 31.1243 28.2886 31.9464 28.7816C32.7684 29.2473 33.7231 29.4802 34.8104 29.4802C35.7916 29.4802 36.68 29.3158 37.4756 28.9871C38.2711 28.631 38.9606 28.1105 39.544 27.4257L42.607 30.5896C41.6788 31.7127 40.5385 32.5619 39.186 33.1371C37.8601 33.7124 36.4148 34 34.8502 34ZM29.9972 20.5226C29.8486 20.84 29.7277 21.1803 29.6346 21.5436L38.9354 21.5157C38.8304 21.0443 38.6885 20.6174 38.5098 20.235C38.1651 19.4406 37.6479 18.8379 36.9584 18.427C36.2955 17.9887 35.4734 17.7696 34.4922 17.7696C33.4579 17.7696 32.5563 18.0161 31.7872 18.5092C31.0182 18.9749 30.4215 19.646 29.9972 20.5226ZM5.51947 21.8491V34H0V4.94533H4.05844H5.51947H11.1607C13.0005 4.94533 14.6104 5.3173 15.9902 6.06123C17.3972 6.77761 18.4794 7.76952 19.237 9.03696C20.0216 10.3044 20.4139 11.7647 20.4139 13.4179C20.4139 15.1262 20.0216 16.614 19.237 17.8815C18.4794 19.1214 17.3972 20.0995 15.9902 20.8159C15.0175 21.2921 13.9348 21.6037 12.7422 21.7507L22.2808 34H15.5844L6.47855 21.8491H5.51947ZM5.51947 9.53291V17.4682H10.6737C12.0265 17.4682 13.0682 17.1238 13.7987 16.435C14.5563 15.7186 14.935 14.7404 14.935 13.5006C14.935 12.3709 14.5563 11.4341 13.7987 10.6901C13.0682 9.91866 12.0265 9.53291 10.6737 9.53291H5.51947ZM128.623 34V22.3642C128.623 21.16 128.255 20.1799 127.518 19.4238C126.781 18.6677 125.826 18.2896 124.652 18.2896C123.888 18.2896 123.206 18.4576 122.605 18.7937C122.005 19.1297 121.527 19.6058 121.172 20.2219C120.845 20.838 120.681 21.5521 120.681 22.3642V34H115.318V13.7109H120.681V15.6123C121.17 15.0978 121.729 14.66 122.36 14.299C123.56 13.6269 124.911 13.2908 126.412 13.2908C127.859 13.2908 129.155 13.6689 130.302 14.425C131.448 15.1531 132.348 16.1193 133.003 17.3234C133.658 18.4996 133.986 19.7738 133.986 21.146V34H128.623ZM137.599 13.7109V34H142.989V22.0282C142.989 21.2441 143.154 20.5719 143.483 20.0119C143.812 19.4518 144.265 19.0317 144.841 18.7517C145.417 18.4436 146.062 18.2896 146.775 18.2896C147.845 18.2896 148.736 18.6256 149.45 19.2978C150.19 19.9418 150.561 20.852 150.561 22.0282V34H155.951V22.0282C155.951 21.2441 156.116 20.5719 156.445 20.0119C156.774 19.4518 157.227 19.0317 157.803 18.7517C158.406 18.4436 159.051 18.2896 159.737 18.2896C160.807 18.2896 161.698 18.6256 162.411 19.2978C163.152 19.9418 163.522 20.852 163.522 22.0282V34H168.913V21.146C168.913 19.5218 168.57 18.1216 167.884 16.9454C167.198 15.7692 166.265 14.8731 165.086 14.257C163.906 13.6129 162.576 13.2908 161.095 13.2908C159.613 13.2908 158.269 13.6269 157.062 14.299C156.102 14.8111 155.29 15.5002 154.625 16.3664C154.01 15.4764 153.231 14.7733 152.289 14.257C151.164 13.6129 149.916 13.2908 148.544 13.2908C147.091 13.2908 145.788 13.6129 144.635 14.257C144.02 14.5859 143.472 14.9906 142.989 15.4712V13.7109H137.599ZM177.555 32.6441C179.113 33.548 180.855 34 182.783 34C184.71 34 186.439 33.548 187.971 32.6441C189.528 31.7127 190.756 30.4663 191.654 28.9049C192.551 27.3161 193 25.5492 193 23.6043C193 21.6594 192.551 19.92 191.654 18.3859C190.756 16.8245 189.528 15.5918 187.971 14.6879C186.439 13.7565 184.697 13.2908 182.743 13.2908C180.842 13.2908 179.113 13.7565 177.555 14.6879C175.998 15.5918 174.77 16.8245 173.872 18.3859C172.975 19.92 172.526 21.6594 172.526 23.6043C172.526 25.5492 172.975 27.3161 173.872 28.9049C174.796 30.4663 176.024 31.7127 177.555 32.6441ZM185.317 28.3296C184.578 28.7679 183.72 28.9871 182.743 28.9871C181.793 28.9871 180.948 28.7679 180.209 28.3296C179.469 27.864 178.888 27.2339 178.466 26.4395C178.044 25.6177 177.832 24.6864 177.832 23.6454C177.832 22.6045 178.044 21.6868 178.466 20.8924C178.888 20.098 179.469 19.4817 180.209 19.0434C180.948 18.5777 181.793 18.3449 182.743 18.3449C183.72 18.3449 184.578 18.5777 185.317 19.0434C186.056 19.4817 186.637 20.098 187.06 20.8924C187.482 21.6868 187.693 22.6045 187.693 23.6454C187.693 24.6864 187.482 25.6177 187.06 26.4395C186.664 27.2339 186.083 27.864 185.317 28.3296Z" fill="#383192"/>
<path fill-rule="evenodd" clip-rule="evenodd" d="M111.287 8.74711C109.843 5.89457 106.441 3.89099 102.475 3.89099C98.0214 3.89099 94.2797 6.41683 93.222 9.83419L93.5118 9.74438C94.42 7.00737 96.9623 5.03692 99.9566 5.03692C103.713 5.03692 106.758 8.13778 106.758 11.9629C106.758 15.788 103.713 18.8888 99.9566 18.8888C98.1288 18.8888 96.4694 18.1546 95.2473 16.9599L95.2263 16.9623C96.9781 18.6523 99.5757 19.7227 102.475 19.7227C106.525 19.7227 109.986 17.6339 111.376 14.6854C111.587 13.726 111.704 12.7917 111.704 11.8999C111.704 10.8085 111.559 9.75131 111.287 8.74711Z" fill="url(#paint0_linear_443_13739)"/>
<path fill-rule="evenodd" clip-rule="evenodd" d="M93.5081 9.74583L88.2199 11.3847C88.4865 5.0531 93.641 0 99.9572 0C105.701 0 110.485 4.17902 111.505 9.69816C110.178 6.31178 106.654 3.89084 102.516 3.89084C99.6581 3.89084 97.0937 5.04508 95.3432 6.87439C94.5333 7.63627 93.9056 8.5961 93.5344 9.67846C93.5255 9.70088 93.5168 9.72333 93.5081 9.74583Z" fill="url(#paint1_linear_443_13739)"/>
<path fill-rule="evenodd" clip-rule="evenodd" d="M111.377 14.6859C109.987 17.634 106.526 19.7223 102.476 19.7223C99.5765 19.7223 96.979 18.652 95.2271 16.9621L89.4228 17.6046C92.425 25.5531 99.957 33.9999 99.957 33.9999C99.957 33.9999 109.474 23.3269 111.377 14.6859Z" fill="url(#paint2_linear_443_13739)"/>
<path fill-rule="evenodd" clip-rule="evenodd" d="M102.621 10.0989L103.845 11.2405C103.983 11.381 103.983 11.6093 103.845 11.7498C103.776 11.8201 103.587 11.943 103.362 11.7674L99.8096 8.41286L96.2568 11.7498C96.1188 11.8903 95.8946 11.8728 95.7739 11.7323C95.6359 11.5917 95.6532 11.381 95.7912 11.2405L99.5854 7.67521C99.7234 7.55227 99.9131 7.55227 100.051 7.67521L101.431 8.97487V8.2021C101.431 8.0616 101.552 7.93866 101.689 7.93866H102.362C102.5 7.93866 102.621 8.0616 102.621 8.2021V10.0989ZM96.4639 12.0308L99.8097 8.88706C99.8097 8.88706 103.138 12.0308 103.156 12.0308V16.0176H100.672V13.7696H98.9474V16.0176H96.4639V12.0308Z" fill="#383192"/>
<defs>
<linearGradient id="paint0_linear_443_13739" x1="103.373" y1="18.2862" x2="95.3803" y2="2.76743" gradientUnits="userSpaceOnUse">
<stop stop-color="#3AC5EC"/>
<stop offset="1" stop-color="#C547E9"/>
</linearGradient>
<linearGradient id="paint1_linear_443_13739" x1="89.7091" y1="5.0844" x2="102.858" y2="18.004" gradientUnits="userSpaceOnUse">
<stop stop-color="#3AC5EC"/>
<stop offset="1" stop-color="#C547E9"/>
</linearGradient>
<linearGradient id="paint2_linear_443_13739" x1="99.5198" y1="34.0742" x2="112.932" y2="15.781" gradientUnits="userSpaceOnUse">
<stop stop-color="#3AC5EC"/>
<stop offset="1" stop-color="#C547E9"/>
</linearGradient>
</defs>
</svg>
