<svg width="31" height="31" viewBox="0 0 31 31" fill="none" xmlns="http://www.w3.org/2000/svg">
<path d="M20.6903 24.1154L28.7089 20.4941L27.8368 29.2492L24.9328 27.163C22.2685 29.3222 18.961 30.5 15.5 30.5C12.3933 30.5 9.41254 29.5585 6.87991 27.7772C4.40466 26.0361 2.53245 23.6257 1.46593 20.8065C0.824988 19.1124 0.5 17.327 0.5 15.5C0.5 15.0127 0.895082 14.6176 1.38235 14.6176C1.86962 14.6176 2.26471 15.0127 2.26471 15.5C2.26471 17.1129 2.55129 18.6881 3.11642 20.182C5.05181 25.298 10.0284 28.7353 15.5 28.7353C18.39 28.7353 21.1584 27.8047 23.4394 26.0903L20.6903 24.1154ZM15.5 0.5C12.039 0.5 8.73158 1.67777 6.06737 3.83692L3.16322 1.75068L2.29111 10.5057L10.3097 6.88456L7.56059 4.90965C9.84165 3.19534 12.6101 2.26471 15.5 2.26471C22.798 2.26471 28.7353 8.20202 28.7353 15.5C28.7353 15.9873 29.1304 16.3824 29.6176 16.3824C30.1049 16.3824 30.5 15.9873 30.5 15.5C30.5 7.22897 23.771 0.5 15.5 0.5Z" fill="#00B227"/>
</svg>
