<svg width="25" height="25" viewBox="0 0 30 30" fill="none" xmlns="http://www.w3.org/2000/svg">
<path d="M26.2286 7.05334V13.3883H19.8936" stroke="#fff" stroke-width="2.5" stroke-linecap="round" stroke-linejoin="round"/>
<path d="M3 23.9467V17.6117H9.335" stroke="#fff" stroke-width="2.5" stroke-linecap="round" stroke-linejoin="round"/>
<path d="M5.65014 12.3325C6.18563 10.8193 7.09572 9.46634 8.2955 8.39996C9.49527 7.33359 10.9456 6.58852 12.5112 6.23428C14.0769 5.88004 15.7067 5.92818 17.2487 6.3742C18.7906 6.82021 20.1945 7.64958 21.3293 8.7849L26.2283 13.3883M3 17.6117L7.89907 22.2151C9.03382 23.3504 10.4377 24.1798 11.9797 24.6258C13.5216 25.0718 15.1515 25.12 16.7171 24.7657C18.2827 24.4115 19.7331 23.6664 20.9328 22.6C22.1326 21.5337 23.0427 20.1807 23.5782 18.6675" stroke="#fff" stroke-width="2.5" stroke-linecap="round" stroke-linejoin="round"/>
</svg>
