<svg width="32" height="32" viewBox="0 0 32 32" fill="none" xmlns="http://www.w3.org/2000/svg">
<path fill-rule="evenodd" clip-rule="evenodd" d="M0 32H5.36131C5.68343 29.6143 6.10262 27.6604 6.5601 26.279L7.04187 24.8237L7.06389 32H13.5713C13.6716 31.2649 13.7807 30.4588 13.8921 29.6245C14.2986 26.564 14.6749 23.8635 14.7201 23.6235L14.7954 23.1734H16.045H17.2795L17.6004 25.5276C17.6121 24.358 17.8796 23.1881 18.4082 22.1054C19.6445 19.5742 22.1172 17.8743 24.9134 17.629C25.2366 17.6005 25.567 17.5932 25.8986 17.6062C25.399 17.2712 24.8697 16.9917 24.3104 16.7673C23.4528 16.4225 23.3921 16.4222 16.3168 16.3923L16.3009 16.3922C10.4895 16.3622 8.99907 16.4073 8.36674 16.5723C4.21146 17.7125 1.51655 21.9582 0.35729 29.2645C0.207454 30.1823 0.089868 31.0706 0 32ZM20.7798 32C20.7384 31.9692 20.6972 31.9381 20.6561 31.9064C20.0294 31.4227 19.2597 30.5676 18.8169 29.8556C18.419 29.2182 18.1178 28.5369 17.9146 27.8328L18.1527 29.5795L18.4827 32H20.7798ZM17.7914 21.3731L17.4752 20.2029L17.1591 19.0477H15.9998H14.8405L14.5695 20.2629C14.2986 21.4631 14.2986 21.4931 14.5695 21.6882C15.3675 22.2733 16.7676 22.2433 17.4903 21.6282L17.7914 21.3731ZM9.4658 3.86507C10.2487 2.3198 12.0252 0.819543 13.7114 0.279451C14.9158 -0.095614 17.0236 -0.0956139 18.2732 0.294453C23.377 1.85472 25.0782 8.50088 21.3595 12.3565C19.9142 13.8568 18.1678 14.5769 15.9998 14.5919C10.4444 14.6069 6.9365 8.84594 9.4658 3.86507ZM22.184 31.4114C22.5653 31.6595 23.0667 31.5409 23.3067 31.1494C23.5467 30.7552 23.432 30.2368 23.0533 29.9887C21.6587 29.0788 20.8267 27.5183 20.8267 25.8171C20.8267 23.0986 22.968 20.8846 25.6 20.8846C28.2293 20.8846 30.3707 23.0958 30.3707 25.8171C30.3707 27.5376 29.5253 29.1064 28.1093 30.0135C27.728 30.2589 27.608 30.7772 27.8453 31.1742C28.0827 31.5685 28.584 31.6926 28.968 31.4472C30.8667 30.2285 32 28.1248 32 25.8144C32 22.1667 29.1307 19.2 25.6027 19.2C22.072 19.2 19.2 22.1667 19.2 25.8144C19.2 28.1 20.3147 30.1899 22.184 31.4114ZM25.6 25.0064C25.1567 25.0064 24.8 25.3824 24.8 25.8435V31.1629C24.8 31.6267 25.1593 32 25.6 32C26.0433 32 26.4 31.624 26.4 31.1629V25.8435C26.4 25.3797 26.0433 25.0064 25.6 25.0064Z" fill="white"/>
</svg>
