<svg width="16" height="16" viewBox="0 0 16 16" fill="none" xmlns="http://www.w3.org/2000/svg">
<g id="Watch">
<path id="Union" fill-rule="evenodd" clip-rule="evenodd" d="M8 0C10.1424 0 12.1492 0.833898 13.661 2.33898C16.7797 5.46441 16.7797 10.5356 13.661 13.6542C12.1492 15.1661 10.1356 16 8 16C5.86441 16 3.85085 15.1661 2.34576 13.661C0.833898 12.1492 0 10.1356 0 8C0 5.86441 0.833898 3.85085 2.34576 2.34576C3.85085 0.833898 5.86441 0 8 0ZM8 14.9627C9.85763 14.9627 11.6068 14.2373 12.922 12.922C15.6339 10.2102 15.6339 5.78983 12.922 3.08475C11.6068 1.76949 9.85763 1.04407 8 1.04407C6.14237 1.04407 4.4 1.76271 3.08475 3.07797C1.76949 4.39322 1.04407 6.14237 1.04407 8C1.04407 9.85763 1.76271 11.6068 3.07797 12.922C4.39322 14.2373 6.14237 14.9627 8 14.9627ZM8.69131 8.35928L11.4574 9.95928C11.7761 10.1423 11.9523 10.5491 11.7693 10.8678C11.5862 11.1864 11.2405 11.2949 10.9218 11.1118L8.16928 9.44402C8.14986 9.43207 8.12716 9.41914 8.10298 9.40536C8.01738 9.3566 7.91326 9.29729 7.87098 9.23385C7.66758 9.1186 7.3625 8.90843 7.3625 8.66436V3.99995C7.3625 3.63385 7.6608 3.33555 8.02691 3.33555C8.39301 3.33555 8.69131 3.63385 8.69131 3.99995V8.35928Z" fill="#17213A"/>
</g>
</svg>
