<svg width="60" height="60" viewBox="0 0 60 60" fill="none" xmlns="http://www.w3.org/2000/svg">
<path fill-rule="evenodd" clip-rule="evenodd" d="M28.6129 0.279741C28.2159 0.434109 21.8626 5.55032 14.4817 11.6369C0.887586 22.8617 0 23.6997 0 25.089C0.0233575 26.0372 0.864228 27.4927 1.63503 27.9558C2.0321 28.1763 2.87297 28.4189 3.48027 28.5071C4.88172 28.6836 6.07295 29.4113 6.58682 30.4037C6.96054 31.1093 7.00725 32.1017 7.00725 41.43C7.00725 51.2655 7.03061 51.7065 7.4744 52.4122C7.73133 52.8092 8.26856 53.3164 8.68899 53.5589C9.41307 53.9779 9.88022 54 16.07 54H22.6568V45.62C22.6568 36.424 22.6801 36.2256 24.0115 35.7183C24.4787 35.5199 26.3706 35.4758 30.4348 35.5199L30.4525 35.5201C36.1342 35.586 36.1814 35.5866 36.7647 36.1153L37.372 36.6446V43.1763L41.7016 40.084L41.7113 39.945C41.7417 39.505 41.7824 38.8833 41.8231 38.1578C41.9046 36.703 41.9852 34.847 41.9852 33.2067C41.9852 32.278 42.2068 30.8604 42.5574 29.6714C42.7326 29.0774 42.9614 28.4651 43.2544 27.9753C43.4004 27.7312 43.5935 27.4643 43.8483 27.2466C44.1071 27.0255 44.4978 26.8 45 26.8C45.4966 26.8 45.8854 27.0198 46.1457 27.2393C46.4015 27.455 46.5955 27.7198 46.7424 27.9626C47.0369 28.4493 47.2665 29.0579 47.442 29.6495C47.7937 30.8351 48.0147 32.2529 48.0147 33.2067C48.0147 34.9376 48.0954 36.7939 48.1768 38.2243C48.2175 38.9379 48.2581 39.5422 48.2885 39.9676L48.2968 40.0829L52.5332 43.1086C52.5398 42.5395 52.5468 41.9365 52.5544 41.2977C52.6712 30.977 52.6945 30.6462 53.1617 30.0508C53.9792 28.9923 54.7033 28.6394 56.2916 28.5071C57.9733 28.3528 58.7441 27.9999 59.4215 27.1619C59.9821 26.4342 60.1923 24.67 59.7952 23.7658C59.4449 23.016 32.9341 1.02953 31.5326 0.367951C30.5983 -0.0951543 29.594 -0.117207 28.6129 0.279741ZM37.372 54V50.0042L38.9053 49.4234L42.0788 48.7803C42.0803 49.257 42.0849 49.8581 42.102 50.509C42.1308 51.6028 42.1956 52.8999 42.3551 54H37.372ZM50.8493 53.5589C50.3509 53.8413 49.947 53.9451 47.6375 53.9815C47.7914 52.8877 47.8562 51.5995 47.8862 50.5105C47.9041 49.8586 47.9099 49.2566 47.9124 48.7796L51.0948 49.4235L52.3951 49.916C52.2921 51.9674 52.099 52.6394 51.6596 53.0439C51.4861 53.2037 51.2742 53.3217 51.0144 53.4664C50.9614 53.496 50.9064 53.5266 50.8493 53.5589ZM47.2768 47.4267C47.2768 47.4267 46.7478 47.2667 46.721 47.7267C46.7159 47.8144 46.7151 48.0364 46.7141 48.3535C46.7097 49.6981 46.6998 52.7531 46.3259 54.5333C46.2841 54.7369 46.3809 54.8088 46.4956 54.894C46.5462 54.9315 46.6002 54.9716 46.6473 55.0267L50.1228 57.2133C50.2366 57.34 50.2902 57.7 50.2835 57.7L50.3504 58.9333L45.7969 57.8667L44.9933 60L44.1897 57.8667L39.6362 58.9333L39.7031 57.7C39.7031 57.7 39.7567 57.34 39.8705 57.2133L43.346 55.0267C43.3931 54.9716 43.4471 54.9315 43.4977 54.894C43.6124 54.8088 43.7092 54.7369 43.6674 54.5333C43.2827 52.7531 43.2794 49.6981 43.278 48.3534C43.2777 48.0364 43.2774 47.8144 43.2723 47.7267C43.2455 47.2667 42.7165 47.4267 42.7165 47.4267L38.5714 48.2667L30 51.5133C30 49.98 30.154 49.8 30.6295 49.4667L42.8571 40.7333C42.8571 40.7333 43.1853 36.5533 43.1853 33.2067C43.1853 31.6267 43.9754 28 45 28C46.0246 28 46.8147 31.5733 46.8147 33.2067C46.8147 36.7333 47.1429 40.7333 47.1429 40.7333L59.3705 49.4667L59.3865 49.4786C59.7527 49.7517 60 49.9361 60 51.5133L51.4286 48.2667L47.2768 47.4267Z" fill="#F3F4F6"/>
</svg>
