<svg width="24" height="24" viewBox="0 0 24 24" fill="none" xmlns="http://www.w3.org/2000/svg">
<path fill-rule="evenodd" clip-rule="evenodd" d="M21.7143 12C21.7143 17.3651 17.3651 21.7143 12 21.7143C6.63494 21.7143 2.28571 17.3651 2.28571 12C2.28571 6.63495 6.63494 2.28571 12 2.28571C17.3651 2.28571 21.7143 6.63495 21.7143 12ZM24 12C24 18.6274 18.6274 24 12 24C5.37258 24 0 18.6274 0 12C0 5.37258 5.37258 0 12 0C18.6274 0 24 5.37258 24 12ZM17.9085 15.3598C18.266 14.8907 18.0747 14.2346 17.5593 13.948C17.0438 13.6614 16.4008 13.8563 16.0168 14.3039C15.658 14.722 15.2347 15.0832 14.7609 15.3729C13.982 15.8491 13.0931 16.1158 12.1806 16.1469C11.2682 16.1781 10.3632 15.9727 9.55359 15.5507C9.06116 15.2941 8.61421 14.9626 8.22773 14.5699C7.81405 14.1496 7.15923 13.999 6.66453 14.32C6.16984 14.6411 6.0238 15.3087 6.41244 15.7523C7.01732 16.4428 7.74704 17.0175 8.56646 17.4446C9.70274 18.0368 10.9729 18.3251 12.2535 18.2814C13.5342 18.2377 14.7817 17.8634 15.8749 17.195C16.6633 16.713 17.3521 16.0898 17.9085 15.3598ZM9.71429 9.71429C9.71429 10.6611 8.94678 11.4286 8 11.4286C7.05322 11.4286 6.28571 10.6611 6.28571 9.71429C6.28571 8.76751 7.05322 8 8 8C8.94678 8 9.71429 8.76751 9.71429 9.71429ZM16 11.4286C16.9468 11.4286 17.7143 10.6611 17.7143 9.71429C17.7143 8.76751 16.9468 8 16 8C15.0532 8 14.2857 8.76751 14.2857 9.71429C14.2857 10.6611 15.0532 11.4286 16 11.4286Z" fill="#A4A4A4"/>
</svg>
