<svg width="32" height="32" viewBox="0 0 32 32" fill="none" xmlns="http://www.w3.org/2000/svg">
<path fill-rule="evenodd" clip-rule="evenodd" d="M5.36131 32H0C0.089868 31.0706 0.207454 30.1823 0.35729 29.2645C1.51655 21.9582 4.21146 17.7125 8.36674 16.5723C8.99907 16.4073 10.4895 16.3622 16.3009 16.3923L16.3168 16.3923C23.3921 16.4223 23.4528 16.4225 24.3104 16.7673C28.623 18.4979 31.155 23.4999 32 32H26.6341C26.4216 29.8412 26.0543 28.2327 25.4395 26.324L24.9577 24.8237L24.9357 32H18.4827L18.1527 29.5795L17.2795 23.1734H16.045H14.7954L14.7201 23.6235C14.6749 23.8636 14.2986 26.564 13.8921 29.6246C13.7807 30.4588 13.6716 31.2649 13.5713 32H7.06389L7.04187 24.8237L6.5601 26.279C6.10262 27.6604 5.68343 29.6143 5.36131 32ZM17.4752 20.2029L17.7914 21.3731L17.4903 21.6282C16.7676 22.2433 15.3675 22.2733 14.5695 21.6882C14.2986 21.4931 14.2986 21.4631 14.5695 20.2629L14.8405 19.0477H15.9998H17.1591L17.4752 20.2029ZM13.7114 0.279451C12.0252 0.819544 10.2487 2.3198 9.4658 3.86507C6.9365 8.84594 10.4444 14.6069 15.9998 14.5919C18.1678 14.5769 19.9142 13.8568 21.3595 12.3566C25.0782 8.50088 23.377 1.85472 18.2732 0.294453C17.0236 -0.095614 14.9158 -0.095614 13.7114 0.279451Z" fill="#9E9673"/>
</svg>
