<svg width="32" height="32" viewBox="0 0 32 32" fill="none" xmlns="http://www.w3.org/2000/svg">
<path d="M13.3333 4V28C13.3333 29.0609 12.9119 30.0783 12.1618 30.8284C11.4116 31.5786 10.3942 32 9.33333 32H4C2.93913 32 1.92172 31.5786 1.17157 30.8284C0.421427 30.0783 0 29.0609 0 28V4C0 2.93913 0.421427 1.92172 1.17157 1.17157C1.92172 0.421427 2.93913 0 4 0H9.33333C10.3942 0 11.4116 0.421427 12.1618 1.17157C12.9119 1.92172 13.3333 2.93913 13.3333 4ZM28 20.9333H20C18.9391 20.9333 17.9217 21.3548 17.1716 22.1049C16.4214 22.8551 16 23.8725 16 24.9333V28C16 29.0609 16.4214 30.0783 17.1716 30.8284C17.9217 31.5786 18.9391 32 20 32H28C29.0609 32 30.0783 31.5786 30.8284 30.8284C31.5786 30.0783 32 29.0609 32 28V24.9333C32 23.8725 31.5786 22.8551 30.8284 22.1049C30.0783 21.3548 29.0609 20.9333 28 20.9333ZM28 0H20C18.9391 0 17.9217 0.421427 17.1716 1.17157C16.4214 1.92172 16 2.93913 16 4V14.2667C16 15.3275 16.4214 16.3449 17.1716 17.0951C17.9217 17.8452 18.9391 18.2667 20 18.2667H28C29.0609 18.2667 30.0783 17.8452 30.8284 17.0951C31.5786 16.3449 32 15.3275 32 14.2667V4C32 2.93913 31.5786 1.92172 30.8284 1.17157C30.0783 0.421427 29.0609 0 28 0Z" fill="#6552A8"/>
</svg>
