<svg width="32" height="32" viewBox="0 0 32 32" fill="none" xmlns="http://www.w3.org/2000/svg">
<path fill-rule="evenodd" clip-rule="evenodd" d="M17.0097 24.7138H5.02412C2.24936 24.7138 0 22.4656 0 19.6923V5.02154C0 2.2482 2.24936 0 5.02412 0H26.9759C29.7342 0 32 2.2482 32 5.02154V19.6923C32 22.4656 29.7506 24.7138 26.9759 24.7138H26.0072V30.7692C26.0072 31.2615 25.7116 31.7046 25.2519 31.9015C25.0877 31.9672 24.94 32 24.7758 32C24.4638 32 24.1355 31.8687 23.9056 31.639L17.0097 24.7138ZM5.02412 2.46154C3.61211 2.46154 2.4628 3.61026 2.4628 5.02154V19.6923C2.4628 21.1036 3.61211 22.2523 5.02412 22.2523H17.5187C17.8471 22.2523 18.1591 22.3836 18.3889 22.6133L23.5444 27.7826V23.4831C23.5444 22.8103 24.1026 22.2523 24.7758 22.2523H26.9759C28.3879 22.2523 29.5372 21.1036 29.5372 19.6923V5.02154C29.5372 3.61026 28.3879 2.46154 26.9759 2.46154H5.02412ZM18.1102 12.3736C18.1102 13.5387 17.1743 14.4741 16.0086 14.4741C14.8429 14.4741 13.907 13.5223 13.907 12.3736C13.907 11.2085 14.8429 10.2731 16.0086 10.2731C17.1743 10.2731 18.1102 11.2085 18.1102 12.3736ZM25.8105 12.3736C25.8105 13.5387 24.8747 14.4741 23.709 14.4741C22.5432 14.4741 21.6074 13.5223 21.6074 12.3736C21.6074 11.2085 22.5432 10.2731 23.709 10.2731C24.8747 10.2731 25.8105 11.2085 25.8105 12.3736ZM10.4098 12.3736C10.4098 13.5387 9.47397 14.4741 8.30824 14.4741C7.14251 14.4741 6.19023 13.5223 6.20665 12.3736C6.20665 11.2085 7.14251 10.2731 8.30824 10.2731C9.47397 10.2731 10.4098 11.2085 10.4098 12.3736Z" fill="#708E69"/>
</svg>
