<svg width="32" height="32" viewBox="0 0 32 32" fill="none" xmlns="http://www.w3.org/2000/svg">
<path fill-rule="evenodd" clip-rule="evenodd" d="M28.5688 5.8528L28.6046 5.87075L31.097 7.11261C31.4597 7.29352 31.6773 7.42442 31.7498 7.50531C32.0811 7.87474 32.0965 8.47016 31.7184 8.81355C31.6269 8.89668 31.4968 8.98026 31.3284 9.06424L17.8431 15.7794C17.4791 15.9608 17.187 16.0843 16.9671 16.1501C16.0502 16.4242 15.1721 16.2835 14.3167 15.8568C9.82266 13.6155 5.23051 11.3282 0.540062 8.9949C-0.190735 8.63085 -0.170065 7.64936 0.542748 7.29462C5.10161 5.02756 9.66266 2.75586 14.226 0.479485C14.5891 0.298128 14.9037 0.17386 15.1694 0.106762C15.9895 -0.101288 16.8021 -0.0052587 17.6071 0.394808C21.2629 2.21244 24.9196 4.03455 28.5688 5.8528ZM13.5863 23.3152C11.6321 22.3482 9.68276 21.3794 7.72963 20.4088C5.42111 19.2616 3.10729 18.1117 0.77395 16.9589C0.477888 16.8122 0.290794 16.6874 0.212587 16.5845C-0.190817 16.0565 0.00653127 15.4061 0.579939 15.1235C1.35631 14.7405 2.11087 14.367 2.84378 14.003C3.43884 13.7075 4.01965 13.4181 4.58606 13.1351C4.59225 13.132 4.59884 13.1298 4.60551 13.1285C4.6086 13.1279 4.61178 13.1274 4.61495 13.1271L4.62138 13.1269C4.63367 13.1269 4.64571 13.1297 4.6567 13.1351L7.95807 14.7752C9.69424 15.6378 11.4154 16.4932 13.1217 17.3413C13.6626 17.6104 14.0686 17.7889 14.3397 17.8767C15.7389 18.332 17.1266 18.2172 18.5032 17.5322C21.5006 16.0408 24.4556 14.5731 27.3681 13.1291C27.3837 13.1211 27.3992 13.1211 27.4148 13.1291C28.6722 13.7591 29.9902 14.4139 31.3689 15.0936C31.8256 15.3183 32.0863 15.6887 31.9743 16.2035C31.9138 16.4806 31.7463 16.6876 31.4716 16.8246C27.3408 18.8844 22.8144 21.1364 17.8925 23.5805C17.4325 23.8089 17.0705 23.954 16.8064 24.0161C16.1162 24.1779 15.4429 24.1371 14.7864 23.8937C14.7046 23.8636 14.3046 23.6708 13.5863 23.3152ZM18.3863 25.434C17.1778 26.0391 15.8998 26.1571 14.5525 25.7878C14.2111 25.6942 13.8215 25.5377 13.3836 25.3183C10.4579 23.8534 7.54701 22.3988 4.65108 20.9544C4.63017 20.9442 4.6095 20.9442 4.58907 20.9544L2.19608 22.1504L0.541202 22.9771C-0.176901 23.3363 -0.182272 24.3243 0.536482 24.6815C4.96155 26.8843 9.41421 29.1095 13.8944 31.357C14.3584 31.5897 14.7054 31.7454 14.9351 31.8239C15.5762 32.0437 16.2438 32.0578 16.9381 31.866C17.1737 31.8009 17.514 31.6569 17.9589 31.4339C22.4253 29.194 26.8915 26.9624 31.3574 24.739C31.7882 24.525 32.0562 24.1952 31.9902 23.6902C31.9469 23.3564 31.7262 23.1042 31.4242 22.9537C30.1315 22.3107 28.7949 21.6434 27.4142 20.9517C27.4054 20.9475 27.3966 20.9454 27.3878 20.9454C27.3793 20.9454 27.3708 20.9476 27.3622 20.9517C23.5262 22.8652 20.5342 24.3593 18.3863 25.434Z" fill="#597C8B"/>
</svg>
