<svg width="32" height="32" viewBox="0 0 32 32" fill="none" xmlns="http://www.w3.org/2000/svg">
<path fill-rule="evenodd" clip-rule="evenodd" d="M21.8648 0.0778028C22.0741 0.18895 22.2164 0.407941 22.2164 0.659794V5.37725H15.3623V11.9555H12.707V3.46392H11.3761V0.659794C11.3761 0.295425 11.6741 0 12.0415 0H21.5509C21.6643 0 21.7712 0.0281089 21.8648 0.0778028ZM20.8283 11.0363C20.7851 11.0566 20.737 11.068 20.686 11.068H19.3551C19.1711 11.068 19.0223 10.9203 19.0223 10.7381V9.41849C19.0223 9.23631 19.1711 9.0886 19.3551 9.0886H20.686C20.8033 9.0886 20.9063 9.14884 20.9657 9.23977C20.9992 9.29124 21.0187 9.35261 21.0187 9.41849V10.7381C21.0187 10.8698 20.9407 10.9834 20.8283 11.0363ZM23.6805 10.7381C23.6805 10.9203 23.5314 11.068 23.3478 11.068H22.0169C21.833 11.068 21.6841 10.9203 21.6841 10.7381V9.41849C21.6841 9.23631 21.833 9.0886 22.0169 9.0886H23.3478C23.5314 9.0886 23.6805 9.23631 23.6805 9.41849V10.7381ZM21.0187 13.7896C21.0187 13.9718 20.8696 14.1195 20.686 14.1195H19.3551C19.1711 14.1195 19.0223 13.9718 19.0223 13.7896V12.47C19.0223 12.3857 19.0542 12.3088 19.1068 12.2505C19.1676 12.1827 19.2563 12.1401 19.3551 12.1401H20.686C20.8696 12.1401 21.0187 12.2879 21.0187 12.47V13.7896ZM23.6805 13.7896C23.6805 13.9718 23.5314 14.1195 23.3478 14.1195H22.0169C21.9236 14.1195 21.8395 14.0815 21.779 14.0202C21.7202 13.9607 21.6841 13.8793 21.6841 13.7896V12.47C21.6841 12.2879 21.833 12.1401 22.0169 12.1401H23.3478C23.4547 12.1401 23.5502 12.1903 23.611 12.2683C23.6246 12.2858 23.6363 12.3047 23.6464 12.3247C23.6682 12.3686 23.6805 12.4179 23.6805 12.47V13.7896ZM20.9638 17.0231C20.904 17.1123 20.802 17.1711 20.686 17.1711H19.3551C19.1711 17.1711 19.0223 17.0234 19.0223 16.8412V15.5216C19.0223 15.3394 19.1711 15.1917 19.3551 15.1917H20.686C20.7961 15.1917 20.8939 15.2449 20.9547 15.3269C20.9553 15.3276 20.9557 15.3284 20.9563 15.3292C20.9732 15.3523 20.9868 15.3776 20.9972 15.4046C21.0112 15.4409 21.0187 15.4803 21.0187 15.5216V16.8412C21.0187 16.872 21.0145 16.9018 21.0067 16.9302C20.9979 16.9615 20.9846 16.991 20.9674 17.0178C20.9661 17.0196 20.9651 17.0213 20.9638 17.0231ZM23.6805 16.8412C23.6805 17.0234 23.5314 17.1711 23.3478 17.1711H22.0169C21.833 17.1711 21.6841 17.0234 21.6841 16.8412V15.5216C21.6841 15.3394 21.833 15.1917 22.0169 15.1917H23.3478C23.5314 15.1917 23.6805 15.3394 23.6805 15.5216V16.8412ZM21.0187 19.8927C21.0187 20.0749 20.8696 20.2226 20.686 20.2226H19.3551C19.3083 20.2226 19.2634 20.213 19.2228 20.1956C19.1049 20.145 19.0223 20.0284 19.0223 19.8927V18.5731C19.0223 18.3909 19.1711 18.2432 19.3551 18.2432H20.686C20.8696 18.2432 21.0187 18.3909 21.0187 18.5731V19.8927ZM23.6805 19.8927C23.6805 20.0749 23.5314 20.2226 23.3478 20.2226H22.0169C21.9818 20.2226 21.948 20.2173 21.9165 20.2075C21.9119 20.2061 21.9077 20.2046 21.9032 20.203C21.7755 20.1569 21.6841 20.0354 21.6841 19.8927V18.5731C21.6841 18.5714 21.6841 18.5697 21.6841 18.568C21.6848 18.5198 21.6958 18.475 21.7153 18.4339C21.716 18.4328 21.716 18.4318 21.7166 18.4307C21.7264 18.4106 21.7381 18.3917 21.7514 18.374C21.7683 18.3518 21.7881 18.3318 21.8102 18.3145C21.8395 18.2916 21.8726 18.2734 21.9087 18.2611C21.9425 18.2495 21.9789 18.2432 22.0169 18.2432H23.3478C23.4261 18.2432 23.4979 18.2701 23.5548 18.3149C23.6311 18.3753 23.6805 18.4685 23.6805 18.5731V19.8927ZM21.0187 22.9443C21.0187 23.1265 20.8696 23.2742 20.686 23.2742H19.3551C19.1711 23.2742 19.0223 23.1265 19.0223 22.9443V21.6247C19.0223 21.4425 19.1711 21.2948 19.3551 21.2948H20.686C20.7159 21.2948 20.7448 21.2987 20.7724 21.3061C20.8361 21.323 20.892 21.358 20.9345 21.4052C20.9868 21.4635 21.0187 21.5404 21.0187 21.6247V22.9443ZM23.6805 22.9443C23.6805 23.1265 23.5314 23.2742 23.3478 23.2742H22.0169C21.9165 23.2742 21.8265 23.23 21.7654 23.1603C21.7147 23.1024 21.6841 23.0269 21.6841 22.9443V21.6247C21.6841 21.5333 21.7215 21.4505 21.7823 21.3908C21.8424 21.3314 21.9252 21.2948 22.0169 21.2948H23.3478C23.5314 21.2948 23.6805 21.4425 23.6805 21.6247V22.9443ZM21.0187 25.9959C21.0187 26.1781 20.8696 26.3258 20.686 26.3258H19.3551C19.1711 26.3258 19.0223 26.1781 19.0223 25.9959V24.6763C19.0223 24.672 19.0227 24.6677 19.0227 24.6634C19.0236 24.6372 19.0275 24.6118 19.0343 24.5875C19.0737 24.4485 19.2023 24.3464 19.3551 24.3464H20.686C20.8696 24.3464 21.0187 24.4941 21.0187 24.6763V25.9959ZM23.6805 25.9959C23.6805 26.1781 23.5314 26.3258 23.3478 26.3258H22.0169C21.9083 26.3258 21.8122 26.2744 21.7514 26.1949C21.7092 26.1396 21.6841 26.0706 21.6841 25.9959V24.6763C21.6841 24.4941 21.833 24.3464 22.0169 24.3464H23.3478C23.5314 24.3464 23.6805 24.4941 23.6805 24.6763V25.9959ZM21.0187 29.0474C21.0187 29.2297 20.8696 29.3773 20.686 29.3773H19.3551C19.1711 29.3773 19.0223 29.2297 19.0223 29.0474V27.7278C19.0223 27.5457 19.1711 27.398 19.3551 27.398H20.686C20.762 27.398 20.8322 27.4232 20.8881 27.4658C20.9674 27.5261 21.0187 27.6211 21.0187 27.7278V29.0474ZM23.6805 29.0474C23.6805 29.2297 23.5314 29.3773 23.3478 29.3773H22.0169C21.833 29.3773 21.6841 29.2297 21.6841 29.0474V27.7278C21.6841 27.5457 21.833 27.398 22.0169 27.398H23.3478C23.5314 27.398 23.6805 27.5457 23.6805 27.7278V29.0474ZM12.3743 16.2371C12.3743 16.0549 12.5234 15.9072 12.707 15.9072H13.3725C13.5564 15.9072 13.7052 16.0549 13.7052 16.2371V16.8969C13.7052 17.0791 13.5564 17.2268 13.3725 17.2268H12.707C12.5913 17.2268 12.4893 17.1681 12.4298 17.079C12.4253 17.0725 12.4214 17.0658 12.4175 17.059C12.3902 17.0111 12.3743 16.9559 12.3743 16.8969V16.2371ZM12.3704 18.2179C12.3704 18.0357 12.5192 17.888 12.7031 17.888H13.3686C13.5521 17.888 13.7013 18.0357 13.7013 18.2179V18.8777C13.7013 19.0599 13.5521 19.2076 13.3686 19.2076H12.7031C12.6592 19.2076 12.6173 19.1992 12.579 19.184C12.5601 19.1765 12.5426 19.1675 12.526 19.1571C12.5042 19.1437 12.4844 19.1278 12.4666 19.1099C12.4367 19.0799 12.4123 19.0441 12.3957 19.0044C12.3795 18.9654 12.3704 18.9226 12.3704 18.8777V18.2179ZM12.3662 20.1986C12.3662 20.0164 12.515 19.8687 12.6989 19.8687H13.3643C13.4742 19.8687 13.5716 19.9215 13.6321 20.0028C13.673 20.0576 13.6971 20.1253 13.6971 20.1986V20.8584C13.6971 20.9177 13.6811 20.9734 13.6535 21.0215C13.6262 21.0693 13.5872 21.1095 13.5404 21.1385C13.4894 21.1701 13.429 21.1883 13.3643 21.1883H12.6989C12.515 21.1883 12.3662 21.0406 12.3662 20.8584V20.1986ZM12.3623 22.1793C12.3623 21.9971 12.5111 21.8494 12.695 21.8494H13.3604C13.544 21.8494 13.6932 21.997 13.6932 22.1793V22.8391C13.6932 23.0213 13.544 23.169 13.3604 23.169H12.695C12.5111 23.169 12.3623 23.0213 12.3623 22.8391V22.1793ZM12.358 24.16C12.358 23.9778 12.5068 23.8301 12.6908 23.8301H13.3562C13.5398 23.8301 13.6889 23.9778 13.6889 24.16V24.8198C13.6889 25.0021 13.5398 25.1497 13.3562 25.1497H12.6908C12.5982 25.1497 12.5143 25.1123 12.4542 25.0519C12.3947 24.9923 12.358 24.9103 12.358 24.8198V24.16ZM12.3538 26.1408C12.3538 25.9586 12.5029 25.8109 12.6865 25.8109H13.352C13.5359 25.8109 13.6847 25.9586 13.6847 26.1408V26.8006C13.6847 26.9827 13.5359 27.1305 13.352 27.1305H12.6865C12.5029 27.1305 12.3538 26.9827 12.3538 26.8006V26.1408ZM12.3499 28.1215C12.3499 27.9393 12.4987 27.7916 12.6826 27.7916H13.3481C13.5317 27.7916 13.6808 27.9392 13.6808 28.1215V28.7812C13.6808 28.9634 13.5317 29.1111 13.3481 29.1111H12.6826C12.4987 29.1111 12.3499 28.9634 12.3499 28.7812V28.1215ZM14.5591 15.9321C14.5984 15.9161 14.6413 15.9072 14.6861 15.9072H15.3516C15.4299 15.9072 15.502 15.9341 15.5589 15.9791C15.6073 16.0175 15.645 16.069 15.6658 16.1283C15.6778 16.1624 15.6843 16.199 15.6843 16.2371V16.8969C15.6843 17.0791 15.5352 17.2268 15.3516 17.2268H14.6861C14.5022 17.2268 14.3534 17.0791 14.3534 16.8969V16.2371C14.3534 16.1434 14.3927 16.0589 14.4558 15.9989C14.4853 15.9707 14.5204 15.9479 14.5591 15.9321ZM14.3492 18.2179C14.3492 18.0357 14.498 17.888 14.6819 17.888H15.3474C15.3893 17.888 15.4296 17.8957 15.4666 17.9097C15.4731 17.9122 15.4796 17.9149 15.4861 17.9179C15.5141 17.9307 15.5401 17.9472 15.5631 17.9667C15.6346 18.0273 15.6801 18.1173 15.6801 18.2179V18.8777C15.6801 19.0599 15.5313 19.2076 15.3474 19.2076H14.6819C14.498 19.2076 14.3492 19.0599 14.3492 18.8777V18.2179ZM14.345 20.1986C14.345 20.0164 14.4941 19.8687 14.6777 19.8687H15.3432C15.5271 19.8687 15.6759 20.0164 15.6759 20.1986V20.8584C15.6759 21.0406 15.5271 21.1883 15.3432 21.1883H14.6777C14.4941 21.1883 14.345 21.0406 14.345 20.8584V20.1986ZM14.5783 21.8632C14.6085 21.8542 14.6407 21.8494 14.6738 21.8494H15.3393C15.4192 21.8494 15.4923 21.8773 15.5495 21.9236C15.6242 21.9841 15.672 22.0761 15.672 22.1793V22.8391C15.672 23.0213 15.5232 23.169 15.3393 23.169H14.6738C14.4899 23.169 14.3411 23.0213 14.3411 22.8391V22.1793C14.3411 22.0846 14.3814 21.9994 14.4457 21.9392C14.4827 21.9045 14.5279 21.8781 14.5783 21.8632ZM14.3368 24.16C14.3368 23.9778 14.486 23.8301 14.6696 23.8301H15.335C15.5189 23.8301 15.6678 23.9778 15.6678 24.16V24.8198C15.6678 25.0021 15.5189 25.1497 15.335 25.1497H14.6696C14.486 25.1497 14.3368 25.0021 14.3368 24.8198V24.16ZM14.333 26.1408C14.333 25.9586 14.4818 25.8109 14.6657 25.8109H15.3311C15.5147 25.8109 15.6639 25.9586 15.6639 26.1408V26.8006C15.6639 26.9827 15.5147 27.1305 15.3311 27.1305H14.6657C14.4818 27.1305 14.333 26.9827 14.333 26.8006V26.1408ZM14.4343 27.8806C14.4938 27.8254 14.5737 27.7916 14.6615 27.7916H15.3269C15.4085 27.7916 15.4829 27.8205 15.5407 27.8686C15.6135 27.929 15.6596 28.0199 15.6596 28.1215V28.7812C15.6596 28.9634 15.5108 29.1111 15.3269 29.1111H14.6615C14.4779 29.1111 14.3287 28.9634 14.3287 28.7812V28.1215C14.3287 28.0264 14.3693 27.9408 14.4343 27.8806ZM31.3345 30.6804C31.7024 30.6804 32 30.9754 32 31.3402C32 31.7049 31.7024 32 31.3345 32H0.723617C0.355797 32 0.0581623 31.7049 0.0581623 31.3402C0.0581623 30.9754 0.355797 30.6804 0.723617 30.6804H1.99604V27.7005C0.85034 27.4061 0 26.383 0 25.1546C0 24.3469 0.373993 23.6329 0.950418 23.1488C0.773656 22.8534 0.665455 22.5127 0.665455 22.1443C0.665455 21.0511 1.55933 20.1649 2.66182 20.1649C3.7643 20.1649 4.65818 21.0511 4.65818 22.1443C4.65818 22.5127 4.54998 22.8534 4.37322 23.1488C4.94965 23.6329 5.32364 24.347 5.32364 25.1546C5.32364 26.3831 4.4733 27.4064 3.32695 27.7005V30.6804H5.98585V5.4433C5.98585 5.07893 6.2838 4.7835 6.6513 4.7835H11.3761V11.9555H8.70778V30.6804H10.0387V13.9349C10.0387 13.5705 10.3366 13.2751 10.7041 13.2751H16.6932V7.35664C16.6932 6.99227 16.9912 6.69684 17.3587 6.69684H25.3442C25.7116 6.69684 26.0096 6.99227 26.0096 7.35664V30.6804H28.6727V27.7005C27.5267 27.4062 26.6764 26.3831 26.6764 25.1546C26.6764 24.3469 27.0504 23.6329 27.6268 23.1488C27.45 22.8534 27.3418 22.5127 27.3418 22.1443C27.3418 21.0511 28.2357 20.1649 29.3382 20.1649C30.441 20.1649 31.3345 21.0511 31.3345 22.1443C31.3345 22.5127 31.2263 22.8534 31.0496 23.1488C31.6263 23.6329 32 24.347 32 25.1546C32 26.3831 31.1497 27.4062 30.0036 27.7005V30.6804H31.3345ZM18.0241 8.01643H24.6787V30.4494H18.0241V13.2751V8.01643ZM11.3696 14.5947H16.6932V30.4298H11.3696V14.5947Z" fill="#72A6A3"/>
</svg>
