<svg width="230" height="85" viewBox="0 0 230 85" fill="none" xmlns="http://www.w3.org/2000/svg">
<path d="M3.16 66.66H5.24C6.25333 66.66 7.04667 66.4 7.62 65.88C8.19333 65.3467 8.48 64.6733 8.48 63.86C8.48 62.9533 8.18667 62.2333 7.6 61.7C7.01333 61.1667 6.18 60.9 5.1 60.9H3.16V66.66ZM1.54 59.52H5.08C6.64 59.52 7.86667 59.9267 8.76 60.74C9.66667 61.54 10.12 62.58 10.12 63.86C10.12 65.06 9.67333 66.06 8.78 66.86C7.88667 67.6467 6.70667 68.04 5.24 68.04H3.16V73H1.54V59.52ZM16.4784 73.18C15.0251 73.18 13.8718 72.6933 13.0184 71.72C12.1784 70.7333 11.7584 69.4933 11.7584 68C11.7584 66.4933 12.1918 65.24 13.0584 64.24C13.9384 63.2267 15.0784 62.72 16.4784 62.72C18.0118 62.72 19.1918 63.2133 20.0184 64.2C20.8584 65.1867 21.2784 66.44 21.2784 67.96C21.2784 69.4667 20.8518 70.7133 19.9984 71.7C19.1451 72.6867 17.9718 73.18 16.4784 73.18ZM16.4784 64.12C15.5184 64.12 14.7651 64.4933 14.2184 65.24C13.6718 65.9867 13.3984 66.9 13.3984 67.98C13.3984 69.0333 13.6784 69.9333 14.2384 70.68C14.7984 71.4133 15.5451 71.78 16.4784 71.78C17.4918 71.78 18.2718 71.42 18.8184 70.7C19.3651 69.9667 19.6384 69.06 19.6384 67.98C19.6384 66.86 19.3784 65.94 18.8584 65.22C18.3384 64.4867 17.5451 64.12 16.4784 64.12ZM25.7489 73L22.6289 62.86H24.3089L25.2889 66.22C25.6356 67.3933 25.9222 68.42 26.1489 69.3C26.3889 70.1667 26.5422 70.7467 26.6089 71.04L26.7089 71.46C26.9089 70.6067 27.3956 68.8533 28.1689 66.2L29.1289 62.86H30.8089L31.7889 66.2L33.2889 71.48C33.4756 70.6933 33.9889 68.9333 34.8289 66.2L35.8489 62.86H37.4689L34.2689 73H32.3289L31.3689 69.68L29.9689 64.62C29.7689 65.4733 29.3156 67.16 28.6089 69.68L27.6889 73H25.7489ZM45.8888 67.28V66.88C45.8888 66.04 45.6621 65.3733 45.2088 64.88C44.7554 64.3733 44.1288 64.12 43.3288 64.12C42.5688 64.12 41.9221 64.3933 41.3888 64.94C40.8554 65.4867 40.5421 66.2667 40.4488 67.28H45.8888ZM46.8288 71V72.48C46.0421 72.8933 45.0821 73.1 43.9488 73.1C42.4154 73.1 41.1754 72.6333 40.2288 71.7C39.2954 70.7533 38.8288 69.5067 38.8288 67.96C38.8288 66.3467 39.2488 65.0733 40.0888 64.14C40.9288 63.2067 42.0088 62.74 43.3288 62.74C44.5954 62.74 45.6021 63.1467 46.3488 63.96C47.0954 64.7733 47.4688 65.9267 47.4688 67.42C47.4688 67.8467 47.4354 68.24 47.3688 68.6H40.4488C40.5688 69.6 40.9488 70.3667 41.5888 70.9C42.2288 71.4333 43.0688 71.7 44.1088 71.7C45.2421 71.7 46.1488 71.4667 46.8288 71ZM51.438 62.86V64.64C51.9713 63.3867 52.8913 62.76 54.198 62.76C54.438 62.76 54.6246 62.7733 54.758 62.8V64.36C54.478 64.2667 54.1913 64.22 53.898 64.22C53.1913 64.22 52.6046 64.5467 52.138 65.2C51.6713 65.8533 51.438 66.6067 51.438 67.46V73H49.858L49.878 62.86H51.438ZM62.8614 67.28V66.88C62.8614 66.04 62.6347 65.3733 62.1814 64.88C61.7281 64.3733 61.1014 64.12 60.3014 64.12C59.5414 64.12 58.8947 64.3933 58.3614 64.94C57.8281 65.4867 57.5147 66.2667 57.4214 67.28H62.8614ZM63.8014 71V72.48C63.0147 72.8933 62.0547 73.1 60.9214 73.1C59.3881 73.1 58.1481 72.6333 57.2014 71.7C56.2681 70.7533 55.8014 69.5067 55.8014 67.96C55.8014 66.3467 56.2214 65.0733 57.0614 64.14C57.9014 63.2067 58.9814 62.74 60.3014 62.74C61.5681 62.74 62.5747 63.1467 63.3214 63.96C64.0681 64.7733 64.4414 65.9267 64.4414 67.42C64.4414 67.8467 64.4081 68.24 64.3414 68.6H57.4214C57.5414 69.6 57.9214 70.3667 58.5614 70.9C59.2014 71.4333 60.0414 71.7 61.0814 71.7C62.2147 71.7 63.1214 71.4667 63.8014 71ZM70.7106 71.72C71.5373 71.72 72.2373 71.4133 72.8106 70.8C73.3973 70.1867 73.6906 69.2067 73.6906 67.86C73.6906 66.58 73.3906 65.64 72.7906 65.04C72.1906 64.44 71.5306 64.14 70.8106 64.14C69.9706 64.14 69.2706 64.48 68.7106 65.16C68.164 65.8267 67.8906 66.7867 67.8906 68.04C67.8906 69.1333 68.1573 70.02 68.6906 70.7C69.224 71.38 69.8973 71.72 70.7106 71.72ZM73.6906 58.86H75.2706V73H73.6906V71.5C72.9706 72.6067 71.9306 73.16 70.5706 73.16C69.224 73.16 68.164 72.66 67.3906 71.66C66.6306 70.66 66.2506 69.4467 66.2506 68.02C66.2506 66.4333 66.6573 65.1533 67.4706 64.18C68.284 63.1933 69.3306 62.7 70.6106 62.7C71.9306 62.7 72.9573 63.2667 73.6906 64.4V58.86ZM87.7011 71.72C88.5144 71.72 89.1878 71.38 89.7211 70.7C90.2544 70.02 90.5211 69.1333 90.5211 68.04C90.5211 66.7867 90.2411 65.8267 89.6811 65.16C89.1344 64.48 88.4411 64.14 87.6011 64.14C86.8811 64.14 86.2211 64.44 85.6211 65.04C85.0211 65.64 84.7211 66.58 84.7211 67.86C84.7211 69.2067 85.0078 70.1867 85.5811 70.8C86.1678 71.4133 86.8744 71.72 87.7011 71.72ZM84.7211 58.86V64.38C85.4544 63.26 86.4811 62.7 87.8011 62.7C89.0811 62.7 90.1278 63.1933 90.9411 64.18C91.7544 65.1533 92.1611 66.4333 92.1611 68.02C92.1611 69.4467 91.7744 70.66 91.0011 71.66C90.2411 72.66 89.1878 73.16 87.8411 73.16C86.4811 73.16 85.4411 72.6067 84.7211 71.5V73H83.1411V58.86H84.7211ZM97.2873 72.74L93.1873 62.86H94.9673L96.2873 66.2L98.0673 70.8C98.174 70.4533 98.7073 68.92 99.6673 66.2L100.847 62.86H102.547L98.8873 72.74C98.3673 74.1133 97.7473 75.08 97.0273 75.64C96.3207 76.2 95.5073 76.48 94.5873 76.48C94.2407 76.48 93.9607 76.4467 93.7473 76.38V74.96C93.9473 75.0133 94.174 75.04 94.4273 75.04C95.774 75.04 96.7273 74.2733 97.2873 72.74Z" fill="#190694"/>
<path fill-rule="evenodd" clip-rule="evenodd" d="M132.919 0H189.195L186.294 2.91845H136.013V9.84978H159.8V48.5193L156.512 45.0536V12.7682H132.919V0ZM168.889 55.4506L210.274 32.9238L168.889 10.397V55.4506ZM203.312 33.1062L172.37 16.2339V49.9785L203.312 33.1062Z" fill="url(#paint0_linear_5713_74388)"/>
<path d="M113.577 63.5781V61.6357H123.28V63.5781H119.663V72.7789H117.194V63.5781H113.577ZM126.502 72.7789V61.6357H134.463V63.5781H129V66.2334H134.054V68.1758H129V70.8365H134.486V72.7789H126.502ZM148.498 65.5369H145.971C145.925 65.2287 145.83 64.9547 145.688 64.7154C145.546 64.4723 145.363 64.2656 145.14 64.095C144.917 63.9245 144.66 63.7939 144.367 63.7032C144.079 63.6126 143.765 63.5674 143.427 63.5674C142.816 63.5674 142.283 63.7105 141.829 63.9971C141.375 64.28 141.023 64.6935 140.773 65.2376C140.523 65.7781 140.398 66.4347 140.398 67.2074C140.398 68.0018 140.523 68.6692 140.773 69.2096C141.027 69.7501 141.381 70.1581 141.835 70.4338C142.289 70.7095 142.814 70.8474 143.41 70.8474C143.744 70.8474 144.054 70.8057 144.338 70.7221C144.627 70.6388 144.882 70.5173 145.106 70.3577C145.329 70.1944 145.513 69.9967 145.659 69.7645C145.809 69.5325 145.913 69.2676 145.971 68.9701L148.498 68.9811C148.432 69.4925 148.269 69.986 148.007 70.4611C147.75 70.9326 147.402 71.3553 146.963 71.7288C146.529 72.0987 146.009 72.3926 145.406 72.6102C144.806 72.8243 144.127 72.9312 143.369 72.9312C142.315 72.9312 141.373 72.7063 140.543 72.2565C139.716 71.8067 139.062 71.1557 138.581 70.3033C138.104 69.4508 137.866 68.4189 137.866 67.2074C137.866 65.9922 138.108 64.9584 138.593 64.106C139.077 63.2534 139.735 62.6043 140.566 62.1581C141.396 61.7083 142.331 61.4834 143.369 61.4834C144.054 61.4834 144.688 61.5741 145.273 61.7554C145.861 61.9369 146.382 62.2015 146.836 62.5497C147.29 62.8945 147.659 63.3169 147.944 63.8176C148.232 64.3181 148.417 64.8912 148.498 65.5369ZM151.913 72.7789V61.6357H154.411V66.2334H159.482V61.6357H161.974V72.7789H159.482V68.1758H154.411V72.7789H151.913Z" fill="#190694"/>
<path d="M167.693 72.7789H165.017L169.095 61.6357H172.314L176.387 72.7789H173.71L170.751 64.1821H170.659L167.693 72.7789ZM167.526 68.3989H173.849V70.238H167.526V68.3989ZM179.433 72.7789V61.6357H181.931V70.8365H186.996V72.7789H179.433ZM190.275 61.6357H193.355L196.609 69.1226H196.747L200.001 61.6357H203.081V72.7789H200.658V65.526H200.56L197.503 72.7246H195.853L192.795 65.4988H192.697V72.7789H190.275V61.6357ZM208.8 72.7789H206.123L210.202 61.6357H213.421L217.493 72.7789H214.817L211.857 64.1821H211.765L208.8 72.7789ZM208.633 68.3989H214.955V70.238H208.633V68.3989ZM226.679 64.8405C226.633 64.4015 226.435 64.0606 226.085 63.8176C225.735 63.5745 225.26 63.453 224.66 63.453C224.252 63.453 223.908 63.5073 223.627 63.6162C223.347 63.7215 223.131 63.8683 222.981 64.0569C222.835 64.2455 222.762 64.4597 222.762 64.699C222.754 64.8985 222.799 65.0725 222.895 65.2214C222.995 65.37 223.131 65.4988 223.304 65.6077C223.478 65.7128 223.677 65.8053 223.904 65.8852C224.131 65.9614 224.373 66.0267 224.631 66.0811L225.693 66.3204C226.208 66.4293 226.681 66.5743 227.112 66.7558C227.542 66.9371 227.915 67.1602 228.231 67.425C228.546 67.6897 228.79 68.0018 228.963 68.3607C229.14 68.7199 229.231 69.1316 229.235 69.596C229.231 70.2778 229.046 70.8691 228.681 71.3697C228.319 71.8667 227.796 72.2529 227.112 72.5287C226.431 72.8006 225.61 72.9367 224.649 72.9367C223.695 72.9367 222.864 72.7988 222.156 72.5232C221.453 72.2476 220.903 71.8393 220.507 71.2989C220.114 70.7548 219.909 70.0819 219.889 69.2804H222.306C222.333 69.654 222.447 69.9659 222.647 70.2161C222.851 70.4629 223.122 70.6497 223.46 70.7767C223.802 70.9 224.189 70.9616 224.62 70.9616C225.043 70.9616 225.41 70.9036 225.721 70.7874C226.037 70.6714 226.281 70.51 226.454 70.3033C226.627 70.0965 226.714 69.8588 226.714 69.5905C226.714 69.3402 226.635 69.1297 226.477 68.9594C226.323 68.7888 226.096 68.6438 225.796 68.524C225.5 68.4043 225.137 68.2954 224.706 68.1977L223.42 67.8929C222.424 67.6643 221.637 67.307 221.06 66.8211C220.483 66.335 220.197 65.6801 220.201 64.8568C220.197 64.1821 220.387 63.5927 220.772 63.0885C221.16 62.5842 221.693 62.1908 222.37 61.9079C223.047 61.6248 223.816 61.4834 224.677 61.4834C225.554 61.4834 226.32 61.6248 226.973 61.9079C227.631 62.1908 228.142 62.5842 228.508 63.0885C228.873 63.5927 229.062 64.1766 229.073 64.8405H226.679Z" fill="#F88004"/>
<path d="M136.388 83.176H134.188H133.645L134.675 78.5794H135.232L134.306 82.6901H136.492L136.388 83.176ZM139.681 82.8542C139.518 82.9855 139.326 83.0862 139.103 83.1563C138.885 83.2219 138.664 83.2548 138.442 83.2548C138.07 83.2548 137.789 83.1541 137.599 82.9527C137.413 82.7513 137.321 82.4712 137.321 82.1122C137.321 81.7532 137.374 81.4315 137.481 81.1469C137.588 80.8624 137.727 80.6216 137.898 80.4246C138.075 80.2276 138.272 80.0766 138.49 79.9715C138.713 79.8664 138.94 79.8139 139.173 79.8139C139.34 79.8139 139.484 79.8358 139.604 79.8796C139.729 79.9234 139.832 79.9825 139.911 80.0569C139.989 80.1269 140.047 80.2101 140.085 80.3064C140.122 80.3983 140.14 80.4968 140.14 80.6019C140.14 80.9127 139.98 81.1579 139.66 81.3373C139.34 81.5125 138.873 81.6 138.261 81.6C138.205 81.6 138.147 81.6 138.086 81.6C138.026 81.5956 137.963 81.5913 137.898 81.5869C137.88 81.67 137.866 81.7489 137.857 81.8233C137.847 81.8977 137.843 81.9634 137.843 82.0203C137.843 82.261 137.901 82.458 138.017 82.6113C138.133 82.7601 138.314 82.8345 138.56 82.8345C138.764 82.8345 138.95 82.8039 139.117 82.7426C139.289 82.6769 139.421 82.6091 139.514 82.539L139.681 82.8542ZM139.089 80.2342C138.834 80.2342 138.611 80.3173 138.421 80.4837C138.235 80.6457 138.093 80.8908 137.996 81.2191C138.172 81.2191 138.356 81.2148 138.546 81.206C138.736 81.1973 138.908 81.1754 139.061 81.1404C139.219 81.101 139.349 81.0419 139.451 80.9631C139.553 80.8799 139.604 80.7661 139.604 80.6216C139.604 80.5778 139.595 80.534 139.576 80.4903C139.562 80.4421 139.537 80.4005 139.5 80.3655C139.463 80.3261 139.409 80.2955 139.34 80.2736C139.275 80.2473 139.191 80.2342 139.089 80.2342ZM141.121 79.8927H141.636L141.782 79.2426L142.339 79.0916L142.158 79.8927H143.07L142.966 80.313H142.061L141.622 82.2961C141.613 82.3486 141.603 82.3967 141.594 82.4405C141.59 82.4843 141.587 82.5237 141.587 82.5587C141.587 82.6638 141.613 82.736 141.664 82.7754C141.715 82.8148 141.791 82.8345 141.894 82.8345C142.005 82.8345 142.107 82.8214 142.2 82.7951C142.293 82.7688 142.385 82.7295 142.478 82.6769V83.0775C142.381 83.13 142.256 83.1716 142.102 83.2022C141.949 83.2373 141.803 83.2548 141.664 83.2548C141.241 83.2548 141.03 83.0731 141.03 82.7097C141.03 82.6353 141.042 82.5434 141.065 82.434L141.538 80.313H141.016L141.121 79.8927ZM149.49 78.5794H150.019L149.336 81.646C149.271 81.9261 149.19 82.1669 149.093 82.3683C148.995 82.5697 148.872 82.7338 148.724 82.8608C148.58 82.9877 148.406 83.0819 148.202 83.1431C147.997 83.2044 147.761 83.2351 147.492 83.2351C147.236 83.2351 147.02 83.2088 146.844 83.1563C146.668 83.0994 146.524 83.0228 146.412 82.9264C146.306 82.8258 146.227 82.7054 146.176 82.5653C146.129 82.4208 146.106 82.2632 146.106 82.0925C146.106 81.913 146.132 81.7095 146.183 81.4818L146.83 78.5794H147.387L146.74 81.4884C146.689 81.681 146.663 81.8561 146.663 82.0137C146.663 82.2895 146.74 82.4821 146.893 82.5916C147.046 82.6966 147.273 82.7491 147.575 82.7491C147.756 82.7491 147.914 82.7251 148.048 82.6769C148.188 82.6288 148.306 82.5543 148.404 82.4537C148.506 82.353 148.589 82.2238 148.654 82.0662C148.724 81.9086 148.784 81.7182 148.835 81.4949L149.49 78.5794ZM152.025 82.2501C152.025 82.1363 151.995 82.04 151.934 81.9612C151.874 81.8824 151.798 81.8123 151.705 81.751C151.612 81.6854 151.512 81.6219 151.405 81.5606C151.299 81.4993 151.199 81.4315 151.106 81.357C151.013 81.2783 150.937 81.1885 150.876 81.0878C150.816 80.9828 150.786 80.8536 150.786 80.7004C150.786 80.5778 150.816 80.464 150.876 80.3589C150.941 80.2495 151.027 80.1554 151.134 80.0766C151.245 79.9934 151.375 79.9299 151.524 79.8861C151.677 79.838 151.842 79.8139 152.018 79.8139C152.264 79.8139 152.454 79.8292 152.589 79.8599C152.723 79.8905 152.844 79.9343 152.951 79.9912L152.777 80.3852C152.591 80.2845 152.338 80.2342 152.018 80.2342C151.823 80.2342 151.661 80.2736 151.531 80.3524C151.405 80.4268 151.343 80.5428 151.343 80.7004C151.343 80.7923 151.373 80.8733 151.433 80.9434C151.494 81.009 151.57 81.0725 151.663 81.1338C151.756 81.1951 151.856 81.2585 151.962 81.3242C152.069 81.3855 152.169 81.4577 152.262 81.5409C152.354 81.6197 152.431 81.7138 152.491 81.8233C152.552 81.9327 152.582 82.0619 152.582 82.2107C152.582 82.5522 152.459 82.8126 152.213 82.9921C151.972 83.1672 151.647 83.2548 151.238 83.2548C151.029 83.2548 150.837 83.2351 150.66 83.1957C150.489 83.1563 150.349 83.1059 150.243 83.0446L150.438 82.631C150.53 82.6879 150.651 82.736 150.8 82.7754C150.953 82.8148 151.111 82.8345 151.273 82.8345C151.5 82.8345 151.681 82.7885 151.816 82.6966C151.955 82.6003 152.025 82.4515 152.025 82.2501ZM158.388 81.994C158.388 81.8364 158.344 81.7029 158.256 81.5934C158.173 81.484 158.066 81.3855 157.936 81.2979C157.806 81.206 157.664 81.1185 157.511 81.0353C157.363 80.9521 157.223 80.8558 157.093 80.7464C156.964 80.6369 156.854 80.5078 156.766 80.3589C156.683 80.2101 156.641 80.0262 156.641 79.8073C156.641 79.5753 156.685 79.3761 156.773 79.2098C156.866 79.0434 156.989 78.9077 157.142 78.8027C157.3 78.6976 157.483 78.621 157.692 78.5728C157.906 78.5247 158.131 78.5006 158.368 78.5006C158.637 78.5006 158.878 78.5203 159.092 78.5597C159.305 78.5991 159.472 78.6494 159.593 78.7107L159.314 79.177C159.222 79.1288 159.082 79.0828 158.897 79.0391C158.716 78.9953 158.504 78.9734 158.263 78.9734C157.957 78.9734 157.706 79.0391 157.511 79.1704C157.321 79.3017 157.226 79.4922 157.226 79.7417C157.226 79.9037 157.268 80.0416 157.351 80.1554C157.439 80.2648 157.548 80.3655 157.678 80.4574C157.808 80.545 157.947 80.6304 158.096 80.7135C158.249 80.7967 158.391 80.893 158.521 81.0025C158.651 81.1075 158.757 81.2345 158.841 81.3833C158.929 81.5322 158.973 81.7138 158.973 81.9283C158.973 82.353 158.811 82.6813 158.486 82.9133C158.161 83.141 157.695 83.2548 157.086 83.2548C156.776 83.2548 156.511 83.2285 156.293 83.176C156.079 83.1278 155.917 83.0731 155.805 83.0118L156.091 82.5325C156.198 82.5894 156.342 82.6463 156.523 82.7032C156.708 82.7557 156.926 82.782 157.177 82.782C157.321 82.782 157.465 82.771 157.609 82.7491C157.753 82.7229 157.882 82.6791 157.999 82.6178C158.115 82.5565 158.207 82.4755 158.277 82.3749C158.351 82.2742 158.388 82.1472 158.388 81.994ZM159.968 82.1516C159.968 81.8058 160.014 81.4906 160.107 81.206C160.205 80.9171 160.337 80.6697 160.504 80.464C160.671 80.2582 160.864 80.0985 161.082 79.9846C161.305 79.8708 161.541 79.8139 161.792 79.8139C161.987 79.8139 162.152 79.8446 162.286 79.9058C162.426 79.9628 162.537 80.0437 162.621 80.1488C162.709 80.2495 162.771 80.3677 162.808 80.5034C162.846 80.6347 162.864 80.7726 162.864 80.9171C162.864 81.2454 162.818 81.5519 162.725 81.8364C162.637 82.121 162.511 82.3683 162.349 82.5784C162.191 82.7885 162.006 82.9549 161.792 83.0775C161.579 83.1957 161.346 83.2548 161.096 83.2548C160.887 83.2548 160.711 83.2241 160.567 83.1628C160.427 83.0972 160.311 83.0118 160.219 82.9067C160.13 82.8017 160.065 82.6835 160.024 82.5522C159.987 82.4208 159.968 82.2873 159.968 82.1516ZM160.525 82.0334C160.525 82.2917 160.576 82.4909 160.678 82.631C160.78 82.7667 160.943 82.8345 161.165 82.8345C161.319 82.8345 161.462 82.7842 161.597 82.6835C161.736 82.5784 161.857 82.4383 161.959 82.2632C162.066 82.0881 162.149 81.8889 162.21 81.6657C162.275 81.438 162.307 81.2016 162.307 80.9565C162.307 80.7332 162.263 80.5581 162.175 80.4312C162.091 80.2998 161.929 80.2342 161.688 80.2342C161.534 80.2342 161.388 80.2845 161.249 80.3852C161.11 80.4815 160.984 80.6128 160.873 80.7792C160.766 80.9455 160.68 81.1382 160.615 81.357C160.555 81.5716 160.525 81.797 160.525 82.0334ZM164.431 82.3946C164.417 82.469 164.41 82.5303 164.41 82.5784C164.41 82.6616 164.424 82.7229 164.452 82.7623C164.484 82.7973 164.526 82.8148 164.577 82.8148C164.67 82.8148 164.747 82.8104 164.807 82.8017C164.872 82.7885 164.949 82.7667 165.037 82.736V83.1103C164.995 83.1322 164.946 83.1519 164.89 83.1694C164.835 83.1825 164.777 83.1935 164.716 83.2022C164.661 83.211 164.603 83.2176 164.542 83.2219C164.487 83.2307 164.436 83.2351 164.389 83.2351C164.227 83.2351 164.097 83.2 163.999 83.13C163.902 83.06 163.853 82.9308 163.853 82.7426C163.853 82.655 163.867 82.5478 163.895 82.4208L164.758 78.5794H165.28L164.431 82.3946ZM167.136 81.8167L167.199 82.4405H167.213L167.512 81.8036L168.688 79.8927H169.287L167.115 83.2482H166.892L166.217 79.8927H166.774L167.136 81.8167ZM171.916 82.8542C171.754 82.9855 171.561 83.0862 171.339 83.1563C171.121 83.2219 170.9 83.2548 170.677 83.2548C170.306 83.2548 170.025 83.1541 169.835 82.9527C169.649 82.7513 169.556 82.4712 169.556 82.1122C169.556 81.7532 169.61 81.4315 169.717 81.1469C169.823 80.8624 169.962 80.6216 170.134 80.4246C170.311 80.2276 170.508 80.0766 170.726 79.9715C170.949 79.8664 171.176 79.8139 171.408 79.8139C171.575 79.8139 171.719 79.8358 171.84 79.8796C171.965 79.9234 172.067 79.9825 172.146 80.0569C172.225 80.1269 172.283 80.2101 172.32 80.3064C172.357 80.3983 172.376 80.4968 172.376 80.6019C172.376 80.9127 172.216 81.1579 171.896 81.3373C171.575 81.5125 171.109 81.6 170.496 81.6C170.441 81.6 170.383 81.6 170.322 81.6C170.262 81.5956 170.199 81.5913 170.134 81.5869C170.116 81.67 170.102 81.7489 170.092 81.8233C170.083 81.8977 170.079 81.9634 170.079 82.0203C170.079 82.261 170.137 82.458 170.253 82.6113C170.369 82.7601 170.55 82.8345 170.796 82.8345C171 82.8345 171.185 82.8039 171.353 82.7426C171.524 82.6769 171.657 82.6091 171.749 82.539L171.916 82.8542ZM171.325 80.2342C171.069 80.2342 170.847 80.3173 170.656 80.4837C170.471 80.6457 170.329 80.8908 170.232 81.2191C170.408 81.2191 170.591 81.2148 170.782 81.206C170.972 81.1973 171.144 81.1754 171.297 81.1404C171.455 81.101 171.585 81.0419 171.687 80.9631C171.789 80.8799 171.84 80.7661 171.84 80.6216C171.84 80.5778 171.831 80.534 171.812 80.4903C171.798 80.4421 171.773 80.4005 171.735 80.3655C171.698 80.3261 171.645 80.2955 171.575 80.2736C171.51 80.2473 171.427 80.2342 171.325 80.2342ZM185.293 78.5794H187.806L187.701 79.0653H185.731L185.376 80.6347H187.214L187.11 81.1207H185.272L184.812 83.176H184.255L185.293 78.5794ZM188.169 82.1516C188.169 81.8058 188.216 81.4906 188.308 81.206C188.406 80.9171 188.538 80.6697 188.705 80.464C188.872 80.2582 189.065 80.0985 189.283 79.9846C189.506 79.8708 189.743 79.8139 189.993 79.8139C190.188 79.8139 190.353 79.8446 190.488 79.9058C190.627 79.9628 190.738 80.0437 190.822 80.1488C190.91 80.2495 190.973 80.3677 191.01 80.5034C191.047 80.6347 191.065 80.7726 191.065 80.9171C191.065 81.2454 191.019 81.5519 190.926 81.8364C190.838 82.121 190.713 82.3683 190.55 82.5784C190.392 82.7885 190.207 82.9549 189.993 83.0775C189.78 83.1957 189.548 83.2548 189.297 83.2548C189.088 83.2548 188.912 83.2241 188.768 83.1628C188.629 83.0972 188.513 83.0118 188.42 82.9067C188.332 82.8017 188.267 82.6835 188.225 82.5522C188.188 82.4208 188.169 82.2873 188.169 82.1516ZM188.726 82.0334C188.726 82.2917 188.777 82.4909 188.879 82.631C188.981 82.7667 189.144 82.8345 189.367 82.8345C189.52 82.8345 189.664 82.7842 189.798 82.6835C189.938 82.5784 190.058 82.4383 190.16 82.2632C190.267 82.0881 190.351 81.8889 190.411 81.6657C190.476 81.438 190.508 81.2016 190.508 80.9565C190.508 80.7332 190.464 80.5581 190.376 80.4312C190.293 80.2998 190.13 80.2342 189.889 80.2342C189.736 80.2342 189.589 80.2845 189.45 80.3852C189.311 80.4815 189.186 80.6128 189.074 80.7792C188.968 80.9455 188.882 81.1382 188.817 81.357C188.756 81.5716 188.726 81.797 188.726 82.0334ZM194.226 80.3261C194.185 80.3173 194.14 80.3108 194.094 80.3064C194.052 80.302 194.013 80.2998 193.976 80.2998C193.739 80.2998 193.535 80.3699 193.363 80.51C193.191 80.6501 193.057 80.8208 192.959 81.0222L192.479 83.176H191.957L192.695 79.8927H193.057V80.4574H193.085C193.14 80.3743 193.201 80.2976 193.266 80.2276C193.331 80.1532 193.403 80.0875 193.481 80.0306C193.56 79.9737 193.646 79.9299 193.739 79.8993C193.832 79.8643 193.934 79.8467 194.045 79.8467C194.147 79.8467 194.254 79.8621 194.366 79.8927L194.226 80.3261ZM198.142 81.3505L197.216 78.5794H197.822L198.442 80.5888L198.463 80.9893H198.469L198.678 80.5756L200.189 78.5794H200.816L198.699 81.3439L198.288 83.176H197.732L198.142 81.3505ZM200.412 82.1516C200.412 81.8058 200.459 81.4906 200.552 81.206C200.649 80.9171 200.781 80.6697 200.948 80.464C201.115 80.2582 201.308 80.0985 201.526 79.9846C201.749 79.8708 201.986 79.8139 202.236 79.8139C202.431 79.8139 202.596 79.8446 202.731 79.9058C202.87 79.9628 202.981 80.0437 203.065 80.1488C203.153 80.2495 203.216 80.3677 203.253 80.5034C203.29 80.6347 203.308 80.7726 203.308 80.9171C203.308 81.2454 203.262 81.5519 203.169 81.8364C203.081 82.121 202.956 82.3683 202.793 82.5784C202.635 82.7885 202.45 82.9549 202.236 83.0775C202.023 83.1957 201.791 83.2548 201.54 83.2548C201.331 83.2548 201.155 83.2241 201.011 83.1628C200.872 83.0972 200.756 83.0118 200.663 82.9067C200.575 82.8017 200.51 82.6835 200.468 82.5522C200.431 82.4208 200.412 82.2873 200.412 82.1516ZM200.969 82.0334C200.969 82.2917 201.02 82.4909 201.122 82.631C201.225 82.7667 201.387 82.8345 201.61 82.8345C201.763 82.8345 201.907 82.7842 202.041 82.6835C202.181 82.5784 202.301 82.4383 202.403 82.2632C202.51 82.0881 202.594 81.8889 202.654 81.6657C202.719 81.438 202.752 81.2016 202.752 80.9565C202.752 80.7332 202.707 80.5581 202.619 80.4312C202.536 80.2998 202.373 80.2342 202.132 80.2342C201.979 80.2342 201.833 80.2845 201.693 80.3852C201.554 80.4815 201.429 80.6128 201.317 80.7792C201.211 80.9455 201.125 81.1382 201.06 81.357C200.999 81.5716 200.969 81.797 200.969 82.0334ZM205.432 79.8927L204.945 82.0794C204.917 82.1976 204.903 82.307 204.903 82.4077C204.903 82.5303 204.928 82.6331 204.98 82.7163C205.031 82.7951 205.123 82.8345 205.258 82.8345C205.369 82.8345 205.481 82.8083 205.592 82.7557C205.708 82.7032 205.817 82.6353 205.919 82.5522C206.026 82.469 206.121 82.377 206.205 82.2764C206.293 82.1757 206.365 82.0772 206.421 81.9809L206.887 79.8927H207.409L206.971 81.843C206.952 81.9174 206.934 82.0093 206.915 82.1188C206.896 82.2238 206.878 82.3355 206.859 82.4537C206.845 82.5719 206.834 82.6879 206.824 82.8017C206.815 82.9111 206.811 83.0074 206.811 83.0906V83.176H206.4V82.5522H206.372C206.302 82.6397 206.221 82.7251 206.128 82.8082C206.04 82.8914 205.94 82.9658 205.829 83.0315C205.722 83.0972 205.606 83.1497 205.481 83.1891C205.355 83.2329 205.223 83.2548 205.084 83.2548C204.982 83.2548 204.887 83.2438 204.799 83.2219C204.715 83.2001 204.641 83.1628 204.576 83.1103C204.511 83.0534 204.46 82.9812 204.423 82.8936C204.385 82.8017 204.367 82.6857 204.367 82.5456C204.367 82.3924 204.39 82.2195 204.436 82.0268L204.91 79.8927H205.432ZM209.573 78.5794H210.13L209.621 80.858L209.245 82.0137H208.925L209.064 80.858L209.573 78.5794ZM208.528 82.8739C208.528 82.7557 208.566 82.6638 208.64 82.5981C208.714 82.5281 208.812 82.4931 208.932 82.4931C209.053 82.4931 209.15 82.5281 209.225 82.5981C209.299 82.6638 209.336 82.7557 209.336 82.8739C209.336 82.9877 209.299 83.0797 209.225 83.1497C209.15 83.2197 209.053 83.2548 208.932 83.2548C208.812 83.2548 208.714 83.2197 208.64 83.1497C208.566 83.0797 208.528 82.9877 208.528 82.8739Z" fill="#190694"/>
<path d="M176.397 78.5795H177.295L176.264 83.176H175.366L176.397 78.5795ZM181.753 79.3806H180.402L179.546 83.176H178.648L179.497 79.3806H178.146L178.327 78.5795H181.927L181.753 79.3806Z" fill="#F88004"/>
<defs>
<linearGradient id="paint0_linear_5713_74388" x1="129.728" y1="4.10408" x2="168.394" y2="57.2739" gradientUnits="userSpaceOnUse">
<stop stop-color="#F88005"/>
<stop offset="1" stop-color="#190594"/>
</linearGradient>
</defs>
</svg>
