<svg width="318" height="215" viewBox="0 0 318 215" fill="none" xmlns="http://www.w3.org/2000/svg">
<rect x="4" width="38" height="181" rx="4" fill="#17213A" fill-opacity="0.06"/>
<path d="M20.77 166.939C20.77 167.821 20.6743 168.589 20.483 169.242C20.2963 169.891 20.035 170.427 19.699 170.852C19.3677 171.277 18.9733 171.594 18.516 171.804C18.0633 172.009 17.5733 172.112 17.046 172.112C16.5187 172.112 16.0287 172.009 15.576 171.804C15.128 171.594 14.7383 171.277 14.407 170.852C14.0757 170.427 13.8167 169.891 13.63 169.242C13.4433 168.589 13.35 167.821 13.35 166.939C13.35 166.052 13.4433 165.285 13.63 164.636C13.8167 163.987 14.0757 163.451 14.407 163.026C14.7383 162.601 15.128 162.286 15.576 162.081C16.0287 161.871 16.5187 161.766 17.046 161.766C17.5733 161.766 18.0633 161.871 18.516 162.081C18.9733 162.286 19.3677 162.601 19.699 163.026C20.035 163.451 20.2963 163.987 20.483 164.636C20.6743 165.285 20.77 166.052 20.77 166.939ZM18.985 166.939C18.985 166.206 18.9313 165.6 18.824 165.119C18.7167 164.638 18.572 164.256 18.39 163.971C18.2127 163.686 18.0073 163.488 17.774 163.376C17.5407 163.259 17.298 163.201 17.046 163.201C16.7987 163.201 16.5583 163.259 16.325 163.376C16.0963 163.488 15.8933 163.686 15.716 163.971C15.5387 164.256 15.3963 164.638 15.289 165.119C15.1863 165.6 15.135 166.206 15.135 166.939C15.135 167.672 15.1863 168.278 15.289 168.759C15.3963 169.24 15.5387 169.622 15.716 169.907C15.8933 170.192 16.0963 170.392 16.325 170.509C16.5583 170.621 16.7987 170.677 17.046 170.677C17.298 170.677 17.5407 170.621 17.774 170.509C18.0073 170.392 18.2127 170.192 18.39 169.907C18.572 169.622 18.7167 169.24 18.824 168.759C18.9313 168.278 18.985 167.672 18.985 166.939ZM26.3361 164.328C26.3361 164.711 26.2708 165.056 26.1401 165.364C26.0141 165.672 25.8438 165.936 25.6291 166.155C25.4144 166.37 25.1648 166.535 24.8801 166.652C24.5954 166.769 24.2991 166.827 23.9911 166.827C23.6551 166.827 23.3448 166.769 23.0601 166.652C22.7754 166.535 22.5281 166.37 22.3181 166.155C22.1128 165.936 21.9518 165.672 21.8351 165.364C21.7184 165.056 21.6601 164.711 21.6601 164.328C21.6601 163.936 21.7184 163.581 21.8351 163.264C21.9518 162.947 22.1128 162.678 22.3181 162.459C22.5281 162.24 22.7754 162.072 23.0601 161.955C23.3448 161.834 23.6551 161.773 23.9911 161.773C24.3271 161.773 24.6374 161.834 24.9221 161.955C25.2114 162.072 25.4611 162.24 25.6711 162.459C25.8811 162.678 26.0444 162.947 26.1611 163.264C26.2778 163.581 26.3361 163.936 26.3361 164.328ZM25.0061 164.328C25.0061 164.057 24.9781 163.831 24.9221 163.649C24.8708 163.467 24.7984 163.32 24.7051 163.208C24.6164 163.096 24.5091 163.017 24.3831 162.97C24.2618 162.919 24.1311 162.893 23.9911 162.893C23.8511 162.893 23.7204 162.919 23.5991 162.97C23.4778 163.017 23.3728 163.096 23.2841 163.208C23.2001 163.32 23.1324 163.467 23.0811 163.649C23.0298 163.831 23.0041 164.057 23.0041 164.328C23.0041 164.589 23.0298 164.809 23.0811 164.986C23.1324 165.159 23.2001 165.299 23.2841 165.406C23.3728 165.513 23.4778 165.59 23.5991 165.637C23.7204 165.684 23.8511 165.707 23.9911 165.707C24.1311 165.707 24.2618 165.684 24.3831 165.637C24.5091 165.59 24.6164 165.513 24.7051 165.406C24.7984 165.299 24.8708 165.159 24.9221 164.986C24.9781 164.809 25.0061 164.589 25.0061 164.328ZM29.7031 162.151C29.7638 162.081 29.8338 162.018 29.9131 161.962C29.9971 161.906 30.1138 161.878 30.2631 161.878H31.5231L24.0051 171.741C23.9444 171.816 23.8721 171.879 23.7881 171.93C23.7041 171.977 23.6014 172 23.4801 172H22.1921L29.7031 162.151ZM32.0551 169.62C32.0551 170.003 31.9898 170.348 31.8591 170.656C31.7331 170.964 31.5628 171.228 31.3481 171.447C31.1334 171.662 30.8838 171.83 30.5991 171.951C30.3144 172.068 30.0181 172.126 29.7101 172.126C29.3741 172.126 29.0638 172.068 28.7791 171.951C28.4944 171.83 28.2471 171.662 28.0371 171.447C27.8318 171.228 27.6708 170.964 27.5541 170.656C27.4374 170.348 27.3791 170.003 27.3791 169.62C27.3791 169.228 27.4374 168.873 27.5541 168.556C27.6708 168.239 27.8318 167.97 28.0371 167.751C28.2471 167.532 28.4944 167.364 28.7791 167.247C29.0638 167.126 29.3741 167.065 29.7101 167.065C30.0461 167.065 30.3564 167.126 30.6411 167.247C30.9304 167.364 31.1778 167.532 31.3831 167.751C31.5931 167.97 31.7564 168.239 31.8731 168.556C31.9944 168.873 32.0551 169.228 32.0551 169.62ZM30.7181 169.62C30.7181 169.349 30.6924 169.123 30.6411 168.941C30.5898 168.759 30.5174 168.612 30.4241 168.5C30.3354 168.388 30.2281 168.309 30.1021 168.262C29.9808 168.211 29.8501 168.185 29.7101 168.185C29.5701 168.185 29.4394 168.211 29.3181 168.262C29.1968 168.309 29.0918 168.388 29.0031 168.5C28.9144 168.612 28.8444 168.759 28.7931 168.941C28.7464 169.123 28.7231 169.349 28.7231 169.62C28.7231 169.881 28.7464 170.101 28.7931 170.278C28.8444 170.455 28.9144 170.598 29.0031 170.705C29.0918 170.812 29.1968 170.889 29.3181 170.936C29.4394 170.983 29.5701 171.006 29.7101 171.006C29.8501 171.006 29.9808 170.983 30.1021 170.936C30.2281 170.889 30.3354 170.812 30.4241 170.705C30.5174 170.598 30.5898 170.455 30.6411 170.278C30.6924 170.101 30.7181 169.881 30.7181 169.62Z" fill="#383192"/>
<rect x="71" width="38" height="181" rx="4" fill="#17213A" fill-opacity="0.06"/>
<path d="M87.77 166.939C87.77 167.821 87.6743 168.589 87.483 169.242C87.2963 169.891 87.035 170.427 86.699 170.852C86.3677 171.277 85.9733 171.594 85.516 171.804C85.0633 172.009 84.5733 172.112 84.046 172.112C83.5187 172.112 83.0287 172.009 82.576 171.804C82.128 171.594 81.7383 171.277 81.407 170.852C81.0757 170.427 80.8167 169.891 80.63 169.242C80.4433 168.589 80.35 167.821 80.35 166.939C80.35 166.052 80.4433 165.285 80.63 164.636C80.8167 163.987 81.0757 163.451 81.407 163.026C81.7383 162.601 82.128 162.286 82.576 162.081C83.0287 161.871 83.5187 161.766 84.046 161.766C84.5733 161.766 85.0633 161.871 85.516 162.081C85.9733 162.286 86.3677 162.601 86.699 163.026C87.035 163.451 87.2963 163.987 87.483 164.636C87.6743 165.285 87.77 166.052 87.77 166.939ZM85.985 166.939C85.985 166.206 85.9313 165.6 85.824 165.119C85.7167 164.638 85.572 164.256 85.39 163.971C85.2127 163.686 85.0073 163.488 84.774 163.376C84.5407 163.259 84.298 163.201 84.046 163.201C83.7987 163.201 83.5583 163.259 83.325 163.376C83.0963 163.488 82.8933 163.686 82.716 163.971C82.5387 164.256 82.3963 164.638 82.289 165.119C82.1863 165.6 82.135 166.206 82.135 166.939C82.135 167.672 82.1863 168.278 82.289 168.759C82.3963 169.24 82.5387 169.622 82.716 169.907C82.8933 170.192 83.0963 170.392 83.325 170.509C83.5583 170.621 83.7987 170.677 84.046 170.677C84.298 170.677 84.5407 170.621 84.774 170.509C85.0073 170.392 85.2127 170.192 85.39 169.907C85.572 169.622 85.7167 169.24 85.824 168.759C85.9313 168.278 85.985 167.672 85.985 166.939ZM93.3361 164.328C93.3361 164.711 93.2708 165.056 93.1401 165.364C93.0141 165.672 92.8438 165.936 92.6291 166.155C92.4144 166.37 92.1648 166.535 91.8801 166.652C91.5954 166.769 91.2991 166.827 90.9911 166.827C90.6551 166.827 90.3448 166.769 90.0601 166.652C89.7754 166.535 89.5281 166.37 89.3181 166.155C89.1128 165.936 88.9518 165.672 88.8351 165.364C88.7184 165.056 88.6601 164.711 88.6601 164.328C88.6601 163.936 88.7184 163.581 88.8351 163.264C88.9518 162.947 89.1128 162.678 89.3181 162.459C89.5281 162.24 89.7754 162.072 90.0601 161.955C90.3448 161.834 90.6551 161.773 90.9911 161.773C91.3271 161.773 91.6374 161.834 91.9221 161.955C92.2114 162.072 92.4611 162.24 92.6711 162.459C92.8811 162.678 93.0444 162.947 93.1611 163.264C93.2778 163.581 93.3361 163.936 93.3361 164.328ZM92.0061 164.328C92.0061 164.057 91.9781 163.831 91.9221 163.649C91.8708 163.467 91.7984 163.32 91.7051 163.208C91.6164 163.096 91.5091 163.017 91.3831 162.97C91.2618 162.919 91.1311 162.893 90.9911 162.893C90.8511 162.893 90.7204 162.919 90.5991 162.97C90.4778 163.017 90.3728 163.096 90.2841 163.208C90.2001 163.32 90.1324 163.467 90.0811 163.649C90.0298 163.831 90.0041 164.057 90.0041 164.328C90.0041 164.589 90.0298 164.809 90.0811 164.986C90.1324 165.159 90.2001 165.299 90.2841 165.406C90.3728 165.513 90.4778 165.59 90.5991 165.637C90.7204 165.684 90.8511 165.707 90.9911 165.707C91.1311 165.707 91.2618 165.684 91.3831 165.637C91.5091 165.59 91.6164 165.513 91.7051 165.406C91.7984 165.299 91.8708 165.159 91.9221 164.986C91.9781 164.809 92.0061 164.589 92.0061 164.328ZM96.7031 162.151C96.7638 162.081 96.8338 162.018 96.9131 161.962C96.9971 161.906 97.1138 161.878 97.2631 161.878H98.5231L91.0051 171.741C90.9444 171.816 90.8721 171.879 90.7881 171.93C90.7041 171.977 90.6014 172 90.4801 172H89.1921L96.7031 162.151ZM99.0551 169.62C99.0551 170.003 98.9898 170.348 98.8591 170.656C98.7331 170.964 98.5628 171.228 98.3481 171.447C98.1334 171.662 97.8838 171.83 97.5991 171.951C97.3144 172.068 97.0181 172.126 96.7101 172.126C96.3741 172.126 96.0638 172.068 95.7791 171.951C95.4944 171.83 95.2471 171.662 95.0371 171.447C94.8318 171.228 94.6708 170.964 94.5541 170.656C94.4374 170.348 94.3791 170.003 94.3791 169.62C94.3791 169.228 94.4374 168.873 94.5541 168.556C94.6708 168.239 94.8318 167.97 95.0371 167.751C95.2471 167.532 95.4944 167.364 95.7791 167.247C96.0638 167.126 96.3741 167.065 96.7101 167.065C97.0461 167.065 97.3564 167.126 97.6411 167.247C97.9304 167.364 98.1778 167.532 98.3831 167.751C98.5931 167.97 98.7564 168.239 98.8731 168.556C98.9944 168.873 99.0551 169.228 99.0551 169.62ZM97.7181 169.62C97.7181 169.349 97.6924 169.123 97.6411 168.941C97.5898 168.759 97.5174 168.612 97.4241 168.5C97.3354 168.388 97.2281 168.309 97.1021 168.262C96.9808 168.211 96.8501 168.185 96.7101 168.185C96.5701 168.185 96.4394 168.211 96.3181 168.262C96.1968 168.309 96.0918 168.388 96.0031 168.5C95.9144 168.612 95.8444 168.759 95.7931 168.941C95.7464 169.123 95.7231 169.349 95.7231 169.62C95.7231 169.881 95.7464 170.101 95.7931 170.278C95.8444 170.455 95.9144 170.598 96.0031 170.705C96.0918 170.812 96.1968 170.889 96.3181 170.936C96.4394 170.983 96.5701 171.006 96.7101 171.006C96.8501 171.006 96.9808 170.983 97.1021 170.936C97.2281 170.889 97.3354 170.812 97.4241 170.705C97.5174 170.598 97.5898 170.455 97.6411 170.278C97.6924 170.101 97.7181 169.881 97.7181 169.62Z" fill="#383192"/>
<rect x="142" width="38" height="181" rx="4" fill="#17213A" fill-opacity="0.06"/>
<path d="M158.77 166.939C158.77 167.821 158.674 168.589 158.483 169.242C158.296 169.891 158.035 170.427 157.699 170.852C157.368 171.277 156.973 171.594 156.516 171.804C156.063 172.009 155.573 172.112 155.046 172.112C154.519 172.112 154.029 172.009 153.576 171.804C153.128 171.594 152.738 171.277 152.407 170.852C152.076 170.427 151.817 169.891 151.63 169.242C151.443 168.589 151.35 167.821 151.35 166.939C151.35 166.052 151.443 165.285 151.63 164.636C151.817 163.987 152.076 163.451 152.407 163.026C152.738 162.601 153.128 162.286 153.576 162.081C154.029 161.871 154.519 161.766 155.046 161.766C155.573 161.766 156.063 161.871 156.516 162.081C156.973 162.286 157.368 162.601 157.699 163.026C158.035 163.451 158.296 163.987 158.483 164.636C158.674 165.285 158.77 166.052 158.77 166.939ZM156.985 166.939C156.985 166.206 156.931 165.6 156.824 165.119C156.717 164.638 156.572 164.256 156.39 163.971C156.213 163.686 156.007 163.488 155.774 163.376C155.541 163.259 155.298 163.201 155.046 163.201C154.799 163.201 154.558 163.259 154.325 163.376C154.096 163.488 153.893 163.686 153.716 163.971C153.539 164.256 153.396 164.638 153.289 165.119C153.186 165.6 153.135 166.206 153.135 166.939C153.135 167.672 153.186 168.278 153.289 168.759C153.396 169.24 153.539 169.622 153.716 169.907C153.893 170.192 154.096 170.392 154.325 170.509C154.558 170.621 154.799 170.677 155.046 170.677C155.298 170.677 155.541 170.621 155.774 170.509C156.007 170.392 156.213 170.192 156.39 169.907C156.572 169.622 156.717 169.24 156.824 168.759C156.931 168.278 156.985 167.672 156.985 166.939ZM164.336 164.328C164.336 164.711 164.271 165.056 164.14 165.364C164.014 165.672 163.844 165.936 163.629 166.155C163.414 166.37 163.165 166.535 162.88 166.652C162.595 166.769 162.299 166.827 161.991 166.827C161.655 166.827 161.345 166.769 161.06 166.652C160.775 166.535 160.528 166.37 160.318 166.155C160.113 165.936 159.952 165.672 159.835 165.364C159.718 165.056 159.66 164.711 159.66 164.328C159.66 163.936 159.718 163.581 159.835 163.264C159.952 162.947 160.113 162.678 160.318 162.459C160.528 162.24 160.775 162.072 161.06 161.955C161.345 161.834 161.655 161.773 161.991 161.773C162.327 161.773 162.637 161.834 162.922 161.955C163.211 162.072 163.461 162.24 163.671 162.459C163.881 162.678 164.044 162.947 164.161 163.264C164.278 163.581 164.336 163.936 164.336 164.328ZM163.006 164.328C163.006 164.057 162.978 163.831 162.922 163.649C162.871 163.467 162.798 163.32 162.705 163.208C162.616 163.096 162.509 163.017 162.383 162.97C162.262 162.919 162.131 162.893 161.991 162.893C161.851 162.893 161.72 162.919 161.599 162.97C161.478 163.017 161.373 163.096 161.284 163.208C161.2 163.32 161.132 163.467 161.081 163.649C161.03 163.831 161.004 164.057 161.004 164.328C161.004 164.589 161.03 164.809 161.081 164.986C161.132 165.159 161.2 165.299 161.284 165.406C161.373 165.513 161.478 165.59 161.599 165.637C161.72 165.684 161.851 165.707 161.991 165.707C162.131 165.707 162.262 165.684 162.383 165.637C162.509 165.59 162.616 165.513 162.705 165.406C162.798 165.299 162.871 165.159 162.922 164.986C162.978 164.809 163.006 164.589 163.006 164.328ZM167.703 162.151C167.764 162.081 167.834 162.018 167.913 161.962C167.997 161.906 168.114 161.878 168.263 161.878H169.523L162.005 171.741C161.944 171.816 161.872 171.879 161.788 171.93C161.704 171.977 161.601 172 161.48 172H160.192L167.703 162.151ZM170.055 169.62C170.055 170.003 169.99 170.348 169.859 170.656C169.733 170.964 169.563 171.228 169.348 171.447C169.133 171.662 168.884 171.83 168.599 171.951C168.314 172.068 168.018 172.126 167.71 172.126C167.374 172.126 167.064 172.068 166.779 171.951C166.494 171.83 166.247 171.662 166.037 171.447C165.832 171.228 165.671 170.964 165.554 170.656C165.437 170.348 165.379 170.003 165.379 169.62C165.379 169.228 165.437 168.873 165.554 168.556C165.671 168.239 165.832 167.97 166.037 167.751C166.247 167.532 166.494 167.364 166.779 167.247C167.064 167.126 167.374 167.065 167.71 167.065C168.046 167.065 168.356 167.126 168.641 167.247C168.93 167.364 169.178 167.532 169.383 167.751C169.593 167.97 169.756 168.239 169.873 168.556C169.994 168.873 170.055 169.228 170.055 169.62ZM168.718 169.62C168.718 169.349 168.692 169.123 168.641 168.941C168.59 168.759 168.517 168.612 168.424 168.5C168.335 168.388 168.228 168.309 168.102 168.262C167.981 168.211 167.85 168.185 167.71 168.185C167.57 168.185 167.439 168.211 167.318 168.262C167.197 168.309 167.092 168.388 167.003 168.5C166.914 168.612 166.844 168.759 166.793 168.941C166.746 169.123 166.723 169.349 166.723 169.62C166.723 169.881 166.746 170.101 166.793 170.278C166.844 170.455 166.914 170.598 167.003 170.705C167.092 170.812 167.197 170.889 167.318 170.936C167.439 170.983 167.57 171.006 167.71 171.006C167.85 171.006 167.981 170.983 168.102 170.936C168.228 170.889 168.335 170.812 168.424 170.705C168.517 170.598 168.59 170.455 168.641 170.278C168.692 170.101 168.718 169.881 168.718 169.62Z" fill="#383192"/>
<rect x="211" width="38" height="181" rx="4" fill="#17213A" fill-opacity="0.06"/>
<path d="M227.77 166.939C227.77 167.821 227.674 168.589 227.483 169.242C227.296 169.891 227.035 170.427 226.699 170.852C226.368 171.277 225.973 171.594 225.516 171.804C225.063 172.009 224.573 172.112 224.046 172.112C223.519 172.112 223.029 172.009 222.576 171.804C222.128 171.594 221.738 171.277 221.407 170.852C221.076 170.427 220.817 169.891 220.63 169.242C220.443 168.589 220.35 167.821 220.35 166.939C220.35 166.052 220.443 165.285 220.63 164.636C220.817 163.987 221.076 163.451 221.407 163.026C221.738 162.601 222.128 162.286 222.576 162.081C223.029 161.871 223.519 161.766 224.046 161.766C224.573 161.766 225.063 161.871 225.516 162.081C225.973 162.286 226.368 162.601 226.699 163.026C227.035 163.451 227.296 163.987 227.483 164.636C227.674 165.285 227.77 166.052 227.77 166.939ZM225.985 166.939C225.985 166.206 225.931 165.6 225.824 165.119C225.717 164.638 225.572 164.256 225.39 163.971C225.213 163.686 225.007 163.488 224.774 163.376C224.541 163.259 224.298 163.201 224.046 163.201C223.799 163.201 223.558 163.259 223.325 163.376C223.096 163.488 222.893 163.686 222.716 163.971C222.539 164.256 222.396 164.638 222.289 165.119C222.186 165.6 222.135 166.206 222.135 166.939C222.135 167.672 222.186 168.278 222.289 168.759C222.396 169.24 222.539 169.622 222.716 169.907C222.893 170.192 223.096 170.392 223.325 170.509C223.558 170.621 223.799 170.677 224.046 170.677C224.298 170.677 224.541 170.621 224.774 170.509C225.007 170.392 225.213 170.192 225.39 169.907C225.572 169.622 225.717 169.24 225.824 168.759C225.931 168.278 225.985 167.672 225.985 166.939ZM233.336 164.328C233.336 164.711 233.271 165.056 233.14 165.364C233.014 165.672 232.844 165.936 232.629 166.155C232.414 166.37 232.165 166.535 231.88 166.652C231.595 166.769 231.299 166.827 230.991 166.827C230.655 166.827 230.345 166.769 230.06 166.652C229.775 166.535 229.528 166.37 229.318 166.155C229.113 165.936 228.952 165.672 228.835 165.364C228.718 165.056 228.66 164.711 228.66 164.328C228.66 163.936 228.718 163.581 228.835 163.264C228.952 162.947 229.113 162.678 229.318 162.459C229.528 162.24 229.775 162.072 230.06 161.955C230.345 161.834 230.655 161.773 230.991 161.773C231.327 161.773 231.637 161.834 231.922 161.955C232.211 162.072 232.461 162.24 232.671 162.459C232.881 162.678 233.044 162.947 233.161 163.264C233.278 163.581 233.336 163.936 233.336 164.328ZM232.006 164.328C232.006 164.057 231.978 163.831 231.922 163.649C231.871 163.467 231.798 163.32 231.705 163.208C231.616 163.096 231.509 163.017 231.383 162.97C231.262 162.919 231.131 162.893 230.991 162.893C230.851 162.893 230.72 162.919 230.599 162.97C230.478 163.017 230.373 163.096 230.284 163.208C230.2 163.32 230.132 163.467 230.081 163.649C230.03 163.831 230.004 164.057 230.004 164.328C230.004 164.589 230.03 164.809 230.081 164.986C230.132 165.159 230.2 165.299 230.284 165.406C230.373 165.513 230.478 165.59 230.599 165.637C230.72 165.684 230.851 165.707 230.991 165.707C231.131 165.707 231.262 165.684 231.383 165.637C231.509 165.59 231.616 165.513 231.705 165.406C231.798 165.299 231.871 165.159 231.922 164.986C231.978 164.809 232.006 164.589 232.006 164.328ZM236.703 162.151C236.764 162.081 236.834 162.018 236.913 161.962C236.997 161.906 237.114 161.878 237.263 161.878H238.523L231.005 171.741C230.944 171.816 230.872 171.879 230.788 171.93C230.704 171.977 230.601 172 230.48 172H229.192L236.703 162.151ZM239.055 169.62C239.055 170.003 238.99 170.348 238.859 170.656C238.733 170.964 238.563 171.228 238.348 171.447C238.133 171.662 237.884 171.83 237.599 171.951C237.314 172.068 237.018 172.126 236.71 172.126C236.374 172.126 236.064 172.068 235.779 171.951C235.494 171.83 235.247 171.662 235.037 171.447C234.832 171.228 234.671 170.964 234.554 170.656C234.437 170.348 234.379 170.003 234.379 169.62C234.379 169.228 234.437 168.873 234.554 168.556C234.671 168.239 234.832 167.97 235.037 167.751C235.247 167.532 235.494 167.364 235.779 167.247C236.064 167.126 236.374 167.065 236.71 167.065C237.046 167.065 237.356 167.126 237.641 167.247C237.93 167.364 238.178 167.532 238.383 167.751C238.593 167.97 238.756 168.239 238.873 168.556C238.994 168.873 239.055 169.228 239.055 169.62ZM237.718 169.62C237.718 169.349 237.692 169.123 237.641 168.941C237.59 168.759 237.517 168.612 237.424 168.5C237.335 168.388 237.228 168.309 237.102 168.262C236.981 168.211 236.85 168.185 236.71 168.185C236.57 168.185 236.439 168.211 236.318 168.262C236.197 168.309 236.092 168.388 236.003 168.5C235.914 168.612 235.844 168.759 235.793 168.941C235.746 169.123 235.723 169.349 235.723 169.62C235.723 169.881 235.746 170.101 235.793 170.278C235.844 170.455 235.914 170.598 236.003 170.705C236.092 170.812 236.197 170.889 236.318 170.936C236.439 170.983 236.57 171.006 236.71 171.006C236.85 171.006 236.981 170.983 237.102 170.936C237.228 170.889 237.335 170.812 237.424 170.705C237.517 170.598 237.59 170.455 237.641 170.278C237.692 170.101 237.718 169.881 237.718 169.62Z" fill="#383192"/>
<rect x="276" width="38" height="181" rx="4" fill="#17213A" fill-opacity="0.06"/>
<path d="M292.77 166.939C292.77 167.821 292.674 168.589 292.483 169.242C292.296 169.891 292.035 170.427 291.699 170.852C291.368 171.277 290.973 171.594 290.516 171.804C290.063 172.009 289.573 172.112 289.046 172.112C288.519 172.112 288.029 172.009 287.576 171.804C287.128 171.594 286.738 171.277 286.407 170.852C286.076 170.427 285.817 169.891 285.63 169.242C285.443 168.589 285.35 167.821 285.35 166.939C285.35 166.052 285.443 165.285 285.63 164.636C285.817 163.987 286.076 163.451 286.407 163.026C286.738 162.601 287.128 162.286 287.576 162.081C288.029 161.871 288.519 161.766 289.046 161.766C289.573 161.766 290.063 161.871 290.516 162.081C290.973 162.286 291.368 162.601 291.699 163.026C292.035 163.451 292.296 163.987 292.483 164.636C292.674 165.285 292.77 166.052 292.77 166.939ZM290.985 166.939C290.985 166.206 290.931 165.6 290.824 165.119C290.717 164.638 290.572 164.256 290.39 163.971C290.213 163.686 290.007 163.488 289.774 163.376C289.541 163.259 289.298 163.201 289.046 163.201C288.799 163.201 288.558 163.259 288.325 163.376C288.096 163.488 287.893 163.686 287.716 163.971C287.539 164.256 287.396 164.638 287.289 165.119C287.186 165.6 287.135 166.206 287.135 166.939C287.135 167.672 287.186 168.278 287.289 168.759C287.396 169.24 287.539 169.622 287.716 169.907C287.893 170.192 288.096 170.392 288.325 170.509C288.558 170.621 288.799 170.677 289.046 170.677C289.298 170.677 289.541 170.621 289.774 170.509C290.007 170.392 290.213 170.192 290.39 169.907C290.572 169.622 290.717 169.24 290.824 168.759C290.931 168.278 290.985 167.672 290.985 166.939ZM298.336 164.328C298.336 164.711 298.271 165.056 298.14 165.364C298.014 165.672 297.844 165.936 297.629 166.155C297.414 166.37 297.165 166.535 296.88 166.652C296.595 166.769 296.299 166.827 295.991 166.827C295.655 166.827 295.345 166.769 295.06 166.652C294.775 166.535 294.528 166.37 294.318 166.155C294.113 165.936 293.952 165.672 293.835 165.364C293.718 165.056 293.66 164.711 293.66 164.328C293.66 163.936 293.718 163.581 293.835 163.264C293.952 162.947 294.113 162.678 294.318 162.459C294.528 162.24 294.775 162.072 295.06 161.955C295.345 161.834 295.655 161.773 295.991 161.773C296.327 161.773 296.637 161.834 296.922 161.955C297.211 162.072 297.461 162.24 297.671 162.459C297.881 162.678 298.044 162.947 298.161 163.264C298.278 163.581 298.336 163.936 298.336 164.328ZM297.006 164.328C297.006 164.057 296.978 163.831 296.922 163.649C296.871 163.467 296.798 163.32 296.705 163.208C296.616 163.096 296.509 163.017 296.383 162.97C296.262 162.919 296.131 162.893 295.991 162.893C295.851 162.893 295.72 162.919 295.599 162.97C295.478 163.017 295.373 163.096 295.284 163.208C295.2 163.32 295.132 163.467 295.081 163.649C295.03 163.831 295.004 164.057 295.004 164.328C295.004 164.589 295.03 164.809 295.081 164.986C295.132 165.159 295.2 165.299 295.284 165.406C295.373 165.513 295.478 165.59 295.599 165.637C295.72 165.684 295.851 165.707 295.991 165.707C296.131 165.707 296.262 165.684 296.383 165.637C296.509 165.59 296.616 165.513 296.705 165.406C296.798 165.299 296.871 165.159 296.922 164.986C296.978 164.809 297.006 164.589 297.006 164.328ZM301.703 162.151C301.764 162.081 301.834 162.018 301.913 161.962C301.997 161.906 302.114 161.878 302.263 161.878H303.523L296.005 171.741C295.944 171.816 295.872 171.879 295.788 171.93C295.704 171.977 295.601 172 295.48 172H294.192L301.703 162.151ZM304.055 169.62C304.055 170.003 303.99 170.348 303.859 170.656C303.733 170.964 303.563 171.228 303.348 171.447C303.133 171.662 302.884 171.83 302.599 171.951C302.314 172.068 302.018 172.126 301.71 172.126C301.374 172.126 301.064 172.068 300.779 171.951C300.494 171.83 300.247 171.662 300.037 171.447C299.832 171.228 299.671 170.964 299.554 170.656C299.437 170.348 299.379 170.003 299.379 169.62C299.379 169.228 299.437 168.873 299.554 168.556C299.671 168.239 299.832 167.97 300.037 167.751C300.247 167.532 300.494 167.364 300.779 167.247C301.064 167.126 301.374 167.065 301.71 167.065C302.046 167.065 302.356 167.126 302.641 167.247C302.93 167.364 303.178 167.532 303.383 167.751C303.593 167.97 303.756 168.239 303.873 168.556C303.994 168.873 304.055 169.228 304.055 169.62ZM302.718 169.62C302.718 169.349 302.692 169.123 302.641 168.941C302.59 168.759 302.517 168.612 302.424 168.5C302.335 168.388 302.228 168.309 302.102 168.262C301.981 168.211 301.85 168.185 301.71 168.185C301.57 168.185 301.439 168.211 301.318 168.262C301.197 168.309 301.092 168.388 301.003 168.5C300.914 168.612 300.844 168.759 300.793 168.941C300.746 169.123 300.723 169.349 300.723 169.62C300.723 169.881 300.746 170.101 300.793 170.278C300.844 170.455 300.914 170.598 301.003 170.705C301.092 170.812 301.197 170.889 301.318 170.936C301.439 170.983 301.57 171.006 301.71 171.006C301.85 171.006 301.981 170.983 302.102 170.936C302.228 170.889 302.335 170.812 302.424 170.705C302.517 170.598 302.59 170.455 302.641 170.278C302.692 170.101 302.718 169.881 302.718 169.62Z" fill="#383192"/>
<path d="M12.103 200.878V211H10.444V204.462C10.444 204.201 10.458 203.918 10.486 203.615L7.427 209.362C7.28233 209.637 7.06067 209.775 6.762 209.775H6.496C6.19733 209.775 5.97567 209.637 5.831 209.362L2.737 203.594C2.751 203.748 2.76267 203.9 2.772 204.049C2.78133 204.198 2.786 204.336 2.786 204.462V211H1.127V200.878H2.548C2.632 200.878 2.70433 200.88 2.765 200.885C2.82567 200.89 2.87933 200.901 2.926 200.92C2.97733 200.939 3.02167 200.969 3.059 201.011C3.101 201.053 3.14067 201.109 3.178 201.179L6.209 206.8C6.28833 206.949 6.36067 207.103 6.426 207.262C6.496 207.421 6.56367 207.584 6.629 207.752C6.69433 207.579 6.762 207.414 6.832 207.255C6.902 207.092 6.97667 206.935 7.056 206.786L10.045 201.179C10.0823 201.109 10.122 201.053 10.164 201.011C10.206 200.969 10.2503 200.939 10.297 200.92C10.3483 200.901 10.4043 200.89 10.465 200.885C10.5257 200.88 10.598 200.878 10.682 200.878H12.103ZM18.4966 206.583C18.4966 206.359 18.464 206.149 18.3986 205.953C18.338 205.752 18.2446 205.577 18.1186 205.428C17.9926 205.279 17.8316 205.162 17.6356 205.078C17.4443 204.989 17.2203 204.945 16.9636 204.945C16.4643 204.945 16.07 205.087 15.7806 205.372C15.496 205.657 15.314 206.06 15.2346 206.583H18.4966ZM15.1996 207.626C15.2276 207.995 15.293 208.314 15.3956 208.585C15.4983 208.851 15.6336 209.073 15.8016 209.25C15.9696 209.423 16.168 209.553 16.3966 209.642C16.63 209.726 16.8866 209.768 17.1666 209.768C17.4466 209.768 17.687 209.735 17.8876 209.67C18.093 209.605 18.2703 209.532 18.4196 209.453C18.5736 209.374 18.7066 209.301 18.8186 209.236C18.9353 209.171 19.0473 209.138 19.1546 209.138C19.2993 209.138 19.4066 209.192 19.4766 209.299L19.9736 209.929C19.7823 210.153 19.5676 210.342 19.3296 210.496C19.0916 210.645 18.842 210.767 18.5806 210.86C18.324 210.949 18.0603 211.012 17.7896 211.049C17.5236 211.086 17.2646 211.105 17.0126 211.105C16.5133 211.105 16.049 211.023 15.6196 210.86C15.1903 210.692 14.817 210.447 14.4996 210.125C14.1823 209.798 13.9326 209.397 13.7506 208.921C13.5686 208.44 13.4776 207.885 13.4776 207.255C13.4776 206.765 13.557 206.305 13.7156 205.876C13.8743 205.442 14.1006 205.066 14.3946 204.749C14.6933 204.427 15.055 204.173 15.4796 203.986C15.909 203.799 16.392 203.706 16.9286 203.706C17.3813 203.706 17.799 203.778 18.1816 203.923C18.5643 204.068 18.8933 204.28 19.1686 204.56C19.444 204.835 19.6586 205.176 19.8126 205.582C19.9713 205.983 20.0506 206.443 20.0506 206.961C20.0506 207.222 20.0226 207.4 19.9666 207.493C19.9106 207.582 19.8033 207.626 19.6446 207.626H15.1996ZM25.8561 205.652C25.6601 205.414 25.4455 205.246 25.2121 205.148C24.9835 205.05 24.7361 205.001 24.4701 205.001C24.2088 205.001 23.9731 205.05 23.7631 205.148C23.5531 205.246 23.3735 205.395 23.2241 205.596C23.0748 205.792 22.9605 206.044 22.8811 206.352C22.8018 206.655 22.7621 207.015 22.7621 207.43C22.7621 207.85 22.7948 208.207 22.8601 208.501C22.9301 208.79 23.0281 209.028 23.1541 209.215C23.2801 209.397 23.4341 209.53 23.6161 209.614C23.7981 209.693 24.0011 209.733 24.2251 209.733C24.5845 209.733 24.8901 209.658 25.1421 209.509C25.3941 209.36 25.6321 209.147 25.8561 208.872V205.652ZM27.5851 200.598V211H26.5281C26.2995 211 26.1548 210.895 26.0941 210.685L25.9471 209.992C25.6578 210.323 25.3241 210.592 24.9461 210.797C24.5728 211.002 24.1365 211.105 23.6371 211.105C23.2451 211.105 22.8858 211.023 22.5591 210.86C22.2325 210.697 21.9501 210.461 21.7121 210.153C21.4788 209.84 21.2968 209.455 21.1661 208.998C21.0401 208.541 20.9771 208.018 20.9771 207.43C20.9771 206.898 21.0495 206.403 21.1941 205.946C21.3388 205.489 21.5465 205.092 21.8171 204.756C22.0878 204.42 22.4121 204.159 22.7901 203.972C23.1681 203.781 23.5928 203.685 24.0641 203.685C24.4655 203.685 24.8085 203.748 25.0931 203.874C25.3778 204 25.6321 204.17 25.8561 204.385V200.598H27.5851ZM30.9225 205.064C31.1465 204.635 31.4125 204.299 31.7205 204.056C32.0285 203.809 32.3925 203.685 32.8125 203.685C33.1438 203.685 33.4098 203.757 33.6105 203.902L33.4985 205.197C33.4752 205.281 33.4402 205.342 33.3935 205.379C33.3515 205.412 33.2932 205.428 33.2185 205.428C33.1485 205.428 33.0435 205.416 32.9035 205.393C32.7682 205.37 32.6352 205.358 32.5045 205.358C32.3132 205.358 32.1428 205.386 31.9935 205.442C31.8442 205.498 31.7088 205.58 31.5875 205.687C31.4708 205.79 31.3658 205.916 31.2725 206.065C31.1838 206.214 31.0998 206.385 31.0205 206.576V211H29.2915V203.818H30.3065C30.4838 203.818 30.6075 203.851 30.6775 203.916C30.7475 203.977 30.7942 204.089 30.8175 204.252L30.9225 205.064ZM36.3062 203.818V211H34.5702V203.818H36.3062ZM36.5442 201.725C36.5442 201.874 36.5138 202.014 36.4532 202.145C36.3925 202.276 36.3108 202.39 36.2082 202.488C36.1102 202.586 35.9935 202.665 35.8582 202.726C35.7228 202.782 35.5782 202.81 35.4242 202.81C35.2748 202.81 35.1325 202.782 34.9972 202.726C34.8665 202.665 34.7522 202.586 34.6542 202.488C34.5562 202.39 34.4768 202.276 34.4162 202.145C34.3602 202.014 34.3322 201.874 34.3322 201.725C34.3322 201.571 34.3602 201.426 34.4162 201.291C34.4768 201.156 34.5562 201.039 34.6542 200.941C34.7522 200.843 34.8665 200.766 34.9972 200.71C35.1325 200.649 35.2748 200.619 35.4242 200.619C35.5782 200.619 35.7228 200.649 35.8582 200.71C35.9935 200.766 36.1102 200.843 36.2082 200.941C36.3108 201.039 36.3925 201.156 36.4532 201.291C36.5138 201.426 36.5442 201.571 36.5442 201.725ZM42.5768 205.652C42.3808 205.414 42.1662 205.246 41.9328 205.148C41.7042 205.05 41.4568 205.001 41.1908 205.001C40.9295 205.001 40.6938 205.05 40.4838 205.148C40.2738 205.246 40.0942 205.395 39.9448 205.596C39.7955 205.792 39.6812 206.044 39.6018 206.352C39.5225 206.655 39.4828 207.015 39.4828 207.43C39.4828 207.85 39.5155 208.207 39.5808 208.501C39.6508 208.79 39.7488 209.028 39.8748 209.215C40.0008 209.397 40.1548 209.53 40.3368 209.614C40.5188 209.693 40.7218 209.733 40.9458 209.733C41.3052 209.733 41.6108 209.658 41.8628 209.509C42.1148 209.36 42.3528 209.147 42.5768 208.872V205.652ZM44.3058 200.598V211H43.2488C43.0202 211 42.8755 210.895 42.8148 210.685L42.6678 209.992C42.3785 210.323 42.0448 210.592 41.6668 210.797C41.2935 211.002 40.8572 211.105 40.3578 211.105C39.9658 211.105 39.6065 211.023 39.2798 210.86C38.9532 210.697 38.6708 210.461 38.4328 210.153C38.1995 209.84 38.0175 209.455 37.8868 208.998C37.7608 208.541 37.6978 208.018 37.6978 207.43C37.6978 206.898 37.7702 206.403 37.9148 205.946C38.0595 205.489 38.2672 205.092 38.5378 204.756C38.8085 204.42 39.1328 204.159 39.5108 203.972C39.8888 203.781 40.3135 203.685 40.7848 203.685C41.1862 203.685 41.5292 203.748 41.8138 203.874C42.0985 204 42.3528 204.17 42.5768 204.385V200.598H44.3058Z" fill="#17213A"/>
<path d="M65.475 207.178L64.243 203.811C64.1823 203.662 64.1193 203.484 64.054 203.279C63.9887 203.074 63.9233 202.852 63.858 202.614C63.7973 202.852 63.7343 203.076 63.669 203.286C63.6037 203.491 63.5407 203.671 63.48 203.825L62.255 207.178H65.475ZM68.8 211H67.344C67.1807 211 67.0477 210.96 66.945 210.881C66.8423 210.797 66.7653 210.694 66.714 210.573L65.958 208.508H61.765L61.009 210.573C60.9717 210.68 60.8993 210.778 60.792 210.867C60.6847 210.956 60.5517 211 60.393 211H58.923L62.906 200.878H64.824L68.8 211ZM71.178 204.7C71.3227 204.555 71.4744 204.422 71.633 204.301C71.7964 204.175 71.9667 204.07 72.144 203.986C72.326 203.897 72.5197 203.83 72.725 203.783C72.9304 203.732 73.1544 203.706 73.397 203.706C73.789 203.706 74.1367 203.774 74.44 203.909C74.7434 204.04 74.9954 204.226 75.196 204.469C75.4014 204.707 75.5554 204.994 75.658 205.33C75.7654 205.661 75.819 206.028 75.819 206.429V211H74.09V206.429C74.09 205.99 73.9897 205.652 73.789 205.414C73.5884 205.171 73.2827 205.05 72.872 205.05C72.5734 205.05 72.2934 205.118 72.032 205.253C71.7707 205.388 71.5234 205.573 71.29 205.806V211H69.561V203.818H70.618C70.842 203.818 70.989 203.923 71.059 204.133L71.178 204.7ZM81.9714 205.652C81.7754 205.414 81.5607 205.246 81.3274 205.148C81.0987 205.05 80.8514 205.001 80.5854 205.001C80.324 205.001 80.0884 205.05 79.8784 205.148C79.6684 205.246 79.4887 205.395 79.3394 205.596C79.19 205.792 79.0757 206.044 78.9964 206.352C78.917 206.655 78.8774 207.015 78.8774 207.43C78.8774 207.85 78.91 208.207 78.9754 208.501C79.0454 208.79 79.1434 209.028 79.2694 209.215C79.3954 209.397 79.5494 209.53 79.7314 209.614C79.9134 209.693 80.1164 209.733 80.3404 209.733C80.6997 209.733 81.0054 209.658 81.2574 209.509C81.5094 209.36 81.7474 209.147 81.9714 208.872V205.652ZM83.7004 200.598V211H82.6434C82.4147 211 82.27 210.895 82.2094 210.685L82.0624 209.992C81.773 210.323 81.4394 210.592 81.0614 210.797C80.688 211.002 80.2517 211.105 79.7524 211.105C79.3604 211.105 79.001 211.023 78.6744 210.86C78.3477 210.697 78.0654 210.461 77.8274 210.153C77.594 209.84 77.412 209.455 77.2814 208.998C77.1554 208.541 77.0924 208.018 77.0924 207.43C77.0924 206.898 77.1647 206.403 77.3094 205.946C77.454 205.489 77.6617 205.092 77.9324 204.756C78.203 204.42 78.5274 204.159 78.9054 203.972C79.2834 203.781 79.708 203.685 80.1794 203.685C80.5807 203.685 80.9237 203.748 81.2084 203.874C81.493 204 81.7474 204.17 81.9714 204.385V200.598H83.7004ZM89.2007 207.934C88.7014 207.957 88.2814 208.002 87.9407 208.067C87.6001 208.128 87.3271 208.207 87.1217 208.305C86.9164 208.403 86.7694 208.517 86.6807 208.648C86.5921 208.779 86.5477 208.921 86.5477 209.075C86.5477 209.378 86.6364 209.595 86.8137 209.726C86.9957 209.857 87.2314 209.922 87.5207 209.922C87.8754 209.922 88.1811 209.859 88.4377 209.733C88.6991 209.602 88.9534 209.406 89.2007 209.145V207.934ZM85.2387 204.819C86.0647 204.063 87.0587 203.685 88.2207 203.685C88.6407 203.685 89.0164 203.755 89.3477 203.895C89.6791 204.03 89.9591 204.222 90.1877 204.469C90.4164 204.712 90.5891 205.003 90.7057 205.344C90.8271 205.685 90.8877 206.058 90.8877 206.464V211H90.1037C89.9404 211 89.8144 210.977 89.7257 210.93C89.6371 210.879 89.5671 210.778 89.5157 210.629L89.3617 210.111C89.1797 210.274 89.0024 210.419 88.8297 210.545C88.6571 210.666 88.4774 210.769 88.2907 210.853C88.1041 210.937 87.9034 211 87.6887 211.042C87.4787 211.089 87.2454 211.112 86.9887 211.112C86.6854 211.112 86.4054 211.072 86.1487 210.993C85.8921 210.909 85.6704 210.785 85.4837 210.622C85.2971 210.459 85.1524 210.256 85.0497 210.013C84.9471 209.77 84.8957 209.488 84.8957 209.166C84.8957 208.984 84.9261 208.804 84.9867 208.627C85.0474 208.445 85.1454 208.272 85.2807 208.109C85.4207 207.946 85.6004 207.792 85.8197 207.647C86.0391 207.502 86.3074 207.376 86.6247 207.269C86.9467 207.162 87.3201 207.075 87.7447 207.01C88.1694 206.94 88.6547 206.898 89.2007 206.884V206.464C89.2007 205.983 89.0981 205.629 88.8927 205.4C88.6874 205.167 88.3911 205.05 88.0037 205.05C87.7237 205.05 87.4904 205.083 87.3037 205.148C87.1217 205.213 86.9607 205.288 86.8207 205.372C86.6807 205.451 86.5524 205.524 86.4357 205.589C86.3237 205.654 86.1977 205.687 86.0577 205.687C85.9364 205.687 85.8337 205.657 85.7497 205.596C85.6657 205.531 85.5981 205.456 85.5467 205.372L85.2387 204.819ZM94.2661 200.598V211H92.5371V200.598H94.2661ZM102.177 203.818V211H101.12C100.891 211 100.746 210.895 100.686 210.685L100.567 210.111C100.273 210.41 99.9484 210.652 99.5938 210.839C99.2391 211.021 98.8214 211.112 98.3408 211.112C97.9488 211.112 97.6011 211.047 97.2978 210.916C96.9991 210.781 96.7471 210.592 96.5418 210.349C96.3364 210.106 96.1801 209.819 96.0728 209.488C95.9701 209.152 95.9188 208.783 95.9188 208.382V203.818H97.6478V208.382C97.6478 208.821 97.7481 209.161 97.9488 209.404C98.1541 209.642 98.4598 209.761 98.8658 209.761C99.1644 209.761 99.4444 209.696 99.7058 209.565C99.9671 209.43 100.214 209.245 100.448 209.012V203.818H102.177ZM109.036 205.337C108.985 205.402 108.933 205.454 108.882 205.491C108.835 205.528 108.765 205.547 108.672 205.547C108.583 205.547 108.497 205.521 108.413 205.47C108.329 205.414 108.229 205.353 108.112 205.288C107.995 205.218 107.855 205.157 107.692 205.106C107.533 205.05 107.335 205.022 107.097 205.022C106.794 205.022 106.528 205.078 106.299 205.19C106.07 205.297 105.879 205.454 105.725 205.659C105.576 205.864 105.464 206.114 105.389 206.408C105.314 206.697 105.277 207.026 105.277 207.395C105.277 207.778 105.317 208.118 105.396 208.417C105.48 208.716 105.599 208.968 105.753 209.173C105.907 209.374 106.094 209.528 106.313 209.635C106.532 209.738 106.78 209.789 107.055 209.789C107.33 209.789 107.552 209.756 107.72 209.691C107.893 209.621 108.037 209.546 108.154 209.467C108.271 209.383 108.371 209.308 108.455 209.243C108.544 209.173 108.642 209.138 108.749 209.138C108.889 209.138 108.994 209.192 109.064 209.299L109.561 209.929C109.37 210.153 109.162 210.342 108.938 210.496C108.714 210.645 108.481 210.767 108.238 210.86C108 210.949 107.753 211.012 107.496 211.049C107.244 211.086 106.992 211.105 106.74 211.105C106.297 211.105 105.879 211.023 105.487 210.86C105.095 210.692 104.752 210.449 104.458 210.132C104.164 209.815 103.931 209.427 103.758 208.97C103.59 208.508 103.506 207.983 103.506 207.395C103.506 206.868 103.581 206.38 103.73 205.932C103.884 205.479 104.108 205.09 104.402 204.763C104.696 204.432 105.06 204.173 105.494 203.986C105.928 203.799 106.427 203.706 106.992 203.706C107.529 203.706 107.998 203.792 108.399 203.965C108.805 204.138 109.169 204.385 109.491 204.707L109.036 205.337ZM112.437 203.818V211H110.701V203.818H112.437ZM112.675 201.725C112.675 201.874 112.645 202.014 112.584 202.145C112.523 202.276 112.442 202.39 112.339 202.488C112.241 202.586 112.124 202.665 111.989 202.726C111.854 202.782 111.709 202.81 111.555 202.81C111.406 202.81 111.263 202.782 111.128 202.726C110.997 202.665 110.883 202.586 110.785 202.488C110.687 202.39 110.608 202.276 110.547 202.145C110.491 202.014 110.463 201.874 110.463 201.725C110.463 201.571 110.491 201.426 110.547 201.291C110.608 201.156 110.687 201.039 110.785 200.941C110.883 200.843 110.997 200.766 111.128 200.71C111.263 200.649 111.406 200.619 111.555 200.619C111.709 200.619 111.854 200.649 111.989 200.71C112.124 200.766 112.241 200.843 112.339 200.941C112.442 201.039 112.523 201.156 112.584 201.291C112.645 201.426 112.675 201.571 112.675 201.725ZM117.994 207.934C117.494 207.957 117.074 208.002 116.734 208.067C116.393 208.128 116.12 208.207 115.915 208.305C115.709 208.403 115.562 208.517 115.474 208.648C115.385 208.779 115.341 208.921 115.341 209.075C115.341 209.378 115.429 209.595 115.607 209.726C115.789 209.857 116.024 209.922 116.314 209.922C116.668 209.922 116.974 209.859 117.231 209.733C117.492 209.602 117.746 209.406 117.994 209.145V207.934ZM114.032 204.819C114.858 204.063 115.852 203.685 117.014 203.685C117.434 203.685 117.809 203.755 118.141 203.895C118.472 204.03 118.752 204.222 118.981 204.469C119.209 204.712 119.382 205.003 119.499 205.344C119.62 205.685 119.681 206.058 119.681 206.464V211H118.897C118.733 211 118.607 210.977 118.519 210.93C118.43 210.879 118.36 210.778 118.309 210.629L118.155 210.111C117.973 210.274 117.795 210.419 117.623 210.545C117.45 210.666 117.27 210.769 117.084 210.853C116.897 210.937 116.696 211 116.482 211.042C116.272 211.089 116.038 211.112 115.782 211.112C115.478 211.112 115.198 211.072 114.942 210.993C114.685 210.909 114.463 210.785 114.277 210.622C114.09 210.459 113.945 210.256 113.843 210.013C113.74 209.77 113.689 209.488 113.689 209.166C113.689 208.984 113.719 208.804 113.78 208.627C113.84 208.445 113.938 208.272 114.074 208.109C114.214 207.946 114.393 207.792 114.613 207.647C114.832 207.502 115.1 207.376 115.418 207.269C115.74 207.162 116.113 207.075 116.538 207.01C116.962 206.94 117.448 206.898 117.994 206.884V206.464C117.994 205.983 117.891 205.629 117.686 205.4C117.48 205.167 117.184 205.05 116.797 205.05C116.517 205.05 116.283 205.083 116.097 205.148C115.915 205.213 115.754 205.288 115.614 205.372C115.474 205.451 115.345 205.524 115.229 205.589C115.117 205.654 114.991 205.687 114.851 205.687C114.729 205.687 114.627 205.657 114.543 205.596C114.459 205.531 114.391 205.456 114.34 205.372L114.032 204.819Z" fill="#17213A"/>
<path d="M143.8 200.878L139.712 211H138.011L133.923 200.878H135.435C135.598 200.878 135.731 200.918 135.834 200.997C135.937 201.076 136.014 201.179 136.065 201.305L138.452 207.479C138.531 207.68 138.606 207.901 138.676 208.144C138.751 208.382 138.821 208.632 138.886 208.893C138.942 208.632 139.003 208.382 139.068 208.144C139.133 207.901 139.206 207.68 139.285 207.479L141.658 201.305C141.695 201.198 141.768 201.1 141.875 201.011C141.987 200.922 142.122 200.878 142.281 200.878H143.8ZM147.302 207.934C146.803 207.957 146.383 208.002 146.042 208.067C145.702 208.128 145.429 208.207 145.223 208.305C145.018 208.403 144.871 208.517 144.782 208.648C144.694 208.779 144.649 208.921 144.649 209.075C144.649 209.378 144.738 209.595 144.915 209.726C145.097 209.857 145.333 209.922 145.622 209.922C145.977 209.922 146.283 209.859 146.539 209.733C146.801 209.602 147.055 209.406 147.302 209.145V207.934ZM143.34 204.819C144.166 204.063 145.16 203.685 146.322 203.685C146.742 203.685 147.118 203.755 147.449 203.895C147.781 204.03 148.061 204.222 148.289 204.469C148.518 204.712 148.691 205.003 148.807 205.344C148.929 205.685 148.989 206.058 148.989 206.464V211H148.205C148.042 211 147.916 210.977 147.827 210.93C147.739 210.879 147.669 210.778 147.617 210.629L147.463 210.111C147.281 210.274 147.104 210.419 146.931 210.545C146.759 210.666 146.579 210.769 146.392 210.853C146.206 210.937 146.005 211 145.79 211.042C145.58 211.089 145.347 211.112 145.09 211.112C144.787 211.112 144.507 211.072 144.25 210.993C143.994 210.909 143.772 210.785 143.585 210.622C143.399 210.459 143.254 210.256 143.151 210.013C143.049 209.77 142.997 209.488 142.997 209.166C142.997 208.984 143.028 208.804 143.088 208.627C143.149 208.445 143.247 208.272 143.382 208.109C143.522 207.946 143.702 207.792 143.921 207.647C144.141 207.502 144.409 207.376 144.726 207.269C145.048 207.162 145.422 207.075 145.846 207.01C146.271 206.94 146.756 206.898 147.302 206.884V206.464C147.302 205.983 147.2 205.629 146.994 205.4C146.789 205.167 146.493 205.05 146.105 205.05C145.825 205.05 145.592 205.083 145.405 205.148C145.223 205.213 145.062 205.288 144.922 205.372C144.782 205.451 144.654 205.524 144.537 205.589C144.425 205.654 144.299 205.687 144.159 205.687C144.038 205.687 143.935 205.657 143.851 205.596C143.767 205.531 143.7 205.456 143.648 205.372L143.34 204.819ZM152.368 200.598V211H150.639V200.598H152.368ZM158.717 206.583C158.717 206.359 158.685 206.149 158.619 205.953C158.559 205.752 158.465 205.577 158.339 205.428C158.213 205.279 158.052 205.162 157.856 205.078C157.665 204.989 157.441 204.945 157.184 204.945C156.685 204.945 156.291 205.087 156.001 205.372C155.717 205.657 155.535 206.06 155.455 206.583H158.717ZM155.42 207.626C155.448 207.995 155.514 208.314 155.616 208.585C155.719 208.851 155.854 209.073 156.022 209.25C156.19 209.423 156.389 209.553 156.617 209.642C156.851 209.726 157.107 209.768 157.387 209.768C157.667 209.768 157.908 209.735 158.108 209.67C158.314 209.605 158.491 209.532 158.64 209.453C158.794 209.374 158.927 209.301 159.039 209.236C159.156 209.171 159.268 209.138 159.375 209.138C159.52 209.138 159.627 209.192 159.697 209.299L160.194 209.929C160.003 210.153 159.788 210.342 159.55 210.496C159.312 210.645 159.063 210.767 158.801 210.86C158.545 210.949 158.281 211.012 158.01 211.049C157.744 211.086 157.485 211.105 157.233 211.105C156.734 211.105 156.27 211.023 155.84 210.86C155.411 210.692 155.038 210.447 154.72 210.125C154.403 209.798 154.153 209.397 153.971 208.921C153.789 208.44 153.698 207.885 153.698 207.255C153.698 206.765 153.778 206.305 153.936 205.876C154.095 205.442 154.321 205.066 154.615 204.749C154.914 204.427 155.276 204.173 155.7 203.986C156.13 203.799 156.613 203.706 157.149 203.706C157.602 203.706 158.02 203.778 158.402 203.923C158.785 204.068 159.114 204.28 159.389 204.56C159.665 204.835 159.879 205.176 160.033 205.582C160.192 205.983 160.271 206.443 160.271 206.961C160.271 207.222 160.243 207.4 160.187 207.493C160.131 207.582 160.024 207.626 159.865 207.626H155.42ZM163.186 204.7C163.331 204.555 163.482 204.422 163.641 204.301C163.804 204.175 163.975 204.07 164.152 203.986C164.334 203.897 164.528 203.83 164.733 203.783C164.938 203.732 165.162 203.706 165.405 203.706C165.797 203.706 166.145 203.774 166.448 203.909C166.751 204.04 167.003 204.226 167.204 204.469C167.409 204.707 167.563 204.994 167.666 205.33C167.773 205.661 167.827 206.028 167.827 206.429V211H166.098V206.429C166.098 205.99 165.998 205.652 165.797 205.414C165.596 205.171 165.291 205.05 164.88 205.05C164.581 205.05 164.301 205.118 164.04 205.253C163.779 205.388 163.531 205.573 163.298 205.806V211H161.569V203.818H162.626C162.85 203.818 162.997 203.923 163.067 204.133L163.186 204.7ZM174.616 205.337C174.565 205.402 174.514 205.454 174.462 205.491C174.416 205.528 174.346 205.547 174.252 205.547C174.164 205.547 174.077 205.521 173.993 205.47C173.909 205.414 173.809 205.353 173.692 205.288C173.576 205.218 173.436 205.157 173.272 205.106C173.114 205.05 172.915 205.022 172.677 205.022C172.374 205.022 172.108 205.078 171.879 205.19C171.651 205.297 171.459 205.454 171.305 205.659C171.156 205.864 171.044 206.114 170.969 206.408C170.895 206.697 170.857 207.026 170.857 207.395C170.857 207.778 170.897 208.118 170.976 208.417C171.06 208.716 171.179 208.968 171.333 209.173C171.487 209.374 171.674 209.528 171.893 209.635C172.113 209.738 172.36 209.789 172.635 209.789C172.911 209.789 173.132 209.756 173.3 209.691C173.473 209.621 173.618 209.546 173.734 209.467C173.851 209.383 173.951 209.308 174.035 209.243C174.124 209.173 174.222 209.138 174.329 209.138C174.469 209.138 174.574 209.192 174.644 209.299L175.141 209.929C174.95 210.153 174.742 210.342 174.518 210.496C174.294 210.645 174.061 210.767 173.818 210.86C173.58 210.949 173.333 211.012 173.076 211.049C172.824 211.086 172.572 211.105 172.32 211.105C171.877 211.105 171.459 211.023 171.067 210.86C170.675 210.692 170.332 210.449 170.038 210.132C169.744 209.815 169.511 209.427 169.338 208.97C169.17 208.508 169.086 207.983 169.086 207.395C169.086 206.868 169.161 206.38 169.31 205.932C169.464 205.479 169.688 205.09 169.982 204.763C170.276 204.432 170.64 204.173 171.074 203.986C171.508 203.799 172.008 203.706 172.572 203.706C173.109 203.706 173.578 203.792 173.979 203.965C174.385 204.138 174.749 204.385 175.071 204.707L174.616 205.337ZM178.017 203.818V211H176.281V203.818H178.017ZM178.255 201.725C178.255 201.874 178.225 202.014 178.164 202.145C178.103 202.276 178.022 202.39 177.919 202.488C177.821 202.586 177.704 202.665 177.569 202.726C177.434 202.782 177.289 202.81 177.135 202.81C176.986 202.81 176.843 202.782 176.708 202.726C176.577 202.665 176.463 202.586 176.365 202.488C176.267 202.39 176.188 202.276 176.127 202.145C176.071 202.014 176.043 201.874 176.043 201.725C176.043 201.571 176.071 201.426 176.127 201.291C176.188 201.156 176.267 201.039 176.365 200.941C176.463 200.843 176.577 200.766 176.708 200.71C176.843 200.649 176.986 200.619 177.135 200.619C177.289 200.619 177.434 200.649 177.569 200.71C177.704 200.766 177.821 200.843 177.919 200.941C178.022 201.039 178.103 201.156 178.164 201.291C178.225 201.426 178.255 201.571 178.255 201.725ZM183.574 207.934C183.074 207.957 182.654 208.002 182.314 208.067C181.973 208.128 181.7 208.207 181.495 208.305C181.289 208.403 181.142 208.517 181.054 208.648C180.965 208.779 180.921 208.921 180.921 209.075C180.921 209.378 181.009 209.595 181.187 209.726C181.369 209.857 181.604 209.922 181.894 209.922C182.248 209.922 182.554 209.859 182.811 209.733C183.072 209.602 183.326 209.406 183.574 209.145V207.934ZM179.612 204.819C180.438 204.063 181.432 203.685 182.594 203.685C183.014 203.685 183.389 203.755 183.721 203.895C184.052 204.03 184.332 204.222 184.561 204.469C184.789 204.712 184.962 205.003 185.079 205.344C185.2 205.685 185.261 206.058 185.261 206.464V211H184.477C184.313 211 184.187 210.977 184.099 210.93C184.01 210.879 183.94 210.778 183.889 210.629L183.735 210.111C183.553 210.274 183.375 210.419 183.203 210.545C183.03 210.666 182.85 210.769 182.664 210.853C182.477 210.937 182.276 211 182.062 211.042C181.852 211.089 181.618 211.112 181.362 211.112C181.058 211.112 180.778 211.072 180.522 210.993C180.265 210.909 180.043 210.785 179.857 210.622C179.67 210.459 179.525 210.256 179.423 210.013C179.32 209.77 179.269 209.488 179.269 209.166C179.269 208.984 179.299 208.804 179.36 208.627C179.42 208.445 179.518 208.272 179.654 208.109C179.794 207.946 179.973 207.792 180.193 207.647C180.412 207.502 180.68 207.376 180.998 207.269C181.32 207.162 181.693 207.075 182.118 207.01C182.542 206.94 183.028 206.898 183.574 206.884V206.464C183.574 205.983 183.471 205.629 183.266 205.4C183.06 205.167 182.764 205.05 182.377 205.05C182.097 205.05 181.863 205.083 181.677 205.148C181.495 205.213 181.334 205.288 181.194 205.372C181.054 205.451 180.925 205.524 180.809 205.589C180.697 205.654 180.571 205.687 180.431 205.687C180.309 205.687 180.207 205.657 180.123 205.596C180.039 205.531 179.971 205.456 179.92 205.372L179.612 204.819Z" fill="#17213A"/>
<path d="M208.078 208.613C208.181 208.613 208.272 208.653 208.351 208.732L209.093 209.537C208.682 210.046 208.176 210.435 207.574 210.706C206.977 210.977 206.258 211.112 205.418 211.112C204.667 211.112 203.99 210.984 203.388 210.727C202.791 210.47 202.28 210.113 201.855 209.656C201.43 209.199 201.104 208.653 200.875 208.018C200.651 207.383 200.539 206.69 200.539 205.939C200.539 205.178 200.66 204.483 200.903 203.853C201.146 203.218 201.486 202.672 201.925 202.215C202.368 201.758 202.896 201.403 203.507 201.151C204.118 200.894 204.795 200.766 205.537 200.766C206.274 200.766 206.928 200.887 207.497 201.13C208.071 201.373 208.559 201.69 208.96 202.082L208.33 202.957C208.293 203.013 208.244 203.062 208.183 203.104C208.127 203.146 208.048 203.167 207.945 203.167C207.875 203.167 207.803 203.148 207.728 203.111C207.653 203.069 207.572 203.02 207.483 202.964C207.394 202.903 207.292 202.838 207.175 202.768C207.058 202.698 206.923 202.635 206.769 202.579C206.615 202.518 206.435 202.469 206.23 202.432C206.029 202.39 205.796 202.369 205.53 202.369C205.077 202.369 204.662 202.451 204.284 202.614C203.911 202.773 203.589 203.006 203.318 203.314C203.047 203.617 202.837 203.991 202.688 204.434C202.539 204.873 202.464 205.374 202.464 205.939C202.464 206.508 202.543 207.015 202.702 207.458C202.865 207.901 203.085 208.275 203.36 208.578C203.635 208.881 203.96 209.115 204.333 209.278C204.706 209.437 205.108 209.516 205.537 209.516C205.794 209.516 206.025 209.502 206.23 209.474C206.44 209.446 206.631 209.402 206.804 209.341C206.981 209.28 207.147 209.203 207.301 209.11C207.46 209.012 207.616 208.893 207.77 208.753C207.817 208.711 207.866 208.678 207.917 208.655C207.968 208.627 208.022 208.613 208.078 208.613ZM213.904 207.934C213.405 207.957 212.985 208.002 212.644 208.067C212.303 208.128 212.03 208.207 211.825 208.305C211.62 208.403 211.473 208.517 211.384 208.648C211.295 208.779 211.251 208.921 211.251 209.075C211.251 209.378 211.34 209.595 211.517 209.726C211.699 209.857 211.935 209.922 212.224 209.922C212.579 209.922 212.884 209.859 213.141 209.733C213.402 209.602 213.657 209.406 213.904 209.145V207.934ZM209.942 204.819C210.768 204.063 211.762 203.685 212.924 203.685C213.344 203.685 213.72 203.755 214.051 203.895C214.382 204.03 214.662 204.222 214.891 204.469C215.12 204.712 215.292 205.003 215.409 205.344C215.53 205.685 215.591 206.058 215.591 206.464V211H214.807C214.644 211 214.518 210.977 214.429 210.93C214.34 210.879 214.27 210.778 214.219 210.629L214.065 210.111C213.883 210.274 213.706 210.419 213.533 210.545C213.36 210.666 213.181 210.769 212.994 210.853C212.807 210.937 212.607 211 212.392 211.042C212.182 211.089 211.949 211.112 211.692 211.112C211.389 211.112 211.109 211.072 210.852 210.993C210.595 210.909 210.374 210.785 210.187 210.622C210 210.459 209.856 210.256 209.753 210.013C209.65 209.77 209.599 209.488 209.599 209.166C209.599 208.984 209.629 208.804 209.69 208.627C209.751 208.445 209.849 208.272 209.984 208.109C210.124 207.946 210.304 207.792 210.523 207.647C210.742 207.502 211.011 207.376 211.328 207.269C211.65 207.162 212.023 207.075 212.448 207.01C212.873 206.94 213.358 206.898 213.904 206.884V206.464C213.904 205.983 213.801 205.629 213.596 205.4C213.391 205.167 213.094 205.05 212.707 205.05C212.427 205.05 212.194 205.083 212.007 205.148C211.825 205.213 211.664 205.288 211.524 205.372C211.384 205.451 211.256 205.524 211.139 205.589C211.027 205.654 210.901 205.687 210.761 205.687C210.64 205.687 210.537 205.657 210.453 205.596C210.369 205.531 210.301 205.456 210.25 205.372L209.942 204.819ZM219.518 211.112C218.892 211.112 218.412 210.937 218.076 210.587C217.744 210.232 217.579 209.745 217.579 209.124V205.113H216.844C216.75 205.113 216.671 205.083 216.606 205.022C216.54 204.961 216.508 204.87 216.508 204.749V204.063L217.663 203.874L218.027 201.914C218.05 201.821 218.094 201.748 218.16 201.697C218.225 201.646 218.309 201.62 218.412 201.62H219.308V203.881H221.226V205.113H219.308V209.005C219.308 209.229 219.361 209.404 219.469 209.53C219.581 209.656 219.732 209.719 219.924 209.719C220.031 209.719 220.12 209.707 220.19 209.684C220.264 209.656 220.327 209.628 220.379 209.6C220.435 209.572 220.484 209.546 220.526 209.523C220.568 209.495 220.61 209.481 220.652 209.481C220.703 209.481 220.745 209.495 220.778 209.523C220.81 209.546 220.845 209.584 220.883 209.635L221.401 210.475C221.149 210.685 220.859 210.844 220.533 210.951C220.206 211.058 219.868 211.112 219.518 211.112ZM226.127 207.934C225.627 207.957 225.207 208.002 224.867 208.067C224.526 208.128 224.253 208.207 224.048 208.305C223.842 208.403 223.695 208.517 223.607 208.648C223.518 208.779 223.474 208.921 223.474 209.075C223.474 209.378 223.562 209.595 223.74 209.726C223.922 209.857 224.157 209.922 224.447 209.922C224.801 209.922 225.107 209.859 225.364 209.733C225.625 209.602 225.879 209.406 226.127 209.145V207.934ZM222.165 204.819C222.991 204.063 223.985 203.685 225.147 203.685C225.567 203.685 225.942 203.755 226.274 203.895C226.605 204.03 226.885 204.222 227.114 204.469C227.342 204.712 227.515 205.003 227.632 205.344C227.753 205.685 227.814 206.058 227.814 206.464V211H227.03C226.866 211 226.74 210.977 226.652 210.93C226.563 210.879 226.493 210.778 226.442 210.629L226.288 210.111C226.106 210.274 225.928 210.419 225.756 210.545C225.583 210.666 225.403 210.769 225.217 210.853C225.03 210.937 224.829 211 224.615 211.042C224.405 211.089 224.171 211.112 223.915 211.112C223.611 211.112 223.331 211.072 223.075 210.993C222.818 210.909 222.596 210.785 222.41 210.622C222.223 210.459 222.078 210.256 221.976 210.013C221.873 209.77 221.822 209.488 221.822 209.166C221.822 208.984 221.852 208.804 221.913 208.627C221.973 208.445 222.071 208.272 222.207 208.109C222.347 207.946 222.526 207.792 222.746 207.647C222.965 207.502 223.233 207.376 223.551 207.269C223.873 207.162 224.246 207.075 224.671 207.01C225.095 206.94 225.581 206.898 226.127 206.884V206.464C226.127 205.983 226.024 205.629 225.819 205.4C225.613 205.167 225.317 205.05 224.93 205.05C224.65 205.05 224.416 205.083 224.23 205.148C224.048 205.213 223.887 205.288 223.747 205.372C223.607 205.451 223.478 205.524 223.362 205.589C223.25 205.654 223.124 205.687 222.984 205.687C222.862 205.687 222.76 205.657 222.676 205.596C222.592 205.531 222.524 205.456 222.473 205.372L222.165 204.819ZM231.192 200.598V211H229.463V200.598H231.192ZM236.093 203.706C236.625 203.706 237.108 203.792 237.542 203.965C237.98 204.138 238.354 204.383 238.662 204.7C238.974 205.017 239.215 205.405 239.383 205.862C239.551 206.319 239.635 206.83 239.635 207.395C239.635 207.964 239.551 208.478 239.383 208.935C239.215 209.392 238.974 209.782 238.662 210.104C238.354 210.426 237.98 210.673 237.542 210.846C237.108 211.019 236.625 211.105 236.093 211.105C235.556 211.105 235.068 211.019 234.63 210.846C234.191 210.673 233.815 210.426 233.503 210.104C233.195 209.782 232.954 209.392 232.782 208.935C232.614 208.478 232.53 207.964 232.53 207.395C232.53 206.83 232.614 206.319 232.782 205.862C232.954 205.405 233.195 205.017 233.503 204.7C233.815 204.383 234.191 204.138 234.63 203.965C235.068 203.792 235.556 203.706 236.093 203.706ZM236.093 209.775C236.69 209.775 237.131 209.574 237.416 209.173C237.705 208.772 237.85 208.184 237.85 207.409C237.85 206.634 237.705 206.044 237.416 205.638C237.131 205.232 236.69 205.029 236.093 205.029C235.486 205.029 235.036 205.234 234.742 205.645C234.452 206.051 234.308 206.639 234.308 207.409C234.308 208.179 234.452 208.767 234.742 209.173C235.036 209.574 235.486 209.775 236.093 209.775ZM242.571 204.7C242.715 204.555 242.867 204.422 243.026 204.301C243.189 204.175 243.359 204.07 243.537 203.986C243.719 203.897 243.912 203.83 244.118 203.783C244.323 203.732 244.547 203.706 244.79 203.706C245.182 203.706 245.529 203.774 245.833 203.909C246.136 204.04 246.388 204.226 246.589 204.469C246.794 204.707 246.948 204.994 247.051 205.33C247.158 205.661 247.212 206.028 247.212 206.429V211H245.483V206.429C245.483 205.99 245.382 205.652 245.182 205.414C244.981 205.171 244.675 205.05 244.265 205.05C243.966 205.05 243.686 205.118 243.425 205.253C243.163 205.388 242.916 205.573 242.683 205.806V211H240.954V203.818H242.011C242.235 203.818 242.382 203.923 242.452 204.133L242.571 204.7ZM250.648 203.818V211H248.912V203.818H250.648ZM250.886 201.725C250.886 201.874 250.856 202.014 250.795 202.145C250.734 202.276 250.653 202.39 250.55 202.488C250.452 202.586 250.335 202.665 250.2 202.726C250.065 202.782 249.92 202.81 249.766 202.81C249.617 202.81 249.474 202.782 249.339 202.726C249.208 202.665 249.094 202.586 248.996 202.488C248.898 202.39 248.819 202.276 248.758 202.145C248.702 202.014 248.674 201.874 248.674 201.725C248.674 201.571 248.702 201.426 248.758 201.291C248.819 201.156 248.898 201.039 248.996 200.941C249.094 200.843 249.208 200.766 249.339 200.71C249.474 200.649 249.617 200.619 249.766 200.619C249.92 200.619 250.065 200.649 250.2 200.71C250.335 200.766 250.452 200.843 250.55 200.941C250.653 201.039 250.734 201.156 250.795 201.291C250.856 201.426 250.886 201.571 250.886 201.725ZM256.205 207.934C255.705 207.957 255.285 208.002 254.945 208.067C254.604 208.128 254.331 208.207 254.126 208.305C253.92 208.403 253.773 208.517 253.685 208.648C253.596 208.779 253.552 208.921 253.552 209.075C253.552 209.378 253.64 209.595 253.818 209.726C254 209.857 254.235 209.922 254.525 209.922C254.879 209.922 255.185 209.859 255.442 209.733C255.703 209.602 255.957 209.406 256.205 209.145V207.934ZM252.243 204.819C253.069 204.063 254.063 203.685 255.225 203.685C255.645 203.685 256.02 203.755 256.352 203.895C256.683 204.03 256.963 204.222 257.192 204.469C257.42 204.712 257.593 205.003 257.71 205.344C257.831 205.685 257.892 206.058 257.892 206.464V211H257.108C256.944 211 256.818 210.977 256.73 210.93C256.641 210.879 256.571 210.778 256.52 210.629L256.366 210.111C256.184 210.274 256.006 210.419 255.834 210.545C255.661 210.666 255.481 210.769 255.295 210.853C255.108 210.937 254.907 211 254.693 211.042C254.483 211.089 254.249 211.112 253.993 211.112C253.689 211.112 253.409 211.072 253.153 210.993C252.896 210.909 252.674 210.785 252.488 210.622C252.301 210.459 252.156 210.256 252.054 210.013C251.951 209.77 251.9 209.488 251.9 209.166C251.9 208.984 251.93 208.804 251.991 208.627C252.051 208.445 252.149 208.272 252.285 208.109C252.425 207.946 252.604 207.792 252.824 207.647C253.043 207.502 253.311 207.376 253.629 207.269C253.951 207.162 254.324 207.075 254.749 207.01C255.173 206.94 255.659 206.898 256.205 206.884V206.464C256.205 205.983 256.102 205.629 255.897 205.4C255.691 205.167 255.395 205.05 255.008 205.05C254.728 205.05 254.494 205.083 254.308 205.148C254.126 205.213 253.965 205.288 253.825 205.372C253.685 205.451 253.556 205.524 253.44 205.589C253.328 205.654 253.202 205.687 253.062 205.687C252.94 205.687 252.838 205.657 252.754 205.596C252.67 205.531 252.602 205.456 252.551 205.372L252.243 204.819Z" fill="#17213A"/>
<path d="M278.475 207.178L277.243 203.811C277.182 203.662 277.119 203.484 277.054 203.279C276.989 203.074 276.923 202.852 276.858 202.614C276.797 202.852 276.734 203.076 276.669 203.286C276.604 203.491 276.541 203.671 276.48 203.825L275.255 207.178H278.475ZM281.8 211H280.344C280.181 211 280.048 210.96 279.945 210.881C279.842 210.797 279.765 210.694 279.714 210.573L278.958 208.508H274.765L274.009 210.573C273.972 210.68 273.899 210.778 273.792 210.867C273.685 210.956 273.552 211 273.393 211H271.923L275.906 200.878H277.824L281.8 211ZM284.192 205.064C284.416 204.635 284.682 204.299 284.99 204.056C285.298 203.809 285.662 203.685 286.082 203.685C286.413 203.685 286.679 203.757 286.88 203.902L286.768 205.197C286.745 205.281 286.71 205.342 286.663 205.379C286.621 205.412 286.563 205.428 286.488 205.428C286.418 205.428 286.313 205.416 286.173 205.393C286.038 205.37 285.905 205.358 285.774 205.358C285.583 205.358 285.412 205.386 285.263 205.442C285.114 205.498 284.978 205.58 284.857 205.687C284.74 205.79 284.635 205.916 284.542 206.065C284.453 206.214 284.369 206.385 284.29 206.576V211H282.561V203.818H283.576C283.753 203.818 283.877 203.851 283.947 203.916C284.017 203.977 284.064 204.089 284.087 204.252L284.192 205.064ZM291.482 207.934C290.983 207.957 290.563 208.002 290.222 208.067C289.881 208.128 289.608 208.207 289.403 208.305C289.198 208.403 289.051 208.517 288.962 208.648C288.873 208.779 288.829 208.921 288.829 209.075C288.829 209.378 288.918 209.595 289.095 209.726C289.277 209.857 289.513 209.922 289.802 209.922C290.157 209.922 290.462 209.859 290.719 209.733C290.98 209.602 291.235 209.406 291.482 209.145V207.934ZM287.52 204.819C288.346 204.063 289.34 203.685 290.502 203.685C290.922 203.685 291.298 203.755 291.629 203.895C291.96 204.03 292.24 204.222 292.469 204.469C292.698 204.712 292.87 205.003 292.987 205.344C293.108 205.685 293.169 206.058 293.169 206.464V211H292.385C292.222 211 292.096 210.977 292.007 210.93C291.918 210.879 291.848 210.778 291.797 210.629L291.643 210.111C291.461 210.274 291.284 210.419 291.111 210.545C290.938 210.666 290.759 210.769 290.572 210.853C290.385 210.937 290.185 211 289.97 211.042C289.76 211.089 289.527 211.112 289.27 211.112C288.967 211.112 288.687 211.072 288.43 210.993C288.173 210.909 287.952 210.785 287.765 210.622C287.578 210.459 287.434 210.256 287.331 210.013C287.228 209.77 287.177 209.488 287.177 209.166C287.177 208.984 287.207 208.804 287.268 208.627C287.329 208.445 287.427 208.272 287.562 208.109C287.702 207.946 287.882 207.792 288.101 207.647C288.32 207.502 288.589 207.376 288.906 207.269C289.228 207.162 289.601 207.075 290.026 207.01C290.451 206.94 290.936 206.898 291.482 206.884V206.464C291.482 205.983 291.379 205.629 291.174 205.4C290.969 205.167 290.672 205.05 290.285 205.05C290.005 205.05 289.772 205.083 289.585 205.148C289.403 205.213 289.242 205.288 289.102 205.372C288.962 205.451 288.834 205.524 288.717 205.589C288.605 205.654 288.479 205.687 288.339 205.687C288.218 205.687 288.115 205.657 288.031 205.596C287.947 205.531 287.879 205.456 287.828 205.372L287.52 204.819ZM297.422 207.234C297.637 207.234 297.824 207.206 297.982 207.15C298.141 207.089 298.272 207.008 298.374 206.905C298.482 206.802 298.561 206.679 298.612 206.534C298.668 206.389 298.696 206.231 298.696 206.058C298.696 205.703 298.589 205.423 298.374 205.218C298.164 205.008 297.847 204.903 297.422 204.903C296.998 204.903 296.678 205.008 296.463 205.218C296.253 205.423 296.148 205.703 296.148 206.058C296.148 206.226 296.174 206.382 296.225 206.527C296.281 206.672 296.361 206.798 296.463 206.905C296.571 207.008 296.704 207.089 296.862 207.15C297.026 207.206 297.212 207.234 297.422 207.234ZM299.375 211.322C299.375 211.182 299.333 211.068 299.249 210.979C299.165 210.89 299.051 210.823 298.906 210.776C298.762 210.725 298.591 210.687 298.395 210.664C298.204 210.641 297.999 210.624 297.779 210.615C297.565 210.601 297.341 210.589 297.107 210.58C296.879 210.571 296.655 210.552 296.435 210.524C296.244 210.631 296.088 210.757 295.966 210.902C295.85 211.047 295.791 211.215 295.791 211.406C295.791 211.532 295.822 211.649 295.882 211.756C295.948 211.868 296.048 211.964 296.183 212.043C296.323 212.122 296.503 212.183 296.722 212.225C296.942 212.272 297.21 212.295 297.527 212.295C297.849 212.295 298.127 212.269 298.36 212.218C298.594 212.171 298.785 212.104 298.934 212.015C299.088 211.931 299.2 211.828 299.27 211.707C299.34 211.59 299.375 211.462 299.375 211.322ZM301.097 204.063V204.707C301.097 204.912 300.974 205.038 300.726 205.085L300.082 205.204C300.18 205.451 300.229 205.722 300.229 206.016C300.229 206.371 300.157 206.693 300.012 206.982C299.872 207.267 299.676 207.509 299.424 207.71C299.172 207.911 298.874 208.067 298.528 208.179C298.188 208.286 297.819 208.34 297.422 208.34C297.282 208.34 297.147 208.333 297.016 208.319C296.886 208.305 296.757 208.286 296.631 208.263C296.407 208.398 296.295 208.55 296.295 208.718C296.295 208.863 296.361 208.97 296.491 209.04C296.627 209.105 296.804 209.152 297.023 209.18C297.243 209.208 297.492 209.227 297.772 209.236C298.052 209.241 298.339 209.255 298.633 209.278C298.927 209.301 299.214 209.343 299.494 209.404C299.774 209.46 300.024 209.551 300.243 209.677C300.463 209.803 300.638 209.976 300.768 210.195C300.904 210.41 300.971 210.687 300.971 211.028C300.971 211.345 300.892 211.653 300.733 211.952C300.579 212.251 300.353 212.517 300.054 212.75C299.76 212.983 299.396 213.17 298.962 213.31C298.533 213.455 298.043 213.527 297.492 213.527C296.951 213.527 296.48 213.473 296.078 213.366C295.677 213.263 295.343 213.123 295.077 212.946C294.811 212.773 294.613 212.573 294.482 212.344C294.352 212.115 294.286 211.877 294.286 211.63C294.286 211.294 294.387 211.014 294.587 210.79C294.793 210.561 295.073 210.379 295.427 210.244C295.236 210.146 295.084 210.015 294.972 209.852C294.86 209.689 294.804 209.474 294.804 209.208C294.804 209.101 294.823 208.991 294.86 208.879C294.902 208.762 294.961 208.648 295.035 208.536C295.115 208.424 295.213 208.319 295.329 208.221C295.446 208.118 295.584 208.027 295.742 207.948C295.378 207.752 295.091 207.491 294.881 207.164C294.676 206.837 294.573 206.455 294.573 206.016C294.573 205.661 294.643 205.342 294.783 205.057C294.928 204.768 295.126 204.523 295.378 204.322C295.635 204.117 295.936 203.96 296.281 203.853C296.631 203.746 297.012 203.692 297.422 203.692C297.73 203.692 298.02 203.725 298.29 203.79C298.561 203.851 298.808 203.942 299.032 204.063H301.097ZM305.249 203.706C305.781 203.706 306.264 203.792 306.698 203.965C307.136 204.138 307.51 204.383 307.818 204.7C308.13 205.017 308.371 205.405 308.539 205.862C308.707 206.319 308.791 206.83 308.791 207.395C308.791 207.964 308.707 208.478 308.539 208.935C308.371 209.392 308.13 209.782 307.818 210.104C307.51 210.426 307.136 210.673 306.698 210.846C306.264 211.019 305.781 211.105 305.249 211.105C304.712 211.105 304.224 211.019 303.786 210.846C303.347 210.673 302.971 210.426 302.659 210.104C302.351 209.782 302.11 209.392 301.938 208.935C301.77 208.478 301.686 207.964 301.686 207.395C301.686 206.83 301.77 206.319 301.938 205.862C302.11 205.405 302.351 205.017 302.659 204.7C302.971 204.383 303.347 204.138 303.786 203.965C304.224 203.792 304.712 203.706 305.249 203.706ZM305.249 209.775C305.846 209.775 306.287 209.574 306.572 209.173C306.861 208.772 307.006 208.184 307.006 207.409C307.006 206.634 306.861 206.044 306.572 205.638C306.287 205.232 305.846 205.029 305.249 205.029C304.642 205.029 304.192 205.234 303.898 205.645C303.608 206.051 303.464 206.639 303.464 207.409C303.464 208.179 303.608 208.767 303.898 209.173C304.192 209.574 304.642 209.775 305.249 209.775ZM311.727 204.7C311.872 204.555 312.023 204.422 312.182 204.301C312.345 204.175 312.516 204.07 312.693 203.986C312.875 203.897 313.069 203.83 313.274 203.783C313.479 203.732 313.703 203.706 313.946 203.706C314.338 203.706 314.686 203.774 314.989 203.909C315.292 204.04 315.544 204.226 315.745 204.469C315.95 204.707 316.104 204.994 316.207 205.33C316.314 205.661 316.368 206.028 316.368 206.429V211H314.639V206.429C314.639 205.99 314.539 205.652 314.338 205.414C314.137 205.171 313.832 205.05 313.421 205.05C313.122 205.05 312.842 205.118 312.581 205.253C312.32 205.388 312.072 205.573 311.839 205.806V211H310.11V203.818H311.167C311.391 203.818 311.538 203.923 311.608 204.133L311.727 204.7Z" fill="#17213A"/>
</svg>
