<svg width="515" height="344" viewBox="0 0 515 344" fill="none" xmlns="http://www.w3.org/2000/svg">
<g opacity="0.8">
<path opacity="0.7" d="M320.327 62.9814C320.327 62.9814 266.239 43.6865 213.144 74.4061C160.051 105.125 133.261 166.106 110.255 214.954C87.25 263.803 100.492 313.49 141.022 336.146C181.552 358.801 209.112 325.404 265.969 323.777C322.826 322.151 338.117 330.306 385.298 298.082C432.478 265.859 441.006 189.757 403.789 133.448C366.571 77.1388 320.327 62.9814 320.327 62.9814Z" fill="#C3C1DE"/>
<path d="M433.998 166.707C433.976 166.351 433.652 166.087 433.3 166.143L413.404 169.341C412.702 169.453 412.419 168.47 413.074 168.192L433.114 159.701C433.353 159.6 433.501 159.361 433.481 159.102C432.649 148.252 431.36 136.352 429.678 124.212C429.631 123.871 429.305 123.636 428.967 123.702L411.359 127.088C410.718 127.211 410.367 126.368 410.907 126L427.895 114.417C428.087 114.286 428.187 114.056 428.151 113.825C427.239 107.964 426.241 102.101 425.164 96.325L423.778 90.551C423.692 90.1913 423.305 89.994 422.963 90.1353L412.714 94.3761C412.106 94.628 411.593 93.8599 412.059 93.3947L422.26 83.1935C422.405 83.0486 422.466 82.839 422.423 82.6387C420.381 73.1387 418.127 64.1002 415.697 55.9652C415.584 55.5859 415.142 55.4214 414.804 55.6288L401.598 63.7551C401.039 64.0995 400.411 63.4268 400.793 62.8931L412.411 46.6275C412.526 46.4673 412.554 46.2576 412.489 46.072C410.409 40.191 408.225 35.022 405.954 30.7994C405.805 30.5227 405.468 30.4121 405.181 30.5388L396.018 34.5706C395.546 34.7781 395.049 34.3354 395.2 33.8426L398.077 25.1688C398.125 25.013 398.331 24.376 398.559 23.8212L399.308 21.5854C397.182 19.6227 395.004 18.5488 392.783 18.5488C390.41 18.5488 388.082 19.7625 385.817 21.9924L389.232 33.8433C389.384 34.3354 388.887 34.7788 388.415 34.5713L380.173 30.945C379.884 30.8176 379.545 30.9304 379.398 31.2093C377.067 35.6131 374.829 41.0086 372.704 47.1437C372.64 47.3286 372.669 47.5353 372.783 47.6948L383.64 62.8953C384.021 63.429 383.394 64.1017 382.835 63.7573L370.587 56.22C370.249 56.0125 369.806 56.1778 369.694 56.5578C367.25 64.8064 364.988 73.9628 362.943 83.575C362.9 83.7745 362.962 83.9842 363.106 84.1283L372.374 93.3961C372.839 93.8613 372.326 94.6294 371.718 94.3775L362.265 90.4658C361.913 90.3202 361.516 90.5313 361.442 90.9041C359.918 98.6409 358.533 106.589 357.308 114.527C357.272 114.757 357.372 114.987 357.565 115.118L373.527 126.001C374.066 126.369 373.715 127.212 373.074 127.089L356.572 123.915C356.232 123.85 355.907 124.084 355.86 124.426C354.169 136.667 352.878 148.658 352.053 159.57C352.033 159.828 352.181 160.067 352.419 160.168L371.361 168.194C372.015 168.471 371.732 169.455 371.03 169.342L352.257 166.325C351.906 166.268 351.58 166.533 351.56 166.889C351.192 173.164 351 178.977 351 184.138C351 187.414 351.079 190.555 351.23 193.575C351.242 193.827 351.411 194.043 351.652 194.118L371.448 200.328C372.084 200.528 371.972 201.458 371.308 201.503L352.585 202.751C352.241 202.774 351.986 203.084 352.024 203.426C353.184 213.589 355.294 222.063 358.16 229.006C358.28 229.297 358.606 229.442 358.905 229.345L370.399 225.617C370.991 225.425 371.449 226.147 371.024 226.6L362.14 236.075C361.955 236.273 361.923 236.574 362.064 236.806C369.698 249.419 380.634 254.875 392.782 254.875C404.69 254.875 415.432 249.63 423.043 237.542C423.189 237.309 423.159 237.003 422.972 236.803L413.407 226.6C412.982 226.147 413.439 225.424 414.031 225.617L426.525 229.669C426.824 229.766 427.148 229.621 427.268 229.332C430.197 222.347 432.351 213.791 433.531 203.502C433.57 203.16 433.314 202.85 432.97 202.826L413.122 201.503C412.458 201.458 412.347 200.528 412.982 200.328L433.682 193.834C433.878 193.773 434.03 193.615 434.083 193.415L434.377 192.312C434.389 192.268 434.395 192.225 434.397 192.18C434.506 189.589 434.564 186.912 434.564 184.138C434.568 178.926 434.373 173.051 433.998 166.707Z" fill="#DEDCF2"/>
<path d="M394.027 209.535L393.069 155.013L409.83 141.126L392.946 147.986L392.633 130.161L392.492 130.453L392.592 127.842L392.142 102.219L406.019 89.4097L392.41 97.5753L392.108 100.287L391.551 68.5386L391.246 74.7967L389.778 122.245L389.143 120.984L378.255 113.907L389.691 125.023L387.83 185.182L370.634 179.778L387.635 191.466L386.356 232.788L379.888 231.494L386.154 239.326L385.456 261.852L384.6 309H395.775L394.114 214.476L407.652 211.352L394.027 209.535Z" fill="#263238"/>
<path d="M174.293 166.707C174.277 166.351 174.033 166.087 173.77 166.143L158.836 169.341C158.309 169.453 158.097 168.47 158.589 168.192L173.631 159.701C173.81 159.6 173.92 159.361 173.906 159.102C173.282 148.252 172.314 136.352 171.052 124.212C171.016 123.871 170.772 123.636 170.518 123.702L157.302 127.088C156.821 127.211 156.558 126.368 156.962 126L169.713 114.417C169.857 114.286 169.932 114.056 169.906 113.825C169.222 107.964 168.473 102.101 167.664 96.325L166.624 90.551C166.559 90.1913 166.269 89.994 166.013 90.1353L158.32 94.3761C157.864 94.628 157.479 93.8599 157.828 93.3947L165.485 83.1935C165.593 83.0486 165.639 82.839 165.607 82.6387C164.075 73.1387 162.383 64.1002 160.558 55.9652C160.473 55.5859 160.141 55.4214 159.888 55.6288L149.976 63.7551C149.557 64.0995 149.086 63.4268 149.372 62.8931L158.092 46.6275C158.178 46.4673 158.199 46.2576 158.151 46.072C156.59 40.191 154.95 35.022 153.246 30.7994C153.134 30.5227 152.882 30.4121 152.666 30.5388L145.789 34.5706C145.435 34.7781 145.061 34.3354 145.175 33.8426L147.334 25.1688C147.371 25.013 147.525 24.376 147.696 23.8212L148.259 21.5854C146.663 19.6227 145.028 18.5488 143.361 18.5488C141.58 18.5488 139.833 19.7625 138.132 21.9924L140.696 33.8433C140.81 34.3354 140.437 34.7788 140.082 34.5713L133.896 30.945C133.679 30.8176 133.425 30.9304 133.315 31.2093C131.566 35.6131 129.886 41.0086 128.29 47.1437C128.242 47.3286 128.264 47.5353 128.349 47.6948L136.498 62.8953C136.784 63.429 136.313 64.1017 135.894 63.7573L126.702 56.22C126.448 56.0125 126.116 56.1778 126.031 56.5578C124.198 64.8064 122.5 73.9628 120.964 83.575C120.932 83.7745 120.978 83.9842 121.087 84.1283L128.042 93.3961C128.392 93.8613 128.006 94.6294 127.55 94.3775L120.455 90.4658C120.191 90.3202 119.893 90.5313 119.837 90.9041C118.693 98.6409 117.654 106.589 116.734 114.527C116.707 114.757 116.783 114.987 116.927 115.118L128.908 126.001C129.313 126.369 129.05 127.212 128.568 127.089L116.182 123.915C115.927 123.85 115.683 124.084 115.647 124.426C114.378 136.667 113.409 148.658 112.789 159.57C112.775 159.828 112.885 160.067 113.064 160.168L127.281 168.194C127.773 168.471 127.56 169.455 127.034 169.342L112.944 166.325C112.679 166.268 112.435 166.533 112.42 166.889C112.144 173.164 112 178.977 112 184.138C112 187.414 112.06 190.555 112.173 193.575C112.182 193.827 112.309 194.043 112.49 194.118L127.348 200.328C127.824 200.528 127.741 201.458 127.243 201.503L113.19 202.751C112.933 202.774 112.74 203.084 112.77 203.426C113.64 213.589 115.223 222.063 117.374 229.006C117.465 229.297 117.708 229.442 117.933 229.345L126.561 225.617C127.005 225.425 127.348 226.147 127.029 226.6L120.362 236.075C120.223 236.273 120.2 236.574 120.305 236.806C126.035 249.419 134.243 254.875 143.361 254.875C152.298 254.875 160.36 249.63 166.073 237.542C166.183 237.309 166.16 237.003 166.02 236.803L158.841 226.6C158.522 226.147 158.865 225.424 159.31 225.617L168.687 229.669C168.91 229.766 169.153 229.621 169.244 229.332C171.442 222.347 173.059 213.791 173.945 203.502C173.974 203.16 173.782 202.85 173.524 202.826L158.627 201.503C158.129 201.458 158.046 200.528 158.523 200.328L174.059 193.834C174.207 193.773 174.32 193.615 174.36 193.415L174.581 192.312C174.589 192.268 174.595 192.225 174.596 192.18C174.678 189.589 174.721 186.912 174.721 184.138C174.721 178.926 174.574 173.051 174.293 166.707Z" fill="#DEDCF2"/>
<path opacity="0.4" d="M174.293 166.707C174.277 166.351 174.033 166.087 173.77 166.143L158.836 169.341C158.309 169.453 158.097 168.47 158.589 168.192L173.631 159.701C173.81 159.6 173.92 159.361 173.906 159.102C173.282 148.252 172.314 136.352 171.052 124.212C171.016 123.871 170.772 123.636 170.518 123.702L157.302 127.088C156.821 127.211 156.558 126.368 156.962 126L169.713 114.417C169.857 114.286 169.932 114.056 169.906 113.825C169.222 107.964 168.473 102.101 167.664 96.325L166.624 90.551C166.559 90.1913 166.269 89.994 166.013 90.1353L158.32 94.3761C157.864 94.628 157.479 93.8599 157.828 93.3947L165.485 83.1935C165.593 83.0486 165.639 82.839 165.607 82.6387C164.075 73.1387 162.383 64.1002 160.558 55.9652C160.473 55.5859 160.141 55.4214 159.888 55.6288L149.976 63.7551C149.557 64.0995 149.086 63.4268 149.372 62.8931L158.092 46.6275C158.178 46.4673 158.199 46.2576 158.151 46.072C156.59 40.191 154.95 35.022 153.246 30.7994C153.134 30.5227 152.882 30.4121 152.666 30.5388L145.789 34.5706C145.435 34.7781 145.061 34.3354 145.175 33.8426L147.334 25.1688C147.371 25.013 147.525 24.376 147.696 23.8212L148.259 21.5854C146.663 19.6227 145.028 18.5488 143.361 18.5488C141.58 18.5488 139.833 19.7625 138.132 21.9924L140.696 33.8433C140.81 34.3354 140.437 34.7788 140.082 34.5713L133.896 30.945C133.679 30.8176 133.425 30.9304 133.315 31.2093C131.566 35.6131 129.886 41.0086 128.29 47.1437C128.242 47.3286 128.264 47.5353 128.349 47.6948L136.498 62.8953C136.784 63.429 136.313 64.1017 135.894 63.7573L126.702 56.22C126.448 56.0125 126.116 56.1778 126.031 56.5578C124.198 64.8064 122.5 73.9628 120.964 83.575C120.932 83.7745 120.978 83.9842 121.087 84.1283L128.042 93.3961C128.392 93.8613 128.006 94.6294 127.55 94.3775L120.455 90.4658C120.191 90.3202 119.893 90.5313 119.837 90.9041C118.693 98.6409 117.654 106.589 116.734 114.527C116.707 114.757 116.783 114.987 116.927 115.118L128.908 126.001C129.313 126.369 129.05 127.212 128.568 127.089L116.182 123.915C115.927 123.85 115.683 124.084 115.647 124.426C114.378 136.667 113.409 148.658 112.789 159.57C112.775 159.828 112.885 160.067 113.064 160.168L127.281 168.194C127.773 168.471 127.56 169.455 127.034 169.342L112.944 166.325C112.679 166.268 112.435 166.533 112.42 166.889C112.144 173.164 112 178.977 112 184.138C112 187.414 112.06 190.555 112.173 193.575C112.182 193.827 112.309 194.043 112.49 194.118L127.348 200.328C127.824 200.528 127.741 201.458 127.243 201.503L113.19 202.751C112.933 202.774 112.74 203.084 112.77 203.426C113.64 213.589 115.223 222.063 117.374 229.006C117.465 229.297 117.708 229.442 117.933 229.345L126.561 225.617C127.005 225.425 127.348 226.147 127.029 226.6L120.362 236.075C120.223 236.273 120.2 236.574 120.305 236.806C126.035 249.419 134.243 254.875 143.361 254.875C152.298 254.875 160.36 249.63 166.073 237.542C166.183 237.309 166.16 237.003 166.02 236.803L158.841 226.6C158.522 226.147 158.865 225.424 159.31 225.617L168.687 229.669C168.91 229.766 169.153 229.621 169.244 229.332C171.442 222.347 173.059 213.791 173.945 203.502C173.974 203.16 173.782 202.85 173.524 202.826L158.627 201.503C158.129 201.458 158.046 200.528 158.523 200.328L174.059 193.834C174.207 193.773 174.32 193.615 174.36 193.415L174.581 192.312C174.589 192.268 174.595 192.225 174.596 192.18C174.678 189.589 174.721 186.912 174.721 184.138C174.721 178.926 174.574 173.051 174.293 166.707Z" fill="white"/>
<path d="M144.603 209.535L143.645 155.013L160.405 141.126L143.522 147.986L143.209 130.161L143.067 130.453L143.168 127.842L142.717 102.219L156.594 89.4097L142.985 97.5753L142.684 100.287L142.126 68.5386L141.822 74.7967L140.353 122.245L139.718 120.984L128.831 113.907L140.267 125.023L138.405 185.182L121.209 179.778L138.21 191.466L136.932 232.788L130.464 231.494L136.729 239.326L136.032 261.852L135.175 309H146.35L144.689 214.476L158.228 211.352L144.603 209.535Z" fill="#263238"/>
<path d="M242.778 301.877H167.358V308.679H242.778V301.877Z" fill="#17213A" stroke="#17213A" stroke-miterlimit="10"/>
<path d="M364.27 301.877H240.376V308.679H364.27V301.877Z" fill="#EDECEC" stroke="#17213A" stroke-miterlimit="10"/>
<path d="M179.616 301.934V305.24H174.928V308.449L174.94 308.68H186.431V301.934H179.616Z" fill="white" stroke="#17213A" stroke-miterlimit="10"/>
<path d="M179.617 301.931H159.395V305.239H179.617V301.931Z" fill="white" stroke="#17213A" stroke-miterlimit="10"/>
<path d="M174.94 305.332H154.719V308.681H174.94V305.332Z" fill="white" stroke="#17213A" stroke-miterlimit="10"/>
<path d="M307.064 301.525H167.215V200.622L202.543 162.64L307.064 200.622V301.525Z" fill="#EDECEC" stroke="#17213A" stroke-miterlimit="10"/>
<path d="M167.275 226.459H239.8" stroke="#17213A" stroke-miterlimit="10" stroke-linecap="round" stroke-linejoin="round"/>
<path d="M171.893 211.501H238.603" stroke="#17213A" stroke-miterlimit="10" stroke-linecap="round" stroke-linejoin="round"/>
<path d="M183.56 196.544H228.731" stroke="#17213A" stroke-miterlimit="10" stroke-linecap="round" stroke-linejoin="round"/>
<path d="M193.731 181.586H217.962" stroke="#17213A" stroke-miterlimit="10" stroke-linecap="round" stroke-linejoin="round"/>
<path d="M167.275 241.051H239.8" stroke="#17213A" stroke-miterlimit="10" stroke-linecap="round" stroke-linejoin="round"/>
<path d="M167.275 255.641H239.8" stroke="#17213A" stroke-miterlimit="10" stroke-linecap="round" stroke-linejoin="round"/>
<path d="M167.275 270.232H239.8" stroke="#17213A" stroke-miterlimit="10" stroke-linecap="round" stroke-linejoin="round"/>
<path d="M167.275 284.823H239.8" stroke="#17213A" stroke-miterlimit="10" stroke-linecap="round" stroke-linejoin="round"/>
<path d="M139.819 213.242H170.741L222.279 142.849H191.357L139.819 213.242Z" fill="white" stroke="#17213A" stroke-miterlimit="10" stroke-linecap="round" stroke-linejoin="round"/>
<path d="M216.772 149.467L166.94 218.859H140.81L192.105 149.467H216.772Z" fill="#17213A" stroke="#17213A"/>
<path d="M364.289 195.558H240.216V301.87H364.289V195.558Z" fill="#EFEEEE" stroke="#17213A" stroke-miterlimit="10"/>
<path d="M240.567 226.46H364.029" stroke="#17213A" stroke-miterlimit="10" stroke-linecap="round" stroke-linejoin="round"/>
<path d="M240.567 241.051H364.029" stroke="#17213A" stroke-miterlimit="10" stroke-linecap="round" stroke-linejoin="round"/>
<path d="M240.567 255.642H364.029" stroke="#17213A" stroke-miterlimit="10" stroke-linecap="round" stroke-linejoin="round"/>
<path d="M240.567 270.233H364.029" stroke="#17213A" stroke-miterlimit="10" stroke-linecap="round" stroke-linejoin="round"/>
<path d="M240.567 284.824H364.029" stroke="#17213A" stroke-miterlimit="10" stroke-linecap="round" stroke-linejoin="round"/>
<path d="M240.716 222.265V196.058H363.789V222.265H240.716Z" fill="#17213A" stroke="#17213A"/>
<path d="M316.179 211.447H291.365V308.68H316.179V211.447Z" fill="#17213A" stroke="#17213A" stroke-miterlimit="10" stroke-linecap="round" stroke-linejoin="round"/>
<path d="M316.18 211.447H300.48V308.68H316.18V211.447Z" fill="white" stroke="#17213A" stroke-miterlimit="10" stroke-linecap="round" stroke-linejoin="round"/>
<path d="M308.608 234.047C308.608 234.047 306.017 236.638 305.671 238.366C305.325 240.093 308.262 244.066 309.816 244.066C311.371 244.066 314.308 240.612 314.481 238.711C314.653 236.811 312.235 233.874 311.199 233.528C310.162 233.184 308.608 234.047 308.608 234.047Z" stroke="#17213A" stroke-miterlimit="10" stroke-linecap="round" stroke-linejoin="round"/>
<path d="M307.398 232.667L305.152 235.776C305.152 235.776 302.734 234.74 303.252 233.358C303.771 231.976 304.634 230.766 307.398 232.667Z" stroke="#17213A" stroke-miterlimit="10" stroke-linecap="round" stroke-linejoin="round"/>
<path d="M309.471 229.211C309.471 229.211 306.708 229.038 306.708 229.902C306.708 230.765 308.781 231.457 310.336 231.457C311.89 231.457 312.582 229.211 311.89 229.038C311.199 228.865 309.471 229.211 309.471 229.211Z" stroke="#17213A" stroke-miterlimit="10" stroke-linecap="round" stroke-linejoin="round"/>
<path d="M305.325 240.958C305.325 240.958 304.116 239.576 303.079 240.613C302.043 241.65 301.352 242.859 301.697 244.068C302.043 245.277 304.116 247.696 305.325 247.869C306.535 248.041 307.571 245.45 307.225 244.587C306.88 243.722 305.325 240.958 305.325 240.958Z" stroke="#17213A" stroke-miterlimit="10" stroke-linecap="round" stroke-linejoin="round"/>
<path d="M313.444 243.376C313.444 243.376 310.853 244.931 310.681 247.004C310.508 249.078 311.717 251.669 312.754 251.669C313.791 251.669 314.654 248.905 314.654 246.659C314.653 244.412 314.653 242.34 313.444 243.376Z" stroke="#17213A" stroke-miterlimit="10" stroke-linecap="round" stroke-linejoin="round"/>
<path d="M308.607 245.968C308.607 245.968 307.398 248.041 307.398 248.732C307.398 249.423 308.607 250.978 309.298 250.459C309.989 249.941 309.816 244.413 308.607 245.968Z" stroke="#17213A" stroke-miterlimit="10" stroke-linecap="round" stroke-linejoin="round"/>
<path d="M305.498 224.72C305.498 224.72 302.561 224.547 302.561 225.583C302.561 226.62 305.67 228.175 306.361 226.966C307.052 225.756 305.498 224.72 305.498 224.72Z" stroke="#17213A" stroke-miterlimit="10" stroke-linecap="round" stroke-linejoin="round"/>
<path d="M308.608 260.075C308.608 260.075 306.017 262.666 305.671 264.393C305.325 266.12 308.262 270.094 309.816 270.094C311.371 270.094 314.308 266.639 314.481 264.738C314.653 262.838 312.235 259.901 311.199 259.556C310.162 259.211 308.608 260.075 308.608 260.075Z" stroke="#17213A" stroke-miterlimit="10" stroke-linecap="round" stroke-linejoin="round"/>
<path d="M307.398 258.694L305.152 261.803C305.152 261.803 302.734 260.767 303.252 259.385C303.771 258.002 304.634 256.793 307.398 258.694Z" stroke="#17213A" stroke-miterlimit="10" stroke-linecap="round" stroke-linejoin="round"/>
<path d="M309.471 255.238C309.471 255.238 306.708 255.065 306.708 255.929C306.708 256.792 308.781 257.483 310.336 257.483C311.89 257.483 312.582 255.238 311.89 255.065C311.199 254.892 309.471 255.238 309.471 255.238Z" stroke="#17213A" stroke-miterlimit="10" stroke-linecap="round" stroke-linejoin="round"/>
<path d="M305.325 266.985C305.325 266.985 304.116 265.603 303.079 266.64C302.043 267.676 301.352 268.886 301.697 270.095C302.043 271.304 304.116 273.723 305.325 273.896C306.535 274.068 307.571 271.477 307.225 270.613C306.88 269.749 305.325 266.985 305.325 266.985Z" stroke="#17213A" stroke-miterlimit="10" stroke-linecap="round" stroke-linejoin="round"/>
<path d="M313.444 269.403C313.444 269.403 310.853 270.958 310.681 273.03C310.508 275.104 311.717 277.695 312.754 277.695C313.791 277.695 314.654 274.931 314.654 272.685C314.653 270.439 314.653 268.367 313.444 269.403Z" stroke="#17213A" stroke-miterlimit="10" stroke-linecap="round" stroke-linejoin="round"/>
<path d="M308.607 271.994C308.607 271.994 307.398 274.068 307.398 274.758C307.398 275.449 308.607 277.004 309.298 276.485C309.989 275.968 309.816 270.44 308.607 271.994Z" stroke="#17213A" stroke-miterlimit="10" stroke-linecap="round" stroke-linejoin="round"/>
<path d="M305.498 250.747C305.498 250.747 302.561 250.574 302.561 251.61C302.561 252.647 305.67 254.201 306.361 252.993C307.052 251.783 305.498 250.747 305.498 250.747Z" stroke="#17213A" stroke-miterlimit="10" stroke-linecap="round" stroke-linejoin="round"/>
<path d="M308.608 286.102C308.608 286.102 306.017 288.693 305.671 290.421C305.325 292.148 308.262 296.121 309.816 296.121C311.371 296.121 314.308 292.667 314.481 290.766C314.653 288.866 312.235 285.929 311.199 285.584C310.162 285.238 308.608 286.102 308.608 286.102Z" stroke="#17213A" stroke-miterlimit="10" stroke-linecap="round" stroke-linejoin="round"/>
<path d="M307.398 284.72L305.152 287.83C305.152 287.83 302.734 286.793 303.252 285.411C303.771 284.029 304.634 282.82 307.398 284.72Z" stroke="#17213A" stroke-miterlimit="10" stroke-linecap="round" stroke-linejoin="round"/>
<path d="M309.471 281.265C309.471 281.265 306.708 281.093 306.708 281.956C306.708 282.82 308.781 283.511 310.336 283.511C311.89 283.511 312.582 281.265 311.89 281.093C311.199 280.919 309.471 281.265 309.471 281.265Z" stroke="#17213A" stroke-miterlimit="10" stroke-linecap="round" stroke-linejoin="round"/>
<path d="M305.325 293.012C305.325 293.012 304.116 291.63 303.079 292.667C302.043 293.703 301.352 294.913 301.697 296.122C302.043 297.331 304.116 299.75 305.325 299.922C306.535 300.095 307.571 297.504 307.225 296.64C306.88 295.777 305.325 293.012 305.325 293.012Z" stroke="#17213A" stroke-miterlimit="10" stroke-linecap="round" stroke-linejoin="round"/>
<path d="M313.444 295.43C313.444 295.43 310.853 296.985 310.681 299.057C310.508 301.13 311.717 303.722 312.754 303.722C313.791 303.722 314.654 300.958 314.654 298.712C314.654 296.466 314.653 294.394 313.444 295.43Z" stroke="#17213A" stroke-miterlimit="10" stroke-linecap="round" stroke-linejoin="round"/>
<path d="M308.607 298.021C308.607 298.021 307.398 300.094 307.398 300.786C307.398 301.477 308.607 303.031 309.298 302.513C309.989 301.994 309.816 296.467 308.607 298.021Z" stroke="#17213A" stroke-miterlimit="10" stroke-linecap="round" stroke-linejoin="round"/>
<path d="M305.498 276.773C305.498 276.773 302.561 276.601 302.561 277.637C302.561 278.673 305.67 280.228 306.361 279.019C307.052 277.81 305.498 276.773 305.498 276.773Z" stroke="#17213A" stroke-miterlimit="10" stroke-linecap="round" stroke-linejoin="round"/>
<path d="M295.906 229.243C295.906 229.243 294.989 230.107 294.989 231.662C294.989 233.216 296.519 234.253 297.283 234.253C298.048 234.253 298.507 230.625 298.354 229.934C298.201 229.243 295.906 229.243 295.906 229.243Z" fill="#BFBFBF" stroke="#17213A" stroke-miterlimit="10" stroke-linecap="round" stroke-linejoin="round"/>
<path d="M294.071 229.243C294.071 229.243 292.541 228.898 292.541 229.762C292.541 230.626 293.765 231.489 293.765 230.972C293.765 230.453 294.071 229.243 294.071 229.243Z" fill="#BFBFBF" stroke="#17213A" stroke-miterlimit="10" stroke-linecap="round" stroke-linejoin="round"/>
<path d="M296.284 236.326C296.284 236.326 295.129 233.562 294.23 234.253C293.331 234.944 292.175 237.708 292.946 238.571C293.717 239.435 296.156 241.335 296.541 239.78C296.927 238.226 296.284 236.326 296.284 236.326Z" fill="#BFBFBF" stroke="#17213A" stroke-miterlimit="10" stroke-linecap="round" stroke-linejoin="round"/>
<path d="M298.048 235.981C298.048 235.981 297.742 239.091 298.354 239.091C298.967 239.091 299.578 235.29 299.119 234.599C298.66 233.908 298.048 235.981 298.048 235.981Z" fill="#BFBFBF" stroke="#17213A" stroke-miterlimit="10" stroke-linecap="round" stroke-linejoin="round"/>
<path d="M296.898 241.608C296.898 241.608 293.832 242.107 293.457 242.935C293.083 243.764 294.145 245.927 294.662 246.334C295.179 246.741 298.219 243.057 297.832 242.292C297.445 241.528 296.898 241.608 296.898 241.608Z" fill="#BFBFBF" stroke="#17213A" stroke-miterlimit="10" stroke-linecap="round" stroke-linejoin="round"/>
<path d="M295.906 248.041C295.906 248.041 294.989 248.904 294.989 250.459C294.989 252.014 296.519 253.05 297.283 253.05C298.048 253.05 298.507 249.423 298.354 248.732C298.201 248.041 295.906 248.041 295.906 248.041Z" fill="#BFBFBF" stroke="#17213A" stroke-miterlimit="10" stroke-linecap="round" stroke-linejoin="round"/>
<path d="M294.071 248.04C294.071 248.04 292.541 247.694 292.541 248.559C292.541 249.423 293.765 250.286 293.765 249.767C293.765 249.25 294.071 248.04 294.071 248.04Z" fill="#BFBFBF" stroke="#17213A" stroke-miterlimit="10" stroke-linecap="round" stroke-linejoin="round"/>
<path d="M296.284 255.123C296.284 255.123 295.129 252.359 294.23 253.049C293.331 253.74 292.175 256.504 292.946 257.368C293.717 258.231 296.156 260.131 296.541 258.577C296.927 257.023 296.284 255.123 296.284 255.123Z" fill="#BFBFBF" stroke="#17213A" stroke-miterlimit="10" stroke-linecap="round" stroke-linejoin="round"/>
<path d="M298.048 254.778C298.048 254.778 297.742 257.887 298.354 257.887C298.967 257.887 299.578 254.087 299.119 253.395C298.66 252.704 298.048 254.778 298.048 254.778Z" fill="#BFBFBF" stroke="#17213A" stroke-miterlimit="10" stroke-linecap="round" stroke-linejoin="round"/>
<path d="M296.898 260.405C296.898 260.405 293.832 260.904 293.457 261.731C293.083 262.559 294.145 264.723 294.662 265.13C295.179 265.537 298.219 261.853 297.832 261.089C297.445 260.325 296.898 260.405 296.898 260.405Z" fill="#BFBFBF" stroke="#17213A" stroke-miterlimit="10" stroke-linecap="round" stroke-linejoin="round"/>
<path d="M295.907 266.837C295.907 266.837 294.989 267.701 294.989 269.255C294.989 270.81 296.519 271.846 297.284 271.846C298.048 271.846 298.507 268.218 298.354 267.528C298.201 266.837 295.907 266.837 295.907 266.837Z" fill="#BFBFBF" stroke="#17213A" stroke-miterlimit="10" stroke-linecap="round" stroke-linejoin="round"/>
<path d="M294.071 266.837C294.071 266.837 292.542 266.492 292.542 267.356C292.542 268.219 293.765 269.083 293.765 268.565C293.766 268.047 294.071 266.837 294.071 266.837Z" fill="#BFBFBF" stroke="#17213A" stroke-miterlimit="10" stroke-linecap="round" stroke-linejoin="round"/>
<path d="M296.285 273.92C296.285 273.92 295.129 271.156 294.23 271.847C293.331 272.538 292.176 275.301 292.946 276.165C293.717 277.029 296.156 278.929 296.541 277.374C296.928 275.82 296.285 273.92 296.285 273.92Z" fill="#BFBFBF" stroke="#17213A" stroke-miterlimit="10" stroke-linecap="round" stroke-linejoin="round"/>
<path d="M298.049 273.575C298.049 273.575 297.743 276.685 298.355 276.685C298.967 276.685 299.579 272.884 299.119 272.193C298.66 271.502 298.049 273.575 298.049 273.575Z" fill="#BFBFBF" stroke="#17213A" stroke-miterlimit="10" stroke-linecap="round" stroke-linejoin="round"/>
<path d="M296.899 279.202C296.899 279.202 293.833 279.701 293.458 280.529C293.083 281.357 294.145 283.52 294.662 283.927C295.18 284.334 298.22 280.651 297.833 279.886C297.446 279.122 296.899 279.202 296.899 279.202Z" fill="#BFBFBF" stroke="#17213A" stroke-miterlimit="10" stroke-linecap="round" stroke-linejoin="round"/>
<path d="M295.907 285.635C295.907 285.635 294.989 286.498 294.989 288.053C294.989 289.608 296.519 290.644 297.284 290.644C298.048 290.644 298.507 287.016 298.354 286.326C298.201 285.635 295.907 285.635 295.907 285.635Z" fill="#BFBFBF" stroke="#17213A" stroke-miterlimit="10" stroke-linecap="round" stroke-linejoin="round"/>
<path d="M294.071 285.635C294.071 285.635 292.542 285.29 292.542 286.154C292.542 287.017 293.765 287.881 293.765 287.362C293.766 286.845 294.071 285.635 294.071 285.635Z" fill="#BFBFBF" stroke="#17213A" stroke-miterlimit="10" stroke-linecap="round" stroke-linejoin="round"/>
<path d="M296.285 292.718C296.285 292.718 295.129 289.954 294.23 290.644C293.331 291.336 292.176 294.099 292.946 294.963C293.717 295.827 296.156 297.726 296.541 296.172C296.928 294.618 296.285 292.718 296.285 292.718Z" fill="#BFBFBF" stroke="#17213A" stroke-miterlimit="10" stroke-linecap="round" stroke-linejoin="round"/>
<path d="M298.049 292.373C298.049 292.373 297.743 295.482 298.355 295.482C298.967 295.482 299.579 291.682 299.119 290.991C298.66 290.3 298.049 292.373 298.049 292.373Z" fill="#BFBFBF" stroke="#17213A" stroke-miterlimit="10" stroke-linecap="round" stroke-linejoin="round"/>
<path d="M296.899 298C296.899 298 293.833 298.499 293.458 299.327C293.083 300.155 294.145 302.318 294.662 302.725C295.18 303.132 298.22 299.449 297.833 298.684C297.446 297.92 296.899 298 296.899 298Z" fill="#BFBFBF" stroke="#17213A" stroke-miterlimit="10" stroke-linecap="round" stroke-linejoin="round"/>
<path d="M201.545 170.943H175.989V179.738H201.544C202.591 179.738 203.439 177.769 203.439 175.341C203.439 172.912 202.591 170.943 201.545 170.943Z" fill="white" stroke="#17213A" stroke-miterlimit="10"/>
<path d="M177.883 175.34C177.883 177.768 177.035 179.737 175.989 179.737C174.942 179.737 174.094 177.768 174.094 175.34C174.094 172.911 174.942 170.942 175.989 170.942C177.035 170.942 177.883 172.912 177.883 175.34Z" fill="white" stroke="#17213A" stroke-miterlimit="10"/>
<path d="M216.613 149.764H191.569V158.559H216.613C217.66 158.559 218.507 156.59 218.507 154.161C218.507 151.733 217.66 149.764 216.613 149.764Z" fill="white" stroke="#17213A" stroke-miterlimit="10"/>
<path d="M193.463 154.161C193.463 156.59 192.614 158.559 191.568 158.559C190.522 158.559 189.674 156.59 189.674 154.161C189.674 151.733 190.522 149.764 191.568 149.764C192.614 149.764 193.463 151.733 193.463 154.161Z" fill="white" stroke="#17213A" stroke-miterlimit="10"/>
<path d="M190.961 187.253H164.365V196.048H190.961C192.007 196.048 192.855 194.079 192.855 191.651C192.855 189.222 192.007 187.253 190.961 187.253Z" fill="white" stroke="#17213A" stroke-miterlimit="10"/>
<path d="M166.259 191.651C166.259 194.079 165.411 196.048 164.365 196.048C163.318 196.048 162.47 194.079 162.47 191.651C162.47 189.222 163.318 187.253 164.365 187.253C165.411 187.253 166.259 189.222 166.259 191.651Z" fill="white" stroke="#17213A" stroke-miterlimit="10"/>
<path d="M178.579 203.565H152.273V212.36H178.579C179.625 212.36 180.473 210.391 180.473 207.963C180.472 205.534 179.624 203.565 178.579 203.565Z" fill="white" stroke="#17213A" stroke-miterlimit="10"/>
<path d="M154.167 207.962C154.167 210.39 153.319 212.359 152.273 212.359C151.228 212.359 150.379 210.39 150.379 207.962C150.379 205.533 151.227 203.564 152.273 203.564C153.32 203.564 154.167 205.534 154.167 207.962Z" fill="white" stroke="#17213A" stroke-miterlimit="10"/>
<path d="M232.927 170.943H207.883V179.737H232.927C233.974 179.737 234.821 177.769 234.821 175.34C234.821 172.912 233.973 170.943 232.927 170.943Z" fill="white" stroke="#17213A" stroke-miterlimit="10"/>
<path d="M209.776 175.339C209.776 177.768 208.928 179.737 207.882 179.737C206.836 179.737 205.988 177.768 205.988 175.339C205.988 172.911 206.836 170.942 207.882 170.942C208.928 170.942 209.776 172.911 209.776 175.339Z" fill="white" stroke="#17213A" stroke-miterlimit="10"/>
<path d="M244.283 187.253H219.238V196.048H244.283C245.329 196.048 246.177 194.079 246.177 191.651C246.177 189.222 245.329 187.253 244.283 187.253Z" fill="white" stroke="#17213A" stroke-miterlimit="10"/>
<path d="M221.132 191.651C221.132 194.079 220.284 196.048 219.238 196.048C218.193 196.048 217.344 194.079 217.344 191.651C217.344 189.222 218.192 187.253 219.238 187.253C220.285 187.253 221.132 189.222 221.132 191.651Z" fill="white" stroke="#17213A" stroke-miterlimit="10"/>
<path d="M255.979 203.565H230.934V212.36H255.979C257.025 212.36 257.873 210.391 257.873 207.963C257.872 205.534 257.024 203.565 255.979 203.565Z" fill="white" stroke="#17213A" stroke-miterlimit="10"/>
<path d="M232.828 207.962C232.828 210.39 231.98 212.359 230.934 212.359C229.887 212.359 229.039 210.39 229.039 207.962C229.039 205.533 229.887 203.564 230.934 203.564C231.98 203.564 232.828 205.534 232.828 207.962Z" fill="white" stroke="#17213A" stroke-miterlimit="10"/>
<path d="M392.68 213.242H243.255V219.359H392.68V213.242Z" fill="white" stroke="#17213A" stroke-miterlimit="10" stroke-linecap="round" stroke-linejoin="round"/>
<path d="M243.255 213.242L191.717 142.849L139.819 213.242V219.359L191.717 148.967L243.255 219.359V213.242Z" fill="white" stroke="#17213A" stroke-miterlimit="10" stroke-linecap="round" stroke-linejoin="round"/>
<path d="M392.679 213.242H243.255L191.717 142.849H341.5L392.679 213.242Z" fill="white" stroke="#17213A" stroke-miterlimit="10" stroke-linecap="round" stroke-linejoin="round"/>
<path d="M195.125 147.211H343.919" stroke="#17213A" stroke-miterlimit="10" stroke-linecap="round" stroke-linejoin="round"/>
<path d="M197.339 150.192H346.133" stroke="#17213A" stroke-miterlimit="10" stroke-linecap="round" stroke-linejoin="round"/>
<path d="M199.553 153.171H348.348" stroke="#17213A" stroke-miterlimit="10" stroke-linecap="round" stroke-linejoin="round"/>
<path d="M201.767 156.152H350.561" stroke="#17213A" stroke-miterlimit="10" stroke-linecap="round" stroke-linejoin="round"/>
<path d="M203.981 159.132H352.776" stroke="#17213A" stroke-miterlimit="10" stroke-linecap="round" stroke-linejoin="round"/>
<path d="M206.196 162.112H354.99" stroke="#17213A" stroke-miterlimit="10" stroke-linecap="round" stroke-linejoin="round"/>
<path d="M208.41 165.093H357.204" stroke="#17213A" stroke-miterlimit="10" stroke-linecap="round" stroke-linejoin="round"/>
<path d="M210.624 168.072H359.418" stroke="#17213A" stroke-miterlimit="10" stroke-linecap="round" stroke-linejoin="round"/>
<path d="M212.838 171.053H361.632" stroke="#17213A" stroke-miterlimit="10" stroke-linecap="round" stroke-linejoin="round"/>
<path d="M215.052 174.033H363.847" stroke="#17213A" stroke-miterlimit="10" stroke-linecap="round" stroke-linejoin="round"/>
<path d="M217.267 177.013H366.061" stroke="#17213A" stroke-miterlimit="10" stroke-linecap="round" stroke-linejoin="round"/>
<path d="M219.134 179.994H367.929" stroke="#17213A" stroke-miterlimit="10" stroke-linecap="round" stroke-linejoin="round"/>
<path d="M221.348 182.974H370.143" stroke="#17213A" stroke-miterlimit="10" stroke-linecap="round" stroke-linejoin="round"/>
<path d="M223.562 185.954H372.357" stroke="#17213A" stroke-miterlimit="10" stroke-linecap="round" stroke-linejoin="round"/>
<path d="M225.776 188.934H374.571" stroke="#17213A" stroke-miterlimit="10" stroke-linecap="round" stroke-linejoin="round"/>
<path d="M227.991 191.914H376.785" stroke="#17213A" stroke-miterlimit="10" stroke-linecap="round" stroke-linejoin="round"/>
<path d="M230.09 194.894H378.885" stroke="#17213A" stroke-miterlimit="10" stroke-linecap="round" stroke-linejoin="round"/>
<path d="M232.188 197.874H380.982" stroke="#17213A" stroke-miterlimit="10" stroke-linecap="round" stroke-linejoin="round"/>
<path d="M234.633 200.855H383.427" stroke="#17213A" stroke-miterlimit="10" stroke-linecap="round" stroke-linejoin="round"/>
<path d="M236.732 203.834H385.527" stroke="#17213A" stroke-miterlimit="10" stroke-linecap="round" stroke-linejoin="round"/>
<path d="M238.716 206.815H387.51" stroke="#17213A" stroke-miterlimit="10" stroke-linecap="round" stroke-linejoin="round"/>
<path d="M241.161 209.795H389.955" stroke="#17213A" stroke-miterlimit="10" stroke-linecap="round" stroke-linejoin="round"/>
<path d="M235.66 235.058H211.793V277.597H235.66V235.058Z" fill="white" stroke="#17213A" stroke-miterlimit="10"/>
<path d="M213.61 274.749V237.906H233.842V274.749H213.61Z" fill="#17213A" stroke="#17213A"/>
<path d="M213.097 244.028V245.594H234.356V244.028H213.097Z" fill="white" stroke="#17213A" stroke-miterlimit="10"/>
<path d="M213.098 251.603V253.168H234.357V251.603H213.098Z" fill="white" stroke="#17213A" stroke-miterlimit="10"/>
<path d="M213.097 259.178V260.744H234.356V259.178H213.097Z" fill="white" stroke="#17213A" stroke-miterlimit="10"/>
<path d="M213.097 266.753V268.319H234.356V266.753H213.097Z" fill="white" stroke="#17213A" stroke-miterlimit="10"/>
<path d="M222.381 275.249H225.071V237.406H222.381V275.249Z" fill="white" stroke="#17213A" stroke-miterlimit="10"/>
<path d="M182.147 235.058H171.277V277.597H182.147V235.058Z" fill="white" stroke="#17213A" stroke-miterlimit="10"/>
<path d="M172.377 274.749V237.906H181.048V274.749H172.377Z" fill="#17213A" stroke="#17213A"/>
<path d="M171.871 244.027V245.593H181.554V244.027H171.871Z" fill="white" stroke="#17213A" stroke-miterlimit="10"/>
<path d="M171.871 251.603V253.168H181.554V251.603H171.871Z" fill="white" stroke="#17213A" stroke-miterlimit="10"/>
<path d="M171.871 259.177V260.744H181.554V259.177H171.871Z" fill="white" stroke="#17213A" stroke-miterlimit="10"/>
<path d="M171.871 266.753V268.319H181.554V266.753H171.871Z" fill="white" stroke="#17213A" stroke-miterlimit="10"/>
<path d="M176.1 275.249H177.325V237.406H176.1V275.249Z" fill="white" stroke="#17213A" stroke-miterlimit="10"/>
<path d="M207.255 235.106H186.382V301.437H207.255V235.106Z" fill="white" stroke="#17213A" stroke-miterlimit="10"/>
<path d="M188.395 245.496V238.026H205.243V245.496H188.395Z" fill="#17213A" stroke="#17213A"/>
<path d="M205.743 248.719H187.895V301.437H205.743V248.719Z" fill="#D8D6F1" stroke="#17213A" stroke-miterlimit="10"/>
<path d="M189.907 268.487V251.336H203.427V268.487H189.907Z" fill="#17213A" stroke="#17213A"/>
<path d="M203.248 287.852V301.366H204.601V288.663H238.737V301.366H240.091V287.852H203.248Z" fill="#DEDCF2" stroke="#17213A" stroke-miterlimit="10"/>
<path d="M208.964 288.913H207.635V301.443H208.964V288.913Z" fill="#DEDCF2" stroke="#17213A" stroke-miterlimit="10"/>
<path d="M212.785 288.913H211.456V301.443H212.785V288.913Z" fill="#DEDCF2" stroke="#17213A" stroke-miterlimit="10"/>
<path d="M216.606 288.913H215.277V301.443H216.606V288.913Z" fill="#DEDCF2" stroke="#17213A" stroke-miterlimit="10"/>
<path d="M220.427 288.913H219.098V301.443H220.427V288.913Z" fill="#DEDCF2" stroke="#17213A" stroke-miterlimit="10"/>
<path d="M224.249 288.913H222.919V301.443H224.249V288.913Z" fill="#DEDCF2" stroke="#17213A" stroke-miterlimit="10"/>
<path d="M228.069 288.913H226.74V301.443H228.069V288.913Z" fill="#DEDCF2" stroke="#17213A" stroke-miterlimit="10"/>
<path d="M231.89 288.913H230.561V301.443H231.89V288.913Z" fill="#DEDCF2" stroke="#17213A" stroke-miterlimit="10"/>
<path d="M235.712 288.913H234.383V301.443H235.712V288.913Z" fill="#DEDCF2" stroke="#17213A" stroke-miterlimit="10"/>
<path d="M240.09 287.852H203.248V290.264H240.09V287.852Z" fill="#DEDCF2" stroke="#17213A" stroke-miterlimit="10"/>
<path d="M130.323 287.853V301.366H131.677V288.664H165.813V301.366H167.166V287.853H130.323Z" fill="#DEDCF2" stroke="#17213A" stroke-miterlimit="10"/>
<path d="M136.04 288.913H134.71V301.444H136.04V288.913Z" fill="#DEDCF2" stroke="#17213A" stroke-miterlimit="10"/>
<path d="M139.86 288.913H138.531V301.444H139.86V288.913Z" fill="#DEDCF2" stroke="#17213A" stroke-miterlimit="10"/>
<path d="M143.682 288.913H142.353V301.444H143.682V288.913Z" fill="#DEDCF2" stroke="#17213A" stroke-miterlimit="10"/>
<path d="M147.502 288.913H146.173V301.444H147.502V288.913Z" fill="#DEDCF2" stroke="#17213A" stroke-miterlimit="10"/>
<path d="M151.324 288.913H149.995V301.444H151.324V288.913Z" fill="#DEDCF2" stroke="#17213A" stroke-miterlimit="10"/>
<path d="M155.144 288.913H153.815V301.444H155.144V288.913Z" fill="#DEDCF2" stroke="#17213A" stroke-miterlimit="10"/>
<path d="M158.966 288.913H157.637V301.444H158.966V288.913Z" fill="#DEDCF2" stroke="#17213A" stroke-miterlimit="10"/>
<path d="M162.787 288.913H161.458V301.444H162.787V288.913Z" fill="#DEDCF2" stroke="#17213A" stroke-miterlimit="10"/>
<path d="M167.165 287.853H130.323V290.265H167.165V287.853Z" fill="#DEDCF2" stroke="#17213A" stroke-miterlimit="10"/>
<path d="M135.485 301.877H131.007V308.679H135.485V301.877Z" fill="white" stroke="#17213A" stroke-miterlimit="10"/>
<path d="M136.342 301.877H133.083V308.679H136.342V301.877Z" fill="white" stroke="#17213A" stroke-miterlimit="10"/>
<path d="M151.024 301.877H146.546V308.679H151.024V301.877Z" fill="white" stroke="#17213A" stroke-miterlimit="10"/>
<path d="M151.881 301.877H148.622V308.679H151.881V301.877Z" fill="white" stroke="#17213A" stroke-miterlimit="10"/>
<path d="M205.017 301.877H200.538V308.679H205.017V301.877Z" fill="white" stroke="#17213A" stroke-miterlimit="10"/>
<path d="M205.873 301.877H202.614V308.679H205.873V301.877Z" fill="white" stroke="#17213A" stroke-miterlimit="10"/>
<path d="M190.909 301.877H186.43V308.679H190.909V301.877Z" fill="white" stroke="#17213A" stroke-miterlimit="10"/>
<path d="M191.765 301.877H188.506V308.679H191.765V301.877Z" fill="white" stroke="#17213A" stroke-miterlimit="10"/>
<path d="M240.216 299.82H130.425V302.052H240.216V299.82Z" fill="white" stroke="#17213A" stroke-miterlimit="10"/>
<path d="M291.43 118.26H304.134L308.634 110.9H295.931L291.43 118.26Z" fill="white" stroke="#17213A" stroke-miterlimit="10" stroke-linecap="round" stroke-linejoin="round"/>
<path d="M308.174 115.425H301.236V123.57H308.174V115.425Z" fill="#17213A" stroke="#17213A" stroke-miterlimit="10" stroke-linecap="round" stroke-linejoin="round"/>
<path d="M315.562 118.26H300.789L296.29 110.9H311.061L315.562 118.26Z" fill="white" stroke="#17213A" stroke-miterlimit="10" stroke-linecap="round" stroke-linejoin="round"/>
<path d="M316.18 201.635H300.481L291.365 186.242V123.646H316.18V201.635Z" fill="#17213A" stroke="#17213A" stroke-miterlimit="10" stroke-linecap="round" stroke-linejoin="round"/>
<path d="M316.181 123.646H300.481V201.635H316.181V123.646Z" fill="white" stroke="#17213A" stroke-miterlimit="10" stroke-linecap="round" stroke-linejoin="round"/>
<path d="M319.218 122.526H288.327V126.918H319.218V122.526Z" fill="white" stroke="#17213A" stroke-miterlimit="10" stroke-linecap="round" stroke-linejoin="round"/>
<path d="M319.219 122.526H299.675V126.918H319.219V122.526Z" fill="white" stroke="#17213A" stroke-miterlimit="10" stroke-linecap="round" stroke-linejoin="round"/>
<path d="M308.608 138.128C308.608 138.128 306.017 140.719 305.671 142.446C305.325 144.174 308.262 148.147 309.816 148.147C311.371 148.147 314.308 144.692 314.481 142.791C314.653 140.891 312.235 137.954 311.199 137.608C310.162 137.264 308.608 138.128 308.608 138.128Z" stroke="#17213A" stroke-miterlimit="10" stroke-linecap="round" stroke-linejoin="round"/>
<path d="M307.398 136.746L305.152 139.855C305.152 139.855 302.734 138.819 303.252 137.437C303.771 136.054 304.634 134.846 307.398 136.746Z" stroke="#17213A" stroke-miterlimit="10" stroke-linecap="round" stroke-linejoin="round"/>
<path d="M309.471 133.291C309.471 133.291 306.708 133.119 306.708 133.982C306.708 134.846 308.781 135.537 310.336 135.537C311.89 135.537 312.582 133.291 311.89 133.119C311.199 132.946 309.471 133.291 309.471 133.291Z" stroke="#17213A" stroke-miterlimit="10" stroke-linecap="round" stroke-linejoin="round"/>
<path d="M305.325 145.038C305.325 145.038 304.116 143.656 303.079 144.693C302.043 145.729 301.352 146.939 301.697 148.148C302.043 149.357 304.116 151.776 305.325 151.948C306.535 152.121 307.571 149.53 307.225 148.666C306.88 147.802 305.325 145.038 305.325 145.038Z" stroke="#17213A" stroke-miterlimit="10" stroke-linecap="round" stroke-linejoin="round"/>
<path d="M313.444 147.456C313.444 147.456 310.853 149.011 310.681 151.084C310.508 153.156 311.717 155.748 312.754 155.748C313.791 155.748 314.654 152.985 314.654 150.739C314.654 148.493 314.653 146.419 313.444 147.456Z" stroke="#17213A" stroke-miterlimit="10" stroke-linecap="round" stroke-linejoin="round"/>
<path d="M308.607 150.048C308.607 150.048 307.398 152.121 307.398 152.812C307.398 153.503 308.607 155.058 309.298 154.539C309.989 154.021 309.816 148.493 308.607 150.048Z" stroke="#17213A" stroke-miterlimit="10" stroke-linecap="round" stroke-linejoin="round"/>
<path d="M305.498 128.799C305.498 128.799 302.561 128.626 302.561 129.663C302.561 130.699 305.67 132.254 306.361 131.045C307.052 129.836 305.498 128.799 305.498 128.799Z" stroke="#17213A" stroke-miterlimit="10" stroke-linecap="round" stroke-linejoin="round"/>
<path d="M308.608 165.961C308.608 165.961 306.017 168.552 305.671 170.28C305.325 172.007 308.262 175.98 309.816 175.98C311.371 175.98 314.308 172.526 314.481 170.625C314.653 168.725 312.235 165.788 311.199 165.442C310.162 165.098 308.608 165.961 308.608 165.961Z" stroke="#17213A" stroke-miterlimit="10" stroke-linecap="round" stroke-linejoin="round"/>
<path d="M307.398 164.579L305.152 167.689C305.152 167.689 302.734 166.652 303.252 165.27C303.771 163.888 304.634 162.679 307.398 164.579Z" stroke="#17213A" stroke-miterlimit="10" stroke-linecap="round" stroke-linejoin="round"/>
<path d="M309.471 161.124C309.471 161.124 306.708 160.951 306.708 161.815C306.708 162.679 308.781 163.37 310.336 163.37C311.89 163.37 312.582 161.124 311.89 160.951C311.199 160.778 309.471 161.124 309.471 161.124Z" stroke="#17213A" stroke-miterlimit="10" stroke-linecap="round" stroke-linejoin="round"/>
<path d="M305.325 172.87C305.325 172.87 304.116 171.488 303.079 172.524C302.043 173.561 301.352 174.77 301.697 175.979C302.043 177.189 304.116 179.607 305.325 179.78C306.535 179.952 307.571 177.361 307.225 176.498C306.88 175.635 305.325 172.87 305.325 172.87Z" stroke="#17213A" stroke-miterlimit="10" stroke-linecap="round" stroke-linejoin="round"/>
<path d="M313.444 175.29C313.444 175.29 310.853 176.844 310.681 178.918C310.508 180.991 311.717 183.582 312.754 183.582C313.791 183.582 314.654 180.818 314.654 178.573C314.653 176.327 314.653 174.253 313.444 175.29Z" stroke="#17213A" stroke-miterlimit="10" stroke-linecap="round" stroke-linejoin="round"/>
<path d="M308.607 177.88C308.607 177.88 307.398 179.953 307.398 180.644C307.398 181.335 308.607 182.89 309.298 182.371C309.989 181.854 309.816 176.326 308.607 177.88Z" stroke="#17213A" stroke-miterlimit="10" stroke-linecap="round" stroke-linejoin="round"/>
<path d="M305.498 156.632C305.498 156.632 302.561 156.46 302.561 157.496C302.561 158.532 305.67 160.087 306.361 158.878C307.052 157.669 305.498 156.632 305.498 156.632Z" stroke="#17213A" stroke-miterlimit="10" stroke-linecap="round" stroke-linejoin="round"/>
<path d="M307.398 191.824L305.152 194.934C305.152 194.934 302.734 193.898 303.252 192.516C303.771 191.133 304.634 189.924 307.398 191.824Z" stroke="#17213A" stroke-miterlimit="10" stroke-linecap="round" stroke-linejoin="round"/>
<path d="M309.471 188.369C309.471 188.369 306.707 188.197 306.707 189.06C306.707 189.924 308.78 190.615 310.335 190.615C311.89 190.615 312.581 188.369 311.89 188.197C311.198 188.023 309.471 188.369 309.471 188.369Z" stroke="#17213A" stroke-miterlimit="10" stroke-linecap="round" stroke-linejoin="round"/>
<path d="M305.498 183.877C305.498 183.877 302.561 183.705 302.561 184.741C302.561 185.777 305.67 187.332 306.361 186.123C307.052 184.914 305.498 183.877 305.498 183.877Z" stroke="#17213A" stroke-miterlimit="10" stroke-linecap="round" stroke-linejoin="round"/>
<path d="M295.907 128.453C295.907 128.453 294.99 129.316 294.99 130.871C294.99 132.426 296.52 133.462 297.284 133.462C298.049 133.462 298.508 129.834 298.355 129.144C298.202 128.453 295.907 128.453 295.907 128.453Z" fill="#BFBFBF" stroke="#17213A" stroke-miterlimit="10" stroke-linecap="round" stroke-linejoin="round"/>
<path d="M294.072 128.453C294.072 128.453 292.542 128.108 292.542 128.971C292.542 129.835 293.766 130.699 293.766 130.181C293.766 129.663 294.072 128.453 294.072 128.453Z" fill="#BFBFBF" stroke="#17213A" stroke-miterlimit="10" stroke-linecap="round" stroke-linejoin="round"/>
<path d="M296.285 135.536C296.285 135.536 295.13 132.771 294.231 133.462C293.332 134.154 292.176 136.917 292.947 137.781C293.718 138.645 296.157 140.545 296.542 138.991C296.928 137.436 296.285 135.536 296.285 135.536Z" fill="#BFBFBF" stroke="#17213A" stroke-miterlimit="10" stroke-linecap="round" stroke-linejoin="round"/>
<path d="M298.049 135.19C298.049 135.19 297.743 138.299 298.355 138.299C298.968 138.299 299.579 134.498 299.12 133.807C298.661 133.117 298.049 135.19 298.049 135.19Z" fill="#BFBFBF" stroke="#17213A" stroke-miterlimit="10" stroke-linecap="round" stroke-linejoin="round"/>
<path d="M296.899 140.817C296.899 140.817 293.833 141.316 293.458 142.144C293.084 142.972 294.146 145.135 294.663 145.542C295.18 145.949 298.22 142.265 297.833 141.501C297.446 140.736 296.899 140.817 296.899 140.817Z" fill="#BFBFBF" stroke="#17213A" stroke-miterlimit="10" stroke-linecap="round" stroke-linejoin="round"/>
<path d="M295.907 149.057C295.907 149.057 294.99 149.92 294.99 151.475C294.99 153.03 296.52 154.066 297.284 154.066C298.049 154.066 298.508 150.438 298.355 149.748C298.202 149.057 295.907 149.057 295.907 149.057Z" fill="#BFBFBF" stroke="#17213A" stroke-miterlimit="10" stroke-linecap="round" stroke-linejoin="round"/>
<path d="M294.072 149.057C294.072 149.057 292.542 148.712 292.542 149.575C292.542 150.439 293.766 151.303 293.766 150.785C293.766 150.266 294.072 149.057 294.072 149.057Z" fill="#BFBFBF" stroke="#17213A" stroke-miterlimit="10" stroke-linecap="round" stroke-linejoin="round"/>
<path d="M296.285 156.14C296.285 156.14 295.13 153.375 294.231 154.066C293.332 154.758 292.176 157.521 292.947 158.385C293.718 159.249 296.157 161.149 296.542 159.595C296.928 158.041 296.285 156.14 296.285 156.14Z" fill="#BFBFBF" stroke="#17213A" stroke-miterlimit="10" stroke-linecap="round" stroke-linejoin="round"/>
<path d="M298.049 155.795C298.049 155.795 297.743 158.904 298.355 158.904C298.968 158.904 299.579 155.104 299.12 154.413C298.661 153.721 298.049 155.795 298.049 155.795Z" fill="#BFBFBF" stroke="#17213A" stroke-miterlimit="10" stroke-linecap="round" stroke-linejoin="round"/>
<path d="M296.899 161.422C296.899 161.422 293.833 161.921 293.458 162.749C293.084 163.577 294.146 165.74 294.663 166.147C295.18 166.554 298.22 162.87 297.833 162.106C297.446 161.341 296.899 161.422 296.899 161.422Z" fill="#BFBFBF" stroke="#17213A" stroke-miterlimit="10" stroke-linecap="round" stroke-linejoin="round"/>
<path d="M295.907 169.663C295.907 169.663 294.99 170.526 294.99 172.081C294.99 173.636 296.52 174.672 297.284 174.672C298.049 174.672 298.508 171.044 298.355 170.354C298.202 169.663 295.907 169.663 295.907 169.663Z" fill="#BFBFBF" stroke="#17213A" stroke-miterlimit="10" stroke-linecap="round" stroke-linejoin="round"/>
<path d="M294.072 169.663C294.072 169.663 292.542 169.318 292.542 170.181C292.542 171.045 293.766 171.909 293.766 171.39C293.766 170.872 294.072 169.663 294.072 169.663Z" fill="#BFBFBF" stroke="#17213A" stroke-miterlimit="10" stroke-linecap="round" stroke-linejoin="round"/>
<path d="M296.285 176.746C296.285 176.746 295.13 173.982 294.231 174.672C293.332 175.363 292.176 178.127 292.947 178.991C293.718 179.854 296.157 181.754 296.542 180.2C296.928 178.646 296.285 176.746 296.285 176.746Z" fill="#BFBFBF" stroke="#17213A" stroke-miterlimit="10" stroke-linecap="round" stroke-linejoin="round"/>
<path d="M298.049 176.399C298.049 176.399 297.743 179.509 298.355 179.509C298.968 179.509 299.579 175.708 299.12 175.017C298.661 174.327 298.049 176.399 298.049 176.399Z" fill="#BFBFBF" stroke="#17213A" stroke-miterlimit="10" stroke-linecap="round" stroke-linejoin="round"/>
<path d="M296.899 182.027C296.899 182.027 293.833 182.526 293.458 183.354C293.084 184.181 294.146 186.344 294.663 186.752C295.18 187.159 298.22 183.475 297.833 182.711C297.446 181.946 296.899 182.027 296.899 182.027Z" fill="#BFBFBF" stroke="#17213A" stroke-miterlimit="10" stroke-linecap="round" stroke-linejoin="round"/>
<path d="M40.4063 280.634C41.5379 280.938 44.126 280.488 44.128 280.488C44.1548 280.483 43.3143 278.869 43.2498 278.773C42.5006 277.664 40.4029 275.964 38.967 276.383C37.9322 276.685 37.5037 277.833 37.8917 278.793C38.2872 279.775 39.4429 280.374 40.4063 280.634Z" fill="#17213A"/>
<path d="M58.015 308.677H58.9517C58.9482 308.667 58.9448 308.658 58.9414 308.647C58.699 307.968 58.427 307.247 58.14 306.509C58.3028 306.414 59.2236 305.868 60.0201 305.251C60.9004 305.958 62.9851 306.627 63.255 306.712C63.0909 307.393 62.9247 308.054 62.7578 308.676H63.6684C63.8201 308.045 63.9712 307.382 64.1195 306.696C64.4065 306.713 66.7529 306.832 67.7781 306.433C68.7078 306.069 69.7914 305.348 70.0791 304.33C70.3606 303.333 69.8106 302.239 68.749 302.051C67.2761 301.791 65.3747 303.709 64.7505 304.892C64.7135 304.962 64.3983 305.764 64.2081 306.273C64.2747 305.957 64.3427 305.65 64.4072 305.324C64.5397 304.678 64.6524 304.031 64.776 303.335C64.824 302.996 64.8728 302.655 64.9215 302.309C64.9771 301.968 64.9929 301.601 65.0307 301.243C65.1014 300.412 65.1317 299.566 65.144 298.714C65.7078 298.828 67.7163 299.206 68.6948 298.987C69.6685 298.77 70.8488 298.221 71.2869 297.258C71.7161 296.316 71.3377 295.15 70.3167 294.803C68.9001 294.322 66.7309 295.93 65.9344 297.005C65.8842 297.072 65.4001 297.908 65.1426 298.371C65.1461 297.859 65.1516 297.348 65.1385 296.829C65.1001 295.332 65.0142 293.817 64.936 292.307C64.9112 291.844 64.8927 291.383 64.8728 290.92C65.0733 290.964 67.4505 291.464 68.5464 291.219C69.5201 291.001 70.7005 290.453 71.1386 289.49C71.5678 288.547 71.1894 287.382 70.1684 287.036C68.7518 286.554 66.5826 288.162 65.786 289.237C65.7263 289.318 65.03 290.521 64.868 290.836C64.8233 289.818 64.7883 288.804 64.7938 287.803C64.8 286.421 64.8824 285.067 65.0589 283.76C65.1516 283.78 67.6311 284.313 68.7538 284.063C69.7275 283.846 70.9079 283.297 71.346 282.334C71.7752 281.391 71.3968 280.227 70.3757 279.879C68.9584 279.398 66.79 281.006 65.9934 282.08C65.9309 282.165 65.1832 283.46 65.0644 283.704C65.0753 283.626 65.0774 283.544 65.0891 283.467C65.2951 282.075 65.6693 280.751 66.0806 279.53C66.3182 278.819 66.5846 278.154 66.8586 277.512C67.3104 277.659 69.3814 278.307 70.4162 278.193C71.4085 278.084 72.6417 277.669 73.1821 276.76C73.7122 275.87 73.4637 274.67 72.4872 274.214C71.1317 273.579 68.7991 274.939 67.89 275.919C67.8406 275.972 67.3983 276.571 67.0818 277.01C67.2095 276.723 67.3365 276.423 67.4643 276.15C67.9429 275.123 68.4448 274.212 68.8953 273.409C69.1555 272.955 69.3993 272.549 69.6314 272.172C70.1491 272.084 72.2332 271.705 73.0839 271.137C73.9134 270.582 74.8178 269.645 74.8803 268.588C74.9414 267.554 74.1689 266.604 73.0922 266.649C71.5973 266.712 70.1526 268.995 69.7969 270.285C69.766 270.397 69.4851 272.196 69.5119 272.192C69.5119 272.192 69.5373 272.187 69.5435 272.187C69.3121 272.545 69.069 272.933 68.8122 273.361C68.3432 274.156 67.8206 275.058 67.3173 276.079C66.8119 277.098 66.2921 278.219 65.8506 279.449C65.4063 280.682 65.0019 282.001 64.7608 283.415C64.7581 283.431 64.7574 283.448 64.7547 283.464C64.697 283.028 64.4958 281.816 64.4697 281.725C64.103 280.438 62.6391 278.167 61.1435 278.117C60.0668 278.081 59.3025 279.037 59.3719 280.071C59.4433 281.127 60.3545 282.057 61.1895 282.605C62.1309 283.223 64.5425 283.595 64.7348 283.624C64.5171 284.972 64.4038 286.373 64.366 287.797C64.344 288.612 64.3468 289.433 64.3598 290.256C64.298 289.881 64.2404 289.546 64.2266 289.5C63.8593 288.213 62.396 285.943 60.9004 285.892C59.823 285.855 59.0588 286.812 59.1288 287.846C59.1995 288.902 60.1114 289.832 60.9457 290.38C61.7931 290.935 63.8428 291.294 64.3859 291.382C64.3942 291.698 64.399 292.013 64.4093 292.329C64.4553 293.843 64.5075 295.354 64.5137 296.838C64.5164 297.361 64.4992 297.875 64.4841 298.391C64.4292 298.058 64.3798 297.778 64.3674 297.736C64 296.449 62.5367 294.178 61.0419 294.128C59.9645 294.092 59.2002 295.048 59.2703 296.082C59.3417 297.138 60.2529 298.068 61.0879 298.616C61.8961 299.146 63.7851 299.494 64.4306 299.601C64.3997 300.129 64.3688 300.657 64.3152 301.167C64.2706 301.514 64.2513 301.851 64.1875 302.197C64.1312 302.541 64.0756 302.882 64.0199 303.219C63.8895 303.864 63.759 304.532 63.6162 305.158C63.52 305.595 63.4205 306.009 63.3209 306.426C63.3243 305.906 63.3106 304.886 63.2996 304.801C63.1877 303.919 62.6617 302.536 61.8906 301.625C61.8748 301.495 61.848 301.366 61.8082 301.241C61.4944 300.254 60.4328 299.645 59.444 300.075C58.0713 300.672 57.5426 303.324 57.6731 304.655C57.6806 304.733 57.8592 305.577 57.9807 306.107C57.8619 305.807 57.75 305.513 57.6243 305.205C57.3792 304.594 57.1169 303.992 56.8367 303.342C56.6905 303.033 56.5428 302.722 56.3938 302.406C56.2524 302.091 56.0635 301.776 55.898 301.456C55.4991 300.724 55.0589 300.002 54.5996 299.284C55.1331 299.068 57.0166 298.273 57.7115 297.55C58.4044 296.83 59.0862 295.72 58.9221 294.675C58.7608 293.652 57.8042 292.889 56.7619 293.165C55.3151 293.546 54.3908 296.086 54.3187 297.423C54.3146 297.506 54.3702 298.47 54.4107 299C54.1313 298.571 53.8545 298.141 53.5579 297.716C52.7016 296.488 51.7966 295.273 50.8991 294.055C50.6238 293.683 50.3546 293.308 50.0827 292.935C50.2736 292.86 52.532 291.963 53.3114 291.153C54.0035 290.433 54.6861 289.323 54.522 288.278C54.3606 287.255 53.4041 286.492 52.3617 286.768C50.9149 287.149 49.9907 289.689 49.9186 291.026C49.9131 291.126 49.9955 292.514 50.0339 292.867C49.4365 292.043 48.8487 291.217 48.3021 290.378C47.5468 289.222 46.8698 288.047 46.2971 286.86C46.3863 286.825 48.7478 285.899 49.5457 285.07C50.2385 284.351 50.9211 283.241 50.7563 282.196C50.5956 281.172 49.6384 280.41 48.596 280.685C47.1492 281.067 46.2257 283.606 46.1529 284.943C46.1474 285.048 46.2366 286.541 46.2717 286.811C46.238 286.741 46.1948 286.671 46.1618 286.6C45.5671 285.324 45.151 284.014 44.8207 282.767C44.6278 282.044 44.4836 281.341 44.3586 280.655C44.8159 280.527 46.9007 279.923 47.7013 279.257C48.469 278.617 49.269 277.589 49.2195 276.532C49.1715 275.497 48.3035 274.634 47.2378 274.792C45.758 275.012 44.5612 277.435 44.3428 278.756C44.3311 278.828 44.2906 279.571 44.2693 280.113C44.2178 279.802 44.1588 279.482 44.1148 279.184C43.9487 278.062 43.8656 277.025 43.799 276.106C43.7653 275.583 43.7454 275.11 43.7317 274.667C44.1155 274.307 45.6447 272.84 46.0409 271.895C46.4282 270.973 46.6651 269.692 46.1357 268.776C45.6173 267.88 44.4499 267.515 43.5765 268.147C42.3645 269.026 42.4167 271.729 42.8294 273.002C42.8651 273.112 43.6218 274.767 43.6417 274.75C43.6417 274.75 43.6603 274.732 43.6651 274.728C43.6699 275.155 43.6802 275.612 43.7015 276.112C43.7475 277.034 43.8086 278.075 43.9514 279.205C44.0908 280.334 44.2742 281.557 44.5832 282.827C44.8915 284.1 45.2801 285.425 45.8576 286.737C45.8638 286.752 45.8727 286.766 45.8796 286.781C45.5919 286.449 44.7562 285.55 44.6841 285.489C43.6699 284.618 41.1986 283.533 39.9234 284.318C39.0054 284.883 38.8941 286.103 39.5217 286.926C40.1624 287.768 41.4348 288.04 42.4325 288.035C43.558 288.03 45.7745 287.007 45.9503 286.925C46.5113 288.17 47.1877 289.401 47.941 290.61C48.3708 291.301 48.8254 291.985 49.2889 292.664C49.0307 292.385 48.7979 292.138 48.7622 292.107C47.7473 291.236 45.276 290.152 44.0015 290.936C43.0828 291.501 42.9722 292.721 43.5998 293.545C44.2405 294.386 45.5129 294.658 46.5106 294.653C47.5235 294.649 49.4303 293.815 49.9323 293.588C50.1129 293.846 50.2907 294.106 50.4727 294.364C51.3448 295.602 52.2203 296.834 53.0422 298.068C53.332 298.503 53.6011 298.942 53.8731 299.38C53.6437 299.133 53.4487 298.927 53.4151 298.898C52.4002 298.028 49.9295 296.943 48.6544 297.727C47.7356 298.293 47.6251 299.513 48.2527 300.336C48.8934 301.178 50.1658 301.449 51.1635 301.445C52.1296 301.44 53.8971 300.686 54.4945 300.419C54.7589 300.876 55.0246 301.334 55.2601 301.789C55.4139 302.103 55.5842 302.395 55.7209 302.719C55.863 303.037 56.0038 303.352 56.1439 303.664C56.3904 304.274 56.6493 304.903 56.8745 305.504C57.0345 305.921 57.1794 306.323 57.327 306.726C57.0434 306.29 56.4707 305.447 56.4144 305.382C55.5437 304.367 53.2647 302.92 51.8859 303.502C50.8929 303.921 50.599 305.11 51.0948 306.02C51.6009 306.949 52.817 307.411 53.8044 307.557C54.8914 307.719 57.1478 307.082 57.4293 307C57.6367 307.576 57.8324 308.135 58.015 308.677Z" fill="#17213A"/>
<path d="M66.758 277.248C66.7834 277.259 66.9709 275.447 66.9695 275.332C66.9551 273.994 66.1414 271.416 64.7124 270.972C63.6831 270.652 62.6943 271.373 62.489 272.388C62.2795 273.425 62.9133 274.563 63.5739 275.312C64.3505 276.192 66.7566 277.246 66.758 277.248Z" fill="#17213A"/>
<path d="M16.3394 308.677H496.199" stroke="#17213A" stroke-miterlimit="10" stroke-linecap="round" stroke-linejoin="round"/>
<path d="M458.088 308.14V224.991H463.972V308.14H458.088Z" fill="#17213A" stroke="#17213A"/>
<path d="M464.472 224.492C464.472 224.671 462.931 224.816 461.03 224.816C459.129 224.816 457.588 224.671 457.588 224.492C457.588 224.313 459.129 224.167 461.03 224.167C462.931 224.167 464.472 224.312 464.472 224.492Z" fill="#DBD9EB"/>
<path opacity="0.2" d="M464.472 277.351L457.588 276.852V271.662H464.472V277.351Z" fill="#383192"/>
<path d="M500.698 230.905L425.456 224.296L421.369 271.04L496.611 277.649L500.698 230.905Z" fill="#383192"/>
<path d="M497.329 230.609L422.087 224L418 270.744L493.242 277.353L497.329 230.609Z" fill="#CEC8FF"/>
<path opacity="0.4" d="M497.686 237.881L483.572 237.233L497.589 238.997L497.686 237.881Z" fill="#383192"/>
<path opacity="0.4" d="M497.087 239.472L488.379 239.594L496.941 241.146L497.087 239.472Z" fill="#383192"/>
<path opacity="0.4" d="M419.028 258.877L426.64 258.954L419.126 257.761L419.028 258.877Z" fill="#383192"/>
<path opacity="0.4" d="M419.799 250.066L426.351 249.754L419.945 248.392L419.799 250.066Z" fill="#383192"/>
<path opacity="0.4" d="M494.285 272.386L487.733 272.698L494.139 274.06L494.285 272.386Z" fill="#383192"/>
<path d="M488.648 251.383L488.496 253.253L490.922 253.45L490.83 254.588L488.404 254.391L488.249 256.301L491.366 256.554L491.271 257.731L486.639 257.356L487.229 250.083L491.861 250.458L491.765 251.636L488.648 251.383Z" fill="#383192"/>
<path d="M485.535 251.348C485.482 251.421 485.429 251.474 485.375 251.506C485.326 251.536 485.263 251.548 485.186 251.541C485.112 251.535 485.034 251.504 484.951 251.447C484.872 251.386 484.778 251.322 484.67 251.252C484.561 251.183 484.435 251.117 484.292 251.055C484.149 250.99 483.979 250.949 483.782 250.933C483.435 250.905 483.168 250.962 482.981 251.105C482.795 251.245 482.692 251.44 482.671 251.69C482.658 251.851 482.694 251.988 482.779 252.103C482.868 252.214 482.986 252.315 483.133 252.404C483.284 252.494 483.455 252.576 483.648 252.653C483.84 252.729 484.037 252.812 484.238 252.902C484.439 252.989 484.635 253.089 484.824 253.202C485.013 253.315 485.179 253.451 485.321 253.611C485.466 253.771 485.576 253.961 485.653 254.183C485.733 254.401 485.76 254.662 485.735 254.966C485.709 255.297 485.625 255.603 485.484 255.884C485.347 256.163 485.161 256.401 484.927 256.601C484.692 256.797 484.409 256.944 484.079 257.042C483.751 257.14 483.385 257.172 482.981 257.139C482.75 257.121 482.522 257.079 482.295 257.013C482.071 256.948 481.856 256.865 481.649 256.764C481.445 256.663 481.255 256.547 481.077 256.415C480.899 256.283 480.746 256.139 480.617 255.984L481.116 255.308C481.157 255.257 481.209 255.218 481.272 255.189C481.335 255.158 481.4 255.144 481.467 255.15C481.557 255.157 481.65 255.198 481.745 255.273C481.84 255.348 481.949 255.431 482.073 255.522C482.197 255.613 482.341 255.698 482.506 255.779C482.674 255.86 482.879 255.91 483.119 255.93C483.47 255.958 483.747 255.9 483.951 255.755C484.158 255.61 484.274 255.379 484.3 255.062C484.315 254.878 484.278 254.725 484.191 254.604C484.106 254.483 483.99 254.377 483.843 254.288C483.695 254.199 483.525 254.119 483.332 254.05C483.14 253.977 482.943 253.899 482.741 253.815C482.539 253.731 482.344 253.635 482.154 253.525C481.964 253.416 481.799 253.278 481.658 253.112C481.517 252.945 481.407 252.745 481.328 252.51C481.253 252.275 481.229 251.989 481.257 251.651C481.279 251.381 481.353 251.123 481.481 250.877C481.609 250.632 481.784 250.419 482.007 250.239C482.23 250.059 482.497 249.92 482.808 249.825C483.121 249.729 483.474 249.697 483.865 249.729C484.303 249.764 484.701 249.866 485.061 250.033C485.425 250.197 485.725 250.409 485.963 250.671L485.535 251.348Z" fill="#383192"/>
<path d="M476.723 255.34C476.967 255.36 477.189 255.337 477.389 255.273C477.59 255.205 477.763 255.102 477.909 254.962C478.055 254.822 478.172 254.649 478.259 254.44C478.347 254.232 478.401 253.995 478.423 253.727L478.774 249.396L480.278 249.519L479.927 253.849C479.891 254.29 479.786 254.691 479.612 255.05C479.442 255.406 479.214 255.707 478.928 255.953C478.643 256.199 478.305 256.382 477.915 256.501C477.525 256.621 477.093 256.662 476.619 256.623C476.144 256.585 475.723 256.475 475.354 256.294C474.988 256.112 474.685 255.878 474.442 255.589C474.2 255.3 474.022 254.966 473.908 254.587C473.798 254.205 473.761 253.793 473.796 253.352L474.148 249.021L475.652 249.143L475.3 253.474C475.278 253.741 475.294 253.985 475.347 254.204C475.4 254.424 475.487 254.614 475.608 254.775C475.73 254.937 475.884 255.067 476.071 255.166C476.258 255.262 476.476 255.32 476.723 255.34Z" fill="#383192"/>
<path d="M472.845 252.573C472.802 253.104 472.672 253.59 472.454 254.03C472.24 254.47 471.956 254.842 471.602 255.146C471.251 255.451 470.839 255.68 470.365 255.833C469.892 255.983 469.377 256.035 468.819 255.99C468.261 255.945 467.76 255.81 467.318 255.586C466.875 255.358 466.504 255.066 466.203 254.708C465.903 254.351 465.681 253.937 465.537 253.468C465.397 253 465.348 252.499 465.391 251.968C465.435 251.437 465.563 250.953 465.777 250.516C465.994 250.076 466.28 249.704 466.634 249.4C466.989 249.096 467.402 248.869 467.875 248.719C468.348 248.565 468.864 248.511 469.422 248.557C469.98 248.602 470.48 248.738 470.923 248.966C471.365 249.19 471.735 249.483 472.032 249.843C472.333 250.2 472.553 250.614 472.693 251.082C472.837 251.548 472.888 252.045 472.845 252.573ZM471.306 252.448C471.337 252.067 471.315 251.722 471.239 251.413C471.163 251.101 471.039 250.832 470.865 250.606C470.696 250.377 470.48 250.196 470.218 250.064C469.96 249.929 469.66 249.847 469.32 249.82C468.979 249.792 468.668 249.824 468.389 249.916C468.109 250.004 467.865 250.147 467.657 250.346C467.453 250.541 467.289 250.787 467.164 251.083C467.039 251.375 466.961 251.712 466.93 252.093C466.899 252.477 466.921 252.826 466.997 253.138C467.073 253.447 467.196 253.714 467.366 253.94C467.539 254.166 467.756 254.346 468.018 254.482C468.28 254.614 468.581 254.694 468.922 254.722C469.263 254.75 469.571 254.719 469.847 254.631C470.127 254.539 470.369 254.395 470.574 254.2C470.781 254.005 470.947 253.761 471.072 253.469C471.197 253.173 471.275 252.832 471.306 252.448Z" fill="#383192"/>
<path d="M464.589 248.245L463.999 255.518L462.485 255.395L462.74 252.262L459.537 252.002L459.282 255.135L457.769 255.012L458.359 247.739L459.873 247.862L459.622 250.95L462.825 251.21L463.076 248.122L464.589 248.245Z" fill="#383192"/>
<path d="M456.836 247.616L456.246 254.889L455.469 254.826C455.352 254.817 455.255 254.79 455.177 254.747C455.101 254.7 455.027 254.627 454.958 254.527L451.708 249.622C451.709 249.739 451.706 249.855 451.7 249.969C451.698 250.083 451.693 250.189 451.685 250.286L451.343 254.491L450.015 254.383L450.605 247.11L451.397 247.175C451.461 247.18 451.514 247.187 451.557 247.198C451.604 247.205 451.644 247.22 451.679 247.243C451.715 247.263 451.748 247.289 451.779 247.322C451.81 247.354 451.844 247.398 451.88 247.451L455.153 252.379C455.15 252.25 455.15 252.128 455.152 252.01C455.155 251.889 455.161 251.775 455.17 251.669L455.508 247.508L456.836 247.616Z" fill="#383192"/>
<path d="M449.787 247.044L446.941 254.134L445.583 254.024L444.48 249.146C444.462 249.077 444.445 249.002 444.428 248.92C444.411 248.838 444.396 248.751 444.383 248.659C444.356 248.747 444.327 248.831 444.297 248.909C444.268 248.987 444.238 249.059 444.209 249.124L442.32 253.759L440.956 253.648L439.296 246.192L440.559 246.295C440.689 246.305 440.796 246.344 440.878 246.412C440.963 246.479 441.015 246.564 441.033 246.666L441.828 250.858C441.846 250.974 441.863 251.1 441.879 251.236C441.898 251.368 441.915 251.509 441.93 251.658C441.972 251.511 442.015 251.373 442.059 251.245C442.103 251.118 442.15 250.999 442.199 250.888L443.845 246.895C443.879 246.813 443.942 246.743 444.034 246.683C444.13 246.62 444.242 246.594 444.368 246.604L444.81 246.64C444.94 246.65 445.043 246.691 445.118 246.761C445.196 246.828 445.252 246.911 445.284 247.011L446.259 251.218C446.291 251.328 446.318 251.448 446.341 251.578C446.365 251.704 446.386 251.838 446.404 251.981C446.442 251.843 446.478 251.713 446.512 251.591C446.549 251.467 446.585 251.352 446.62 251.247L448.081 247.238C448.111 247.153 448.174 247.081 448.27 247.022C448.366 246.962 448.477 246.938 448.604 246.948L449.787 247.044Z" fill="#383192"/>
<path d="M438.776 249.808C438.732 250.339 438.602 250.825 438.385 251.265C438.171 251.705 437.887 252.077 437.532 252.381C437.181 252.686 436.769 252.915 436.296 253.068C435.823 253.218 435.308 253.27 434.749 253.225C434.191 253.18 433.691 253.045 433.248 252.821C432.806 252.593 432.435 252.3 432.134 251.943C431.833 251.586 431.611 251.172 431.468 250.703C431.328 250.234 431.279 249.734 431.322 249.203C431.365 248.672 431.494 248.188 431.707 247.751C431.925 247.311 432.211 246.939 432.565 246.635C432.919 246.331 433.333 246.103 433.806 245.953C434.279 245.8 434.795 245.746 435.353 245.791C435.911 245.837 436.411 245.973 436.853 246.201C437.296 246.425 437.666 246.717 437.963 247.078C438.263 247.435 438.484 247.848 438.624 248.317C438.768 248.783 438.818 249.28 438.776 249.808ZM437.237 249.683C437.268 249.302 437.245 248.957 437.169 248.648C437.094 248.336 436.969 248.067 436.796 247.841C436.626 247.612 436.41 247.431 436.149 247.299C435.891 247.164 435.591 247.082 435.25 247.055C434.909 247.027 434.599 247.059 434.319 247.151C434.04 247.239 433.796 247.382 433.588 247.581C433.384 247.776 433.219 248.022 433.094 248.318C432.97 248.61 432.892 248.947 432.861 249.328C432.83 249.712 432.852 250.06 432.927 250.373C433.003 250.682 433.126 250.949 433.296 251.175C433.47 251.401 433.687 251.581 433.949 251.717C434.21 251.849 434.512 251.929 434.852 251.957C435.193 251.984 435.502 251.954 435.778 251.865C436.058 251.774 436.3 251.63 436.504 251.435C436.712 251.24 436.878 250.996 437.003 250.703C437.128 250.407 437.206 250.067 437.237 249.683Z" fill="#383192"/>
<path d="M431.258 246.761L429.133 246.589L428.641 252.649L427.132 252.526L427.624 246.466L425.499 246.294L425.597 245.081L431.356 245.548L431.258 246.761Z" fill="#383192"/>
<path d="M454.528 91.8131C454.528 91.8131 453.095 86.7886 446.289 84.276C439.483 81.7635 433.394 83.9169 431.245 85.7119C429.095 87.5062 427.662 90.0188 425.871 90.0188C424.081 90.0188 419.424 87.5062 415.125 89.3012C410.827 91.0955 411.185 93.6081 409.393 94.6848C407.603 95.7615 404.737 93.9672 401.513 94.6848C398.289 95.4024 395.065 98.2741 394.706 99.3508C394.348 100.428 393.632 100.068 390.766 100.068C387.901 100.068 385.035 104.016 385.035 104.016H476.021C476.021 104.016 472.081 95.4024 466.708 93.9665C461.334 92.5307 458.468 95.4024 457.394 95.0432C456.319 94.6841 454.528 91.8131 454.528 91.8131Z" fill="#F3F4F6" stroke="#17213A" stroke-miterlimit="10" stroke-linecap="round" stroke-linejoin="round"/>
<path d="M282.838 33.0622C282.838 33.0622 281.954 29.9616 277.754 28.4116C273.554 26.8616 269.796 28.1901 268.47 29.2977C267.144 30.4053 266.259 31.9553 265.154 31.9553C264.048 31.9553 261.175 30.4053 258.522 31.5122C255.869 32.6199 256.09 34.1698 254.985 34.8344C253.879 35.499 252.111 34.3914 250.122 34.8344C248.133 35.2775 246.143 37.049 245.922 37.7135C245.701 38.3781 245.258 38.1566 243.49 38.1566C241.722 38.1566 239.953 40.5926 239.953 40.5926H296.101C296.101 40.5926 293.67 35.2775 290.354 34.3914C287.038 33.5053 285.27 35.2775 284.606 35.0559C283.944 34.8337 282.838 33.0622 282.838 33.0622Z" fill="#F3F4F6" stroke="#17213A" stroke-miterlimit="10" stroke-linecap="round" stroke-linejoin="round"/>
<path d="M66.8504 42.807C66.8504 42.807 65.966 39.7064 61.7663 38.1557C57.566 36.6058 53.8086 37.9342 52.4819 39.0418C51.1553 40.1494 50.2715 41.6994 49.166 41.6994C48.0605 41.6994 45.1868 40.1494 42.5342 41.2564C39.8816 42.364 40.1027 43.914 38.9972 44.5785C37.8916 45.2431 36.1235 44.1355 34.1342 44.5785C32.1449 45.0216 30.1549 46.7931 29.9338 47.4577C29.7127 48.1222 29.2705 47.9007 27.5024 47.9007C25.7342 47.9007 23.9653 50.3368 23.9653 50.3368H80.1134C80.1134 50.3368 77.6819 45.0216 74.366 44.1355C71.0501 43.2494 69.2819 45.0216 68.6186 44.8001C67.9559 44.5785 66.8504 42.807 66.8504 42.807Z" fill="#F3F4F6" stroke="#17213A" stroke-miterlimit="10" stroke-linecap="round" stroke-linejoin="round"/>
</g>
</svg>
