<svg width="238" height="238" viewBox="0 0 238 238" fill="none" xmlns="http://www.w3.org/2000/svg">
<path d="M38.3796 113.886L23.9453 155.46L85.6237 176.874L100.058 135.301L38.3796 113.886Z" fill="#383192" fill-opacity="0.15"/>
<path d="M100.055 135.306C100.062 135.325 99.7985 135.446 99.2889 135.66C98.7241 135.889 97.9795 136.192 97.0493 136.568C95.0345 137.357 92.2205 138.458 88.766 139.81C81.6943 142.516 72.0141 146.219 61.2925 150.322L61.0662 150.409L60.9364 150.203C60.8374 150.046 60.7301 149.877 60.6227 149.706C54.4536 139.864 48.8708 130.958 44.7886 124.446C42.8122 121.239 41.2011 118.626 40.0478 116.754C39.5227 115.879 39.1025 115.178 38.7845 114.647C38.5013 114.162 38.3607 113.902 38.3779 113.891C38.3951 113.88 38.5693 114.119 38.8854 114.584C39.2275 115.099 39.6789 115.78 40.2429 116.631C41.435 118.478 43.1002 121.058 45.1431 124.222C49.263 130.71 54.8974 139.584 61.1238 149.39C61.2312 149.561 61.3381 149.73 61.4371 149.887L61.0818 149.768C71.8279 145.73 81.5297 142.084 88.6174 139.421C92.0995 138.142 94.9363 137.101 96.9672 136.355C97.9138 136.02 98.6713 135.753 99.2461 135.55C99.77 135.372 100.048 135.287 100.055 135.306Z" fill="#383192" fill-opacity="0.4"/>
<path d="M23.9437 155.463C23.8599 155.322 30.477 151.234 38.7207 146.333C46.9676 141.43 53.7184 137.571 53.8021 137.712C53.8859 137.852 47.2704 141.94 39.0239 146.842C30.7798 151.743 24.0274 155.603 23.9437 155.463Z" fill="#383192" fill-opacity="0.4"/>
<path d="M74.484 144.31C74.639 144.257 77.2575 151.506 80.3323 160.498C83.4083 169.493 85.7752 176.825 85.6202 176.879C85.4652 176.932 82.8471 169.685 79.7715 160.69C76.6967 151.698 74.3293 144.363 74.484 144.31Z" fill="#383192" fill-opacity="0.4"/>
<path d="M220.374 103.08L159.348 113.423L166.32 154.557L227.346 144.214L220.374 103.08Z" fill="#383192" fill-opacity="0.4"/>
<path d="M220.382 103.095C220.397 103.107 220.233 103.329 219.907 103.739C219.542 104.187 219.061 104.777 218.46 105.515C217.145 107.09 215.309 109.288 213.055 111.988C208.412 117.463 202.057 124.958 195.018 133.259L194.869 133.434L194.668 133.322C194.514 133.237 194.347 133.144 194.181 133.052C184.563 127.687 175.86 122.832 169.497 119.282C166.392 117.519 163.86 116.082 162.048 115.053C161.212 114.565 160.543 114.174 160.037 113.879C159.58 113.605 159.344 113.452 159.354 113.436C159.363 113.419 159.617 113.538 160.091 113.78C160.611 114.052 161.297 114.412 162.154 114.862C163.987 115.853 166.548 117.237 169.689 118.935C176.073 122.448 184.805 127.252 194.453 132.561C194.62 132.653 194.786 132.745 194.94 132.831L194.59 132.894C201.679 124.635 208.079 117.179 212.754 111.732C215.065 109.081 216.947 106.921 218.295 105.375C218.929 104.665 219.437 104.097 219.822 103.666C220.175 103.279 220.368 103.082 220.382 103.095Z" fill="#383192" fill-opacity="0.15"/>
<path d="M166.324 154.571C166.19 154.493 169.824 148.076 174.439 140.242C179.056 132.405 182.906 126.118 183.039 126.196C183.173 126.275 179.54 132.69 174.923 140.527C170.308 148.361 166.457 154.65 166.324 154.571Z" fill="#383192" fill-opacity="0.15"/>
<path d="M203.238 122.245C203.343 122.13 208.826 126.959 215.484 133.03C222.144 139.102 227.456 144.116 227.352 144.231C227.247 144.345 221.765 139.517 215.105 133.445C208.448 127.374 203.134 122.359 203.238 122.245Z" fill="#383192" fill-opacity="0.15"/>
<path d="M159.359 37.6867L148.367 65.6418L189.842 81.9492L200.834 53.994L159.359 37.6867Z" fill="#383192" fill-opacity="0.15"/>
<path d="M200.845 54.3761C200.85 54.3893 200.666 54.4646 200.313 54.5964C199.922 54.737 199.405 54.9224 198.76 55.154C197.364 55.6363 195.414 56.3096 193.021 57.1364C188.123 58.7867 181.418 61.0459 173.992 63.5479L173.836 63.6008L173.753 63.457C173.689 63.3472 173.621 63.2287 173.553 63.1097C169.617 56.2263 166.055 49.9974 163.45 45.4429C162.191 43.2014 161.164 41.3744 160.429 40.0661C160.095 39.4544 159.828 38.9649 159.626 38.594C159.446 38.2551 159.357 38.0741 159.369 38.0669C159.382 38.06 159.494 38.2275 159.696 38.5531C159.915 38.9145 160.204 39.3911 160.566 39.9872C161.328 41.2798 162.393 43.0848 163.699 45.2999C166.33 49.8388 169.928 56.0472 173.904 62.9074C173.973 63.0264 174.041 63.1453 174.104 63.2547L173.865 63.1638C181.306 60.7063 188.024 58.4875 192.932 56.8664C195.342 56.0905 197.305 55.4584 198.711 55.0058C199.366 54.8039 199.89 54.642 200.288 54.5195C200.649 54.4129 200.841 54.3632 200.845 54.3761Z" fill="#383192" fill-opacity="0.4"/>
<path d="M148.376 66.0237C148.323 65.9255 152.949 63.3194 158.707 60.2042C164.467 57.0878 169.178 54.6419 169.231 54.7404C169.285 54.8386 164.66 57.4439 158.9 60.5603C153.141 63.6755 148.429 66.1218 148.376 66.0237Z" fill="#383192" fill-opacity="0.4"/>
<path d="M183.156 59.8117C183.263 59.78 184.849 64.796 186.698 71.014C188.548 77.2341 189.96 82.3009 189.853 82.3325C189.746 82.3642 188.16 77.3494 186.31 71.129C184.461 64.9113 183.049 59.8437 183.156 59.8117Z" fill="#383192" fill-opacity="0.4"/>
<path d="M233.794 201.979C233.794 202.037 182.395 202.083 119.005 202.083C55.5936 202.083 4.20532 202.036 4.20532 201.979C4.20532 201.921 55.5936 201.875 119.005 201.875C182.395 201.875 233.794 201.921 233.794 201.979Z" fill="#17213A"/>
<path d="M15.533 92.7753L21.268 90.744L18.8065 87.4573C18.7648 87.2418 18.6358 86.4828 18.6302 85.2574C18.6286 84.8785 18.6951 84.5023 18.8205 84.1446C18.9723 83.7108 19.1979 83.1428 19.4178 82.87C19.6902 82.5327 19.4106 82.0396 19.03 82.141C18.6495 82.2423 17.8768 83.154 17.5351 84.5075C17.1934 85.8611 16.2665 83.8694 15.9156 83.15C15.5647 82.4302 14.3746 80.2543 14.0682 80.187C13.6183 80.0881 13.4296 80.5519 13.7966 81.2625C14.1683 81.9819 15.1144 84.1819 14.7255 84.3485C14.3421 84.5132 12.6061 80.8247 12.6061 80.8247C12.6061 80.8247 12.3625 79.9763 11.9067 80.1541C11.0843 80.475 13.2185 84.26 13.4304 84.6153C13.5779 84.8621 13.1617 85.0587 13.0175 84.7851C12.8692 84.5035 11.3715 81.0658 10.5307 81.3847C9.8858 81.6294 12.2572 84.5144 12.1719 85.4C12.0861 86.2857 10.596 83.0294 9.98955 83.2882C9.76362 83.3847 9.6086 83.4881 10.7346 85.2346C11.1155 85.8254 11.7989 86.6951 12.5416 87.5943L15.533 92.7753Z" fill="#FFBE9D"/>
<path d="M67.0892 99.781C67.0892 99.781 64.2636 93.1768 62.3104 89.9691C60.4722 86.95 58.0379 86.4593 56.7405 86.3675C55.7603 86.0807 55.0881 86.0295 55.0881 86.0295L44.4762 85.9393C44.4762 85.9393 41.1807 85.7663 38.1432 88.2614C37.6537 88.6636 33.9857 92.9157 29.122 98.9735L20.6087 89.7748L15.5334 92.7759C15.5334 92.7759 21.0457 111.808 27.9623 110.501C32.0606 109.727 35.2655 106.873 35.2655 106.873L40.6512 102.532L40.7758 103.251C40.8847 104.129 41.1579 105.546 41.3638 106.406C42.0151 109.125 42.3768 112.706 40.9781 115.079C40.9781 115.079 39.0585 116.546 40.5855 118.162H60.5515C60.5515 118.162 63.3799 116.244 60.7978 114.111L59.1795 110.06L60.2254 105.117L60.6172 103.138L62.3729 106.15C62.3729 106.15 65.8518 110.527 69.4682 109.988C73.8164 109.341 76.3364 101.422 72.4116 90.9509L67.6848 92.3889L67.0892 99.781Z" fill="#383192"/>
<g opacity="0.4">
<path d="M15.533 92.7755L16.0345 94.3637L21.6721 90.9236L20.6082 89.7744L15.533 92.7755Z" fill="#17213A"/>
</g>
<g opacity="0.2">
<path d="M40.9784 115.079C42.69 114.846 44.1545 113.877 45.1828 112.49C46.211 111.102 46.6517 109.292 46.3761 107.587C46.2787 106.986 46.0592 106.348 45.5433 106.024C44.9136 105.63 44.0544 105.833 43.3986 105.484C42.8639 105.199 42.5779 104.613 42.2077 104.134C41.8376 103.655 41.3185 102.907 40.7637 103.15C40.7637 103.15 41.4338 106.675 41.7266 108.244C42.0211 109.824 42.114 112.067 41.5636 113.716C41.4122 114.204 41.2139 114.656 40.9784 115.079Z" fill="#17213A"/>
</g>
<path d="M28.3204 102.223C28.2575 102.214 28.3585 101.459 28.6164 100.569C28.8736 99.6816 29.0655 98.9642 29.1215 98.973C29.1844 98.9826 29.0835 99.7373 28.8255 100.627C28.5684 101.515 28.3765 102.232 28.3204 102.223Z" fill="#17213A"/>
<path d="M29.583 101.344C29.5241 101.356 29.3695 100.834 29.2373 100.178C29.1051 99.5222 29.0458 98.9811 29.1043 98.9694C29.1632 98.9574 29.3178 99.4798 29.45 100.135C29.5822 100.791 29.6415 101.332 29.583 101.344Z" fill="#17213A"/>
<path d="M67.6613 78.0271L60.4126 89.7742L66.1175 91.3609L72.4457 81.6014L67.6613 78.0271Z" fill="#49536C"/>
<path d="M67.2087 88.035L67.4567 89.7518L68.4677 91.0533L68.5694 92.12L72.2062 91.0136L70.7365 85.8247C70.7365 85.8247 70.9725 84.3141 70.8783 83.7004L69.8797 85.0279L69.6041 82.8648L67.5536 81.2165C67.3313 81.0507 67.016 81.0991 66.8538 81.3238C66.71 81.5229 66.7332 81.7969 66.9079 81.9692L68.5534 83.42L68.66 85.2114L67.4703 84.1038C67.3529 83.9944 67.2075 83.9199 67.0505 83.8887L65.3965 83.5578C65.1466 83.5078 64.9082 83.684 64.883 83.9376C64.8626 84.1419 64.9891 84.3321 65.1854 84.3926L66.6892 84.8553L68.2117 86.3915L66.7248 85.825L64.7019 86.1083C64.5085 86.1355 64.3643 86.3009 64.3643 86.4964C64.3643 86.7215 64.5533 86.9002 64.778 86.8878L66.0639 86.8165L66.8194 87.0524L65.0793 87.5131C64.919 87.5555 64.8101 87.7045 64.8185 87.87C64.8285 88.0682 65.0004 88.2189 65.1982 88.2024L67.2087 88.035Z" fill="#FFBE9D"/>
<g opacity="0.4">
<path d="M67.6853 92.3888L67.5303 94.3132L73.0449 92.7918L72.412 90.9512L67.6853 92.3888Z" fill="#17213A"/>
</g>
<path d="M60.4127 89.7742C60.4127 89.7742 59.926 89.1125 59.9632 88.9999C60.0009 88.8874 66.8622 77.5945 66.8622 77.5945L67.6614 78.0271L60.4127 89.7742Z" fill="#17213A"/>
<path d="M69.4765 80.9798C69.5991 80.8572 69.8455 80.9197 69.8951 81.0855C69.9444 81.2514 69.7722 81.4388 69.6027 81.4032C69.4333 81.3675 69.3508 81.1272 69.4625 80.995" fill="#17213A"/>
<path d="M64.9361 95.4743C64.9361 95.4743 64.89 95.59 64.727 95.7563C64.5655 95.9217 64.2671 96.1192 63.8353 96.2201C63.4063 96.3295 62.8535 96.3231 62.2434 96.2185C61.6358 96.1336 60.9348 95.9581 60.1893 96.1264C59.443 96.2898 58.7292 96.7681 58.0202 97.3341C57.304 97.8849 56.5481 98.5638 55.5291 98.8847C55.0216 99.0289 54.4732 99.0774 53.9256 99.0105C53.3792 98.938 52.8437 98.7697 52.3189 98.5647C51.2682 98.1517 50.2604 97.5716 49.1564 97.1703C48.6048 96.9724 48.0412 96.8382 47.478 96.7973C46.9136 96.7621 46.3532 96.8254 45.812 96.9383C44.7273 97.1623 43.7107 97.5404 42.6956 97.7555C40.6479 98.2154 38.7119 97.7439 37.3396 97.0144C35.9452 96.281 35.0579 95.3248 34.5516 94.6202C34.0493 93.9032 33.8843 93.4442 33.8843 93.4442C33.9099 93.4301 34.1022 93.8768 34.6193 94.5698C35.1405 95.2515 36.0313 96.1753 37.4093 96.8779C38.7676 97.5768 40.6587 98.0191 42.6528 97.5596C43.6486 97.3441 44.6624 96.962 45.7688 96.7296C46.3208 96.6131 46.9012 96.5454 47.4908 96.5818C48.0801 96.6231 48.6653 96.7633 49.2297 96.966C50.3573 97.3766 51.3668 97.9598 52.397 98.3668C52.9113 98.5695 53.4301 98.7333 53.9516 98.805C54.474 98.8703 54.9903 98.8262 55.4714 98.6932C56.4344 98.398 57.1862 97.7411 57.9097 97.1919C58.6259 96.6303 59.3697 96.1388 60.1573 95.9762C60.95 95.8099 61.6622 96.0046 62.2627 96.0983C62.8671 96.2129 63.3963 96.2305 63.8165 96.1372C64.2371 96.0519 64.5303 95.874 64.6969 95.7242C64.8648 95.5736 64.9264 95.467 64.9361 95.4743Z" fill="white"/>
<path d="M67.2054 103.105C67.1453 103.107 67.072 102.311 67.0416 101.328C67.0112 100.345 67.0348 99.5465 67.0949 99.5449C67.155 99.5429 67.2283 100.338 67.2587 101.322C67.2891 102.304 67.2651 103.103 67.2054 103.105Z" fill="#17213A"/>
<path d="M54.7107 176.757C54.8865 177.452 58.9716 200.361 58.9716 200.361L65.2301 199.893L64.086 176.501L54.7107 176.757Z" fill="#FFBE9D"/>
<path d="M65.4197 200.256L65.4001 199.597L58.7302 199.736L58.7703 201.908L59.1825 201.925C61.0171 201.985 68.5145 202.111 69.7315 201.742C71.089 201.331 65.4197 200.256 65.4197 200.256Z" fill="#383192"/>
<g opacity="0.3">
<path d="M61.1769 201.814C61.0704 201.3 60.7511 200.827 60.2993 200.514C59.8474 200.201 59.2967 200.042 58.7371 200.094L58.7755 201.819L61.1769 201.814Z" fill="#17213A"/>
</g>
<g opacity="0.3">
<path d="M68.1921 200.873C68.1921 200.873 70.1817 201.366 69.9418 201.674C69.7022 201.981 62.1206 202.119 58.7703 201.908L58.7779 201.77L67.6229 201.679C67.6229 201.679 67.8055 200.895 68.1921 200.873Z" fill="#17213A"/>
</g>
<path d="M58.6733 201.768C58.6733 201.77 58.7126 201.773 58.7879 201.777C58.8864 201.78 58.9942 201.785 59.1164 201.789C59.4444 201.796 59.8482 201.805 60.3245 201.816C61.3443 201.831 62.7543 201.835 64.3106 201.808C65.8676 201.78 67.276 201.727 68.2946 201.676C68.7701 201.649 69.1727 201.626 69.5003 201.607C69.6217 201.599 69.7295 201.591 69.8276 201.583C69.9025 201.577 69.9418 201.572 69.9414 201.57C69.941 201.567 69.9017 201.566 69.8268 201.568C69.7283 201.571 69.6201 201.574 69.4983 201.578C69.1707 201.59 68.7673 201.605 68.2914 201.623C67.2724 201.661 65.8644 201.705 64.3082 201.733C62.7527 201.76 61.3439 201.764 60.3241 201.763C59.8478 201.762 59.4444 201.761 59.1164 201.76C58.9946 201.76 58.8864 201.761 58.7879 201.762C58.713 201.763 58.6737 201.765 58.6733 201.768Z" fill="#17213A"/>
<path d="M67.6232 201.775C67.6477 201.777 67.6609 201.509 67.8368 201.235C68.0078 200.958 68.2529 200.817 68.2385 200.798C68.2333 200.78 67.9513 200.901 67.7671 201.197C67.5792 201.491 67.6032 201.779 67.6232 201.775Z" fill="#17213A"/>
<path d="M65.6432 200.886C65.662 200.897 65.7534 200.789 65.8471 200.645C65.9408 200.502 66.0013 200.377 65.9825 200.366C65.9637 200.355 65.8723 200.463 65.7786 200.606C65.6845 200.75 65.624 200.875 65.6432 200.886Z" fill="#17213A"/>
<path d="M65.0998 200.632C65.115 200.647 65.2184 200.58 65.3305 200.482C65.4427 200.385 65.5216 200.293 65.5064 200.278C65.4911 200.263 65.3878 200.33 65.2756 200.427C65.1631 200.525 65.0846 200.617 65.0998 200.632Z" fill="#17213A"/>
<path d="M64.7468 200.055C64.7472 200.076 64.9027 200.091 65.0941 200.09C65.286 200.088 65.441 200.07 65.4406 200.05C65.4402 200.029 65.2848 200.014 65.0933 200.015C64.9018 200.016 64.7464 200.034 64.7468 200.055Z" fill="#17213A"/>
<path d="M64.6206 199.646C64.6134 199.665 64.784 199.733 65.0095 199.744C65.2351 199.756 65.4125 199.706 65.4077 199.687C65.4033 199.666 65.2283 199.681 65.0139 199.669C64.8 199.659 64.6274 199.626 64.6206 199.646Z" fill="#17213A"/>
<path d="M65.8564 200.343C65.856 200.352 66.0203 200.367 66.2831 200.333C66.414 200.316 66.5691 200.284 66.7353 200.231C66.8178 200.202 66.9043 200.18 66.9933 200.127C67.0349 200.1 67.081 200.062 67.0962 200.002C67.1126 199.942 67.077 199.876 67.0281 199.844C66.6159 199.655 66.2122 199.876 66.0651 200.075C65.9838 200.177 65.9482 200.275 65.9318 200.342C65.9161 200.41 65.9185 200.449 65.9229 200.449C65.9382 200.454 65.9482 200.293 66.1096 200.107C66.1893 200.016 66.3111 199.927 66.4693 199.881C66.6191 199.836 66.8334 199.821 66.9784 199.903C67.0473 199.949 67.0225 200.023 66.948 200.066C66.8787 200.11 66.7886 200.137 66.7105 200.166C66.5502 200.221 66.4004 200.257 66.2734 200.28C66.0187 200.328 65.856 200.331 65.8564 200.343Z" fill="#17213A"/>
<path d="M65.9672 200.361C65.9732 200.365 66.0341 200.263 66.0101 200.085C65.9977 199.998 65.9608 199.894 65.8871 199.797C65.8098 199.711 65.7101 199.591 65.5274 199.601C65.4289 199.615 65.3828 199.721 65.4 199.787C65.4092 199.856 65.4441 199.915 65.4765 199.963C65.5422 200.061 65.6155 200.14 65.6832 200.199C65.8198 200.318 65.9264 200.363 65.9308 200.355C65.938 200.345 65.8443 200.286 65.7237 200.162C65.6636 200.101 65.5983 200.022 65.5398 199.928C65.4793 199.845 65.4361 199.695 65.5426 199.675C65.6492 199.663 65.7605 199.76 65.8274 199.838C65.8963 199.923 65.9356 200.014 65.954 200.094C65.9905 200.255 65.9528 200.359 65.9672 200.361Z" fill="#17213A"/>
<path d="M58.7715 200.076C58.7731 200.09 58.9614 200.056 59.2622 200.083C59.5602 200.108 59.976 200.214 60.3417 200.474C60.7071 200.734 60.9258 201.079 61.0303 201.34C61.1377 201.603 61.1513 201.781 61.1665 201.779C61.1713 201.778 61.1729 201.734 61.1641 201.654C61.1553 201.575 61.1325 201.46 61.0844 201.323C60.9911 201.05 60.772 200.686 60.391 200.414C60.0097 200.144 59.5738 200.042 59.267 200.03C59.1124 200.023 58.987 200.032 58.9021 200.046C58.8164 200.059 58.7703 200.072 58.7715 200.076Z" fill="#17213A"/>
<path d="M61.999 201.197C61.9966 201.216 62.4308 201.275 62.9704 201.269C63.5104 201.264 63.943 201.198 63.9398 201.179C63.937 201.157 63.504 201.189 62.9692 201.194C62.4349 201.2 62.001 201.175 61.999 201.197Z" fill="#17213A"/>
<path d="M60.6975 201.219C60.6815 201.234 60.7347 201.304 60.7812 201.396C60.8289 201.487 60.8537 201.569 60.8765 201.567C60.8982 201.567 60.9086 201.469 60.8537 201.363C60.8 201.257 60.7115 201.204 60.6975 201.219Z" fill="#17213A"/>
<path d="M60.1943 200.661C60.1787 200.675 60.2231 200.739 60.2932 200.802C60.3633 200.866 60.4326 200.905 60.4482 200.891C60.4639 200.876 60.4194 200.812 60.3493 200.749C60.2792 200.685 60.2099 200.646 60.1943 200.661Z" fill="#17213A"/>
<path d="M59.4869 200.414C59.4921 200.435 59.5803 200.432 59.6784 200.463C59.7773 200.491 59.8478 200.54 59.8651 200.525C59.8827 200.514 59.825 200.427 59.7024 200.391C59.5807 200.355 59.4797 200.395 59.4869 200.414Z" fill="#17213A"/>
<path d="M58.9846 200.301C58.977 200.32 59.0158 200.351 59.0715 200.37C59.1272 200.389 59.1781 200.389 59.1861 200.369C59.1937 200.35 59.1548 200.319 59.0992 200.3C59.0435 200.281 58.9922 200.281 58.9846 200.301Z" fill="#17213A"/>
<path d="M38.788 174.845C38.756 175.561 36.1531 197.872 36.1531 197.872L42.2806 199.228L47.931 176.5L38.788 174.845Z" fill="#FFBE9D"/>
<path d="M42.5569 199.823L42.6947 199.179L36.1834 197.726L35.7056 199.845L36.1021 199.96C37.8694 200.455 45.1218 202.361 46.3912 202.294C47.8072 202.217 42.5569 199.823 42.5569 199.823Z" fill="#383192"/>
<g opacity="0.3">
<path d="M38.0649 200.327C38.0838 199.802 37.8863 199.266 37.5222 198.855C37.158 198.444 36.6609 198.158 36.1045 198.075L35.7312 199.76L38.0649 200.327Z" fill="#17213A"/>
</g>
<g opacity="0.3">
<path d="M45.1025 201.083C45.1025 201.083 46.9175 202.035 46.6115 202.277C46.3054 202.518 38.9089 200.847 35.7056 199.845L35.7456 199.712L44.3579 201.729C44.3579 201.729 44.722 201.012 45.1025 201.083Z" fill="#17213A"/>
</g>
<path d="M35.6445 199.685C35.6437 199.688 35.6814 199.7 35.7535 199.722C35.8484 199.749 35.9522 199.779 36.0695 199.812C36.3868 199.897 36.7766 200.002 37.2364 200.125C38.2234 200.383 39.5918 200.723 41.1099 201.067C42.6285 201.411 44.0092 201.694 45.0111 201.887C45.4793 201.974 45.8759 202.048 46.1988 202.107C46.3189 202.128 46.4255 202.146 46.5224 202.162C46.5965 202.174 46.6358 202.179 46.6362 202.176C46.6366 202.174 46.5985 202.164 46.5252 202.147C46.4287 202.127 46.3233 202.104 46.204 202.079C45.8827 202.013 45.4873 201.931 45.0211 201.835C44.0225 201.629 42.6441 201.338 41.1263 200.994C39.609 200.65 38.2398 200.319 37.2496 200.074C36.7874 199.96 36.3956 199.863 36.0772 199.784C35.9586 199.756 35.8536 199.731 35.7575 199.708C35.6842 199.691 35.6453 199.683 35.6445 199.685Z" fill="#17213A"/>
<path d="M44.3354 201.823C44.3586 201.831 44.4351 201.573 44.6711 201.349C44.903 201.121 45.175 201.042 45.1654 201.02C45.1646 201.001 44.8617 201.052 44.6126 201.296C44.3602 201.537 44.315 201.823 44.3354 201.823Z" fill="#17213A"/>
<path d="M42.6237 200.488C42.6397 200.503 42.7539 200.42 42.8793 200.303C43.0046 200.186 43.0932 200.079 43.0771 200.064C43.0611 200.049 42.947 200.132 42.8216 200.249C42.6962 200.366 42.6077 200.474 42.6237 200.488Z" fill="#17213A"/>
<path d="M42.1561 200.112C42.1673 200.13 42.2835 200.09 42.4157 200.022C42.5478 199.954 42.646 199.883 42.6352 199.865C42.624 199.847 42.5078 199.887 42.3756 199.955C42.2434 200.023 42.1453 200.093 42.1561 200.112Z" fill="#17213A"/>
<path d="M41.9508 199.468C41.946 199.488 42.0934 199.54 42.2801 199.584C42.4667 199.628 42.6214 199.648 42.6262 199.628C42.631 199.608 42.4836 199.556 42.2969 199.511C42.1106 199.467 41.9556 199.448 41.9508 199.468Z" fill="#17213A"/>
<path d="M41.9259 199.041C41.9147 199.057 42.0641 199.164 42.2804 199.228C42.4963 199.294 42.6806 199.287 42.6806 199.268C42.6814 199.246 42.5075 199.219 42.3024 199.156C42.0969 199.096 41.9371 199.022 41.9259 199.041Z" fill="#17213A"/>
<path d="M42.9602 200.012C42.9578 200.02 43.1136 200.074 43.3768 200.104C43.5082 200.118 43.666 200.124 43.8403 200.113C43.9272 200.105 44.0165 200.103 44.1155 200.073C44.1623 200.056 44.216 200.031 44.2453 199.976C44.2753 199.922 44.2565 199.849 44.2164 199.807C43.8611 199.525 43.4165 199.643 43.2262 199.802C43.1233 199.881 43.0648 199.968 43.0331 200.03C43.0019 200.092 42.9947 200.13 42.9991 200.132C43.0127 200.14 43.0612 199.986 43.2619 199.844C43.3608 199.775 43.5002 199.717 43.6652 199.71C43.8211 199.702 44.033 199.738 44.1543 199.853C44.2104 199.913 44.1684 199.98 44.0858 200.004C44.0081 200.03 43.914 200.035 43.8311 200.044C43.6624 200.059 43.5086 200.058 43.3792 200.051C43.1217 200.036 42.9626 200 42.9602 200.012Z" fill="#17213A"/>
<path d="M43.0636 200.056C43.0684 200.061 43.1522 199.976 43.1714 199.797C43.1802 199.71 43.169 199.6 43.1205 199.488C43.066 199.386 42.9979 199.246 42.8177 199.212C42.7187 199.202 42.649 199.294 42.6498 199.362C42.6422 199.432 42.6623 199.497 42.6823 199.551C42.7228 199.662 42.7752 199.756 42.8269 199.83C42.931 199.978 43.024 200.047 43.0304 200.041C43.04 200.033 42.9631 199.953 42.8754 199.804C42.8317 199.73 42.7872 199.638 42.7524 199.532C42.7135 199.437 42.7067 199.281 42.8153 199.287C42.9214 199.301 43.0064 199.422 43.0532 199.514C43.1001 199.612 43.1165 199.711 43.1153 199.792C43.1117 199.958 43.0504 200.05 43.0636 200.056Z" fill="#17213A"/>
<path d="M36.1421 198.066C36.1405 198.08 36.3312 198.091 36.6172 198.189C36.9004 198.285 37.2793 198.487 37.5725 198.826C37.8654 199.166 37.9955 199.553 38.0348 199.831C38.0765 200.112 38.0476 200.288 38.0624 200.29C38.0672 200.29 38.0793 200.248 38.0897 200.168C38.1001 200.089 38.1053 199.972 38.0909 199.827C38.0652 199.541 37.9391 199.134 37.6338 198.78C37.3282 198.427 36.9288 198.225 36.6336 198.14C36.485 198.096 36.3612 198.075 36.2755 198.068C36.1902 198.06 36.1425 198.061 36.1421 198.066Z" fill="#17213A"/>
<path d="M39.0101 199.923C39.0033 199.941 39.4111 200.101 39.9366 200.223C40.4622 200.348 40.898 200.386 40.8996 200.367C40.902 200.345 40.4738 200.274 39.9534 200.151C39.4331 200.029 39.0173 199.902 39.0101 199.923Z" fill="#17213A"/>
<path d="M37.7411 199.634C37.7219 199.645 37.7572 199.726 37.7804 199.826C37.8052 199.925 37.8096 200.011 37.8321 200.015C37.8529 200.02 37.8865 199.927 37.8585 199.812C37.8313 199.696 37.7584 199.623 37.7411 199.634Z" fill="#17213A"/>
<path d="M37.3856 198.972C37.3672 198.983 37.3948 199.055 37.4481 199.133C37.501 199.212 37.559 199.266 37.5779 199.256C37.5963 199.245 37.5686 199.173 37.5154 199.094C37.4621 199.016 37.404 198.961 37.3856 198.972Z" fill="#17213A"/>
<path d="M36.7566 198.564C36.7566 198.586 36.8427 198.604 36.9313 198.657C37.0206 198.708 37.0775 198.773 37.0975 198.763C37.1175 198.755 37.0819 198.657 36.9717 198.594C36.862 198.529 36.7546 198.544 36.7566 198.564Z" fill="#17213A"/>
<path d="M36.2958 198.334C36.2838 198.352 36.3143 198.391 36.3635 198.422C36.4132 198.454 36.4629 198.466 36.4749 198.449C36.4869 198.432 36.4565 198.392 36.4072 198.361C36.3575 198.329 36.3079 198.318 36.2958 198.334Z" fill="#17213A"/>
<path d="M61.7788 75.4966C61.6125 75.0207 61.2096 74.6618 61.0141 74.1972C60.7213 73.5018 60.936 72.7127 61.0161 71.9624C61.0958 71.2121 60.9392 70.302 60.2514 69.992C59.9682 69.8642 59.6341 69.8626 59.3706 69.6988C58.8358 69.3659 58.8638 68.6016 58.8146 67.9735C58.7825 67.5641 58.6756 67.1519 58.5001 66.779C58.5366 66.7674 58.5742 66.7558 58.6127 66.7438C59.4739 66.5214 60.3972 67.0442 60.6604 67.758C60.8002 68.1089 60.7886 68.5075 60.5907 68.7634C60.398 69.0246 60.0483 69.1344 59.8128 69.0138C59.5748 68.8928 59.4623 68.602 59.5288 68.4053C59.5885 68.1942 59.8148 68.1381 59.9662 68.1594C60.126 68.1782 60.2306 68.2623 60.2766 68.332C60.3223 68.4033 60.3267 68.4538 60.3383 68.4518C60.3427 68.4522 60.3568 68.3997 60.3191 68.3088C60.2806 68.2199 60.1669 68.1049 59.9818 68.0676C59.8909 68.0492 59.7823 68.048 59.6706 68.0893C59.558 68.1265 59.4503 68.2287 59.403 68.3609C59.3049 68.6272 59.425 68.9854 59.7347 69.1624C60.0603 69.3379 60.5014 69.1997 60.7469 68.884C61.0077 68.5579 61.0189 68.0813 60.8659 67.6787C60.5875 66.9096 59.6842 66.354 58.7593 66.481C58.9584 66.1585 58.9868 65.7524 58.8819 65.4167C58.7385 64.9496 58.3495 64.6364 57.9577 64.4894C57.5608 64.3355 57.1402 64.3387 56.7837 64.4257C56.4232 64.5106 56.1163 64.668 55.8584 64.835C55.5988 65.0045 55.3985 65.1904 55.2034 65.3149C55.0099 65.4431 54.8233 65.5104 54.663 65.5232C54.3366 65.5525 54.1872 65.4015 54.178 65.4227C54.1635 65.4219 54.3025 65.6154 54.6679 65.6146C54.8441 65.6162 55.0608 65.5529 55.2723 65.4271C55.487 65.3049 55.6965 65.1267 55.9473 64.976C56.4356 64.68 57.1638 64.4072 57.8784 64.6924C58.2229 64.827 58.5482 65.1054 58.6591 65.484C58.7717 65.8457 58.682 66.2979 58.3827 66.5531C58.1708 66.1874 57.8848 65.8729 57.5155 65.6646C56.7152 65.2128 55.5311 65.4327 55.1249 66.2575L48.5524 64.0015C47.7456 63.2884 46.5563 63.0781 45.5333 63.3942C45.488 63.3862 45.4447 63.3778 45.3955 63.3726C45.0882 63.3409 44.6929 63.3686 44.2851 63.5564C43.8653 63.7367 43.5248 64.1373 43.1675 64.533C42.9848 64.7293 42.7841 64.9256 42.537 65.0558C42.4969 65.0766 42.4537 65.0914 42.4116 65.1074C42.1252 65.1431 41.8304 65.1447 41.5336 65.1379C40.9804 65.0113 40.4084 64.6936 39.7266 64.6239C39.3585 64.5799 38.9675 64.5943 38.5874 64.7057C38.2072 64.819 37.8471 65.0345 37.5715 65.3478C37.2927 65.6574 37.1285 66.088 37.1321 66.517C37.1293 66.8291 37.1922 67.1319 37.2759 67.4259C37.1317 67.8221 37.0604 68.2431 37.0824 68.6669C37.1117 69.2233 37.2719 69.8061 37.2779 70.3541C37.1225 70.4783 36.9382 70.57 36.7399 70.6285C36.3931 70.7378 36.0217 70.7903 35.6696 70.9257C34.9602 71.2045 34.4623 71.801 34.2496 72.4291C34.0581 72.9975 34.0725 73.6544 34.4275 74.0842C34.2736 74.8209 34.4102 75.622 34.8909 76.2044C35.2114 76.593 35.6484 76.8826 35.9212 77.3064C36.353 77.9773 36.2913 78.8366 36.4003 79.6273C36.5092 80.4176 36.9675 81.3105 37.7638 81.3626C38.4055 81.4046 38.9815 80.8659 39.6228 80.9183C40.5221 80.992 40.8898 82.0692 41.4098 82.8066C42.0671 83.7383 43.2628 84.2591 44.3924 84.1057C45.2096 83.9943 46.0195 83.5621 46.8191 83.7652C47.8245 84.0203 48.4286 85.1988 49.4552 85.3462C50.2195 85.4556 50.9269 84.9481 51.4941 84.4241C52.0613 83.9002 52.6386 83.3025 53.3984 83.1663C54.313 83.0021 55.1938 83.5553 56.1143 83.6815C57.3028 83.8449 58.5614 83.2132 59.141 82.1629C59.6469 81.246 59.6453 80.1208 60.1184 79.1863C60.4349 78.5602 60.946 78.0567 61.3389 77.4758C61.7315 76.895 62.0103 76.1588 61.7788 75.4966ZM35.4217 72.5404C35.2763 72.5092 35.1961 72.5296 35.1961 72.5296C35.1957 72.5404 35.263 72.5416 35.376 72.5745C35.3351 72.6045 35.2923 72.6325 35.253 72.6646C34.8761 72.971 34.6161 73.3944 34.4771 73.8575C34.2668 73.4902 34.2696 72.9622 34.4371 72.4947C34.6394 71.9203 35.1068 71.3768 35.7485 71.132C36.0702 71.0098 36.4355 70.9602 36.808 70.8468C36.9615 70.8039 37.1181 70.733 37.2655 70.6437C37.2419 70.8592 37.1858 71.0671 37.0764 71.2638C36.7323 71.8791 36.0033 72.1318 35.4217 72.5404ZM39.9081 65.1711C38.8369 65.343 37.9124 66.1008 37.4317 67.0674C37.3929 66.884 37.3676 66.7009 37.3692 66.5202C37.3672 66.1381 37.5038 65.778 37.7478 65.502C38.2373 64.9332 39.0184 64.7561 39.7018 64.8431C40.0815 64.8759 40.432 64.9985 40.7797 65.1195C40.4861 65.1162 40.1941 65.1251 39.9081 65.1711ZM43.2047 64.8927C43.1242 64.9296 43.0409 64.9536 42.958 64.9809C43.0818 64.8739 43.1915 64.7593 43.2921 64.6472C43.6506 64.2334 43.9594 63.8549 44.3432 63.6774C44.6889 63.5056 45.0305 63.4595 45.3133 63.4659C45.1419 63.5336 44.9753 63.6137 44.819 63.7139C44.2566 64.0736 43.812 64.6139 43.2047 64.8927Z" fill="#17213A"/>
<path d="M57.453 78.6544C57.7662 76.6808 57.6673 73.445 57.5007 70.7997C57.3508 68.4187 55.2507 66.6417 52.8785 66.8925L45.9935 67.6207C45.2729 67.6968 44.7305 68.3121 44.7445 69.0368L45.4543 85.9508C44.5014 85.9536 43.8621 85.9548 43.8621 85.9548V89.018C43.8621 92.5222 46.7029 95.363 50.2071 95.363C53.7113 95.363 56.5521 92.5222 56.5521 89.018V86.3674C56.5521 86.3674 54.9026 85.8291 53.9011 85.8835C53.8447 85.8867 53.7589 85.8895 53.6544 85.8923C53.6616 84.3413 53.7818 83.1284 53.7818 83.1284C53.7818 83.1284 56.8229 82.6229 57.453 78.6544Z" fill="#FFBE9D"/>
<path d="M56.4696 73.3687C56.4792 73.6374 56.2593 73.867 55.9789 73.8822C55.6989 73.897 55.4638 73.6919 55.4542 73.4231C55.4445 73.1544 55.6645 72.9244 55.9445 72.9092C56.2249 72.8944 56.46 73.0999 56.4696 73.3687Z" fill="#17213A"/>
<path d="M56.7989 72.483C56.7356 72.5495 56.3503 72.2639 55.8023 72.2655C55.2551 72.2591 54.8533 72.5407 54.7936 72.4738C54.7644 72.4442 54.8289 72.3244 55.0039 72.197C55.1762 72.07 55.4702 71.9467 55.8111 71.9483C56.1524 71.9503 56.4392 72.0756 56.6042 72.2042C56.7729 72.3332 56.8297 72.4534 56.7989 72.483Z" fill="#17213A"/>
<path d="M51.1154 73.3687C51.125 73.6374 50.9051 73.867 50.6247 73.8822C50.3447 73.897 50.1095 73.6919 50.0999 73.4231C50.0903 73.1544 50.3102 72.9244 50.5902 72.9092C50.8706 72.8944 51.1057 73.0999 51.1154 73.3687Z" fill="#17213A"/>
<path d="M51.4152 72.5851C51.3519 72.6516 50.9657 72.3664 50.4185 72.3676C49.8714 72.3612 49.4696 72.6428 49.4099 72.5759C49.3807 72.5462 49.4444 72.4264 49.6202 72.2991C49.7925 72.1721 50.0861 72.0487 50.4274 72.0503C50.7686 72.0523 51.0554 72.1777 51.2205 72.3063C51.3887 72.4357 51.446 72.5554 51.4152 72.5851Z" fill="#17213A"/>
<path d="M53.4027 76.6468C53.4003 76.6155 53.7404 76.5566 54.2924 76.4861C54.4322 76.4717 54.5644 76.4441 54.588 76.3483C54.6209 76.2474 54.5624 76.0964 54.4947 75.9338C54.3633 75.5953 54.2255 75.2408 54.0809 74.8686C53.5065 73.3525 53.0907 72.1055 53.152 72.0831C53.2133 72.0606 53.7284 73.2712 54.3028 74.7873C54.441 75.1611 54.5732 75.5176 54.699 75.8584C54.7519 76.0175 54.8428 76.1977 54.7715 76.4072C54.7338 76.5118 54.6313 76.5875 54.5416 76.6115C54.4518 76.6388 54.3733 76.6404 54.304 76.6444C53.7492 76.6756 53.4047 76.678 53.4027 76.6468Z" fill="#17213A"/>
<path d="M53.7808 83.1281C53.7808 83.1281 51.111 83.3003 48.4661 81.7104C48.4661 81.7104 49.7555 84.4367 53.7275 84.0654L53.7808 83.1281Z" fill="#EB996E"/>
<path d="M53.1712 77.9667C52.9742 77.7064 52.6293 77.5634 52.2864 77.6002C52.0488 77.6259 51.8085 77.7404 51.6643 77.9339C51.5197 78.1274 51.4896 78.4022 51.621 78.5868C51.7688 78.7947 52.0777 78.8428 52.3393 78.7683C52.6008 78.6942 52.8255 78.5219 53.039 78.3505C53.0983 78.3032 53.1584 78.2535 53.1957 78.1886C53.2325 78.1238 53.2405 78.0384 53.1949 77.9848" fill="#EB996E"/>
<path d="M51.7909 77.0257C51.8798 77.0205 51.881 77.6149 52.3902 78.0371C52.8981 78.4605 53.5318 78.3936 53.5366 78.477C53.545 78.5142 53.3956 78.5923 53.128 78.5995C52.8656 78.6083 52.4823 78.5242 52.1711 78.2663C51.8606 78.0075 51.7272 77.6622 51.7068 77.4182C51.684 77.1695 51.7505 77.0225 51.7909 77.0257Z" fill="#17213A"/>
<path d="M51.6615 71.626C51.6074 71.775 51.0606 71.7045 50.4181 71.7819C49.774 71.8463 49.2557 72.0346 49.1703 71.9008C49.1323 71.8367 49.2228 71.6969 49.4323 71.5527C49.6398 71.4089 49.9715 71.2719 50.3572 71.2291C50.743 71.187 51.0963 71.2483 51.3302 71.3432C51.5662 71.4386 51.6847 71.5555 51.6615 71.626Z" fill="#17213A"/>
<path d="M56.5974 71.364C56.5009 71.4886 56.124 71.3592 55.6701 71.3532C55.2167 71.3312 54.8321 71.437 54.744 71.3068C54.7051 71.2435 54.7656 71.1189 54.9335 71.0011C55.0989 70.8838 55.3757 70.788 55.6873 70.7972C55.999 70.8073 56.269 70.9198 56.4272 71.0472C56.5874 71.1754 56.6399 71.3032 56.5974 71.364Z" fill="#17213A"/>
<path d="M58.9781 67.2579C58.7069 66.2012 57.905 65.2206 56.8322 65.0219C56.1324 64.8921 55.413 65.0996 54.7028 65.0536C54.1172 65.0155 53.9041 64.5496 53.3465 64.3662C52.4163 64.0609 51.7025 63.0279 49.6957 63.2438C49.1601 63.3015 48.4707 63.9215 47.9796 64.6289C47.2109 64.2973 46.1971 64.6542 45.6431 64.8965C44.4951 65.3988 43.7769 66.6915 43.5505 68.0049C43.3242 69.3184 43.5089 70.6691 43.6943 71.9898C43.7789 72.5931 43.8634 73.1963 43.9483 73.8C44.0044 74.2002 44.0713 74.6124 44.268 74.9536L43.3542 83.4493C45.1704 84.1259 47.4433 82.8769 47.8458 80.9814C48.2003 79.3114 47.271 77.6098 47.418 75.909C47.5058 74.8968 48.0778 73.953 48.0742 72.9368C48.073 72.6223 48.0233 72.2878 47.9328 71.9482L47.9332 71.9478C49.5479 70.6383 49.9588 69.5836 49.8911 68.3567C50.3887 68.6943 50.9695 68.9054 51.5719 68.913C52.4224 68.9239 53.3052 68.5942 54.1011 68.8942C54.6744 69.1101 55.0801 69.6116 55.516 70.0419C55.9518 70.4721 56.5174 70.8698 57.1238 70.7849C57.4163 70.7436 57.6806 70.5938 57.9578 70.4917C58.235 70.3895 58.5611 70.3403 58.8142 70.4921C59.0786 69.4342 59.2489 68.3146 58.9781 67.2579Z" fill="#17213A"/>
<path d="M35.2499 75.9528C35.2675 75.9243 35.6629 76.3261 36.5666 76.7063C37.0164 76.8889 37.5997 77.0616 38.2906 77.0708C38.9744 77.0808 39.7804 76.9206 40.483 76.4102C41.1763 75.9151 41.798 75.0948 41.9018 74.0861C41.9531 73.591 41.8721 73.0527 41.6034 72.598C41.3446 72.1442 40.8495 71.8029 40.3015 71.7889C40.0307 71.7805 39.7615 71.8694 39.5456 72.0376C39.3297 72.2079 39.1755 72.4578 39.0826 72.7286C38.9031 73.2786 38.9912 73.9211 39.3866 74.3854C39.7627 74.8612 40.346 75.1629 40.958 75.3191C41.5749 75.4721 42.2399 75.4785 42.8816 75.3511C43.5237 75.2222 44.1314 74.9546 44.6321 74.5624C45.1332 74.1699 45.5105 73.6479 45.7168 73.0687C45.9291 72.4923 45.9736 71.8674 45.8598 71.2906C45.8021 71.0025 45.706 70.7241 45.5634 70.475C45.4228 70.223 45.2521 70.0007 45.0246 69.8409C44.8051 69.6775 44.5435 69.5673 44.2888 69.5649C44.0348 69.5585 43.7965 69.6947 43.6775 69.909C43.5569 70.1225 43.5349 70.3917 43.5994 70.6268C43.6631 70.8639 43.8113 71.0746 43.9875 71.2461C44.7306 71.9267 45.7436 72.135 46.5893 72.0448C47.4513 71.9595 48.1731 71.5589 48.6474 71.0666C49.1289 70.5731 49.3876 70.0171 49.5266 69.5545C49.7858 68.6071 49.614 68.0495 49.6512 68.0527C49.6512 68.0527 49.6949 68.1841 49.7145 68.4441C49.7345 68.7029 49.7329 69.0942 49.6079 69.5773C49.4782 70.0544 49.225 70.6316 48.7347 71.1512C48.2516 71.6695 47.5029 72.0993 46.6061 72.1978C45.724 72.2988 44.6693 72.1009 43.863 71.3763C43.6691 71.19 43.4989 70.9573 43.4207 70.6761C43.3442 70.3981 43.3635 70.0844 43.5125 69.8149C43.6591 69.5421 43.9739 69.3618 44.2892 69.3698C44.6036 69.3722 44.8972 69.5004 45.1432 69.6799C45.396 69.8549 45.5926 70.1093 45.742 70.3765C45.8967 70.6444 46.0012 70.9429 46.0637 71.2505C46.1875 71.8666 46.141 72.5287 45.9175 73.1416C45.7008 73.7569 45.2954 74.3181 44.7663 74.7327C44.2367 75.1484 43.5978 75.4296 42.9252 75.5646C42.2519 75.698 41.5585 75.6916 40.9064 75.5294C40.261 75.3635 39.6362 75.0439 39.2212 74.5187C39.0117 74.2644 38.8659 73.9503 38.811 73.6255C38.7585 73.301 38.7894 72.9705 38.8867 72.6645C38.9912 72.3621 39.1663 72.0777 39.4198 71.8786C39.6738 71.6807 39.9963 71.5782 40.3075 71.5898C40.9356 71.6086 41.4868 72.002 41.7684 72.5019C42.0596 73.003 42.1393 73.5778 42.0812 74.1058C41.9611 75.1801 41.2993 76.0285 40.5719 76.5364C39.8332 77.0608 38.99 77.2158 38.2886 77.193C37.578 77.1721 36.9864 76.9827 36.5341 76.7852C36.0795 76.5857 35.7582 76.3686 35.5515 76.2116C35.4458 76.1358 35.3729 76.0678 35.3224 76.0249C35.2719 75.9796 35.2475 75.9556 35.2499 75.9528Z" fill="#49536C"/>
<path d="M59.2096 69.0509C59.2124 69.0549 59.1523 69.1097 59.0185 69.1851C58.8855 69.2608 58.676 69.3557 58.388 69.415C58.1008 69.4691 57.7335 69.4895 57.3233 69.397C56.9143 69.3064 56.4697 69.0929 56.0719 68.7456C55.6733 68.3995 55.3212 67.9253 55.0853 67.3472C54.9747 67.06 54.8978 66.6995 55.0528 66.3614C55.1277 66.1996 55.2511 66.0498 55.4258 65.9621C55.598 65.8711 55.8251 65.8735 56.0006 65.9693C56.3459 66.1583 56.5378 66.5926 56.4136 66.9867C56.297 67.3745 55.9754 67.6513 55.6297 67.8223C54.9223 68.17 54.0626 68.1235 53.3104 67.8556C52.9298 67.7226 52.5733 67.5443 52.2412 67.34C51.9156 67.1273 51.5907 66.9246 51.3307 66.6162C51.072 66.3194 50.9682 65.8227 51.241 65.4778C51.3724 65.3067 51.6147 65.231 51.8142 65.2747C52.0149 65.3168 52.1836 65.4309 52.3037 65.5819C52.4251 65.7301 52.4868 65.9392 52.4599 66.1263C52.4371 66.3142 52.3518 66.4836 52.2384 66.6186C52.0093 66.887 51.6784 67.038 51.3572 67.062C51.0359 67.0905 50.7331 67.0264 50.4595 66.9439C50.1855 66.8577 49.9328 66.7584 49.6944 66.6494C49.2193 66.4327 48.818 66.1411 48.5748 65.7918C48.3245 65.4425 48.266 65.0592 48.2872 64.7668C48.3084 64.4683 48.4254 64.2556 48.5207 64.1355C48.6209 64.0161 48.6958 63.9792 48.6958 63.9792C48.7258 63.9905 48.3982 64.194 48.3713 64.7716C48.3637 65.0476 48.4322 65.4053 48.6726 65.7201C48.9089 66.0402 49.2926 66.3082 49.7573 66.5096C50.2224 66.6963 50.7639 66.9323 51.3392 66.883C51.6212 66.8589 51.9012 66.7232 52.091 66.4968C52.2805 66.2753 52.3454 65.9356 52.1459 65.7061C51.9688 65.469 51.5827 65.3648 51.4008 65.6092C51.3103 65.7209 51.2751 65.884 51.2943 66.0422C51.3099 66.2012 51.3872 66.349 51.4954 66.4832C51.7153 66.746 52.0397 66.9547 52.3538 67.157C52.6747 67.3532 53.0179 67.5243 53.3805 67.6509C54.0991 67.906 54.8934 67.9441 55.5355 67.6312C55.8476 67.4794 56.1224 67.2339 56.2141 66.9274C56.3162 66.6342 56.1576 66.2829 55.9065 66.1459C55.6505 65.9957 55.3376 66.1784 55.2247 66.442C55.0989 66.7015 55.1514 67.0152 55.2523 67.2832C55.4678 67.8311 55.7991 68.2946 56.1724 68.6307C56.5462 68.9691 56.9632 69.181 57.3505 69.2788C57.7395 69.3785 58.0928 69.3717 58.3724 69.3317C58.9364 69.2371 59.1987 69.0264 59.2096 69.0509Z" fill="#49536C"/>
<path d="M47.6424 78.3682C47.6456 78.3722 47.5927 78.4262 47.4729 78.5052C47.354 78.5837 47.1617 78.6846 46.8913 78.7387C46.6233 78.7932 46.274 78.802 45.8991 78.6746C45.537 78.5464 45.1076 78.2957 44.9065 77.8102C44.8079 77.5806 44.8087 77.2309 45.0587 77.0275C45.2918 76.8224 45.6744 76.8388 45.9223 77.0267C46.427 77.3904 46.6361 78.0858 46.5372 78.7359C46.4463 79.3808 46.0621 80.0734 45.3779 80.3766C44.7086 80.6863 43.8822 80.6009 43.2249 80.2172C42.896 80.0241 42.604 79.7702 42.4001 79.4489C42.1954 79.1337 42.1005 78.7243 42.205 78.3566C42.2563 78.1755 42.344 78 42.487 77.8671C42.6268 77.7325 42.8263 77.6535 43.0186 77.662C43.4067 77.6752 43.7184 77.9408 43.8766 78.238C44.0408 78.5388 44.0973 78.8649 44.1117 79.1733C44.1258 79.4837 44.0953 79.7862 44.0248 80.0682C43.8846 80.6322 43.6006 81.1193 43.2353 81.4566C42.872 81.7998 42.4237 81.9645 42.0348 81.9969C41.6422 82.035 41.3029 81.9505 41.053 81.8407C40.8022 81.7269 40.6336 81.592 40.5338 81.4898C40.4341 81.3869 40.392 81.3244 40.3969 81.3208C40.4149 81.2979 40.5935 81.5635 41.0854 81.763C41.329 81.8559 41.6534 81.9236 42.022 81.8764C42.3885 81.8335 42.7971 81.6721 43.1299 81.3448C43.4644 81.0231 43.7248 80.5601 43.8498 80.0261C43.9127 79.7593 43.9375 79.4737 43.9211 79.1833C43.905 78.8937 43.8466 78.5933 43.702 78.3353C43.5642 78.0794 43.3034 77.8767 43.0138 77.8687C42.7242 77.853 42.4858 78.1078 42.4101 78.4114C42.3252 78.7163 42.4009 79.0515 42.5824 79.3331C42.7618 79.6163 43.0318 79.8523 43.3334 80.0289C43.9379 80.3822 44.6926 80.4567 45.2894 80.1827C45.8955 79.92 46.2496 79.2995 46.3393 78.7062C46.4374 78.1126 46.2428 77.4857 45.8198 77.1741C45.6159 77.0186 45.3411 77.0118 45.1652 77.1564C44.9866 77.2954 44.9706 77.553 45.0503 77.7561C45.2121 78.1795 45.6035 78.4319 45.9399 78.56C46.2876 78.6902 46.6185 78.695 46.8765 78.6554C47.4 78.5672 47.6291 78.3409 47.6424 78.3682Z" fill="#49536C"/>
<path d="M31.0964 175.742C31.0964 175.742 33.773 180.947 40.7626 178.419C40.7626 178.419 47.6031 182.137 54.1464 177.973C54.1464 177.973 62.6201 179.109 67.2303 176.878L61.3006 125.748L60.55 117.895H41.8553C41.8553 117.895 36.301 120.423 35.409 132.766C34.5169 145.109 32.5834 162.061 32.5834 162.061L31.0964 175.742Z" fill="#17213A"/>
<path d="M53.7491 178.13C53.7455 178.13 53.7383 178.078 53.7283 177.976C53.7183 177.864 53.7047 177.713 53.6879 177.522C53.6558 177.111 53.6105 176.526 53.5525 175.777C53.4371 174.261 53.2913 172.065 53.1307 169.352C52.8078 163.924 52.4617 156.42 52.2803 148.126C52.102 139.829 52.122 132.316 52.2094 126.88C52.2522 124.161 52.3023 121.962 52.352 120.443C52.3776 119.692 52.3976 119.105 52.4116 118.693C52.4205 118.502 52.4273 118.351 52.4325 118.239C52.4385 118.136 52.4433 118.084 52.4469 118.084C52.4505 118.084 52.4529 118.137 52.4541 118.24C52.4541 118.353 52.4541 118.503 52.4541 118.695C52.4493 119.107 52.4425 119.695 52.4337 120.445C52.4156 121.977 52.3892 124.173 52.3572 126.882C52.3079 132.317 52.3107 139.828 52.489 148.122C52.6704 156.413 52.9933 163.915 53.2781 169.344C53.4279 172.049 53.5489 174.242 53.6338 175.772C53.675 176.522 53.7075 177.109 53.7299 177.52C53.7383 177.712 53.7447 177.862 53.7495 177.975C53.7528 178.077 53.7528 178.13 53.7491 178.13Z" fill="#49536C"/>
<path d="M55.3883 163.504C55.3834 163.495 55.4279 163.45 55.5341 163.422C55.639 163.393 55.8081 163.395 55.9891 163.48C56.1634 163.565 56.3644 163.74 56.4193 164.021C56.481 164.305 56.3028 164.623 56.0308 164.772C55.7632 164.93 55.3987 164.92 55.186 164.722C54.9729 164.531 54.9256 164.269 54.9412 164.076C54.9608 163.877 55.0458 163.73 55.1243 163.656C55.2028 163.579 55.2641 163.563 55.2693 163.572C55.2957 163.596 55.085 163.739 55.0882 164.082C55.091 164.244 55.1511 164.449 55.3089 164.575C55.4616 164.706 55.7163 164.711 55.927 164.591C56.1377 164.471 56.2635 164.25 56.2291 164.051C56.201 163.851 56.056 163.695 55.9186 163.61C55.6262 163.431 55.3951 163.539 55.3883 163.504Z" fill="#49536C"/>
<path d="M54.9732 148.312C54.9684 148.303 55.0129 148.258 55.119 148.23C55.224 148.201 55.393 148.203 55.5741 148.288C55.7483 148.373 55.9494 148.548 56.0043 148.829C56.066 149.113 55.8877 149.431 55.6157 149.58C55.3481 149.738 54.9836 149.728 54.7709 149.53C54.5578 149.339 54.5106 149.077 54.5262 148.884C54.5458 148.685 54.6307 148.539 54.7092 148.464C54.7877 148.387 54.849 148.371 54.8542 148.38C54.8807 148.404 54.67 148.547 54.6732 148.89C54.676 149.052 54.7361 149.256 54.8939 149.383C55.0465 149.514 55.3013 149.519 55.512 149.399C55.7227 149.279 55.8485 149.058 55.814 148.859C55.786 148.659 55.641 148.503 55.5036 148.418C55.2108 148.239 54.98 148.347 54.9732 148.312Z" fill="#49536C"/>
<path d="M54.7293 134.886C54.7245 134.876 54.769 134.832 54.8751 134.803C54.9801 134.774 55.1491 134.776 55.3302 134.861C55.5044 134.946 55.7055 135.121 55.7604 135.402C55.8221 135.686 55.6438 136.004 55.3718 136.153C55.1042 136.311 54.7397 136.301 54.527 136.103C54.3139 135.912 54.2667 135.65 54.2823 135.457C54.3019 135.258 54.3868 135.112 54.4653 135.037C54.5439 134.96 54.6051 134.944 54.6103 134.954C54.6368 134.977 54.4261 135.121 54.4293 135.464C54.4321 135.625 54.4922 135.83 54.65 135.956C54.8026 136.087 55.0574 136.092 55.2681 135.972C55.4788 135.852 55.6046 135.631 55.5701 135.433C55.5421 135.232 55.3971 135.076 55.2597 134.991C54.9669 134.812 54.7361 134.92 54.7293 134.886Z" fill="#49536C"/>
<path d="M54.251 120.519C54.2462 120.51 54.2906 120.465 54.3968 120.437C54.5017 120.408 54.6708 120.41 54.8514 120.495C55.0257 120.58 55.2267 120.755 55.2816 121.036C55.3433 121.32 55.1651 121.638 54.8931 121.787C54.6255 121.945 54.261 121.935 54.0483 121.737C53.8352 121.546 53.7879 121.284 53.8035 121.091C53.8231 120.892 53.9081 120.746 53.9866 120.671C54.0651 120.594 54.1264 120.578 54.1316 120.587C54.158 120.611 53.9473 120.754 53.9505 121.097C53.9533 121.259 54.0134 121.464 54.1712 121.59C54.3239 121.721 54.5786 121.726 54.7893 121.606C55 121.486 55.1258 121.265 55.0914 121.066C55.0633 120.866 54.9183 120.71 54.7809 120.625C54.4885 120.446 54.2578 120.554 54.251 120.519Z" fill="#49536C"/>
<path d="M78.6364 104.971L173.119 104.285L175.753 168.521L77.9194 167.614L78.6364 104.971Z" fill="#383192"/>
<path d="M78.6367 104.971L123.353 68.7888C125.246 67.2566 127.955 67.2654 129.839 68.8092L173.12 104.285" fill="#383192"/>
<g opacity="0.3">
<path d="M78.6367 104.971L123.353 68.7888C125.246 67.2566 127.955 67.2654 129.839 68.8092L173.12 104.285" fill="#17213A"/>
</g>
<path d="M77.9196 167.614C77.8018 167.504 85.3658 159.245 94.812 149.17C104.262 139.092 112.015 131.015 112.133 131.125C112.251 131.236 104.688 139.493 95.239 149.571C85.7924 159.645 78.0373 167.725 77.9196 167.614Z" fill="#17213A"/>
<path d="M175.753 168.521C175.632 168.628 168.266 160.537 159.302 150.45C150.335 140.36 143.166 132.096 143.287 131.989C143.407 131.881 150.772 139.972 159.74 150.062C168.703 160.148 175.873 168.414 175.753 168.521Z" fill="#17213A"/>
<g opacity="0.5">
<path d="M173.119 104.285L125.675 142.186L78.6367 104.971" fill="#17213A"/>
</g>
<path d="M83.3945 108.481L83.2471 78.9716L165.979 77.9934L166.911 109.042L125.67 141.69L83.3945 108.481Z" fill="white"/>
<path d="M83.3946 108.481C83.3946 108.481 83.6621 108.681 84.1705 109.075C84.68 109.472 85.4323 110.058 86.4149 110.824C88.3805 112.361 91.265 114.617 94.9522 117.501C102.319 123.276 112.891 131.564 125.723 141.623L125.617 141.623C137.498 132.212 151.594 121.045 166.847 108.962L166.808 109.046C166.63 103.122 166.443 96.9084 166.252 90.5846C166.125 86.3281 165.998 82.1213 165.875 77.9971L165.98 78.0976C132.64 78.477 103.229 78.8114 83.2479 79.039L83.314 78.9717C83.3465 88.2565 83.3721 95.6286 83.3898 100.683C83.395 103.21 83.399 105.157 83.4014 106.476C83.401 107.133 83.4006 107.632 83.4002 107.971C83.3994 108.307 83.3946 108.481 83.3946 108.481C83.3946 108.481 83.3881 108.313 83.3833 107.979C83.3797 107.642 83.3745 107.145 83.3673 106.491C83.3569 105.175 83.3413 103.23 83.3212 100.707C83.2884 95.6474 83.2403 88.2673 83.1798 78.9725L83.1794 78.906L83.2459 78.9052C103.227 78.66 132.638 78.2991 165.977 77.8901L166.079 77.8889L166.082 77.9911C166.206 82.1149 166.333 86.3217 166.461 90.5786C166.65 96.9024 166.836 103.116 167.014 109.04L167.016 109.092L166.975 109.124C151.713 121.197 137.609 132.354 125.723 141.758L125.67 141.8L125.617 141.758C112.795 131.665 102.231 123.35 94.8697 117.555C91.1985 114.659 88.3264 112.393 86.3692 110.849C85.3962 110.078 84.6511 109.488 84.1468 109.088C83.6465 108.689 83.3946 108.481 83.3946 108.481Z" fill="#17213A"/>
<path d="M152.904 92.851C152.905 92.9087 140.252 93.0321 124.648 93.127C109.038 93.2219 96.3883 93.252 96.3879 93.1943C96.3875 93.1366 109.037 93.0132 124.647 92.9183C140.251 92.8238 152.904 92.7933 152.904 92.851Z" fill="#17213A"/>
<path d="M152.904 101.187C152.905 101.244 140.252 101.368 124.648 101.463C109.038 101.557 96.3883 101.588 96.3879 101.53C96.3875 101.472 109.037 101.349 124.647 101.254C140.251 101.159 152.904 101.129 152.904 101.187Z" fill="#17213A"/>
<path d="M152.904 110.794C152.905 110.851 140.252 110.975 124.648 111.07C109.038 111.164 96.3883 111.195 96.3879 111.137C96.3875 111.079 109.037 110.956 124.647 110.861C140.251 110.766 152.904 110.736 152.904 110.794Z" fill="#17213A"/>
<path d="M152.904 120.401C152.905 120.458 140.834 120.578 125.947 120.669C111.055 120.759 98.986 120.786 98.9856 120.728C98.9852 120.67 111.054 120.55 125.946 120.46C140.832 120.37 152.904 120.343 152.904 120.401Z" fill="#17213A"/>
<path d="M142.322 128.833C142.322 128.841 142.208 128.848 141.991 128.857C141.755 128.863 141.438 128.872 141.041 128.882C140.195 128.896 139.006 128.916 137.546 128.94C134.576 128.982 130.508 129.041 126.014 129.105C121.51 129.181 117.431 129.206 114.479 129.21C113.019 129.206 111.83 129.203 110.983 129.201C110.586 129.196 110.269 129.191 110.033 129.188C109.816 129.183 109.702 129.176 109.702 129.169C109.702 129.162 109.816 129.154 110.033 129.146C110.269 129.139 110.586 129.131 110.983 129.12C111.829 129.106 113.018 129.087 114.478 129.063C117.447 129.02 121.516 128.962 126.011 128.897C130.514 128.822 134.593 128.797 137.544 128.793C139.005 128.797 140.194 128.799 141.04 128.801C141.438 128.807 141.754 128.811 141.991 128.815C142.208 128.82 142.322 128.826 142.322 128.833Z" fill="#17213A"/>
<path d="M131.672 136.939C131.672 136.997 128.974 137.043 125.647 137.043C122.319 137.043 119.622 136.996 119.622 136.939C119.622 136.881 122.319 136.835 125.647 136.835C128.974 136.835 131.672 136.881 131.672 136.939Z" fill="#17213A"/>
<path d="M159.52 130.394C165.039 130.394 169.513 125.92 169.513 120.401C169.513 114.881 165.039 110.407 159.52 110.407C154 110.407 149.526 114.881 149.526 120.401C149.526 125.92 154 130.394 159.52 130.394Z" fill="#17213A"/>
<path d="M156.918 130.394C162.437 130.394 166.911 125.92 166.911 120.401C166.911 114.881 162.437 110.407 156.918 110.407C151.399 110.407 146.925 114.881 146.925 120.401C146.925 125.92 151.399 130.394 156.918 130.394Z" fill="#49536C"/>
<path d="M158.189 115.748V124.057H156.646V117.041H154.889V115.748H158.189Z" fill="#383192" fill-opacity="0.15"/>
<path d="M84.0427 65.4946L93.1817 65.4918L91.9464 64.0718L91.9452 60.6709C91.9444 58.8319 90.4531 57.3414 88.614 57.3418C86.7746 57.3426 85.2845 58.8339 85.2849 60.6729L85.2861 63.9091L84.0427 65.4946Z" fill="#383192"/>
<path d="M87.3345 65.0457C87.3557 65.5789 87.7074 66.0848 88.1997 66.2911C88.692 66.4974 89.2993 66.3928 89.6942 66.0339C90.0892 65.675 90.2514 65.0806 90.0936 64.571" fill="#383192"/>
<path d="M89.1203 55.9583H88.2239V57.8638H89.1203V55.9583Z" fill="#383192"/>
<path d="M101.939 59.2393C101.934 59.2401 101.912 59.1588 101.875 59.0002C101.836 58.8287 101.783 58.5948 101.715 58.2948C101.661 57.9807 101.536 57.6082 101.39 57.168C101.312 56.9501 101.256 56.7045 101.146 56.4618C101.039 56.2174 100.925 55.9579 100.806 55.6831C100.29 54.6051 99.5402 53.3269 98.383 52.1028C97.2337 50.8806 95.6811 49.721 93.7676 48.9267C92.8215 48.4996 91.766 48.2473 90.6668 48.0438C89.5588 47.9116 88.3908 47.8235 87.1991 47.9885C86.5978 48.025 86.0054 48.1812 85.3977 48.303C85.0945 48.3675 84.802 48.4836 84.5 48.5726C84.1984 48.6647 83.8956 48.76 83.6059 48.8994C82.4082 49.3569 81.2762 50.0759 80.2167 50.9279C78.0889 52.6323 76.4265 55.1996 75.6923 58.1658C75.3238 59.6495 75.2481 61.239 75.4299 62.8148C75.5789 64.3975 76.068 65.9665 76.8027 67.4118L77.035 67.8476L77.0658 67.9053L77.0478 67.9645C76.3092 70.388 75.5853 72.7646 74.8835 75.0674L74.6937 74.8956C76.6669 73.8665 78.5804 72.8691 80.4158 71.9118L80.4867 71.8749L80.5512 71.9246C82.3958 73.3434 84.5032 74.2046 86.5762 74.5415C88.6551 74.8792 90.6872 74.6765 92.495 74.1377C94.3068 73.599 95.8906 72.7013 97.1753 71.6334C98.4639 70.565 99.4541 69.3317 100.186 68.1104C100.911 66.877 101.341 65.648 101.647 64.5593C101.9 63.4533 102.021 62.4835 102.043 61.69C102.045 61.2947 102.047 60.943 102.049 60.6365C102.023 60.3365 102.001 60.0817 101.982 59.8706C101.966 59.6735 101.954 59.5181 101.944 59.4008C101.937 59.2942 101.935 59.2401 101.939 59.2393C101.942 59.2389 101.952 59.2918 101.966 59.3968C101.981 59.5137 102.001 59.6683 102.026 59.865C102.051 60.0765 102.081 60.3325 102.115 60.6329C102.119 60.9413 102.124 61.2951 102.13 61.6928C102.121 62.4928 102.012 63.4726 101.769 64.5933C101.472 65.6965 101.049 66.9447 100.325 68.1997C99.5935 69.443 98.5981 70.7004 97.2974 71.7924C96.0008 72.8839 94.3969 73.8045 92.5587 74.3604C90.7249 74.916 88.6599 75.1303 86.5429 74.7935C84.4323 74.4574 82.2825 73.5861 80.399 72.1429L80.5344 72.1557C78.7002 73.1159 76.7886 74.1165 74.8162 75.1484L74.5278 75.2994L74.626 74.9769C75.3266 72.6732 76.0492 70.2963 76.7866 67.8724L76.7991 67.989L76.5615 67.5439C75.8105 66.0666 75.3117 64.4616 75.1595 62.8441C74.9745 61.2338 75.0542 59.6087 75.4319 58.0929C76.185 55.063 77.8874 52.4493 80.0589 50.7184C81.1404 49.8532 82.2953 49.1257 83.5154 48.6635C83.811 48.5233 84.1191 48.4271 84.4259 48.3342C84.7331 48.2449 85.0312 48.1279 85.3396 48.0634C85.9581 47.9421 86.5606 47.7858 87.1714 47.7514C88.3827 47.5896 89.57 47.6837 90.694 47.8243C91.81 48.0362 92.8791 48.299 93.8369 48.738C95.7733 49.5564 97.3379 50.7436 98.4907 51.991C99.6516 53.2404 100.396 54.541 100.901 55.6354C101.018 55.9142 101.128 56.1778 101.232 56.4257C101.34 56.6717 101.392 56.9204 101.467 57.1407C101.606 57.5866 101.723 57.9635 101.768 58.2812C101.825 58.5844 101.87 58.8215 101.902 58.9946C101.931 59.156 101.943 59.2389 101.939 59.2393Z" fill="#17213A"/>
<path d="M212.457 154.364C213.765 158.793 212.772 164.481 211.187 168.818C209.601 173.155 206.593 176.958 202.737 179.499C202.302 179.786 201.745 180.063 201.288 179.816C200.912 179.613 200.782 179.146 200.7 178.727C199.771 173.983 200.42 168.943 202.521 164.588C204.623 160.233 208.165 156.589 212.457 154.364Z" fill="#383192"/>
<g opacity="0.2">
<path d="M212.457 154.364C213.765 158.793 212.772 164.481 211.187 168.818C209.601 173.155 206.593 176.958 202.737 179.499C202.302 179.786 201.745 180.063 201.288 179.816C200.912 179.613 200.782 179.146 200.7 178.727C199.771 173.983 200.42 168.943 202.521 164.588C204.623 160.233 208.165 156.589 212.457 154.364Z" fill="#17213A"/>
</g>
<path d="M192.78 133.355C195.539 133.28 197.357 136.344 197.634 139.089C197.91 141.835 197.298 144.686 198.104 147.325C199.128 150.676 202.261 153.081 203.21 156.454C204.33 160.433 202.147 164.561 202.043 168.693C201.992 170.703 202.436 172.735 202.065 174.711C201.438 178.043 198.258 180.707 194.868 180.741C191.477 180.775 188.245 178.174 187.552 174.855C186.906 171.76 188.271 168.472 187.453 165.418C186.848 163.16 185.096 161.244 184.953 158.911C184.783 156.136 186.931 153.736 187.329 150.984C187.727 148.232 186.338 145.544 186.131 142.77C185.759 137.794 187.819 133.887 192.78 133.355Z" fill="#383192"/>
<path d="M198.823 190.015C198.832 190.017 198.859 189.922 198.904 189.739C198.952 189.529 199.012 189.264 199.086 188.939C199.236 188.243 199.466 187.238 199.767 186.002C200.368 183.528 201.31 180.137 202.611 176.477C203.917 172.819 205.331 169.595 206.43 167.299C206.978 166.15 207.435 165.226 207.76 164.593C207.907 164.294 208.028 164.051 208.124 163.857C208.205 163.688 208.243 163.597 208.236 163.593C208.228 163.588 208.174 163.671 208.078 163.832C207.971 164.02 207.836 164.256 207.67 164.545C207.318 165.165 206.835 166.077 206.265 167.218C205.121 169.498 203.675 172.72 202.365 176.39C201.06 180.06 200.144 183.47 199.588 185.959C199.309 187.204 199.106 188.216 198.987 188.92C198.933 189.248 198.888 189.516 198.853 189.73C198.824 189.916 198.814 190.014 198.823 190.015Z" fill="#17213A"/>
<path d="M192.895 146.925C192.886 146.926 192.899 147.078 192.932 147.366C192.97 147.677 193.022 148.097 193.087 148.625C193.235 149.742 193.442 151.316 193.696 153.25C194.216 157.155 194.927 162.55 195.677 168.513C196.426 174.478 197.071 179.881 197.533 183.793C197.765 185.731 197.953 187.307 198.087 188.425C198.155 188.954 198.208 189.373 198.248 189.683C198.288 189.971 198.313 190.121 198.322 190.12C198.331 190.119 198.323 189.967 198.301 189.678C198.273 189.366 198.235 188.945 198.188 188.414C198.075 187.294 197.914 185.714 197.717 183.773C197.302 179.855 196.685 174.447 195.936 168.48C195.186 162.516 194.445 157.124 193.879 153.225C193.59 151.295 193.355 149.725 193.188 148.611C193.102 148.085 193.034 147.668 192.984 147.359C192.935 147.073 192.904 146.923 192.895 146.925Z" fill="#17213A"/>
<path d="M208.443 184.604H187.51V187.049H208.443V184.604Z" fill="#17213A"/>
<path d="M189.451 187.049L191.909 201.877H204.893L206.595 187.049H189.451Z" fill="#17213A"/>
<path d="M206.661 186.948C206.662 187.006 202.795 187.101 198.026 187.16C193.255 187.219 189.388 187.221 189.387 187.163C189.386 187.106 193.252 187.011 198.023 186.951C202.793 186.892 206.661 186.891 206.661 186.948Z" fill="#49536C"/>
<path d="M205.948 194.37C205.948 194.374 205.909 194.378 205.83 194.384C205.741 194.388 205.626 194.393 205.484 194.4C205.179 194.407 204.726 194.42 204.146 194.348C203.575 194.275 202.845 194.112 202.168 193.606C201.834 193.357 201.513 193.022 201.306 192.587C201.1 192.157 201.008 191.616 201.182 191.097C201.343 190.581 201.866 190.128 202.487 190.154C202.794 190.17 203.091 190.327 203.295 190.562C203.501 190.798 203.632 191.092 203.699 191.402C203.953 192.669 203.064 194.077 201.711 194.519C200.335 194.984 198.677 194.198 197.995 192.816C197.825 192.471 197.711 192.091 197.694 191.695C197.675 191.301 197.756 190.883 197.998 190.542C198.234 190.207 198.609 189.953 199.039 189.916C199.472 189.876 199.901 190.116 200.138 190.461C200.385 190.804 200.507 191.22 200.498 191.632C200.492 192.041 200.379 192.439 200.197 192.794C199.837 193.51 199.209 194.042 198.528 194.376C197.843 194.712 197.113 194.887 196.393 194.979C195.672 195.066 194.937 195.03 194.27 194.794C193.608 194.558 193.028 194.12 192.676 193.543C192.314 192.97 192.253 192.248 192.469 191.653C192.672 191.054 193.183 190.565 193.785 190.479C194.375 190.396 194.97 190.621 195.316 191.05C195.667 191.492 195.649 192.089 195.452 192.522C195.263 192.97 194.921 193.299 194.573 193.526C194.223 193.757 193.863 193.906 193.533 194.031C193.201 194.156 192.894 194.256 192.614 194.336C192.056 194.498 191.612 194.584 191.311 194.635C191.16 194.66 191.045 194.676 190.966 194.684C190.889 194.693 190.849 194.696 190.848 194.692C190.848 194.689 190.886 194.679 190.963 194.663C191.051 194.645 191.163 194.622 191.303 194.593C191.6 194.529 192.039 194.431 192.59 194.258C192.866 194.172 193.17 194.067 193.496 193.938C193.821 193.808 194.173 193.657 194.508 193.429C194.841 193.204 195.158 192.89 195.329 192.47C195.509 192.062 195.513 191.527 195.2 191.142C194.89 190.762 194.34 190.558 193.809 190.638C193.276 190.718 192.816 191.157 192.632 191.71C192.437 192.263 192.494 192.917 192.832 193.447C193.16 193.981 193.708 194.393 194.333 194.613C194.964 194.834 195.668 194.867 196.368 194.781C197.068 194.691 197.781 194.515 198.436 194.192C199.088 193.871 199.676 193.369 200.011 192.7C200.353 192.049 200.42 191.196 199.969 190.584C199.759 190.281 199.408 190.092 199.055 190.123C198.701 190.152 198.371 190.37 198.166 190.661C197.959 190.952 197.882 191.326 197.899 191.685C197.914 192.047 198.019 192.403 198.178 192.725C198.812 194.023 200.379 194.766 201.65 194.335C202.918 193.931 203.76 192.598 203.529 191.436C203.469 191.151 203.349 190.882 203.169 190.672C202.988 190.463 202.737 190.33 202.477 190.314C201.946 190.287 201.468 190.679 201.321 191.145C201.158 191.615 201.234 192.123 201.425 192.53C201.616 192.943 201.918 193.268 202.237 193.513C202.884 194.01 203.593 194.182 204.157 194.268C204.727 194.351 205.178 194.351 205.483 194.358C205.626 194.36 205.74 194.361 205.83 194.362C205.908 194.364 205.948 194.367 205.948 194.37Z" fill="#49536C"/>
</svg>
