<svg width="31" height="30" viewBox="0 0 31 30" fill="none" xmlns="http://www.w3.org/2000/svg">
<path fill-rule="evenodd" clip-rule="evenodd" d="M20.2643 0.558974C21.1634 0.186413 22.1277 -0.00358651 23.1011 5.1265e-05C25.0635 0.00170747 26.945 0.781603 28.3323 2.16842C29.7196 3.55523 30.4992 5.43554 30.4999 7.39629C30.5052 8.3684 30.3159 9.33176 29.9432 10.2297C29.5704 11.1277 29.0217 11.9421 28.3293 12.625L22.8922 18.05C22.2054 18.7375 21.3897 19.2829 20.4917 19.6551C19.5937 20.0272 18.6311 20.2188 17.659 20.2188C16.6868 20.2188 15.7242 20.0272 14.8262 19.6551C13.9282 19.2829 13.1125 18.7375 12.4258 18.05C12.2781 17.9025 12.1243 17.735 11.9716 17.5688C11.8506 17.4494 11.7552 17.3067 11.6912 17.1493C11.6272 16.9919 11.596 16.8231 11.5995 16.6533C11.603 16.4834 11.6412 16.3161 11.7116 16.1615C11.782 16.0068 11.8832 15.8681 12.009 15.7539C12.1348 15.6396 12.2827 15.5522 12.4435 15.497C12.6042 15.4417 12.7746 15.4198 12.9442 15.4325C13.1137 15.4453 13.2789 15.4924 13.4296 15.5711C13.5803 15.6497 13.7134 15.7583 13.8207 15.89C13.9458 16.0263 14.0709 16.1625 14.196 16.2875C14.8025 16.8962 15.5591 17.3339 16.3893 17.5565C17.2195 17.7791 18.0939 17.7786 18.9238 17.555C19.7562 17.336 20.5147 16.8983 21.1207 16.2875L26.5615 10.8538C27.4779 9.93733 27.9927 8.69487 27.9927 7.39941C27.9927 6.10396 27.4779 4.8615 26.5615 3.94504C25.6316 3.04925 24.3906 2.54808 23.0989 2.54668C21.8071 2.54529 20.565 3.04376 19.6332 3.93754L16.8808 6.68754C16.7654 6.80693 16.6274 6.90215 16.4747 6.96767C16.3221 7.03318 16.1579 7.06766 15.9918 7.0691C15.8257 7.07054 15.661 7.03892 15.5072 6.97607C15.3534 6.91321 15.2138 6.8204 15.0963 6.70303C14.9788 6.58567 14.8859 6.4461 14.823 6.29248C14.7601 6.13886 14.7285 5.97426 14.7299 5.80829C14.7314 5.64232 14.7659 5.47829 14.8314 5.32579C14.897 5.17328 14.9923 5.03535 15.1118 4.92004L17.8641 2.17005C18.5493 1.4792 19.3651 0.931535 20.2643 0.558974ZM10.7089 29.441C9.80977 29.8136 8.84542 30.0036 7.87205 29.9999C6.89883 30.0031 5.93471 29.8128 5.03583 29.44C4.13695 29.0672 3.32129 28.5195 2.63635 27.8287C1.26578 26.4331 0.498598 24.5555 0.500002 22.6003C0.501406 20.6451 1.27129 18.7686 2.64386 17.375L8.08098 11.95C8.76774 11.2625 9.58346 10.7171 10.4814 10.3449C11.3794 9.97278 12.342 9.78123 13.3142 9.78123C14.2863 9.78123 15.249 9.97278 16.1469 10.3449C17.0449 10.7171 17.8606 11.2625 18.5474 11.95C18.695 12.0975 18.8489 12.265 19.0015 12.4312C19.1175 12.5517 19.2081 12.6942 19.268 12.8503C19.3278 13.0064 19.3558 13.1729 19.3501 13.3399C19.3444 13.507 19.3053 13.6712 19.235 13.8229C19.1647 13.9746 19.0647 14.1107 18.9408 14.223C18.817 14.3354 18.6718 14.4218 18.5139 14.4772C18.3561 14.5325 18.1887 14.5557 18.0217 14.5452C17.8548 14.5348 17.6916 14.491 17.5418 14.4165C17.3921 14.3419 17.2588 14.2381 17.1499 14.1112C17.0248 13.975 16.8997 13.8387 16.7746 13.7137C16.1682 13.1051 15.4115 12.6673 14.5813 12.4447C13.7511 12.2222 12.8768 12.2227 12.0469 12.4462C11.2167 12.6663 10.4605 13.1039 9.85624 13.7137L4.41161 19.1437C3.50572 20.0659 2.99821 21.3065 2.99821 22.5987C2.99821 23.8909 3.50572 25.1315 4.41161 26.0537C5.34244 26.9478 6.58311 27.4478 7.8743 27.4492C9.16548 27.4506 10.4072 26.9533 11.34 26.0612L14.0923 23.3112C14.2086 23.1952 14.3466 23.1031 14.4984 23.0403C14.6502 22.9776 14.813 22.9453 14.9773 22.9453C15.1416 22.9454 15.3043 22.9778 15.4561 23.0407C15.6079 23.1036 15.7458 23.1957 15.862 23.3118C15.9781 23.428 16.0703 23.5658 16.1331 23.7175C16.1959 23.8693 16.2282 24.0318 16.2282 24.196C16.2281 24.3602 16.1957 24.5228 16.1327 24.6744C16.0698 24.8261 15.9776 24.9639 15.8613 25.08L13.109 27.83C12.4239 28.5208 11.608 29.0685 10.7089 29.441Z" fill="url(#paint0_linear_5368_84141)"/>
<defs>
<linearGradient id="paint0_linear_5368_84141" x1="0.5" y1="0" x2="32.1876" y2="29.5115" gradientUnits="userSpaceOnUse">
<stop stop-color="#3AC5EC"/>
<stop offset="1" stop-color="#C547E9"/>
</linearGradient>
</defs>
</svg>
