<svg width="37" height="36" viewBox="0 0 37 36" fill="none" xmlns="http://www.w3.org/2000/svg">
<g id="cloud-download_13 1" clip-path="url(#clip0_1_20870)">
<g id="Group">
<path id="Vector" d="M29.2296 26.9223C33.2445 26.9223 36.4929 23.6668 36.5 19.652C36.5 15.6371 33.2445 12.3887 29.2296 12.3816H27.6125V13.9988L29.1875 14.3504C29.3351 13.6895 29.4054 13.0285 29.4054 12.3746C29.4054 10.0473 28.4914 7.86055 26.9726 6.17305C25.4468 4.47852 23.3093 3.25508 20.8132 2.80508C20.1101 2.67852 19.414 2.61523 18.7179 2.61523C16.264 2.61523 13.9367 3.38867 12.0734 4.7457C10.2101 6.10273 8.79683 8.07148 8.26948 10.4199L9.84448 10.7715L9.90776 9.16133L9.52808 9.1543C7.13745 9.1543 4.93667 10.0543 3.30542 11.552C1.67417 13.0426 0.598389 15.152 0.49292 17.5074L0.499951 17.873C0.499951 21.3113 2.60229 24.4191 5.81558 25.8184C6.6312 26.177 7.58745 25.8043 7.93901 24.9816C8.29761 24.166 7.92495 23.2098 7.10229 22.8582C5.00698 21.9441 3.72026 19.9824 3.72026 17.873L3.73433 17.648C3.79761 16.1855 4.45151 14.8918 5.49917 13.9355C6.54683 12.9793 7.96714 12.3887 9.54214 12.3887L9.79526 12.3957C10.5757 12.4238 11.2648 11.8965 11.4335 11.1371C11.7781 9.61836 12.6851 8.31758 13.9859 7.36836C15.2867 6.41914 16.9601 5.85664 18.732 5.85664C19.2312 5.85664 19.7375 5.89883 20.2437 5.99023C22.0507 6.3207 23.5414 7.19258 24.575 8.33867C25.6085 9.4918 26.1851 10.9051 26.1851 12.3816C26.1851 12.7965 26.1429 13.2254 26.0445 13.6543C25.939 14.1324 26.0515 14.6316 26.3609 15.0184C26.6703 15.398 27.1343 15.623 27.6195 15.623H29.2367C31.4656 15.6301 33.2726 17.4301 33.2726 19.659C33.2656 21.8879 31.4656 23.6949 29.2367 23.6949C28.3437 23.6949 27.6195 24.4191 27.6195 25.3121C27.6195 26.198 28.3437 26.9223 29.2296 26.9223Z" fill="#17213A"/>
<path id="Vector_2" d="M16.3132 17.2334V31.767C16.3132 32.66 17.0375 33.3842 17.9304 33.3842C18.8234 33.3842 19.5476 32.66 19.5476 31.767V17.2334C19.5476 16.3404 18.8234 15.6162 17.9304 15.6162C17.0375 15.6162 16.3132 16.3404 16.3132 17.2334Z" fill="#17213A"/>
<path id="Vector_3" d="M11.9398 28.0615L16.7843 32.9061C17.0867 33.2084 17.5015 33.3771 17.9234 33.3771C18.3453 33.3771 18.7671 33.2014 19.0624 32.9061L23.907 28.0615C24.5398 27.4287 24.5398 26.4092 23.907 25.7764C23.2742 25.1436 22.2546 25.1436 21.6218 25.7764L17.9164 29.4818L14.2109 25.7764C13.5781 25.1436 12.5585 25.1436 11.9257 25.7764C11.2929 26.4092 11.314 27.4357 11.9398 28.0615Z" fill="#17213A"/>
</g>
</g>
<defs>
<clipPath id="clip0_1_20870">
<rect width="36" height="36" fill="white" transform="translate(0.5)"/>
</clipPath>
</defs>
</svg>
