<svg width="24" height="24" viewBox="0 0 24 24" fill="none" xmlns="http://www.w3.org/2000/svg">
<path d="M16.9187 4.11864C16.7594 2.38983 15.9099 1.16949 14.211 0.457627C13.4676 0.152542 12.6712 0.0508475 11.8748 0C11.0784 0 10.282 0.152542 9.53872 0.457627C7.83973 1.11864 6.99024 2.38983 6.83096 4.11864V4.88136C6.83096 6.66102 7.2557 8.33898 7.99901 9.9661C8.37067 10.7797 8.9016 11.4915 9.53872 12.1017C10.2289 12.7627 11.0253 13.0678 11.8748 13.0169C12.7243 13.0678 13.5207 12.7119 14.211 12.1017C14.8481 11.4915 15.379 10.7797 15.7507 9.9661C16.494 8.33898 16.9187 6.66102 16.9187 4.88136V4.11864ZM23.9802 21.5085C23.9271 20.2373 23.874 18.9661 23.4492 17.7458C23.343 17.3898 23.1838 17.0339 22.9714 16.7288C22.7059 16.4237 22.3874 16.1186 22.0157 16.0678C21.1662 15.8644 20.2636 15.6102 19.4141 15.4068C18.0868 15.1017 16.7594 14.7966 15.4321 14.4407H15.1135C15.1135 14.4915 15.0605 14.5424 15.0605 14.5932C14.8481 15.4068 14.6357 16.2203 14.3702 17.0339C14.0517 18 13.68 18.9661 13.3615 19.9322L13.2022 20.2373C13.1491 19.7797 13.0429 19.2203 12.9898 18.661C12.8305 17.5932 12.7243 16.5763 12.7243 16.5763C12.7774 16.4746 12.8305 16.322 12.8836 16.2203V16.1695C12.9367 16.1186 12.9367 16.0169 12.9898 15.9661C12.9898 15.9661 13.0429 15.9153 13.0429 15.8644C13.096 15.7627 13.1491 15.661 13.1491 15.5593C13.1491 15.4576 13.096 15.3559 13.096 15.3051V15.2542V15.2034C13.096 15.2034 13.096 15.1525 13.0429 15.1017C13.0429 15.0508 12.9898 15.0508 12.9898 15.0508C12.9367 15 12.8836 15 12.8836 15H12.8305H11.2908H11.1846C11.1315 15 11.0784 15 10.9722 15.1017V15.1525C10.9192 15.2034 10.8661 15.3051 10.8661 15.4068V15.5593C10.8661 15.661 10.9192 15.7627 10.9722 15.8644C10.9722 15.8644 10.9722 15.9153 11.0253 15.9153C11.0784 15.9661 11.0784 16.0678 11.1315 16.1186V16.1695C11.1846 16.2712 11.2377 16.4237 11.2908 16.5254C11.2908 16.5254 11.2377 16.7797 11.2377 17.1356C11.1315 17.9492 10.9192 19.322 10.813 20.1864L10.6537 19.8814C10.282 18.9153 9.96347 17.9492 9.64491 16.9831C9.37944 16.1695 9.16707 15.3559 8.9547 14.5424C8.9547 14.4915 8.9016 14.4407 8.9016 14.3898H8.58304C7.41498 14.6949 6.19383 14.9492 5.02578 15.2542L1.99945 16.0169C1.68089 16.1186 1.30923 16.3729 1.09686 16.6271L1.04376 16.678C0.831389 16.9322 0.672109 17.339 0.565922 17.6949C0.194267 18.7627 0.0880801 19.9322 0.0349866 21.0508V21.4576C-0.0181069 22.2712 -0.124294 22.1186 0.725202 22.4237C0.937576 22.5254 1.14995 22.5763 1.36232 22.6271C2.84894 23.0847 4.38865 23.3898 5.87527 23.5932C7.36189 23.7966 8.9016 23.8983 10.3882 23.9492C10.6537 23.9492 12.9898 24 12.9898 24C13.2553 24 13.5738 24 13.8393 23.9492C16.2285 23.8475 18.6177 23.6441 20.9538 23.1356C21.591 22.9831 22.2812 22.8305 22.9183 22.6271C23.1307 22.5763 23.343 22.4746 23.5554 22.4237C24.1394 22.1695 23.9802 22.322 23.9802 21.5085Z" fill="#17213A"/>
</svg>
