<svg width="515" height="344" viewBox="0 0 515 344" fill="none" xmlns="http://www.w3.org/2000/svg">
<g opacity="0.8">
<path opacity="0.7" d="M320.327 62.9814C320.327 62.9814 266.239 43.6865 213.144 74.4061C160.051 105.125 133.261 166.106 110.255 214.954C87.25 263.803 100.492 313.49 141.022 336.146C181.552 358.801 209.112 325.404 265.969 323.777C322.826 322.151 338.117 330.306 385.298 298.082C432.478 265.859 441.006 189.757 403.789 133.448C366.571 77.1388 320.327 62.9814 320.327 62.9814Z" fill="#C3C1DE"/>
<path d="M40.4063 280.634C41.5379 280.938 44.126 280.488 44.128 280.488C44.1548 280.483 43.3143 278.869 43.2498 278.773C42.5006 277.664 40.4029 275.964 38.967 276.383C37.9322 276.685 37.5037 277.833 37.8917 278.793C38.2872 279.775 39.4429 280.374 40.4063 280.634Z" fill="#17213A"/>
<path d="M58.015 308.677H58.9517C58.9482 308.667 58.9448 308.658 58.9414 308.647C58.699 307.968 58.427 307.247 58.14 306.509C58.3028 306.414 59.2236 305.868 60.0201 305.251C60.9004 305.958 62.9851 306.627 63.255 306.712C63.0909 307.393 62.9247 308.054 62.7578 308.676H63.6684C63.8201 308.045 63.9712 307.382 64.1195 306.696C64.4065 306.713 66.7529 306.832 67.7781 306.433C68.7078 306.069 69.7914 305.348 70.0791 304.33C70.3606 303.333 69.8106 302.239 68.749 302.051C67.2761 301.791 65.3747 303.709 64.7505 304.892C64.7135 304.962 64.3983 305.764 64.2081 306.273C64.2747 305.957 64.3427 305.65 64.4072 305.324C64.5397 304.678 64.6524 304.031 64.776 303.335C64.824 302.996 64.8728 302.655 64.9215 302.309C64.9771 301.968 64.9929 301.601 65.0307 301.243C65.1014 300.412 65.1317 299.566 65.144 298.714C65.7078 298.828 67.7163 299.206 68.6948 298.987C69.6685 298.77 70.8488 298.221 71.2869 297.258C71.7161 296.316 71.3377 295.15 70.3167 294.803C68.9001 294.322 66.7309 295.93 65.9344 297.005C65.8842 297.072 65.4001 297.908 65.1426 298.371C65.1461 297.859 65.1516 297.348 65.1385 296.829C65.1001 295.332 65.0142 293.817 64.936 292.307C64.9112 291.844 64.8927 291.383 64.8728 290.92C65.0733 290.964 67.4505 291.464 68.5464 291.219C69.5201 291.001 70.7005 290.453 71.1386 289.49C71.5678 288.547 71.1894 287.382 70.1684 287.036C68.7518 286.554 66.5826 288.162 65.786 289.237C65.7263 289.318 65.03 290.521 64.868 290.836C64.8233 289.818 64.7883 288.804 64.7938 287.803C64.8 286.421 64.8824 285.067 65.0589 283.76C65.1516 283.78 67.6311 284.313 68.7538 284.063C69.7275 283.846 70.9079 283.297 71.346 282.334C71.7752 281.391 71.3968 280.227 70.3757 279.879C68.9584 279.398 66.79 281.006 65.9934 282.08C65.9309 282.165 65.1832 283.46 65.0644 283.704C65.0753 283.626 65.0774 283.544 65.0891 283.467C65.2951 282.075 65.6693 280.751 66.0806 279.53C66.3182 278.819 66.5846 278.154 66.8586 277.512C67.3104 277.659 69.3814 278.307 70.4162 278.193C71.4085 278.084 72.6417 277.669 73.1821 276.76C73.7122 275.87 73.4637 274.67 72.4872 274.214C71.1317 273.579 68.7991 274.939 67.89 275.919C67.8406 275.972 67.3983 276.571 67.0818 277.01C67.2095 276.723 67.3365 276.423 67.4643 276.15C67.9429 275.123 68.4448 274.212 68.8953 273.409C69.1555 272.955 69.3993 272.549 69.6314 272.172C70.1491 272.084 72.2332 271.705 73.0839 271.137C73.9134 270.582 74.8178 269.645 74.8803 268.588C74.9414 267.554 74.1689 266.604 73.0922 266.649C71.5973 266.712 70.1526 268.995 69.7969 270.285C69.766 270.397 69.4851 272.196 69.5119 272.192C69.5119 272.192 69.5373 272.187 69.5435 272.187C69.3121 272.545 69.069 272.933 68.8122 273.361C68.3432 274.156 67.8206 275.058 67.3173 276.079C66.8119 277.098 66.2921 278.219 65.8506 279.449C65.4063 280.682 65.0019 282.001 64.7608 283.415C64.7581 283.431 64.7574 283.448 64.7547 283.464C64.697 283.028 64.4958 281.816 64.4697 281.725C64.103 280.438 62.6391 278.167 61.1435 278.117C60.0668 278.081 59.3025 279.037 59.3719 280.071C59.4433 281.127 60.3545 282.057 61.1895 282.605C62.1309 283.223 64.5425 283.595 64.7348 283.624C64.5171 284.972 64.4038 286.373 64.366 287.797C64.344 288.612 64.3468 289.433 64.3598 290.256C64.298 289.881 64.2404 289.546 64.2266 289.5C63.8593 288.213 62.396 285.943 60.9004 285.892C59.823 285.855 59.0588 286.812 59.1288 287.846C59.1995 288.902 60.1114 289.832 60.9457 290.38C61.7931 290.935 63.8428 291.294 64.3859 291.382C64.3942 291.698 64.399 292.013 64.4093 292.329C64.4553 293.843 64.5075 295.354 64.5137 296.838C64.5164 297.361 64.4992 297.875 64.4841 298.391C64.4292 298.058 64.3798 297.778 64.3674 297.736C64 296.449 62.5367 294.178 61.0419 294.128C59.9645 294.092 59.2002 295.048 59.2703 296.082C59.3417 297.138 60.2529 298.068 61.0879 298.616C61.8961 299.146 63.7851 299.494 64.4306 299.601C64.3997 300.129 64.3688 300.657 64.3152 301.167C64.2706 301.514 64.2513 301.851 64.1875 302.197C64.1312 302.541 64.0756 302.882 64.0199 303.219C63.8895 303.864 63.759 304.532 63.6162 305.158C63.52 305.595 63.4205 306.009 63.3209 306.426C63.3243 305.906 63.3106 304.886 63.2996 304.801C63.1877 303.919 62.6617 302.536 61.8906 301.625C61.8748 301.495 61.848 301.366 61.8082 301.241C61.4944 300.254 60.4328 299.645 59.444 300.075C58.0713 300.672 57.5426 303.324 57.6731 304.655C57.6806 304.733 57.8592 305.577 57.9807 306.107C57.8619 305.807 57.75 305.513 57.6243 305.205C57.3792 304.594 57.1169 303.992 56.8367 303.342C56.6905 303.033 56.5428 302.722 56.3938 302.406C56.2524 302.091 56.0635 301.776 55.898 301.456C55.4991 300.724 55.0589 300.002 54.5996 299.284C55.1331 299.068 57.0166 298.273 57.7115 297.55C58.4044 296.83 59.0862 295.72 58.9221 294.675C58.7608 293.652 57.8042 292.889 56.7619 293.165C55.3151 293.546 54.3908 296.086 54.3187 297.423C54.3146 297.506 54.3702 298.47 54.4107 299C54.1313 298.571 53.8545 298.141 53.5579 297.716C52.7016 296.488 51.7966 295.273 50.8991 294.055C50.6238 293.683 50.3546 293.308 50.0827 292.935C50.2736 292.86 52.532 291.963 53.3114 291.153C54.0035 290.433 54.6861 289.323 54.522 288.278C54.3606 287.255 53.4041 286.492 52.3617 286.768C50.9149 287.149 49.9907 289.689 49.9186 291.026C49.9131 291.126 49.9955 292.514 50.0339 292.867C49.4365 292.043 48.8487 291.217 48.3021 290.378C47.5468 289.222 46.8698 288.047 46.2971 286.86C46.3863 286.825 48.7478 285.899 49.5457 285.07C50.2385 284.351 50.9211 283.241 50.7563 282.196C50.5956 281.172 49.6384 280.41 48.596 280.685C47.1492 281.067 46.2257 283.606 46.1529 284.943C46.1474 285.048 46.2366 286.541 46.2717 286.811C46.238 286.741 46.1948 286.671 46.1618 286.6C45.5671 285.324 45.151 284.014 44.8207 282.767C44.6278 282.044 44.4836 281.341 44.3586 280.655C44.8159 280.527 46.9007 279.923 47.7013 279.257C48.469 278.617 49.269 277.589 49.2195 276.532C49.1715 275.497 48.3035 274.634 47.2378 274.792C45.758 275.012 44.5612 277.435 44.3428 278.756C44.3311 278.828 44.2906 279.571 44.2693 280.113C44.2178 279.802 44.1588 279.482 44.1148 279.184C43.9487 278.062 43.8656 277.025 43.799 276.106C43.7653 275.583 43.7454 275.11 43.7317 274.667C44.1155 274.307 45.6447 272.84 46.0409 271.895C46.4282 270.973 46.6651 269.692 46.1357 268.776C45.6173 267.88 44.4499 267.515 43.5765 268.147C42.3645 269.026 42.4167 271.729 42.8294 273.002C42.8651 273.112 43.6218 274.767 43.6417 274.75C43.6417 274.75 43.6603 274.732 43.6651 274.728C43.6699 275.155 43.6802 275.612 43.7015 276.112C43.7475 277.034 43.8086 278.075 43.9514 279.205C44.0908 280.334 44.2742 281.557 44.5832 282.827C44.8915 284.1 45.2801 285.425 45.8576 286.737C45.8638 286.752 45.8727 286.766 45.8796 286.781C45.5919 286.449 44.7562 285.55 44.6841 285.489C43.6699 284.618 41.1986 283.533 39.9234 284.318C39.0054 284.883 38.8941 286.103 39.5217 286.926C40.1624 287.768 41.4348 288.04 42.4325 288.035C43.558 288.03 45.7745 287.007 45.9503 286.925C46.5113 288.17 47.1877 289.401 47.941 290.61C48.3708 291.301 48.8254 291.985 49.2889 292.664C49.0307 292.385 48.7979 292.138 48.7622 292.107C47.7473 291.236 45.276 290.152 44.0015 290.936C43.0828 291.501 42.9722 292.721 43.5998 293.545C44.2405 294.386 45.5129 294.658 46.5106 294.653C47.5235 294.649 49.4303 293.815 49.9323 293.588C50.1129 293.846 50.2907 294.106 50.4727 294.364C51.3448 295.602 52.2203 296.834 53.0422 298.068C53.332 298.503 53.6011 298.942 53.8731 299.38C53.6437 299.133 53.4487 298.927 53.4151 298.898C52.4002 298.028 49.9295 296.943 48.6544 297.727C47.7356 298.293 47.6251 299.513 48.2527 300.336C48.8934 301.178 50.1658 301.449 51.1635 301.445C52.1296 301.44 53.8971 300.686 54.4945 300.419C54.7589 300.876 55.0246 301.334 55.2601 301.789C55.4139 302.103 55.5842 302.395 55.7209 302.719C55.863 303.037 56.0038 303.352 56.1439 303.664C56.3904 304.274 56.6493 304.903 56.8745 305.504C57.0345 305.921 57.1794 306.323 57.327 306.726C57.0434 306.29 56.4707 305.447 56.4144 305.382C55.5437 304.367 53.2647 302.92 51.8859 303.502C50.8929 303.921 50.599 305.11 51.0948 306.02C51.6009 306.949 52.817 307.411 53.8044 307.557C54.8914 307.719 57.1478 307.082 57.4293 307C57.6367 307.576 57.8324 308.135 58.015 308.677Z" fill="#17213A"/>
<path d="M66.758 277.248C66.7834 277.259 66.9709 275.447 66.9695 275.332C66.9551 273.994 66.1414 271.416 64.7124 270.972C63.6831 270.652 62.6943 271.373 62.489 272.388C62.2795 273.425 62.9133 274.563 63.5739 275.312C64.3505 276.192 66.7566 277.246 66.758 277.248Z" fill="#17213A"/>
<path d="M254.961 161.485H96.7637V234.114H254.961V161.485Z" fill="#C7C3E2"/>
<path opacity="0.6" d="M254.961 161.485H96.7637V234.114H254.961V161.485Z" fill="#DBD9EB"/>
<path opacity="0.6" d="M254.958 161.485V234.192H250.392L248.882 169.014L96.7666 170.503V161.562H246.025V161.485H254.958Z" fill="#C7C3E2"/>
<path d="M96.7661 168.826H254.961" stroke="#A9A5C4" stroke-width="0.25" stroke-miterlimit="10"/>
<path d="M96.7661 176.09H254.961" stroke="#A9A5C4" stroke-width="0.25" stroke-miterlimit="10"/>
<path d="M96.7661 183.352H254.961" stroke="#A9A5C4" stroke-width="0.25" stroke-miterlimit="10"/>
<path d="M96.7661 190.615H254.961" stroke="#A9A5C4" stroke-width="0.25" stroke-miterlimit="10"/>
<path d="M96.7661 197.878H254.961" stroke="#A9A5C4" stroke-width="0.25" stroke-miterlimit="10"/>
<path d="M96.7661 205.14H254.961" stroke="#A9A5C4" stroke-width="0.25" stroke-miterlimit="10"/>
<path d="M96.7661 212.403H254.961" stroke="#A9A5C4" stroke-width="0.25" stroke-miterlimit="10"/>
<path d="M96.7661 219.666H254.961" stroke="#A9A5C4" stroke-width="0.25" stroke-miterlimit="10"/>
<path d="M96.7661 226.929H254.961" stroke="#A9A5C4" stroke-width="0.25" stroke-miterlimit="10"/>
<path d="M260.145 161.485H86.2144V166.655H260.145V161.485Z" fill="#EDEDED"/>
<path d="M260.145 164.913H86.2144V166.656H260.145V164.913Z" fill="#EBEBEB"/>
<path d="M260.145 166.655C259.983 166.494 85.8812 167.124 86.0542 166.656C86.0536 166.655 86.0489 161.486 86.0489 161.486C85.8845 161.012 259.983 161.634 260.15 161.486C260.15 161.486 260.145 166.655 260.145 166.655ZM260.145 166.655L260.14 161.486C260.182 161.339 85.5311 161.959 86.3791 161.487C86.3798 161.486 86.3752 166.655 86.3752 166.655C85.2778 166.198 260.431 166.808 260.145 166.655Z" fill="#A6A6A6"/>
<path d="M252.373 166.655V234.114H257.542V166.655H252.373Z" fill="#EDEDED"/>
<path d="M255.799 166.655V234.114H257.542V166.655H255.799Z" fill="#EBEBEB"/>
<path d="M94.1797 166.655V234.114H99.3488V166.655H94.1797Z" fill="#EDEDED"/>
<path d="M97.6069 166.655V234.114H99.3501V166.655H97.6069Z" fill="#EBEBEB"/>
<path d="M99.3494 234.114L94.1803 234.16L94.1352 234.16L94.1345 234.114C94.0443 224.366 94.0563 210.276 94.0225 200.384C94.0609 190.492 94.0642 176.418 94.1809 166.654C94.238 172.276 94.2817 177.898 94.287 183.519C94.3533 199.211 94.3401 218.512 94.2267 234.114L94.1809 234.068L99.3494 234.114Z" fill="#A6A6A6"/>
<path d="M246.7 173.678H179.639V228.42H246.7V173.678Z" fill="#EDEDED"/>
<path d="M242.748 177.63H183.59V224.468H242.748V177.63Z" fill="#37474F"/>
<path d="M242.746 199.469V209.556L227.837 224.465H217.75L242.746 199.469Z" fill="#455A64"/>
<path d="M230.507 177.632L183.673 224.465H183.59V214.463L220.427 177.632H230.507Z" fill="#455A64"/>
<path d="M187.958 177.632L183.59 182.001V180.798L186.756 177.632H187.958Z" fill="#455A64"/>
<path d="M242.747 213.149V214.344L232.625 224.466H231.43L242.747 213.149Z" fill="#455A64"/>
<path d="M217.24 177.632L183.59 211.289V210.087L216.038 177.632H217.24Z" fill="#455A64"/>
<path d="M242.745 185.544V189.088L207.369 224.465H203.818L242.745 185.544Z" fill="#455A64"/>
<path d="M202.309 177.632L183.59 196.344V192.8L198.758 177.632H202.309Z" fill="#455A64"/>
<path d="M204.414 177.63H200.462V224.468H204.414V177.63Z" fill="#EDEDED"/>
<path d="M225.877 177.63H221.925V224.468H225.877V177.63Z" fill="#EDEDED"/>
<path d="M172.086 173.678H105.025V228.42H172.086V173.678Z" fill="#EDEDED"/>
<path d="M168.135 177.63H108.977V224.468H168.135V177.63Z" fill="#37474F"/>
<path d="M168.132 199.468V209.555L153.222 224.464H143.136L168.132 199.468Z" fill="#455A64"/>
<path d="M155.893 177.632L109.06 224.465H108.976V214.463L145.814 177.632H155.893Z" fill="#455A64"/>
<path d="M113.345 177.632L108.976 182.001V180.798L112.143 177.632H113.345Z" fill="#455A64"/>
<path d="M168.133 213.148V214.343L158.011 224.465H156.816L168.133 213.148Z" fill="#455A64"/>
<path d="M142.626 177.632L108.976 211.289V210.087L141.424 177.632H142.626Z" fill="#455A64"/>
<path d="M168.132 185.544V189.088L132.756 224.464H129.205L168.132 185.544Z" fill="#455A64"/>
<path d="M127.695 177.632L108.976 196.344V192.8L124.145 177.632H127.695Z" fill="#455A64"/>
<path d="M129.8 177.63H125.848V224.468H129.8V177.63Z" fill="#EDEDED"/>
<path d="M151.263 177.63H147.312V224.468H151.263V177.63Z" fill="#EDEDED"/>
<path d="M261.883 161.484H88.9019L93.27 94.7212H257.515L261.883 161.484Z" fill="#C7C3E2"/>
<path d="M261.883 161.484H88.9019L93.27 94.7212H257.515L261.883 161.484Z" fill="#17213A"/>
<path opacity="0.1" d="M243.182 94.7212L237.352 161.484H261.882L257.514 94.7212H243.182Z" fill="black"/>
<g opacity="0.2">
<path d="M174.244 108.074H92.3975" stroke="#EDEDED" stroke-width="0.75" stroke-miterlimit="10"/>
<path d="M185.846 108.074H180.267" stroke="#EDEDED" stroke-width="0.75" stroke-miterlimit="10"/>
<path d="M258.389 108.074H191.115" stroke="#EDEDED" stroke-width="0.75" stroke-miterlimit="10"/>
<path d="M227.919 121.425H91.5234" stroke="#EDEDED" stroke-width="0.75" stroke-miterlimit="10"/>
<path d="M259.263 121.425H233.962" stroke="#EDEDED" stroke-width="0.75" stroke-miterlimit="10"/>
<path d="M99.9399 134.783H90.6499" stroke="#EDEDED" stroke-width="0.75" stroke-miterlimit="10"/>
<path d="M194.149 134.783H107.03" stroke="#EDEDED" stroke-width="0.75" stroke-miterlimit="10"/>
<path d="M260.137 134.783H200.014" stroke="#EDEDED" stroke-width="0.75" stroke-miterlimit="10"/>
<path d="M205.023 148.134H89.7759" stroke="#EDEDED" stroke-width="0.75" stroke-miterlimit="10"/>
<path d="M215.309 148.134H210.137" stroke="#EDEDED" stroke-width="0.75" stroke-miterlimit="10"/>
<path d="M261.01 148.134H220.582" stroke="#EDEDED" stroke-width="0.75" stroke-miterlimit="10"/>
</g>
<path d="M422.005 55.1641L428.929 160.984H244.936L251.86 55.1641H422.005Z" fill="#C7C3E2" stroke="#EDEDED"/>
<path d="M429.463 161.484H244.402L251.392 54.6641H422.473L429.463 161.484Z" fill="#17213A"/>
<g opacity="0.2">
<path d="M300.224 68.0137H250.518" stroke="#EDEDED" stroke-width="0.75" stroke-miterlimit="10"/>
<path d="M423.347 68.0137H308.388" stroke="#EDEDED" stroke-width="0.75" stroke-miterlimit="10"/>
<path d="M365.993 81.3716H249.645" stroke="#EDEDED" stroke-width="0.75" stroke-miterlimit="10"/>
<path d="M383.595 81.3716H375.059" stroke="#EDEDED" stroke-width="0.75" stroke-miterlimit="10"/>
<path d="M424.221 81.3716H388.85" stroke="#EDEDED" stroke-width="0.75" stroke-miterlimit="10"/>
<path d="M425.095 94.7227H248.771" stroke="#EDEDED" stroke-width="0.75" stroke-miterlimit="10"/>
<path d="M261.883 108.074H247.897" stroke="#EDEDED" stroke-width="0.75" stroke-miterlimit="10"/>
<path d="M425.968 108.074H268.561" stroke="#EDEDED" stroke-width="0.75" stroke-miterlimit="10"/>
<path d="M426.842 121.424H247.023" stroke="#EDEDED" stroke-width="0.75" stroke-miterlimit="10"/>
<path d="M406.535 134.782H246.15" stroke="#EDEDED" stroke-width="0.75" stroke-miterlimit="10"/>
<path d="M427.716 134.782H413.955" stroke="#EDEDED" stroke-width="0.75" stroke-miterlimit="10"/>
<path d="M428.589 148.132H245.276" stroke="#EDEDED" stroke-width="0.75" stroke-miterlimit="10"/>
</g>
<path d="M254.961 161.484H418.906L336.933 79.9224L254.961 161.484Z" fill="#C7C3E2"/>
<path opacity="0.6" d="M254.961 161.484H418.906L336.933 79.9224L254.961 161.484Z" fill="#DBD9EB"/>
<path d="M343.823 86.7822H330.039" stroke="#A9A5C4" stroke-width="0.25" stroke-miterlimit="10"/>
<path d="M351.12 94.0449H322.741" stroke="#A9A5C4" stroke-width="0.25" stroke-miterlimit="10"/>
<path d="M358.417 101.307H315.443" stroke="#A9A5C4" stroke-width="0.25" stroke-miterlimit="10"/>
<path d="M365.722 108.571H308.138" stroke="#A9A5C4" stroke-width="0.25" stroke-miterlimit="10"/>
<path d="M373.019 115.833H300.84" stroke="#A9A5C4" stroke-width="0.25" stroke-miterlimit="10"/>
<path d="M380.317 123.095H293.542" stroke="#A9A5C4" stroke-width="0.25" stroke-miterlimit="10"/>
<path d="M387.615 130.357H286.246" stroke="#A9A5C4" stroke-width="0.25" stroke-miterlimit="10"/>
<path d="M394.919 137.62H278.94" stroke="#A9A5C4" stroke-width="0.25" stroke-miterlimit="10"/>
<path d="M402.217 144.883H271.643" stroke="#A9A5C4" stroke-width="0.25" stroke-miterlimit="10"/>
<path d="M409.515 152.146H264.346" stroke="#A9A5C4" stroke-width="0.25" stroke-miterlimit="10"/>
<path d="M416.812 159.409H257.048" stroke="#A9A5C4" stroke-width="0.25" stroke-miterlimit="10"/>
<path opacity="0.6" d="M254.961 161.484H266.505L338.999 90.2282L410.855 161.484H418.905L336.933 79.9224L254.961 161.484Z" fill="#C7C3E2"/>
<path d="M355.137 135.232C356.754 125.177 349.914 115.714 339.858 114.097C329.803 112.479 320.341 119.32 318.723 129.375C317.106 139.43 323.946 148.893 334.002 150.51C344.057 152.127 353.519 145.287 355.137 135.232Z" fill="#EDEDED"/>
<path d="M351.122 134.683C352.426 126.849 347.132 119.442 339.298 118.139C331.464 116.836 324.057 122.13 322.754 129.963C321.451 137.797 326.745 145.204 334.579 146.507C342.412 147.81 349.819 142.516 351.122 134.683Z" fill="#37474F"/>
<path d="M351.273 131.28L335.916 146.637C333.162 146.456 330.618 145.484 328.514 143.953L348.589 123.885C350.12 125.989 351.084 128.527 351.273 131.28Z" fill="#455A64"/>
<path d="M347.128 122.159L326.795 142.5C326.592 142.297 326.389 142.088 326.214 141.878L346.514 121.572C346.723 121.767 346.933 121.963 347.128 122.159Z" fill="#455A64"/>
<path d="M336.42 117.937L322.565 131.784C322.614 130.247 322.908 128.771 323.411 127.394L332.023 118.782C333.4 118.28 334.882 117.986 336.42 117.937Z" fill="#455A64"/>
<path d="M351.316 132.3C351.316 132.594 351.309 132.887 351.28 133.18C351.267 133.551 351.231 133.922 351.176 134.278H322.692C322.636 133.921 322.601 133.551 322.587 133.18C322.559 132.887 322.552 132.593 322.552 132.3C322.552 131.629 322.601 130.964 322.692 130.321H351.176C351.267 130.965 351.316 131.629 351.316 132.3Z" fill="#EDEDED"/>
<path d="M351.281 133.182C351.268 133.552 351.232 133.923 351.177 134.279H322.693C322.637 133.922 322.602 133.552 322.588 133.182H351.281Z" fill="#EBEBEB"/>
<path d="M338.909 118.061V146.539C338.552 146.594 338.189 146.63 337.818 146.643C337.524 146.671 337.231 146.679 336.93 146.679C336.259 146.679 335.602 146.63 334.959 146.539V118.061C335.602 117.97 336.259 117.921 336.93 117.921C337.231 117.921 337.524 117.929 337.818 117.957C338.189 117.97 338.552 118.006 338.909 118.061Z" fill="#EDEDED"/>
<path d="M338.908 133.181V146.539C338.551 146.595 338.188 146.63 337.817 146.644V133.181H338.908Z" fill="#EBEBEB"/>
<path d="M338.908 118.061V130.322H337.817V117.957C338.188 117.97 338.551 118.006 338.908 118.061Z" fill="#EBEBEB"/>
<path d="M419.539 166.051L336.931 83.8673L254.334 166.051L250.391 162.087L336.931 75.979L423.484 162.086L419.539 166.051Z" fill="#EDEDED"/>
<path d="M254.334 166.051L252.362 164.069L336.342 80.5103L421.169 164.412L419.539 166.051L336.931 83.8673L254.334 166.051Z" fill="#EBEBEB"/>
<path d="M415.485 43.48H393.865V72.5303H415.485V43.48Z" fill="#C7C3E2"/>
<path opacity="0.6" d="M415.485 43.48H393.865V72.5303H415.485V43.48Z" fill="#C7C3E2"/>
<path d="M411.345 35.3042H398.887V43.4803H411.345V35.3042Z" fill="#C7C3E2"/>
<path opacity="0.6" d="M411.345 35.3042H398.887V43.4803H411.345V35.3042Z" fill="#C7C3E2"/>
<path d="M398.886 35.3042H393.868V43.4803H398.886V35.3042Z" fill="#C7C3E2"/>
<path opacity="0.3" d="M398.886 35.3042H393.868V43.4803H398.886V35.3042Z" fill="#17213A"/>
<path d="M415.482 50.7451H393.868" stroke="#B7B4D2" stroke-width="0.25" stroke-miterlimit="10"/>
<path d="M415.482 58.0078H393.868" stroke="#B7B4D2" stroke-width="0.25" stroke-miterlimit="10"/>
<path d="M415.482 65.27H393.868" stroke="#B7B4D2" stroke-width="0.25" stroke-miterlimit="10"/>
<path d="M393.864 43.48H388.849V67.8173L393.864 72.5309V43.48Z" fill="#C7C3E2"/>
<path opacity="0.3" d="M393.864 43.48H388.849V67.8173L393.864 72.5309V43.48Z" fill="#17213A"/>
<path d="M393.863 50.7451H388.849" stroke="#B7B4D2" stroke-width="0.25" stroke-miterlimit="10"/>
<path d="M393.863 58.0078H388.849" stroke="#B7B4D2" stroke-width="0.25" stroke-miterlimit="10"/>
<path d="M393.863 65.27H388.849" stroke="#B7B4D2" stroke-width="0.25" stroke-miterlimit="10"/>
<path d="M414.683 243.477H324.805V302.769H414.683V243.477Z" fill="#C7C3E2"/>
<path opacity="0.4" d="M414.683 243.477H324.805V302.769H414.683V243.477Z" fill="black"/>
<path d="M332.917 243.476V302.769H338.086V243.476H332.917Z" fill="#C7C3E2"/>
<path opacity="0.3" d="M332.917 243.476V302.769H338.086V243.476H332.917Z" fill="black"/>
<path opacity="0.3" d="M336.343 243.476V302.769H338.086V243.476H336.343Z" fill="black"/>
<path d="M398.818 243.476V302.768H403.987V243.476H398.818Z" fill="#C7C3E2"/>
<path opacity="0.3" d="M398.818 243.476V302.768H403.987V243.476H398.818Z" fill="black"/>
<path opacity="0.3" d="M402.244 243.476V302.768H403.987V243.476H402.244Z" fill="black"/>
<path d="M414.683 302.769H324.805V306.821H414.683V302.769Z" fill="#C7C3E2"/>
<path opacity="0.3" d="M414.683 302.769H324.805V306.821H414.683V302.769Z" fill="#EDEDED"/>
<path d="M414.683 306.821H324.805V308.846H414.683V306.821Z" fill="#C7C3E2"/>
<path opacity="0.4" d="M414.683 306.821H324.805V308.846H414.683V306.821Z" fill="black"/>
<path d="M401.402 308.846H338.085L345.075 306.821H394.412L401.402 308.846Z" fill="#C7C3E2"/>
<path opacity="0.3" d="M401.402 308.846H338.085L345.075 306.821H394.412L401.402 308.846Z" fill="#EDEDED"/>
<path d="M418.914 161.485H254.961V234.114H418.914V161.485Z" fill="#C7C3E2"/>
<path opacity="0.6" d="M418.914 161.485H254.961V234.114H418.914V161.485Z" fill="#DBD9EB"/>
<path opacity="0.6" d="M254.961 161.485H418.914V168.797L254.961 170.424V161.485Z" fill="#C7C3E2"/>
<path d="M254.961 168.749H418.914" stroke="#A9A5C4" stroke-width="0.25" stroke-miterlimit="10"/>
<path d="M254.961 176.012H418.914" stroke="#A9A5C4" stroke-width="0.25" stroke-miterlimit="10"/>
<path d="M254.961 183.274H418.914" stroke="#A9A5C4" stroke-width="0.25" stroke-miterlimit="10"/>
<path d="M254.961 190.537H418.914" stroke="#A9A5C4" stroke-width="0.25" stroke-miterlimit="10"/>
<path d="M254.961 197.801H418.914" stroke="#A9A5C4" stroke-width="0.25" stroke-miterlimit="10"/>
<path d="M254.961 205.063H418.914" stroke="#A9A5C4" stroke-width="0.25" stroke-miterlimit="10"/>
<path d="M254.961 212.326H418.914" stroke="#A9A5C4" stroke-width="0.25" stroke-miterlimit="10"/>
<path d="M254.961 219.588H418.914" stroke="#A9A5C4" stroke-width="0.25" stroke-miterlimit="10"/>
<path d="M254.961 226.852H418.914" stroke="#A9A5C4" stroke-width="0.25" stroke-miterlimit="10"/>
<path d="M303.309 173.678H264.723V234.114H303.309V173.678Z" fill="#EDEDED"/>
<path d="M299.472 177.629H268.561V234.114H299.472V177.629Z" fill="#C7C3E2"/>
<path d="M282.234 181.271H272.316V226.366H282.234V181.271Z" fill="#37474F"/>
<path d="M295.717 181.271H285.799V226.366H295.717V181.271Z" fill="#37474F"/>
<path d="M272.316 216.923L282.235 207.004V217.084L272.952 226.366H272.316V216.923Z" fill="#455A64"/>
<path d="M295.718 193.52V203.599L285.799 213.518V203.438L295.718 193.52Z" fill="#455A64"/>
<path d="M275.496 181.273L272.316 184.454V183.252L274.294 181.273H275.496Z" fill="#455A64"/>
<path d="M272.316 212.533L282.235 202.614V203.816L272.316 213.735V212.533Z" fill="#455A64"/>
<path d="M295.718 189.131V190.333L285.799 200.252V199.049L295.718 189.131Z" fill="#455A64"/>
<path d="M295.718 223.745V226.366H293.097L295.718 223.745Z" fill="#455A64"/>
<path d="M272.316 195.254L282.235 185.335V188.879L272.316 198.798V195.254Z" fill="#455A64"/>
<path d="M289.839 181.273L285.799 185.314V181.77L286.295 181.273H289.839Z" fill="#455A64"/>
<path d="M395.184 173.678H328.123V228.419H395.184V173.678Z" fill="#EDEDED"/>
<path d="M391.232 177.629H332.074V224.467H391.232V177.629Z" fill="#37474F"/>
<path d="M353.88 177.632L332.078 199.434V189.347L343.8 177.632H353.88Z" fill="#455A64"/>
<path d="M390.977 177.632L344.15 224.465H334.063L380.897 177.632H390.977Z" fill="#455A64"/>
<path d="M363.96 177.632L332.078 209.513V208.318L362.758 177.632H363.96Z" fill="#455A64"/>
<path d="M391.235 216.825V218.027L384.797 224.464H383.595L391.235 216.825Z" fill="#455A64"/>
<path d="M338.998 177.632L332.078 184.551V181.008L335.454 177.632H338.998Z" fill="#455A64"/>
<path d="M391.235 199.531V203.083L369.852 224.465H366.302L391.235 199.531Z" fill="#455A64"/>
<path d="M352.898 177.629H348.946V224.467H352.898V177.629Z" fill="#EDEDED"/>
<path d="M374.361 177.629H370.409V224.467H374.361V177.629Z" fill="#EDEDED"/>
<path d="M429.462 161.485H244.401V166.655H429.462V161.485Z" fill="#EDEDED"/>
<path d="M429.462 164.912H244.401V166.655H429.462V164.912Z" fill="#EBEBEB"/>
<path d="M244.402 161.485C244.482 161.483 429.528 161.323 429.625 161.322L429.626 161.485L429.627 166.654C429.803 167.134 244.567 166.49 244.402 166.655L429.463 166.49L429.299 166.654L429.301 161.485C430.321 161.951 244.177 161.329 244.402 161.485Z" fill="#A6A6A6"/>
<path d="M180.542 308.845V243.477H171.178V308.845H180.542Z" fill="#EDEDED"/>
<path d="M172.922 308.845V243.477H171.179V308.845H172.922Z" fill="#EBEBEB"/>
<path d="M171.179 308.845C171.331 308.671 170.738 243.179 171.179 243.326C171.18 243.325 180.543 243.311 180.543 243.311H180.709V243.477C180.714 243.481 180.58 308.876 180.584 308.886C180.547 308.899 171.218 308.836 171.179 308.845ZM171.179 308.845L180.543 308.805C180.425 309.04 180.418 243.434 180.377 243.477L180.543 243.642L171.18 243.628C171.6 242.68 171.043 309.053 171.179 308.845Z" fill="#A6A6A6"/>
<path d="M107.632 308.845L107.632 243.477H98.2687L98.2687 308.845H107.632Z" fill="#EDEDED"/>
<path d="M100.012 308.845L100.012 243.477H98.269L98.269 308.845H100.012Z" fill="#EBEBEB"/>
<path d="M98.2686 308.845C98.4205 308.671 97.827 243.179 98.2686 243.326C98.2693 243.325 107.632 243.311 107.632 243.311H107.798L107.797 243.477C107.803 243.481 107.669 308.876 107.673 308.886C107.636 308.899 98.3084 308.836 98.2686 308.845ZM98.2686 308.845L107.632 308.805C107.514 309.04 107.507 243.434 107.466 243.477L107.632 243.642L98.2686 243.628C98.6897 242.68 98.1327 309.053 98.2686 308.845Z" fill="#A6A6A6"/>
<path d="M424.043 308.845V243.477H414.68V308.845H424.043Z" fill="#EDEDED"/>
<path d="M416.424 308.845V243.477H414.681V308.845H416.424Z" fill="#EBEBEB"/>
<path d="M424.044 243.477C424.18 259.183 424.23 276.797 424.175 292.503C424.172 292.564 424.128 308.873 424.125 308.927L424.044 308.926L414.681 308.845L424.044 308.763L423.963 308.844L423.913 292.502C423.858 276.795 423.908 259.185 424.044 243.477Z" fill="#A6A6A6"/>
<path d="M324.804 308.846V243.478H315.441V308.846H324.804Z" fill="#EDEDED"/>
<path d="M317.184 308.845V243.477H315.44V308.845H317.184Z" fill="#EBEBEB"/>
<path d="M315.441 243.477C315.577 259.183 315.627 276.797 315.573 292.503L315.523 308.845L315.441 308.764L324.804 308.846L315.441 308.928L315.361 308.928C315.359 308.916 315.312 292.541 315.31 292.504C315.255 276.795 315.305 259.185 315.441 243.477Z" fill="#A6A6A6"/>
<path d="M253.452 308.845V243.477H244.089V308.845H253.452Z" fill="#EDEDED"/>
<path d="M245.832 308.845V243.477H244.089V308.845H245.832Z" fill="#EBEBEB"/>
<path d="M244.089 308.845C244.241 308.671 243.647 243.179 244.089 243.326C244.09 243.325 253.453 243.311 253.453 243.311H253.618V243.477C253.624 243.481 253.49 308.876 253.494 308.886C253.457 308.899 244.129 308.836 244.089 308.845ZM244.089 308.845L253.452 308.805C253.334 309.04 253.327 243.434 253.287 243.477L253.452 243.642L244.089 243.628C244.51 242.68 243.953 309.053 244.089 308.845Z" fill="#A6A6A6"/>
<path d="M98.2671 243.476H107.629V249.596L98.2671 249.668V243.476Z" fill="#EBEBEB"/>
<path d="M171.176 243.476H180.545V249.025L171.176 249.098V243.476Z" fill="#EBEBEB"/>
<path d="M244.085 243.476H253.454V248.455L244.085 248.528V243.476Z" fill="#EBEBEB"/>
<path d="M315.443 243.476H324.806V247.898L315.443 247.971V243.476Z" fill="#EBEBEB"/>
<path d="M424.044 243.476V247.116L414.682 247.189V243.476H424.044Z" fill="#EBEBEB"/>
<path d="M252.376 225.135H99.3481V231.702H252.376V225.135Z" fill="#EDEDED"/>
<path d="M252.376 229.96H99.3481V231.703H252.376V229.96Z" fill="#EBEBEB"/>
<path d="M252.376 216.382H99.3481V222.949H252.376V216.382Z" fill="#EDEDED"/>
<path d="M252.376 221.206H99.3481V222.949H252.376V221.206Z" fill="#EBEBEB"/>
<path d="M252.376 207.629H99.3481V214.196H252.376V207.629Z" fill="#EDEDED"/>
<path d="M252.376 212.454H99.3481V214.197H252.376V212.454Z" fill="#EBEBEB"/>
<path d="M315.396 258.512H253.452V265.08H315.396V258.512Z" fill="#EDEDED"/>
<path d="M315.396 263.337H253.452V265.08H315.396V263.337Z" fill="#EBEBEB"/>
<path d="M315.396 265.079L253.452 265.234L253.298 265.234V265.079L253.287 258.512V258.346C253.377 258.342 284.303 258.399 284.425 258.396C284.447 258.431 315.467 258.419 315.428 258.512C315.427 258.512 315.396 265.079 315.396 265.079ZM315.396 265.079L315.365 258.512C315.543 258.602 284.393 258.596 284.424 258.627C284.581 258.494 252.661 258.959 253.617 258.512C253.617 258.511 253.607 265.079 253.607 265.079C252.641 264.648 315.606 265.22 315.396 265.079Z" fill="#A6A6A6"/>
<path d="M315.398 249.758H253.454V256.325H315.398V249.758Z" fill="#EDEDED"/>
<path d="M315.398 254.583H253.454V256.326H315.398V254.583Z" fill="#EBEBEB"/>
<path d="M315.396 241.004H253.452V247.571H315.396V241.004Z" fill="#EDEDED"/>
<path d="M315.396 245.829H253.452V247.572H315.396V245.829Z" fill="#EBEBEB"/>
<path d="M315.396 247.571L253.452 247.725L253.298 247.726V247.571L253.287 241.003V240.838C253.377 240.834 284.303 240.891 284.425 240.888C284.447 240.923 315.467 240.911 315.428 241.003C315.427 241.004 315.396 247.571 315.396 247.571ZM315.396 247.571L315.365 241.003C315.543 241.094 284.393 241.088 284.424 241.119C284.581 240.986 252.661 241.451 253.617 241.003C253.617 241.003 253.607 247.57 253.607 247.57C252.641 247.139 315.606 247.711 315.396 247.571Z" fill="#A6A6A6"/>
<path d="M315.396 249.757H253.452V256.325H315.396V249.757Z" fill="#EDEDED"/>
<path d="M315.396 254.582H253.452V256.325H315.396V254.582Z" fill="#EBEBEB"/>
<path d="M315.396 256.325L253.452 256.48L253.298 256.48V256.325L253.287 249.758V249.592C253.377 249.589 284.303 249.646 284.425 249.643C284.447 249.678 315.467 249.665 315.428 249.758C315.427 249.758 315.396 256.325 315.396 256.325ZM315.396 256.325L315.365 249.758C315.543 249.848 284.393 249.842 284.424 249.873C284.581 249.74 252.661 250.205 253.617 249.758C253.617 249.757 253.607 256.324 253.607 256.324C252.641 255.893 315.606 256.466 315.396 256.325Z" fill="#A6A6A6"/>
<path d="M315.396 267.265H253.452V273.832H315.396V267.265Z" fill="#EDEDED"/>
<path d="M315.396 272.088H253.452V273.832H315.396V272.088Z" fill="#EBEBEB"/>
<path d="M315.396 273.833L253.452 273.987L253.298 273.988V273.833L253.287 267.265V267.099C253.377 267.095 284.303 267.152 284.425 267.15C284.447 267.185 315.467 267.172 315.428 267.265C315.427 267.265 315.396 273.833 315.396 273.833ZM315.396 273.833L315.365 267.265C315.543 267.355 284.393 267.349 284.424 267.38C284.581 267.248 252.661 267.713 253.617 267.265C253.617 267.264 253.607 273.832 253.607 273.832C252.641 273.4 315.606 273.973 315.396 273.833Z" fill="#A6A6A6"/>
<path d="M315.396 276.017H253.452V282.584H315.396V276.017Z" fill="#EDEDED"/>
<path d="M315.396 280.841H253.452V282.584H315.396V280.841Z" fill="#EBEBEB"/>
<path d="M315.396 282.584L253.452 282.739L253.298 282.739V282.584L253.287 276.017V275.851C253.377 275.847 284.303 275.904 284.425 275.901C284.447 275.936 315.467 275.924 315.428 276.017C315.427 276.017 315.396 282.584 315.396 282.584ZM315.396 282.584L315.365 276.017C315.543 276.107 284.393 276.101 284.424 276.132C284.581 275.999 252.661 276.464 253.617 276.017C253.617 276.016 253.607 282.583 253.607 282.583C252.641 282.152 315.606 282.724 315.396 282.584Z" fill="#A6A6A6"/>
<path d="M315.396 284.77H253.452V291.338H315.396V284.77Z" fill="#EDEDED"/>
<path d="M315.396 289.594H253.452V291.337H315.396V289.594Z" fill="#EBEBEB"/>
<path d="M315.396 291.337L253.452 291.492L253.298 291.493V291.337L253.287 284.77V284.604C253.377 284.6 284.303 284.657 284.425 284.655C284.447 284.69 315.467 284.677 315.428 284.77C315.427 284.771 315.396 291.337 315.396 291.337ZM315.396 291.337L315.365 284.77C315.543 284.86 284.393 284.854 284.424 284.885C284.581 284.753 252.661 285.218 253.617 284.77C253.617 284.769 253.607 291.337 253.607 291.337C252.641 290.905 315.606 291.478 315.396 291.337Z" fill="#A6A6A6"/>
<path d="M315.396 293.524H253.452V300.091H315.396V293.524Z" fill="#EDEDED"/>
<path d="M315.396 298.349H253.452V300.092H315.396V298.349Z" fill="#EBEBEB"/>
<path d="M315.396 300.092L253.452 300.247L253.298 300.248V300.092L253.287 293.525V293.359C253.377 293.355 284.303 293.412 284.425 293.409C284.447 293.445 315.467 293.432 315.428 293.525C315.427 293.525 315.396 300.092 315.396 300.092ZM315.396 300.092L315.365 293.525C315.543 293.615 284.393 293.609 284.424 293.64C284.581 293.508 252.661 293.972 253.617 293.525C253.617 293.524 253.607 300.092 253.607 300.092C252.641 299.66 315.606 300.232 315.396 300.092Z" fill="#A6A6A6"/>
<path d="M315.396 302.277H253.452V308.845H315.396V302.277Z" fill="#EDEDED"/>
<path d="M315.396 307.102H253.452V308.845H315.396V307.102Z" fill="#EBEBEB"/>
<path d="M315.396 308.845L253.452 309L253.298 309V308.845L253.287 302.278V302.113C253.377 302.109 284.303 302.166 284.425 302.163C284.447 302.198 315.467 302.185 315.428 302.278C315.427 302.278 315.396 308.845 315.396 308.845ZM315.396 308.845L315.365 302.278C315.543 302.368 284.393 302.362 284.424 302.393C284.581 302.26 252.661 302.725 253.617 302.278C253.617 302.277 253.607 308.844 253.607 308.844C252.641 308.413 315.606 308.986 315.396 308.845Z" fill="#A6A6A6"/>
<path d="M416.329 225.135H315.657V231.702H416.329V225.135Z" fill="#EDEDED"/>
<path d="M416.329 229.96H315.657V231.703H416.329V229.96Z" fill="#EBEBEB"/>
<path d="M416.329 216.382H315.657V222.949H416.329V216.382Z" fill="#EDEDED"/>
<path d="M416.329 221.206H315.657V222.949H416.329V221.206Z" fill="#EBEBEB"/>
<path d="M416.329 207.629H315.657V214.196H416.329V207.629Z" fill="#EDEDED"/>
<path d="M416.329 212.454H315.657V214.197H416.329V212.454Z" fill="#EBEBEB"/>
<path d="M252.375 166.655V234.114H257.544V166.655H252.375Z" fill="#EDEDED"/>
<path d="M255.801 166.655V234.114H257.544V166.655H255.801Z" fill="#EBEBEB"/>
<path d="M310.487 166.654V234.113H315.656V166.654H310.487Z" fill="#EDEDED"/>
<path d="M313.913 166.654V234.113H315.656V166.654H313.913Z" fill="#EBEBEB"/>
<path d="M416.328 166.654V234.113H421.497V166.654H416.328Z" fill="#EDEDED"/>
<path d="M419.755 166.654V234.113H421.499V166.654H419.755Z" fill="#EBEBEB"/>
<path d="M416.328 166.654L421.497 166.611L421.54 166.61L421.54 166.653C421.684 188.416 421.685 212.349 421.54 234.113L421.54 234.156L421.497 234.156L416.328 234.113L421.497 234.069L421.454 234.113C421.347 218.547 421.314 199.172 421.38 183.518C421.446 177.977 421.311 172.038 421.497 166.695C421.497 166.697 416.328 166.654 416.328 166.654Z" fill="#A6A6A6"/>
<path d="M414.683 243.478H324.805V261.796H414.683V243.478Z" fill="#C7C3E2"/>
<path opacity="0.2" d="M324.806 246.099H414.683" stroke="black" stroke-width="0.25" stroke-miterlimit="10"/>
<path opacity="0.2" d="M324.806 248.721H414.683" stroke="black" stroke-width="0.25" stroke-miterlimit="10"/>
<path opacity="0.2" d="M324.806 251.342H414.683" stroke="black" stroke-width="0.25" stroke-miterlimit="10"/>
<path opacity="0.2" d="M324.806 253.964H414.683" stroke="black" stroke-width="0.25" stroke-miterlimit="10"/>
<path opacity="0.2" d="M324.806 256.585H414.683" stroke="black" stroke-width="0.25" stroke-miterlimit="10"/>
<path opacity="0.2" d="M324.806 259.206H414.683" stroke="black" stroke-width="0.25" stroke-miterlimit="10"/>
<path d="M429.463 234.115H86.2134V243.478H429.463V234.115Z" fill="#EDEDED"/>
<path d="M429.463 241.735H86.2134V243.478H429.463V241.735Z" fill="#EBEBEB"/>
<path d="M429.463 234.115H86.2134V243.478H429.463V234.115Z" stroke="#A6A6A6" stroke-width="0.5" stroke-miterlimit="10"/>
<path d="M347.032 274.757C347.032 274.757 345.78 274.234 345.593 273.94C345.405 273.647 344.592 272.41 344.307 272.362C343.235 272.182 340.308 272.291 339.324 272.82C338.787 273.109 339.353 275.249 339.847 275.751C340.341 276.253 343.871 276.357 344.44 276.241C345.011 276.126 345.432 275.54 345.432 275.54L346.836 275.932L347.032 274.757Z" fill="#6B6BA4"/>
<path d="M347.378 273.181C347.378 273.181 346.427 273.319 346.197 273.519C345.967 273.718 345.246 275.313 345.292 275.865C345.337 276.418 345.92 276.985 345.92 276.985L347.378 273.181Z" fill="#6B6BA4"/>
<path opacity="0.1" d="M347.378 273.181C347.378 273.181 346.427 273.319 346.197 273.519C345.967 273.718 345.246 275.313 345.292 275.865C345.337 276.418 345.92 276.985 345.92 276.985L347.378 273.181Z" fill="black"/>
<path d="M393.789 274.757C393.789 274.757 395.04 274.234 395.227 273.94C395.415 273.647 396.228 272.41 396.513 272.362C397.585 272.182 400.513 272.291 401.496 272.82C402.034 273.109 401.467 275.249 400.973 275.751C400.479 276.253 396.949 276.357 396.38 276.241C395.81 276.126 395.388 275.54 395.388 275.54L393.984 275.932L393.789 274.757Z" fill="#6B6BA4"/>
<path d="M393.442 273.182C393.442 273.182 394.393 273.32 394.623 273.52C394.853 273.719 395.574 275.314 395.528 275.866C395.483 276.418 394.9 276.986 394.9 276.986L393.442 273.182Z" fill="#6B6BA4"/>
<path opacity="0.1" d="M393.442 273.182C393.442 273.182 394.393 273.32 394.623 273.52C394.853 273.719 395.574 275.314 395.528 275.866C395.483 276.418 394.9 276.986 394.9 276.986L393.442 273.182Z" fill="black"/>
<path d="M344.631 306.329H343.984C341.679 306.329 339.81 304.46 339.81 302.154V291.739C339.81 289.434 341.679 287.564 343.984 287.564H344.631C346.937 287.564 348.806 289.434 348.806 291.739V302.154C348.806 304.46 346.937 306.329 344.631 306.329Z" fill="#263238"/>
<path d="M342.784 282.142C342.784 282.142 340.698 283.206 340.208 284.187C339.717 285.168 340.208 295.311 340.208 296.087C340.208 296.864 341.719 301.936 342.006 302.467C342.293 302.999 346.26 303.612 346.26 303.612L342.784 282.142Z" fill="#6B6BA4"/>
<path opacity="0.1" d="M342.784 282.142C342.784 282.142 340.698 283.206 340.208 284.187C339.717 285.168 340.208 295.311 340.208 296.087C340.208 296.864 341.719 301.936 342.006 302.467C342.293 302.999 346.26 303.612 346.26 303.612L342.784 282.142Z" fill="black"/>
<path d="M396.189 306.329H396.836C399.141 306.329 401.01 304.46 401.01 302.155V291.739C401.01 289.434 399.141 287.564 396.836 287.564H396.189C393.883 287.564 392.014 289.434 392.014 291.739V302.154C392.014 304.46 393.883 306.329 396.189 306.329Z" fill="#263238"/>
<path d="M398.035 282.142C398.035 282.142 400.121 283.206 400.612 284.187C401.103 285.168 400.612 295.311 400.612 296.087C400.612 296.864 399.101 301.936 398.814 302.467C398.527 302.999 394.56 303.612 394.56 303.612L398.035 282.142Z" fill="#6B6BA4"/>
<path opacity="0.1" d="M398.035 282.142C398.035 282.142 400.121 283.206 400.612 284.187C401.103 285.168 400.612 295.311 400.612 296.087C400.612 296.864 399.101 301.936 398.814 302.467C398.527 302.999 394.56 303.612 394.56 303.612L398.035 282.142Z" fill="black"/>
<path d="M398.847 299.013C398.826 299.279 397.926 303.083 397.557 303.47C397.19 303.859 389.828 304.165 389.378 304.165C388.93 304.165 387.518 303.368 387.253 303.307C386.987 303.244 372.217 303.287 370.411 303.287C368.602 303.287 353.834 303.244 353.568 303.307C353.302 303.368 351.891 304.165 351.441 304.165C350.991 304.165 343.631 303.859 343.262 303.47C342.895 303.083 341.995 299.279 341.974 299.013C341.954 298.747 342.24 297.807 342.24 297.602C342.24 297.397 342.021 283.15 342.082 282.874C342.143 282.598 342.725 280.666 342.987 280.253C343.247 279.837 345.579 276.893 345.64 276.708C347.074 272.407 351.084 266.112 351.699 265.559C352.311 265.007 353.125 264.669 353.739 264.592C354.351 264.516 362.649 264.21 370.411 264.21C378.174 264.21 386.472 264.516 387.084 264.592C387.698 264.669 388.51 265.007 389.124 265.559C389.736 266.112 393.747 272.406 395.182 276.708C395.243 276.893 397.574 279.837 397.835 280.253C398.095 280.666 398.678 282.599 398.739 282.874C398.802 283.15 398.582 297.397 398.582 297.602C398.581 297.806 398.867 298.747 398.847 299.013Z" fill="#6B6BA4"/>
<path opacity="0.1" d="M397.059 296.475C397.059 296.721 396.727 298.63 396.512 298.683C390.589 300.157 376.361 301.395 370.408 301.297C364.456 301.395 350.229 300.157 344.305 298.683C344.09 298.63 343.758 296.721 343.758 296.475C343.758 296.23 344.003 293.511 344.305 293.43C344.61 293.347 350.874 294.474 356.143 295.173C363.489 296.149 370.408 296.057 370.408 296.057C370.408 296.057 377.326 296.149 384.674 295.173C389.941 294.474 396.207 293.347 396.512 293.43C396.814 293.511 397.059 296.23 397.059 296.475Z" fill="black"/>
<path opacity="0.5" d="M391.273 294.195L389.256 299.933C382.69 300.789 374.549 301.366 370.409 301.298C366.27 301.366 358.131 300.789 351.563 299.933L349.547 294.195C351.584 294.516 353.95 294.882 356.144 295.173C363.49 296.149 370.409 296.057 370.409 296.057C370.409 296.057 377.327 296.149 384.675 295.173C386.867 294.882 389.236 294.517 391.273 294.195Z" fill="white"/>
<path d="M384.673 295.173C384.702 295.31 383.57 297.56 382.716 298.9C382.461 299.298 381.237 300.218 380.952 300.279C380.664 300.34 377.136 301.298 370.408 301.298C363.68 301.298 360.151 300.34 359.863 300.279C359.579 300.218 358.354 299.298 358.099 298.9C357.245 297.56 356.113 295.31 356.142 295.173C356.168 295.037 360.39 296.057 370.408 296.057C380.425 296.057 384.647 295.037 384.673 295.173Z" fill="#263238"/>
<path d="M348.137 296.446C348.137 297.132 347.581 297.688 346.895 297.688C346.209 297.688 345.652 297.132 345.652 296.446C345.652 295.759 346.209 295.203 346.895 295.203C347.581 295.203 348.137 295.759 348.137 296.446Z" fill="white"/>
<path d="M346.017 295.568C346.798 294.755 348.259 295.297 348.296 296.446C348.348 297.207 347.653 297.9 346.896 297.847C345.746 297.811 345.204 296.349 346.017 295.568ZM346.017 295.568C345.544 296.02 345.578 296.858 346.083 297.259C347.18 298.142 348.592 296.73 347.709 295.633C347.307 295.128 346.47 295.094 346.017 295.568Z" fill="#DBDBDB"/>
<path d="M392.545 296.446C392.545 297.132 393.102 297.688 393.787 297.688C394.474 297.688 395.03 297.132 395.03 296.446C395.03 295.759 394.474 295.203 393.787 295.203C393.101 295.203 392.545 295.759 392.545 296.446Z" fill="white"/>
<path d="M394.666 295.568C394.213 295.094 393.376 295.128 392.974 295.633C392.09 296.73 393.503 298.142 394.6 297.259C395.105 296.858 395.139 296.02 394.666 295.568ZM394.666 295.568C395.479 296.349 394.938 297.811 393.787 297.847C393.029 297.9 392.335 297.206 392.387 296.446C392.424 295.297 393.885 294.755 394.666 295.568Z" fill="#DBDBDB"/>
<path d="M394.062 276.499C394.062 276.499 382.979 276.985 370.411 276.985C357.843 276.985 346.76 276.499 346.76 276.499C349.029 270.814 351.995 266.417 352.321 266.172C352.648 265.927 353.814 265.497 354.14 265.416C355.533 265.067 365.489 265.006 370.411 265.006C375.331 265.006 385.286 265.067 386.679 265.416C387.008 265.497 388.173 265.927 388.5 266.172C388.826 266.417 391.793 270.814 394.062 276.499Z" fill="#455A64"/>
<path d="M394.062 276.499C394.062 276.499 382.979 276.984 370.411 276.984C357.843 276.984 346.76 276.499 346.76 276.499C346.974 275.964 347.193 275.44 347.415 274.931C349.966 275.032 359.644 275.388 370.411 275.388C381.179 275.388 390.857 275.032 393.408 274.931C393.628 275.44 393.848 275.964 394.062 276.499Z" fill="#263238"/>
<g opacity="0.7">
<path d="M366.748 271.829H351.273C350.83 271.829 350.454 272.15 350.385 272.586L349.988 275.084C349.902 275.629 350.323 276.123 350.876 276.123H367.143C367.696 276.123 368.117 275.629 368.031 275.084L367.635 272.586C367.566 272.15 367.189 271.829 366.748 271.829Z" fill="#263238"/>
<path d="M362.699 272.797H355.321C354.33 272.797 353.527 271.994 353.527 271.004V270.726C353.527 269.735 354.33 268.933 355.321 268.933H362.699C363.689 268.933 364.492 269.736 364.492 270.726V271.004C364.492 271.994 363.689 272.797 362.699 272.797Z" fill="#263238"/>
</g>
<g opacity="0.7">
<path d="M389.548 271.829H374.073C373.631 271.829 373.255 272.15 373.185 272.586L372.789 275.084C372.702 275.629 373.124 276.123 373.676 276.123H389.944C390.496 276.123 390.918 275.629 390.832 275.084L390.436 272.586C390.366 272.15 389.989 271.829 389.548 271.829Z" fill="#263238"/>
<path d="M385.499 272.797H378.121C377.131 272.797 376.329 271.994 376.329 271.004V270.726C376.329 269.735 377.132 268.933 378.121 268.933H385.499C386.49 268.933 387.292 269.736 387.292 270.726V271.004C387.292 271.994 386.49 272.797 385.499 272.797Z" fill="#263238"/>
</g>
<path d="M389.478 275.959H374.142L375.611 273.871L381.81 273.541L388.01 273.871L389.478 275.959Z" fill="#263238"/>
<path d="M381.81 270.698C379.834 270.698 378.227 272.306 378.227 274.282C378.227 274.634 378.279 274.976 378.375 275.299C378.554 275.907 378.891 276.45 379.34 276.874C379.76 276.867 380.172 276.858 380.578 276.848C379.923 276.531 379.406 275.97 379.148 275.284C379.03 274.972 378.966 274.635 378.966 274.282C378.966 273.718 379.131 273.19 379.418 272.747C379.551 272.539 379.711 272.347 379.894 272.181C380.401 271.718 381.073 271.436 381.811 271.436C382.584 271.436 383.285 271.744 383.797 272.245C383.972 272.417 384.128 272.611 384.253 272.823C384.509 273.251 384.657 273.749 384.657 274.282C384.657 274.589 384.609 274.882 384.518 275.159C384.291 275.862 383.799 276.444 383.159 276.789C383.585 276.778 384 276.767 384.4 276.756C384.828 276.31 385.14 275.754 385.291 275.136C385.359 274.861 385.395 274.575 385.395 274.282C385.394 272.306 383.787 270.698 381.81 270.698Z" fill="#263238"/>
<path d="M381.883 274.702L379.197 272.573L379.655 271.995L381.883 273.76L384.111 271.995L384.569 272.573L381.883 274.702Z" fill="#263238"/>
<g opacity="0.1">
<path d="M366.475 265.017L354.73 276.762C353.704 276.737 352.756 276.709 351.896 276.683L363.537 265.042C364.53 265.032 365.523 265.022 366.475 265.017Z" fill="white"/>
<path d="M388.882 266.647L378.609 276.92C377.65 276.934 376.663 276.946 375.658 276.958L387.075 265.541C387.556 265.706 388.257 265.991 388.499 266.172C388.554 266.214 388.687 266.378 388.882 266.647Z" fill="white"/>
<path d="M393.22 274.51L391.118 276.612C390.268 276.641 389.255 276.675 388.107 276.708L392.284 272.531C392.596 273.16 392.91 273.82 393.22 274.51Z" fill="white"/>
<path d="M362.606 265.053L351.006 276.653C350.857 276.649 350.713 276.643 350.571 276.639L362.152 265.059L362.606 265.053Z" fill="white"/>
<path d="M376.646 265.038L364.729 276.953C364.581 276.951 364.434 276.949 364.286 276.947L376.201 265.032C376.349 265.034 376.497 265.034 376.646 265.038Z" fill="white"/>
<path d="M391.729 271.438L386.412 276.754C386.261 276.758 386.106 276.762 385.952 276.768L391.574 271.145C391.625 271.241 391.677 271.339 391.729 271.438Z" fill="white"/>
<path d="M356.264 265.22L348.139 273.345C348.474 272.639 348.812 271.969 349.141 271.342L355.199 265.284C355.506 265.26 355.864 265.238 356.264 265.22Z" fill="white"/>
<path d="M380.561 265.093L368.674 276.98C368.339 276.98 368.008 276.978 367.678 276.976L379.578 265.074C379.911 265.08 380.24 265.087 380.561 265.093Z" fill="white"/>
</g>
<path opacity="0.1" d="M346.76 276.5C346.243 277.705 345.536 278.831 344.819 279.924C344.799 279.953 344.761 280.012 344.743 280.041C344.704 280.167 344.849 280.428 344.926 280.563C345.036 280.758 345.164 280.947 345.291 281.141C344.981 280.895 344.261 280.29 344.512 279.849C345.142 278.666 345.883 277.517 346.76 276.5Z" fill="black"/>
<path opacity="0.1" d="M394.062 276.5C394.938 277.517 395.681 278.666 396.311 279.849C396.561 280.291 395.843 280.894 395.532 281.141C395.658 280.947 395.787 280.758 395.896 280.563C395.973 280.429 396.119 280.166 396.08 280.041C396.062 280.012 396.023 279.953 396.004 279.924C395.286 278.831 394.579 277.705 394.062 276.5Z" fill="black"/>
<path opacity="0.1" d="M398.368 285.773C398.368 286.033 398.357 287.524 398.154 287.646C397.588 287.985 395.088 288.777 393.529 289.064C386.232 290.41 375.622 291.168 370.409 291.082C365.196 291.169 354.587 290.41 347.289 289.064C345.73 288.776 343.231 287.984 342.664 287.646C342.461 287.524 342.45 286.033 342.45 285.773C342.45 285.513 344.186 282.045 344.509 281.958C344.832 281.869 348.435 283.921 354.473 285.007C360.664 286.121 370.409 286.151 370.409 286.151C370.409 286.151 380.155 286.121 386.346 285.007C392.383 283.921 395.986 282.054 396.309 282.142C396.632 282.229 398.368 285.513 398.368 285.773Z" fill="black"/>
<path opacity="0.5" d="M398.154 287.645C396.071 288.756 393.754 289.336 391.44 289.734C389.129 290.155 386.806 290.511 384.475 290.812C379.809 291.396 375.119 291.868 370.408 291.861C362.765 291.797 355.144 290.842 347.647 289.397C345.924 289.04 344.224 288.459 342.664 287.646C344.261 288.343 345.974 288.851 347.696 289.124C355.214 290.209 362.808 291.083 370.408 291.124C375.083 291.151 379.756 290.704 384.408 290.243C386.737 289.993 389.063 289.716 391.382 289.381C392.538 289.21 393.703 289.081 394.832 288.776C395.957 288.459 397.093 288.139 398.154 287.645Z" fill="white"/>
<path d="M345.836 281.268C347.095 281.385 353.07 285.095 353.322 285.4C353.573 285.706 354.179 288.774 353.803 289.074C353.426 289.375 348.91 289.222 347.55 289.003C346.19 288.784 343.379 288.022 342.746 287.535C342.113 287.049 342.599 283.618 343.22 282.931C344.018 282.049 345.029 281.193 345.836 281.268Z" fill="white"/>
<path d="M345.836 281.268C346.16 281.325 346.476 281.444 346.774 281.577C347.682 281.973 348.552 282.45 349.42 282.925C350.716 283.651 352.017 284.377 353.253 285.212C353.411 285.306 353.504 285.487 353.555 285.664C353.664 285.985 353.742 286.308 353.815 286.632C353.952 287.293 354.081 287.943 354.078 288.626C354.068 289.011 354.005 289.265 353.583 289.317C352.505 289.474 351.416 289.417 350.334 289.397C349.338 289.348 348.339 289.317 347.353 289.14C345.889 288.839 344.433 288.45 343.067 287.835C342.915 287.754 342.768 287.69 342.623 287.545C342.256 286.955 342.387 286.198 342.428 285.544C342.56 284.657 342.678 283.698 343.189 282.939C343.885 282.231 344.771 281.254 345.836 281.268ZM345.836 281.268C344.822 281.267 344.045 282.106 343.382 282.779C343.14 283.01 343.001 283.307 342.901 283.622C342.701 284.247 342.599 284.903 342.545 285.556C342.511 286.042 342.497 286.537 342.592 287.014C342.646 287.256 342.715 287.441 342.94 287.547C344.044 288.078 345.263 288.336 346.45 288.618C347.726 288.926 349.038 288.98 350.347 289.029C351.004 289.055 351.662 289.069 352.316 289.061C352.769 289.043 353.269 289.069 353.696 288.947C353.692 288.966 353.727 288.903 353.737 288.836C353.822 288.132 353.683 287.398 353.568 286.684C353.489 286.29 353.418 285.884 353.268 285.516C353.248 285.458 353.186 285.424 353.131 285.373C351.933 284.506 350.665 283.731 349.394 282.97C348.537 282.477 347.677 281.982 346.771 281.584C346.474 281.449 346.159 281.326 345.836 281.268Z" fill="#DBDBDB"/>
<path d="M348.937 285.845C348.953 287.332 347.124 288.148 346.024 287.117C345.295 286.468 345.296 285.219 346.023 284.571C347.123 283.54 348.953 284.357 348.937 285.845ZM348.937 285.845C348.946 284.441 347.174 283.761 346.248 284.796C345.706 285.37 345.705 286.319 346.247 286.893C347.172 287.93 348.946 287.248 348.937 285.845Z" fill="#DBDBDB"/>
<path d="M352.28 286.933C352.305 288.192 350.722 288.91 349.791 288.03C349.159 287.473 349.16 286.391 349.791 285.837C350.722 284.954 352.306 285.674 352.28 286.933ZM352.28 286.933C352.284 285.744 350.795 285.183 350.016 286.062C349.288 286.832 349.824 288.175 350.888 288.234C351.609 288.308 352.297 287.669 352.28 286.933Z" fill="#DBDBDB"/>
<path d="M345.288 284.308C345.096 284.866 344.89 287.586 344.993 287.945C345.035 288.091 345.186 288.303 345.348 288.502C344.221 288.196 343.115 287.819 342.745 287.535C342.113 287.049 342.599 283.619 343.221 282.931C344.018 282.047 345.03 281.192 345.836 281.268C346.121 281.295 346.649 281.505 347.297 281.82C347.297 281.82 345.479 283.75 345.288 284.308Z" fill="#6B6BA4"/>
<path opacity="0.2" d="M345.288 284.308C345.096 284.866 344.89 287.586 344.993 287.946C345.035 288.092 345.186 288.304 345.348 288.503C344.221 288.197 343.115 287.82 342.745 287.536C342.113 287.05 342.599 283.619 343.221 282.932C344.018 282.048 345.03 281.193 345.836 281.269C346.121 281.296 346.649 281.506 347.297 281.821C347.296 281.82 345.479 283.75 345.288 284.308Z" fill="black"/>
<path d="M394.985 281.268C393.726 281.385 387.751 285.095 387.5 285.4C387.248 285.706 386.642 288.774 387.018 289.074C387.395 289.375 391.911 289.222 393.271 289.003C394.631 288.784 397.443 288.022 398.075 287.535C398.708 287.049 398.222 283.618 397.601 282.931C396.803 282.049 395.792 281.193 394.985 281.268Z" fill="white"/>
<path d="M394.985 281.267C394.662 281.326 394.347 281.448 394.05 281.583C393.143 281.981 392.283 282.475 391.427 282.969C390.156 283.73 388.887 284.505 387.689 285.372C387.634 285.424 387.572 285.457 387.552 285.515C387.402 285.883 387.332 286.289 387.253 286.682C387.137 287.398 386.998 288.131 387.084 288.835C387.094 288.902 387.128 288.965 387.124 288.946C387.138 288.955 387.227 288.981 387.297 288.99C388.345 289.112 389.417 289.056 390.473 289.028C391.782 288.979 393.094 288.925 394.371 288.617C395.558 288.335 396.776 288.077 397.881 287.546C398.104 287.44 398.176 287.256 398.228 287.013C398.324 286.537 398.31 286.041 398.275 285.555C398.221 284.902 398.12 284.247 397.919 283.621C397.819 283.306 397.681 283.01 397.439 282.778C396.776 282.105 395.998 281.267 394.985 281.267ZM394.985 281.267C396.051 281.253 396.935 282.231 397.631 282.939C398.142 283.697 398.26 284.656 398.392 285.544C398.434 286.202 398.564 286.95 398.198 287.544C398.053 287.69 397.906 287.754 397.754 287.835C396.388 288.449 394.931 288.838 393.468 289.14C391.824 289.402 390.159 289.425 388.498 289.414C388.08 289.402 387.657 289.389 387.238 289.317C387.147 289.295 387.07 289.291 386.941 289.217C386.839 289.154 386.787 289.008 386.769 288.897C386.681 288.128 386.863 287.377 387.007 286.633C387.08 286.308 387.158 285.985 387.267 285.664C387.32 285.487 387.409 285.307 387.569 285.212C388.804 284.378 390.105 283.652 391.402 282.925C392.271 282.45 393.14 281.973 394.048 281.577C394.345 281.444 394.662 281.323 394.985 281.267Z" fill="#DBDBDB"/>
<path d="M391.883 285.843C391.874 287.247 393.648 287.929 394.573 286.892C395.116 286.318 395.116 285.369 394.573 284.795C393.647 283.759 391.875 284.44 391.883 285.843ZM391.883 285.843C391.867 284.355 393.698 283.538 394.798 284.57C395.525 285.217 395.526 286.467 394.797 287.116C393.697 288.147 391.867 287.331 391.883 285.843Z" fill="#DBDBDB"/>
<path d="M388.54 286.934C388.524 287.669 389.211 288.308 389.933 288.234C391.532 288.076 391.531 285.792 389.933 285.633C389.212 285.558 388.524 286.201 388.54 286.934ZM388.54 286.934C388.516 285.675 390.1 284.955 391.03 285.836C391.661 286.391 391.662 287.473 391.029 288.03C390.099 288.91 388.516 288.192 388.54 286.934Z" fill="#DBDBDB"/>
<path d="M395.532 284.308C395.725 284.866 395.93 287.586 395.827 287.945C395.785 288.091 395.635 288.303 395.472 288.502C396.599 288.196 397.706 287.819 398.075 287.535C398.708 287.049 398.222 283.619 397.6 282.931C396.803 282.047 395.79 281.192 394.984 281.268C394.699 281.295 394.171 281.505 393.524 281.82C393.524 281.82 395.341 283.75 395.532 284.308Z" fill="#6B6BA4"/>
<path opacity="0.2" d="M395.532 284.308C395.725 284.866 395.93 287.586 395.827 287.946C395.785 288.092 395.635 288.304 395.472 288.503C396.599 288.197 397.706 287.82 398.075 287.536C398.708 287.05 398.222 283.619 397.6 282.932C396.803 282.048 395.79 281.193 394.984 281.269C394.699 281.296 394.171 281.506 393.524 281.821C393.525 281.82 395.341 283.75 395.532 284.308Z" fill="black"/>
<path d="M386.347 285.007C386.378 285.144 384.86 288.408 384.583 288.809C384.308 289.207 382.989 289.897 382.681 289.958C382.375 290.019 377.653 290.976 370.41 290.976C363.168 290.976 358.445 290.019 358.137 289.958C357.831 289.897 356.512 289.207 356.237 288.809C355.96 288.408 354.442 285.144 354.473 285.007C354.502 284.87 359.042 285.756 361.787 285.863C363.138 285.917 367.369 286.151 370.41 286.151C373.45 286.151 377.681 285.917 379.032 285.863C381.777 285.756 386.317 284.87 386.347 285.007Z" fill="#37474F"/>
<path d="M357.46 285.396C358.078 285.484 358.74 285.577 359.397 285.653H354.72C354.678 285.559 354.641 285.472 354.609 285.396H357.46ZM383.36 285.396C382.742 285.484 382.08 285.577 381.423 285.653H386.1C386.142 285.559 386.179 285.472 386.21 285.396H383.36ZM373.231 286.104C372.256 286.131 371.284 286.151 370.41 286.151C369.535 286.151 368.563 286.131 367.589 286.104H354.918C354.955 286.187 354.993 286.271 355.034 286.36H385.785C385.826 286.271 385.865 286.187 385.901 286.104H373.231ZM355.241 286.81C355.279 286.897 355.32 286.982 355.361 287.067H385.459C385.5 286.982 385.54 286.897 385.579 286.81H355.241ZM355.573 287.517C355.615 287.605 355.658 287.692 355.698 287.775H385.122C385.162 287.692 385.205 287.605 385.247 287.517H355.573ZM355.918 288.223C355.965 288.318 356.012 288.404 356.05 288.481H384.769C384.807 288.404 384.854 288.317 384.902 288.223H355.918ZM356.341 288.93C356.421 289.01 356.532 289.097 356.66 289.187H384.161C384.288 289.097 384.399 289.01 384.48 288.93H356.341ZM357.409 289.638C357.612 289.747 357.802 289.837 357.946 289.895H382.874C383.018 289.838 383.209 289.747 383.412 289.638H357.409ZM360.517 290.345C361.135 290.429 361.864 290.518 362.696 290.601H378.125C378.957 290.518 379.686 290.429 380.304 290.345H360.517Z" fill="#455A64"/>
<path d="M376.456 293.215H364.364V296.446H376.456V293.215Z" fill="white"/>
<path d="M16.3394 308.677H496.199" stroke="#17213A" stroke-miterlimit="10" stroke-linecap="round" stroke-linejoin="round"/>
<path d="M458.088 308.14V224.991H463.972V308.14H458.088Z" fill="#17213A" stroke="#17213A"/>
<path d="M464.472 224.492C464.472 224.671 462.931 224.816 461.03 224.816C459.129 224.816 457.588 224.671 457.588 224.492C457.588 224.313 459.129 224.167 461.03 224.167C462.931 224.167 464.472 224.312 464.472 224.492Z" fill="#DBD9EB"/>
<path opacity="0.2" d="M464.472 277.351L457.588 276.852V271.662H464.472V277.351Z" fill="#383192"/>
<path d="M500.698 230.905L425.456 224.296L421.369 271.04L496.611 277.649L500.698 230.905Z" fill="#383192"/>
<path d="M497.329 230.609L422.087 224L418 270.744L493.242 277.353L497.329 230.609Z" fill="#CEC8FF"/>
<path opacity="0.4" d="M497.686 237.881L483.572 237.233L497.589 238.997L497.686 237.881Z" fill="#383192"/>
<path opacity="0.4" d="M497.087 239.472L488.379 239.594L496.941 241.146L497.087 239.472Z" fill="#383192"/>
<path opacity="0.4" d="M419.028 258.877L426.64 258.954L419.126 257.761L419.028 258.877Z" fill="#383192"/>
<path opacity="0.4" d="M419.799 250.066L426.351 249.754L419.945 248.392L419.799 250.066Z" fill="#383192"/>
<path opacity="0.4" d="M494.285 272.386L487.733 272.698L494.139 274.06L494.285 272.386Z" fill="#383192"/>
<path d="M486.814 249.34C486.719 249.471 486.624 249.566 486.529 249.624C486.441 249.677 486.327 249.698 486.19 249.687C486.058 249.676 485.918 249.62 485.77 249.518C485.629 249.41 485.46 249.294 485.266 249.17C485.071 249.045 484.846 248.928 484.59 248.817C484.335 248.7 484.031 248.627 483.678 248.598C483.056 248.548 482.578 248.65 482.244 248.906C481.911 249.156 481.726 249.505 481.69 249.954C481.666 250.241 481.731 250.487 481.883 250.692C482.041 250.891 482.252 251.071 482.516 251.231C482.786 251.391 483.093 251.54 483.437 251.676C483.781 251.812 484.133 251.961 484.493 252.123C484.854 252.278 485.204 252.457 485.542 252.659C485.881 252.862 486.177 253.105 486.431 253.391C486.691 253.677 486.889 254.018 487.025 254.414C487.168 254.805 487.217 255.273 487.173 255.817C487.125 256.409 486.975 256.956 486.724 257.46C486.479 257.958 486.146 258.385 485.726 258.742C485.306 259.093 484.8 259.356 484.208 259.531C483.622 259.706 482.967 259.764 482.244 259.706C481.831 259.672 481.422 259.597 481.016 259.48C480.616 259.363 480.231 259.214 479.86 259.034C479.495 258.854 479.154 258.645 478.836 258.409C478.518 258.172 478.244 257.915 478.014 257.638L478.907 256.428C478.98 256.338 479.073 256.267 479.186 256.216C479.299 256.159 479.415 256.135 479.535 256.145C479.696 256.158 479.862 256.232 480.031 256.366C480.201 256.5 480.397 256.648 480.618 256.811C480.84 256.973 481.098 257.127 481.394 257.271C481.695 257.416 482.061 257.506 482.491 257.541C483.119 257.592 483.615 257.487 483.98 257.228C484.35 256.969 484.558 256.556 484.604 255.987C484.631 255.659 484.566 255.385 484.409 255.168C484.258 254.951 484.05 254.763 483.786 254.603C483.522 254.443 483.218 254.301 482.873 254.176C482.528 254.046 482.175 253.906 481.814 253.756C481.453 253.607 481.103 253.434 480.764 253.238C480.425 253.042 480.129 252.795 479.876 252.498C479.623 252.2 479.426 251.841 479.286 251.42C479.152 251 479.109 250.488 479.158 249.884C479.197 249.399 479.331 248.938 479.559 248.499C479.788 248.06 480.101 247.679 480.501 247.356C480.9 247.033 481.378 246.786 481.933 246.615C482.495 246.444 483.126 246.386 483.826 246.443C484.609 246.507 485.323 246.688 485.967 246.987C486.617 247.281 487.155 247.662 487.58 248.129L486.814 249.34Z" fill="#383192"/>
<path d="M473.584 253.884L472.499 249.787C472.433 249.571 472.363 249.318 472.29 249.029C472.223 248.741 472.161 248.429 472.104 248.093C471.993 248.421 471.878 248.725 471.759 249.004C471.647 249.278 471.54 249.516 471.439 249.719L469.718 253.57L473.584 253.884ZM477.704 259.194L475.614 259.024C475.381 259.005 475.194 258.936 475.053 258.816C474.919 258.691 474.823 258.538 474.765 258.359L474.088 255.803L468.903 255.382L467.822 257.795C467.75 257.94 467.634 258.069 467.475 258.183C467.315 258.29 467.122 258.335 466.895 258.316L464.787 258.145L470.93 245.542L473.683 245.765L477.704 259.194Z" fill="#383192"/>
<path d="M464.84 255.946L464.662 258.135L456.939 257.508L457.995 244.492L460.686 244.71L459.808 255.538L464.84 255.946Z" fill="#383192"/>
<path d="M455.466 255.185L455.289 257.374L447.565 256.747L448.622 243.731L451.313 243.949L450.434 254.777L455.466 255.185Z" fill="#383192"/>
<path d="M444.843 256.526L442.134 256.306L443.19 243.29L445.9 243.51L444.843 256.526Z" fill="#383192"/>
<path d="M441.985 243.192L435.69 255.783L433.25 255.585L429.068 242.144L431.239 242.32C431.472 242.339 431.656 242.411 431.79 242.537C431.931 242.656 432.03 242.806 432.088 242.985L434.296 250.713C434.381 251.003 434.46 251.319 434.535 251.662C434.616 252 434.686 252.355 434.746 252.727C434.854 252.369 434.966 252.029 435.082 251.707C435.205 251.38 435.332 251.08 435.462 250.808L438.869 243.535C438.941 243.391 439.057 243.265 439.216 243.157C439.382 243.044 439.578 242.997 439.806 243.016L441.985 243.192Z" fill="#383192"/>
<path d="M454.528 91.8131C454.528 91.8131 453.095 86.7886 446.289 84.276C439.483 81.7635 433.394 83.9169 431.245 85.7119C429.095 87.5062 427.662 90.0188 425.871 90.0188C424.081 90.0188 419.424 87.5062 415.125 89.3012C410.827 91.0955 411.185 93.6081 409.393 94.6848C407.603 95.7615 404.737 93.9672 401.513 94.6848C398.289 95.4024 395.065 98.2741 394.706 99.3508C394.348 100.428 393.632 100.068 390.766 100.068C387.901 100.068 385.035 104.016 385.035 104.016H476.021C476.021 104.016 472.081 95.4024 466.708 93.9665C461.334 92.5307 458.468 95.4024 457.394 95.0432C456.319 94.6841 454.528 91.8131 454.528 91.8131Z" fill="#F3F4F6" stroke="#17213A" stroke-miterlimit="10" stroke-linecap="round" stroke-linejoin="round"/>
<path d="M282.838 33.0622C282.838 33.0622 281.954 29.9616 277.754 28.4116C273.554 26.8616 269.796 28.1901 268.47 29.2977C267.144 30.4053 266.259 31.9553 265.154 31.9553C264.048 31.9553 261.175 30.4053 258.522 31.5122C255.869 32.6199 256.09 34.1698 254.985 34.8344C253.879 35.499 252.111 34.3914 250.122 34.8344C248.133 35.2775 246.143 37.049 245.922 37.7135C245.701 38.3781 245.258 38.1566 243.49 38.1566C241.722 38.1566 239.953 40.5926 239.953 40.5926H296.101C296.101 40.5926 293.67 35.2775 290.354 34.3914C287.038 33.5053 285.27 35.2775 284.606 35.0559C283.944 34.8337 282.838 33.0622 282.838 33.0622Z" fill="#F3F4F6" stroke="#17213A" stroke-miterlimit="10" stroke-linecap="round" stroke-linejoin="round"/>
<path d="M66.8504 42.807C66.8504 42.807 65.966 39.7064 61.7663 38.1557C57.566 36.6058 53.8086 37.9342 52.4819 39.0418C51.1553 40.1494 50.2715 41.6994 49.166 41.6994C48.0605 41.6994 45.1868 40.1494 42.5342 41.2564C39.8816 42.364 40.1027 43.914 38.9972 44.5785C37.8916 45.2431 36.1235 44.1355 34.1342 44.5785C32.1449 45.0216 30.1549 46.7931 29.9338 47.4577C29.7127 48.1222 29.2705 47.9007 27.5024 47.9007C25.7342 47.9007 23.9653 50.3368 23.9653 50.3368H80.1134C80.1134 50.3368 77.6819 45.0216 74.366 44.1355C71.0501 43.2494 69.2819 45.0216 68.6186 44.8001C67.9559 44.5785 66.8504 42.807 66.8504 42.807Z" fill="#F3F4F6" stroke="#17213A" stroke-miterlimit="10" stroke-linecap="round" stroke-linejoin="round"/>
</g>
</svg>
