<svg width="292" height="292" viewBox="0 0 292 292" fill="none" xmlns="http://www.w3.org/2000/svg">
<rect width="292" height="292" rx="8" fill="#383192" fill-opacity="0.05"/>
<path d="M276 214.569H16V214.699H276V214.569Z" fill="#E1E0EF"/>
<path d="M101.588 222.562H84.365V222.692H101.588V222.562Z" fill="#E1E0EF"/>
<path d="M150.599 221.156H146.079V221.286H150.599V221.156Z" fill="#E1E0EF"/>
<path d="M53.2586 218.968H43.2788V219.098H53.2586V218.968Z" fill="#E1E0EF"/>
<path d="M232.204 218.098H218.642V218.228H232.204V218.098Z" fill="#E1E0EF"/>
<path d="M214.012 218.098H201.821V218.228H214.012V218.098Z" fill="#E1E0EF"/>
<path d="M249.949 224.315H201.237V224.445H249.949V224.315Z" fill="#E1E0EF"/>
<path d="M181.675 213.027H193.923V159.643H181.675V213.027Z" fill="#E1E0EF"/>
<path d="M137.651 214.569H191.571V213.026H137.651V214.569Z" fill="#E1E0EF"/>
<path d="M181.674 159.644H135.299V213.028H181.674V159.644Z" fill="#F3F4F6"/>
<path d="M176.86 162.639H140.115V185.144H176.86V162.639Z" fill="#E1E0EF"/>
<path d="M176.86 187.526H140.115V210.032H176.86V187.526Z" fill="#E1E0EF"/>
<path d="M168.012 166.559H148.962C146.467 166.559 144.444 164.543 144.444 162.058H172.529C172.529 164.544 170.506 166.559 168.012 166.559Z" fill="#F5F5F5"/>
<path d="M168.012 191.447H148.962C146.467 191.447 144.444 189.432 144.444 186.946H172.529C172.529 189.432 170.506 191.447 168.012 191.447Z" fill="#F5F5F5"/>
<path d="M231.686 213.027H243.934V159.643H231.686V213.027Z" fill="#E1E0EF"/>
<path d="M187.662 214.569H241.582V213.026H187.662V214.569Z" fill="#E1E0EF"/>
<path d="M231.686 159.644H185.311V213.028H231.686V159.644Z" fill="#F3F4F6"/>
<path d="M226.87 162.639H190.125V185.144H226.87V162.639Z" fill="#E1E0EF"/>
<path d="M226.87 187.526H190.125V210.032H226.87V187.526Z" fill="#E1E0EF"/>
<path d="M218.023 166.559H198.973C196.478 166.559 194.455 164.543 194.455 162.058H222.54C222.54 164.544 220.517 166.559 218.023 166.559Z" fill="#F5F5F5"/>
<path d="M218.023 191.447H198.973C196.478 191.447 194.455 189.432 194.455 186.946H222.54C222.54 189.432 220.517 191.447 218.023 191.447Z" fill="#F5F5F5"/>
<path d="M73.9389 87.918H94.9131V63.7615H73.9389V87.918Z" fill="#E1E0EF"/>
<path d="M71.5476 87.918H94.3542V63.7615H71.5476V87.918Z" fill="#E1E0EF"/>
<path d="M92.4434 86.0145V65.665H73.4576V86.0145H92.4434Z" fill="white"/>
<path d="M87.8415 81.0824V80.3441C87.8415 74.9616 83.4621 70.5981 78.0598 70.5981V71.3364C78.0593 76.719 82.4393 81.0824 87.8415 81.0824Z" fill="#E1E0EF"/>
<path d="M165.05 133.516H243.933V59.9998L165.05 59.9998V133.516Z" fill="#E1E0EF"/>
<path d="M162.604 133.516H242.791V59.9998L162.604 59.9998V133.516Z" fill="#E1E0EF"/>
<path d="M165.05 136.136H243.933V133.516H165.05V136.136Z" fill="#E1E0EF"/>
<path d="M158.531 136.136H238.717V133.516H158.531V136.136Z" fill="#E1E0EF"/>
<path d="M239.368 129.57V63.9463L166.028 63.9463V129.57H239.368Z" fill="#F3F4F6"/>
<path d="M237.782 107.304C237.918 107.304 238.027 107.178 238.027 107.023V66.5133C238.027 66.3579 237.918 66.2314 237.782 66.2314C237.647 66.2314 237.538 66.3579 237.538 66.5133V107.023C237.538 107.178 237.648 107.304 237.782 107.304Z" fill="#E1E0EF"/>
<path d="M194.122 129.569L181.909 63.9453H174.062L186.276 129.569H194.122Z" fill="white"/>
<path d="M166.462 129.57V63.9463H166.028V129.57H166.462Z" fill="#E1E0EF"/>
<path opacity="0.4" d="M161.795 68.9958H240.678L240.994 65.4805H162.11L161.795 68.9958Z" fill="#E1E0EF"/>
<path opacity="0.4" d="M161.795 73.0392H240.678L240.994 69.5239H162.11L161.795 73.0392Z" fill="#E1E0EF"/>
<path opacity="0.4" d="M161.795 77.0832H240.678L240.994 73.5679H162.11L161.795 77.0832Z" fill="#E1E0EF"/>
<path opacity="0.4" d="M161.795 81.1271H240.678L240.994 77.6123H162.11L161.795 81.1271Z" fill="#E1E0EF"/>
<path opacity="0.4" d="M161.795 85.1706H240.678L240.994 81.6558H162.11L161.795 85.1706Z" fill="#E1E0EF"/>
<path opacity="0.4" d="M161.795 89.215H240.678L240.994 85.7002H162.11L161.795 89.215Z" fill="#E1E0EF"/>
<path opacity="0.4" d="M161.795 93.258H240.678L240.994 89.7432H162.11L161.795 93.258Z" fill="#E1E0EF"/>
<path opacity="0.4" d="M161.795 97.3024H240.678L240.994 93.7871H162.11L161.795 97.3024Z" fill="#E1E0EF"/>
<path opacity="0.4" d="M161.795 101.346H240.678L240.994 97.8311H162.11L161.795 101.346Z" fill="#E1E0EF"/>
<path d="M59.0665 127.327H75.4314V108.617H59.0665V127.327Z" fill="#E1E0EF"/>
<path d="M57.2142 127.327H74.8792V108.617H57.2142V127.327Z" fill="#E1E0EF"/>
<path d="M73.3994 125.852V110.091H58.6943V125.852H73.3994Z" fill="white"/>
<path d="M69.8352 118.258V117.686C69.8352 115.602 68.139 113.912 66.047 113.912C63.9545 113.912 62.2588 115.602 62.2588 117.686V118.258C62.2588 120.342 63.955 122.032 66.047 122.032C68.1395 122.032 69.8352 120.343 69.8352 118.258Z" fill="#E1E0EF"/>
<path d="M99.8862 120.627H122.353V94.8375H99.8862V120.627Z" fill="#E1E0EF"/>
<path d="M97.3332 120.627H121.682V94.8375H97.3332V120.627Z" fill="#E1E0EF"/>
<path d="M119.642 118.595V96.8696H99.3725V118.595H119.642Z" fill="white"/>
<path d="M110.355 103.703L114.203 110.342C114.58 110.993 114.108 111.805 113.354 111.805H105.659C104.906 111.805 104.435 110.993 104.811 110.342L108.659 103.703C109.036 103.052 109.979 103.052 110.355 103.703Z" fill="#E1E0EF"/>
<path d="M62.8122 214.569H75.1602V175.773H62.8122L62.8122 214.569Z" fill="#E1E0EF"/>
<path d="M65.1577 214.57H62.812V207.923H67.6163L65.1577 214.57Z" fill="#F0F0F0"/>
<path d="M108.961 214.569H121.309V175.773H108.961V214.569Z" fill="#E1E0EF"/>
<path d="M62.8121 210.491H111.008V175.774H62.8121L62.8121 210.491Z" fill="#F3F4F6"/>
<path d="M64.6316 177.95V202.182H86.1227V177.95H64.6316Z" fill="#E1E0EF"/>
<path d="M87.6973 177.95V202.182H109.188V177.95H87.6973Z" fill="#E1E0EF"/>
<path d="M96.3169 179.809H100.569C102.416 179.809 104.181 179.053 105.452 177.717H91.4346C92.7044 179.052 94.4703 179.809 96.3169 179.809Z" fill="#F0F0F0"/>
<path d="M73.0341 179.809H77.2862C79.1332 179.809 80.8986 179.053 82.169 177.717H68.1519C69.4217 179.052 71.1871 179.809 73.0341 179.809Z" fill="#F0F0F0"/>
<path d="M108.662 214.57H111.007V207.923H106.203L108.662 214.57Z" fill="#F0F0F0"/>
<path d="M95.9521 170.575C95.9521 172.047 97.1492 173.239 98.626 173.239C100.103 173.239 101.3 172.047 101.3 170.575C101.3 169.104 100.103 167.911 98.626 167.911C97.1492 167.911 95.9521 169.104 95.9521 170.575Z" fill="#E1E0EF"/>
<path d="M99.8396 171.508C101.316 171.508 102.513 170.315 102.513 168.844C102.513 167.372 101.316 166.18 99.8396 166.18C98.3629 166.18 97.1658 167.372 97.1658 168.844C97.1658 170.315 98.3629 171.508 99.8396 171.508Z" fill="#E1E0EF"/>
<path d="M82.5325 171.003C82.5325 172.475 83.7295 173.668 85.2068 173.668C86.6836 173.668 87.8807 172.475 87.8807 171.003C87.8807 169.532 86.6836 168.339 85.2068 168.339C83.7295 168.339 82.5325 169.532 82.5325 171.003Z" fill="#E1E0EF"/>
<path d="M103.419 172.546C105.23 172.546 106.698 171.083 106.698 169.278C106.698 167.474 105.23 166.011 103.419 166.011C101.608 166.011 100.14 167.474 100.14 169.278C100.14 171.083 101.608 172.546 103.419 172.546Z" fill="#E1E0EF"/>
<path d="M93.6382 166.269C93.6382 168.073 95.1061 169.536 96.9168 169.536C98.7274 169.536 100.195 168.073 100.195 166.269C100.195 164.465 98.7274 163.002 96.9168 163.002C95.1061 163.002 93.6382 164.465 93.6382 166.269Z" fill="#E1E0EF"/>
<path d="M88.438 167.104C88.438 168.908 89.9059 170.371 91.7166 170.371C93.5272 170.371 94.9952 168.908 94.9952 167.104C94.9952 165.3 93.5272 163.837 91.7166 163.837C89.9059 163.837 88.438 165.3 88.438 167.104Z" fill="#E1E0EF"/>
<path d="M90.6372 169.741C90.6372 171.468 92.0428 172.869 93.777 172.869C95.5112 172.869 96.9167 171.468 96.9167 169.741C96.9167 168.013 95.5112 166.612 93.777 166.612C92.0428 166.612 90.6372 168.013 90.6372 169.741Z" fill="#E1E0EF"/>
<path d="M85.2063 169.535C85.2063 171.389 86.7143 172.891 88.5743 172.891C90.4344 172.891 91.9424 171.389 91.9424 169.535C91.9424 167.682 90.4344 166.18 88.5743 166.18C86.7143 166.18 85.2063 167.682 85.2063 169.535Z" fill="#E1E0EF"/>
<path d="M108.65 170.575C108.65 170.575 108.283 175.773 94.2074 175.773C80.1315 175.773 79.7644 170.575 79.7644 170.575H108.65Z" fill="#F0F0F0"/>
<path d="M176.039 78.5695C175.613 77.166 175.052 75.821 174.368 74.5506L175.411 71.1555L168.682 64.4518L165.275 65.4906C164 64.8098 162.65 64.2503 161.241 63.8254L159.569 60.6909H150.053L148.381 63.8254C146.972 64.2503 145.623 64.8093 144.348 65.4906L140.94 64.4518L134.212 71.1555L135.254 74.5506C134.57 75.821 134.009 77.1655 133.583 78.5695L130.437 80.2357V89.7164L133.583 91.3827C134.009 92.7862 134.57 94.1312 135.254 95.4016L134.212 98.7967L140.94 105.5L144.348 104.462C145.623 105.142 146.972 105.702 148.381 106.127L150.053 109.261H159.569L161.241 106.127C162.65 105.702 164 105.143 165.275 104.462L168.682 105.5L175.411 98.7967L174.368 95.4016C175.051 94.1312 175.613 92.7867 176.039 91.3827L179.185 89.7164V80.2357L176.039 78.5695ZM154.811 98.4428C147.346 98.4428 141.295 92.4137 141.295 84.9758C141.295 77.538 147.346 71.5089 154.811 71.5089C162.276 71.5089 168.327 77.538 168.327 84.9758C168.327 92.4137 162.276 98.4428 154.811 98.4428Z" fill="#383192"/>
<path opacity="0.2" d="M176.039 78.5695C175.613 77.166 175.052 75.821 174.368 74.5506L175.411 71.1555L168.682 64.4518L165.275 65.4906C164 64.8098 162.65 64.2503 161.241 63.8254L159.569 60.6909H150.053L148.381 63.8254C146.972 64.2503 145.623 64.8093 144.348 65.4906L140.94 64.4518L134.212 71.1555L135.254 74.5506C134.57 75.821 134.009 77.1655 133.583 78.5695L130.437 80.2357V89.7164L133.583 91.3827C134.009 92.7862 134.57 94.1312 135.254 95.4016L134.212 98.7967L140.94 105.5L144.348 104.462C145.623 105.142 146.972 105.702 148.381 106.127L150.053 109.261H159.569L161.241 106.127C162.65 105.702 164 105.143 165.275 104.462L168.682 105.5L175.411 98.7967L174.368 95.4016C175.051 94.1312 175.613 92.7867 176.039 91.3827L179.185 89.7164V80.2357L176.039 78.5695ZM154.811 98.4428C147.346 98.4428 141.295 92.4137 141.295 84.9758C141.295 77.538 147.346 71.5089 154.811 71.5089C162.276 71.5089 168.327 77.538 168.327 84.9758C168.327 92.4137 162.276 98.4428 154.811 98.4428Z" fill="white"/>
<path d="M154.811 80.5146C152.338 80.5146 150.333 82.5124 150.333 84.9765C150.333 87.4406 152.338 89.4384 154.811 89.4384C157.284 89.4384 159.289 87.4406 159.289 84.9765C159.289 82.5124 157.284 80.5146 154.811 80.5146Z" fill="#383192"/>
<path d="M243.768 93.6079C243.161 91.6012 242.357 89.6791 241.383 87.86C241.383 87.86 241.383 87.8595 241.382 87.8595L242.87 83.0122L233.254 73.431L228.386 74.9148C226.564 73.9345 224.633 73.1372 222.618 72.5321C222.618 72.5321 222.618 72.5321 222.617 72.5315L220.23 68.0557H206.631L204.242 72.5326C202.229 73.133 200.3 73.9345 198.474 74.9143L193.606 73.4304L183.99 83.0117L185.477 87.858C185.477 87.8585 185.477 87.859 185.476 87.8595C184.502 89.6786 183.697 91.6013 183.09 93.6084L178.595 95.989V109.538L183.089 111.919C183.089 111.919 183.09 111.92 183.09 111.921C183.697 113.928 184.502 115.851 185.476 117.666C185.477 117.667 185.477 117.668 185.477 117.668L183.989 122.516L193.606 132.096L198.475 130.612C200.3 131.591 202.228 132.392 204.241 132.993L206.631 137.472H220.23L222.618 132.994C222.618 132.994 222.618 132.994 222.619 132.994C224.633 132.389 226.563 131.592 228.384 130.612L233.255 132.096L242.871 122.516L241.382 117.668C241.382 117.667 241.383 117.667 241.383 117.667C242.357 115.851 243.162 113.929 243.769 111.921C243.769 111.921 243.769 111.92 243.77 111.92L248.266 109.539V95.9896L243.768 93.6079ZM213.429 127.325C199.816 127.325 188.779 116.33 188.779 102.766C188.779 89.1962 199.815 78.2006 213.429 78.2006C227.043 78.2006 238.084 89.1962 238.084 102.766C238.084 116.33 227.042 127.325 213.429 127.325Z" fill="#383192"/>
<path d="M213.429 81.6392C201.739 81.6392 192.228 91.1157 192.228 102.764C192.228 114.412 201.739 123.888 213.429 123.888C225.121 123.888 234.631 114.412 234.631 102.764C234.631 91.1157 225.121 81.6392 213.429 81.6392ZM213.429 121.074C203.296 121.074 195.052 112.86 195.052 102.764C195.052 92.6669 203.296 84.453 213.429 84.453C223.563 84.453 231.807 92.6669 231.807 102.764C231.807 112.86 223.563 121.074 213.429 121.074Z" fill="#383192"/>
<path opacity="0.2" d="M213.429 81.6392C201.739 81.6392 192.228 91.1157 192.228 102.764C192.228 114.412 201.739 123.888 213.429 123.888C225.121 123.888 234.631 114.412 234.631 102.764C234.631 91.1157 225.121 81.6392 213.429 81.6392ZM213.429 121.074C203.296 121.074 195.052 112.86 195.052 102.764C195.052 92.6669 203.296 84.453 213.429 84.453C223.563 84.453 231.807 92.6669 231.807 102.764C231.807 112.86 223.563 121.074 213.429 121.074Z" fill="black"/>
<path d="M164.72 138.805C164.432 138.805 164.2 138.573 164.2 138.287V137.251C164.2 136.965 164.432 136.733 164.72 136.733C165.008 136.733 165.24 136.965 165.24 137.251V138.287C165.24 138.573 165.008 138.805 164.72 138.805Z" fill="#383192"/>
<path d="M156.623 125.417C156.146 125.108 155.776 124.67 155.554 124.149C155.441 123.886 155.135 123.764 154.872 123.875C154.607 123.987 154.485 124.292 154.598 124.555C154.901 125.266 155.406 125.863 156.056 126.286C156.144 126.342 156.241 126.37 156.339 126.37C156.509 126.37 156.676 126.287 156.775 126.134C156.931 125.895 156.864 125.574 156.623 125.417Z" fill="#383192"/>
<path d="M154.81 118.946C155.098 118.946 155.33 118.714 155.33 118.428V116.442C155.33 116.156 155.098 115.924 154.81 115.924C154.523 115.924 154.29 116.156 154.29 116.442V118.428C154.29 118.714 154.523 118.946 154.81 118.946Z" fill="#383192"/>
<path d="M160.222 125.874H158.228C157.94 125.874 157.708 126.106 157.708 126.392C157.708 126.678 157.94 126.91 158.228 126.91H160.222C160.51 126.91 160.742 126.678 160.742 126.392C160.742 126.105 160.509 125.874 160.222 125.874Z" fill="#383192"/>
<path d="M155.33 122.401V120.414C155.33 120.128 155.098 119.896 154.81 119.896C154.523 119.896 154.29 120.128 154.29 120.414V122.401C154.29 122.688 154.523 122.919 154.81 122.919C155.098 122.919 155.33 122.688 155.33 122.401Z" fill="#383192"/>
<path d="M165.208 129.239C165.172 128.956 164.913 128.754 164.627 128.791C164.342 128.828 164.14 129.087 164.177 129.371C164.192 129.491 164.201 129.614 164.201 129.739V131.291C164.201 131.577 164.433 131.809 164.721 131.809C165.008 131.809 165.241 131.577 165.241 131.291V129.739C165.24 129.569 165.229 129.403 165.208 129.239Z" fill="#383192"/>
<path d="M164.72 132.759C164.432 132.759 164.2 132.991 164.2 133.277V135.264C164.2 135.55 164.432 135.782 164.72 135.782C165.008 135.782 165.24 135.55 165.24 135.264V133.277C165.24 132.991 165.008 132.759 164.72 132.759Z" fill="#383192"/>
<path d="M164.27 127.181C163.755 126.6 163.087 126.191 162.337 125.997C162.059 125.925 161.776 126.092 161.703 126.369C161.631 126.645 161.798 126.928 162.076 127C162.624 127.142 163.113 127.442 163.49 127.867C163.593 127.983 163.736 128.042 163.88 128.042C164.002 128.042 164.125 127.999 164.224 127.912C164.439 127.723 164.459 127.396 164.27 127.181Z" fill="#383192"/>
<path d="M154.81 114.953C154.523 114.953 154.29 114.721 154.29 114.435V113.398C154.29 113.112 154.523 112.88 154.81 112.88C155.098 112.88 155.33 113.112 155.33 113.398V114.435C155.33 114.721 155.098 114.953 154.81 114.953Z" fill="#383192"/>
<path d="M189.351 164.89H68.9526V166.811H189.351V164.89Z" fill="#383192"/>
<path d="M189.351 166.811H215.477V164.89H189.351V166.811Z" fill="#383192"/>
<path opacity="0.2" d="M189.351 166.811H215.477V164.89H189.351V166.811Z" fill="black"/>
<path d="M206.754 168.869H77.6754L73.3594 166.811H211.07L206.754 168.869Z" fill="#383192"/>
<path opacity="0.6" d="M206.754 168.869H77.6754L73.3594 166.811H211.07L206.754 168.869Z" fill="white"/>
<path d="M81.5789 168.869V230.179H83.2314L85.3125 168.869H81.5789Z" fill="#383192"/>
<path d="M101.097 168.869V230.179H102.749L104.831 168.869H101.097Z" fill="#383192"/>
<path d="M206.754 168.869V230.179H205.102L203.021 168.869H206.754Z" fill="#383192"/>
<path d="M187.236 168.869V230.179H185.583L183.502 168.869H187.236Z" fill="#383192"/>
<path d="M147.946 141.618L142.514 163.671H142.511L142.36 164.89H179.844L179.996 163.671L185.429 141.618H147.946Z" fill="#383192"/>
<path opacity="0.3" d="M147.946 141.618L142.514 163.671H142.511L142.36 164.89H179.844L179.996 163.671L185.429 141.618H147.946Z" fill="black"/>
<path d="M184.274 141.618H146.792L141.359 163.671H178.842L184.274 141.618Z" fill="#383192"/>
<path d="M178.05 162.664L182.986 142.625H147.585L142.649 162.664H178.05Z" fill="white"/>
<path d="M169.076 163.671L168.924 164.89H127.648L127.8 163.671H169.076Z" fill="#383192"/>
<path opacity="0.6" d="M169.076 163.671L168.924 164.89H127.648L127.8 163.671H169.076Z" fill="white"/>
<path d="M91.1089 160.881C91.1089 159.281 89.837 157.957 88.1834 157.722V157.124C88.1834 156.984 88.0612 156.871 87.9104 156.871H82.2923C82.1415 156.871 82.0193 156.984 82.0193 157.124V164.89H88.1828V164.039C89.837 163.805 91.1089 162.48 91.1089 160.881ZM88.1834 163.038V158.723C89.2478 158.946 90.047 159.826 90.047 160.88C90.047 161.935 89.2478 162.816 88.1834 163.038Z" fill="#383192"/>
<path d="M196.213 164.891H201.432L199.886 153.497H196.213V164.891Z" fill="#263238"/>
<path d="M188.556 164.891H198.444L200.285 151.555H190.397L188.556 164.891Z" fill="#383192"/>
<path opacity="0.3" d="M188.556 164.891H198.444L200.285 151.555H190.397L188.556 164.891Z" fill="black"/>
<path d="M187.236 164.891H197.526L199.367 151.555H189.077L187.236 164.891Z" fill="#383192"/>
<path opacity="0.4" d="M196.616 163.839L198.167 152.606H189.987L188.436 163.839H196.616Z" fill="white"/>
<path d="M118.719 145.201L118.295 145.661L117.835 146.178C117.527 146.528 117.226 146.888 116.933 147.255C116.351 147.992 115.786 148.743 115.263 149.513C114.214 151.051 113.315 152.659 112.674 154.301C112.359 155.123 112.099 155.949 111.937 156.775C111.853 157.253 111.799 157.459 111.775 157.661C111.748 157.86 111.744 157.997 111.775 158.149C111.803 158.444 112.167 158.923 112.833 159.317C113.154 159.525 113.534 159.7 113.937 159.87C114.139 159.951 114.348 160.029 114.559 160.104C114.76 160.175 115.01 160.251 115.162 160.31L115.169 163.167C114.807 163.22 114.542 163.259 114.232 163.278C113.932 163.3 113.63 163.306 113.325 163.297C112.715 163.288 112.094 163.21 111.449 163.062C110.81 162.904 110.144 162.67 109.483 162.277C108.832 161.885 108.172 161.332 107.673 160.598C107.175 159.869 106.859 159.005 106.729 158.185C106.687 157.975 106.675 157.777 106.662 157.576C106.644 157.371 106.644 157.177 106.649 156.986L106.656 156.696C106.659 156.6 106.669 156.539 106.676 156.46L106.721 156.007C106.854 154.802 107.112 153.634 107.469 152.518C108.174 150.28 109.207 148.23 110.417 146.341C111.021 145.394 111.675 144.49 112.377 143.623C112.726 143.188 113.085 142.762 113.457 142.341C113.643 142.13 113.832 141.922 114.032 141.717C114.238 141.503 114.413 141.324 114.678 141.068L118.719 145.201Z" fill="#FFBF9D"/>
<path d="M114.097 160.245L116.519 158.476L117.9 163.438C117.9 163.438 115.754 164.232 114.111 163.166L114.097 160.245Z" fill="#FFBF9D"/>
<path d="M119.883 157.286L120.832 161.441L117.9 163.44L116.519 158.477L119.883 157.286Z" fill="#FFBF9D"/>
<path d="M135.211 126.155C135.103 126.463 135.18 126.768 135.381 126.838C135.583 126.908 135.833 126.715 135.94 126.409C136.047 126.101 135.971 125.796 135.77 125.726C135.568 125.656 135.318 125.848 135.211 126.155Z" fill="#263238"/>
<path d="M135.151 126.759C135.151 126.759 135.233 128.774 135.707 129.896C134.984 130.214 134.138 129.661 134.138 129.661L135.151 126.759Z" fill="#FFBF9D"/>
<path d="M134.712 124.074C134.749 124.087 134.79 124.089 134.83 124.077C135.641 123.836 136.177 124.269 136.199 124.288C136.28 124.355 136.401 124.344 136.469 124.264C136.537 124.183 136.527 124.064 136.447 123.995C136.418 123.972 135.737 123.408 134.72 123.71C134.619 123.74 134.561 123.847 134.591 123.948C134.61 124.009 134.656 124.055 134.712 124.074Z" fill="#263238"/>
<path d="M123.809 127.284C124.389 130.234 124.968 135.638 122.897 137.606C122.897 137.606 123.706 140.598 129.207 140.598C135.256 140.598 132.098 137.606 132.098 137.606C128.796 136.821 128.882 134.381 129.457 132.089L123.809 127.284Z" fill="#FFBF9D"/>
<path d="M122.104 138.634C121.671 137.687 121.193 136.603 122.181 136.263C123.267 135.89 129.214 135.509 131.264 136.21C133.315 136.912 132.733 138.832 132.733 138.832L122.104 138.634Z" fill="#263238"/>
<path d="M142.871 143.689C144.141 145.976 145.51 148.325 146.896 150.586C148.287 152.855 149.728 155.09 151.279 157.145C151.665 157.667 152.061 158.154 152.458 158.644C152.653 158.899 152.863 159.11 153.065 159.342L153.37 159.685L153.447 159.771L153.485 159.814L153.497 159.826C153.512 159.841 153.525 159.858 153.537 159.877C153.647 160.022 153.965 160.224 154.386 160.385C154.811 160.55 155.34 160.662 155.903 160.755C158.188 161.079 160.929 160.917 163.499 160.666L164.289 163.413C163.586 163.722 162.93 163.957 162.236 164.189C161.55 164.423 160.852 164.623 160.138 164.795C158.709 165.135 157.232 165.381 155.626 165.396C154.821 165.406 153.983 165.339 153.084 165.146C152.191 164.942 151.206 164.619 150.255 163.889L149.907 163.603L149.823 163.531L149.772 163.481L149.671 163.382L149.264 162.985C148.999 162.718 148.712 162.456 148.471 162.183C147.97 161.641 147.462 161.1 147.01 160.539C145.142 158.319 143.516 156.01 141.992 153.652C141.229 152.473 140.497 151.281 139.796 150.071C139.089 148.855 138.408 147.664 137.748 146.377L142.871 143.689Z" fill="#FFBF9D"/>
<path d="M115.651 138.518C111.858 139.384 107.509 149.687 107.509 149.687L115.127 154.889C115.127 154.889 118.012 150.867 120.158 146.366C122.406 141.651 119.529 137.632 115.651 138.518Z" fill="#383192"/>
<path opacity="0.2" d="M118.369 145.087L114.767 154.642L115.124 154.889C115.124 154.889 116.683 152.711 118.369 149.769V145.087Z" fill="black"/>
<path d="M138.322 138.726C138.322 138.726 142.629 143.573 138.562 173.575C132.04 173.575 120.091 173.575 116.918 173.575C116.768 170.265 118.856 154.116 115.651 138.518C115.651 138.518 119.362 137.776 122.897 137.606C125.662 137.473 129.666 137.385 132.098 137.607C135.303 137.898 138.322 138.726 138.322 138.726Z" fill="#383192"/>
<path opacity="0.2" d="M135.919 147.399C135.99 147.487 136.465 152.355 140.194 156.631C140.282 154.699 140.315 152.965 140.309 151.412L135.919 147.399Z" fill="black"/>
<path d="M134.053 141.995C133.519 145.812 141.069 155.565 141.069 155.565L148.656 150.362C148.656 150.362 146.553 144.988 143.009 141.466C138.963 137.445 134.633 137.839 134.053 141.995Z" fill="#383192"/>
<path d="M162.623 160.681L165.714 159.42L168.892 161.81C168.892 161.81 165.858 164.484 163.101 163.446L162.623 160.681Z" fill="#FFBF9D"/>
<path d="M167.768 159.295L170.097 160.953L168.893 161.811L165.714 159.421L167.768 159.295Z" fill="#FFBF9D"/>
<path d="M125.155 121.941C124.07 125.794 123.239 127.994 124.475 130.593C126.335 134.502 131.611 134.394 133.83 130.942C135.826 127.834 137.264 122.056 134.082 119.27C130.947 116.526 126.24 118.088 125.155 121.941Z" fill="#FFBF9D"/>
<path d="M133.388 121.98C131.81 126.407 129.996 131.266 125.513 130.345C122.621 129.75 122.398 125.113 121.355 123.005C120.437 121.151 120.492 117.432 122.374 117.386C121.525 116.152 125.834 111.639 128.777 114.025C129.53 112.988 134.966 109.938 138.991 114.78C142.797 119.359 140.938 123.19 133.388 121.98Z" fill="#263238"/>
<path d="M129.882 124.808C129.754 125.849 130.055 126.905 130.515 127.644C131.208 128.755 132.222 128.327 132.59 127.195C132.92 126.176 132.959 124.371 131.995 123.652C131.045 122.943 130.028 123.619 129.882 124.808Z" fill="#FFBF9D"/>
<path d="M163.099 227.252C163.618 227.252 164.119 227.18 164.288 226.948C164.347 226.867 164.393 226.728 164.28 226.531C164.217 226.42 164.114 226.345 163.976 226.307C163.302 226.124 161.888 226.927 161.828 226.962C161.793 226.982 161.775 227.021 161.781 227.061C161.788 227.1 161.818 227.131 161.857 227.138C162.115 227.19 162.615 227.252 163.099 227.252ZM163.74 226.469C163.808 226.469 163.87 226.476 163.925 226.491C164.014 226.515 164.075 226.559 164.113 226.625C164.181 226.744 164.156 226.802 164.132 226.836C163.944 227.096 162.92 227.103 162.168 226.997C162.544 226.805 163.268 226.469 163.74 226.469Z" fill="#383192"/>
<path d="M161.876 227.139C161.89 227.139 161.903 227.136 161.916 227.131C162.404 226.912 163.372 226.04 163.298 225.585C163.28 225.478 163.204 225.345 162.941 225.318C162.746 225.3 162.567 225.354 162.41 225.482C161.895 225.903 161.786 226.989 161.781 227.035C161.778 227.069 161.793 227.102 161.821 227.122C161.837 227.133 161.856 227.139 161.876 227.139ZM162.864 225.504C162.882 225.504 162.901 225.505 162.921 225.507C163.093 225.525 163.105 225.592 163.108 225.615C163.153 225.888 162.495 226.573 161.997 226.872C162.049 226.555 162.193 225.905 162.531 225.629C162.633 225.546 162.742 225.504 162.864 225.504Z" fill="#383192"/>
<path d="M157.168 227.044H161.215L162.134 217.707H158.087L157.168 227.044Z" fill="#FFBF9D"/>
<path d="M161.446 226.578H157.027C156.861 226.578 156.718 226.692 156.682 226.853L155.883 230.437C155.8 230.808 156.083 231.161 156.464 231.154C158.059 231.127 160.362 231.034 162.366 231.034C164.709 231.034 166.732 231.161 169.48 231.161C171.141 231.161 171.602 229.488 170.906 229.337C167.741 228.646 165.156 228.573 162.42 226.892C162.124 226.709 161.796 226.578 161.446 226.578Z" fill="#263238"/>
<path opacity="0.2" d="M162.133 217.71L161.66 222.523H157.612L158.084 217.71H162.133Z" fill="black"/>
<path d="M146.88 227.251C147.295 227.251 147.697 227.188 147.852 226.985C147.918 226.9 147.97 226.752 147.849 226.531C147.785 226.416 147.684 226.341 147.548 226.309C146.959 226.171 145.84 226.934 145.793 226.966C145.761 226.987 145.746 227.025 145.753 227.062C145.76 227.099 145.788 227.128 145.824 227.137C146.032 227.187 146.462 227.251 146.88 227.251ZM147.386 226.482C147.428 226.482 147.468 226.486 147.504 226.495C147.587 226.514 147.644 226.556 147.681 226.623C147.768 226.78 147.717 226.846 147.7 226.868C147.527 227.094 146.702 227.098 146.096 226.997C146.445 226.783 147.018 226.482 147.386 226.482Z" fill="#383192"/>
<path d="M145.847 227.139C145.862 227.139 145.878 227.135 145.892 227.128C146.311 226.901 147.121 226.018 147.035 225.568C147.02 225.487 146.959 225.346 146.73 225.318C146.582 225.3 146.444 225.341 146.322 225.441C145.852 225.824 145.755 226.987 145.751 227.037C145.748 227.071 145.765 227.105 145.794 227.124C145.811 227.134 145.829 227.139 145.847 227.139ZM146.664 225.505C146.678 225.505 146.692 225.506 146.707 225.508C146.832 225.523 146.842 225.58 146.847 225.604C146.898 225.87 146.382 226.537 145.966 226.852C146.013 226.512 146.142 225.834 146.444 225.589C146.512 225.532 146.585 225.505 146.664 225.505Z" fill="#383192"/>
<path d="M141.211 227.044H145.257L147.291 217.707H143.244L141.211 227.044Z" fill="#FFBF9D"/>
<path d="M145.545 226.578H140.999C140.834 226.578 140.69 226.692 140.654 226.853L139.855 230.437C139.772 230.808 140.065 231.16 140.447 231.154C142.034 231.127 142.805 231.034 144.805 231.034C146.035 231.034 147.613 231.162 149.312 231.162C150.973 231.162 151.232 229.488 150.537 229.337C147.419 228.657 147.2 227.721 146.201 226.826C146.022 226.664 145.787 226.578 145.545 226.578Z" fill="#263238"/>
<path d="M143.243 217.71H147.292L146.241 222.523H142.193L143.243 217.71Z" fill="black"/>
<path d="M138.562 173.575C138.562 173.575 168.88 176.77 168.548 192.179C168.202 208.207 163.027 220.475 163.027 220.475H157.014C157.014 220.475 157.32 210.703 157.118 194.924C157.058 190.196 147.47 188.634 138.108 188.083C130.02 187.607 122.926 182.539 119.784 175.098L119.14 173.575H138.562Z" fill="#263238"/>
<path d="M164.495 218.871C164.527 218.871 164.108 221.706 164.108 221.706H155.77L155.544 219.175L164.495 218.871Z" fill="#383192"/>
<path d="M132.075 173.575C132.075 173.575 154.051 180.838 154.604 189.823C155.625 206.37 147.478 220.475 147.478 220.475H141.408C141.408 220.475 143.714 213.482 144.541 198.491C145.58 179.655 110.31 198.458 116.918 173.576H132.075V173.575Z" fill="#263238"/>
<path d="M149.311 218.871C149.342 218.871 148.545 221.706 148.545 221.706H140.207L140.359 219.175L149.311 218.871Z" fill="#383192"/>
<path d="M147.922 189.435H114.126C114.126 187.314 115.852 185.594 117.982 185.594H144.066C146.195 185.594 147.922 187.314 147.922 189.435Z" fill="#383192"/>
<path d="M115.687 189.435L110.595 232H111.684L118.146 189.435H115.687Z" fill="#383192"/>
<path opacity="0.4" d="M115.687 189.435L110.595 232H111.684L118.146 189.435H115.687Z" fill="black"/>
<path d="M122.505 189.435L122.408 232H123.497L124.964 189.435H122.505Z" fill="#383192"/>
<path opacity="0.4" d="M122.505 189.435L122.408 232H123.497L124.964 189.435H122.505Z" fill="black"/>
<path d="M146.36 189.435L151.452 232H150.364L143.902 189.435H146.36Z" fill="#383192"/>
<path opacity="0.4" d="M146.36 189.435L151.452 232H150.364L143.902 189.435H146.36Z" fill="black"/>
<path d="M139.542 189.435L139.639 232H138.551L137.083 189.435H139.542Z" fill="#383192"/>
<path opacity="0.4" d="M139.542 189.435L139.639 232H138.551L137.083 189.435H139.542Z" fill="black"/>
</svg>
