<svg width="18" height="18" viewBox="0 0 18 18" fill="none" xmlns="http://www.w3.org/2000/svg">
<rect width="18" height="18" rx="3" fill="#383192"/>
<path fill-rule="evenodd" clip-rule="evenodd" d="M14.49 5.36727C14.1645 4.73564 13.8113 4.61945 13.092 4.57527C12.3735 4.52209 10.5667 4.5 9.0015 4.5C7.43325 4.5 5.62575 4.52209 4.908 4.57445C4.19025 4.61945 3.83625 4.73482 3.50775 5.36727C3.1725 5.99809 3 7.08464 3 8.99755V9.00409C3 10.9088 3.1725 12.0035 3.50775 12.6278C3.83625 13.2595 4.1895 13.374 4.90725 13.4272C5.62575 13.473 7.43325 13.5 9.0015 13.5C10.5667 13.5 12.3735 13.473 13.0927 13.428C13.812 13.3748 14.1653 13.2603 14.4908 12.6286C14.829 12.0044 15 10.9096 15 9.00491V8.99836C15 7.08464 14.829 5.99809 14.49 5.36727Z" fill="white"/>
<path fill-rule="evenodd" clip-rule="evenodd" d="M7.80005 10.9286V7.07142L11.4 8.99999L7.80005 10.9286Z" fill="#383192"/>
</svg>
